<svg xmlns="http://www.w3.org/2000/svg" height="1792" preserveAspectRatio="none" style="display: block;" version="1.1" viewBox="0 0 2432 1792" width="2432">
<path d="M 0 0 L 2432 0 L 2432 1792 L 0 1792 L 0 0 z" fill="rgb(255,255,255)" transform="translate(0,0)"></path>
<path d="M 151.35 192.829 C 153.491 190.864 153.897 190.878 157.676 190.901 C 183.287 191.06 209.084 190.939 234.681 190.882 L 417.776 190.974 L 977.029 191.015 L 1078 191.12 C 1103.44 191.183 1130.12 192.343 1155.35 189.125 C 1164.79 187.921 1174.24 186.589 1183.66 185.265 L 1265.27 173.444 L 1265.28 1438.26 L 1711.77 1559.5 L 1814.58 1587.84 C 1831.11 1592.33 1869.38 1601.6 1882.19 1608.17 C 1883.55 1610.86 1883.12 1609.4 1882.85 1612.88 C 1875.25 1619.81 1824.48 1617.08 1812.13 1617.07 L 1699.68 1617.08 L 1356.85 1617.07 L 1047.8 1617.05 L 946.996 1617.04 C 932.223 1617.05 913.461 1617.33 899.021 1617.13 C 888.118 1616.97 858.404 1606.2 846.277 1602.21 L 775.207 1578.89 L 463.551 1477.84 L 371.815 1448.17 C 354.854 1442.65 336.027 1435.98 318.877 1431.61 C 311.856 1429.81 290.446 1430.37 281.828 1430.39 L 191.777 1430.58 C 179.987 1430.59 167.076 1430.79 155.24 1430.49 C 153.1 1430.44 152.864 1429.66 151.462 1428.25 C 150.384 1383.95 152.907 1337.63 151.068 1293.16 L 152.623 1291.58 C 162.308 1290.37 191.961 1291.2 203.402 1291.22 L 308.536 1291.31 L 308.464 1057.19 C 290.933 1057.11 158.162 1058.46 152.886 1055.39 C 162.224 1053.56 194.141 1054.17 205.379 1054.16 L 308.495 1054.12 L 308.514 864.251 C 287.225 864.237 162.935 865.968 152.645 862.303 L 152.671 862.113 C 160.013 860.35 194.456 861.027 203.811 861.038 L 308.607 861.012 L 308.414 669.452 L 206 669.285 C 189.351 669.293 169.812 670.229 153.431 668.563 L 154.323 667.869 L 152.697 668.271 C 159.519 664.714 290.288 666.125 308.5 666.212 L 308.58 475.439 L 212.529 475.287 C 195.977 475.29 167.514 476.154 152.423 473.66 L 151.847 472.996 L 151.42 473.037 C 162.161 471.351 193.679 472.002 205.698 471.999 L 308.524 472.074 L 308.305 272.817 L 203.98 272.835 C 195.299 272.844 156.869 273.585 150.715 271.654 C 151.89 262.79 151.503 250.656 151.513 241.515 C 151.573 225.286 151.519 209.057 151.35 192.829 z" fill="rgb(27,23,20)" transform="translate(0,0)"></path>
<path d="M 151.35 192.829 C 157.609 194.878 211.91 194.1 223.557 194.096 L 360.138 194.128 L 360.063 1427.75 C 314.977 1427.33 269.889 1427.22 224.802 1427.44 C 213.505 1427.41 156.939 1426.4 151.462 1428.25 C 150.384 1383.95 152.907 1337.63 151.068 1293.16 L 152.623 1291.58 C 162.308 1290.37 191.961 1291.2 203.402 1291.22 L 308.536 1291.31 L 308.464 1057.19 C 290.933 1057.11 158.162 1058.46 152.886 1055.39 C 162.224 1053.56 194.141 1054.17 205.379 1054.16 L 308.495 1054.12 L 308.514 864.251 C 287.225 864.237 162.935 865.968 152.645 862.303 L 152.671 862.113 C 160.013 860.35 194.456 861.027 203.811 861.038 L 308.607 861.012 L 308.414 669.452 L 206 669.285 C 189.351 669.293 169.812 670.229 153.431 668.563 L 154.323 667.869 L 152.697 668.271 C 159.519 664.714 290.288 666.125 308.5 666.212 L 308.58 475.439 L 212.529 475.287 C 195.977 475.29 167.514 476.154 152.423 473.66 L 151.847 472.996 L 151.42 473.037 C 162.161 471.351 193.679 472.002 205.698 471.999 L 308.524 472.074 L 308.305 272.817 L 203.98 272.835 C 195.299 272.844 156.869 273.585 150.715 271.654 C 151.89 262.79 151.503 250.656 151.513 241.515 C 151.573 225.286 151.519 209.057 151.35 192.829 z" fill="rgb(247,241,234)" transform="translate(0,0)"></path>
<path d="M 150.715 271.654 C 155.198 267.984 197.094 269.305 205.668 269.303 L 311.918 269.331 L 311.889 1294.4 C 295.067 1294.41 155.932 1295.47 151.068 1293.16 L 152.623 1291.58 C 162.308 1290.37 191.961 1291.2 203.402 1291.22 L 308.536 1291.31 L 308.464 1057.19 C 290.933 1057.11 158.162 1058.46 152.886 1055.39 C 162.224 1053.56 194.141 1054.17 205.379 1054.16 L 308.495 1054.12 L 308.514 864.251 C 287.225 864.237 162.935 865.968 152.645 862.303 L 152.671 862.113 C 160.013 860.35 194.456 861.027 203.811 861.038 L 308.607 861.012 L 308.414 669.452 L 206 669.285 C 189.351 669.293 169.812 670.229 153.431 668.563 L 154.323 667.869 L 152.697 668.271 C 159.519 664.714 290.288 666.125 308.5 666.212 L 308.58 475.439 L 212.529 475.287 C 195.977 475.29 167.514 476.154 152.423 473.66 L 151.847 472.996 L 151.42 473.037 C 162.161 471.351 193.679 472.002 205.698 471.999 L 308.524 472.074 L 308.305 272.817 L 203.98 272.835 C 195.299 272.844 156.869 273.585 150.715 271.654 z" fill="rgb(27,23,20)" transform="translate(0,0)"></path>
<path d="M 363.195 194.176 C 435.765 193.359 509.812 194.069 582.468 194.072 L 966.266 194.147 L 966.348 745.359 C 923.353 708.784 931.578 705.92 908.688 658.182 C 883.424 605.494 846.815 569.29 796.485 540.813 C 797.542 534.323 798.034 527.661 798.618 521.103 C 793.368 521.091 789.977 521.01 784.705 520.49 C 785.263 517.937 785.14 516.704 785.102 514.145 C 785.195 507.144 785.277 502.532 784.5 495.61 C 787.819 493.303 795.053 490.673 798.995 488.285 C 835.584 466.125 844.265 422.028 823.94 386.274 C 837.974 382.771 884.656 373.925 878.571 354.503 C 877.157 350.006 873.9 346.321 869.612 344.363 C 858.726 339.281 822.714 354.633 809.729 359.127 C 790.753 332.196 764.209 323.993 732.636 328.11 C 728.451 324.258 723.055 321.95 717.276 322.431 C 712.637 322.478 710.798 332.872 708.545 334.438 C 684.643 351.054 663.316 370.292 668.717 403.24 C 663.321 409.912 660.472 413.369 657.192 421.476 C 639.728 410.454 618.899 410.002 607.693 430.171 C 603.024 438.396 602.013 448.2 604.905 457.205 C 612.213 479.751 634.771 485.005 653.896 473.627 C 660.459 493.276 675.67 508.507 697.831 499.387 C 699.575 498.668 701.269 497.835 702.903 496.892 L 702.824 521.826 C 671.524 522.25 624.245 516.874 606.218 547.077 C 595.048 565.792 587.363 570.822 572.626 586.427 C 552.973 607.574 533.431 628.823 514.001 650.174 C 503.017 662.208 486.498 679.291 478.075 692.27 C 474.794 697.225 472.063 702.522 469.93 708.069 C 463.398 725.193 460.148 745.01 452.8 762.229 C 448.06 773.334 443.961 785.146 449.685 796.727 L 448.577 799.839 C 440.906 819.411 434.491 837.126 448.456 856.849 C 454.436 865.295 466.324 870.721 475.786 874.348 C 513.688 885.875 553.598 903.391 591.552 913.774 C 598.325 944.116 604.109 966.846 617.976 994.977 C 620.288 999.667 624.239 1009.85 626.798 1013.84 C 620.823 1023.04 613.418 1037.19 606.297 1044.81 C 597.713 1053.99 587.097 1063.86 577.957 1072.74 L 525.808 1123.46 C 515.401 1133.6 504.46 1143.41 495.662 1154.98 C 486.383 1167.18 486.52 1194.35 499.054 1204.27 C 487.61 1214.31 472.736 1234.28 461.831 1245.9 C 454.881 1245 450.415 1245.01 444.824 1249.94 C 433.35 1260.04 421.813 1274.49 411.535 1286.04 C 407.112 1291.12 405.861 1294.17 404.174 1300.73 L 402.195 1301.82 C 394.934 1300.56 371.792 1301.16 363.245 1301.24 L 363.195 194.176 z" fill="rgb(255,255,255)" transform="translate(0,0)"></path>
<path d="M 363.23 1304.05 C 375.869 1304.06 392.106 1304.49 404.434 1303.62 C 406.775 1317.89 417.435 1324.93 427.563 1334.75 L 460.665 1366.75 L 501.572 1406.46 C 521.139 1425.42 548.753 1458.58 576.554 1424.84 C 583.249 1416.71 583.818 1406.61 581.997 1396.87 C 580.881 1389.72 567.951 1359.32 564.302 1354.12 C 563.553 1352.78 563.671 1352.93 563.368 1351.29 C 562.5 1345.93 562.13 1343.16 561.908 1337.67 C 557.047 1336.11 543.969 1330.84 541.456 1326.32 C 545.799 1325.42 557.013 1332.17 561.479 1334.58 C 559.549 1328.17 561.505 1323.52 559.145 1318.59 C 553.207 1316.13 545.496 1313.59 541.24 1308.9 L 542.419 1308.25 C 547.806 1309.14 554.288 1312.93 559.318 1315.51 C 559.928 1312 560.06 1307.33 560.293 1303.68 C 572.325 1305.04 602.293 1304.21 615.355 1304.2 L 722.933 1304.16 C 730.46 1340.25 738.573 1372.94 784.889 1365.55 C 788.238 1372.2 788.132 1384.91 790.525 1390.77 C 792.292 1401.88 794.217 1412.96 796.298 1424.01 C 795.105 1425.92 789.909 1433.59 789.83 1434.85 C 789.224 1444.52 790.052 1475.69 792.834 1483.79 C 792.765 1499.93 797.029 1508.41 814.587 1507.14 C 871.637 1503.02 928.847 1499.81 985.879 1495.59 C 1011.49 1493.69 1025.27 1468.15 1013.46 1445.19 C 1002.82 1426.84 977.4 1425.85 958.833 1418.79 L 958.005 1418.47 C 953.45 1420.78 940.121 1427.72 935.613 1427.27 L 934.921 1426.2 C 937.606 1423.57 948.66 1419.97 953.371 1416.41 C 947.949 1414.6 944.571 1411.65 938.558 1409.78 C 934.355 1412.08 920.891 1418.78 916.775 1418.26 L 916.254 1417.19 C 919.313 1414.83 931.866 1409.49 936.056 1407.52 C 931.478 1406.03 925.474 1401.65 919.974 1399.22 C 914.528 1402.61 907.087 1406.13 900.714 1406.72 L 900.722 1405.57 C 904.774 1402.29 912.078 1399.76 917.133 1397.74 C 906.208 1387.02 903.248 1384.74 888.074 1384.6 C 884.652 1370.68 881.618 1355.82 878.514 1341.76 C 881.969 1340.07 885.227 1338.58 888.482 1336.52 L 1248.49 1438.21 C 1261.43 1441.75 1274.94 1444.22 1288.4 1447.81 L 1689.83 1556.85 L 1787.42 1583.7 C 1800.02 1587.06 1872.07 1605.13 1878.12 1610.54 L 1878.08 1612.14 C 1872.52 1615.37 1813.37 1614.02 1801.63 1614.02 L 1651.96 1614.02 L 1089.18 1614.04 L 961.515 1613.98 C 942.896 1613.99 902.894 1615.88 887.074 1611.87 C 875.191 1608.86 847.9 1599.38 835.358 1595.29 L 740.291 1564.1 L 468.214 1475.94 L 384.636 1448.92 C 374.69 1445.65 348.159 1436.31 338.757 1434.42 L 341.376 1430.77 L 363.304 1430.6 L 363.23 1304.05 z" fill="rgb(231,89,42)" transform="translate(0,0)"></path>
<path d="M 969.718 221.073 C 1067.06 205.226 1164.58 190.517 1262.27 176.95 L 1262.19 1438.79 L 969.902 1355.98 L 969.765 950.34 C 983.616 964.185 999.434 979.344 1012.74 993.464 L 1012.84 1257.8 C 1053.55 1269.74 1094.33 1281.44 1135.18 1292.91 C 1156.96 1299.22 1188.39 1309.41 1209.65 1313.89 L 1209.66 1077.93 C 1209.63 1038.47 1210.6 994.844 1209.6 955.741 C 1210.45 942.143 1209.64 915.615 1209.6 901.15 C 1217.53 899.731 1222.32 899.007 1229.25 894.22 C 1237.41 888.577 1242.89 879.835 1244.43 870.035 C 1246.07 859.774 1243.33 849.294 1236.86 841.159 C 1229.62 831.926 1221.15 828.032 1209.86 826.472 L 1209.57 402.251 C 1209.57 352.912 1208.36 298.499 1209.57 249.491 C 1152.38 259.189 1094.1 265.612 1036.71 274.269 C 1029.03 275.427 1020.34 276.766 1012.65 277.432 L 1012.89 872.033 C 1007.92 865.492 1004.05 860.104 999.568 853.232 C 994.318 843.197 988.403 833.129 983.004 822.801 C 996.18 797.771 986.704 769.728 969.926 749.112 L 969.718 221.073 z" fill="rgb(247,241,234)" transform="translate(0,0)"></path>
<path d="M 728.456 833.149 C 759.444 834.171 794.272 832.072 825.658 832.051 C 833.459 887.965 831.2 933.611 802.978 984.672 C 797.128 970.821 769.341 894.891 763.789 889.201 C 763.528 895.555 793.326 970.043 797.953 981.096 C 832.711 1064.13 859.465 1147.94 884.602 1234.25 C 889.447 1250.9 902.567 1284.22 902.536 1300.17 C 902.525 1311.89 897.697 1323.09 889.183 1331.15 C 884.924 1335.12 881.908 1336.73 876.879 1339.42 C 855.624 1344.32 834.409 1349.41 813.238 1354.67 C 807.245 1356.16 789.23 1360.4 784.254 1362.49 C 737.946 1370.34 732.582 1333.73 725.25 1299.75 C 722.053 1279.92 713.071 1247.39 708.645 1226.46 C 702.763 1206.79 699.998 1180.12 692.615 1161.53 C 666.067 1094.67 635.621 1029.31 607.893 962.959 C 602.293 949.56 598.113 928.8 595.218 914.518 C 599.385 916.245 603.579 917.906 607.799 919.5 C 643.547 933.137 676.039 939.365 692.151 894.605 C 699.388 874.5 706.596 853.882 713.811 833.735 C 718.814 833.808 723.481 833.466 728.456 833.149 z" fill="rgb(247,241,234)" transform="translate(0,0)"></path>
<path d="M 702.781 1049.44 C 703.053 1049.5 705.647 1049.96 705.793 1050.27 C 710.559 1060.57 727.961 1082.72 729.996 1092.52 C 728.339 1092.36 727.114 1092.07 726.261 1090.41 C 720.071 1078.39 706.995 1061.84 702.781 1049.44 z" fill="rgb(27,23,20)" transform="translate(0,0)"></path>
<path d="M 802.277 1303.3 C 809.218 1303.06 834.981 1306.09 843.306 1307.12 C 843.814 1307.19 844.472 1309.4 844.674 1309.97 C 832.146 1309.15 819.496 1307.43 806.984 1306.33 C 803.546 1306.03 803.098 1306.56 802.277 1303.3 z" fill="rgb(27,23,20)" transform="translate(0,0)"></path>
<path d="M 850.632 813.704 C 858.996 836.327 875.114 861.79 901.616 864.082 C 907.116 864.986 909.166 865.001 914.552 864.965 C 919.624 873.93 924.437 882.719 929.287 891.699 C 936.745 905.504 939.896 921.815 951.602 932.363 C 954.236 934.736 965.588 945.647 966.512 947.647 C 967.709 985.03 966.523 1028.04 966.537 1066.06 L 966.659 1354.89 C 942.34 1349.15 915.519 1340.59 890.985 1334.14 C 896.128 1328.38 898.928 1325.01 902.028 1317.83 C 905.294 1310.22 906.447 1301.87 905.366 1293.66 C 904.049 1283.49 898.239 1267.08 894.95 1256.79 L 882.812 1217.48 C 874.939 1192.12 866.582 1166.44 859.328 1140.9 C 844.565 1088.93 824.185 1039.51 804.461 989.225 C 834.617 931.232 836.902 893.66 828.619 831.04 C 839.374 826.773 843.629 822.35 850.632 813.704 z" fill="rgb(255,255,255)" transform="translate(0,0)"></path>
<path d="M 723.512 543.237 C 732.348 542.088 781.56 542.274 790.901 542.957 C 800.398 545.547 810.575 552.139 818.683 557.685 C 851.053 579.748 877.89 608.99 897.101 643.13 C 910.003 665.709 917.233 689.623 929.721 712.016 C 937.839 726.573 954.326 738.127 965.781 749.836 C 981.689 766.121 990.035 790.075 983.773 812.552 C 982.893 815.804 981.753 818.979 980.363 822.048 C 973.694 830.903 921.432 859.769 908.902 861.589 C 908.291 861.674 907.679 861.748 907.065 861.811 C 873.477 856.846 865.591 839.346 852.438 810.63 C 871.924 773.2 854.486 759.218 855.903 721.949 C 856.567 704.476 862.163 686.233 863.341 668.147 C 864.475 650.751 855.315 613.335 844.276 601.524 L 842.452 601.778 L 842.165 603.594 C 855.957 626.874 863.912 655.269 858.736 682.343 C 856.921 696.495 851.693 710.428 852.577 725.028 C 854.807 761.864 872.175 809.931 825.874 828.204 C 822.711 829.452 812.063 829.043 808.154 829.196 C 802.464 829.419 795.915 829.364 790.003 829.446 C 765.578 829.667 741.156 830.117 716.739 830.797 L 715.847 830.128 C 715.084 826.47 729.621 792.032 731.106 784.184 C 733.479 771.642 727.431 769.055 729.625 762.08 C 734.737 750.163 743.333 720.792 748.138 707.034 C 751.164 706.4 754.275 705.736 756.92 704.842 C 778.242 697.633 786.451 678.905 770.988 661.01 C 770.586 660.545 770.365 652.266 769.45 650.549 C 767.689 647.245 764.263 645.236 763.206 641.652 C 761.297 635.777 759.08 630.103 756.701 624.419 C 752.946 615.45 751.304 611.585 744.403 604.843 C 742.57 581.454 738.65 561.381 723.512 543.237 z" fill="rgb(231,89,42)" transform="translate(0,0)"></path>
<path d="M 1016.08 1039.02 C 1078.86 1051 1143.44 1064.2 1206.21 1075.01 L 1206.27 1309.8 C 1142.78 1292.04 1079.39 1273.95 1016.09 1255.54 L 1016.08 1039.02 z" fill="rgb(255,255,255)" transform="translate(0,0)"></path>
<path d="M 1199.06 254.345 C 1201.92 253.839 1202.05 253.818 1204.94 253.974 C 1207.01 257.596 1206.17 296.018 1206.17 302.392 L 1206.13 468.036 C 1184.15 469.89 1158.39 470.275 1135.98 471.178 L 1024.02 476.009 C 1020.99 476.01 1018.22 476.475 1016.35 474.832 C 1014.95 459.994 1015.95 425.089 1015.96 408.749 L 1015.92 280.296 C 1035.05 278.261 1057.68 274.512 1077.01 271.814 C 1117.73 266.214 1158.41 260.391 1199.06 254.345 z" fill="rgb(255,255,255)" transform="translate(0,0)"></path>
<path d="M 1204.05 471.445 C 1204.36 471.497 1205.47 472.348 1205.8 472.574 C 1206.8 479.162 1206.13 524.763 1206.13 533.834 L 1206.26 676.694 C 1149.15 673.931 1089.9 669.029 1032.5 665.594 C 1027.19 665.158 1021.35 664.954 1015.98 664.656 L 1015.94 479.39 L 1204.05 471.445 z" fill="rgb(255,255,255)" transform="translate(0,0)"></path>
<path d="M 1016.03 667.848 C 1079.71 671.525 1143.37 675.633 1207 680.173 C 1205.57 686.29 1206.11 717.16 1206.12 725.68 L 1206.17 826.45 C 1181.69 829.66 1171.88 841.879 1168.62 865.496 C 1163.62 863.893 1133.6 861.474 1126.64 860.773 L 1016.09 849.864 L 1016.03 667.848 z" fill="rgb(255,255,255)" transform="translate(0,0)"></path>
<path d="M 641.757 747.416 C 630.986 753.698 619.967 760.92 609.035 766.766 C 579.287 782.672 554.868 806.858 518.877 799.135 C 502.148 795.479 487.579 785.276 478.424 770.805 C 468.583 755.653 465.412 737.118 469.659 719.557 C 473.085 704.777 481.701 690.508 491.901 679.375 C 523.103 645.305 553.576 610.58 585.914 577.579 C 615.668 547.217 645.722 533.086 688.577 543.609 C 702.688 559.899 706.055 577.515 710.896 597.875 C 699.077 602.885 694.72 608.726 692.757 621.334 C 683.332 632.226 674.92 644.398 661.675 649.72 L 567.668 686.143 C 557.687 689.982 528.864 699.292 522.622 705.028 L 523.696 705.603 C 529.598 704.87 551.697 695.68 558.787 692.944 L 618.271 670.292 C 625.689 696.123 633.518 721.834 641.757 747.416 z" fill="rgb(231,89,42)" transform="translate(0,0)"></path>
<path d="M 1016.12 852.921 C 1060.27 858.014 1117.75 864.457 1161.75 867.2 C 1164.85 867.668 1167.76 867.383 1169.02 870.044 C 1175.89 884.556 1176.87 893.001 1194.34 898.571 C 1195.88 899.063 1205.29 901.377 1206.37 901.986 C 1205.49 919.375 1206.18 942.837 1206.19 960.629 L 1206.28 1072.08 L 1015.97 1035.76 L 1015.97 995.631 C 1020.33 994.934 1023.08 993.628 1027.27 992.231 C 1031.4 990.853 1035.6 997.029 1040.63 995.859 C 1043.55 995.181 1046.15 994.409 1047.58 991.384 C 1050.47 985.277 1056.4 986.225 1061.09 982.277 C 1063.98 979.692 1063.99 972.334 1062.11 968.959 C 1060.33 965.766 1054.48 961.779 1054.18 957.753 C 1058.69 955.3 1064.2 953.753 1064.7 948.027 C 1065.68 936.596 1052.24 923.119 1045.27 914.382 C 1035.42 902.177 1025.69 889.865 1016.1 877.449 L 1016.12 852.921 z" fill="rgb(255,255,255)" transform="translate(0,0)"></path>
<path d="M 627.368 1016.81 C 635.729 1032.77 648.326 1064.4 655.624 1081.92 C 666.5 1108.04 681.436 1139.24 690.761 1165.42 C 675.554 1184.56 660.689 1203.98 646.173 1223.65 C 634.04 1239.82 621.46 1263.07 600.014 1265.75 C 593.239 1266.64 586.35 1265.59 580.15 1262.72 C 569.951 1258.11 509.988 1211.42 500.086 1201.86 C 490.429 1188.57 489.143 1169.09 499.199 1155.64 C 506.355 1146.07 515.905 1137.64 524.501 1129.28 L 575.288 1079.82 C 593.842 1061.98 618.563 1041.23 627.368 1016.81 z" fill="rgb(247,241,234)" transform="translate(0,0)"></path>
<path d="M 551.961 1149.5 C 555.632 1153.04 549.986 1169.24 548.009 1173.47 C 544.523 1169.78 550.129 1153.94 551.961 1149.5 z" fill="rgb(27,23,20)" transform="translate(0,0)"></path>
<path d="M 802.324 366.219 C 811.419 373.248 814.182 377.041 820.72 386.627 C 811.926 382.315 805.641 382.206 797.743 388.722 L 796.921 391 L 797.732 392.69 C 801.597 392.111 804.19 386.765 807.765 386.36 C 814.977 385.543 813.97 390.674 820.344 387.334 C 828.862 397.012 832.401 417.311 831.512 430.06 C 830.165 448.936 821.344 466.494 807.005 478.844 C 798.148 486.449 791.215 489.512 780.378 493.262 C 746.289 500.504 725.614 492.51 706.45 463.865 C 693.944 465.595 681.758 464.518 675.031 451.968 C 671.774 445.995 671.198 438.923 673.444 432.501 C 675.697 425.989 680.632 420.754 687.001 418.124 C 696.684 414.16 705.107 417.554 714.038 421.086 C 739.958 408.341 732.284 394.473 739.51 387.113 C 756.911 382.482 784.922 372.263 802.324 366.219 z" fill="rgb(247,241,234)" transform="translate(0,0)"></path>
<path d="M 762.811 407.607 C 774.013 408.557 774.512 413.901 770.747 423.699 C 761.54 424.241 758.4 418.692 761.741 410.242 L 762.811 407.607 z" fill="rgb(27,23,20)" transform="translate(0,0)"></path>
<path d="M 790.619 402.486 C 795.884 404.66 802.585 427.379 807.158 436.382 C 802.037 437.375 798.477 438.111 793.411 439.526 C 792.029 439.567 792.006 439.642 790.818 438.911 C 789.46 435.685 800.668 434.196 802.251 433.82 C 798.806 425.056 791.733 411.285 790.619 402.486 z" fill="rgb(27,23,20)" transform="translate(0,0)"></path>
<path d="M 811.852 399.395 C 821.257 402.607 822.884 407.449 818.028 415.992 C 806.705 415.625 806.664 407.585 811.852 399.395 z" fill="rgb(27,23,20)" transform="translate(0,0)"></path>
<path d="M 757.111 438.9 C 764.164 446.138 765.9 453.689 780.074 450.879 C 782.564 450.385 782.727 452.235 782.629 453.927 C 777.834 454.844 773.186 455.69 768.612 453.608 C 762.811 450.967 754.279 446.178 757.111 438.9 z" fill="rgb(27,23,20)" transform="translate(0,0)"></path>
<path d="M 691.683 429.994 C 713.776 430.286 707.72 453.465 704.377 441.282 L 703.537 438.241 C 688.44 423.453 692.323 443.513 687.289 439.298 C 686.509 434.826 688.773 432.84 691.683 429.994 z" fill="rgb(27,23,20)" transform="translate(0,0)"></path>
<path d="M 756.053 392.06 C 757.484 391.961 760.5 391.847 761.999 391.804 C 765.748 391.696 770.486 394.195 768.818 394.963 C 766.011 396.254 761.244 394.575 755.811 395.695 C 754.235 397.327 750.695 402.657 748.609 402.36 L 747.955 401.48 C 748.846 397.126 752.754 394.488 756.053 392.06 z" fill="rgb(27,23,20)" transform="translate(0,0)"></path>
<path d="M 570.676 1261.54 C 610.02 1283.29 625.939 1256.19 646.78 1228.19 C 661.344 1208.62 676.424 1187.98 691.787 1169.09 C 702.315 1213.01 712.536 1257 722.45 1301.06 C 691.706 1301.87 659.663 1300.77 628.608 1301.24 L 560.128 1301.14 C 558.003 1292.17 557.359 1290.67 550.482 1284.39 C 557.296 1276.85 564.028 1269.23 570.676 1261.54 z" fill="rgb(255,255,255)" transform="translate(0,0)"></path>
<path d="M 718.261 607.63 C 732.133 603.797 745.323 602.778 750.799 619.51 L 750.25 621.337 C 745.111 621.368 741.809 619.284 738.051 620.672 L 737.602 622.323 C 745.257 627.736 760.29 623.44 759.391 639.17 C 756.575 641.234 750.671 640.328 745.926 641.162 L 745.711 642.582 C 751.117 645.51 772.543 643.657 767.582 659.456 C 761.562 661.528 756.616 659.151 752.306 661.297 L 752.148 662.914 C 756.257 664.514 759.965 663.053 764.37 663.647 C 776.414 665.27 777.78 676.928 773.57 686.686 C 770.658 693.465 765.025 698.704 758.054 701.12 C 755.205 702.119 752.031 703.036 749.121 703.895 C 750.084 699.446 751.401 693.107 752.742 688.682 C 753.229 687.074 755.832 687.972 754.827 684.391 C 752.65 684.428 692.722 716.492 684.564 720.435 C 680.173 707.389 666.863 663.439 664.565 651.338 C 678.488 647.31 687.587 630.324 698.851 619.579 L 699.776 618.706 C 706.192 614.012 710.884 610.565 718.261 607.63 z" fill="rgb(247,241,234)" transform="translate(0,0)"></path>
<path d="M 998.089 855.636 L 998.666 856.731 C 1013.45 884.387 1040.76 911.763 1059.19 937.349 C 1062.39 941.8 1063.49 950.132 1056.52 953.281 C 1042.95 955.718 1026.56 925.455 1017.56 917.014 C 1013.79 913.485 1010.8 907.818 1010.05 903.552 C 1009.57 900.843 1009.31 897.367 1007.29 895.976 L 1006.02 896.614 C 1004.26 904.538 1012.3 912.805 1011.63 918.185 C 990.908 922.387 977.363 913.846 972.689 893.217 L 971.434 892.102 C 964.904 898.692 975.639 909.914 980.986 914.478 C 991.981 923.864 1002.99 923.521 1016.14 920.409 C 1019.42 924.415 1023.12 928.734 1026.26 932.787 C 1020.25 936.327 998.368 948.603 994.412 952.458 L 994.828 954.015 C 1000.09 955.747 1020.8 981.586 1025.57 987.332 C 1024.74 991.333 1018.13 992.407 1016.99 991.546 C 1003.94 981.766 979.998 955.962 969.499 945.325 C 942.546 919.322 947.577 923.562 932.222 889.369 C 953.705 879.408 976.607 866.475 998.089 855.636 z" fill="rgb(247,241,234)" transform="translate(0,0)"></path>
<path d="M 795.235 1487.81 C 796.232 1486.19 796.067 1485.64 798.289 1485.37 C 811.673 1483.76 825.99 1482.51 839.382 1481.24 L 939.013 1472.2 C 950.873 1471.2 972.276 1470.11 983.246 1466.96 C 994.434 1463.65 1004.43 1457.19 1012.04 1448.35 C 1015.8 1458.62 1016.03 1464.67 1011.56 1475.05 C 1002.4 1496.28 974.339 1493.64 954.721 1494.87 L 898.505 1498.45 L 840.406 1502.45 C 830.297 1503.12 819.991 1504 809.883 1504.1 C 798.666 1504.21 796.511 1496.76 795.235 1487.81 z" fill="rgb(231,89,42)" transform="translate(0,0)"></path>
<path d="M 413.232 1288.1 C 416.813 1289.65 432.451 1304.9 436.464 1308.58 L 501.011 1368.96 C 527.998 1394.4 539.301 1411.34 578.403 1415.48 C 553.338 1461.22 519.732 1419.83 497.556 1398.23 L 455.51 1357.31 C 441.098 1343.29 426.247 1329.45 412.29 1314.98 C 408.427 1310.97 407.82 1305.9 407.43 1300.51 C 408.822 1295.15 410.474 1292.79 413.232 1288.1 z" fill="rgb(231,89,42)" transform="translate(0,0)"></path>
<path d="M 793.326 1391.02 C 801.505 1387.84 815.532 1384.48 824.562 1382.07 L 880.855 1367.05 L 885.182 1385.34 C 875.088 1388.72 860.971 1393.31 856.744 1403.71 C 848.884 1423.03 854.99 1434.27 827.453 1434.56 C 815.664 1427.76 813.673 1424.39 799.335 1422.97 C 797.692 1412.41 795.392 1401.54 793.326 1391.02 z" fill="rgb(247,241,234)" transform="translate(0,0)"></path>
<path d="M 723.393 334.24 C 757.282 321.628 785.232 335.005 807.179 360.807 C 785.01 368.699 759.273 376.818 738.164 384.797 C 735.134 379.004 725.017 341.952 723.393 334.24 z" fill="rgb(231,89,42)" transform="translate(0,0)"></path>
<path d="M 670.734 404.819 C 672.249 387.129 670.057 380.221 681.457 362.775 C 689.582 350.342 706.169 338.613 720.641 335.807 C 721.951 344.328 728.379 363.746 730.834 373.01 L 731.771 376.513 C 732.618 379.74 733.518 382.953 734.47 386.151 C 714.538 392.025 694.738 399.606 674.962 406.06 C 672.606 406.829 672.579 406.488 670.734 404.819 z" fill="rgb(231,89,42)" transform="translate(0,0)"></path>
<path d="M 483.122 1226.57 C 486.547 1228.07 492.933 1233.45 496.06 1235.82 C 514.183 1249.59 532.595 1263.04 550.358 1277.27 C 551.833 1278.45 548.612 1282 547.61 1282.6 C 546.374 1283.34 545.1 1281.88 544.245 1281.13 C 539.198 1276.73 533.676 1274.84 527.342 1273.2 C 513.289 1272.58 510.555 1275.42 500.902 1284.45 C 497.623 1287.53 491.025 1288.05 486.505 1287.09 C 477.928 1285.88 469.682 1276.71 469.287 1268 C 468.847 1258.31 469.803 1257.32 463.908 1248.87 C 470.23 1241.21 476.677 1234.09 483.122 1226.57 z" fill="rgb(247,241,234)" transform="translate(0,0)"></path>
<path d="M 686.93 723.454 C 692.285 719.398 706.068 713.402 712.838 709.555 C 710.179 717.618 701.771 741.564 700.933 748.897 C 696.062 752.638 692.901 753.393 686.817 753.565 C 686.567 753.786 686.291 753.98 686.068 754.227 C 682.701 757.971 680.511 766.965 678.719 771.89 C 672.18 789.86 659.238 833.685 647.807 846.804 C 640.804 854.841 630.716 859.706 620.212 860.94 C 614.629 861.596 609.556 861.125 604.14 859.764 C 589.184 856.004 463.4 813.503 457.352 808.729 C 454.082 806.149 451.222 803.04 448.577 799.839 L 449.685 796.727 C 454.231 800.004 456.898 805.931 463.188 808.055 C 512.002 824.543 560.645 843.213 610.094 857.426 C 615.208 858.895 626.073 856.582 631.004 854.509 C 637.741 851.734 643.537 847.079 647.702 841.099 C 655.351 830.277 676.143 769.095 682.713 752.141 C 674.447 748.597 666.156 745.111 657.841 741.683 C 664.998 737.102 683.613 728.998 686.93 723.454 z" fill="rgb(231,89,42)" transform="translate(0,0)"></path>
<path d="M 679.863 525.163 C 695.483 528.274 707.134 532.807 719.308 543.409 C 719.637 543.695 719.985 543.959 720.33 544.227 C 734.639 561.455 737.973 576.16 740.64 598.16 C 740.721 598.829 741.55 602.969 739.553 602.805 C 731.317 600.834 723.999 601.92 716.189 605.005 C 713.945 599.902 711.427 585.617 709.515 579 C 704.552 561.015 696.902 543.314 680.53 532.967 C 677.746 531.207 666.531 526.918 666.398 525.385 C 671.01 525.217 675.281 525.236 679.863 525.163 z" fill="rgb(231,89,42)" transform="translate(0,0)"></path>
<path d="M 1106.07 194.061 C 1106.57 193.685 1106.32 193.779 1106.76 193.68 C 1106.92 193.764 1107.08 193.848 1107.24 193.933 C 1109.76 193.993 1112.25 193.686 1114.23 195.016 C 1111.22 196.138 1106.5 196.857 1103.31 196.757 C 1061.82 203.094 1010.55 212.983 969.615 217.466 L 969.653 194.403 C 974.448 193.423 1004.25 193.829 1010.56 193.841 L 1106.07 194.061 z" fill="rgb(247,241,234)" transform="translate(0,0)"></path>
<path d="M 1106.07 194.061 C 1106.57 193.685 1106.32 193.779 1106.76 193.68 C 1106.92 193.764 1107.08 193.848 1107.24 193.933 C 1109.76 193.993 1112.25 193.686 1114.23 195.016 C 1111.22 196.138 1106.5 196.857 1103.31 196.757 L 1103.74 195.999 C 1100.73 193.639 984.489 195.398 969.653 194.403 C 974.448 193.423 1004.25 193.829 1010.56 193.841 L 1106.07 194.061 z" fill="rgb(168,162,156)" transform="translate(0,0)"></path>
<path d="M 705.976 470.606 C 709.289 473.282 712.639 478.566 716.753 482.262 C 731.717 496.122 746.088 506.433 766.014 511.813 C 777.869 515.014 781.416 510.04 782.997 520.784 C 757.338 521.26 731.578 520.815 705.889 521.42 C 705.885 505.363 705.277 486.383 705.976 470.606 z" fill="rgb(247,241,234)" transform="translate(0,0)"></path>
<path d="M 858.066 346.029 C 868.459 344.668 879.434 351.584 874.493 363.504 C 873.592 365.228 870.677 368.248 868.908 368.85 C 854.612 373.716 839.672 378.388 825.283 382.99 C 823.389 383.366 822.556 383.92 821.397 382.154 C 817.098 375.602 811.471 369.956 805.835 364.551 C 820.561 358.288 842.409 351.234 858.066 346.029 z" fill="rgb(231,89,42)" transform="translate(0,0)"></path>
<path d="M 716.714 707.861 C 726.247 702.146 739.285 695.371 749.393 690.357 C 742.766 713.482 735.472 736.41 727.52 759.113 C 719.913 747.473 718.327 747.933 704.405 748.017 L 703.467 748.017 C 707.943 735.998 712.664 720.389 716.714 707.861 z" fill="rgb(231,89,42)" transform="translate(0,0)"></path>
<path d="M 1027.03 935.784 C 1029.71 936.314 1057.17 966.885 1059.39 971.709 C 1062.82 979.193 1056.12 982.385 1050.38 984.325 C 1043.84 978.103 1021.9 951.239 1015.32 943.18 L 1027.03 935.784 z" fill="rgb(247,241,234)" transform="translate(0,0)"></path>
<path d="M 1012.09 944.998 C 1012.66 945.281 1045.29 983.393 1046.57 985.534 C 1046 991.542 1041.06 992.148 1036.29 993.164 C 1030.84 988.952 1005.69 959.486 999.316 952.284 C 1003.56 949.814 1007.83 947.486 1012.09 944.998 z" fill="rgb(247,241,234)" transform="translate(0,0)"></path>
<path d="M 710.779 600.473 C 711.206 601.499 712.678 604.993 711.715 605.889 C 708.592 608.795 701.274 614.865 697.268 615.663 C 701.325 606.272 702.349 605.752 710.779 600.473 z" fill="rgb(252,235,225)" transform="translate(0,0)"></path>
<path d="M 718.316 325.881 C 732.128 325.944 729.556 328.989 718.808 332.181 C 708.432 336.869 710.977 331.227 716.919 326.928 L 718.316 325.881 z" fill="rgb(237,141,96)" transform="translate(0,0)"></path>
<path d="M 564.302 1354.12 C 558.757 1352.08 550.921 1349.02 545.687 1346.63 C 543.982 1345.85 544.007 1343.08 548.996 1345.01 C 554.023 1346.52 558.849 1348.62 563.368 1351.29 C 563.671 1352.93 563.553 1352.78 564.302 1354.12 z" fill="rgb(237,141,96)" transform="translate(0,0)"></path>
<path d="M 338.757 1434.42 C 336.731 1433.6 333.571 1432.71 331.804 1431.42 L 331.945 1431.21 L 333.643 1430.89 L 333.094 1430.91 C 335.65 1430.65 338.761 1430.75 341.376 1430.77 L 338.757 1434.42 z" fill="rgb(237,141,96)" transform="translate(0,0)"></path>
<path d="M 1756.79 191.757 L 1758.32 191.738 C 1770.65 191.534 1781.57 188.926 1794.16 188.817 C 1867.77 188.176 1941.51 188.492 2015.13 188.848 C 2010.83 211.023 1997.76 219.411 1976.03 219.662 C 1974.81 233.184 1973.27 242.535 1962.3 252.361 C 1944.26 268.512 1911.08 258.785 1890.98 262.775 L 1891.03 413.22 C 1904.53 408.169 1916.5 406.181 1930.32 412.336 C 1941.46 417.409 1950.05 426.826 1954.07 438.394 C 1957.98 449.458 1957.24 461.638 1952.02 472.147 C 1945.99 484.32 1936.61 491.387 1924.04 495.885 C 1923.34 528.032 1899.27 547.283 1879.81 572.945 C 1879.69 576.277 1879.66 581.637 1879.27 584.778 C 1879.63 588.05 1879.43 591.479 1881.2 593.666 C 1889.37 593.745 1904.05 610.47 1911.5 612.994 C 1948.3 625.473 1982.62 627.893 2008.89 661.416 C 2026.2 683.5 2035.1 711.516 2047.35 736.686 C 2055.14 753.614 2066.92 778.561 2073.52 795.871 L 2077.29 794.925 C 2077.94 776.793 2077.46 755.026 2077.51 736.522 L 2077.53 619.914 L 2077.45 345.493 C 2077.45 324.737 2075.01 217.228 2079.47 206.621 C 2081.84 200.995 2085.96 195.944 2091.71 193.695 C 2096.63 191.773 2102.01 190.985 2107.26 190.72 C 2125.4 189.802 2279.12 189.862 2283.17 191.674 L 2283.82 193.498 C 2283.29 199.953 2283.02 209.714 2283.7 216.132 C 2281.7 218.514 2282.35 218.388 2278.25 218.579 C 2272.34 218.855 2265.94 218.655 2260 218.569 L 2260.15 472.708 C 2267.22 472.536 2274.15 472.022 2281.03 473.664 L 2281.35 474.551 C 2273.66 476.375 2267.99 475.846 2260.12 475.797 L 2260.17 676.182 C 2266.96 676.224 2274.52 675.921 2281.01 677.589 L 2281.58 678.464 C 2273.81 680.252 2267.98 679.686 2260.07 679.47 L 2260.21 868 C 2267.36 867.323 2274.54 866.268 2281.59 867.47 L 2282.44 868.362 C 2273.98 871.469 2244.56 872.504 2234.32 873.066 C 2176.49 876.215 2118.57 877.601 2060.64 877.225 C 2045.1 889.498 2032.09 896.473 2011.67 895.973 C 1973.78 895.046 1935.82 893.624 1897.98 891.818 C 1895.19 891.685 1894.58 886.126 1894.11 884.005 C 1875.14 883.6 1831.03 884.13 1813.71 882.297 C 1815.14 887.576 1818.48 904.795 1807.89 904.221 C 1761.19 901.688 1714.27 894.018 1667.65 889.332 C 1642.05 886.789 1643.3 879.905 1638.81 856.39 C 1592.07 848.646 1582.68 821.105 1571.91 780.786 C 1526.46 785.824 1380.43 800.527 1352.3 833.9 C 1349.73 836.948 1348.03 840.629 1348.56 844.684 C 1349.38 850.991 1355.42 855.962 1360.32 859.369 C 1384.42 876.097 1418.39 883.977 1446.52 891.464 C 1526.19 912.667 1609.41 924.22 1691.28 933.122 C 1827.96 948.235 1965.48 954.461 2102.96 951.761 C 2135.65 951.049 2168.32 949.878 2200.98 948.25 C 2214.43 947.541 2277.49 941.785 2285.4 943.791 C 2283.92 950.107 2282.9 954.137 2283.37 960.696 L 2284.1 963.818 C 2282.17 1048.9 2283.56 1139.43 2283.8 1224.9 C 2283.87 1249.65 2283.81 1274.4 2283.59 1299.15 C 2283.54 1309.08 2282.95 1331.38 2284.19 1340.68 L 2283.82 1343.65 C 2284.1 1369.98 2285.59 1384.61 2254.84 1391.83 C 2262.63 1396.49 2281.13 1401.86 2282.98 1412.22 C 2285 1423.57 2266.01 1432.3 2256.93 1434.62 C 2234.13 1440.45 2209.76 1441.37 2186.39 1443.75 C 2073.7 1452.67 1958.13 1452.33 1845.33 1444.87 C 1809.52 1442.64 1773.75 1439.81 1738.03 1436.36 C 1721.45 1434.78 1699.48 1431.81 1683.49 1431.09 C 1670.76 1430.53 1644.99 1445.02 1629.54 1445.5 C 1615.72 1445.92 1599.6 1442.59 1588.81 1433.29 C 1580.44 1426.08 1579.28 1417.74 1579.02 1407.79 C 1571.27 1406.69 1556.9 1402.79 1549.46 1402.99 C 1515.16 1403.95 1475.67 1419.7 1445.69 1394.89 C 1437.76 1388.33 1435.75 1379.67 1435.51 1370.01 C 1433.46 1369.64 1431.43 1369.21 1429.41 1368.7 C 1404.68 1362.41 1348.47 1343.5 1332.58 1321.78 C 1320.32 1305.03 1356.72 1290.85 1367.49 1285.64 C 1365.5 1281.15 1366.35 1262.09 1366.42 1256.18 C 1357.48 1249.06 1347.21 1240.93 1346.25 1228.82 C 1344.97 1212.68 1345.58 1194.21 1345.63 1177.99 L 1345.83 1076.81 L 1345.75 916.953 C 1345.71 892.215 1343.79 866.563 1345.5 841.968 C 1345.77 838.069 1347.79 834.423 1350.24 831.449 C 1377.97 797.827 1524.27 782.927 1571.08 777.737 C 1564.27 752.586 1553.33 718.159 1548.44 693.891 C 1548.87 691.401 1549.57 690.847 1551.13 688.88 L 1551.67 688.202 C 1552.78 684.049 1550.85 680.951 1549.17 676.733 C 1524.83 662.828 1500.54 646.511 1477.54 632.402 C 1462.17 622.973 1456.36 618.563 1466.86 604.671 C 1467.98 603.185 1460.24 597.494 1458.67 593.066 C 1458.79 586.367 1462.09 583.596 1466.43 578.552 C 1459.25 556.917 1474.55 566.953 1480.24 555.239 C 1481.31 553.04 1481.77 552.129 1483.38 549.641 C 1498.96 539.464 1570.97 599.434 1581.84 598.459 C 1582.39 597.767 1582.94 597.074 1583.49 596.382 C 1581.7 586.4 1575.44 576.338 1574.94 565.935 C 1574.79 563.59 1575.52 558.817 1577.82 557.387 C 1591.36 548.977 1598.48 563.54 1603.48 572.009 C 1610.15 583.324 1614.12 591.696 1618.33 602.617 C 1621.65 611.259 1630.16 653.983 1634.17 657.809 C 1635.71 657.433 1637.02 657.098 1638.54 656.642 L 1639.78 656.262 C 1644.62 659.485 1648.39 683.971 1654.99 694.97 L 1655.76 696.232 C 1656.96 693.207 1658.1 686.488 1659.58 683.227 C 1667.52 665.778 1671.82 679.256 1678.6 671.337 C 1686.07 662.605 1689.04 655.223 1697.83 647.232 C 1717.25 629.571 1736.47 626.314 1759.13 616.62 C 1764.11 614.495 1785.09 599.861 1790.74 596.034 C 1793.53 593.239 1793.76 593.15 1794.72 589.451 C 1793.21 585.813 1794 587.055 1789.89 584.732 C 1753.83 570.05 1743.22 531.037 1752.45 495.736 C 1717.88 495.457 1683.31 495.427 1648.74 495.645 C 1631.58 495.694 1613.27 496.388 1596.17 494.742 C 1591.82 494.324 1585.74 490.457 1582.42 487.581 C 1576.78 482.69 1573.71 475.161 1573.94 467.724 C 1573.76 449.03 1573.82 430.27 1573.82 411.597 L 1573.82 302.436 L 1573.76 245.077 C 1573.76 235.527 1573.1 222.938 1574.4 214.043 C 1576.24 201.406 1588.47 193.109 1600.33 192.422 C 1617.19 191.448 1634.78 191.763 1651.49 191.753 L 1756.79 191.757 z" fill="rgb(27,23,20)" transform="translate(0,0)"></path>
<path d="M 2284.1 963.818 C 2282.17 1048.9 2283.56 1139.43 2283.8 1224.9 C 2283.87 1249.65 2283.81 1274.4 2283.59 1299.15 C 2283.54 1309.08 2282.95 1331.38 2284.19 1340.68 C 2204.58 1350.92 2124.37 1355.8 2044.1 1355.27 C 1964.8 1355.45 1885.63 1352.07 1806.79 1343.25 C 1799.41 1342.43 1791.83 1341.4 1784.42 1341.11 L 1783.34 1341.07 C 1781.43 1328.92 1780.41 1322.6 1770.2 1314.8 C 1763.84 1309.96 1764.66 1308.08 1764.1 1299.97 C 1764.38 1289.24 1763.1 1272.39 1762.59 1261.24 C 1781.47 1253.77 1780.74 1248.89 1779.77 1229.56 C 1779.47 1223.54 1779.24 1216.99 1778.98 1210.94 L 1774.67 1111.9 C 1774.03 1097.81 1772.73 1080.81 1773.32 1066.75 C 1773.65 1062.71 1777.95 1056.46 1781.68 1054.93 C 1836.54 1032.48 1889.76 1041.71 1903.4 970.571 C 2030.32 975.953 2157.45 973.698 2284.1 963.818 z" fill="rgb(247,241,234)" transform="translate(0,0)"></path>
<path d="M 1732.36 194.791 C 1747.39 194.378 1762.62 195.283 1777.71 194.446 C 1784.96 216.612 1800.41 219.368 1820.61 219.617 C 1821.71 264.985 1855.18 261.904 1888.29 262.072 C 1887.08 277.294 1886.36 405.72 1888.7 414.213 C 1879.92 420.766 1874.96 424.981 1869.63 434.794 C 1840.42 428.854 1816.53 427.717 1789.89 444.724 C 1785.17 447.735 1775.9 455.769 1772.76 460.181 C 1763.79 469.953 1758.32 480.243 1753.35 492.382 L 1732.31 492.377 L 1732.36 194.791 z" fill="rgb(247,241,234)" transform="translate(0,0)"></path>
<path d="M 1750.76 325.237 C 1751.23 325.45 1753.51 326.387 1753.52 326.713 C 1753.66 338.123 1754.76 379.833 1753.14 388.637 L 1752.14 387.943 C 1749.42 386.071 1750.16 331.965 1750.76 325.237 z" fill="rgb(27,23,20)" transform="translate(0,0)"></path>
<path d="M 1783.93 1343.67 C 1873.54 1354.45 1963.76 1359.36 2054.01 1358.38 C 2130.85 1358.52 2207.62 1353.6 2283.82 1343.65 C 2284.1 1369.98 2285.59 1384.61 2254.84 1391.83 C 2250.75 1392.14 2245.69 1393.3 2241.47 1393.89 C 2199.81 1399.67 2157.26 1401.46 2115.19 1403.17 C 2029.32 1406.2 1943.36 1404.68 1857.66 1398.62 C 1832.68 1396.87 1809.01 1393.78 1784.5 1391.82 C 1790.56 1381.77 1789.56 1377.31 1787.58 1366.29 C 1786.26 1358.95 1784.66 1351.03 1783.93 1343.67 z" fill="rgb(231,89,42)" transform="translate(0,0)"></path>
<path d="M 1348.66 854.113 C 1404.3 907.21 1685 936.353 1764.95 943.61 C 1921.38 957.11 2078.6 959.024 2235.32 949.335 C 2244.63 948.736 2280.87 947.565 2285.4 943.791 C 2283.92 950.107 2282.9 954.137 2283.37 960.696 C 2188.04 968.319 2092.4 971.349 1996.78 969.776 C 1952.36 969.102 1907.95 967.625 1863.58 965.345 C 1767.35 959.575 1410.9 931.648 1348.77 868.124 L 1348.66 854.113 z" fill="rgb(247,241,234)" transform="translate(0,0)"></path>
<path d="M 1756.79 191.757 L 1758.32 191.738 C 1770.65 191.534 1781.57 188.926 1794.16 188.817 C 1867.77 188.176 1941.51 188.492 2015.13 188.848 C 2010.83 211.023 1997.76 219.411 1976.03 219.662 C 1974.81 233.184 1973.27 242.535 1962.3 252.361 C 1944.26 268.512 1911.08 258.785 1890.98 262.775 L 1889.83 262.78 L 1888.29 262.072 C 1855.18 261.904 1821.71 264.985 1820.61 219.617 C 1800.41 219.368 1784.96 216.612 1777.71 194.446 L 1777.47 192.818 C 1774.52 191.224 1761.08 191.787 1756.79 191.757 z" fill="rgb(231,89,42)" transform="translate(0,0)"></path>
<path d="M 2079.07 215.223 C 2082.69 206.625 2087.67 195.921 2097.97 194.726 C 2112.82 193.002 2129.51 193.766 2144.47 193.795 L 2234.51 193.826 C 2248 193.852 2269.73 194.653 2282.66 193.602 L 2283.82 193.498 C 2283.29 199.953 2283.02 209.714 2283.7 216.132 C 2277.52 214.428 2239.63 215.402 2230.59 215.277 C 2180.44 214.58 2129.13 216.259 2079.07 215.223 z" fill="rgb(231,89,42)" transform="translate(0,0)"></path>
<path d="M 2073.52 795.871 L 2077.29 794.925 C 2077.31 795.656 2077.84 803.11 2076.66 803.268 C 2075.88 802.565 2074.03 797.146 2073.52 795.871 z" fill="rgb(247,241,234)" transform="translate(0,0)"></path>
<path d="M 1348.78 873.423 C 1394.32 909.629 1514.88 928.669 1573.54 938.855 C 1546.08 957.976 1527.07 986.464 1526.84 1020.62 C 1526.36 1092.5 1526.31 1164.43 1526.65 1236.31 C 1526.71 1249.57 1539.66 1250.76 1550.07 1253.32 C 1549.98 1263.81 1549.66 1274.88 1550.28 1285.32 C 1532.61 1283.41 1531.24 1287.6 1519.66 1300.39 L 1518.6 1301.23 L 1514.84 1301.5 C 1507.26 1298.5 1486.9 1295.02 1476.79 1292.2 C 1437.26 1281.07 1389.76 1271.82 1357.79 1244.61 C 1345.21 1233.9 1348.73 1202.69 1348.8 1186.68 L 1348.9 1116.89 L 1348.78 873.423 z" fill="rgb(247,241,234)" transform="translate(0,0)"></path>
<path d="M 1597.1 195.242 C 1609.41 194.366 1629.31 194.866 1642.18 194.819 L 1729.25 194.602 L 1729.39 492.257 L 1710.3 492.188 L 1639.03 492.422 C 1629.59 492.448 1610.43 493.006 1601.72 492.026 C 1597.52 491.568 1593.42 490.484 1589.54 488.812 C 1583.78 486.27 1580.49 481.691 1578.38 475.865 C 1575.51 467.964 1576.19 245.77 1577.13 222.101 C 1577.32 217.425 1577.49 212.81 1579.68 208.584 C 1583.5 201.203 1589.5 197.708 1597.1 195.242 z" fill="rgb(247,241,234)" transform="translate(0,0)"></path>
<path d="M 1708.72 325.452 C 1709.1 325.728 1710.79 326.901 1710.79 327.17 C 1710.99 338.1 1711.91 381.037 1710.43 388.585 C 1710.05 388.29 1708.34 387.036 1708.33 386.757 C 1708.13 376.235 1707.08 333.005 1708.72 325.452 z" fill="rgb(27,23,20)" transform="translate(0,0)"></path>
<path d="M 1677.09 952.947 C 1680.68 952.911 1684.98 953.373 1688.59 953.729 C 1758.6 960.632 1829.97 967.997 1900.31 970.171 C 1887.5 1039.71 1831.2 1029.95 1779.64 1052.49 C 1774.93 1054.54 1772.3 1059.71 1769.97 1064.04 C 1769.4 1089.63 1772.44 1129.78 1773.56 1156.68 L 1776.25 1223.95 C 1740.48 1243.64 1694.49 1240.91 1655.8 1232.51 L 1638.48 1100.36 C 1635.57 1078.13 1631.8 1054.64 1630.18 1032.4 C 1627.77 999.303 1647.54 967.683 1677.09 952.947 z" fill="rgb(231,89,42)" transform="translate(0,0)"></path>
<path d="M 2136.25 218.503 L 2256.93 218.553 C 2256.9 237.834 2258.69 465.217 2256.3 471.535 C 2252.97 473.452 2252.79 472.751 2248.31 472.8 C 2206.35 472.226 2163.45 472.591 2121.43 472.546 L 2121.32 218.619 L 2136.25 218.503 z" fill="rgb(255,255,255)" transform="translate(0,0)"></path>
<path d="M 1956.75 629.644 C 2016.09 651.243 2025.88 698.07 2050.35 750.921 C 2064.18 780.79 2085.56 818.059 2073.61 851.027 C 2067.74 866.9 2055.77 879.771 2040.37 886.78 C 2033.13 890.056 2025.37 892.043 2017.44 892.654 C 2005.38 893.632 1974.95 891.923 1961.71 891.203 C 1943.55 890.215 1916.89 890.613 1899.74 888.655 C 1897.18 886.089 1897.88 886.005 1896.92 881.777 C 1895.1 870.817 1879.67 806.534 1881.17 801.772 C 1916.02 806.96 1957.52 802.369 1992.86 807.158 C 1998.13 807.872 2011.9 820.922 2017.95 823.069 L 2019 822.045 C 2015.84 817.084 2004.61 810.417 1999.47 806.645 C 2006.69 807.003 2010.81 807.6 2017.7 805.589 L 2017.85 804.942 C 1997.95 802.712 1966.39 801.927 1945.9 801.8 C 1930.07 756.646 1908.12 707.672 1931.37 662.786 C 1937.45 651.054 1946.1 637.678 1956.75 629.644 z" fill="rgb(247,241,234)" transform="translate(0,0)"></path>
<path d="M 1578.04 939.819 C 1584.59 939.935 1604.63 943.295 1612.04 944.343 C 1631.86 947.191 1651.73 949.696 1671.64 951.858 C 1661.53 957.618 1652.67 965.338 1645.58 974.566 C 1628.61 996.381 1624.28 1019.05 1628.19 1045.85 C 1630.71 1063.13 1632.75 1080.89 1635.04 1098.24 L 1650.42 1217.08 L 1640.3 1220.39 C 1602.63 1228.65 1566.85 1227.23 1529.73 1216.93 L 1529.84 1088.05 C 1529.75 1028.51 1519.74 976.818 1578.04 939.819 z" fill="rgb(231,89,42)" transform="translate(0,0)"></path>
<path d="M 2121.44 475.84 L 2256.89 475.941 C 2256.96 541.715 2258.09 610.838 2256.8 676.312 L 2121.26 676.415 L 2121.44 475.84 z" fill="rgb(255,255,255)" transform="translate(0,0)"></path>
<path d="M 2184.49 679.5 C 2208.65 679.723 2232.81 679.806 2256.97 679.749 L 2256.85 868.305 C 2236 869.847 2215.13 871.059 2194.25 871.941 C 2169.96 872.916 2145.65 873.547 2121.34 873.833 L 2121.39 679.72 C 2142.42 679.783 2163.46 679.71 2184.49 679.5 z" fill="rgb(255,255,255)" transform="translate(0,0)"></path>
<path d="M 2080.39 218.696 L 2118.13 218.733 L 2118.24 690.459 L 2118.16 819.971 C 2118.17 828.342 2118.82 867.832 2117.67 873.614 L 2080.69 873.968 L 2080.39 218.696 z" fill="rgb(231,89,42)" transform="translate(0,0)"></path>
<path d="M 1615.34 699.217 C 1625.67 699.805 1634.24 699.983 1644.58 699.922 L 1648.96 718.131 C 1669.47 719.84 1699.1 719.912 1720.06 720.148 L 1714.48 705.197 C 1723.61 705.555 1754.08 705.26 1760.16 708.956 C 1766.06 716.693 1778.81 780.9 1781.72 794.514 C 1769.89 793.436 1725.66 784.76 1717.58 788.641 C 1706.94 793.751 1717.26 804.628 1714.58 813.239 L 1714.05 814.909 C 1710.83 825.355 1722.8 829.497 1722.93 833.635 C 1723.44 849.284 1723.98 848.795 1743.03 854.716 C 1745.15 859.821 1745.8 861.581 1749.09 866.246 C 1759.11 874.033 1789.86 880.956 1803.37 883.311 C 1804.53 889.788 1806.13 895.419 1807.87 901.768 C 1789.49 900.764 1765.88 897.518 1747.35 895.331 L 1654.67 884.626 C 1650.35 881.351 1646.95 878.998 1645.74 873.375 C 1634.84 822.868 1624.19 772.292 1612.97 721.853 C 1611.77 716.457 1610 710.303 1610.19 705.035 C 1610.27 702.571 1613.76 700.343 1615.34 699.217 z" fill="rgb(231,89,42)" transform="translate(0,0)"></path>
<path d="M 1914.38 618.442 L 1953.39 628.056 C 1896.46 683.537 1920.12 737.724 1942.34 801.531 L 1886.06 799.541 C 1881.8 799.406 1880.47 798.637 1877.29 800.589 L 1875.86 804.694 C 1871.43 802.834 1855.7 802.218 1850.11 801.859 C 1837.93 793.943 1823.2 784.989 1812 775.856 C 1801.21 767.06 1803.02 756.284 1785.06 755.18 C 1769.91 691.65 1784.11 699.579 1717.87 696.723 C 1723.8 674.29 1728.8 651.619 1734.87 629.109 C 1744.07 626.114 1751.52 623.589 1760.55 619.933 C 1767.85 640.096 1773.96 660.956 1781.06 681.186 C 1783.09 686.951 1787.26 705.697 1791.4 708.38 C 1795.79 705.757 1816.82 660.018 1821.47 651.443 C 1826.63 672.978 1832.1 693.936 1836.45 715.673 C 1862.83 685.225 1887.57 648.84 1914.38 618.442 z" fill="rgb(231,89,42)" transform="translate(0,0)"></path>
<path d="M 1839.35 436.123 C 1837.94 443.858 1837.67 447.561 1837.38 455.469 C 1840.87 476.563 1847.22 492.991 1865.14 506.212 C 1878.83 499 1893.98 496.852 1902.15 513.36 C 1904.73 518.696 1905.07 524.843 1903.08 530.426 C 1898.71 542.767 1887.13 543.57 1877.27 547.231 C 1876.77 548.593 1876.51 548.697 1876.59 549.986 L 1874.69 553.854 C 1863.12 570.599 1852.2 579.74 1831.44 583.983 C 1820.22 586.278 1801.69 585.881 1790.81 582.084 C 1782.09 578.364 1774.36 572.635 1768.27 565.362 C 1751 545.145 1748.01 516.147 1757.11 491.674 C 1760.26 483.182 1768.01 468.511 1774.84 462.815 C 1799.08 472.291 1818.83 463.823 1834.49 444.698 L 1839.35 436.123 z" fill="rgb(201,72,30)" transform="translate(0,0)"></path>
<path d="M 1783.66 534.074 C 1799.43 534.306 1822.24 534.345 1837.51 535.363 C 1834.3 543.65 1832.64 547.771 1826.73 554.686 C 1808.13 571.393 1784.66 558.357 1783.66 534.074 z" fill="rgb(27,23,20)" transform="translate(0,0)"></path>
<path d="M 1787.11 537.278 C 1802.59 537.895 1817.91 537.728 1833.3 538.334 C 1829.63 545.454 1829.82 546.189 1824.52 552.419 C 1807.58 566.02 1791.27 557.725 1787.11 537.278 z" fill="rgb(255,255,255)" transform="translate(0,0)"></path>
<path d="M 1801.34 491.455 C 1801 491.158 1803.1 492.838 1803.07 493.11 C 1802.53 498.114 1792.69 516.56 1790.75 521.203 C 1793.18 521.652 1804.3 523.199 1806 524.299 C 1806.41 524.562 1806.67 524.995 1806.73 525.476 C 1806.8 526.213 1806.1 527.018 1805.73 527.536 C 1798.89 526.157 1793.05 524.851 1786.25 523.211 C 1790.87 512.433 1795.9 501.84 1801.34 491.455 z" fill="rgb(27,23,20)" transform="translate(0,0)"></path>
<path d="M 1775.89 491.403 C 1787.27 493.183 1783.66 501.828 1777.77 508.408 C 1767.25 505.096 1770.33 498.062 1775.89 491.403 z" fill="rgb(27,23,20)" transform="translate(0,0)"></path>
<path d="M 1825.13 496.516 C 1835.55 499.496 1833.35 506.188 1827.12 512.758 C 1815.65 510.405 1818.61 503.244 1825.13 496.516 z" fill="rgb(27,23,20)" transform="translate(0,0)"></path>
<path d="M 1880.3 515.01 C 1885.48 514.759 1889.03 514.073 1891.39 519.82 C 1891.88 521.016 1891.79 522.938 1890 522.955 C 1887.9 522.974 1888.3 519.595 1886.79 518.637 C 1885 517.344 1882.69 518.004 1880.7 518.325 C 1878.3 521.524 1875.93 528.84 1874.98 529.313 C 1870.27 529.109 1875.23 518.911 1878.98 516.055 L 1880.3 515.01 z" fill="rgb(27,23,20)" transform="translate(0,0)"></path>
<path d="M 1780.82 473.3 C 1784.65 473.866 1791.21 474.975 1792.27 478.923 C 1794.56 487.495 1785.09 476.619 1784.64 476.226 C 1780.44 476.843 1771.46 481.265 1770.66 479.289 C 1771.56 476.357 1775.15 474.491 1777.96 473.889 L 1780.82 473.3 z" fill="rgb(27,23,20)" transform="translate(0,0)"></path>
<path d="M 1828.19 478.927 C 1846.62 479.428 1846.52 497.791 1838.21 484.874 C 1826.3 477.847 1825.07 487.379 1821.13 484.733 C 1820.18 482.307 1826.77 479.594 1828.19 478.927 z" fill="rgb(27,23,20)" transform="translate(0,0)"></path>
<path d="M 1805.73 800.248 C 1802.13 797.176 1764.69 767.584 1787.73 758.867 C 1794.75 756.209 1803.29 773.124 1808.9 777.533 C 1821.09 787.114 1835.15 796.029 1848.4 804.914 L 1874.26 806.482 C 1886 810.659 1877.57 868.957 1876.08 880.583 C 1857.74 880.079 1832.11 879.143 1813.98 880.101 C 1797.87 879.885 1756.6 873.19 1748.55 858.095 C 1753.35 855.552 1777.28 866.402 1783.64 864.479 C 1771.28 854.591 1720.8 854.558 1725.67 833.96 C 1734.02 830.388 1776.02 846.582 1780.75 842.676 C 1775.61 833.599 1712.28 836.689 1717.47 814.874 C 1726.58 806.048 1765.88 826.528 1777.72 820.319 C 1768.43 816.218 1723.94 811.303 1718.15 805.35 C 1716.42 803.544 1715.53 801.084 1715.73 798.588 C 1716.17 792.665 1721.14 790.097 1726.65 790.739 C 1744.73 792.845 1762.76 796.06 1780.87 797.903 C 1789.24 798.754 1797.3 799.199 1805.73 800.248 z" fill="rgb(201,72,30)" transform="translate(0,0)"></path>
<path d="M 1486.59 550.841 C 1498.14 550.155 1523.07 568.388 1534.17 574.846 C 1548.56 583.22 1564.25 592.351 1578.24 601.285 C 1571.06 607.504 1567 611.917 1563.94 621.405 C 1562.18 626.903 1564.3 645.471 1570.43 646.979 L 1571.2 645.539 C 1561.68 618.841 1567.82 613.783 1588.23 597.623 C 1584.42 587.65 1576.49 571.225 1579.28 561.442 C 1588.3 551.112 1594.43 564.334 1598.61 570.555 C 1616.75 597.567 1622.14 628.83 1630.17 659.843 L 1618.24 664.461 C 1597.73 672.63 1577.09 680.451 1556.32 687.92 C 1554.75 683.516 1553.69 679.638 1552.47 675.16 C 1540.98 667.68 1468.91 626.267 1465.97 618.787 C 1464.94 616.158 1464.88 613.085 1466.16 610.535 C 1466.85 609.174 1468.34 607.888 1469.77 607.484 C 1471.19 607.081 1472.53 606.884 1473.96 607.341 C 1480.97 609.572 1508.17 627.424 1516.96 632.508 C 1525.04 621.862 1533.16 608.563 1541.5 597.161 C 1531.52 590.589 1492.49 569.958 1482.7 559.994 C 1481.1 558.362 1484.81 553.216 1486.59 550.841 z" fill="rgb(201,72,30)" transform="translate(0,0)"></path>
<path d="M 1638.21 660.141 C 1640.63 661.881 1647.93 685.737 1648.29 689.813 C 1645.05 693.441 1647.26 689.066 1642.29 691.954 C 1642.61 694.59 1642.72 694.074 1642.39 696.628 C 1631.44 698.599 1603.68 689.507 1607.28 709.926 C 1610.04 725.58 1614.04 741.391 1617.43 756.962 L 1638.14 853.215 C 1625.47 850.832 1618.35 847.977 1607.66 840.992 C 1582.14 822.198 1579.52 796.737 1571.52 767.744 L 1551.25 693.656 C 1575.74 682.831 1612.48 670.097 1638.21 660.141 z" fill="rgb(247,241,234)" transform="translate(0,0)"></path>
<path d="M 1369.43 1258.16 C 1383.75 1265.11 1397.1 1271.55 1412.11 1276.91 C 1445.56 1288.85 1480.02 1295.48 1514.11 1304.34 L 1503.18 1312.27 C 1502.33 1313.08 1501.75 1313.39 1500.72 1314.08 C 1496.16 1316.95 1491.59 1319.78 1486.98 1322.57 C 1492.61 1325 1505.19 1329.98 1509.77 1333.45 L 1509.38 1334.49 C 1504.95 1334.33 1490.08 1327.4 1484.77 1325.33 C 1483.24 1325.12 1468.58 1333.11 1466.07 1334.4 C 1439.52 1327.04 1398.3 1315.64 1376.72 1297.57 C 1367 1289.43 1369.82 1271.34 1369.43 1258.16 z" fill="rgb(231,89,42)" transform="translate(0,0)"></path>
<path d="M 1782.08 1389.65 C 1773.56 1399.07 1728.26 1410.26 1713.84 1415.56 C 1688.29 1423.56 1662.03 1434.91 1636.15 1441.41 C 1615.39 1446.62 1578.89 1434.57 1582.5 1407.64 C 1585.01 1407.17 1587.42 1409.35 1589.71 1410.62 C 1617.98 1426.14 1645.6 1412.01 1673.15 1403.99 C 1710.07 1393.24 1747.75 1377.43 1784.68 1367.64 C 1786.18 1377.18 1787.07 1380.74 1782.08 1389.65 z" fill="rgb(231,89,42)" transform="translate(0,0)"></path>
<path d="M 1882.12 596.684 C 1886.33 598.476 1906.67 613.646 1911.21 616.983 C 1889.3 642.839 1866.66 672.653 1845.49 699.41 L 1838.68 708.041 C 1833.2 689.851 1827.76 664.231 1823.5 645.443 C 1842.29 628.843 1862.96 613.245 1882.12 596.684 z" fill="rgb(247,241,234)" transform="translate(0,0)"></path>
<path d="M 1758.84 1262.22 C 1760.28 1264.44 1761.34 1305.78 1762.4 1312.76 C 1762.36 1312.86 1750.14 1330.92 1749.4 1331.74 C 1746.11 1335.45 1740.17 1337.58 1735.01 1337.35 C 1713.15 1336.37 1719.13 1326.59 1708.69 1315.33 C 1701.56 1307.64 1688.58 1308.02 1679.12 1308.1 C 1678.97 1298.81 1678.86 1289.52 1678.82 1280.22 C 1713.65 1275.61 1725.71 1276.2 1758.84 1262.22 z" fill="rgb(255,255,255)" transform="translate(0,0)"></path>
<path d="M 1553.28 1263.62 C 1591.39 1265.17 1600.32 1259.94 1635.53 1251.47 L 1634.87 1304.96 C 1622.95 1312.3 1597.58 1344.37 1584.92 1306.51 C 1580.8 1294.18 1568.47 1286.99 1555.49 1286.16 C 1552.37 1286.09 1552.79 1282.78 1552.24 1280.22 C 1553.41 1274.3 1552.92 1269.66 1553.28 1263.62 z" fill="rgb(255,255,255)" transform="translate(0,0)"></path>
<path d="M 1440.13 1362.42 C 1450.28 1368.05 1457.28 1374.9 1469.11 1377.96 C 1490.73 1383.55 1584.29 1371.13 1611.17 1367.83 C 1605.72 1372.34 1600.32 1376.9 1594.96 1381.51 C 1589.7 1386.85 1588.24 1388.53 1584.08 1394.73 C 1557.15 1397.71 1498.98 1409 1475.41 1404.44 C 1463.85 1402.2 1449.41 1397.31 1442.8 1386.86 C 1437.95 1379.18 1438.44 1370.92 1440.13 1362.42 z" fill="rgb(231,89,42)" transform="translate(0,0)"></path>
<path d="M 1792.22 598.648 C 1793.65 600.359 1797.17 605.699 1797.47 606.012 L 1820.08 645.014 C 1812.44 663.686 1800.69 685.674 1791.52 703.946 C 1783.65 676.624 1772.59 645.562 1763.52 618.226 L 1792.22 598.648 z" fill="rgb(247,241,234)" transform="translate(0,0)"></path>
<path d="M 1529.81 1219.71 C 1566.81 1231.96 1611.88 1231.43 1649.25 1220.95 C 1648.8 1238.42 1653.06 1242.89 1634.93 1248.14 C 1607.31 1254.9 1583.89 1254.8 1555.93 1251.02 C 1529.52 1247.18 1529.1 1244.43 1529.81 1219.71 z" fill="rgb(231,89,42)" transform="translate(0,0)"></path>
<path d="M 1656.24 1235.79 C 1694.73 1245.62 1740.43 1245.07 1776.47 1227.38 C 1777.69 1249.09 1778.52 1251.97 1757.2 1259.33 C 1731.84 1265.79 1703.98 1264.78 1678.04 1262.16 C 1657.75 1258.95 1658.41 1254.22 1656.24 1235.79 z" fill="rgb(231,89,42)" transform="translate(0,0)"></path>
<path d="M 1873.59 561.251 C 1874.07 560.166 1874.89 557.695 1876.29 557.782 C 1876.87 558.56 1876.62 560.074 1876.57 560.976 L 1875.98 573.567 C 1876.57 577.955 1876.38 589.161 1876.62 594.353 C 1875.88 600.409 1830.78 634.353 1822.52 642.342 C 1815.6 630.294 1808.16 618.404 1801.65 606.148 C 1830.04 608.279 1856.82 581.225 1873.59 561.251 z" fill="rgb(201,72,30)" transform="translate(0,0)"></path>
<path d="M 1651.89 1241.58 L 1654.34 1243 C 1656.54 1258.93 1657.93 1261.48 1675.04 1264.79 C 1675.37 1279.47 1675.8 1293.53 1675.9 1308.25 C 1660.77 1312.57 1660.96 1314.3 1652.62 1327.45 C 1648.5 1314.83 1649.78 1311.48 1637.87 1304.4 C 1638.06 1297.78 1637.56 1251.52 1640.25 1249.92 C 1646.74 1247.58 1647.64 1247.06 1651.89 1241.58 z" fill="rgb(247,241,234)" transform="translate(0,0)"></path>
<path d="M 1671.09 675.92 C 1684.15 677.24 1686.41 682.495 1689.55 693.924 C 1695.49 694.055 1701.3 694.006 1707.23 694.061 C 1710.02 701.958 1712.62 709.636 1716.09 717.253 L 1690.16 716.643 C 1677.26 715.92 1664.52 716.116 1651.57 715.389 C 1650.08 708.994 1648.15 700.736 1646.3 694.587 L 1661.07 694.036 C 1662.07 683.338 1660.54 681.054 1671.09 675.92 z" fill="rgb(247,241,234)" transform="translate(0,0)"></path>
<path d="M 1670.63 684.769 C 1672.5 683.341 1674.99 683.031 1677.15 683.957 C 1679.32 684.884 1680.81 686.904 1681.06 689.243 C 1681.32 691.581 1680.29 693.875 1678.38 695.244 C 1675.49 697.317 1671.47 696.684 1669.35 693.822 C 1667.23 690.961 1667.8 686.93 1670.63 684.769 z" fill="rgb(27,23,20)" transform="translate(0,0)"></path>
<path d="M 1729.88 631.1 C 1731.43 632.676 1719.32 677.902 1717.83 684.493 C 1712.51 707.952 1713.83 689.229 1704 690.98 C 1701.46 691.432 1693.8 691.412 1692.02 690.399 C 1688.65 680.207 1689.11 681.094 1681.18 674.948 C 1693.13 654.105 1706.9 639.935 1729.88 631.1 z" fill="rgb(247,241,234)" transform="translate(0,0)"></path>
<path d="M 1473.62 562.854 C 1474.26 562.911 1474.91 562.975 1475.55 563.022 C 1483.03 563.565 1526.12 591.787 1536.93 597.802 C 1533.83 602.315 1530.91 606.4 1527.75 610.85 C 1526.37 612.024 1525.74 611.775 1524.22 610.736 C 1507.03 598.961 1488.07 589.537 1471.15 577.446 C 1464.8 572.906 1469.76 566.694 1473.62 562.854 z" fill="rgb(201,72,30)" transform="translate(0,0)"></path>
<path d="M 1469.08 581.73 C 1484.39 588.225 1508.69 605.949 1525.51 614.527 L 1516.47 627.54 C 1513.42 628.032 1490.65 613.26 1486.68 610.734 C 1477.76 605.049 1448.33 593.704 1469.08 581.73 z" fill="rgb(201,72,30)" transform="translate(0,0)"></path>
<path d="M 1762.52 701.635 C 1763.57 701.841 1769.35 702.96 1770.08 705.657 C 1774.33 721.351 1778.67 741.286 1782.06 757.368 C 1782.15 757.783 1779.1 761.703 1778.44 762.087 C 1776.65 761.342 1768.39 719.94 1766.7 714.471 C 1764.55 707.501 1766.64 709.773 1759.95 704.068 L 1762.52 701.635 z" fill="rgb(231,89,42)" transform="translate(0,0)"></path>
<path d="M 2074.46 857.821 C 2074.78 856.712 2075.68 853.204 2076.76 852.694 C 2078.27 853.077 2077.6 864.874 2077.6 866.594 C 2077.87 877.366 2075.45 874.183 2063.53 874.081 C 2068.66 867.294 2070.09 864.86 2074.46 857.821 z" fill="rgb(247,241,234)" transform="translate(0,0)"></path>
<path d="M 1759.95 704.068 C 1745.64 703.304 1731.3 703.184 1717 702.234 C 1715.2 702.114 1713.73 702.213 1712.8 700.176 L 1713.08 699.552 C 1714.5 698.802 1756.53 701.814 1762.52 701.635 L 1759.95 704.068 z" fill="rgb(237,141,96)" transform="translate(0,0)"></path>
<path d="M 1500.72 1314.08 C 1501.75 1313.39 1502.33 1313.08 1503.18 1312.27 C 1506.23 1313.63 1527.15 1321.38 1527.74 1322.79 C 1526.41 1326.86 1503.68 1315.7 1500.72 1314.08 z" fill="rgb(237,141,96)" transform="translate(0,0)"></path>
<path d="M 1647.83 1331.22 C 1653.78 1331.46 1671.69 1332.95 1674.3 1338.65 C 1668.36 1338.03 1651.4 1335.77 1647.83 1331.22 z" fill="rgb(237,141,96)" transform="translate(0,0)"></path>
<path d="M 1634.01 1345.24 C 1641.42 1344.44 1644.95 1346.35 1652.55 1347.83 L 1657.58 1348.85 C 1659.23 1349.19 1660.65 1349.38 1661.74 1350.76 L 1662.59 1351.76 C 1656.57 1352.24 1638.9 1348.88 1634.01 1345.24 z" fill="rgb(231,89,42)" transform="translate(0,0)"></path>
<path d="M 1519.66 1300.39 C 1523.78 1302.64 1541.32 1308.25 1542.56 1310.32 C 1542.72 1314.72 1520.69 1305.34 1518.6 1301.23 L 1519.66 1300.39 z" fill="rgb(231,89,42)" transform="translate(0,0)"></path>
<path d="M 1621.23 1358.22 C 1627.46 1358.42 1643.34 1361.43 1648.56 1364.77 C 1642.53 1365.31 1624.59 1363.39 1621.23 1358.22 z" fill="rgb(231,89,42)" transform="translate(0,0)"></path>
<path d="M 1806.24 882.246 C 1813.95 883.58 1813.37 891.086 1812.7 897.92 C 1807.83 897.849 1807.15 886.618 1806.24 882.246 z" fill="rgb(237,141,96)" transform="translate(0,0)"></path>
<path d="M 1782.59 782.603 C 1785.69 785.409 1790.81 792.079 1792.71 795.869 C 1782.41 795.167 1783.95 793.7 1782.59 782.603 z" fill="rgb(231,89,42)" transform="translate(0,0)"></path>
<path d="M 1651.89 1241.58 C 1651.92 1240.79 1652.22 1234.96 1652.09 1234.69 L 1652.72 1233.4 L 1652.38 1233.12 L 1652.52 1232.93 L 1652.56 1233.1 C 1653.74 1234.12 1654.19 1241.3 1654.34 1243 L 1651.89 1241.58 z" fill="rgb(252,235,225)" transform="translate(0,0)"></path>
<path d="M 1332.23 237.991 L 1515.28 238.09 L 1515.19 494.973 L 1332.2 494.816 L 1332.23 237.991 z" fill="rgb(27,23,20)" transform="translate(0,0)"></path>
<path d="M 1335.52 241.128 L 1512.28 241.141 L 1512.07 491.637 C 1456.02 493.254 1392.49 491.624 1335.72 491.603 L 1335.52 241.128 z" fill="rgb(255,255,255)" transform="translate(0,0)"></path>
<path d="M 1372.16 376.914 C 1402.12 376.737 1432.09 376.733 1462.06 376.903 C 1462.12 406.294 1462.53 436.585 1461.95 465.905 L 1372.18 465.896 C 1371.36 437.575 1372.13 405.53 1372.16 376.914 z" fill="rgb(27,23,20)" transform="translate(0,0)"></path>
<path d="M 1375.26 379.998 C 1403.12 379.793 1430.97 379.742 1458.83 379.846 C 1459.22 401.161 1460.02 442.379 1458.82 462.857 C 1432.71 463.348 1401.42 463.364 1375.33 462.594 L 1375.26 379.998 z" fill="rgb(231,89,42)" transform="translate(0,0)"></path>
<path d="M 1421.18 277.052 C 1441.03 277.022 1468.07 276.382 1487.24 277.328 C 1487.12 301.993 1487.8 327.585 1487.34 352.074 L 1421.02 352.347 C 1421.46 327.301 1420.69 301.989 1421.18 277.052 z" fill="rgb(27,23,20)" transform="translate(0,0)"></path>
<path d="M 1424.37 280.274 L 1484.22 280.314 L 1484.24 348.909 L 1424.35 349.005 L 1424.37 280.274 z" fill="rgb(247,241,234)" transform="translate(0,0)"></path>
<path d="M 1379.88 300.438 C 1394.81 297.356 1409.44 306.905 1412.62 321.819 C 1415.8 336.732 1406.34 351.417 1391.45 354.696 C 1376.42 358.006 1361.57 348.445 1358.36 333.392 C 1355.15 318.339 1364.81 303.55 1379.88 300.438 z" fill="rgb(27,23,20)" transform="translate(0,0)"></path>
<path d="M 1380.33 303.447 C 1393.62 300.605 1406.7 309.091 1409.52 322.391 C 1412.35 335.691 1403.84 348.757 1390.54 351.558 C 1377.26 354.354 1364.23 345.87 1361.41 332.599 C 1358.6 319.328 1367.06 306.283 1380.33 303.447 z" fill="rgb(231,89,42)" transform="translate(0,0)"></path>
<metadata><recraft-signature>{"signed_by": "recraft", "signature_b64": "TrTyprdGQa59y6u/lE+2j3e6/fNDcSI4BJe22b7QRieAcIFlc7ItecHtKuXDBDEc7BqbNAQCHRtENlzUGez+AQ==", "signing_algo": "Ed25519", "generation_timestamp": 1783393814, "identifier": "6690d64c-cef5-4dc4-a974-7930ad9acab7"}</recraft-signature></metadata></svg>