<svg xmlns="http://www.w3.org/2000/svg" height="1792" preserveAspectRatio="none" style="display: block;" version="1.1" viewBox="0 0 2432 1792" width="2432">
<path d="M 0 0 L 2432 0 L 2432 1792 L 0 1792 L 0 0 z" fill="rgb(255,255,255)" transform="translate(0,0)"></path>
<path d="M 830.396 348.331 C 771.27 344.09 745.515 276.106 789.931 238.703 C 802.806 227.872 819.485 222.653 836.237 224.212 C 853.428 225.645 869.326 233.909 880.377 247.154 C 892.497 261.878 895.256 278.052 893.803 296.547 C 919.796 293.643 941.359 295.251 962.836 312.506 C 977.633 324.166 987.055 341.341 988.937 360.086 C 990.272 373.698 983.394 409.457 980.092 424.012 C 974.516 448.583 944.789 461.887 921.076 464.203 L 910.444 485.201 C 947.984 505.987 960.904 526.062 986.17 558.877 C 1007.31 586.333 1028.31 615.802 1050.1 642.591 C 1064.02 637.275 1157.13 600.627 1161.68 601.582 L 1163.96 603.718 C 1171.21 603.24 1232.93 576.974 1247.32 573.559 C 1268.78 568.465 1282.27 568.577 1304.94 567.243 C 1313.93 566.715 1329.24 562.979 1337.12 569.485 C 1338.19 570.363 1340.61 573.937 1341.37 575.123 C 1369.58 568.44 1396.47 570.168 1421.86 585.629 C 1452.66 604.374 1483.25 650.384 1463.26 686.207 C 1459.69 692.598 1451.6 698.73 1449.22 706.222 C 1444.2 718.564 1448.04 732.439 1444.32 745.005 C 1440.12 759.206 1424.28 767.333 1428.19 784.024 C 1431.87 799.683 1438.71 810.846 1428.06 826.701 C 1413.45 848.47 1389.68 858.524 1365.24 865.001 L 1386.61 954.205 C 1390.28 969.14 1396.95 992.874 1399.6 1007.46 C 1418.94 1012.3 1446.98 1018.51 1465.41 1024.41 C 1466.6 1026.64 1466.51 1026.69 1466.99 1029.21 C 1470.82 1032.56 1485.54 1036.25 1491.26 1037.92 C 1511.25 1007.42 1535.79 986.966 1572.5 979.472 C 1578.37 978.305 1584.3 977.452 1590.26 976.917 L 1590.02 830.329 C 1682.3 829.344 1775.93 830.258 1868.35 830.198 C 1867.84 878.767 1868.21 928.128 1868.39 976.718 C 1923.75 984.193 1966.41 1017.17 1977.17 1074.53 C 1979.94 1089.3 1978.88 1108.45 1978.88 1123.73 L 1978.88 1193.32 L 1979.08 1439.56 C 2003.1 1446.81 2019.42 1454.45 2032.92 1477.69 C 2040.16 1490.15 2041.28 1504.15 2045.25 1517.56 C 2053.91 1546.86 2078.56 1569.81 2107.56 1578.5 C 2132.89 1586.09 2161.43 1581.9 2188.05 1583.41 L 2188.73 1585.13 C 2180.23 1587.81 2169.94 1586.6 2160.92 1586.68 C 2135.34 1587.4 2112.56 1586.99 2089.26 1574.96 C 2070.27 1565.17 2046.77 1541.88 2042.01 1520.53 C 2032.66 1478.62 2024.52 1455.57 1979.16 1443.73 C 1979.34 1475 1983.62 1505.49 1959.83 1529.35 C 1947.1 1542.11 1932.2 1548.57 1914.68 1551.69 L 1914.84 1578.31 C 1920.85 1580.54 1926.35 1582.88 1929.25 1589.08 C 1932.02 1594.99 1931.69 1605.53 1929.07 1611.54 C 1927.32 1615.55 1923.95 1619.07 1919.78 1620.58 C 1909.52 1624.26 1838.89 1624.69 1830.23 1620.1 C 1825.08 1617.37 1821.76 1612.14 1820.17 1606.64 C 1818.46 1600.7 1819.18 1594.43 1822.47 1589.17 C 1826.91 1582.07 1832.49 1579.48 1840.31 1577.64 L 1840.28 1552.27 L 1693.8 1552.17 C 1669.61 1552.17 1641.17 1551.51 1617.24 1552.42 C 1625.42 1563.15 1628.54 1567.5 1632.78 1580.28 C 1653.28 1593.08 1652.18 1618.1 1627.35 1622.26 C 1616.57 1624.06 1595.04 1622.52 1583.46 1622.45 L 1500.61 1622.3 L 1403.69 1622.43 C 1389.9 1622.43 1376.17 1622.68 1362.15 1622.41 C 1348.84 1622.16 1340.49 1614.26 1339.19 1600.69 C 1338.32 1591.49 1345.05 1585.12 1352.6 1580.69 C 1347.73 1560.6 1348.06 1542.06 1356.46 1523.11 C 1365.13 1503.51 1364.53 1489.45 1367.26 1468.82 L 1337.69 1468.13 C 1340.28 1447.44 1344.33 1418.8 1345.48 1398.35 C 1329 1418.24 1309.16 1443.91 1292.17 1462.39 L 1276.73 1452.35 C 1286.5 1476.97 1296.82 1501.36 1307.69 1525.51 C 1321.22 1555.89 1332.19 1566.45 1326.16 1601.18 C 1343.49 1623.19 1316.72 1643.17 1300.13 1632.34 C 1247.36 1597.9 1191.81 1565.44 1139.72 1530.17 C 1139.59 1543.48 1140.53 1620.34 1137.13 1628.83 C 1134.54 1622.1 1135.86 1540.65 1135.92 1527.87 L 1091.04 1499 C 1083.59 1494.2 1071 1486.45 1064.38 1481.03 C 1057.42 1461.9 1063.27 1448.28 1085.26 1447.91 C 1095.47 1420.05 1109.48 1406.98 1135.75 1393.88 C 1135.81 1340.87 1136.24 1286.91 1135.56 1233.98 C 1110.51 1233.88 1085.46 1233.93 1060.41 1234.14 L 990.272 1538.09 C 987.822 1548.62 971.89 1622.82 968.689 1627.75 L 967.129 1627.91 C 966.293 1625.15 966.63 1624.36 967.099 1621.57 C 964.968 1621.37 957.751 1627.18 950.403 1627.26 C 931.517 1627.46 912.657 1627.37 893.77 1627.35 L 778.43 1627.31 L 696.427 1627.33 C 678.459 1627.37 651.187 1632.07 640.438 1614.98 C 636.872 1609.27 635.858 1602.33 637.641 1595.83 C 639.532 1589.1 644.027 1583.4 650.131 1579.99 C 653.007 1578.4 655.718 1577.65 658.856 1576.77 C 659.25 1541.33 661.08 1504.44 662.41 1468.91 C 638.807 1463.08 638.437 1451.07 639.522 1430.04 C 640.687 1407.44 641.719 1384.62 642.594 1361.99 L 651.221 1160.09 L 647.483 1159.64 C 618.426 1221.5 589.699 1283.52 561.302 1345.68 L 537.483 1398.07 C 526.71 1421.9 521.256 1446.41 488.216 1437.13 C 491.98 1453.39 495.629 1469.69 499.163 1486 C 547.887 1503.02 566.831 1541.63 563.463 1591.07 C 562.915 1599.11 567.74 1602.54 564.007 1613.28 C 561.649 1619.94 556.656 1625.33 550.202 1628.19 C 538.894 1633.3 530.311 1629.37 519.485 1624.71 C 467.651 1602.41 415.819 1579.87 364.158 1557.18 L 316.351 1536.22 C 303.435 1530.64 279.329 1523.33 274.7 1509.68 C 268.179 1490.45 282.922 1474.46 302.271 1475.15 C 318.923 1443.69 334.219 1411.28 351.279 1379.98 C 338.01 1371.39 329.626 1360.36 336.446 1344.17 C 344.439 1325.2 353.826 1306.8 362.85 1288.28 L 414.476 1182.57 L 499.332 1006.53 C 522.074 959.258 550.438 912.45 554.727 859.525 C 556.908 832.617 567.048 805.328 582.455 783.125 C 590.81 771.175 600.881 760.522 612.343 751.509 C 583.078 715.084 576.906 667.661 599.342 625.488 C 611 603.574 627.183 584.25 641.031 563.703 C 653.669 545.999 668.372 523.256 682.103 507.114 C 689.43 498.518 697.561 490.64 706.384 483.587 C 734.153 461.543 773.754 448.486 809.18 452.694 C 811.981 453.024 814.775 453.41 817.56 453.852 L 824.035 435.842 C 819.954 422.997 825.581 398.487 831.872 386.675 C 826.959 374.409 827.634 361.057 830.396 348.331 z" fill="rgb(27,23,20)" transform="translate(0,0)"></path>
<path d="M 647.483 1159.64 C 648.003 1158.56 649.868 1153.52 651.178 1153.7 C 651.947 1154.77 651.316 1158.66 651.221 1160.09 L 647.483 1159.64 z" fill="rgb(247,241,234)" transform="translate(0,0)"></path>
<path d="M 614.68 754.687 C 620.808 758.969 631.799 771.472 640.744 777.35 C 676.898 801.106 719.935 818.778 760.253 833.795 C 762.982 829.239 765.04 824.727 767.333 819.95 C 786.635 827.92 807.705 834.241 823.537 847.558 C 834.004 856.362 841.756 874.157 841.953 887.283 C 842.389 916.462 841.997 946.632 841.844 975.888 L 840.587 1159.09 L 839.302 1349.97 C 839.139 1380.62 839.231 1411.25 839.056 1441.89 C 838.978 1455.55 827.148 1465.99 814.162 1465.77 C 762.869 1464.93 711.374 1466.35 660.155 1464.55 C 657.008 1464.44 650.387 1460.01 648.206 1457.73 C 645.74 1455.15 644.096 1451.9 643.482 1448.39 C 642.535 1443.25 643.664 1426.17 643.927 1420.18 L 646.049 1368.63 L 653.205 1205.31 C 653.573 1197.27 655.292 1145.88 657.016 1141.1 C 662.774 1125.15 678.911 1093.58 686.828 1076.99 L 758.396 927.733 C 762.017 920.204 778.219 888.492 778.567 881.941 C 773.969 883.994 768.904 896.654 766.588 901.701 C 754.662 928.011 740.634 955.463 728.068 981.689 L 638.601 1169.48 L 565.879 1326.5 C 551.776 1357.26 534.481 1398.02 518.05 1428.09 C 512.118 1437.44 493.971 1436.37 486.199 1432.01 C 463.256 1419.15 356.475 1383.16 343.535 1368.85 C 339.409 1364.31 337.41 1358.23 338.037 1352.12 C 339.009 1341.93 388.346 1244.92 396.321 1228.61 L 482.775 1049.88 C 502.093 1010.15 521.764 969.973 540.325 929.893 C 546.175 917.26 552.95 897.071 555.118 883.895 C 559.769 855.617 559.788 833.595 573.119 806.769 C 584.26 784.353 595.005 770.216 614.68 754.687 z" fill="rgb(247,170,129)" transform="translate(0,0)"></path>
<path d="M 860.91 741.544 C 887.683 728.132 904.806 711.056 920.764 686.122 C 945.276 713.842 951.921 739.982 993.484 756.889 C 1054.29 781.622 1100.34 759.635 1155.45 737.013 C 1154.62 753.242 1160.83 779.443 1162.18 797.963 C 1111.51 854.179 1024.22 985.626 1010.32 1058.66 C 1017.87 1058.91 1027.36 1058.45 1035.04 1058.28 C 1027.7 1074.83 1024.7 1092.99 1026.34 1111.02 C 1028.97 1139.91 1041.95 1162.19 1064.05 1180.48 C 1076.79 1186.72 1039.06 1183.52 1038.24 1183.31 C 1017.1 1186.5 1003.78 1207.27 1019.66 1225.27 C 1028.59 1235.39 1043.98 1234.21 1056.55 1234.03 L 997.672 1489.6 L 981.244 1560.19 C 979.456 1567.91 975.938 1586.25 973.539 1592.45 C 968.845 1585.14 966.805 1582.82 959.727 1578.3 C 944.365 1546.65 922.661 1523.02 890.954 1507.22 C 867.49 1495.52 850.751 1493.23 826.057 1501.09 C 824.563 1489.92 823.222 1479.72 821.021 1468.67 C 832.337 1464.32 842.294 1457.99 842.877 1444.44 C 843.49 1430.19 843.125 1415.7 843.103 1401.43 C 842.939 1371.65 842.988 1341.88 843.248 1312.1 L 846.141 898.163 C 851.826 909.144 863.526 919.158 872.948 908.061 C 883.626 895.483 886.93 904.694 895.765 894.917 C 899.996 890.233 906.637 888.99 911.957 887.243 C 931.002 880.99 932.129 869.253 931.253 851.445 C 933.81 801.87 901.28 765.221 860.91 741.544 z" fill="rgb(255,255,255)" transform="translate(0,0)"></path>
<path d="M 1064.05 1180.48 C 1076.79 1186.72 1039.06 1183.52 1038.24 1183.31 C 1041.16 1181.48 1056.78 1183.55 1064.05 1180.48 z" fill="rgb(247,241,234)" transform="translate(0,0)"></path>
<path d="M 785.716 456.384 C 788.941 455.872 789.67 455.601 792.968 456.208 L 793.775 458.006 C 791.587 469.683 791.473 479.351 794.745 490.962 C 799.906 508.627 811.898 523.506 828.064 532.301 C 856.923 548.234 892.668 542.172 913.479 516.463 C 918.432 510.345 921.23 505.003 924.933 498.001 C 953.584 517.651 975.119 550.874 996.364 578.701 L 1048.6 647.119 C 1058.81 643.945 1075.8 636.867 1086.12 632.921 L 1159.27 604.967 C 1167.4 626.01 1182.61 665.119 1192.26 684.494 C 1173.05 699.155 1163.7 709.779 1156.37 732.595 C 1147.56 736.953 1135.57 740.742 1126.3 744.642 C 1092.68 758.797 1060.29 768.784 1023.24 761.714 C 975.197 752.544 957.313 730.027 931.426 692.993 C 932.013 670.263 933.559 657.824 942.308 636.543 C 945.142 629.651 951.363 586.158 946.129 582.186 C 943.575 585.953 943.69 601.652 943.2 607.438 C 939.611 649.838 918.339 695.069 884.832 721.793 C 879.727 725.864 861.862 739.228 855.709 738.61 C 809.254 715.769 762.28 697.75 714.532 677.749 C 723.413 664.547 783.597 580.886 784.37 572.98 L 784.363 572.984 L 784.037 574.32 L 782.691 574.322 C 775.307 582.33 762.712 601.357 755.947 611.074 L 708.894 679.207 C 741.718 694.377 780.724 709.33 814.427 723.345 C 796.152 758.772 777.493 793.998 758.454 829.02 C 744.15 824.056 729.85 817.876 715.898 811.966 C 660.468 788.483 598.095 758.552 590.432 691.199 C 588.357 672.755 591.003 654.086 598.12 636.944 C 607.679 613.485 627.998 589.512 642.487 568.321 C 681.802 510.82 709.933 464.772 785.716 456.384 z" fill="rgb(231,89,42)" transform="translate(0,0)"></path>
<path d="M 1715.69 1011.42 C 1719.31 1011.09 1722.9 1011.11 1726.54 1011.1 C 1777.55 1010.62 1826.63 1030.54 1862.87 1066.43 C 1897.35 1100.77 1916.53 1147.56 1916.06 1196.23 C 1915.44 1244.6 1895.43 1290.7 1860.52 1324.19 C 1820.49 1363.04 1773.57 1377.9 1718.79 1377.04 C 1702.75 1376.48 1686.85 1373.81 1671.5 1369.1 C 1623.04 1354.58 1582.49 1321.13 1559.02 1276.33 C 1534.35 1229.01 1534.43 1180.34 1550.07 1130.47 C 1557.62 1133.1 1572.24 1142.77 1580.06 1136.92 C 1593.28 1127.04 1577.49 1100.87 1571.48 1090.4 C 1575.32 1085.35 1579.33 1080.41 1583.48 1075.6 C 1617.74 1035.87 1663.92 1015.29 1715.69 1011.42 z" fill="rgb(231,89,42)" transform="translate(0,0)"></path>
<path d="M 1718.07 1060.96 C 1791.73 1056.01 1855.5 1111.62 1860.61 1185.27 C 1865.73 1258.93 1810.25 1322.82 1736.61 1328.1 C 1662.74 1333.39 1598.6 1277.7 1593.48 1203.82 C 1588.35 1129.94 1644.17 1065.93 1718.07 1060.96 z" fill="rgb(27,23,20)" transform="translate(0,0)"></path>
<path d="M 1715.05 1065.01 C 1786.35 1058.38 1849.59 1110.62 1856.56 1181.88 C 1863.53 1253.14 1811.61 1316.64 1740.38 1323.96 C 1668.66 1331.33 1604.63 1278.96 1597.61 1207.21 C 1590.59 1135.45 1643.26 1071.68 1715.05 1065.01 z" fill="rgb(255,255,255)" transform="translate(0,0)"></path>
<path d="M 1724.63 1144.15 C 1752.12 1142.61 1775.6 1163.75 1776.96 1191.25 C 1778.31 1218.74 1757.03 1242.09 1729.52 1243.27 C 1702.26 1244.44 1679.17 1223.39 1677.83 1196.14 C 1676.48 1168.89 1697.39 1145.66 1724.63 1144.15 z" fill="rgb(27,23,20)" transform="translate(0,0)"></path>
<path d="M 1721.53 1148.19 C 1746.57 1144.97 1769.49 1162.61 1772.8 1187.63 C 1776.1 1212.66 1758.55 1235.64 1733.53 1239.03 C 1708.4 1242.45 1685.27 1224.78 1681.95 1199.63 C 1678.63 1174.49 1696.37 1151.42 1721.53 1148.19 z" fill="rgb(231,89,42)" transform="translate(0,0)"></path>
<path d="M 1494.85 1039.29 C 1508.04 1019.09 1521.56 1005.6 1543.08 994.016 C 1574.68 977.008 1609.26 980.421 1644.04 980.471 L 1743.53 980.597 L 1823.59 980.457 C 1839.29 980.424 1861.06 979.708 1876.17 981.777 C 1892.74 984.046 1908.59 989.977 1922.57 999.136 C 1940.53 1010.74 1953.72 1025.6 1963.56 1044.6 C 1977.44 1071.38 1974.95 1102.19 1974.95 1131.6 L 1974.92 1205.92 L 1975.24 1472.68 L 1511.63 1472.75 C 1516.1 1418.67 1520.88 1364.62 1525.97 1310.59 L 1531.08 1251.66 C 1531.83 1242.82 1532.61 1228.25 1533.91 1219.96 L 1533.85 1215.19 L 1536.24 1212.45 L 1536.81 1218.77 C 1547.3 1273.61 1570.21 1315.61 1617.69 1347.79 C 1661.54 1377.14 1715.29 1387.78 1767.01 1377.33 C 1817.13 1367.47 1861.22 1337.96 1889.43 1295.37 C 1916.56 1254.84 1926.24 1205.1 1916.31 1157.35 C 1905.99 1108.48 1876.55 1065.77 1834.54 1038.74 C 1789.81 1009.99 1735.4 1000.43 1683.54 1012.2 C 1633.4 1023.18 1600.4 1047.88 1569.01 1086.8 C 1566.61 1083.88 1563.57 1081.12 1563.47 1077.54 C 1565.4 1070.2 1575.78 1071.09 1568.43 1058.77 C 1561.44 1047.07 1543.66 1052.88 1532.62 1051.03 C 1519.63 1048.86 1507 1043.64 1494.85 1039.29 z" fill="rgb(252,235,225)" transform="translate(0,0)"></path>
<path d="M 1039.64 1058.46 L 1146.52 1058.25 C 1137.78 1092.89 1131.41 1096.69 1100.57 1111.4 L 1100.52 1112.75 L 1102.03 1113.82 C 1107.51 1113.46 1116.86 1109.05 1121.47 1105.94 C 1140.26 1093.28 1145.67 1079.02 1150.36 1058.36 C 1170.38 1058.28 1190.4 1058.39 1210.42 1058.68 C 1243.59 1102.94 1294.26 1102.24 1343.86 1103.72 L 1427.58 1105.81 C 1431.86 1108.67 1436.02 1111.69 1440.05 1114.88 C 1459.36 1130.4 1471.73 1152.94 1474.45 1177.57 C 1480.73 1235.38 1443.07 1272.13 1409.72 1313.06 L 1329.53 1411.57 C 1316.94 1427.12 1304.2 1442.55 1291.32 1457.86 C 1277.22 1446.86 1260.58 1436.42 1245.5 1426.5 L 1179.52 1382.97 C 1169.25 1376.15 1148.84 1363.35 1140.38 1355.95 C 1150.64 1341.38 1180.61 1309.23 1193.8 1294.27 L 1238.74 1243.54 C 1248.62 1232.44 1262.11 1214.82 1275.06 1207.65 C 1283.63 1202.89 1297.17 1199.35 1306.82 1197.38 C 1314.01 1195.91 1329.07 1198.89 1335.13 1195.46 L 1334.8 1193.65 C 1332.29 1192.53 1306.22 1192.88 1302.12 1192.88 L 1174.85 1192.94 C 1156.13 1192.96 1125.1 1193.97 1107.37 1192.43 C 1099.38 1191.78 1091.52 1190 1084.03 1187.13 C 1042.1 1170.69 1022.06 1120.35 1032.65 1078.15 C 1034.36 1071.33 1036.99 1064.95 1039.64 1058.46 z" fill="rgb(125,45,10)" transform="translate(0,0)"></path>
<path d="M 1243.54 755.235 C 1269.03 753.387 1313.8 768.915 1338.83 777.626 C 1359.39 852.554 1375.54 931.532 1395.63 1006.49 C 1375.61 1001.54 1355.75 996.101 1335.67 991.252 L 1323.11 939.42 C 1333.22 929.885 1338.38 916.028 1340.17 902.388 C 1341.04 895.729 1343.71 888.06 1336.4 885.053 C 1336.05 885.423 1335.69 885.793 1335.34 886.163 C 1336.2 893.556 1336.86 899.869 1335.59 907.085 C 1333.4 919.502 1329.35 926.359 1322.19 936.125 C 1318.56 922.239 1295.67 827.089 1290.46 823.805 C 1289.08 830.351 1305.53 887.936 1308.17 897.954 L 1332.76 993.902 C 1374.87 1006.3 1420.12 1015.84 1462.77 1027.44 C 1459.09 1052.49 1455.65 1077.59 1452.45 1102.71 L 1377.75 1100.83 C 1336.78 1099.13 1287.7 1103.01 1251.23 1086.32 C 1200.2 1062.97 1200.93 1028.78 1192.8 980.521 C 1188.61 956.541 1184.23 932.596 1179.64 908.688 C 1178.24 900.997 1175.42 882.46 1173.07 876.129 L 1171.72 875.73 L 1170.42 877.245 C 1170.86 881.966 1171.63 886.31 1172.49 890.958 C 1180.57 934.229 1188.28 977.562 1195.54 1020.98 C 1197.66 1033.66 1201.4 1043.43 1207.33 1054.71 C 1144.94 1056.01 1078.07 1054.75 1015.24 1054.79 C 1021.41 1008.12 1087.3 903.611 1115.62 864.136 C 1149.18 817.37 1183.28 765.983 1243.54 755.235 z" fill="rgb(252,235,225)" transform="translate(0,0)"></path>
<path d="M 1458.31 1103.42 C 1476.61 1105.81 1499.16 1122.26 1510.59 1136.04 C 1534.68 1165.11 1532.93 1196.51 1529.05 1231.66 C 1527.17 1248.77 1525.98 1266.87 1524.47 1284.16 L 1508.19 1465 L 1465.86 1465.13 C 1468.64 1445.51 1470.5 1425.36 1472.9 1405.63 C 1478.84 1358.36 1484.47 1311.06 1489.78 1263.72 C 1491.7 1247.34 1503.73 1162.78 1501.54 1153.79 L 1500.47 1153.83 C 1496.88 1159.26 1491.28 1220.05 1490.09 1230.11 C 1479.62 1306.41 1470.59 1388.3 1461.71 1465.12 C 1422.02 1465.35 1382.33 1465.16 1342.64 1464.55 C 1343.95 1443.19 1348.22 1413.54 1350.69 1391.71 C 1373.06 1363.13 1397.4 1334.95 1419.97 1306.43 C 1435.23 1285.97 1455.33 1267.3 1466 1243.81 C 1491.15 1188.41 1480.53 1144.07 1435.43 1105.89 C 1443.32 1106.23 1451.96 1107.71 1458.31 1103.42 z" fill="rgb(125,45,10)" transform="translate(0,0)"></path>
<path d="M 1511.11 1476.4 C 1555.71 1475.75 1601.48 1476.31 1646.18 1476.33 L 1975.58 1476.18 C 1975.2 1500.77 1970.26 1513.44 1952.71 1530.62 C 1926.19 1551.37 1906.64 1548.69 1874.69 1548.52 L 1821.42 1548.39 C 1752.78 1548.28 1681.96 1547.76 1613.39 1548.5 C 1601.01 1539.27 1508.38 1482.99 1507.82 1480.93 L 1511.11 1476.4 z" fill="rgb(252,235,225)" transform="translate(0,0)"></path>
<path d="M 1593.93 833.933 C 1683.61 832.987 1774.56 833.959 1864.36 833.91 C 1864.6 861.528 1864.64 889.147 1864.48 916.765 C 1856.52 917.422 1842.23 917.038 1833.88 917.039 L 1774.91 916.933 L 1593.96 916.888 L 1593.93 833.933 z" fill="rgb(231,89,42)" transform="translate(0,0)"></path>
<path d="M 1752.64 860.333 C 1764.02 859.895 1775.6 860.115 1787 860.137 C 1796.84 860.156 1808.46 858.599 1813.47 869.224 C 1815.46 873.396 1815.61 878.208 1813.89 882.496 C 1811.6 888.342 1807.57 890.677 1802.16 892.91 C 1791.14 893.092 1760.19 894.481 1751.05 891.768 C 1736.88 887.565 1735.82 868.098 1752.64 860.333 z" fill="rgb(27,23,20)" transform="translate(0,0)"></path>
<path d="M 1656.66 860.299 C 1664.03 860.055 1702.32 859.476 1707.13 861.477 C 1711.41 863.275 1714.79 866.719 1716.5 871.035 C 1718.13 875.257 1717.86 879.976 1715.76 883.985 C 1713.09 889.186 1709.46 891.085 1704.19 892.885 C 1693.21 892.982 1682.21 892.882 1671.23 892.851 C 1660.54 892.821 1648.78 894.64 1644.05 882.497 C 1642.45 878.315 1642.64 873.656 1644.57 869.615 C 1647.27 863.924 1651.05 862.25 1656.66 860.299 z" fill="rgb(27,23,20)" transform="translate(0,0)"></path>
<path d="M 929.002 373.204 C 940.901 366.264 950.175 360.605 959.869 350.418 C 965.45 360.722 969.031 367.931 976.85 376.799 C 980.015 379.725 981.583 380.25 982.809 383.987 L 982.458 385.756 C 981.81 393.886 980.27 402.009 979.397 410.083 C 974.479 455.585 922.83 469.062 884.447 456.532 L 883.676 457.958 C 887.144 463.869 903.85 473.172 910.357 477.206 L 905.102 486.658 C 911.241 489.796 916.128 492.651 922.037 496.229 C 915.71 508.163 910.745 516.227 899.592 524.541 C 885.758 535.001 868.218 539.283 851.12 536.373 C 833.812 533.482 818.336 523.896 808.039 509.687 C 796.025 492.839 794.566 475.51 797.746 455.751 C 806.721 455.795 811.516 456.621 820.318 458.288 L 826.248 441.165 C 832.66 447.034 837.496 450.383 846.564 451.147 C 854.174 451.762 861.704 449.238 867.407 444.161 C 872.427 439.651 875.285 433.213 875.262 426.465 C 875.21 416.935 871.092 411.976 865.037 405.72 C 857.617 408.458 852.433 412.784 845.687 406.549 C 844.513 400.647 852.47 401.583 853.769 396.815 C 849.231 395.825 835.417 403.948 830.124 406.342 L 829.402 404.799 C 834.767 366.961 874.166 385.873 898.902 382.172 C 909.762 380.548 918.642 376.111 929.002 373.204 z" fill="rgb(252,235,225)" transform="translate(0,0)"></path>
<path d="M 929.002 373.204 C 934.681 372.718 941.039 371.159 943.642 377.033 C 938.97 376.371 931.493 376.322 929.002 373.204 z" fill="rgb(27,23,20)" transform="translate(0,0)"></path>
<path d="M 963.484 391.486 C 973.521 392.264 975.172 396.259 969.275 404.931 C 968.488 404.852 967.701 404.787 966.912 404.737 C 958.967 404.291 961.391 396.521 963.484 391.486 z" fill="rgb(27,23,20)" transform="translate(0,0)"></path>
<path d="M 952.755 389.295 C 958.602 392.938 954.693 401.619 955.85 408.501 C 956.569 412.781 947.679 412.73 944.513 412.93 C 936.619 406.318 950.791 410.128 951.42 408.371 C 953.011 403.929 951.567 394.997 952.755 389.295 z" fill="rgb(27,23,20)" transform="translate(0,0)"></path>
<path d="M 930.859 384.539 C 940.743 386.159 939.751 390.952 935.019 398.574 C 925.422 396.917 926.297 392.145 930.859 384.539 z" fill="rgb(27,23,20)" transform="translate(0,0)"></path>
<path d="M 924.644 410.469 C 929.73 413.63 928.669 422.179 938.045 423.65 C 941.227 424.149 941.711 424.893 941.971 427.9 C 931.595 427.653 922.841 421.761 924.644 410.469 z" fill="rgb(27,23,20)" transform="translate(0,0)"></path>
<path d="M 978.135 384.081 C 977.958 384.03 965.902 380.69 966.502 381.103 C 961.697 377.79 974.122 379.355 974.251 379.366 L 975.151 380.093 C 976.565 381.209 977.289 382.514 978.135 384.081 z" fill="rgb(27,23,20)" transform="translate(0,0)"></path>
<path d="M 817.756 725.366 C 828.86 728.499 849.66 739.78 860.412 745.634 C 891.959 762.81 924.628 798.508 926.962 835.985 C 927.566 845.683 929.204 868.792 923.035 875.876 L 921.4 875.562 C 918.263 868.771 919.7 840.15 919.312 830.038 L 918.063 828.929 C 910.753 833.019 924.568 881.736 906.997 886.709 C 904.312 887.494 901.425 887.158 898.992 885.777 C 897.074 876.63 900.915 842.372 898.322 830.008 L 896.522 829.454 L 895.415 830.548 C 894.087 838.659 895.042 872.395 895.094 882.25 C 895.17 889.275 889.706 900.08 882.266 896.575 C 876.642 889.758 882.509 840.142 879.625 829.497 L 877.99 828.808 C 872.501 835.286 881.422 896.876 872.28 904.649 C 848.581 924.804 843.921 864.789 835.628 854.452 C 821.07 836.304 808.139 833.838 788.899 823.798 C 787.381 823.006 775.798 810.467 774.085 808.734 C 778.015 800.108 784.943 787.96 789.495 779.324 L 817.756 725.366 z" fill="rgb(252,235,225)" transform="translate(0,0)"></path>
<path d="M 1593.95 920.69 C 1682.27 919.24 1775.84 920.527 1864.52 920.588 L 1864.59 976.654 C 1836.62 977.801 1801.43 976.92 1773 976.914 L 1594.03 977.006 L 1593.95 920.69 z" fill="rgb(252,235,225)" transform="translate(0,0)"></path>
<path d="M 820.745 1580.49 C 865.758 1580.56 912.423 1580.04 957.29 1581.05 C 965.327 1585.78 971.182 1591.86 971.015 1601.76 C 970.863 1607.72 968.342 1613.36 964.011 1617.45 C 961.027 1620.28 956.771 1622.54 952.677 1622.91 C 935.597 1624.43 917.455 1623.82 900.31 1623.82 L 793.5 1623.77 L 704.206 1623.72 C 689.609 1623.73 659.176 1626.67 647.943 1618.19 C 635.312 1608.65 640.563 1583.23 657.585 1581.53 C 674.164 1579.88 692.305 1580.63 709.143 1580.61 L 820.745 1580.49 z" fill="rgb(252,235,225)" transform="translate(0,0)"></path>
<path d="M 1138.97 1396.95 C 1140.56 1398.19 1143.85 1405.61 1144.79 1407.88 C 1151.5 1424.02 1167.17 1438.37 1183.34 1445.3 C 1211.48 1457.35 1234.44 1452.61 1261.56 1441.98 L 1271.46 1448.36 C 1273.9 1455.32 1276.77 1462.31 1279.5 1469.18 C 1275.33 1469.06 1271.16 1469.02 1266.99 1469.05 C 1259.89 1469.17 1239.39 1470.84 1234.49 1475.84 L 1234.96 1477.11 C 1240.44 1477.31 1249.41 1474.83 1255.31 1473.83 C 1265.04 1472.19 1270.99 1472.06 1280.76 1472.54 C 1282.38 1477.27 1285.06 1482.53 1287.21 1487.11 C 1279.06 1487.18 1244.65 1488.26 1241.3 1495.7 C 1245.48 1497.48 1261.54 1492.27 1268.04 1491.65 C 1275.62 1490.94 1280.54 1490.84 1288.12 1490.85 L 1295.22 1506.47 C 1280.05 1506.12 1272.35 1506.3 1257.61 1509.57 C 1254.15 1510.58 1249.1 1511.79 1247.4 1514.82 C 1249.79 1516.71 1253.76 1514.64 1256.94 1513.63 C 1269.65 1509.62 1283.48 1509.84 1296.7 1510.15 L 1306.75 1533.03 C 1303.91 1532.34 1301.06 1531.76 1298.19 1531.26 C 1274.04 1527.05 1259.3 1531.84 1239.78 1545.53 C 1190.96 1514.25 1138.34 1478.75 1089.06 1449.17 C 1097.44 1423.33 1113.99 1407.37 1138.97 1396.95 z" fill="rgb(252,235,225)" transform="translate(0,0)"></path>
<path d="M 1496.18 1479.13 L 1522.64 1495.67 C 1515.62 1499.76 1491.34 1515.5 1490.27 1523.45 L 1491.44 1524.57 C 1495.34 1523.06 1506.73 1510.96 1511.74 1507.3 C 1517.99 1502.73 1519.18 1501.89 1526.5 1498.46 C 1531.08 1501.41 1535.74 1504.24 1540.47 1506.94 C 1530.49 1512.54 1509.49 1526.46 1505.15 1537.13 L 1506.69 1538.29 C 1521.28 1528.35 1521.56 1520.15 1544.44 1509.3 L 1558.63 1518.07 C 1547.9 1523.64 1523.92 1538.77 1520.95 1551.18 C 1523.87 1551.07 1527.24 1546.8 1529.68 1544.27 C 1540.7 1532.83 1548.53 1527.02 1562.82 1520.28 C 1569.61 1524.15 1576.81 1528.8 1583.5 1532.93 C 1578.49 1534.67 1572.6 1537.21 1567.61 1539.23 C 1564.82 1540.6 1562.14 1542.18 1559.59 1543.96 C 1546.41 1552.95 1538.44 1563.83 1535.5 1579.5 C 1478.73 1579.72 1412.82 1577.92 1356.59 1579.97 C 1349.1 1548.9 1355.14 1535.49 1366.97 1506.94 C 1391.34 1525.1 1418.48 1531.8 1447.23 1519.96 C 1467.97 1511.42 1481.32 1495.05 1496.18 1479.13 z" fill="rgb(252,235,225)" transform="translate(0,0)"></path>
<path d="M 293.085 1479.08 C 305.578 1477.84 329.723 1491.05 342.141 1496.51 L 419.129 1530.32 L 504.639 1567.39 C 519.704 1573.91 534.706 1580.26 549.565 1587.26 C 569.472 1596.63 563.887 1618.45 545.475 1626.1 C 530.845 1628.43 500.092 1612.24 485.612 1605.93 L 404.481 1570.52 L 330.63 1538.35 C 317.231 1532.55 301.126 1526.5 288.614 1519.49 C 269.9 1509 275.241 1487.67 293.085 1479.08 z" fill="rgb(252,235,225)" transform="translate(0,0)"></path>
<path d="M 1438.52 629.977 C 1444.63 642.488 1439.97 669.579 1435.83 682.31 C 1432.06 694.353 1431.64 711.384 1423.39 721.355 C 1404.46 744.236 1367.66 746.316 1343.09 731.874 C 1339.27 729.627 1332.73 723.609 1328.93 720.628 C 1334 730.938 1344.69 746.896 1352.05 755.766 C 1348.16 761.95 1345.12 767.342 1341.64 773.773 L 1319.97 767.693 C 1305.21 763.568 1290.56 759.08 1276.02 754.232 C 1279.49 746.21 1287.76 731.712 1292.25 723.562 C 1301.69 706.67 1310.94 689.67 1319.99 672.566 C 1338.38 675.42 1346.97 672.716 1358.52 658.038 C 1392.89 657.639 1412.07 652.395 1438.52 629.977 z" fill="rgb(252,235,225)" transform="translate(0,0)"></path>
<path d="M 1405.15 685.501 C 1409.9 688.71 1407.14 692.372 1407.61 697.512 C 1408.26 704.758 1404.42 705.534 1398.67 707.31 C 1390.02 697.152 1404.64 706.104 1403.46 695.899 C 1403.11 692.823 1404.02 688.448 1405.15 685.501 z" fill="rgb(27,23,20)" transform="translate(0,0)"></path>
<path d="M 1388.73 676.414 C 1396.93 678.935 1394.81 684.059 1390.57 689.457 C 1383.2 685.547 1383.8 683.242 1388.73 676.414 z" fill="rgb(27,23,20)" transform="translate(0,0)"></path>
<path d="M 1417.68 687.48 C 1425.97 689.466 1424.78 693.43 1420.81 699.442 C 1413.32 697.021 1414.11 694.063 1417.68 687.48 z" fill="rgb(27,23,20)" transform="translate(0,0)"></path>
<path d="M 1380.06 702.674 C 1384.07 704.138 1382.73 705.598 1385.2 709.221 C 1388.59 714.21 1391.18 710.359 1394.43 715.023 C 1386.77 716.624 1380.84 712.163 1380.23 704.335 L 1380.06 702.674 z" fill="rgb(27,23,20)" transform="translate(0,0)"></path>
<path d="M 1387.8 666.35 C 1393.35 665.898 1398.13 664.821 1399.56 671.204 C 1397.27 670.555 1388.51 668.878 1388.09 667.289 L 1387.8 666.35 z" fill="rgb(27,23,20)" transform="translate(0,0)"></path>
<path d="M 1418.83 676.366 C 1422.43 675.761 1428.98 674.97 1430 679.98 L 1430.28 681.188 C 1428.29 680.739 1419.89 677.843 1418.83 676.366 z" fill="rgb(27,23,20)" transform="translate(0,0)"></path>
<path d="M 1356.44 1583.38 L 1525.64 1583.34 C 1560.24 1583.28 1597.85 1582 1632.07 1584.49 C 1641.27 1585.16 1652.87 1608.4 1629.57 1618.3 C 1616.76 1619.48 1589.92 1618.73 1576.56 1618.73 L 1476.32 1618.67 C 1436.44 1618.63 1394.81 1619.85 1355.24 1617.53 C 1345.58 1616.96 1333.47 1593.66 1356.44 1583.38 z" fill="rgb(252,235,225)" transform="translate(0,0)"></path>
<path d="M 1077.13 1452.13 C 1082.91 1451.9 1084.58 1451.68 1089.6 1454.43 C 1100.58 1460.45 1111.1 1467.44 1121.64 1474.19 L 1193.87 1520.76 L 1276.51 1573.51 C 1285.93 1579.52 1322.53 1600.81 1326.34 1608.71 C 1328.09 1612.26 1328.27 1616.38 1326.83 1620.06 C 1324.49 1626.16 1320.97 1628.53 1315.42 1631.22 C 1313.17 1631.47 1310.63 1631.85 1308.39 1631.43 C 1300.34 1629.94 1098.37 1500.24 1077.81 1485.77 C 1074.1 1483.17 1069.52 1480.12 1067.2 1476.17 C 1065.01 1472.42 1064.3 1468 1065.72 1463.84 C 1067.77 1457.83 1071.74 1455.01 1077.13 1452.13 z" fill="rgb(252,235,225)" transform="translate(0,0)"></path>
<path d="M 845.931 1500.38 C 854.042 1499.77 864.818 1501.08 872.458 1503.79 C 910.909 1517.43 936.788 1542.08 955.106 1577.35 C 934.313 1576.6 910.725 1577.06 889.719 1577.04 L 780.803 1577.01 C 782.451 1537.73 805.813 1505.88 845.931 1500.38 z" fill="rgb(252,235,225)" transform="translate(0,0)"></path>
<path d="M 1312.36 570.585 C 1317.54 570.102 1323.99 568.841 1329.1 569.855 C 1331.95 570.421 1335.07 572.119 1336.42 574.829 C 1337.46 576.932 1337.23 579.141 1336.1 581.153 C 1330.71 590.811 1272.03 605.222 1258.71 610.005 C 1269.47 611.663 1281.54 610.985 1291.8 614.235 C 1300.74 617.544 1300.31 629.628 1292 633.719 C 1283.47 637.917 1274.39 640.836 1265.44 644.065 C 1248.78 649.91 1232.21 656.029 1215.75 662.42 C 1207.48 665.689 1199.16 668.832 1190.79 671.848 C 1182.83 654.294 1171.41 625.861 1164.68 607.927 C 1195.43 597.375 1229.87 581.004 1261 574.344 C 1270.97 572.209 1300.55 571.214 1312.36 570.585 z" fill="rgb(252,235,225)" transform="translate(0,0)"></path>
<path d="M 1036.29 1187.47 C 1042.67 1187.34 1069.64 1186.19 1074.37 1187.98 C 1106.46 1200.12 1136.67 1196.63 1171.13 1196.57 L 1274.19 1196.61 C 1266.71 1206.57 1257.26 1216.89 1248.94 1226.34 L 1246.02 1229.19 C 1237.9 1231.17 1164.46 1230.1 1151.11 1230.1 L 1077.15 1230.29 C 1065.73 1230.33 1036.27 1232.17 1027.49 1226.96 C 1022.29 1223.88 1018.61 1218.75 1017.36 1212.83 C 1016.21 1207.58 1017.24 1202.08 1020.21 1197.59 C 1024.33 1191.31 1029.23 1188.93 1036.29 1187.47 z" fill="rgb(231,89,42)" transform="translate(0,0)"></path>
<path d="M 349.906 1390.21 C 360.067 1391.52 370.54 1390.72 379.866 1392.5 C 388.307 1394.11 400.494 1400.2 408.697 1403.33 C 442.986 1416.45 457.806 1424.64 486.412 1447.04 C 489.464 1459.76 492.412 1472.51 495.257 1485.28 C 481.317 1484.31 473.439 1484.79 460.011 1487.85 C 441.615 1493.77 431.426 1499.89 417.844 1513.48 C 416.004 1459.71 387.766 1430.73 339.074 1412.18 C 342.445 1404.95 346.352 1397.4 349.906 1390.21 z" fill="rgb(252,235,225)" transform="translate(0,0)"></path>
<path d="M 482.274 1488.47 C 534.718 1489.71 563.821 1538.74 559.27 1587.52 C 551.218 1582.59 523.359 1571.36 513.112 1566.99 L 414.653 1524.03 C 416.723 1520.87 419.036 1517.88 421.57 1515.07 C 437.361 1497.93 459.406 1489.73 482.274 1488.47 z" fill="rgb(252,235,225)" transform="translate(0,0)"></path>
<path d="M 692.023 1469.21 C 710.998 1468.75 731.335 1469.74 750.056 1469 C 779.963 1467.84 790.769 1469.15 818.932 1478.44 C 820.359 1486.09 821.478 1494.92 822.654 1502.7 C 801.858 1513.87 792.354 1525.47 782.741 1546.74 C 780.982 1551.36 779.51 1556.79 778.077 1561.57 C 771.522 1549.65 762.932 1538.97 752.696 1530 C 726.461 1507.35 698.789 1500.72 665.011 1503.21 L 666.009 1476.98 L 692.023 1469.21 z" fill="rgb(252,235,225)" transform="translate(0,0)"></path>
<path d="M 1465.77 1033.66 C 1486.28 1040.2 1506.24 1048.16 1526.96 1054.1 C 1539.11 1057.57 1560.84 1049.97 1566.93 1063.17 C 1567.09 1071.03 1560.59 1073.48 1554.33 1075.74 C 1565.78 1086.44 1583.68 1112.77 1581.17 1129.23 C 1578.02 1132.6 1574.07 1136.14 1569.04 1134.17 C 1536.33 1121.34 1502.24 1105.61 1467.59 1099.64 C 1456.89 1072.09 1461.42 1062.26 1465.77 1033.66 z" fill="rgb(252,235,225)" transform="translate(0,0)"></path>
<path d="M 667.436 1506.31 C 705.017 1504.16 738.936 1516.78 763.415 1546.6 C 768.746 1553.1 781.014 1568.22 775.936 1576.63 L 773.25 1576.93 L 662.705 1577.01 C 662.72 1556.07 663.512 1532.05 664.748 1510.97 C 664.941 1507.67 665.445 1507.67 667.436 1506.31 z" fill="rgb(252,235,225)" transform="translate(0,0)"></path>
<path d="M 337.13 1415.75 C 387.962 1432.29 417.332 1469.37 412.681 1523.43 L 390.248 1513.35 L 305.399 1476.47 C 316.134 1457.53 326.862 1435.32 337.13 1415.75 z" fill="rgb(252,235,225)" transform="translate(0,0)"></path>
<path d="M 1139.49 1233.97 L 1203.24 1233.89 C 1210.8 1233.89 1229.58 1233.45 1235.92 1234.66 C 1235.99 1234.97 1236.11 1235.28 1236.14 1235.59 C 1236.81 1243.99 1192.12 1290.55 1184.38 1299.36 C 1169.34 1316.25 1154.44 1333.26 1139.7 1350.41 C 1139.39 1311.6 1139.32 1272.78 1139.49 1233.97 z" fill="rgb(255,255,255)" transform="translate(0,0)"></path>
<path d="M 1401.38 1469.12 C 1415.1 1468.74 1495.36 1467.46 1502.86 1469.95 C 1505.85 1470.94 1507.08 1472.25 1508.37 1475.05 C 1506.94 1477.51 1507.81 1476.39 1504.79 1477.92 C 1499.78 1477.52 1500.11 1476.79 1495.65 1473.8 C 1483.72 1484.89 1477.89 1494.65 1463.66 1506.2 C 1432.15 1529.36 1397.62 1526.32 1367.73 1502.41 C 1368.43 1494.44 1369.19 1486.47 1370 1478.51 C 1378.85 1475.34 1392.08 1471.87 1401.38 1469.12 z" fill="rgb(252,235,225)" transform="translate(0,0)"></path>
<path d="M 1153.13 1372.46 C 1162.84 1374.82 1244.57 1430.62 1257.48 1439.38 C 1252.16 1441.67 1247.69 1443.19 1242.22 1445.04 C 1196.39 1457.06 1160.21 1438.2 1143.09 1394.43 C 1147.33 1386.53 1149.76 1380.67 1153.13 1372.46 z" fill="rgb(252,235,225)" transform="translate(0,0)"></path>
<path d="M 1837.04 1582.2 C 1858.7 1581.71 1880.21 1582.28 1902.16 1581.96 C 1918.46 1581.72 1929.14 1584.1 1927.18 1604.5 C 1926.44 1612.21 1921.52 1616.09 1914.48 1618.76 C 1899.29 1618.97 1847.37 1620.21 1832.77 1616.78 C 1822.74 1614.43 1816.75 1590.46 1837.04 1582.2 z" fill="rgb(252,235,225)" transform="translate(0,0)"></path>
<path d="M 1274.08 1534.2 C 1288.66 1532.76 1295.17 1533.92 1308.96 1537.77 C 1319.31 1560.99 1328.15 1570.75 1322.24 1598.37 C 1316.32 1594.47 1310.25 1590.77 1304.41 1586.84 C 1285.87 1575.11 1260.97 1559.9 1243.43 1547.52 C 1255.58 1539.44 1259.61 1537.08 1274.08 1534.2 z" fill="rgb(252,235,225)" transform="translate(0,0)"></path>
<path d="M 1587.05 1536.16 C 1590.6 1536.72 1596.25 1541.14 1599.39 1543.21 C 1614.39 1553.12 1622.16 1562.82 1628.32 1579.67 L 1581.5 1579.58 L 1538.73 1579.76 C 1547.61 1553.46 1560.59 1543.55 1587.05 1536.16 z" fill="rgb(252,235,225)" transform="translate(0,0)"></path>
<path d="M 1844.27 1552.3 C 1866.52 1552.11 1888.85 1552.42 1911.08 1552.11 L 1911.1 1578.21 L 1844.19 1578.15 C 1844.15 1569.53 1844.18 1560.91 1844.27 1552.3 z" fill="rgb(252,235,225)" transform="translate(0,0)"></path>
<path d="M 838.182 405.627 C 843.183 407.418 836.585 410.7 846.531 413.933 C 857.634 417.542 862.152 406.638 866.995 413.53 C 875.131 425.108 870.932 436.556 860.332 444.437 C 832.694 457.278 810.54 424.201 838.182 405.627 z" fill="rgb(231,89,42)" transform="translate(0,0)"></path>
<path d="M 1475.56 1104.65 C 1498.63 1109.98 1524.52 1120.52 1546.84 1129.13 C 1541.76 1144.18 1536.49 1162.7 1536 1178.6 L 1533.75 1179.18 C 1533.55 1176.65 1533.37 1175.02 1532.65 1172.58 C 1521.51 1134.54 1507.05 1123.14 1475.56 1104.65 z" fill="rgb(252,235,225)" transform="translate(0,0)"></path>
<path d="M 1139.68 1360.59 C 1142.88 1362.32 1147.82 1366.05 1151.05 1368.25 C 1148.78 1373.26 1146.76 1378.25 1144.54 1383.25 C 1143.95 1384.57 1141.73 1390.4 1140.49 1390.79 C 1138.6 1390.33 1139.49 1363.86 1139.68 1360.59 z" fill="rgb(247,241,234)" transform="translate(0,0)"></path>
<path d="M 1216.37 666.02 C 1216.68 666.133 1217 666.246 1217.31 666.359 L 1217.34 666.482 C 1216.17 668.219 1198.76 679.632 1195.49 681.898 C 1190.63 674.845 1193.12 675.261 1199.94 672.453 C 1205.36 670.219 1210.99 668.341 1216.37 666.02 z" fill="rgb(247,241,234)" transform="translate(0,0)"></path>
<path d="M 1533.85 1215.19 C 1533.9 1214.1 1534.1 1205.69 1535.21 1205.74 C 1536.24 1206.59 1536.18 1211.1 1536.24 1212.45 L 1533.85 1215.19 z" fill="rgb(108,101,96)" transform="translate(0,0)"></path>
<path d="M 1536 1178.6 C 1535.99 1179.72 1536.12 1183.25 1535.44 1184.09 C 1534.54 1183.34 1534.1 1180.79 1533.86 1179.65 L 1533.75 1179.18 L 1536 1178.6 z" fill="rgb(150,144,137)" transform="translate(0,0)"></path>
<path d="M 1467.06 205.075 C 1500.11 195.551 1521.51 183.187 1535.34 149.838 C 1537.41 144.858 1538.89 126.95 1542.48 124.958 C 1545.34 129.583 1547.09 144.033 1550.65 152.094 C 1562.13 178.065 1577.44 189.89 1602.73 200.371 L 1602.93 201.872 C 1602.09 206.753 1602.37 207.145 1604.02 211.763 C 1607.14 214.25 1613.57 209.417 1614.53 205.794 L 1613.88 202.524 C 1616.44 198.749 1626.32 193.663 1630.77 191.277 C 1662.48 173.9 1696.67 161.486 1732.15 154.467 C 1812.86 138.854 1896.46 155.729 1964.79 201.423 C 2025.82 243 2067.57 302.104 2081.46 375.137 C 2093.6 440.412 2079.49 507.841 2042.2 562.773 C 1998.86 626.228 1931.72 669.482 1856.03 682.715 C 1779.46 696.749 1698.68 681.47 1634.42 636.927 C 1617.37 625.308 1601.85 611.585 1588.24 596.081 C 1601.94 583.284 1615.89 570.748 1630.07 558.482 C 1722.62 648.709 1871.44 653.824 1963.26 559.557 C 2000.99 521.544 2022.01 470.053 2021.64 416.495 C 2020.86 361.892 1998.66 312.842 1959.33 275.172 C 1912.27 230.795 1849.51 206.926 1784.85 208.812 C 1728.39 210.266 1660.3 234.982 1620.96 276.317 C 1605.74 262.239 1588.56 247.004 1574.38 232.098 C 1578.66 228.071 1582.76 224.042 1587.42 220.458 L 1584.65 219.072 C 1567.41 229.789 1554.82 245.129 1548.46 264.661 C 1546.33 271.196 1546.39 277.134 1543.31 283.744 L 1541.9 283.979 C 1537.33 275.898 1538.5 261.686 1529.36 247.361 C 1512.47 220.908 1496.08 212.598 1467.06 205.075 z" fill="rgb(231,89,42)" transform="translate(0,0)"></path>
<path d="M 1467.06 205.075 C 1500.11 195.551 1521.51 183.187 1535.34 149.838 C 1537.41 144.858 1538.89 126.95 1542.48 124.958 C 1545.34 129.583 1547.09 144.033 1550.65 152.094 C 1562.13 178.065 1577.44 189.89 1602.73 200.371 L 1602.93 201.872 C 1602.09 206.753 1602.37 207.145 1604.02 211.763 C 1599.69 216.185 1584.51 227.954 1579.05 232.392 C 1593.17 245.195 1607.16 258.138 1621.02 271.217 C 1659.23 232.308 1721.72 209.164 1775.5 205.683 C 1841.1 201.086 1905.82 222.826 1955.35 266.09 C 1997.66 303.679 2021.69 350.971 2025.14 407.75 C 2032.66 529.842 1927.44 627.122 1809.76 631.745 C 1738.87 634.529 1681.9 611.115 1629.83 563.739 C 1617.87 574.672 1605.74 585.417 1593.45 595.971 C 1629.31 636.277 1681.49 664.115 1733.73 676.322 C 1809.79 694.062 1889.79 681.076 1956.34 640.185 C 2015.25 603.432 2059.92 544.865 2075.56 476.811 C 2090.43 411.405 2078.55 342.769 2042.58 286.158 C 1982.72 191.077 1865.89 141.4 1755.62 154.733 C 1703.57 161.026 1658.7 178.023 1614.53 205.794 L 1613.88 202.524 C 1616.44 198.749 1626.32 193.663 1630.77 191.277 C 1662.48 173.9 1696.67 161.486 1732.15 154.467 C 1812.86 138.854 1896.46 155.729 1964.79 201.423 C 2025.82 243 2067.57 302.104 2081.46 375.137 C 2093.6 440.412 2079.49 507.841 2042.2 562.773 C 1998.86 626.228 1931.72 669.482 1856.03 682.715 C 1779.46 696.749 1698.68 681.47 1634.42 636.927 C 1617.37 625.308 1601.85 611.585 1588.24 596.081 C 1601.94 583.284 1615.89 570.748 1630.07 558.482 C 1722.62 648.709 1871.44 653.824 1963.26 559.557 C 2000.99 521.544 2022.01 470.053 2021.64 416.495 C 2020.86 361.892 1998.66 312.842 1959.33 275.172 C 1912.27 230.795 1849.51 206.926 1784.85 208.812 C 1728.39 210.266 1660.3 234.982 1620.96 276.317 C 1605.74 262.239 1588.56 247.004 1574.38 232.098 C 1578.66 228.071 1582.76 224.042 1587.42 220.458 L 1584.65 219.072 C 1567.41 229.789 1554.82 245.129 1548.46 264.661 C 1546.33 271.196 1546.39 277.134 1543.31 283.744 L 1541.9 283.979 C 1537.33 275.898 1538.5 261.686 1529.36 247.361 C 1512.47 220.908 1496.08 212.598 1467.06 205.075 z" fill="rgb(27,23,20)" transform="translate(0,0)"></path>
<path d="M 1542.06 138.612 C 1548.87 163.691 1562.38 182.888 1584.86 196.88 C 1589.64 199.86 1597.33 203.32 1602.93 201.872 C 1602.09 206.753 1602.37 207.145 1604.02 211.763 C 1575.38 203.95 1549.2 247.195 1542.84 270.672 C 1532.27 236.761 1515.95 217.249 1482.01 204.912 C 1515.09 191.367 1533.4 173.866 1542.06 138.612 z" fill="rgb(252,235,225)" transform="translate(0,0)"></path>
<path d="M 1584.65 219.072 C 1590 215.548 1595.71 214.267 1587.42 220.458 L 1584.65 219.072 z" fill="rgb(247,241,234)" transform="translate(0,0)"></path>
<path d="M 1711.39 180.037 C 1714.87 180.884 1714.92 183.907 1711.55 184.848 C 1693.51 189.884 1676.25 196.73 1659.48 205.039 C 1658.67 205.018 1654.16 204.075 1656.25 202.666 C 1671.97 192.026 1693.16 185.592 1711.39 180.037 z" fill="rgb(252,235,225)" transform="translate(0,0)"></path>
<path d="M 1786.61 310.436 C 1795.43 309.914 1811 310.938 1819.82 311.949 C 1893.66 321.107 1960.82 359.284 2006.46 418.048 C 2000.59 424.745 1994.6 431.333 1988.5 437.81 C 1938.8 491.197 1869.7 522.321 1796.79 524.159 C 1789.24 524.599 1779.02 524.266 1771.34 523.54 C 1686.6 515.517 1628.4 481.92 1574.37 418.463 C 1578.79 412.913 1583.41 407.526 1588.23 402.312 C 1641.97 343.413 1707.45 313.963 1786.61 310.436 z" fill="rgb(27,23,20)" transform="translate(0,0)"></path>
<path d="M 1779.58 314.427 C 1786.91 313.699 1801.52 314.105 1809.07 314.797 C 1890 322.222 1949.6 357.433 2001.69 417.538 C 1999.2 420.463 1996.68 423.355 1994.11 426.212 C 1943.8 482.067 1880.1 516.255 1804.25 520.098 C 1728.86 525.055 1650.62 493.125 1598.63 439.435 C 1592 432.597 1585.65 425.615 1579.3 418.526 C 1582.38 414.762 1585.53 411.047 1588.73 407.384 C 1637.07 351.742 1705.97 318.18 1779.58 314.427 z" fill="rgb(231,89,42)" transform="translate(0,0)"></path>
<path d="M 1776.76 326.669 C 1826.76 319.643 1872.97 354.489 1879.97 404.484 C 1886.97 454.48 1852.1 500.679 1802.1 507.653 C 1752.14 514.623 1705.98 479.785 1698.99 429.825 C 1691.99 379.866 1726.81 333.69 1776.76 326.669 z" fill="rgb(27,23,20)" transform="translate(0,0)"></path>
<path d="M 1780.3 354.36 C 1794.23 350.783 1808.44 359.143 1812.09 373.064 C 1815.73 386.986 1807.45 401.236 1793.54 404.95 C 1779.54 408.689 1765.17 400.329 1761.5 386.311 C 1757.83 372.292 1766.26 357.962 1780.3 354.36 z" fill="rgb(255,255,255)" transform="translate(0,0)"></path>
<path d="M 1440.85 325.28 C 1465.08 322.642 1484.41 331.871 1496.44 353.13 C 1498.1 352.661 1499.77 352.216 1501.44 351.794 C 1516.09 348.087 1530.63 349.629 1543.66 357.625 C 1554.91 364.375 1562.99 375.346 1566.09 388.09 C 1569.42 402.355 1566.2 414.182 1558.59 426.252 C 1565.71 437.772 1569.62 448.652 1567.61 462.517 C 1565.59 475.684 1558.42 487.507 1547.68 495.385 C 1527.18 510.507 1508.77 505.582 1488.11 497.196 C 1486.85 496.686 1484.79 499.347 1483.71 500.39 C 1473.41 508.784 1464.46 514.266 1450.75 515.283 C 1437.04 516.345 1423.48 511.748 1413.24 502.559 C 1401.94 492.453 1397.58 481.005 1396.73 466.24 C 1385.79 464.613 1377.79 462.288 1368.76 455.535 C 1358.09 447.58 1351.08 435.655 1349.32 422.461 C 1347.53 408.834 1351.33 395.062 1359.85 384.277 C 1370.59 370.669 1383.25 366.193 1399.79 364.298 C 1404.91 342.424 1419.55 330.2 1440.85 325.28 z" fill="rgb(27,23,20)" transform="translate(0,0)"></path>
<path d="M 1439.75 329.194 C 1465.21 326.254 1482.95 335.104 1494.55 357.952 C 1497.65 356.884 1501.41 355.569 1504.56 354.826 C 1517.22 351.948 1530.51 354.106 1541.61 360.842 C 1566.33 376.047 1569.05 402.945 1553.75 426.25 C 1558.6 432.904 1561.68 438.758 1563.33 446.946 C 1565.76 458.649 1563.31 470.835 1556.55 480.691 C 1549.31 491.254 1538.09 498.415 1525.46 500.523 C 1510.4 503.134 1499.18 498.818 1487.15 490.408 C 1481.99 497.26 1478.44 500.326 1471.49 505.079 C 1464.44 509.1 1456.52 511.337 1448.41 511.595 C 1435.51 511.839 1423.06 506.902 1413.83 497.889 C 1403.76 487.922 1400.59 476.696 1400.5 462.952 C 1388.8 461.392 1380.58 459.722 1370.92 452.3 C 1361.11 444.768 1354.69 433.648 1353.08 421.386 C 1351.48 408.866 1354.99 396.228 1362.82 386.327 C 1370.62 376.541 1385.05 368.453 1397.67 368.281 C 1404.91 368.182 1413.58 370.376 1421.23 369.543 L 1420.99 368.501 C 1415.66 365.282 1410.03 364.959 1403.84 364.049 C 1409.32 344.837 1420.9 334.578 1439.75 329.194 z" fill="rgb(252,235,225)" transform="translate(0,0)"></path>
<path d="M 1418.44 418.479 C 1419.22 419.058 1420.12 419.57 1420.6 420.384 C 1421.13 421.275 1420.06 422.498 1419.47 423.213 C 1416.39 426.928 1415.49 431.4 1414.32 436.023 C 1407.13 434.411 1416.1 421.485 1418.44 418.479 z" fill="rgb(27,23,20)" transform="translate(0,0)"></path>
<path d="M 1430.07 425.518 C 1435.31 427.805 1429.42 435.445 1427.36 441.678 C 1421.41 439.071 1427.63 429.064 1430.07 425.518 z" fill="rgb(27,23,20)" transform="translate(0,0)"></path>
<metadata><recraft-signature>{"signed_by": "recraft", "signature_b64": "iMl8H/0sG4ki02GjDLerdfM968DawEMg8DqvAqgnfx4ut9fj5/D7bfcsgc4lMd52icv8L28rGRZrmZdVo63BDA==", "signing_algo": "Ed25519", "generation_timestamp": 1783393816, "identifier": "4a0c96c8-c879-4aac-b618-36547b854e27"}</recraft-signature></metadata></svg>