<svg xmlns="http://www.w3.org/2000/svg" height="1792" preserveAspectRatio="none" style="display: block;" version="1.1" viewBox="0 0 2432 1792" width="2432">
<path d="M 0 0 L 2432 0 L 2432 1792 L 0 1792 L 0 0 z" fill="rgb(255,255,255)" transform="translate(0,0)"></path>
<path d="M 1583.4 940.425 C 1565.08 960.785 1545.7 973.545 1517.71 974.193 C 1484.73 974.956 1450.74 974.585 1417.74 974.548 L 1234.76 974.459 L 1126.67 974.409 C 1110.46 974.458 1075.98 975.407 1061.81 973.266 C 1045.61 970.698 1030.47 963.55 1018.19 952.664 C 983.431 921.248 991.345 874.983 991.442 832.4 L 991.505 722.831 L 991.597 388.202 L 991.507 219.912 C 991.459 196.71 991.664 173.084 991.545 149.921 C 991.289 100.076 1029.25 63.0322 1078.96 63.2014 C 1112.24 63.3147 1146.52 63.2296 1180.15 63.2388 L 1379.46 63.2158 L 1475.13 63.1763 C 1511.99 63.1707 1543.52 58.9492 1572.22 87.0984 C 1590.95 105.472 1598.45 126.356 1598.07 152.586 C 1598.16 213.548 1598.04 274.507 1598.03 335.446 L 1597.96 711.172 C 1641.12 726.895 1688.09 741.531 1731.85 756.147 C 1737.76 737.505 1745.71 718.897 1752.69 700.778 C 1773.29 647.306 1797.49 596.461 1827.69 547.699 C 1832.23 540.369 1835.64 529.734 1839.53 521.72 L 1734.57 534.384 C 1720.44 536.039 1700.03 537.6 1686.52 539.953 C 1704.89 504.488 1713.83 461.645 1717.47 422.161 C 1704.93 418.049 1695.53 412.334 1689.3 399.889 C 1684.18 389.69 1683.49 377.832 1687.4 367.109 C 1691.42 356.215 1698.82 349.103 1708.82 343.639 L 1706.16 320.584 L 1657.71 322.991 C 1678.51 258.08 1699.96 198.829 1764.05 165.58 C 1806.43 143.965 1855.56 139.727 1901.02 153.766 C 1957.5 171.664 1987.28 207.528 2013.99 257.358 C 2047.08 275.992 2074.36 305.155 2084.25 342.262 C 2098.4 395.315 2080.63 439.953 2032.59 465.435 L 2035.72 476.098 C 2161.38 535.97 2230.83 677.661 2274.92 801.917 C 2314.27 915.297 2339.28 1033.16 2349.35 1152.75 C 2351.39 1176.84 2353.99 1210.91 2353.85 1234.91 L 2328.73 1234.6 L 2269.87 1234.66 C 2271.85 1246.34 2275.3 1262.82 2276.56 1274.04 C 2289.25 1347.71 2304.7 1427.03 2315.41 1500.53 C 2324.18 1505.71 2331.66 1511.69 2332.93 1522.43 C 2334.73 1537.68 2334 1554.04 2333.96 1569.44 L 2333.91 1648.53 C 2335.79 1649.12 2338.35 1649.92 2340.16 1650.71 C 2347.43 1653.89 2353.18 1659.79 2356.17 1667.14 C 2359.25 1674.94 2358.98 1683.66 2355.41 1691.25 C 2345.99 1711.45 2326.47 1710.89 2307.81 1710.49 C 2297.3 1710.27 2286.45 1710.46 2275.91 1710.44 L 2166.25 1710.34 L 1848.64 1710.38 C 1798.61 1710.37 1748.5 1710.61 1698.48 1710.43 C 1691.58 1710.29 1685.7 1710.35 1679.57 1706.78 C 1659.06 1694.85 1657.05 1664.61 1678.6 1652.53 C 1682.82 1650.16 1685.73 1649.48 1690.19 1648.38 C 1692.45 1627.49 1703.68 1602.34 1716.1 1585.6 C 1741.51 1551.35 1770.66 1531.25 1812.45 1524.21 C 1814.01 1497.63 1826.83 1482.49 1853.44 1478.5 C 1848.49 1452.8 1844.3 1419.26 1840.35 1392.89 L 1816.6 1234.79 C 1798.43 1234.6 1780.27 1234.63 1762.1 1234.87 C 1769.53 1209.89 1776.22 1182.16 1782.77 1156.8 L 1816.86 1024.48 C 1760.52 1088.88 1693.07 1132.78 1619.28 1173.89 L 1571.06 1200.42 C 1564.61 1203.97 1548.57 1212.3 1543.09 1216.46 C 1529.16 1227.03 1516.52 1240.61 1502.62 1252.15 C 1509.41 1255.03 1513.44 1256.45 1520.53 1258.54 C 1534.93 1269.62 1529.32 1281.39 1522.5 1296.59 C 1514.7 1313.96 1512.5 1342 1487.84 1334.75 C 1477 1329.56 1444.35 1318.49 1431.59 1314.6 C 1430.19 1315.08 1429 1315.5 1428.01 1315.84 C 1426.73 1321.2 1406.44 1338.15 1400.4 1340.96 C 1392.43 1344.76 1383.24 1345.06 1375.04 1341.81 C 1357.66 1335.06 1355.22 1318.06 1361.52 1302.33 C 1347.49 1295.9 1343.42 1290.62 1337.81 1277.1 C 1328.66 1297.28 1305.27 1303.18 1287.54 1290.36 C 1275.37 1281.57 1277.37 1274.27 1275.5 1261.81 L 1273.39 1261.51 C 1264.82 1267.69 1257.12 1267.41 1247.05 1264.21 C 1237.16 1261.07 1233.53 1251.76 1229.7 1243.14 C 1227.91 1239.12 1226.5 1239.36 1222.57 1237.9 C 1217.37 1243.17 1218 1254.02 1211.93 1258 C 1200.58 1265.48 1166.64 1252.35 1177.02 1235.54 C 1178.77 1232.71 1180.3 1228.09 1181.24 1224.97 L 1179.9 1224.1 C 1172.43 1221.15 1168.51 1218.14 1170.78 1209.84 C 1150.05 1203.67 1161.38 1199.27 1159.42 1189.74 C 1155.54 1185.73 1143.88 1184.03 1142.93 1179.04 C 1141.3 1170.53 1147.16 1159.11 1150.51 1151.44 C 1155.86 1139.17 1167.25 1145.18 1175.39 1150.41 L 1176.69 1146.94 C 1181.37 1134.31 1186.92 1136.49 1197.5 1139.9 L 1199.05 1138.61 C 1204.58 1132.02 1207.66 1132.37 1215.82 1133.61 L 1217.59 1133.69 C 1220.85 1128.43 1221.35 1126.04 1228.18 1124.61 C 1240.1 1122.12 1255.32 1129.61 1258.14 1142.02 C 1259.09 1146.21 1255.84 1150.52 1256.69 1155.96 C 1257.71 1155.41 1258.73 1154.87 1259.75 1154.32 C 1269.73 1133.58 1273.37 1112.21 1294.52 1098.84 C 1304.17 1092.74 1320.9 1087.64 1332.61 1083.63 L 1394.16 1062.61 C 1402.28 1059.84 1423.42 1053.58 1430.09 1049.61 C 1485.72 1016.44 1539.53 977.508 1595.23 944.554 L 1583.4 940.425 z" fill="rgb(27,23,20)" transform="translate(0,0)"></path>
<path d="M 1579.7 939.776 C 1578.89 941.744 1576.77 943.886 1575.21 945.417 C 1556.22 963.991 1536.19 971.565 1510.02 971.557 C 1472.7 971.546 1435.56 971.351 1398.35 971.285 L 1205.34 971.325 L 1117.93 971.295 C 1103.48 971.353 1074.33 972.2 1061.61 970.201 C 1045.32 967.651 1030.23 960.081 1018.44 948.546 C 1000.51 930.824 994.322 911.22 994.152 886.563 L 994.257 370.036 L 994.257 213.438 C 994.261 189.008 993.626 160.673 995.26 136.554 C 996.331 120.743 1007.14 101.101 1018.68 90.168 C 1039.35 70.5726 1057.33 66.1133 1084.68 66.0142 L 1389.41 66.1177 L 1477.77 66.0536 C 1514.36 66.0475 1543.1 62.0875 1571.46 90.6285 C 1583.36 102.538 1591.2 117.897 1593.86 134.519 C 1595.97 148.348 1595.15 180.447 1595.16 196.425 L 1595.11 314.268 L 1595.2 710.363 C 1565.28 700.954 1535.75 689.967 1505.93 680.422 C 1505.94 678.094 1511.1 669.844 1511.39 664.317 C 1513.75 643.772 1486.61 641.676 1471.79 642.775 C 1459.4 643.693 1412.94 639.978 1405.92 646.029 C 1400.82 645.145 1388.22 640.363 1382.78 638.451 L 1357.6 629.99 C 1351.72 628.601 1348.68 628.992 1342.98 629.925 C 1337.56 632.359 1335 633.349 1330.73 637.826 L 1327.59 642.873 C 1305.44 642.854 1279.3 641.731 1257.41 643.892 C 1239.27 645.683 1233.46 669.875 1246.64 681.405 C 1252.97 687.902 1262.38 687.413 1270.79 687.393 C 1291.85 687.341 1312.98 687.658 1334.03 687.122 C 1341.33 686.915 1344.99 685.757 1351.05 681.793 C 1375.03 689.61 1413.7 701.324 1435.86 710.472 C 1437.34 710.81 1438.41 711.098 1439.86 711.561 L 1439.64 711.462 L 1440.67 712.667 L 1441.24 712.313 L 1441.41 712.53 C 1441.41 712.591 1441.4 712.703 1441.32 712.713 C 1435.24 713.425 1424.3 713.53 1418.41 712.461 C 1410.38 714.391 1404.24 716.154 1399.53 723.801 C 1396.39 728.897 1395.46 735.058 1396.98 740.851 C 1403.81 768.01 1433.21 753.086 1447.77 758.457 C 1449.74 762.696 1451.11 763.659 1454.49 766.781 L 1454.15 767.774 L 1452.65 768.286 C 1443.48 771.461 1440.22 774.467 1435.39 783.447 C 1419 783.164 1397.06 782.015 1396.32 805.342 C 1396.08 811.441 1398.34 817.376 1402.58 821.768 C 1410.97 830.372 1417.84 826.764 1424.81 829.077 C 1420.66 837.413 1420.7 842.769 1423.11 851.795 C 1412.42 852.362 1399.8 855.292 1397.42 866.73 C 1388.79 908.193 1436.43 892.985 1449.81 896.734 C 1488.75 907.649 1521.47 920.38 1559.64 932.323 C 1564.54 933.876 1575.85 937.276 1579.7 939.776 z" fill="rgb(255,255,255)" transform="translate(0,0)"></path>
<path d="M 1342.98 629.925 L 1183.14 629.728 C 1165.97 629.774 1115.18 631.053 1101.3 628.374 C 1087.13 625.62 1074.12 618.67 1063.95 608.426 C 1050.32 594.508 1044.19 576.634 1044.67 557.315 C 1045.2 538.575 1053.28 520.845 1067.08 508.155 C 1093.11 484.052 1125.06 489.165 1158.03 489.138 L 1252.75 489.107 L 1406.74 489.234 C 1434.31 489.219 1462.4 488.993 1489.92 489.437 C 1506.18 489.7 1525.61 500.714 1536.44 512.932 C 1548.73 526.959 1554.94 545.292 1553.72 563.9 C 1552.34 582.894 1543.4 600.54 1528.88 612.869 C 1520.14 620.389 1509.67 625.615 1498.41 628.075 C 1484.65 631.066 1462.06 629.692 1447.1 629.891 C 1417.71 630.282 1386.91 629.122 1357.6 629.99 C 1351.72 628.601 1348.68 628.992 1342.98 629.925 z" fill="rgb(247,178,135)" transform="translate(0,0)"></path>
<path d="M 1257.15 502.251 C 1272.74 501.437 1329.36 499.549 1341.37 503.363 C 1347.51 505.313 1353.19 509.257 1355.91 515.259 C 1358.33 520.603 1357.96 527.594 1355.79 532.959 C 1352.91 540.102 1346.84 543.42 1340.1 546.163 C 1324.7 547.16 1267.07 549.21 1254.9 544.841 C 1249.09 542.755 1243.89 538.886 1241.38 533.107 C 1239 527.656 1239.6 520.798 1241.77 515.383 C 1244.65 508.199 1250.42 505.105 1257.15 502.251 z" fill="rgb(43,37,32)" transform="translate(0,0)"></path>
<path d="M 1098.07 502.137 C 1110.89 501.357 1174.01 500.533 1183.41 503.246 C 1189.23 504.928 1194.43 508.2 1197.17 513.766 C 1199.96 519.427 1199.53 528.246 1197.07 534.042 C 1194.34 540.472 1188.46 543.795 1182.25 546.144 C 1172.29 547.669 1106.44 547.734 1097.45 544.945 C 1091.72 543.164 1086.25 539.768 1083.59 534.188 C 1080.88 528.509 1081.53 521.161 1083.64 515.398 C 1086.26 508.265 1091.48 505.058 1098.07 502.137 z" fill="rgb(43,37,32)" transform="translate(0,0)"></path>
<path d="M 1098.79 572.261 C 1114.09 571.241 1174.99 569.529 1186.15 574.539 C 1191.56 576.973 1196.31 581.239 1198.22 586.981 C 1200.1 592.611 1199.1 599.62 1196.48 604.866 C 1193.43 610.978 1187.97 613.813 1181.79 615.975 C 1167.35 616.764 1108.23 617.907 1097.68 615.03 C 1091.93 613.463 1086.56 610.228 1083.84 604.739 C 1081.04 599.073 1081.45 590.778 1083.8 585.026 C 1086.52 578.405 1092.5 574.882 1098.79 572.261 z" fill="rgb(43,37,32)" transform="translate(0,0)"></path>
<path d="M 1414.81 502.323 C 1429.85 501.304 1488.48 499.631 1499.83 503.904 C 1505.56 506.059 1510.58 510.042 1512.84 515.866 C 1515.02 521.488 1514.43 528.976 1511.88 534.389 C 1508.88 540.741 1502.94 544.009 1496.63 546.321 C 1480.74 547.236 1425.35 549.156 1412.74 544.865 C 1406.92 542.885 1401.5 539.107 1398.91 533.373 C 1396.39 527.801 1396.99 520.912 1399.33 515.375 C 1402.31 508.314 1408.11 505.128 1414.81 502.323 z" fill="rgb(43,37,32)" transform="translate(0,0)"></path>
<path d="M 1256.9 572.296 C 1272.14 571.116 1332.46 569.7 1343.6 574.159 C 1349.15 576.381 1354.19 580.377 1356.27 586.144 C 1358.49 592.302 1357.02 599.468 1354.16 605.178 C 1351.16 611.183 1346.19 613.785 1340.08 615.922 C 1325.79 617.065 1266.18 618.123 1255.13 614.586 C 1249.29 612.714 1243.68 608.996 1241 603.297 C 1238.3 597.541 1239.33 590.98 1241.69 585.294 C 1244.8 577.792 1249.76 575.114 1256.9 572.296 z" fill="rgb(43,37,32)" transform="translate(0,0)"></path>
<path d="M 1414.95 572.238 C 1430.49 571.358 1487.74 569.445 1499.64 573.957 C 1505.37 576.128 1510.59 579.991 1512.92 585.828 C 1515.37 591.95 1513.88 599.516 1511.01 605.24 C 1507.89 611.479 1502.57 614 1496.32 616.147 C 1481.21 617.132 1423.05 618.756 1411.62 614.454 C 1405.9 612.297 1400.81 608.326 1398.49 602.526 C 1396.29 597.045 1396.8 589.888 1399.24 584.563 C 1402.32 577.848 1408.38 574.651 1414.95 572.238 z" fill="rgb(43,37,32)" transform="translate(0,0)"></path>
<path d="M 1330.73 637.826 L 1187.72 637.688 C 1161.97 637.812 1120.45 640.046 1095.62 635.628 C 1060.91 629.452 1035.67 593.859 1036.31 558.212 C 1036.53 537.166 1045.25 517.102 1060.49 502.585 C 1087.81 476.425 1116.39 480.734 1151.14 480.811 L 1226.31 480.874 L 1384.11 480.899 C 1419.08 480.801 1454.04 480.282 1489.01 480.872 C 1508.03 481.193 1527.87 491.47 1540.84 505.087 C 1555.45 520.578 1563.13 541.35 1562.12 562.624 C 1561.33 582.908 1552.65 603.421 1537.37 616.897 C 1511.42 639.782 1490.16 637.89 1458.42 637.832 L 1409.62 637.796 C 1403.8 637.795 1387.71 637.474 1382.78 638.451 L 1357.6 629.99 C 1386.91 629.122 1417.71 630.282 1447.1 629.891 C 1462.06 629.692 1484.65 631.066 1498.41 628.075 C 1509.67 625.615 1520.14 620.389 1528.88 612.869 C 1543.4 600.54 1552.34 582.894 1553.72 563.9 C 1554.94 545.292 1548.73 526.959 1536.44 512.932 C 1525.61 500.714 1506.18 489.7 1489.92 489.437 C 1462.4 488.993 1434.31 489.219 1406.74 489.234 L 1252.75 489.107 L 1158.03 489.138 C 1125.06 489.165 1093.11 484.052 1067.08 508.155 C 1053.28 520.845 1045.2 538.575 1044.67 557.315 C 1044.19 576.634 1050.32 594.508 1063.95 608.426 C 1074.12 618.67 1087.13 625.62 1101.3 628.374 C 1115.18 631.053 1165.97 629.774 1183.14 629.728 L 1342.98 629.925 C 1337.56 632.359 1335 633.349 1330.73 637.826 z" fill="rgb(231,89,42)" transform="translate(0,0)"></path>
<path d="M 1435.86 710.472 C 1437.34 710.81 1438.41 711.098 1439.86 711.561 L 1439.64 711.462 L 1440.67 712.667 L 1441.24 712.313 L 1441.41 712.53 C 1441.41 712.591 1441.4 712.703 1441.32 712.713 C 1435.24 713.425 1424.3 713.53 1418.41 712.461 C 1425.39 710.078 1430.01 713.822 1435.86 710.472 z" fill="rgb(247,241,234)" transform="translate(0,0)"></path>
<path d="M 1258.12 431.26 C 1274.04 430.448 1332.58 428.682 1344.22 433.798 C 1349.62 436.172 1354.33 440.4 1356.26 446.084 C 1358.16 451.682 1357.36 459.021 1354.69 464.249 C 1351.4 470.693 1345.28 473.738 1338.78 476 C 1323.34 476.566 1264.95 478.525 1253.16 473.555 C 1247.67 471.239 1242.8 467.179 1240.71 461.462 C 1238.65 455.809 1239.36 448.48 1241.97 443.111 C 1245.21 436.452 1251.54 433.621 1258.12 431.26 z" fill="rgb(27,23,20)" transform="translate(0,0)"></path>
<path d="M 1099.33 431.226 C 1113.74 430.397 1173.17 429.059 1183.65 432.947 C 1189.51 435.122 1194.62 439.026 1197.15 444.875 C 1199.47 450.256 1199.43 457.526 1197.13 462.913 C 1194.19 469.802 1187.53 473.089 1181.02 475.826 C 1166.19 476.87 1106.92 478.286 1095.8 473.987 C 1090.09 471.78 1084.88 467.773 1082.54 461.969 C 1080.26 456.32 1081 449.473 1083.39 443.976 C 1086.56 436.697 1092.31 433.79 1099.33 431.226 z" fill="rgb(27,23,20)" transform="translate(0,0)"></path>
<path d="M 1098.1 361.162 C 1113.64 360.173 1173.04 358.448 1184.83 362.862 C 1190.37 364.935 1195.49 368.711 1197.89 374.27 C 1200.29 379.836 1199.43 386.365 1197.13 391.818 C 1194.02 399.195 1188.38 402.508 1181.36 405.47 C 1168.66 406.116 1104.72 406.712 1096.5 404.009 C 1090.78 402.126 1085.89 398.766 1083.35 393.147 C 1080.96 387.874 1080.88 379.471 1083.04 374.088 C 1085.73 367.419 1091.84 363.823 1098.1 361.162 z" fill="rgb(27,23,20)" transform="translate(0,0)"></path>
<path d="M 1415.89 431.383 C 1431.7 430.689 1489.68 428.38 1501.72 434.255 C 1506.68 436.675 1510.84 440.667 1512.59 445.986 C 1514.46 451.639 1513.58 459.041 1510.91 464.309 C 1507.64 470.747 1501.41 473.894 1494.89 476.066 C 1478.1 476.424 1421.54 479.163 1408.84 472.97 C 1403.38 470.308 1398.9 466.002 1397.24 460.037 C 1395.64 454.345 1396.77 446.622 1399.73 441.53 C 1403.27 435.448 1409.33 432.856 1415.89 431.383 z" fill="rgb(27,23,20)" transform="translate(0,0)"></path>
<path d="M 1257.38 290.139 C 1270.98 289.127 1332.95 287.731 1343.43 292.185 C 1349 294.549 1353.78 298.518 1355.96 304.285 C 1358.04 309.81 1357.35 316.772 1354.92 322.076 C 1351.84 328.791 1346.3 331.986 1339.62 334.409 C 1324.97 335.247 1263.19 336.194 1252.73 332.143 C 1247.64 330.17 1243.2 326.81 1241.09 321.641 C 1238.7 315.795 1239.42 307.215 1242.13 301.585 C 1245.16 295.258 1250.99 292.136 1257.38 290.139 z" fill="rgb(27,23,20)" transform="translate(0,0)"></path>
<path d="M 1101.5 218.457 C 1118.7 218.195 1174.09 215.36 1187.13 221.592 C 1192.3 224.058 1196.99 228.271 1198.66 233.892 C 1200.39 239.736 1198.71 246.491 1195.91 251.732 C 1192.38 258.328 1186.77 260.889 1179.91 262.916 L 1130.56 263.176 C 1119.29 263.223 1099.35 264.799 1090.62 258.517 C 1072.77 245.691 1080.88 222.639 1101.5 218.457 z" fill="rgb(27,23,20)" transform="translate(0,0)"></path>
<path d="M 1098.21 290.156 C 1112.27 289.221 1175.96 288.121 1185.76 292.163 C 1190.89 294.278 1195.14 297.847 1197.23 303.084 C 1199.41 308.563 1199.22 316.904 1196.82 322.321 C 1193.95 328.806 1187.68 332.046 1181.37 334.292 C 1156.57 334.437 1120.5 336.531 1097.04 332.834 C 1078.73 329.948 1072.93 301.346 1098.21 290.156 z" fill="rgb(27,23,20)" transform="translate(0,0)"></path>
<path d="M 1100.2 713.236 C 1115.04 712.732 1173.91 710.592 1185.38 715.536 C 1190.96 717.94 1195.54 722.233 1197.55 728.049 C 1199.4 733.381 1199.07 740.895 1196.47 745.928 C 1193.06 752.523 1186.8 755.602 1180.06 757.667 C 1163.49 757.61 1105.31 760.459 1093.53 755.014 C 1088.21 752.558 1083.82 748.289 1082.09 742.607 C 1080.37 737.008 1080.99 729.286 1083.98 724.201 C 1087.54 718.129 1093.68 715.054 1100.2 713.236 z" fill="rgb(27,23,20)" transform="translate(0,0)"></path>
<path d="M 1101.72 147.499 C 1119.13 147.473 1172.25 144.378 1185.46 149.72 C 1191 151.962 1196 155.968 1198.03 161.754 C 1200.15 167.768 1198.88 175.489 1195.86 180.989 C 1192.25 187.543 1186.33 189.983 1179.52 191.883 C 1162.89 191.849 1146.25 191.918 1129.62 192.089 C 1118.56 192.149 1100.03 193.625 1091.28 187.728 C 1072.76 175.238 1080.12 151.059 1101.72 147.499 z" fill="rgb(27,23,20)" transform="translate(0,0)"></path>
<path d="M 1259.53 713.23 C 1276.86 713.037 1330.63 710.223 1343.38 715.427 C 1348.87 717.67 1353.58 721.854 1355.63 727.517 C 1357.68 733.199 1357.16 740.325 1354.39 745.684 C 1350.93 752.377 1345 755.486 1338.14 757.713 C 1313.77 758.628 1286.4 757.877 1262.04 757.7 C 1236.98 757.517 1227.72 721.682 1259.53 713.23 z" fill="rgb(27,23,20)" transform="translate(0,0)"></path>
<path d="M 1098.28 784.054 C 1120.56 782.047 1147.18 785.263 1168.89 783.516 C 1201.44 780.897 1210.49 816.123 1182.02 827.893 C 1159.21 829.415 1134.02 826.96 1111.61 828.319 C 1078.69 830.316 1068.88 796.804 1098.28 784.054 z" fill="rgb(27,23,20)" transform="translate(0,0)"></path>
<path d="M 1255.44 784.151 C 1278 781.768 1320.22 783.173 1342.62 785.316 C 1357.09 786.7 1366.12 814.946 1341.6 827.68 C 1322.01 830.827 1276.53 827.264 1255.53 827.095 C 1242.11 826.986 1227.77 797.998 1255.44 784.151 z" fill="rgb(27,23,20)" transform="translate(0,0)"></path>
<path d="M 1256.03 361.185 C 1280.84 359.45 1316.75 360.459 1341.42 361.705 C 1356.08 362.445 1367.78 392.101 1340.84 404.765 C 1328.22 406.035 1262.71 406.72 1253.72 403.831 C 1248.18 402.05 1243.68 396.88 1241.41 391.682 C 1239.13 386.47 1238.77 381.286 1240.86 375.977 C 1244.07 367.83 1248.29 364.576 1256.03 361.185 z" fill="rgb(27,23,20)" transform="translate(0,0)"></path>
<path d="M 1414.16 361.081 C 1438.2 359.827 1472.11 360.741 1496.31 361.445 C 1516.63 362.035 1522.61 403.021 1492.21 405.446 C 1470 405.128 1447.64 405.93 1425.38 405.635 C 1415.55 405.504 1401.64 402.709 1398.12 391.686 C 1393.1 375.989 1399.95 366.983 1414.16 361.081 z" fill="rgb(27,23,20)" transform="translate(0,0)"></path>
<path d="M 1414.24 290.106 C 1430.79 289.543 1488.3 287.244 1500.6 292.573 C 1506.03 294.925 1511.62 299.219 1513.58 305.016 C 1515.46 310.589 1513.65 316.246 1511.23 321.32 C 1507.72 328.68 1503.78 331.328 1496.12 334.023 C 1483.33 335.219 1421.97 336.426 1411.33 332.79 C 1405.74 330.881 1400.92 327.293 1398.58 321.741 C 1396.23 316.163 1396.07 308.05 1398.65 302.522 C 1401.77 295.848 1407.73 292.652 1414.24 290.106 z" fill="rgb(27,23,20)" transform="translate(0,0)"></path>
<path d="M 1262.02 218.537 C 1280.77 218.152 1299.74 219.067 1319.65 218.194 C 1342.3 217.201 1366.91 224.237 1352.95 253.706 C 1350.51 258.864 1342.24 261.843 1336.55 262.932 L 1289.69 263.059 C 1276.81 263.125 1256.03 265.092 1246.46 256.674 C 1230.57 242.712 1241.53 220.109 1262.02 218.537 z" fill="rgb(27,23,20)" transform="translate(0,0)"></path>
<path d="M 1260.82 147.477 C 1279.01 147.243 1334 143.661 1347.64 151.848 C 1352.28 154.636 1356.22 158.762 1357.39 164.191 C 1358.67 170.077 1356.22 177.125 1353.07 182.039 C 1348.94 188.461 1343.19 190.432 1336.07 191.786 C 1318.33 191.795 1262.73 195.28 1249.99 187.975 C 1245.17 185.212 1241.4 180.986 1240.15 175.481 C 1238.79 169.519 1240.22 161.48 1243.78 156.477 C 1247.85 150.764 1254.19 148.584 1260.82 147.477 z" fill="rgb(27,23,20)" transform="translate(0,0)"></path>
<path d="M 1097.94 852.255 C 1113.57 851.305 1173.31 849.678 1184.4 854.22 C 1189.99 856.504 1194.96 860.412 1197.2 866.159 C 1199.41 871.813 1198.46 878.686 1196.02 884.115 C 1192.98 890.875 1187.4 893.783 1180.84 896.3 C 1167.09 897.449 1107.11 898.453 1096.76 894.816 C 1090.84 892.739 1085.53 888.761 1082.89 882.955 C 1080.45 877.606 1080.66 870.468 1082.94 865.097 C 1085.78 858.393 1091.57 854.961 1097.94 852.255 z" fill="rgb(27,23,20)" transform="translate(0,0)"></path>
<path d="M 1418.02 147.369 C 1436.09 147.236 1490.21 143.972 1503.15 151.217 C 1507.93 153.898 1511.64 157.995 1512.99 163.397 C 1514.41 169.065 1513.18 176.856 1510.12 181.829 C 1506.38 187.91 1499.94 190.375 1493.33 191.874 C 1468.39 191.502 1441.27 193.024 1416.64 191.337 C 1392.34 189.673 1386.42 151.872 1418.02 147.369 z" fill="rgb(27,23,20)" transform="translate(0,0)"></path>
<path d="M 1098.9 643.242 C 1113.85 642.136 1172.41 640.634 1183.84 644.789 C 1189.54 646.862 1194.73 650.776 1197.11 656.498 C 1199.46 662.157 1198.79 669.229 1196.4 674.773 C 1193.36 681.812 1187.53 684.645 1180.83 687.305 C 1163.69 687.334 1108.47 690.267 1095.67 685.297 C 1090.01 683.101 1085.06 679.139 1082.72 673.413 C 1080.54 668.106 1080.76 660.915 1083.16 655.717 C 1086.24 649.071 1092.47 645.842 1098.9 643.242 z" fill="rgb(27,23,20)" transform="translate(0,0)"></path>
<path d="M 1467.64 218.499 C 1477.82 218.282 1502.1 216.544 1506.88 224.301 C 1537.2 273.6 1457.75 263.007 1442.5 262.904 C 1431.12 262.924 1412.56 265.036 1403.5 257.138 C 1394.42 249.23 1394.51 233.684 1402.93 225.053 C 1405.36 222.559 1408.37 220.716 1411.69 219.695 C 1419.12 217.48 1457.63 218.516 1467.64 218.499 z" fill="rgb(27,23,20)" transform="translate(0,0)"></path>
<path d="M 1256.97 852.293 C 1272.36 851.633 1329.64 849.432 1341.34 853.82 C 1347.03 855.95 1351.96 859.79 1354.45 865.441 C 1356.82 870.814 1356.57 878.025 1354.38 883.421 C 1351.61 890.261 1345.37 893.622 1338.9 896.181 C 1322.42 896.568 1265.54 899.199 1253.13 894.3 C 1247.71 892.16 1243.01 888.15 1240.91 882.618 C 1238.84 877.166 1239.04 869.858 1241.55 864.578 C 1244.68 857.977 1250.41 854.661 1256.97 852.293 z" fill="rgb(27,23,20)" transform="translate(0,0)"></path>
<path d="M 2061.87 561.935 C 2053.06 535.433 2045.62 505.443 2036.63 479.98 C 2254.64 583.28 2350.22 1008.05 2350.67 1231.87 C 2324.24 1231.85 2296.53 1231.43 2270.21 1232.15 C 2262.37 1231.63 2252.74 1231.93 2244.81 1232.01 C 2174.69 1232.79 2104.08 1230.81 2034 1232.18 C 2010.69 1231.26 1982.16 1231.94 1958.57 1231.87 C 1963.64 1199.25 1967.85 1164.91 1972.36 1132.11 L 1990.53 998.793 C 1992.41 993.078 1996.44 957.58 1998.57 947.068 C 2071.3 905.437 2139.12 819.632 2168.1 741.199 C 2170.25 735.381 2174.89 723.273 2174.61 717.572 C 2171.22 717.234 2169.34 728.36 2168.16 731.798 C 2137.28 821.299 2074.54 894.045 1996.16 945.609 C 1982.65 952.525 1972.92 958.843 1958.37 965.207 C 1952.05 967.97 1931.35 975.527 1927.69 977.559 C 1821.75 1006.96 1747.49 987.954 1644.2 957.219 C 1661.79 899.558 1683.31 842.327 1701.13 784.655 C 1704.35 774.26 1708.01 763.105 1711.77 752.905 C 1749.45 764.832 1823.62 794.745 1858.57 795.687 C 1874.55 796.117 1889.85 792.384 1904.06 785.132 C 1911.18 781.502 1917.3 776.242 1922.91 770.611 C 1936.53 756.94 1948.54 740.925 1960.9 726.063 C 1987.19 694.42 2013.01 662.173 2040.02 631.138 C 2032.82 619.139 2025.75 607.07 2018.79 594.932 C 2033.65 584.19 2047.39 572.568 2061.87 561.935 z" fill="rgb(247,241,234)" transform="translate(0,0)"></path>
<path d="M 2001.16 1240.36 C 2065.73 1250.67 2134.27 1256.23 2199.22 1265.76 C 2216.13 1268.25 2259.36 1271.73 2273.83 1275.56 L 2312.56 1500.22 C 2234.01 1498.98 2153.13 1500.11 2074.36 1500.04 C 2070.24 1494.97 2069.54 1494.25 2064.96 1490.04 C 2060.13 1485.6 2046.87 1480.77 2044.91 1478.1 C 2045.22 1473.74 2035.6 1425.67 2034.19 1418.04 L 2001.16 1240.36 z" fill="rgb(247,178,135)" transform="translate(0,0)"></path>
<path d="M 1918.17 1001.74 C 1940.6 1001.16 1964.63 1001.59 1987.18 1001.64 L 1965.7 1159.98 C 1962.74 1181.25 1959.15 1215.21 1954.86 1234.87 C 1961.64 1234.88 1991.87 1235.36 1996.67 1234.61 C 2013.81 1314.31 2025.67 1398.62 2042.38 1478.21 C 2020.32 1481.8 2011.94 1477.02 1996.82 1500.03 L 1896.86 1499.95 C 1885.58 1486.14 1873.65 1480.29 1856.27 1478.36 C 1851.66 1454.55 1847.9 1422.84 1844.11 1398.01 L 1819.62 1234.69 C 1841.32 1234.7 1864.87 1234.34 1886.41 1235.08 L 1918.17 1001.74 z" fill="rgb(247,178,135)" transform="translate(0,0)"></path>
<path d="M 1388.94 1295.38 C 1381.8 1298.87 1376.87 1300.71 1368.56 1300.16 C 1353.65 1299.23 1338.05 1284.38 1342 1268.44 C 1346.32 1251.05 1356.35 1232.03 1363.08 1215.2 C 1369.07 1200.22 1374.25 1183.53 1384.48 1171.07 C 1389.19 1165.33 1399.27 1159.01 1405.6 1154.58 L 1405.51 1152.97 L 1403.75 1152.84 C 1378.31 1163.58 1369.46 1190.92 1360.14 1213.78 C 1354.34 1227.95 1348.61 1242.15 1342.95 1256.38 C 1336.59 1272.37 1331.07 1292.07 1310.74 1294.3 C 1302.81 1295.12 1294.89 1292.63 1288.85 1287.43 C 1282.9 1282.4 1278.99 1275.39 1278.71 1267.52 C 1278.32 1256.56 1319.43 1159.09 1327.19 1147.59 C 1331.65 1140.99 1337.62 1134.23 1344.19 1129.66 C 1347.1 1127.63 1350.29 1126.38 1352.78 1123.77 L 1351.87 1122.63 C 1347.07 1122.43 1342.82 1126.64 1339.41 1129.65 C 1332.54 1135.72 1325.36 1143.36 1320.73 1151.33 C 1309.65 1170.42 1286.09 1248.62 1273.46 1258.51 C 1268.04 1262.75 1261.29 1264.08 1254.56 1263.06 C 1247.71 1262.01 1240.89 1259.13 1236.89 1253.22 C 1232.59 1246.87 1232.18 1238.82 1233.67 1231.5 C 1237.47 1212.83 1248.48 1193.57 1255.3 1175.67 C 1262.08 1157.86 1270.9 1127.36 1283.14 1113.05 C 1288.31 1107.1 1294.57 1102.18 1301.57 1098.54 C 1310.83 1093.66 1326.59 1088.8 1336.88 1085.28 L 1396.78 1064.88 C 1403.79 1062.49 1425.02 1055.71 1430.37 1053 C 1446.58 1044.78 1465.95 1030.64 1481.79 1020.54 C 1519.44 1071.42 1565.86 1128.05 1605.64 1177.89 C 1583.65 1190.23 1559.22 1202.76 1538.32 1216.42 C 1532 1220.54 1503.71 1246.53 1500.52 1252.14 C 1494.55 1249.23 1481.6 1244.88 1474.69 1242.35 C 1457.98 1236.31 1441.33 1230.12 1424.73 1223.78 C 1429.43 1218.55 1482.5 1199.76 1485.28 1194.8 L 1484.17 1193.71 C 1482.35 1194.33 1480.55 1195.01 1478.77 1195.73 C 1462.76 1202.37 1440.44 1211.55 1424.9 1220 C 1423.84 1220.58 1422.56 1223.4 1422.04 1224.65 C 1415.36 1241.79 1401.1 1284.11 1388.94 1295.38 z" fill="rgb(255,255,255)" transform="translate(0,0)"></path>
<path d="M 1327.51 648.998 C 1330.84 645.106 1332.77 636.831 1339.02 634.522 C 1356.44 628.082 1388.36 643.54 1405.51 649.739 L 1505.08 683.09 C 1572.62 706.391 1641.78 728.114 1708.78 751.852 C 1686.51 819.539 1662.69 888.541 1641.37 956.332 C 1621 949.879 1600.68 943.265 1580.4 936.492 C 1559.32 929.14 1456.17 896.858 1448.76 890.462 C 1445.64 887.765 1443.89 883.321 1443.71 879.269 C 1443.58 876.237 1444.04 872.206 1446.33 869.994 C 1447.15 869.197 1464.86 875.12 1468.2 875.479 C 1465.73 871.374 1441.34 864.531 1435.99 861.143 C 1433.04 859.277 1431.37 857.867 1428.72 855.564 C 1421.86 844.213 1423.17 837.405 1429.66 826.389 C 1450.73 807.882 1468.21 830.725 1484.75 829.173 C 1468.89 817.066 1452.81 824.196 1438.25 804.034 C 1436.28 797.455 1436.21 790.45 1438.05 783.833 C 1444.84 759.895 1483.85 778.088 1498.69 783.444 L 1499.88 782.545 C 1496.53 775.098 1462.41 774.655 1450.05 757.403 L 1449.27 756.297 C 1446.55 747.762 1446.73 737.009 1452.92 730.096 C 1468.75 712.445 1502.66 738.644 1516.83 737.879 L 1517.51 736.497 C 1514.25 733.753 1490.81 726.421 1485.66 724.618 C 1438.34 708.066 1391 691.625 1343.48 675.66 C 1330.06 671.151 1328.15 661.58 1327.51 648.998 z" fill="rgb(255,255,255)" transform="translate(0,0)"></path>
<path d="M 2076.15 1503.05 L 2237.8 1503 C 2261.34 1502.98 2286.16 1502.11 2309.56 1503.21 C 2337.14 1504.51 2330.92 1549.47 2330.91 1568.52 L 2330.93 1648.12 L 2064.5 1648.22 L 1871.57 1648.13 C 1875.59 1607.15 1905.04 1568.46 1938.64 1546.29 C 1991.54 1511.4 2053.2 1524 2087.42 1577.61 C 2091.2 1548.05 2091.55 1529.88 2076.15 1503.05 z" fill="rgb(247,241,234)" transform="translate(0,0)"></path>
<path d="M 1598.7 945.891 C 1604.71 947.38 1612.08 950.052 1618.14 952.003 C 1685.79 973.79 1752.84 993.714 1824.48 995.02 C 1823.22 1000.05 1819.87 1015.09 1817.28 1018.42 C 1781.03 1065.02 1723.29 1106.83 1675.02 1137.85 C 1653.79 1151.72 1630.66 1164.09 1608.4 1176.33 C 1594.19 1160.07 1577.03 1137.05 1563.46 1119.82 L 1484.14 1018.96 C 1522.53 995.256 1559.36 969.873 1598.7 945.891 z" fill="rgb(247,241,234)" transform="translate(0,0)"></path>
<path d="M 1933.59 280.265 C 2000.84 272.347 2013.29 368.6 1943.82 375.264 C 1948.26 419.397 1941.69 453.454 1925.99 494.483 C 1872.76 535.251 1797.56 524.437 1751.53 477.834 C 1736.25 460.141 1728.49 445.528 1722.46 423.157 C 1738.68 422.811 1741.34 422.127 1754.47 413.206 C 1756.92 416.213 1757.12 416.417 1760.14 418.836 C 1765.02 419.876 1775.43 419.486 1780.32 418.405 C 1778.55 415.577 1765.19 415.683 1759.95 414.344 C 1754.66 407.851 1768.53 395.272 1771.5 386.382 C 1774.41 377.688 1774.67 378.243 1775.56 368.553 C 1778.04 365.08 1785.74 365.03 1787.53 369.104 C 1797.36 391.46 1815.51 409.124 1843.12 399.116 C 1853.98 395.199 1862.79 387.041 1867.52 376.509 C 1873.2 363.898 1871.73 353.025 1866.88 340.699 C 1877.42 332.076 1894.92 320.421 1903.57 311.808 C 1904.55 306.837 1902.74 305.059 1905.76 299.474 C 1911.73 288.437 1922.29 283.817 1933.59 280.265 z" fill="rgb(255,255,255)" transform="translate(0,0)"></path>
<path d="M 1824.16 415.598 C 1829.21 420.055 1821.48 432.031 1818.32 436.29 C 1807.91 450.29 1796.56 452.116 1780.32 453.853 C 1777.69 451.397 1779.91 450.273 1782.46 450.356 C 1797.56 450.848 1810.63 443.846 1818.22 430.691 C 1821.47 425.042 1822.23 421.663 1824.16 415.598 z" fill="rgb(27,23,20)" transform="translate(0,0)"></path>
<path d="M 1869.55 1651.5 C 1880.46 1650.33 1909.15 1651.06 1921.19 1651.06 L 2023.27 1651.07 L 2217.3 1651.06 C 2251.22 1651.05 2285.21 1651.02 2319.12 1651.13 C 2324.33 1651.14 2336.04 1651.47 2340.58 1653.73 C 2346.71 1656.79 2351.49 1662.55 2353.72 1669.04 C 2356.27 1676.29 2355.7 1684.28 2352.15 1691.1 C 2347.05 1700.8 2340.3 1704.06 2330.48 1706.95 C 2318.3 1708.45 2290.14 1707.5 2276.37 1707.44 L 2178.54 1707.34 L 1979.03 1707.27 C 1946.8 1707.26 1914.51 1707.42 1882.28 1707.28 C 1877.08 1706.9 1868.61 1707.33 1863.88 1705.09 C 1849.22 1698.13 1843.07 1678.5 1850.65 1664.28 C 1854.53 1657 1861.85 1653.7 1869.55 1651.5 z" fill="rgb(247,241,234)" transform="translate(0,0)"></path>
<path d="M 1917.15 983.085 C 1918.67 987.303 1916.27 994.792 1915.77 1000.02 C 1912.48 1017.78 1909.92 1041.74 1907.41 1060.12 L 1891.63 1176.25 C 1889.24 1193.87 1886.89 1214.8 1883.57 1232.06 L 1766.13 1231.85 C 1787.41 1156.35 1808.37 1071.49 1827.09 995.011 C 1859.26 995.004 1886.37 991.802 1917.15 983.085 z" fill="rgb(247,241,234)" transform="translate(0,0)"></path>
<path d="M 1811.65 1527.29 C 1851.18 1522.44 1881.15 1540.69 1905.5 1570.23 C 1886.49 1592.11 1871.67 1618.98 1868.59 1648.14 L 1788.5 1648.08 C 1756.7 1648.24 1724.89 1648.22 1693.09 1648.03 C 1704.46 1588.13 1750.39 1537.27 1811.65 1527.29 z" fill="rgb(247,241,234)" transform="translate(0,0)"></path>
<path d="M 1819.48 567.785 C 1820.27 571.459 1812.43 588.374 1810.53 592.826 C 1821.08 602.014 1841.82 624.691 1852.32 635.605 C 1843.4 648.086 1834.4 660.508 1825.32 672.869 C 1847.01 711.309 1869 749.585 1891.27 787.693 C 1874.08 793.294 1862.44 793.729 1844.76 791.688 C 1828.87 789.2 1811.8 783.152 1796.43 778.076 C 1775.72 771.228 1755.08 764.179 1734.5 756.929 C 1758.34 692.633 1784.03 626.52 1819.48 567.785 z" fill="rgb(247,241,234)" transform="translate(0,0)"></path>
<path d="M 2028.8 467.1 C 2031.67 470.522 2055.52 551.871 2058.23 560.777 C 2043.77 572.086 2029.23 583.3 2014.61 594.417 C 2021.95 606.117 2029.08 618.625 2036.1 630.572 C 2011.96 661.648 1982.24 695.741 1956.85 726.302 C 1949.82 734.776 1940.82 746.201 1933.38 753.916 C 1955.83 662.042 1976.05 569.303 1998.75 477.45 C 2010.62 474.243 2017.65 471.886 2028.8 467.1 z" fill="rgb(247,241,234)" transform="translate(0,0)"></path>
<path d="M 1977.89 545.917 L 1978.76 547.104 C 1978.55 548.753 1978.28 550.394 1977.96 552.025 C 1963.78 620.87 1944.39 692.612 1927.54 760.955 C 1926.08 766.895 1907.3 779.883 1902.03 783.244 C 1901.65 776.337 1900.87 769.155 1900.22 762.24 L 1882.93 568.636 C 1920.66 578.073 1948.35 570.479 1977.89 545.917 z" fill="rgb(231,89,42)" transform="translate(0,0)"></path>
<path d="M 1873.51 520.413 C 1874.49 520.147 1873.79 520.265 1875.63 520.664 C 1876.43 522.914 1899.34 778.889 1898.72 783.822 C 1896.73 785.428 1896.62 785.26 1894.09 785.924 C 1887.79 777.569 1871.13 747.133 1865.09 736.588 C 1852.65 715.722 1841.28 694.047 1828.62 673.168 C 1838.02 660.717 1847.25 648.144 1856.32 635.454 C 1843.23 621.135 1827.71 605.669 1814.05 591.771 C 1823.56 568.746 1832.8 545.614 1841.78 522.379 C 1853.3 522.605 1862.25 521.82 1873.51 520.413 z" fill="rgb(247,241,234)" transform="translate(0,0)"></path>
<path d="M 1689.15 1651.23 C 1707.95 1650.33 1732.6 1651 1751.81 1651.01 L 1859.65 1651.26 C 1835.2 1668.57 1841.7 1687.92 1859.38 1706.54 L 1858.78 1707.49 L 1853.25 1707.63 C 1820 1707.32 1786.74 1707.25 1753.49 1707.42 C 1739.35 1707.48 1692.66 1709.77 1682.22 1704.81 C 1658.96 1693.76 1660.54 1660.87 1689.15 1651.23 z" fill="rgb(247,241,234)" transform="translate(0,0)"></path>
<path d="M 1993.48 479.181 C 1994.49 479.337 1993.88 479.128 1994.96 480.443 C 1990.16 499.796 1985.58 519.203 1981.22 538.661 C 1950.88 566.765 1925.25 574.619 1884.68 566.271 C 1881.3 563.236 1879.79 526.93 1879.08 518.782 C 1908.41 512.852 1910.38 503.844 1930.91 496.569 C 1944.7 491.683 1977.79 483.554 1993.48 479.181 z" fill="rgb(255,255,255)" transform="translate(0,0)"></path>
<path d="M 1729.22 256.449 C 1736.39 276.844 1741.23 291.392 1754.16 309.178 L 1756.85 312.766 L 1763.18 319.373 C 1796.47 318.918 1829.48 316.543 1862.71 314.948 C 1874.63 314.377 1886.62 313.913 1898.48 312.611 C 1887.39 320.499 1876.07 329.621 1865.28 338.031 C 1864.62 337.226 1863.95 336.427 1863.28 335.635 C 1854.88 325.821 1844.64 319.543 1831.49 318.78 C 1820.53 318.077 1809.76 321.845 1801.63 329.223 C 1790.68 339.347 1788.17 349.623 1787.49 363.738 C 1779.41 363.798 1779.45 364.715 1773.67 359.404 L 1772.72 358.523 C 1772.07 360.661 1772.25 361.015 1772.17 363.344 C 1769.58 366.912 1768.6 366.461 1764.08 368.315 C 1753.27 345.523 1736.44 336.192 1711.49 342.797 C 1710.08 332.864 1708.28 321.987 1711.05 312.072 C 1716.27 293.364 1722.88 274.828 1729.22 256.449 z" fill="rgb(255,255,255)" transform="translate(0,0)"></path>
<path d="M 1754.09 315.053 C 1748.85 315.216 1746.84 313.473 1741 314.383 C 1730.98 315.945 1727.1 320.576 1719.78 326.43 C 1719.47 326.678 1718.57 326.179 1718.2 325.958 C 1717.72 323.671 1721.29 321.13 1722.84 319.807 C 1732.45 311.591 1740.88 311.06 1752.58 311.989 L 1753.49 312.056 L 1754.09 315.053 z" fill="rgb(27,23,20)" transform="translate(0,0)"></path>
<path d="M 1754.16 309.178 L 1756.85 312.766 C 1755.9 313.517 1755.02 314.272 1754.09 315.053 L 1753.49 312.056 L 1754.16 309.178 z" fill="rgb(247,241,234)" transform="translate(0,0)"></path>
<path d="M 1826.82 321.537 C 1847.98 320.132 1866.3 336.057 1867.86 357.2 C 1869.42 378.343 1853.63 396.783 1832.5 398.496 C 1811.15 400.226 1792.48 384.236 1790.9 362.874 C 1789.33 341.513 1805.45 322.957 1826.82 321.537 z" fill="rgb(255,255,255)" transform="translate(0,0)"></path>
<path d="M 1820.12 360.869 C 1823.75 360.247 1827.24 362.55 1828.1 366.134 C 1828.95 369.718 1826.88 373.35 1823.36 374.436 C 1820.87 375.203 1818.16 374.523 1816.33 372.67 C 1814.5 370.818 1813.85 368.101 1814.65 365.621 C 1815.44 363.141 1817.55 361.309 1820.12 360.869 z" fill="rgb(27,23,20)" transform="translate(0,0)"></path>
<path d="M 1847.87 349.489 C 1848 349.549 1849.82 350.23 1849.67 350.694 C 1847.71 357.016 1840.51 373.025 1838.08 378.08 C 1837.99 378.056 1835.84 377.635 1836.02 376.979 C 1838.28 368.543 1843.92 357.251 1847.87 349.489 z" fill="rgb(27,23,20)" transform="translate(0,0)"></path>
<path d="M 1853.42 1481.3 C 1877.18 1480.42 1895.53 1497.6 1903.49 1518.65 C 1910.36 1536.78 1910.65 1549.7 1908.41 1568.61 C 1901.77 1561.05 1897.46 1556.58 1890.16 1549.67 C 1867.64 1529.09 1844.87 1523.64 1815.48 1523.85 C 1817.33 1499.59 1828.66 1484.68 1853.42 1481.3 z" fill="rgb(247,241,234)" transform="translate(0,0)"></path>
<path d="M 2025.44 1482.23 C 2075.97 1476.61 2090.2 1528.71 2085.55 1569.43 C 2080.51 1562.95 2076.74 1558.72 2071.08 1552.74 C 2045.93 1530.41 2026.66 1523.72 1993.45 1523.8 C 1994.81 1502.13 2004.68 1488.75 2025.44 1482.23 z" fill="rgb(247,241,234)" transform="translate(0,0)"></path>
<path d="M 1898.82 1503.01 L 1995.07 1503.07 C 1992.25 1511 1991.38 1515.79 1990.71 1524.05 C 1980.59 1525.2 1973.32 1527.16 1963.74 1530.35 C 1941.93 1538.99 1928.63 1548.29 1911.68 1563.97 C 1915.15 1541.31 1910.1 1522.47 1898.82 1503.01 z" fill="rgb(247,241,234)" transform="translate(0,0)"></path>
<path d="M 1721.84 343.328 C 1742.15 343.28 1761.27 355.618 1761.69 377.501 C 1761.9 388.765 1758.81 395.587 1756.23 406.188 C 1752.6 409.945 1751.35 411.264 1747.07 414.374 C 1737.07 420.119 1732.69 420.082 1721.51 419.763 C 1716.84 395.328 1714.22 370.867 1712.29 346.17 C 1712.18 344.7 1721.03 343.466 1721.84 343.328 z" fill="rgb(255,255,255)" transform="translate(0,0)"></path>
<path d="M 1753.5 364.607 C 1753.86 364.931 1755.26 366.064 1755.1 366.542 C 1753.27 372.26 1744.57 390.21 1741.89 394.47 C 1742.22 394.853 1740.36 392.827 1740.43 392.564 C 1741.69 387.45 1751.45 368.087 1753.5 364.607 z" fill="rgb(27,23,20)" transform="translate(0,0)"></path>
<path d="M 1726.21 377.772 C 1727.91 376.896 1729.96 377.008 1731.55 378.065 C 1733.15 379.122 1734.05 380.959 1733.9 382.868 C 1733.76 384.777 1732.6 386.459 1730.86 387.266 C 1728.25 388.48 1725.15 387.383 1723.88 384.798 C 1722.62 382.213 1723.65 379.09 1726.21 377.772 z" fill="rgb(27,23,20)" transform="translate(0,0)"></path>
<path d="M 1390.05 1298.45 C 1396.97 1302.21 1424.13 1310.21 1427.74 1313.09 C 1424.47 1317.06 1420.69 1319.87 1417.28 1323.56 C 1406.76 1334.95 1393.87 1346.23 1377.09 1339.49 C 1370.49 1336.9 1365.26 1331.69 1362.67 1325.09 C 1360.15 1318.8 1360.3 1311.7 1363.19 1305.55 C 1365.54 1300.55 1370.07 1304.66 1377.88 1302.58 C 1383.18 1301.17 1384.73 1300.47 1390.05 1298.45 z" fill="rgb(255,255,255)" transform="translate(0,0)"></path>
<path d="M 1708.56 346.677 C 1710.85 353.23 1711.4 368.442 1712.23 375.988 C 1713.85 390.78 1715.78 404.655 1718.36 419.349 C 1711.39 416.798 1710.72 416.862 1704.01 413.07 C 1679.02 392.675 1683.79 364.492 1708.56 346.677 z" fill="rgb(255,255,255)" transform="translate(0,0)"></path>
<path d="M 1201.43 1140.77 C 1203.38 1137.61 1204.45 1136.74 1208.09 1135.71 L 1211.88 1134.66 C 1212.36 1134.99 1216.03 1137.23 1215.73 1138.07 C 1205.92 1165.63 1193.99 1192.98 1182.8 1220.1 C 1182.78 1220.15 1181.58 1221.56 1181.55 1221.59 C 1175.29 1218.69 1172.54 1218.41 1172.92 1211.1 C 1175.92 1207.67 1199.06 1148.35 1201.43 1140.77 z" fill="rgb(231,89,42)" transform="translate(0,0)"></path>
<path d="M 1517.83 1260.99 C 1523.83 1263.67 1528.72 1269.63 1526.5 1276.55 C 1521.27 1292.9 1514.29 1309.07 1508.08 1325.09 C 1504.45 1333.99 1496.07 1333.78 1488.34 1332.5 C 1498.38 1315.08 1508.04 1277.67 1517.83 1260.99 z" fill="rgb(231,89,42)" transform="translate(0,0)"></path>
<path d="M 1255.32 1156.15 C 1255.55 1156.35 1258.16 1158.43 1257.97 1159.04 C 1249.82 1184.2 1237.54 1208.16 1229.78 1233.52 C 1228.6 1237.38 1227.95 1236.27 1223.65 1236.58 C 1223.47 1235.12 1223.2 1233.37 1223.88 1232.01 C 1229.52 1220.77 1250.39 1162.9 1255.32 1156.15 z" fill="rgb(255,255,255)" transform="translate(0,0)"></path>
<path d="M 1771.15 367.835 C 1777.12 371.079 1766.03 390.964 1763.3 395.279 C 1762.68 395.56 1762.89 395.519 1762.59 395.532 L 1762.46 395.407 C 1762.26 394.679 1765.41 375.935 1764.45 372.576 C 1764.01 371.052 1769.87 368.499 1771.15 367.835 z" fill="rgb(255,255,255)" transform="translate(0,0)"></path>
<path d="M 489.911 753.94 C 490.051 702.979 503.826 659.614 538.597 620.572 C 591.305 561.393 681.058 541.687 754.119 572.459 C 788.573 586.97 828.491 630.305 869.153 629.061 C 887.809 628.491 904.824 612.979 916.334 599.584 C 905.48 638.583 886.696 679.9 859.653 710.207 C 863.672 727.356 864.706 736.105 865.663 753.53 C 873.89 754.177 879.332 754.672 887.164 757.555 C 902.719 763.384 915.3 775.185 922.111 790.335 C 938.324 825.767 920.399 859.299 886.383 874.455 C 904.301 877.641 916.452 881.623 930.41 894.14 C 944.899 907.116 953.591 925.351 954.548 944.777 C 955.305 963.509 948.908 982.34 935.47 995.402 C 931.719 999.048 925.138 1004.45 922.294 1007.58 L 921.317 1008.67 C 983.646 1041.53 1026 1116.27 1046.22 1181.48 C 1047.57 1185.85 1048.89 1190.23 1050.17 1194.62 C 1070.16 1196.06 1072.52 1202.81 1079.01 1219.45 C 1083.91 1218.84 1087.36 1215.06 1091.69 1214.15 C 1113.32 1209.6 1124.61 1225.2 1124.37 1243.95 C 1131.52 1245.04 1136.31 1235.72 1151.01 1241.63 C 1180.46 1253.47 1161.78 1286.98 1152.86 1307.57 C 1176.43 1307.26 1195.09 1305.55 1213.63 1323.91 C 1224.23 1334.55 1230.17 1348.97 1230.15 1363.99 C 1230.09 1378.8 1224.08 1392.95 1213.48 1403.27 C 1193.22 1422.98 1170.11 1419.49 1144.1 1419.43 L 1087.61 1419.26 C 1051.89 1477.44 995.662 1467.93 936.853 1467.76 C 909.151 1539.99 854.534 1590.92 785.713 1623.69 L 1181 1623.86 C 1184.07 1611.76 1188.76 1595.32 1200.17 1588.45 C 1213.45 1580.48 1226.1 1589.3 1232.37 1601.88 C 1240.1 1617.4 1243.59 1636 1244 1654.05 C 1244.63 1681.44 1245.47 1730.86 1219.45 1747.64 C 1204.55 1757.26 1190.7 1738.86 1185.5 1725.21 C 1184.01 1721.26 1182.74 1717.24 1181.7 1713.15 L 738.111 1713.1 L 738.267 1750.36 C 684.046 1751 624.101 1751.1 569.879 1750.28 L 569.78 1713.2 L 146.394 1713.13 C 142.271 1726.61 138.591 1740.22 125.408 1747.58 C 109.956 1756.21 97.484 1739.93 92.6926 1726.8 C 82.4403 1698.71 82.4212 1663.51 86.1457 1634.15 C 88.5435 1615.24 99.6771 1575.19 126.204 1587.67 C 137.838 1593.21 144.666 1611.8 146.755 1623.96 L 527.414 1623.66 C 457.786 1589.26 405.937 1540.39 375.696 1467.67 C 328.422 1467.91 283.569 1474.82 247.532 1439.16 C 241.53 1433.26 236.294 1426.63 231.948 1419.42 L 179.545 1419.43 C 152.07 1419.57 124.327 1424.33 103.198 1403.07 C 92.5641 1392.49 86.704 1378.02 86.9691 1363.02 C 87.2409 1347.73 93.0785 1333.58 104.202 1323.01 C 125.143 1303.1 151.488 1308.25 177.843 1307.68 C 170.119 1288.6 149.239 1252.72 179.56 1241.24 C 189.581 1237.44 196.362 1239.21 205.614 1243.62 C 205.878 1234.44 206.573 1228.57 213.785 1221.47 C 218.618 1216.75 225.154 1214.19 231.905 1214.37 C 239.46 1214.5 244.729 1217.22 250.727 1221.58 C 255.533 1203.47 261.891 1196.68 281.472 1195.99 C 303.313 1127.06 344.346 1048.57 410.319 1010.31 C 410.6 1010.17 410.881 1010.03 411.162 1009.9 C 359.684 970.512 369.622 903.406 431.2 880.902 C 439.574 877.842 447.871 876.934 456.664 875.747 C 446.01 871.58 437.438 867.55 429.163 859.348 C 417.37 847.696 410.827 831.746 411.04 815.169 C 411.148 798.868 417.787 783.292 429.472 771.926 C 447.759 754.153 466.386 753.603 489.911 753.94 z" fill="rgb(27,23,20)" transform="translate(0,0)"></path>
<path d="M 635.426 683.539 C 637.074 684.993 641.012 690.257 642.86 692.28 C 648.522 698.479 655.47 706.414 662.159 711.563 C 699.203 740.08 751.671 757.255 798.175 746.797 C 807.566 744.685 815.737 741.693 824.657 738.074 C 826.184 738.442 827.47 738.752 828.517 739.004 L 830.03 738.076 L 829.681 734.969 C 844.299 725.183 843.825 726.678 857.61 713.069 C 864.833 745.997 862.453 776.056 862.798 809.553 C 862.996 828.796 863.536 853.529 861.053 872.003 C 858.839 888.549 854.354 904.71 847.724 920.03 C 827.22 968.097 791.811 1003.15 743.26 1022.58 C 713.272 1033.51 685.79 1037.85 653.806 1033.87 C 605.103 1027.89 560.766 1002.83 530.531 964.181 C 494.36 917.475 490.622 872.037 491.897 816.038 C 492.432 792.56 491.179 778.179 494.293 753.648 C 551.218 758.309 617.671 746.382 635.426 683.539 z" fill="rgb(255,255,255)" transform="translate(0,0)"></path>
<path d="M 733.536 767.361 L 735.21 768.291 C 735.972 771.155 730.416 785.16 729.966 790.516 C 727.783 816.507 738.376 815.468 759.502 816.984 C 761.505 827.71 764.593 847.403 755.723 855.954 C 749.514 861.939 742.21 861.403 734.191 861.341 C 733.257 859.757 733.459 860.657 733.871 858.59 C 738.19 857.517 741.352 858.603 745.43 857.913 C 762.917 854.954 758.525 831.49 756.903 819.48 C 748.457 819.265 744.457 819.155 736.25 817.614 C 719.971 801.563 726.858 785.426 733.536 767.361 z" fill="rgb(27,23,20)" transform="translate(0,0)"></path>
<path d="M 598.287 778.697 C 602.726 781.63 599.878 782.161 601.109 787.994 C 609.481 827.666 666.553 824.895 670.054 783.973 C 670.259 781.576 670.552 777.292 673.507 780.953 C 672.766 789.474 672.543 794.49 667.519 802.031 C 652.582 824.448 620.09 825.774 604.093 802.943 C 599.083 795.922 597.001 787.226 598.287 778.697 z" fill="rgb(27,23,20)" transform="translate(0,0)"></path>
<path d="M 757.136 779.283 C 757.147 779.287 759.002 779.946 759.013 779.957 C 761.299 784.032 759.857 788.632 762.451 794.594 C 776.051 825.853 820.296 822.535 827.996 788.983 C 828.451 787.001 827.889 780.612 829.996 779.951 C 830.986 780.171 831.109 780.508 831.906 781.332 C 827.291 834.846 757.251 829.791 757.136 779.283 z" fill="rgb(27,23,20)" transform="translate(0,0)"></path>
<path d="M 670.62 874.404 C 676.345 876.568 675.681 884.464 681.778 891.112 C 693.334 903.712 707.087 908.957 724.209 907.558 C 729.812 907.1 733.333 903.886 736.498 907.818 C 710.287 917.503 675.933 903.341 670.62 874.404 z" fill="rgb(27,23,20)" transform="translate(0,0)"></path>
<path d="M 633.228 727.396 C 644.374 726.92 655.874 728.286 665.237 734.735 C 669.692 737.804 665.689 739.72 661.027 735.794 C 657.696 732.989 647.34 730.945 642.807 730.128 C 633.223 730.121 631.373 730.294 622.018 733.143 C 619.863 732.769 611.22 740.316 609.977 739.108 C 605.033 734.308 630.294 727.86 633.228 727.396 z" fill="rgb(27,23,20)" transform="translate(0,0)"></path>
<path d="M 649.743 1073.47 C 757.35 1069.53 866.312 1130.54 919.457 1223.62 C 924.345 1232.19 928.687 1240.9 933.039 1249.74 C 940.32 1249.08 950.616 1249.74 958.141 1250 C 954.264 1260.93 953.305 1271.01 961.1 1280.64 C 965.518 1286.08 971.939 1289.51 978.915 1290.16 C 988.66 1291.01 994.828 1287.68 1001.74 1281.62 C 1011.21 1306.31 1029.32 1310.71 1050.1 1295.06 C 1053.76 1312.71 1063.57 1318.47 1080.66 1319.32 C 1091.48 1335.23 1097.22 1352.43 1097.15 1371.75 C 1097.15 1396.23 1087.4 1419.71 1070.07 1436.99 C 1042.38 1464.44 1015.79 1465.02 980.152 1464.97 L 934.955 1464.84 C 931.216 1475.85 922.831 1492.48 916.867 1502.57 C 875.103 1573.23 813.45 1616.92 734.88 1637.8 C 731.7 1625.86 727.368 1618.88 720.551 1608.76 C 807.601 1591.61 882.796 1524.33 911.045 1440.61 C 916.444 1424.62 919.55 1409.27 922.384 1392.67 C 932.407 1392.75 946.704 1394.48 954.371 1387.13 C 964.362 1377.56 965.581 1360.04 955.27 1350.15 C 945.784 1341.06 935.033 1342.35 923.147 1342.6 C 917.509 1285.36 897.777 1237.59 859.219 1194.46 C 811.413 1141.32 744.602 1109.15 673.25 1104.9 C 606.874 1101.05 541.348 1121.35 488.766 1162.04 C 428.016 1209.79 399.973 1266.96 390.78 1342.52 L 387.415 1342.49 C 368.869 1342.33 347.193 1342.62 347.8 1368.64 C 347.913 1375.33 350.722 1381.69 355.592 1386.27 C 365.017 1395.11 379.214 1392.73 391.799 1392.44 C 408.464 1501.77 481.378 1579.68 587.674 1607.9 C 580.018 1618.98 577.819 1623.8 573.08 1636.5 C 554.113 1630.61 543.023 1627.13 524.744 1618.88 C 462.571 1590.83 401.533 1529.52 378.142 1464.71 C 340.515 1464.87 298.678 1470.22 266.684 1450.35 C 245.259 1437.32 230.076 1416.11 224.64 1391.63 C 218.219 1362.7 225.404 1340.36 240.665 1316.25 C 261.443 1321.73 274.276 1316.19 279.33 1294.45 C 299.778 1308.91 320.222 1303.6 325.823 1278.22 C 335.376 1284.68 345.664 1288.53 356.673 1283.18 C 371.145 1276.14 372.587 1264.65 370.778 1250.94 C 373.56 1249.43 377.634 1250.03 381.179 1250.06 C 431.485 1141.56 530.744 1078.25 649.743 1073.47 z" fill="rgb(231,89,42)" transform="translate(0,0)"></path>
<path d="M 656.463 1107.45 C 794.84 1109.64 904.683 1203.43 920.344 1342.62 L 843.254 1342.51 C 831.838 1251.07 763.898 1183.06 670.803 1175.98 C 666.604 1175.66 662.392 1175.47 658.186 1175.25 C 557.58 1178.17 482.62 1241.26 470.723 1342.51 L 393.855 1342.42 C 396.184 1323.8 398.351 1307.38 404.041 1289.39 C 440.239 1174.91 540.478 1111.46 656.463 1107.45 z" fill="rgb(231,89,42)" transform="translate(0,0)"></path>
<path d="M 395.235 1392.49 L 471.995 1392.46 C 477.171 1419.76 488.59 1445.49 505.361 1467.64 C 535.537 1507.31 580.314 1533.27 629.73 1539.74 C 680.812 1547 732.67 1533.47 773.694 1502.18 C 806.997 1476.53 834.765 1434.8 840.397 1392.65 C 866.693 1392.39 893.329 1392.65 919.652 1392.7 C 914.621 1419.65 910.116 1438.22 898.692 1463.3 C 894.5 1472.22 889.81 1480.9 884.645 1489.3 C 845.856 1552.49 789.665 1589.31 718.428 1606.46 C 683.257 1566 626.527 1566.92 590.253 1605.62 C 544.465 1594.01 506.885 1574.79 472.27 1542.12 C 438.086 1510.22 413.433 1469.45 401.061 1424.35 C 398.72 1415.75 395.485 1401.22 395.235 1392.49 z" fill="rgb(231,89,42)" transform="translate(0,0)"></path>
<path d="M 814.442 977.92 C 822.376 974.064 863.771 985.998 874.184 989.629 C 889.802 995.103 904.853 1002.08 919.124 1010.46 C 988.364 1054.6 1025.19 1116.07 1047 1194.37 C 1038.33 1197.73 1035.99 1199.26 1029.24 1205.97 C 1026.79 1197.69 1022.71 1188.69 1014.44 1185.29 C 990.965 1175.62 979.567 1193.73 973.873 1211.62 C 954.028 1213.09 945.843 1229.59 954.294 1247.06 C 947.988 1246.88 941.028 1246.54 934.787 1246.83 C 925.028 1227.15 913.649 1140.44 906.665 1133.63 C 906.826 1141.42 910.479 1156.53 912.248 1164.8 L 923.008 1215.04 L 919.704 1218.26 C 872.038 1141.97 810.356 1100.59 724.133 1077.85 C 710.461 1074.98 695.445 1072.88 681.552 1071.18 C 710.496 1065.82 735.587 1057.41 757.571 1036.63 C 763.201 1031.31 779.371 1013.74 780.795 1006.56 C 794.032 996.632 802.592 989.409 814.442 977.92 z" fill="rgb(247,178,135)" transform="translate(0,0)"></path>
<path d="M 780.795 1006.56 C 794.032 996.632 802.592 989.409 814.442 977.92 C 803.322 1016.06 784.343 1046.53 749.11 1067.54 C 742.296 1071.6 730.109 1074.45 724.133 1077.85 C 710.461 1074.98 695.445 1072.88 681.552 1071.18 C 710.496 1065.82 735.587 1057.41 757.571 1036.63 C 763.201 1031.31 779.371 1013.74 780.795 1006.56 z" fill="rgb(231,89,42)" transform="translate(0,0)"></path>
<path d="M 880.745 1626.49 L 1180.46 1626.72 C 1175.93 1656.22 1175.48 1680.39 1181.34 1709.99 L 1041.5 1710.08 L 738.037 1710.05 C 738.08 1691.3 739.375 1657.92 735.853 1640.63 C 749.988 1636.84 765.225 1631.03 778.564 1627.58 C 785.339 1625.83 809.271 1626.45 817.952 1626.49 C 838.882 1626.66 859.814 1626.66 880.745 1626.49 z" fill="rgb(231,89,42)" transform="translate(0,0)"></path>
<path d="M 414.453 1010.64 C 417.566 1009.51 423.189 1006.25 426.292 1004.62 C 456.835 988.609 488.011 981.428 522.272 977.5 C 526.176 983.948 529.397 999.038 532.896 1007.06 C 544.191 1032.93 561.24 1052.85 586.506 1065.92 C 592.23 1069.04 602.41 1072.7 606.002 1074.76 C 525.292 1089.68 455.993 1130.09 407.834 1197.35 C 410.246 1187.73 422.4 1137.58 420.207 1131.32 C 416.737 1134.92 407.194 1195.46 404.083 1201.37 C 397.13 1214.6 385.587 1233.72 378.022 1246.5 L 376.417 1246.58 C 373.481 1240.87 380.816 1231.46 373.834 1222.83 C 367.382 1214.85 364.356 1213.06 354.415 1211.53 C 353.116 1208.1 350.801 1200.89 349.011 1198.03 C 331.789 1170.52 306.651 1176.81 298.055 1205.44 C 293.101 1200.23 290.667 1199.2 284.317 1196.5 C 309.413 1119.03 345.271 1055.55 414.453 1010.64 z" fill="rgb(247,178,135)" transform="translate(0,0)"></path>
<path d="M 299.745 1626.49 L 460.047 1626.72 C 482.877 1626.7 510.544 1625.67 532.998 1627.14 C 537.997 1627.47 562.958 1636.72 572.004 1638.97 C 567.916 1655.46 569.625 1692.06 569.871 1710.31 L 419.75 1710.08 L 146.595 1710.03 C 152.29 1685.37 151.858 1651.44 147.453 1626.6 L 299.745 1626.49 z" fill="rgb(231,89,42)" transform="translate(0,0)"></path>
<path d="M 650.452 1579.39 C 672.99 1578.41 694.639 1586.61 710.836 1602.45 C 737.775 1628.79 735.104 1656.25 735.072 1691.06 C 734.977 1709.91 735.047 1728.75 735.281 1747.6 C 710.011 1748.07 683.802 1747.71 658.5 1747.65 L 572.879 1747.56 C 572.931 1729.12 572.786 1710.68 572.444 1692.24 C 572.073 1659.34 569.526 1635.07 592.049 1607.54 C 607.218 1589.01 626.923 1581.44 650.452 1579.39 z" fill="rgb(231,89,42)" transform="translate(0,0)"></path>
<path d="M 650.206 1178.42 C 692.607 1176.64 734.309 1189.65 768.173 1215.23 C 811.359 1248.28 833.008 1289.35 840.012 1342.4 C 822.833 1342.54 805.653 1342.52 788.475 1342.36 C 777.066 1278.58 730.44 1236.38 665.882 1230.93 C 593.813 1228.84 537.179 1270.24 525.155 1342.65 C 508.007 1342.49 490.859 1342.46 473.712 1342.55 C 484.263 1247.33 555.741 1184.25 650.206 1178.42 z" fill="rgb(231,89,42)" transform="translate(0,0)"></path>
<path d="M 643.611 1277.5 C 690.554 1270.47 734.286 1302.88 741.207 1349.84 C 748.128 1396.8 715.609 1440.46 668.634 1447.27 C 621.813 1454.06 578.329 1421.67 571.43 1374.87 C 564.532 1328.06 596.821 1284.5 643.611 1277.5 z" fill="rgb(231,89,42)" transform="translate(0,0)"></path>
<path d="M 647.319 1310.92 C 675.404 1305.92 702.233 1324.61 707.279 1352.69 C 712.325 1380.76 693.682 1407.62 665.614 1412.72 C 637.477 1417.82 610.538 1399.13 605.48 1370.98 C 600.422 1342.84 619.165 1315.93 647.319 1310.92 z" fill="rgb(27,23,20)" transform="translate(0,0)"></path>
<path d="M 474.961 1392.65 L 526.865 1392.56 C 529.216 1403.13 532.988 1413.32 538.08 1422.87 C 554.701 1454.81 583.563 1478.64 618.067 1488.91 C 683.522 1508.71 756.136 1473.87 780.9 1410.1 C 783.142 1404.32 784.913 1398.53 786.707 1392.61 L 837.561 1392.73 C 835.182 1407.09 832.267 1415.59 827.012 1428.81 C 823.662 1436.42 819.818 1443.81 815.506 1450.92 C 789.667 1492.8 748.14 1522.58 700.193 1533.64 C 650.841 1545.22 598.906 1536.64 555.905 1509.79 C 512.604 1482.3 486.084 1442.32 474.961 1392.65 z" fill="rgb(231,89,42)" transform="translate(0,0)"></path>
<path d="M 641.693 1234.35 C 694.187 1230.07 740.366 1250.47 768.795 1296.04 C 778.305 1311.28 781.772 1325.1 785.681 1342.29 C 771.78 1342.51 757.876 1342.52 743.975 1342.32 C 741.627 1333.38 737.993 1324.82 733.187 1316.92 C 719.526 1294.69 698.792 1282.17 673.838 1276.28 C 623.861 1266.68 583.381 1295.67 568.426 1342.73 L 528.315 1342.75 C 536.294 1282.89 583.077 1242.2 641.693 1234.35 z" fill="rgb(231,89,42)" transform="translate(0,0)"></path>
<path d="M 232.838 1309.8 L 238.269 1314.8 C 215.859 1347.7 213.309 1380.71 230.475 1416.5 C 202.508 1416.6 174.369 1416.89 146.404 1416.83 C 127.318 1416.79 114.534 1410.69 101.573 1397.04 C 94.0792 1386.74 90.2082 1378.07 89.9598 1364.99 C 89.5905 1350.85 94.9146 1337.15 104.737 1326.98 C 125.187 1305.89 151.545 1311.02 179.131 1310.59 C 183.053 1321.91 188.121 1331.66 200.886 1334.63 C 207.824 1336.27 215.132 1334.93 221.038 1330.94 C 228.952 1325.56 231.25 1318.51 232.838 1309.8 z" fill="rgb(231,89,42)" transform="translate(0,0)"></path>
<path d="M 1151.28 1310.77 C 1174.27 1310.37 1192.37 1308.04 1210.72 1325.22 C 1220.82 1334.67 1227.1 1349.35 1227.13 1363.21 C 1227.08 1377.41 1221.44 1391.03 1211.43 1401.1 C 1194.96 1417.52 1177.35 1416.62 1156.06 1416.56 L 1125.28 1416.6 L 1089.36 1416.46 C 1104.6 1382.1 1104.41 1350.84 1083.85 1318.68 C 1087.75 1317.17 1092.47 1314.36 1096.62 1312.5 C 1099.22 1331.77 1113.96 1341.96 1133.47 1334.84 C 1143.83 1331.05 1147.81 1320.45 1151.28 1310.77 z" fill="rgb(231,89,42)" transform="translate(0,0)"></path>
<path d="M 741.064 1392.39 C 755.115 1392.67 769.368 1392.63 783.437 1392.71 C 776.797 1414.33 770.852 1426.6 756.931 1444.42 C 736.959 1466.15 718.009 1479.45 688.993 1486.97 C 654.958 1495.96 618.733 1490.7 588.661 1472.4 C 559.242 1454.72 538.098 1426.03 529.925 1392.7 C 542.872 1392.75 555.819 1392.67 568.765 1392.47 C 573.561 1392.68 574.096 1398.71 576.636 1403.32 C 586.001 1420.3 599.872 1433.29 617.236 1441.38 C 639.513 1451.93 665.108 1453.04 688.209 1444.44 C 713.86 1434.86 729.953 1416.71 741.064 1392.39 z" fill="rgb(231,89,42)" transform="translate(0,0)"></path>
<path d="M 369.078 1345.37 L 568.025 1345.43 C 565.135 1360.45 566.381 1375.23 570.631 1389.81 L 551.75 1389.86 C 527.674 1389.75 371.643 1391.88 362.438 1387.58 C 357.508 1385.27 353.995 1381.06 352.244 1375.94 C 350.152 1369.83 350.478 1362.52 353.609 1356.82 C 357.128 1350.42 362.189 1347.18 369.078 1345.37 z" fill="rgb(231,89,42)" transform="translate(0,0)"></path>
<path d="M 744.666 1345.05 L 875.224 1345.39 C 896.218 1345.39 918.554 1344.64 939.388 1345.85 C 961.069 1347.11 964.29 1370.95 951.238 1385.99 C 947.562 1388.2 944.589 1389.37 940.223 1389.51 C 918.476 1390.25 896.006 1389.84 874.24 1389.82 L 741.933 1389.7 C 746.754 1374.35 746.893 1360.75 744.666 1345.05 z" fill="rgb(231,89,42)" transform="translate(0,0)"></path>
<path d="M 522.272 977.5 L 536.246 975.693 C 538.729 978.25 546.606 985.98 548.443 988.345 C 617.243 1047.09 703.731 1055.8 780.795 1006.56 C 779.371 1013.74 763.201 1031.31 757.571 1036.63 C 735.587 1057.41 710.496 1065.82 681.552 1071.18 L 674.173 1070.79 C 647.475 1070.55 632.302 1070.52 606.002 1074.76 C 602.41 1072.7 592.23 1069.04 586.506 1065.92 C 561.24 1052.85 544.191 1032.93 532.896 1007.06 C 529.397 999.038 526.176 983.948 522.272 977.5 z" fill="rgb(255,255,255)" transform="translate(0,0)"></path>
<path d="M 522.272 977.5 L 536.246 975.693 C 538.729 978.25 546.606 985.98 548.443 988.345 C 552.945 1025.3 610.649 1067.4 645.911 1070.06 C 654.74 1070.73 664.911 1069.34 674.173 1070.79 C 647.475 1070.55 632.302 1070.52 606.002 1074.76 C 602.41 1072.7 592.23 1069.04 586.506 1065.92 C 561.24 1052.85 544.191 1032.93 532.896 1007.06 C 529.397 999.038 526.176 983.948 522.272 977.5 z" fill="rgb(231,89,42)" transform="translate(0,0)"></path>
<path d="M 1207.2 1588.09 C 1238.52 1588.08 1241.65 1645.41 1241.29 1667.51 C 1240.89 1691.99 1239.73 1735.37 1213.79 1746.94 C 1184.95 1747.42 1180.37 1693.8 1179.98 1673.65 C 1179.49 1648.74 1180.38 1600.32 1207.2 1588.09 z" fill="rgb(231,89,42)" transform="translate(0,0)"></path>
<path d="M 114.18 1588.13 C 125.987 1588.38 132.207 1594.14 137.316 1604.53 C 152.486 1635.37 155.638 1729.41 120.777 1746.87 C 90.6093 1748.05 86.99 1692.86 86.9475 1671.94 C 86.8946 1645.96 87.66 1601.5 114.18 1588.13 z" fill="rgb(231,89,42)" transform="translate(0,0)"></path>
<path d="M 465.136 757.274 C 472.963 756.54 482.722 756.851 490.725 756.889 C 487.339 785.475 487.532 845.875 490.665 874.737 C 473.208 875.073 465.664 875.465 449.174 869.432 C 446.34 867.998 443.564 866.45 440.854 864.793 C 428.207 856.966 418.833 843.503 415.53 829.023 C 412.082 813.669 414.901 797.574 423.362 784.305 C 433.61 768.175 447.137 761.265 465.136 757.274 z" fill="rgb(255,255,255)" transform="translate(0,0)"></path>
<path d="M 865.538 756.049 C 881.434 758.066 893.604 761.292 905.462 772.619 C 931.349 797.346 930.895 832.372 906.997 857.787 C 894.321 870.182 880.851 874.398 863.62 874.515 C 867.52 844.685 865.638 787.98 865.538 756.049 z" fill="rgb(255,255,255)" transform="translate(0,0)"></path>
<path d="M 1044.36 1198.19 C 1068.17 1194.68 1080.13 1210.02 1072.13 1232.79 C 1067.69 1243.76 1063.52 1254.84 1059.14 1265.83 C 1052.53 1282.39 1052.43 1292.19 1035.61 1300.41 C 1017.69 1303.36 1009.65 1295.45 1004.39 1279.26 C 1004.46 1278.97 1004.91 1277.16 1004.99 1276.94 C 1013.8 1254.13 1022.03 1224.87 1035.18 1204.61 C 1036.57 1202.47 1042.11 1199.45 1044.36 1198.19 z" fill="rgb(255,255,255)" transform="translate(0,0)"></path>
<path d="M 1001.98 1185.22 C 1018.12 1186.2 1030.08 1199.4 1024.94 1215.05 C 1018.46 1234.82 1008.93 1256.73 1001.21 1276.35 C 998.63 1282.92 990.244 1285.64 983.958 1287.3 C 940.872 1284.34 963.52 1245.33 972.453 1222.04 C 979.392 1203.94 981.456 1189.66 1001.98 1185.22 z" fill="rgb(255,255,255)" transform="translate(0,0)"></path>
<path d="M 1093.34 1216.21 C 1129.71 1214.79 1122.93 1247.7 1111.35 1269.51 C 1101.45 1288.17 1104.23 1307.73 1081.84 1315.82 C 1039.91 1318.6 1055.31 1278.07 1066.15 1256.3 C 1074.3 1239.94 1072.85 1222.9 1093.34 1216.21 z" fill="rgb(255,255,255)" transform="translate(0,0)"></path>
<path d="M 274.06 1199.31 C 294.454 1198.07 297.71 1210.02 304.31 1226.15 C 309.391 1238.16 313.743 1250.85 318.719 1262.84 C 325.961 1280.28 322.738 1292.36 303.94 1299.35 C 283.274 1299.94 279.675 1290.14 272.809 1273.21 C 267.412 1260.21 262.568 1246.84 257.392 1233.77 C 250.68 1216.84 256.208 1204.55 274.06 1199.31 z" fill="rgb(255,255,255)" transform="translate(0,0)"></path>
<path d="M 320.275 1184.13 C 333.474 1183.37 342.157 1188.29 347 1200.78 C 354.291 1219.59 363.796 1238.93 368.692 1258.46 C 371.478 1269.58 359.781 1278.46 351.065 1282.45 C 328.594 1284.7 323.044 1269.47 316.825 1250.67 C 309.35 1228.07 286.117 1195.64 320.275 1184.13 z" fill="rgb(255,255,255)" transform="translate(0,0)"></path>
<path d="M 227.181 1217.25 C 248.986 1215.46 252.114 1228.94 259.193 1246.32 C 264.219 1258.66 269.216 1271.15 273.686 1283.83 C 279.019 1298.96 273.281 1309.47 258.237 1315.43 C 233.338 1318.15 228.645 1296.52 221.367 1277.32 C 213.015 1255.29 196.115 1229.3 227.181 1217.25 z" fill="rgb(255,255,255)" transform="translate(0,0)"></path>
<path d="M 1133.86 1243.26 C 1159.75 1239.59 1170.61 1259.95 1160.32 1281.46 C 1152.36 1298.12 1147.86 1325.52 1130.21 1333.41 C 1119.7 1335.18 1107.65 1333.48 1102.65 1322.56 C 1095.79 1306.76 1107.78 1287.75 1113.07 1272.65 C 1117.28 1260.65 1121.94 1248.76 1133.86 1243.26 z" fill="rgb(255,255,255)" transform="translate(0,0)"></path>
<path d="M 185.487 1242.1 C 194.883 1241.68 197.993 1243.08 205.559 1247.79 C 213.182 1259.66 218.627 1279.87 224.82 1293.1 C 232.858 1310.27 229.882 1325.4 210.892 1332.02 C 188.97 1333.39 184.878 1319.15 178.389 1301.21 C 170.406 1279.13 152.671 1253 185.487 1242.1 z" fill="rgb(255,255,255)" transform="translate(0,0)"></path>
<path d="M 967.722 1214.68 C 971.231 1214.99 972.279 1214.88 970.793 1218.4 C 966.661 1228.22 963.34 1238.48 959.332 1248.32 C 949.908 1237.18 952.293 1224.15 964.686 1216.52 L 967.722 1214.68 z" fill="rgb(255,255,255)" transform="translate(0,0)"></path>
<path d="M 355.625 1214.41 C 372.362 1217.99 376.741 1229.28 371.886 1244.73 C 371.57 1244.9 369.214 1246.39 368.958 1245.92 C 363.936 1236.79 359.722 1224.31 355.625 1214.41 z" fill="rgb(255,255,255)" transform="translate(0,0)"></path>
<path d="M 919.704 1218.26 L 923.008 1215.04 L 926.024 1229.57 C 923.865 1225.72 921.949 1222.08 919.704 1218.26 z" fill="rgb(234,187,155)" transform="translate(0,0)"></path>
<metadata><recraft-signature>{"signed_by": "recraft", "signature_b64": "z+4BNZVYPuNGhUSsMLM/15P2w6FcJVqOf45q6rgtwM7zqL/8DEcfQzuHFF4N69Z396UMcK7GLbLzs/5VtJKLCw==", "signing_algo": "Ed25519", "generation_timestamp": 1783393617, "identifier": "e55f1424-a328-43d7-be0e-224f310907be"}</recraft-signature></metadata></svg>