<svg xmlns="http://www.w3.org/2000/svg" height="1792" preserveAspectRatio="none" style="display: block;" version="1.1" viewBox="0 0 2432 1792" width="2432">
<path d="M 0 0 L 2432 0 L 2432 1792 L 0 1792 L 0 0 z" fill="rgb(255,255,255)" transform="translate(0,0)"></path>
<path d="M 858.688 1010.47 C 827.991 990.219 807.47 969.226 790.519 936.211 C 785.336 924.226 774.736 904.302 779.258 891.057 C 783.143 879.674 798.374 873.819 809.071 878.95 C 820.258 884.316 821.787 895.947 826.231 906.218 C 840.076 938.22 865.856 964.673 896.248 981.399 C 905.509 986.462 917.71 991.262 927.456 995.333 C 961.9 990.54 995.579 987.765 1030.38 989.608 C 1046.52 990.463 1062.62 992.641 1078.72 993.898 C 1085.1 994.397 1095.44 990.107 1101.45 987.424 C 1132.36 973.663 1158.09 950.433 1174.93 921.09 C 1177.59 916.466 1183.65 905.179 1184.81 899.428 C 1188.91 879.128 1211.72 868.938 1226.21 886.438 C 1235.64 897.835 1225.58 917.836 1220.53 930.201 C 1206.37 964.887 1182.45 988.839 1152.33 1010.08 C 1187.23 1019.62 1217.9 1031.52 1250.98 1045.78 C 1289.11 1035.87 1321.1 1018.89 1348.98 990.697 C 1359.97 979.585 1368.5 960.856 1386.6 966.068 C 1392.44 967.72 1397.37 971.644 1400.28 976.962 C 1414.49 1003.21 1354.24 1047.51 1336.64 1058.93 C 1327.35 1064.96 1315.92 1070.51 1305.91 1075.29 C 1337.58 1090.59 1377.26 1124.79 1405.31 1146.05 C 1446.16 1138.76 1484.9 1126.65 1518.79 1101.7 C 1528.57 1094.5 1539.73 1086.12 1551.96 1092.99 C 1557.24 1095.93 1561.11 1100.86 1562.72 1106.68 C 1567.02 1122.76 1551.01 1133.26 1540.15 1141.18 C 1511.39 1162.18 1478.84 1176.68 1444.21 1184.74 C 1448.43 1189.63 1452.8 1194.39 1457.32 1199.01 C 1471.84 1198.11 1491.24 1198.68 1506.09 1198.71 L 1588.52 1198.81 L 1652.19 1198.85 C 1672.31 1198.87 1705.13 1192.55 1705.67 1221 C 1705.83 1227.01 1703.54 1232.83 1699.32 1237.12 C 1694.4 1242.03 1687.1 1242.18 1680.55 1242.54 C 1686.1 1281.58 1677.26 1317 1653.49 1348.73 C 1641.92 1363.96 1627.85 1377.12 1611.89 1387.66 C 1605.22 1392 1585.84 1401.95 1585.1 1409.84 C 1588.64 1417.93 1599.45 1424.37 1606.85 1429 C 1658.54 1461.38 1690.42 1512.42 1679.66 1575.92 C 1694.22 1575.82 1706.11 1579.72 1706.79 1597.9 C 1707.07 1605.29 1704.26 1611.04 1699.83 1616.93 C 1711.5 1617.12 1781.99 1615.48 1786.82 1618.9 L 1785.73 1620.54 C 1777.99 1621.51 1755.76 1620.95 1747.2 1620.95 L 1668.96 1620.92 L 1418.14 1620.96 C 1402.87 1620.96 1320.38 1622.18 1311.42 1619.21 L 1311.48 1618.25 C 1318.13 1616.32 1385.98 1617.1 1397.96 1617.03 C 1390.39 1608.8 1390.18 1605.9 1390.67 1594.5 C 1390.78 1591.95 1390.92 1589.4 1391.09 1586.86 C 1398.26 1577.44 1402.75 1575.4 1414.96 1575.84 C 1404.22 1523.99 1431.46 1469.93 1473.08 1439.51 C 1479.81 1434.59 1521.17 1412.02 1507.69 1403 C 1491.81 1392.37 1477.36 1383.82 1462.62 1370.98 C 1437.98 1402.59 1382.93 1445.16 1349.2 1466.82 C 1210.32 1556.16 1041.68 1586.81 880.24 1552.07 C 746.225 1522.93 626.469 1448.2 541.392 1340.63 C 525.641 1320.79 513.551 1302.15 499.937 1280.94 C 517.264 1249.75 546.508 1211.64 570.156 1185.18 C 534.366 1177.57 502.226 1163.39 472.122 1142.69 C 461.126 1135.12 444.335 1125.06 446.673 1109.5 C 447.565 1103.33 450.944 1097.78 456.025 1094.15 C 472.981 1082.15 494.715 1105.46 510.68 1113.88 C 543.533 1131.2 573.986 1140.39 610.402 1146.1 C 642.936 1117.51 669.136 1098.59 705.639 1076.16 C 670.689 1061.07 640.551 1040.12 616.607 1010.22 C 610.718 1002.86 604.015 993.5 605.506 983.556 C 607.587 969.677 624.178 960.443 636.806 967.299 C 644.538 971.935 651.608 983.285 658.335 990.132 C 686.789 1018.58 723.045 1037.95 762.512 1045.78 C 767.143 1044.08 772.272 1041.92 776.81 1039.89 C 803.706 1027.86 830.573 1019.03 858.688 1010.47 z" fill="rgb(27,23,20)" transform="translate(0,0)"></path>
<path d="M 505.82 1280.58 C 612.655 1098.06 841.964 977.753 1052.84 996.276 C 1193.29 1008.61 1358.6 1090.08 1449.42 1198.97 C 1438.25 1198.75 1405.84 1195.59 1398.42 1204.47 C 1384.59 1221.01 1393.96 1241.83 1417.13 1242.99 C 1416.34 1250.99 1415.9 1256.92 1415.8 1264.93 C 1406.51 1279.5 1395.26 1288.59 1378.04 1292.49 C 1362.38 1296.12 1345.91 1293.21 1332.44 1284.43 C 1321.65 1277.46 1312.92 1266.92 1308.87 1254.63 C 1307.55 1250.63 1306.95 1246.24 1304.51 1243.11 C 1297.62 1249.01 1312.91 1272.09 1317.88 1277.44 C 1329.73 1290.23 1346.24 1297.7 1363.68 1298.15 C 1398.7 1298.89 1407.84 1275.98 1415.89 1274.36 C 1417.73 1311.03 1434.17 1341.3 1459.01 1367.3 C 1425.38 1403.51 1397.01 1428.69 1355.48 1456.32 C 1219.07 1547.56 1052.04 1580.96 891.03 1549.18 C 758.817 1522.63 639.771 1451.38 553.885 1347.41 C 534.857 1324.46 522.172 1305.25 505.82 1280.58 z" fill="rgb(252,235,225)" transform="translate(0,0)"></path>
<path d="M 997.807 1050.22 C 1113.74 1041.21 1215.03 1127.86 1224.09 1243.79 C 1233.14 1359.72 1146.53 1461.05 1030.61 1470.15 C 914.615 1479.26 813.214 1392.58 804.154 1276.59 C 795.095 1160.59 881.809 1059.23 997.807 1050.22 z" fill="rgb(124,44,19)" transform="translate(0,0)"></path>
<path d="M 999.901 1155.84 C 1057.42 1148.02 1110.34 1188.42 1117.96 1245.96 C 1125.59 1303.51 1085.01 1356.29 1027.44 1363.72 C 970.148 1371.12 917.667 1330.77 910.08 1273.5 C 902.493 1216.24 942.658 1163.62 999.901 1155.84 z" fill="rgb(27,23,20)" transform="translate(0,0)"></path>
<path d="M 899.256 1465.72 C 903.289 1466.03 906.406 1469.19 909.345 1471.8 C 958.412 1515.32 1037.83 1519.79 1094.14 1488.54 C 1100.1 1485.22 1105.86 1481.54 1111.37 1477.51 C 1115.69 1474.35 1122.75 1466.98 1127.4 1466.17 L 1129.31 1468.14 C 1078.3 1520.46 980.345 1527.61 921.097 1486.15 C 914.837 1481.76 900.768 1473.33 899.256 1465.72 z" fill="rgb(27,23,20)" transform="translate(0,0)"></path>
<path d="M 602.136 1242.66 C 605.219 1245.23 609.493 1262.64 614.218 1268.87 C 639.752 1302.55 688.927 1301.85 713.44 1267.38 C 717.008 1262.36 720.413 1246.24 723.995 1243.82 L 725.886 1245.92 C 725.362 1248.41 724.792 1251.01 724.041 1253.45 C 719.095 1269.61 707.793 1283.07 692.731 1290.73 C 677.471 1298.44 659.774 1299.79 643.526 1294.46 C 625.747 1288.58 606.897 1272.9 602.445 1253.88 C 601.464 1249.69 600.696 1246.88 602.136 1242.66 z" fill="rgb(27,23,20)" transform="translate(0,0)"></path>
<path d="M 1421.13 1242.36 L 1676.81 1242.26 C 1681.91 1283.89 1673.65 1316.79 1647.28 1350.22 C 1640.27 1359.14 1632.25 1367.22 1623.4 1374.31 C 1618.46 1378.34 1613.33 1382.12 1608.02 1385.65 C 1590.03 1397.49 1565.61 1406.06 1594.7 1425.74 C 1603.47 1431.67 1612.65 1437.22 1621.05 1443.67 C 1663.49 1475.89 1684.66 1522.99 1675.81 1575.92 L 1660.58 1576.07 C 1654.58 1548.55 1636.93 1533.86 1613.75 1519 C 1606.76 1514.49 1599.53 1510.35 1592.11 1506.6 C 1582.5 1501.85 1561.69 1495.01 1559.5 1483.01 C 1556.66 1467.39 1560.34 1446.6 1559 1431.38 C 1555.73 1394.51 1567.44 1385.43 1595.31 1364.66 C 1614.1 1350.66 1642.66 1328.27 1654.84 1307.85 L 1514.43 1307.76 C 1493.31 1307.76 1469.35 1308.29 1448.47 1307.6 C 1459.49 1325.14 1471.47 1334.93 1485.38 1348.91 C 1499.31 1362.9 1528.35 1380.3 1533.97 1399 C 1538.71 1414.73 1534.37 1447.11 1536.23 1464.72 C 1537.74 1478.95 1534.68 1491.05 1521.12 1497.23 C 1486.02 1513.42 1442.64 1531.5 1429.78 1571.38 C 1427.74 1577.71 1424.62 1576.98 1419.09 1575.31 L 1418.01 1574.14 C 1417.31 1562.09 1416.33 1553 1417.53 1540.86 C 1421.55 1499.9 1444.85 1464.69 1477.84 1440.91 C 1487.88 1433.68 1498.54 1427.9 1508.19 1420.44 C 1510.73 1418.81 1515.75 1412.21 1515.11 1408.92 C 1512.89 1397.47 1489.83 1387.08 1481 1380.72 C 1474.37 1375.92 1468.09 1370.65 1462.21 1364.94 C 1431.76 1335.26 1420.14 1301.84 1419.64 1260.28 C 1420.08 1254.33 1420.46 1248.27 1421.13 1242.36 z" fill="rgb(252,235,225)" transform="translate(0,0)"></path>
<path d="M 1526.51 1311.5 C 1566.82 1311.41 1607.12 1311.56 1647.43 1311.94 C 1635.77 1326.74 1622.72 1337.21 1608.45 1349.28 C 1592.25 1362.98 1556.18 1383.26 1555.62 1407.01 C 1555.03 1432.32 1553.7 1459.67 1555.89 1484.99 C 1557.16 1499.59 1597.78 1511.11 1607.96 1519.88 C 1631.47 1536.35 1649.45 1546.87 1656.49 1576.03 L 1572.5 1575.97 L 1432.8 1575.77 C 1440.83 1546.76 1472.5 1522.18 1497.62 1512.35 C 1548.95 1493.43 1539.04 1483.6 1539.94 1439 C 1540.93 1390.01 1538.92 1387.42 1499.62 1355.92 C 1486.91 1345.74 1467.17 1325.57 1456.3 1311.77 L 1526.51 1311.5 z" fill="rgb(231,89,42)" transform="translate(0,0)"></path>
<path d="M 1404.6 1580.26 C 1421.63 1578.85 1450.22 1579.81 1468.21 1579.9 L 1570.33 1579.89 L 1649.25 1579.89 C 1659.66 1579.88 1682.24 1578.8 1691.17 1580.88 C 1704.87 1584.05 1707.52 1608.11 1691.21 1616.55 C 1669.97 1618.23 1408.45 1617.71 1402.99 1615.38 C 1399.98 1614.11 1397.66 1611.49 1396.29 1608.57 C 1393.52 1602.65 1393.2 1594.46 1395.58 1588.36 C 1397.29 1583.97 1400.51 1582.14 1404.6 1580.26 z" fill="rgb(231,89,42)" transform="translate(0,0)"></path>
<path d="M 1408.14 1203.18 C 1429.69 1201.35 1685.12 1202.03 1689.84 1203.56 C 1694.07 1204.93 1697.79 1208.73 1699.74 1212.64 C 1701.78 1216.72 1702.46 1221.71 1700.82 1226.04 C 1698.39 1232.46 1695.86 1235.24 1689.62 1238.19 C 1665.94 1239 1640.11 1238.5 1616.31 1238.48 L 1490.52 1238.38 L 1439.78 1238.45 C 1429.39 1238.51 1404.68 1241.46 1399.1 1230.85 C 1393.22 1219.64 1397.57 1209.47 1408.14 1203.18 z" fill="rgb(231,89,42)" transform="translate(0,0)"></path>
<path d="M 2165.75 86.6173 C 2246.78 2.06774 2330.12 89.3189 2299.13 182.434 C 2290.35 208.814 2261.55 202.377 2241.34 197.273 C 2231.28 194.729 2222.99 194.001 2213.31 189.284 L 2205.74 206.964 C 2224.15 217.225 2232.28 226.473 2244.62 242.753 C 2261.07 242.281 2284.52 240.124 2299.95 245.319 C 2318.55 251.582 2329.85 274.237 2326.46 293.05 C 2324.57 303.525 2319.51 314.664 2315.87 324.725 C 2297.54 370.518 2281.23 417.604 2262.49 463.182 C 2261.18 467.256 2255.97 482.292 2253.74 485.819 C 2240.56 525.012 2224.39 563.877 2209.32 602.434 C 2207.22 607.821 2205.68 618.633 2204.23 621.495 C 2202.42 625.068 2198.98 628.949 2195.31 630.65 C 2184.01 635.887 2110.08 633.122 2092.06 633.102 C 2090.3 706.798 2104.09 788.721 2161.36 840.79 C 2180.66 858.342 2202.24 868.885 2227.71 873.901 C 2232.4 874.825 2239.97 876.416 2243.91 879.094 C 2258.61 889.088 2251.74 911.886 2234.09 912.77 C 2215.36 913.658 2197.03 912.977 2178.5 912.956 L 2063.68 913.048 L 1893.19 913.046 C 1865.58 913.041 1837.94 913.437 1810.36 912.982 C 1799.23 912.798 1790.31 906.113 1790.36 894.462 C 1790.59 875.684 1810.7 875.441 1824.8 872.171 C 1854.75 865.226 1880.19 849.397 1900.35 825.763 C 1946.28 771.904 1955.19 701.388 1954.73 633.25 C 1920.46 632.389 1883.06 633.078 1848.53 633.087 L 1829.34 734.566 C 1825.9 753.023 1822.54 771.817 1818.77 790.194 C 1817.88 793.314 1816.43 800.729 1812.9 801.7 C 1804.55 804.001 1791.79 799.506 1783.54 797.408 L 1774.93 826.05 C 1786 848.645 1782.83 888.359 1782.71 914.26 L 1549.36 914.78 C 1548.93 905.131 1548.06 894.188 1552.93 885.332 C 1571.41 851.719 1614.76 834.92 1649.59 823.762 C 1662.82 819.525 1676.5 817.973 1689.17 813.29 L 1697.2 779.599 C 1682.58 776.027 1667.64 773.56 1652.93 770.311 C 1644.87 768.531 1631.88 766.18 1633.68 754.97 C 1635.38 744.401 1638.38 733.752 1640.96 723.332 C 1645.3 705.82 1649.48 688.266 1653.48 670.671 C 1651.36 673.393 1649.22 676.1 1647.06 678.792 C 1633.38 695.8 1629.78 686.667 1615.45 674.734 C 1605.79 666.688 1596.44 657.808 1586.92 649.523 C 1579.64 659.26 1565.08 674.86 1556.65 684.499 C 1558.49 704.002 1535.33 744.851 1526.35 765.764 C 1500.67 754.382 1472.55 743.515 1446.4 732.902 L 1312.41 678.771 C 1316.57 668.459 1319.9 659.395 1329.64 652.664 C 1371.31 623.853 1438.78 633.709 1484.81 639.574 C 1497 625.47 1512.53 609.638 1525.34 595.752 C 1516.14 587.183 1492.14 569.77 1490.43 559.345 C 1495.22 549.065 1647.9 372.178 1662.44 360.031 C 1685.28 340.955 1713.14 329.882 1742.97 329.232 C 1753 329.013 1764.07 330.505 1773.84 328.007 C 1793.8 322.904 1821.04 308.732 1842.3 310.304 C 1869.44 312.311 1895.86 324.003 1922.98 326.319 C 1925.86 323.226 1921.99 322.188 1925.12 317.344 C 1929.45 316.349 1935.89 316.159 1940.39 316.178 C 1973.39 316.316 2000 296.979 2019.52 271.85 C 2054.3 227.067 2088.61 200.724 2145.69 190.766 C 2149.37 182.235 2152.7 174.426 2155.94 165.687 C 2127.28 146.709 2138.46 125.461 2153.1 102.89 C 2136.73 92.2205 2148.77 78.7312 2165.75 86.6173 z" fill="rgb(27,23,20)" transform="translate(0,0)"></path>
<path d="M 1905.24 591.501 C 1891.52 588.932 1871.66 582.877 1858.12 581.861 C 1851.72 581.382 1843.76 637.201 1842.39 644.64 L 1822.46 751.01 C 1820.42 761.746 1816.45 790.242 1811.22 797.926 C 1808.42 799.148 1806.51 798.722 1803.47 798.084 C 1750.16 786.887 1696.79 775.741 1643.6 763.972 C 1640.11 763.199 1639.21 761.305 1637.61 758.446 C 1637.46 752.5 1643.55 729.107 1645.16 722.44 L 1660.12 660.056 L 1688.55 540.2 C 1693.75 518.443 1698.56 495.341 1705.59 474.094 C 1709.76 461.483 1719.08 448.604 1727.92 438.498 C 1753.75 409.01 1793.22 402.015 1830.59 403.782 C 1838.87 404.173 1845.5 403.032 1852.26 409.072 C 1850.32 413.923 1848.69 416.415 1849.38 421.44 C 1853.57 429.042 1862.78 431.922 1870.38 434.408 C 1871.92 434.911 1876.15 439.166 1877.06 439.341 C 1888.34 441.515 1914.75 425.239 1926.91 420.799 C 1951.02 425.247 1975.11 429.83 1999.18 434.546 C 1998.29 441.623 1997.91 449.34 1997.42 456.5 L 2014.86 460.421 C 2016.53 469.593 2017.96 474.593 2021.29 483.232 C 2022.13 485.584 2023.1 486.554 2021.82 488.504 C 2017.15 495.578 2011.01 500.316 2005.95 507.44 C 1986.54 534.73 1983.01 558.703 1982.54 590.95 C 1972.26 590.928 1910.9 590.248 1905.24 591.501 z" fill="rgb(252,235,225)" transform="translate(0,0)"></path>
<path d="M 1826.2 527.953 C 1831.59 528.38 1878.92 555.128 1878.62 558.84 L 1878.53 560.067 C 1871.29 558.164 1837.34 536.306 1827.89 531.528 C 1826.52 530.835 1826.43 529.306 1826.2 527.953 z" fill="rgb(27,23,20)" transform="translate(0,0)"></path>
<path d="M 2144.72 194.427 C 2154.96 217.986 2183.72 221.921 2204.26 209.903 C 2230.06 225.816 2248.83 249.012 2256.34 278.674 C 2260.2 293.813 2260.8 309.601 2258.09 324.989 C 2252.84 355.65 2218.62 432.248 2201.99 459.789 C 2167.06 462.929 2126.52 458.047 2091.03 460.1 C 2079.16 460.787 2068.75 465.305 2058.43 466.19 C 2043.94 461.874 2017.35 457.429 2001.3 453.801 C 2003.61 427.521 2006.65 400.168 2008.18 373.982 C 2023.77 376.801 2126.7 398.748 2130.54 395.449 C 2128.37 392.919 2125.21 392.696 2121.86 391.942 C 2130.83 371.218 2160.71 318.762 2164.53 300.065 L 2163.84 299.53 C 2156.36 308.183 2124.36 377.385 2117.81 391.427 L 2005.13 369.271 L 2003.93 383.6 C 1992.32 381.66 1980.73 379.659 1969.14 377.599 C 1989.43 355.556 2050.41 300.075 2049.64 270.149 C 2045.86 272.632 2037.92 292.253 2034.93 297.546 C 2017.57 328.325 1985.82 349.121 1965.61 377.144 L 1930.43 371.553 L 1927.85 320.293 C 1998.42 322.677 2011.47 281.211 2054.36 238.855 C 2079.17 214.357 2110.94 201.337 2144.72 194.427 z" fill="rgb(231,89,42)" transform="translate(0,0)"></path>
<path d="M 1735.33 333.373 C 1741.24 332.89 1749.41 332.374 1754.71 332.115 C 1772.17 331.26 1765.38 340.399 1775.94 348.257 C 1778.93 350.486 1787.35 348.839 1790.66 353.591 C 1791.4 354.253 1792.3 355.242 1793.11 355.822 C 1798.71 359.841 1809.88 357.253 1816.43 356.517 C 1822.97 355.782 1829.11 355.028 1835.53 354.404 C 1854.23 367.349 1866.73 368.051 1889.02 372.009 C 1876.37 378.077 1858.06 390.132 1849.44 401.105 C 1821.43 399.865 1790.3 397.809 1764.03 409.102 C 1703.73 435.025 1698.6 481.735 1685.73 536.489 L 1666.54 617.077 C 1664.35 626.551 1659.36 651.055 1656.07 658.538 L 1655.35 660.134 C 1652.43 666.768 1647.69 671.822 1643.02 677.384 C 1640.69 680.512 1640.31 681.387 1637.14 683.479 C 1628.34 684.898 1617.62 670.891 1611.14 665.133 L 1571.36 630.452 C 1560.65 621.066 1497.69 568.122 1494.79 561.062 C 1499.16 550.737 1520.12 528.48 1528.67 518.548 L 1578.37 460.642 L 1626.49 404.568 C 1660.58 364.938 1679.32 340.321 1735.33 333.373 z" fill="rgb(252,235,225)" transform="translate(0,0)"></path>
<path d="M 1862.28 906.382 C 1936.52 879.257 1968.9 811.655 1983.78 739.183 C 1986.21 727.385 1987.48 707.374 1992.59 697.43 C 1996.84 689.266 2004.05 683.032 2012.75 679.999 C 2021.23 677.053 2030.55 677.756 2038.49 681.941 C 2046.53 686.112 2056.14 696.786 2057.3 705.733 C 2066.64 777.382 2091.46 857.53 2160.37 896.433 C 2167.55 900.456 2175.08 903.826 2182.86 906.505 C 2185.3 907.179 2186.22 906.926 2187.4 908.512 C 2182.19 909.335 2147.42 909.338 2140.66 909.124 C 2118.23 908.414 2089.47 910.335 2067.76 908.882 C 2048.56 909.859 2020.65 909.002 2000.89 909.011 L 1870.25 908.956 C 1868.31 909.05 1858.57 909.72 1857.58 908.357 C 1857.62 908.191 1857.66 908.024 1857.7 907.858 C 1858.83 906.938 1860.89 906.646 1862.28 906.382 z" fill="rgb(255,255,255)" transform="translate(0,0)"></path>
<path d="M 2182.86 906.505 C 2185.3 907.179 2186.22 906.926 2187.4 908.512 C 2182.19 909.335 2147.42 909.338 2140.66 909.124 C 2118.23 908.414 2089.47 910.335 2067.76 908.882 C 2084.38 906.622 2176.04 910.536 2182.86 906.505 z" fill="rgb(201,195,190)" transform="translate(0,0)"></path>
<path d="M 1862.28 906.382 C 1862.69 908.942 1867.64 908.489 1870.25 908.956 C 1868.31 909.05 1858.57 909.72 1857.58 908.357 C 1857.62 908.191 1857.66 908.024 1857.7 907.858 C 1858.83 906.938 1860.89 906.646 1862.28 906.382 z" fill="rgb(201,195,190)" transform="translate(0,0)"></path>
<path d="M 2184.82 594.496 C 2210 598.8 2207.23 627.331 2184.08 629.274 C 2175.59 629.986 2163.68 629.257 2154.8 629.277 L 2082.14 629.291 L 1849.04 629.252 L 1855.77 594.314 C 1865.19 595.649 1888.48 595.131 1899.11 595.114 L 1982.58 595.047 L 1982.36 606.992 L 2013.52 607.129 L 2013.68 594.888 L 2135.32 595.032 C 2142.01 595.025 2180.13 595.371 2184.82 594.496 z" fill="rgb(231,89,42)" transform="translate(0,0)"></path>
<path d="M 2247 246.206 C 2272.77 245.713 2305.28 239.831 2318.76 267.597 C 2322.46 275.197 2323.77 283.735 2322.53 292.093 C 2320.67 304.283 2310.57 326.637 2306.19 339.036 C 2292.91 376.638 2274.86 416.33 2262.34 453.775 C 2260.97 456.183 2259.71 459.756 2257.44 459.777 C 2244.92 459.891 2217.71 461.256 2206.35 460.054 C 2221.59 434.012 2228.82 414.729 2240.25 387.491 C 2263.46 332.194 2276.19 303.499 2247 246.206 z" fill="rgb(231,89,42)" transform="translate(0,0)"></path>
<path d="M 2189.9 486.227 C 2198.6 486.122 2245.48 484.895 2249.7 487.022 C 2234.25 525.046 2219.56 564.988 2204.77 603.446 C 2201.63 598.454 2197.31 592.225 2191.06 592.108 C 2169.85 591.711 2117.77 589.325 2098.79 591.551 C 2095.78 591.187 2093.94 591.621 2092.56 589.9 L 2095.95 588.451 C 2121.56 578.339 2134.29 558.811 2151.18 538.53 C 2165.32 521.548 2177.35 504.365 2189.9 486.227 z" fill="rgb(231,89,42)" transform="translate(0,0)"></path>
<path d="M 2199.74 64.9354 C 2200.98 66.267 2202.43 69.6807 2203.27 71.2811 C 2208.77 81.8412 2211.59 83.9534 2221.66 89.1941 C 2217.91 106.719 2213.19 124.179 2209.27 141.685 C 2205.29 159.465 2201.5 169.502 2211.17 186.268 C 2207.67 193.593 2204.32 200.787 2200.36 207.884 C 2199.62 208.293 2198.87 208.689 2198.12 209.069 C 2181.29 217.484 2157.22 211.854 2148.41 194.352 C 2150.5 188.459 2153.12 182.662 2155.61 176.914 C 2165.7 177.217 2168.7 175.846 2177.89 172.076 C 2134.77 154.226 2133.57 138.486 2158.52 102.283 C 2153.58 98.7167 2149.34 96.997 2150.45 90.4058 C 2156.06 85.4487 2160.76 88.7704 2166.09 92.2721 C 2177.26 80.1024 2185.61 73.2517 2199.74 64.9354 z" fill="rgb(252,235,225)" transform="translate(0,0)"></path>
<path d="M 2158.98 122.626 C 2163.77 125.188 2167.46 138.364 2178.58 132.526 C 2181.92 130.778 2182.74 130.611 2184.55 133.551 C 2172.96 141.157 2156.56 135.482 2158.98 122.626 z" fill="rgb(27,23,20)" transform="translate(0,0)"></path>
<path d="M 2203.22 97.4786 C 2213.01 100.478 2209.33 105.445 2203.28 111.147 C 2193 108.152 2197.07 103.748 2203.22 97.4786 z" fill="rgb(27,23,20)" transform="translate(0,0)"></path>
<path d="M 2185.14 82.4248 C 2195.62 84.2431 2190.64 91.0555 2184.97 95.6479 C 2175.01 93.0687 2179.23 88.104 2185.14 82.4248 z" fill="rgb(27,23,20)" transform="translate(0,0)"></path>
<path d="M 2041.17 511.509 C 2073.31 484.241 2089.61 485.806 2129.66 485.97 L 2185.7 486.218 C 2167.59 512.069 2148.22 537.01 2127.65 560.951 C 2087.59 551.991 2069.68 540.92 2041.17 511.509 z" fill="rgb(231,89,42)" transform="translate(0,0)"></path>
<path d="M 1913.76 373.246 C 1921.34 373.738 1935.67 376.33 1943.41 377.543 L 2003.27 387.301 C 2002.54 400.799 2000.55 417.176 1999.26 430.853 C 1974.94 425.913 1950.56 421.286 1926.12 416.973 C 1915.98 420.469 1881.57 442.267 1875.38 432.211 C 1879.09 420.991 1923.41 401.962 1924.98 397.033 C 1922.17 396.05 1922.85 396.477 1919.25 397.797 C 1906.38 404.381 1893.48 411.607 1881.72 420.035 C 1876.44 423.821 1872.62 431.004 1866.01 430.577 C 1863.06 428.521 1864.03 429.868 1863.05 426.347 C 1865.92 413.267 1915.93 388.691 1916.95 383.21 L 1915.41 382.397 C 1908.26 383.513 1880.96 404.179 1873.14 410.05 C 1868.56 413.489 1863.31 419.386 1857.71 422.687 C 1854.05 422.061 1855.67 422.844 1852.93 419.845 C 1852.75 406.822 1901.37 377.536 1913.76 373.246 z" fill="rgb(252,235,225)" transform="translate(0,0)"></path>
<path d="M 1848.88 319.022 C 1840.17 314.744 1800.44 326.085 1790.43 329.842 C 1786 331.502 1775.1 337.133 1772.75 337.053 L 1772.01 334.94 C 1772.57 334.025 1773.66 332.467 1774.65 332.059 C 1793.98 324.121 1829.46 311.418 1849.87 315.226 C 1873.91 320.283 1900.64 326.601 1924.57 330.754 C 1925.12 345.058 1926 356.923 1927.3 371.116 L 1926 370.882 C 1905.28 367.293 1881.99 369.626 1860.83 362.778 C 1851.74 359.836 1845.3 355.251 1836.71 351.45 C 1828.21 349.795 1799.66 357.559 1792.29 350.955 C 1792.27 348.728 1792.37 348.376 1794 346.67 C 1803.92 336.304 1846.21 337.365 1849.66 333.582 L 1848.96 332.056 C 1838.15 329.8 1804.64 336.559 1794.63 341.411 C 1790.27 343.522 1784.26 349.954 1776.35 345.092 C 1776.35 342.924 1776.52 342.57 1778.13 340.938 C 1793.47 325.377 1843.36 324.847 1848.88 319.022 z" fill="rgb(252,235,225)" transform="translate(0,0)"></path>
<path d="M 2039.12 514.616 C 2063 541.608 2089.77 557.517 2125.27 564.316 C 2105.95 581.101 2098.42 585.18 2072.86 591.399 C 2066.2 590.191 2022.57 590.981 2013.6 591.037 C 2014.02 558.996 2018.11 539.267 2039.12 514.616 z" fill="rgb(252,235,225)" transform="translate(0,0)"></path>
<path d="M 1527.79 598.552 C 1532.53 600.202 1577.13 640.671 1584.31 646.954 C 1574.61 657.147 1566.54 669.018 1556.36 678.664 C 1552.59 682.232 1551.97 681.534 1547.32 681.281 C 1526.72 673.592 1504.19 656.69 1488.1 641.709 C 1501.53 627.505 1514.76 613.118 1527.79 598.552 z" fill="rgb(252,235,225)" transform="translate(0,0)"></path>
<path d="M 1700.47 779.943 C 1725.98 786.047 1754.05 792.142 1779.81 796.735 C 1776.94 806.472 1773.75 817.118 1770.61 826.761 C 1743.36 831.528 1718.98 821.427 1694.04 813.397 L 1693.36 813.186 C 1695.68 802.201 1698.53 790.897 1700.47 779.943 z" fill="rgb(252,235,225)" transform="translate(0,0)"></path>
<path d="M 2222.23 57.1441 C 2229.15 56.3412 2231.02 56.6344 2226.93 66.5557 C 2222.41 77.5254 2227.42 90.1425 2215.51 82.0447 C 2208.14 75.7274 2207.12 72.2041 2202.89 63.4474 C 2210.04 60.6397 2214.67 58.9086 2222.23 57.1441 z" fill="rgb(252,235,225)" transform="translate(0,0)"></path>
<path d="M 2018.78 461.286 C 2030.24 463.64 2041.63 466.296 2053.12 468.606 L 2051.63 469.464 C 2050.25 470.293 2025.74 484.149 2026.71 484.018 C 2025.23 483.136 2023.99 479.605 2023.23 477.946 C 2020.72 471.835 2020.07 467.647 2018.78 461.286 z" fill="rgb(231,89,42)" transform="translate(0,0)"></path>
<path d="M 1893.36 373.026 C 1894.62 373.018 1900.26 372.615 1901.14 373.574 C 1901.41 372.485 1862.9 400.515 1858.73 404.179 C 1855.18 407.368 1852.84 403.462 1853.19 402.93 C 1860.32 392.086 1883.31 379.323 1893.36 373.026 z" fill="rgb(252,235,225)" transform="translate(0,0)"></path>
<path d="M 1857.4 585.089 C 1863.16 585.979 1876.46 588.225 1881.26 590.735 C 1876.4 591.087 1870.88 591.362 1866 591.073 C 1857.65 590.579 1856.05 593.268 1857.4 585.089 z" fill="rgb(252,235,225)" transform="translate(0,0)"></path>
<path d="M 262.407 215.184 C 270.105 215.01 343.716 236.175 355.793 239.487 L 593.525 304.74 L 661.789 323.341 C 695.331 332.444 722.988 338.794 749.947 363.224 C 784.024 394.104 800.407 430.687 803.159 476.47 C 809.961 477.825 816.911 480.02 823.594 481.986 C 837.564 462.033 865.919 435.533 889.519 458.38 C 902.579 471.024 902.541 491.818 902.34 508.474 C 937.477 545.16 977.017 574.689 1027.19 586.704 C 1021.31 605.128 1015.54 623.586 1009.89 642.079 C 960.721 622.411 911.186 628.13 861.816 641.752 C 858.629 647.262 855.618 651.895 852.085 657.199 C 850.386 659.466 848.622 661.684 846.796 663.85 C 832.907 680.003 809.265 694.925 790.038 675.792 C 777.353 663.17 776.016 645.789 775.873 628.732 C 770.911 626.976 765.308 625.457 760.207 623.96 C 715.147 679.912 647.48 710.202 575.591 690.064 C 570.126 688.532 564.397 687.109 558.89 685.629 L 499.072 669.216 L 300.434 614.788 L 204.437 588.483 C 191.944 585.061 171.773 581.314 160.699 575.681 C 153.464 572.001 149.189 564.017 146.828 556.564 C 127.746 496.339 185.942 323.507 214.835 266.999 C 225.474 246.191 238.933 222.739 262.407 215.184 z" fill="rgb(27,23,20)" transform="translate(0,0)"></path>
<path d="M 282.48 224.188 C 373.161 247.021 467.664 274.476 558.066 299.349 L 647.519 324.032 C 664.726 328.675 689.027 334.288 705.116 340.546 C 741.557 354.72 771.159 385.801 786.376 421.431 C 805.641 466.542 801.758 529.47 782.837 574.387 C 761.124 625.93 728.004 659.783 676.536 681.418 C 621.333 700.251 593.087 690.67 540.103 676.042 L 454.78 652.506 L 260.941 599.315 C 234.117 591.868 206.91 584.909 180.28 576.934 C 215.001 555.326 243.317 486.504 255.905 448.198 C 274.226 392.446 309.745 279.823 282.48 224.188 z" fill="rgb(231,89,42)" transform="translate(0,0)"></path>
<path d="M 394.557 358.389 C 471.506 351.512 587.348 384.29 647.812 433.001 C 668.488 449.658 691.941 473.724 695.066 501.498 C 696.706 515.529 692.54 529.621 683.534 540.505 C 664.066 564.13 627.12 571.765 598.249 574.454 C 598.07 574.476 597.892 574.497 597.714 574.518 C 510.703 578.546 414.167 552.275 344.505 499.207 C 313.164 475.331 278.711 428.317 310.163 391.209 C 330.145 367.634 365.155 360.943 394.557 358.389 z" fill="rgb(252,235,225)" transform="translate(0,0)"></path>
<path d="M 260.473 220.053 C 268.755 219.124 277.514 222.081 280.641 230.259 C 299.201 278.8 278.603 357.725 265.158 405.004 C 252.075 451.009 218.09 551.343 175.442 574.465 C 172.814 574.619 170.177 574.799 167.626 574.016 C 160.839 571.931 156.123 566.27 153.203 560.037 C 133.093 517.111 172.301 390.808 187.117 347.854 C 200.041 310.383 223.231 238.182 260.473 220.053 z" fill="rgb(231,89,42)" transform="translate(0,0)"></path>
<path d="M 864.566 454.116 C 924.217 449.217 888.364 572.589 875.497 601.11 C 862.134 630.731 848.694 669.838 814.657 680.318 C 760.247 681.827 784.63 580.597 795.583 550.518 C 807.793 516.991 828.288 465.905 864.566 454.116 z" fill="rgb(231,89,42)" transform="translate(0,0)"></path>
<path d="M 901.75 515.317 C 907.954 519.551 919.436 531.691 926.145 537.289 C 956.713 562.792 982.543 579.741 1021.54 589.791 C 1016.52 605.257 1011.74 620.798 1007.19 636.409 C 997.47 633.035 991.748 631.549 981.859 629.271 C 943.151 620.787 901.944 626.125 864.211 636.67 C 884.144 598.898 896.874 557.747 901.75 515.317 z" fill="rgb(231,89,42)" transform="translate(0,0)"></path>
<path d="M 803.372 480.034 C 809.609 481.759 815.121 483.321 821.221 485.488 C 814.538 497.091 810.152 505.478 803.949 517.257 C 803.648 517.993 802.931 520.413 801.749 520.254 C 801 519.183 802.61 508.333 802.89 506.829 C 802.99 497.565 803.416 489.629 803.372 480.034 z" fill="rgb(231,89,42)" transform="translate(0,0)"></path>
<path d="M 779.248 593.734 C 779.458 594.733 779.839 597.246 779.242 598.477 C 777.789 601.479 776.468 622.756 775.355 623.802 C 774.648 624.466 768.12 621.756 766.293 621.074 C 766.01 621.005 763.394 620.371 763.963 619.417 C 768.933 611.085 773.84 601.773 779.248 593.734 z" fill="rgb(231,89,42)" transform="translate(0,0)"></path>
<path d="M 1006.84 694.513 C 1010.1 696.925 1017.92 711.609 1019.6 716.156 C 1036.73 762.39 1093.32 823.481 1055.33 871.585 C 1042.68 887.609 1026.9 892.606 1008.18 894.828 C 996.044 893.979 988.582 892.8 977.728 886.617 C 963.391 878.606 952.909 865.134 948.668 849.268 C 946.055 839.19 945.929 828.627 948.303 818.489 C 952.777 799.224 971.159 765.48 980.402 746.611 C 987.767 731.575 998.629 708.851 1006.84 694.513 z" fill="rgb(27,23,20)" transform="translate(0,0)"></path>
<path d="M 1007.19 702.555 C 1009.14 704.065 1022.16 730.653 1023.45 733.941 C 1039.56 774.954 1086.37 826.384 1051.5 869.42 C 1040.18 883.389 1026.28 888.381 1008.9 890.216 C 999.329 889.943 992.679 889.077 983.817 884.961 C 970.296 878.65 959.783 867.297 954.529 853.331 C 943.106 822.049 965.346 786.639 979.245 759.019 C 988.835 740.334 998.152 721.511 1007.19 702.555 z" fill="rgb(231,89,42)" transform="translate(0,0)"></path>
<path d="M 975.713 800.477 C 976.29 800.812 978.28 801.872 978.262 802.508 C 977.068 808.336 972.521 811.575 971.003 818.495 C 967.784 833.169 971.334 849.406 980.914 861.042 C 982.079 862.458 981.997 863.093 981.606 864.874 L 981.316 866.268 C 980.961 866.104 979.392 865.425 979.264 865.271 C 962.977 845.665 960.901 821.286 975.713 800.477 z" fill="rgb(252,235,225)" transform="translate(0,0)"></path>
<metadata><recraft-signature>{"signed_by": "recraft", "signature_b64": "i6qKVWw1KNLUi3Z9J11kHMmgnPcPX18bvxfExMf06JiRaizyGp1x+/3nKmSi9OSvSfMEGKi0uKxXuXX+D803AQ==", "signing_algo": "Ed25519", "generation_timestamp": 1783393820, "identifier": "be02bb02-389a-462f-8a46-588f81630f07"}</recraft-signature></metadata></svg>