<svg xmlns="http://www.w3.org/2000/svg" height="1792" preserveAspectRatio="none" style="display: block;" version="1.1" viewBox="0 0 2432 1792" width="2432">
<path d="M 0 0 L 2432 0 L 2432 1792 L 0 1792 L 0 0 z" fill="rgb(255,255,255)" transform="translate(0,0)"></path>
<path d="M 717.484 243.188 C 669.006 224.343 632.687 165.976 652.571 114.702 C 659.729 95.9848 674.076 80.9074 692.415 72.8292 C 719.819 60.968 740.724 68.3244 765.245 80.6212 C 770.582 83.2976 780.992 84.0702 786.703 86.763 C 829.787 104.903 848.957 145.825 830.672 189.002 C 829.58 191.581 828.444 194.142 827.267 196.683 C 857.09 177.664 875.753 147.983 858.885 113.354 C 857.433 110.374 854.66 105.981 854.464 102.796 L 855.553 102.226 C 859.968 104.309 863.409 113.44 865.049 117.985 C 877.844 153.44 858.251 180.927 829.379 199.465 C 872.414 192.584 911.679 200.682 938.745 237.462 C 982.485 235.081 1044.05 249.204 1046.12 303.082 C 1046.71 317.415 1041.4 331.362 1031.42 341.671 C 1018.2 355.543 997.088 358.38 996.868 377.966 C 996.681 394.58 1011.63 393.502 1019.18 402.47 C 1017.8 404.699 1018.76 403.756 1015.5 404.615 C 1003.44 402.209 990.196 383.377 993.95 371.149 C 994.548 369.2 995.008 367.198 995.575 365.228 C 978.686 371.332 972.59 373.282 954.456 373.212 C 952.205 378.046 949.947 383.064 947.568 387.816 C 948.284 393.528 950.151 402.128 948.641 407.172 C 943.89 412.535 938.626 410.969 931.769 410.744 C 904.769 456.477 855.04 482.965 811.855 439.905 C 798.815 450.428 784.951 460.44 772.297 470.7 C 849.704 543.753 851.204 655.764 864.251 754.356 C 878.821 749.974 901.444 743.225 916.706 741.76 C 938.069 739.71 963.493 739.871 985.174 739.621 C 985.071 719.664 984.825 699.707 984.437 679.754 C 983.782 646.344 976.843 607.521 1015.35 592.312 C 1025.08 588.468 1035.18 588.905 1045.5 588.89 L 1197.85 588.947 C 1211.55 588.944 1225.74 589.126 1239.34 588.958 C 1262.23 588.675 1280.06 587.848 1297.4 605.374 C 1313.74 621.881 1312.09 642.705 1311.91 664.14 C 1318 665.579 1323.75 666.699 1328.71 670.69 C 1339.02 678.988 1349.07 688.426 1358.84 697.361 L 1411.96 746.104 L 1471.13 800.654 C 1480.77 809.561 1495.75 820.438 1502.54 831.55 C 1507.82 840.212 1509.7 850.898 1506.96 860.732 C 1505.61 865.57 1503.31 870.37 1500.08 874.243 C 1490.95 885.219 1408.41 963.964 1400.54 967.811 C 1392.78 971.604 1382.38 972.168 1374.29 969.097 C 1356.78 962.447 1269.41 873.426 1250.36 855.034 L 1094.91 854.991 C 1080.65 855.008 1066.33 855.209 1052.07 855.163 C 1030.18 855.093 1013.76 857.721 996.872 841.065 C 987.05 842.65 975.788 850.944 966.245 854.981 C 959.445 857.858 954.143 859.417 947.075 861.459 C 986.461 890.454 1015.84 915.617 1035.62 962.582 C 1056.97 1013.29 1048.25 1060.26 1015.62 1103.57 C 1008.76 1112.57 1006.38 1115.26 995.131 1113.44 C 986.747 1116.94 987.522 1128.91 972.945 1123.07 C 968.19 1121.16 961.942 1117.42 957.011 1118.67 C 956.087 1128.97 961.577 1179.94 962.624 1192.95 L 976.913 1362.73 C 978.668 1384.04 982.018 1411.25 982.866 1431.89 C 974.834 1445.25 962.383 1450.71 948.49 1457.02 C 949.129 1507.54 954.369 1559.36 982.939 1602.41 C 987.755 1609.66 992.678 1617.05 998.947 1623.15 C 1025.04 1648.53 1060.13 1637.4 1084.97 1679.9 C 1089.3 1687.32 1093.41 1697.52 1093.62 1706.18 C 1093.72 1710.04 1092.86 1713.77 1090.1 1716.61 C 1079.42 1727.59 1010.55 1727.35 992.681 1726.82 C 971.062 1726.18 944.49 1725.87 923.825 1719.07 C 901.358 1695.55 879.087 1671.84 857.013 1647.94 C 857.038 1661.85 860.061 1710.98 852.277 1719.18 C 842.191 1723.33 804.059 1721.88 792.528 1718.74 C 783.092 1716.16 786.385 1681.74 786.401 1672.65 C 786.481 1627.43 784.366 1587.54 793.464 1542.9 C 796.288 1529.04 795.315 1485.87 794.105 1470.22 C 782.883 1467.31 773.971 1461.96 765.396 1454.32 C 764.895 1450.67 764.271 1447.46 763.544 1443.85 C 758.185 1453.96 752.863 1464.06 748.201 1474.52 C 730.935 1513.26 711.331 1575.92 737.968 1613.97 C 748.948 1629.65 762.562 1640.78 769.504 1659.33 C 775.46 1675.24 775.973 1693.2 768.546 1708.77 C 766.33 1713.42 762.691 1717.65 757.592 1719.15 C 741.814 1723.77 692.45 1693.86 677.226 1684.94 C 663.011 1676.62 638.556 1663.95 628.391 1651.27 C 621.311 1642.44 602.882 1564.53 598.634 1548.33 C 593.983 1558.26 571.39 1613.12 564.53 1615.95 C 559.145 1618.17 552.472 1615.65 547.508 1613.36 C 537.352 1608.68 510.727 1596.78 507.452 1585.98 C 506.812 1583.87 507.219 1582.45 507.909 1580.44 C 512.788 1566.24 520.671 1552.03 527.056 1538.41 C 536.65 1517.95 545.759 1496.94 556.232 1476.92 C 561.368 1467.11 567.381 1457.5 573.587 1448.32 C 585.277 1431.03 600.028 1416.61 612.803 1400.23 C 621.624 1388.92 628.563 1376.83 634.884 1364.01 C 610.677 1341.6 629.229 1321.14 641.05 1296.25 C 671.921 1227.73 703.686 1159.61 736.337 1091.91 C 693.01 1105.93 646.179 1117.62 601.779 1127.58 C 606.022 1133.08 609.673 1138.07 613.193 1144.02 C 641.685 1192.7 610.418 1248.86 559.475 1264.44 C 536.141 1271.58 517.597 1269.96 493.743 1269.89 L 437.273 1269.91 C 435.914 1362.89 437.268 1460 437.347 1553.26 L 437.349 1630.41 C 437.317 1656.77 441.328 1683.89 422.149 1704.59 C 410.516 1717.02 394.384 1724.26 377.366 1724.7 C 361.009 1725.06 345.169 1718.96 333.287 1707.71 C 324.402 1699.3 318.412 1688.29 316.178 1676.27 C 314.202 1665.04 314.866 1645.34 314.904 1633.15 L 315.035 1566.36 L 314.942 1377.8 C 314.929 1342.35 315.4 1305.01 314.392 1269.71 L 254.594 1269.92 C 242.485 1269.95 226.861 1270.44 215.205 1268.8 C 206.129 1267.58 197.294 1264.97 189.005 1261.08 C 167.94 1251.32 151.697 1233.48 143.948 1211.59 C 137.088 1191.84 138.501 1170.15 147.866 1151.46 C 159.301 1128.65 177.615 1117.96 200.826 1110.16 C 171.413 1081.5 153.598 1043 150.789 1002.02 C 144.767 925.16 205.351 831.618 253.61 775.512 C 208.548 726.689 229.352 680.345 261.531 632.196 C 309.745 561.099 372.597 501.127 445.876 456.298 C 510.829 415.976 598.36 381.241 675.541 399.251 C 693.469 392.176 713.728 383 731.842 375.453 C 698.992 336.567 701.166 296.163 720.857 251.825 C 690.644 269.166 663.441 292.286 658.366 329.022 C 657.803 333.097 658.512 336.126 657.191 340.196 L 655.516 341.038 L 654.436 339.766 C 653.623 334.004 654.801 325.359 656.299 319.724 C 665.369 285.613 687.88 267.718 716.116 250.382 C 713.241 248.258 713.567 248.979 710.202 248.668 L 708.464 248.497 C 687.781 253.139 672.416 259.962 658.725 277.738 C 656.714 280.349 650.599 295.403 648.567 299.745 L 647.188 300.06 C 645.775 297.379 646.791 293.561 647.831 290.641 C 658.459 260.818 688.24 246.782 717.484 243.188 z" fill="rgb(27,23,20)" transform="translate(0,0)"></path>
<path d="M 708.464 248.497 C 713.815 247.628 718.693 246.938 724.072 246.251 C 721.587 247.614 718.712 249.43 716.116 250.382 C 713.241 248.258 713.567 248.979 710.202 248.668 L 708.464 248.497 z" fill="rgb(252,235,225)" transform="translate(0,0)"></path>
<path d="M 256.1 778.019 C 272.697 793.588 283.729 797.137 301.243 809.007 C 309.31 814.475 323.614 828.646 331.866 835.391 C 352.716 852.431 384.082 876.98 408.138 888.304 C 396.916 896.786 349.684 915.122 344.03 922.178 L 344.696 923.197 C 351.361 922.368 402.139 896.076 412.394 891.097 C 462.751 917.305 487.095 919.117 542.592 923.256 C 599.131 927.472 648.462 929.454 705.425 926.633 C 748.763 924.209 774.739 910.711 797.101 873.001 C 803.044 872.917 807.246 872.659 813.163 872.063 C 845.815 872.259 880.922 869.067 914.105 868.647 C 939.717 903.706 938.247 932.66 941.09 974.002 C 942.811 998.999 944.729 1023.98 946.843 1048.95 L 975.123 1387.32 C 931.012 1413.42 890.485 1425.37 839.15 1423.76 C 832.288 1341.33 821.006 1251.64 811.576 1169.11 L 803.153 1091.86 C 800.868 1071.31 800.76 1041.23 784.338 1027.08 C 769.243 1014.08 747.131 1014.12 728.862 1018.93 C 707.634 1024.51 686.713 1030.83 665.594 1036.62 C 635.533 1044.65 605.208 1051.65 574.67 1057.6 C 550.921 1062.4 526.992 1066.25 502.939 1069.15 C 494.6 1070.11 461.867 1072.01 457.011 1073.65 C 470.34 1084.69 628.105 1051.03 654.744 1042.98 C 683.123 1034.42 715.905 1025.41 745.408 1019.79 C 766.005 1016.62 791.21 1029.32 793.806 1051.08 C 796.689 1066.47 798.131 1081.28 799.874 1096.71 L 809.191 1179.9 L 826.743 1339.92 C 829.654 1367.14 833.376 1396.35 835.441 1423.44 C 811.044 1421.91 787.026 1416.64 764.225 1407.82 C 759.229 1338.02 754.681 1268.19 750.581 1198.34 L 745.958 1130.13 C 745.039 1116.9 744.025 1104.41 743.764 1091.13 C 743.461 1075.7 754.764 1055.92 755.404 1041.96 L 754.71 1041.4 L 755.391 1042.45 L 753.937 1042.26 C 747.956 1053.41 743.073 1074.07 739.421 1086.99 C 643.054 1116.86 544.438 1138.93 444.529 1152.97 C 413.755 1157.46 368.398 1163.13 337.677 1162.22 C 309.988 1161.4 267.951 1149.52 244.014 1136.76 C 204.97 1115.95 173.799 1081.01 161.216 1038.04 C 143.901 978.915 160.151 929.879 187.725 878.443 C 207.157 842.8 230.06 809.163 256.1 778.019 z" fill="rgb(231,89,42)" transform="translate(0,0)"></path>
<path d="M 271.669 835.635 L 273.726 837.602 C 273.083 840.732 256.119 868.346 253.415 875.252 C 208.906 988.932 308.103 1056.68 408.801 1068.61 C 414.261 1069.25 433.953 1071.24 438.178 1073.02 L 438.825 1075.72 C 415.938 1075.92 380.352 1068.11 358.325 1061.37 C 246.002 1026.98 203.712 936.254 271.669 835.635 z" fill="rgb(27,23,20)" transform="translate(0,0)"></path>
<path d="M 405.812 823.932 C 358.643 828.183 305.952 812.399 268.272 783.71 C 223.936 749.952 222.502 702.638 250.163 657.289 C 280.215 608.02 315.141 565.006 358.448 526.68 C 426.421 466.086 518.637 407.845 611.36 398.597 C 615.015 435.758 639.45 479.74 667.649 504.232 C 707.068 538.469 758.247 542.042 794.166 500.201 C 845.795 574.605 850.417 667.621 860.477 755.491 C 830.072 766.468 830.68 769.405 799.393 764.78 C 798.981 763.442 796.543 755.486 795.679 755.087 C 778.347 747.089 763.51 736.408 747.784 725.691 C 764.801 705.581 776.418 683.958 782.937 658.269 C 784.698 651.328 790.746 624.512 788.345 619.049 C 784.373 620.136 783.145 638.539 782.382 643.091 C 774.949 687.409 755.224 715.548 722.838 745.249 C 680.498 740.252 637.922 737.492 595.291 736.981 C 605.129 690.968 619.224 645.505 629.213 599.486 C 630.646 592.884 639.914 566.14 637.103 561.714 C 630.262 572.123 596.918 713.207 591.471 736.885 C 582.558 736.963 551.393 736.488 545.36 740.15 L 545.129 741.537 C 545.743 741.758 612.111 740.899 618.225 741.084 C 676.605 742.853 734.575 750.193 792.568 756.683 C 806.679 793.42 810.782 830.989 795.503 867.947 C 774.191 906.738 750.731 918.731 707.825 922.863 C 651.09 926.013 600.244 924.547 543.836 919.686 C 525.75 918.127 504.094 918.095 486.945 913.567 C 440.772 901.378 409.449 859.745 408.248 812.461 C 407.634 788.292 414.243 752.019 418.396 727.435 C 423.866 695.133 429.654 662.886 435.76 630.699 C 436.781 625.439 441.677 604.757 439.733 601.372 L 438.332 601.39 C 434.632 607.956 421.683 686.405 419.515 699.242 C 413.88 732.605 401.527 791.55 405.812 823.932 z" fill="rgb(252,235,225)" transform="translate(0,0)"></path>
<path d="M 703.673 572.519 C 711.886 570.008 720.814 572.139 727.008 578.089 C 733.201 584.039 735.688 592.875 733.508 601.182 C 731.328 609.489 724.823 615.965 716.506 618.107 C 704.038 621.319 691.287 613.982 687.798 601.588 C 684.309 589.194 691.36 576.283 703.673 572.519 z" fill="rgb(27,23,20)" transform="translate(0,0)"></path>
<path d="M 1024.64 593.276 C 1041.57 591.597 1076.93 592.76 1095.6 592.779 L 1234 592.762 C 1256.96 592.719 1277.14 589.981 1294.28 607.724 C 1309.84 623.827 1308.2 643.109 1308.14 663.844 C 1225.56 661.969 1298.79 739.454 1228.5 743.374 C 1210.15 744.397 1197.67 758.337 1195.12 775.716 C 1192.76 791.807 1197.2 799.799 1206.1 812.226 L 1206.02 840.859 C 1206.1 844.292 1206.56 847.662 1205.08 850.675 C 1198.58 851.568 1183.92 851.15 1176.88 851.142 L 1125.16 851.146 L 1058.91 851.262 C 1035.8 851.286 1020.57 854.812 1001.21 840.372 C 1013.37 837.248 1030.51 837.223 1040.44 829.451 C 1044.78 826.054 1042.6 820.3 1044.02 815.333 L 1048.04 813.425 C 1066.96 804.656 1054.27 798.905 1056.37 789.044 C 1069.21 776.755 1061.61 772.788 1051.13 764.659 C 1049.39 758.778 1055.5 750.202 1049.22 745.709 C 1036.16 736.362 1004.41 739.632 988.966 739.648 C 988.849 715.951 988.528 692.254 988.002 668.562 C 987.875 659.451 987.24 641.418 988.292 632.869 C 988.991 626.77 990.839 620.859 993.74 615.449 C 1000.76 602.552 1011.22 597.195 1024.64 593.276 z" fill="rgb(252,235,225)" transform="translate(0,0)"></path>
<path d="M 1298.37 667.336 C 1300.05 667.26 1301.73 667.222 1303.4 667.223 C 1324.41 667.295 1333.38 679.298 1347.78 692.484 L 1385.63 727.187 L 1452.23 788.609 C 1466.12 801.35 1480.34 813.994 1493.81 827.175 C 1500.97 834.19 1504.9 842.233 1504.49 852.523 C 1504.22 858.757 1502.11 864.77 1498.42 869.803 C 1492.85 877.508 1472.17 896.246 1464.11 903.903 C 1443.31 923.88 1422.33 943.661 1401.15 963.243 C 1389.75 969.095 1376.47 968.659 1366.45 960.185 C 1353.04 948.845 1340.31 936.603 1327.65 924.431 L 1270.58 869.327 C 1249.01 848.539 1226.2 828.212 1206.26 805.908 C 1197.01 795.556 1196.5 778.803 1201.38 766.319 C 1210.4 738.641 1250.48 753.402 1261.83 732.048 C 1275.3 706.696 1252.57 672.22 1298.37 667.336 z" fill="rgb(252,235,225)" transform="translate(0,0)"></path>
<path d="M 1404.84 777.94 C 1408.78 777.675 1412.96 777.714 1416.51 779.68 C 1419.22 781.184 1421.3 783.896 1421.9 786.966 C 1422.8 791.628 1394.38 895.61 1390.35 900.502 C 1388.11 903.22 1383.94 905.075 1380.45 905.082 C 1368.54 905.104 1350.46 883.339 1341.71 875.258 C 1335.66 869.827 1320.44 857.884 1318.85 848.758 C 1316.44 837.599 1332.01 828.472 1341.09 834.101 C 1351.48 840.542 1361.63 850.045 1371.3 857.755 C 1376.02 843.353 1381.78 828.494 1386.98 814.201 C 1390.92 803.353 1395.77 784.405 1404.84 777.94 z" fill="rgb(231,89,42)" transform="translate(0,0)"></path>
<path d="M 201.868 1114.12 C 206.721 1114.45 216.508 1123.52 221.418 1127.01 C 227.359 1131.23 233.538 1135.11 239.923 1138.62 C 252.216 1145.46 264.516 1150.24 277.908 1154.46 C 342.797 1174.94 491.36 1179.64 557.456 1164.23 C 576.021 1159.9 592.226 1152.29 609.012 1143.56 C 632.827 1186.15 617.328 1227.31 577.546 1252.44 C 570.813 1256.04 564.708 1258.93 557.395 1261.29 C 549.927 1263.69 542.2 1265.18 534.376 1265.75 C 517.799 1266.79 492.955 1266.07 475.91 1266.06 L 364.057 1265.94 L 270.98 1266.02 C 254.005 1266.03 236.776 1266.4 219.84 1265.48 C 187.007 1263.7 156.245 1239.04 146.665 1207.63 C 140.938 1188.79 143 1168.44 152.39 1151.12 C 163.407 1131.01 180.454 1120.36 201.868 1114.12 z" fill="rgb(252,235,225)" transform="translate(0,0)"></path>
<path d="M 353.721 1299.36 C 364.531 1298.46 375.406 1299.98 385.557 1303.8 C 404.65 1310.87 426.756 1332.2 432.196 1351.05 C 435.305 1361.82 433.745 1401.67 433.754 1414.42 L 433.821 1517.84 L 433.838 1611.93 C 433.832 1628.73 433.752 1645.61 433.603 1662.39 C 433.353 1690.71 420.13 1707.74 394.421 1718.35 C 388.225 1719.87 383.921 1720.94 377.506 1721.05 C 362.015 1721.45 347.009 1715.63 335.827 1704.91 C 314.735 1684.42 318.655 1660.47 318.501 1633.56 L 318.277 1566.93 L 318.366 1312.1 C 331.876 1304.04 338.186 1301.31 353.721 1299.36 z" fill="rgb(252,235,225)" transform="translate(0,0)"></path>
<path d="M 948.322 296.719 C 949.742 299.45 952.667 307.556 954.292 311.103 C 957.949 319.089 961.62 326.385 965.619 334.205 C 958.373 354.479 959.512 340.233 947.186 344.311 L 946.435 346.014 C 949.128 348.085 956.496 348.135 960.386 348.456 C 957.939 355.088 953.906 367.349 950.24 372.835 C 946.231 374.192 948.746 370.532 943.504 370.125 C 939.906 374.878 945.07 400.091 946.216 407.012 C 940.755 407.14 934.972 407.059 929.48 407.075 C 915.132 432.027 895.032 452.352 865.456 457.686 C 839.708 462.33 815.97 443.877 803.873 422.654 C 801.987 419.346 798.797 409.27 797.022 407.958 L 795.451 408.7 C 794.133 415.719 805.404 432.001 809.38 437.554 C 790.308 451.987 770.53 468.74 750.219 481.434 C 737.372 489.464 724.135 487.155 710.436 482.489 C 678.876 468.869 658.531 441.799 666.387 406.734 C 701.898 392.379 737 376.916 772.523 362.579 C 778.58 366.999 787.023 372.471 794.859 370.336 L 794.922 369.106 C 787.292 362.055 771.484 365.568 767.779 348.423 C 759.323 309.286 813.931 300.767 819.367 341.444 C 847.463 340.539 863.269 333.384 887.324 320.998 C 916.855 325.497 928.791 318.961 948.322 296.719 z" fill="rgb(252,235,225)" transform="translate(0,0)"></path>
<path d="M 896.902 362.657 C 899.532 361.45 902.607 361.748 904.955 363.439 C 907.304 365.13 908.562 367.952 908.251 370.829 C 907.939 373.705 906.106 376.193 903.45 377.342 C 899.407 379.091 894.709 377.261 892.915 373.237 C 891.121 369.214 892.899 364.496 896.902 362.657 z" fill="rgb(27,23,20)" transform="translate(0,0)"></path>
<path d="M 899.603 328.126 C 912.659 327.691 923.107 331.518 930.846 343 C 931.766 344.365 931.02 345.956 929.471 346.479 C 928.425 345.846 922.492 339.043 920.442 337.277 C 904.919 327.929 898.354 331.28 885.543 338.125 C 885.3 338.255 884.469 337.586 884.127 337.058 C 883.89 333.195 896.703 328.95 899.603 328.126 z" fill="rgb(27,23,20)" transform="translate(0,0)"></path>
<path d="M 871.806 398.508 C 877.886 401.058 876.069 413.318 888.571 415.693 C 893.883 416.701 898.967 415.545 902.449 418.414 C 888.164 424.121 871.881 414.701 871.806 398.508 z" fill="rgb(27,23,20)" transform="translate(0,0)"></path>
<path d="M 788.205 333.843 C 796.552 335.329 801.925 343.823 804.028 351.51 C 801.836 351.692 800.105 352.181 799.309 349.441 C 797.308 342.555 790.423 339.718 788.205 333.843 z" fill="rgb(27,23,20)" transform="translate(0,0)"></path>
<path d="M 967.724 743.52 C 985.707 743.22 1003.69 743.269 1021.67 743.385 C 1031.56 743.449 1051.68 743.983 1048.46 758.911 C 1039.32 771.791 970.565 761.466 955.508 767.022 L 955.196 768.525 C 960.085 771.747 1034.08 766.825 1047.33 768.495 C 1059.05 769.974 1062.15 783.629 1052.82 787.298 C 1042.08 791.523 958.865 788.076 954.399 792.437 C 959.818 799.851 1040.59 784.868 1053.71 796.604 C 1054.47 798.545 1054.71 800.028 1054.29 802.066 C 1050.38 821.285 969.023 809.646 955.042 817.989 L 954.709 819.459 C 957.169 820.581 963.214 819.818 966.25 819.641 C 977.578 819.057 1030.41 815.141 1038.07 816.191 C 1051.5 833.369 1003.23 834.729 995.493 837.647 C 977.207 844.544 962.95 853.081 943.767 858.542 C 917.277 866.082 893.72 865.732 866.428 866.801 L 799.091 869.333 C 813.284 828.976 811.785 809.61 800.247 768.583 C 817.258 770.712 821.087 773.497 838.135 767.448 C 858.926 760.071 881.241 752.342 902.814 747.636 C 923.221 743.185 946.687 743.775 967.724 743.52 z" fill="rgb(252,235,225)" transform="translate(0,0)"></path>
<path d="M 928.542 883.595 C 943.232 884.529 960.302 886.725 975.115 888.26 C 1036.78 937.752 1068.64 1024.66 1018.75 1092.25 C 1013.78 1098.99 1007.93 1111.29 998.359 1110.52 C 997.661 1108.77 997.329 1109.06 998.428 1107.72 C 1010.1 1093.05 1021.86 1077.77 1028.31 1059.94 C 1031.26 1051.78 1032.91 1041.98 1032.66 1033.31 C 1032.5 1028 1032.87 1017.11 1030.72 1012.52 L 1028.99 1012.2 C 1028.74 1012.64 1028.36 1035.71 1029.05 1038.31 C 1033.47 1054.77 991.201 1121.49 977.306 1120.61 C 974.071 1118.58 975.007 1119.92 973.759 1116.95 C 975.638 1112.74 983.073 1103.66 986.236 1099.43 C 993.754 1089.37 1000.69 1079.97 1007.65 1069.5 C 1017.25 1053.77 1020.66 1043.86 1018.35 1025.39 C 1017.79 1020.9 1018.34 1016.02 1015.12 1013.34 L 1013.75 1014.2 C 1012.03 1024.22 1016.98 1034.33 1014.2 1046.18 C 1012.82 1052.03 1010.38 1057.53 1007.44 1062.75 C 1002.64 1071.26 975.816 1110.62 968.769 1114.53 C 966.609 1115.72 963.786 1116.26 961.43 1115.31 C 959.616 1114.57 958.23 1112.98 957.477 1111.2 C 956.014 1107.77 956.707 1103.45 958.197 1100.14 C 966.14 1082.51 990.656 1062.91 998.332 1042.23 L 998.84 1040.84 C 989.727 1011.01 991.415 980.309 982.507 950.52 C 981.695 947.805 981.922 948.222 980.126 947.312 C 976.601 951.143 983.245 967.1 983.886 974.289 C 985.395 991.234 991.766 1012.26 989.064 1029.11 C 987.021 1041.85 966.418 1040.25 963.322 1030.21 C 957.922 1012.7 958.679 988.582 951.048 971.157 C 940.002 950.131 943.369 933.184 938.147 910.698 C 935.829 900.716 932.888 893.055 928.542 883.595 z" fill="rgb(252,235,225)" transform="translate(0,0)"></path>
<path d="M 764.7 1411.75 C 835.986 1437.64 911.005 1431.64 975.647 1390.89 C 976.346 1405.18 978.113 1418.28 979.062 1432.17 C 960.166 1455.79 905.79 1470.65 875.203 1474.06 C 849.608 1477.05 823.676 1475.11 798.808 1468.36 C 786.817 1464.56 778.178 1460.59 768.621 1452.51 C 767.851 1445.31 766.998 1438.11 766.062 1430.93 C 765.831 1424.11 765.396 1418.55 764.7 1411.75 z" fill="rgb(231,89,42)" transform="translate(0,0)"></path>
<path d="M 625.068 397.454 C 640.586 397.61 649.961 398.201 665.434 400.819 C 656.707 420.788 660.554 440.886 673.264 458.323 C 684.977 474.393 703.374 486.572 723.114 489.961 C 742.876 493.353 754.382 483.775 769.334 472.933 C 777.711 480.635 784.832 488.619 791.997 497.417 C 789.045 500.623 785.546 503.989 782.445 507.111 C 723.733 553.861 663.354 510.837 633.159 453.297 C 628.478 444.377 613.132 408.504 615.941 399.543 C 619.452 397.081 620.348 397.779 625.068 397.454 z" fill="rgb(252,235,225)" transform="translate(0,0)"></path>
<path d="M 643.381 1299.9 L 691.856 1194.93 C 705.722 1250.57 721.491 1311.56 736.7 1366.99 C 720.347 1362.76 696.685 1348.15 682.57 1337.85 C 674.043 1331.63 644.706 1308.33 643.381 1299.9 z" fill="rgb(231,89,42)" transform="translate(0,0)"></path>
<path d="M 641.202 1305.06 C 664.039 1329.66 690.589 1351.32 721.41 1365.4 C 724.568 1366.84 732.243 1370.2 735.589 1369.68 C 740.208 1374.89 747.485 1410.46 749.624 1419.3 C 711.256 1409.76 667.208 1389.74 638.299 1362.56 C 632.785 1356.69 628.676 1352.09 625.108 1344.71 C 627.357 1331.35 634.802 1317.16 641.202 1305.06 z" fill="rgb(231,89,42)" transform="translate(0,0)"></path>
<path d="M 669.333 200.6 C 642.501 158.74 641.759 102.981 691.994 77.1236 C 711.443 67.1128 731.963 70.6066 751.725 78.0969 L 749.42 81.5963 C 743.011 81.8906 736.589 83.1664 730.435 84.9601 C 706.495 91.874 686.349 108.141 674.548 130.089 C 661.688 154.224 661.647 175.142 669.333 200.6 z" fill="rgb(255,255,255)" transform="translate(0,0)"></path>
<path d="M 953.51 241.939 C 952.893 241.801 951.48 241.78 951.345 240.925 C 952.49 239.188 959.309 240.362 961.118 240.625 C 964.773 241.057 966.667 241.226 970.302 241.978 C 1035.19 244.292 1075.07 319.384 1006.72 355.445 C 1013.51 346.326 1018.43 338.992 1021.1 327.816 C 1032.21 281.304 995.88 258.879 959.156 243.608 C 957.168 243.114 955.452 242.558 953.51 241.939 z" fill="rgb(255,255,255)" transform="translate(0,0)"></path>
<path d="M 953.51 241.939 C 952.893 241.801 951.48 241.78 951.345 240.925 C 952.49 239.188 959.309 240.362 961.118 240.625 C 964.773 241.057 966.667 241.226 970.302 241.978 C 966.022 242.381 962.785 241.623 959.156 243.608 C 957.168 243.114 955.452 242.558 953.51 241.939 z" fill="rgb(247,241,234)" transform="translate(0,0)"></path>
<path d="M 953.51 241.939 C 952.893 241.801 951.48 241.78 951.345 240.925 C 952.49 239.188 959.309 240.362 961.118 240.625 C 958.458 241.017 956.151 241.423 953.51 241.939 z" fill="rgb(155,146,145)" transform="translate(0,0)"></path>
<path d="M 751.725 78.0969 C 752.826 78.6197 754.839 79.2924 755.357 80.408 C 755.083 81.3514 750.154 81.5129 749.42 81.5963 L 751.725 78.0969 z" fill="rgb(247,241,234)" transform="translate(0,0)"></path>
<path d="M 1780.28 280.33 C 1817.87 277.892 1822.24 305.922 1853.22 312.326 C 1874.57 316.74 1893.88 299.512 1918.29 309.31 C 1940.42 318.194 1941.95 329.336 1951.06 348.749 C 1966.47 381.552 1992.71 362.402 2017.25 370.362 C 2043.65 378.924 2036.65 410.673 2046.61 422.02 C 2062.06 439.624 2084.34 437.814 2096.76 466.129 C 2101.42 476.48 2101.58 488.297 2097.21 498.773 C 2085.25 527.9 2043.43 543.221 2015.87 554.675 C 2078.38 580.344 2127.51 622.1 2172.03 672.372 C 2210.22 715.497 2295.85 836.738 2291.88 894.241 C 2290.18 918.934 2275.68 938.051 2257.52 953.641 C 2267.41 973.21 2274.84 993.926 2279.65 1015.32 C 2292.05 1071.06 2285.37 1119.82 2254.47 1168.25 C 2258.74 1171.83 2263.64 1175.6 2267.58 1179.47 C 2302.05 1213.28 2300.15 1267.69 2265.79 1300.78 C 2234.45 1330.98 2204.53 1330.17 2164.51 1330.1 L 2108.33 1329.93 C 2107.93 1350.02 2108.5 1372.37 2108.45 1392.69 L 2108.32 1589.59 C 2108.23 1606.21 2108.28 1622.82 2108.48 1639.43 C 2108.59 1652.27 2109.12 1665.51 2107.36 1678.24 C 2103.6 1705.43 2076.52 1727.01 2049.53 1727.54 C 2032.44 1727.91 2015.94 1721.25 2003.89 1709.11 C 1982.6 1687.93 1986.26 1660.55 1986.26 1632.8 L 1986.28 1567.75 L 1986.26 1329.88 C 1967.43 1329.95 1948.12 1329.85 1929.33 1329.98 C 1891.38 1330.24 1867.87 1318.93 1842.64 1291.35 C 1849.86 1313.48 1856.86 1335.68 1863.63 1357.95 C 1882.55 1366.01 1878.88 1378.77 1884.96 1396.35 C 1893.63 1421.4 1894.84 1440.17 1866.16 1450.75 C 1867.27 1456.29 1874.53 1488 1877.47 1490.19 C 1886.39 1496.84 1888.02 1484.35 1895.01 1511.96 C 1902.17 1540.19 1946.05 1701.2 1938.19 1718.27 C 1930.02 1726.1 1877.72 1730.15 1868.63 1722.56 C 1864.84 1715.21 1863.53 1670.91 1862.81 1659.06 C 1845.45 1679.79 1826.87 1710.27 1806.67 1727.84 C 1804.88 1729.39 1796.78 1731.17 1793.99 1731.83 C 1754.32 1741.71 1686.27 1746.28 1644.17 1737.78 C 1632.84 1733.84 1635.57 1715.63 1637.79 1707.73 C 1648.07 1671.05 1682.34 1666.22 1709.18 1650.26 C 1719.78 1644.04 1729.23 1636.05 1737.12 1626.63 C 1773.41 1582.52 1737.99 1534.09 1747.71 1513.43 L 1736.7 1484.61 C 1724.01 1487.24 1707.78 1492.09 1695.76 1485.98 C 1674.04 1474.95 1666.51 1411.78 1660.08 1389.92 C 1654.62 1371.35 1649.26 1353.62 1642.91 1335.61 C 1635.68 1355.69 1628.87 1378.03 1622.36 1398.48 C 1620.84 1404.46 1625.04 1401.27 1622.73 1408.28 C 1619.27 1419.51 1614.66 1430.87 1611.34 1442.1 C 1602.26 1472.82 1593.28 1489.61 1557.81 1479.89 C 1555.1 1487.51 1544.87 1508.33 1545.22 1514.21 C 1548.61 1516.38 1549.59 1516.61 1551.21 1520.06 C 1551.75 1526.77 1530.17 1585.21 1527.45 1597.9 C 1523.39 1616.78 1529.65 1707.86 1524.33 1716.22 C 1516 1722.34 1466.58 1722.69 1460.86 1717.72 C 1454.39 1712.1 1458.04 1667.7 1458.36 1657.12 C 1439.45 1674.34 1415.79 1699.7 1396.86 1718.42 C 1385.23 1721.27 1372.31 1723.1 1360.34 1724.15 C 1324.48 1727.25 1287.72 1727.69 1252.07 1722.26 C 1239.36 1720.32 1231.35 1716.69 1234.42 1702.07 C 1235.85 1695.25 1238.32 1688.68 1241.75 1682.6 C 1258.45 1653.43 1281.41 1650.71 1307.27 1638.59 C 1333.36 1626.68 1354.82 1606.52 1368.33 1581.22 C 1378.61 1562.12 1382.36 1539.92 1388.91 1519.33 C 1395.03 1500.06 1391.03 1484.05 1416.94 1490.31 C 1421.59 1475.96 1426.6 1461.73 1431.96 1447.64 C 1423.92 1445.65 1410.63 1443.07 1403.9 1438.45 C 1383.03 1423.91 1395.77 1395.66 1401.84 1376.57 C 1405.61 1364.73 1408.97 1358.27 1421.45 1355.47 L 1489.96 1121.91 L 1506.32 1065.97 C 1519.48 1020.41 1523.31 1000.66 1561.3 969.211 C 1557.77 944.519 1561.72 927.337 1575.9 906.565 C 1556.38 888.979 1557.5 863.199 1560.08 839.033 C 1565.88 784.756 1577.12 730.916 1591.43 678.281 C 1595.83 662.129 1595.58 657.87 1613.26 658.673 C 1616.59 656.417 1621.67 634.099 1623.39 628.148 C 1558.89 617.221 1538.7 572.317 1584.57 522.65 C 1610.19 494.911 1580.37 463.06 1591.66 433.767 C 1600.54 410.707 1625.76 407.719 1639.44 388.781 C 1652.75 370.35 1641.21 346.468 1656.96 328.736 C 1675.1 307.352 1694.98 318.968 1717.44 311.898 C 1743.63 300.68 1746.9 283.976 1780.28 280.33 z" fill="rgb(27,23,20)" transform="translate(0,0)"></path>
<path d="M 2198.31 984.848 C 2221.3 976.118 2234.19 970.298 2254.77 955.97 C 2279.55 1010.23 2292.34 1071.37 2270.91 1129.27 C 2255.68 1169.74 2224.87 1202.41 2185.36 1219.99 C 2127.06 1246.46 2066.16 1236.88 2004.99 1229.84 C 1941.23 1222.5 1878.04 1210.5 1814.54 1201.93 C 1810.73 1193.05 1783.94 1128.71 1780.8 1126.39 C 1779.29 1131.53 1793.9 1164 1797.52 1171.68 C 1809.12 1196.33 1815.81 1220.33 1824.1 1246.09 L 1860.18 1358.95 C 1835.26 1368.46 1811.47 1377.38 1785.62 1384.39 C 1764.75 1326.41 1747.09 1267.33 1732.7 1207.41 C 1724.5 1172.16 1705.54 1110.42 1752.73 1095.1 C 1757.33 1093.61 1774.8 1091.28 1776 1089.93 L 1775.33 1088.51 C 1767.77 1086.1 1752.61 1090.46 1745.72 1093.97 C 1733.76 1100.07 1724.87 1109.64 1720.76 1122.52 C 1708.35 1161.41 1753.62 1300.31 1768.12 1344.83 C 1772.53 1358.36 1777.88 1371.77 1781.93 1385.38 C 1750.08 1393.07 1700.65 1401.15 1667.94 1402.17 L 1608.42 1208.59 C 1601.72 1186.44 1595.14 1164.02 1588.4 1141.9 C 1575.72 1100.32 1568.06 1063.03 1589.98 1022.53 C 1606.07 992.822 1627.23 979.361 1657.85 967.329 C 1732.6 984.89 1887.63 1017.84 1958.31 981.205 C 1996.85 991.501 2016.59 995.851 2053.9 1009.85 C 2066.47 1014.52 2078.91 1019.51 2091.2 1024.84 C 2097.82 1027.7 2112.78 1034.75 2118.95 1036.12 L 2119.48 1035.35 C 2109.69 1026.36 2060.36 1008.2 2045.18 1002.54 C 2043.64 1002.1 2041.16 1001.03 2039.58 1000.42 L 2039.75 999.546 C 2046.39 999.377 2050.47 1000.03 2057.1 1000.92 C 2107.93 1001.77 2145.12 1000.45 2194.73 986.044 C 2213.13 1037.29 2207.1 1083.6 2150.74 1103.54 C 2143.59 1106.01 2136.26 1107.93 2128.82 1109.29 C 2122.21 1110.49 2097.42 1111.77 2094.69 1114.44 C 2100.87 1118.21 2130.43 1112.77 2138.66 1110.82 C 2205.77 1094.84 2220.08 1044.8 2198.31 984.848 z" fill="rgb(252,235,225)" transform="translate(0,0)"></path>
<path d="M 1791.86 1088.23 C 1806.89 1089.03 1825.88 1091.39 1841.2 1092.74 L 1964.28 1103.84 L 2035.96 1109.8 C 2047.6 1110.75 2059.73 1111.63 2071.37 1112.85 C 2075.14 1113.24 2074.7 1113.33 2076.31 1115.68 C 2069.06 1116.55 2051.74 1114.86 2043.94 1114.24 L 1988 1109.58 L 1879.24 1099.8 C 1868.73 1098.89 1797.13 1093.49 1792.36 1090.92 L 1791.86 1088.23 z" fill="rgb(27,23,20)" transform="translate(0,0)"></path>
<path d="M 1981.95 549.418 C 1982.64 549.517 1983.33 549.625 1984.01 549.743 C 2072.36 564.94 2161.59 658.617 2211.18 728.007 C 2142.71 789.201 2095.16 814.448 2007.81 841.081 C 2015.68 823.998 2059.39 729.626 2056.78 719.016 C 2056.3 718.939 2055.79 718.626 2055.32 718.783 C 2053.54 719.384 2043.86 748.325 2042.58 751.775 C 2022.59 805.469 1993.72 854.851 1964.46 903.92 C 1953.73 921.91 1943.3 941.784 1929.9 957.894 C 1923.8 965.229 1916.73 971.563 1908.48 976.397 C 1851.24 1009.94 1723.85 980.555 1661.87 964.117 C 1646.91 923.724 1659.78 889.236 1686.77 857.73 C 1723.77 854.144 1759.81 850.302 1797.06 851.349 C 1808.77 851.678 1820.45 852.413 1832.1 853.551 C 1841.64 854.512 1852.45 856.351 1861.75 855.911 L 1861.29 854.842 C 1850.87 851.784 1837.4 850.348 1826.37 848.774 C 1834.46 831.982 1901.78 695.332 1900.52 690.307 C 1890.74 700.033 1833.03 826.903 1821.61 850.143 C 1805.99 823.719 1800.87 791.049 1803.27 760.886 C 1803.5 758.08 1804.36 749.993 1803.12 747.825 C 1791.83 766.153 1803.37 814.94 1809.68 834.24 C 1781.11 839.161 1752.02 841.839 1723.17 844.986 C 1722.16 823.205 1721.82 801.399 1722.13 779.597 C 1722.23 769.682 1722.3 750.941 1724.17 741.602 C 1731.45 705.248 1757.63 665.719 1780.62 637.341 C 1824.48 664.511 1883.12 654.05 1923.12 624.616 C 1950.79 604.256 1968.36 580.846 1981.95 549.418 z" fill="rgb(231,89,42)" transform="translate(0,0)"></path>
<path d="M 2007.81 841.081 C 2095.16 814.448 2142.71 789.201 2211.18 728.007 C 2220.38 741.529 2228.64 753.882 2237.18 767.897 C 2241.8 775.318 2255.44 797.515 2258.19 805.087 C 2266.21 820.592 2272.8 834.322 2279.39 850.506 C 2288.19 874.412 2292.94 892.482 2281.95 917.302 C 2268.48 947.733 2233.04 968.392 2202.79 979.176 C 2151.4 997.497 2084.53 1002.02 2030.75 994.569 C 2006.81 991.251 1963.72 979.59 1941.06 971.432 L 1940.2 970.023 L 1941.02 968.663 C 1950.21 952.597 1959.07 936.34 1967.58 919.905 C 1971.75 911.63 1975.98 903.39 1980.28 895.186 C 1990.29 876.912 1998.43 859.538 2007.81 841.081 z" fill="rgb(252,235,225)" transform="translate(0,0)"></path>
<path d="M 2279.39 850.506 C 2288.19 874.412 2292.94 892.482 2281.95 917.302 C 2268.48 947.733 2233.04 968.392 2202.79 979.176 C 2151.4 997.497 2084.53 1002.02 2030.75 994.569 C 2006.81 991.251 1963.72 979.59 1941.06 971.432 L 1940.2 970.023 L 1941.02 968.663 C 1971.33 967.597 1999.88 966.513 2029.98 962.116 C 2123.96 948.387 2208.98 914.924 2279.39 850.506 z" fill="rgb(231,89,42)" transform="translate(0,0)"></path>
<path d="M 2007.81 841.081 C 2095.16 814.448 2142.71 789.201 2211.18 728.007 C 2220.38 741.529 2228.64 753.882 2237.18 767.897 C 2171.13 832.706 2074.9 879.508 1982.87 895.669 C 1982.38 895.756 1980.81 895.365 1980.28 895.186 C 1990.29 876.912 1998.43 859.538 2007.81 841.081 z" fill="rgb(252,235,225)" transform="translate(0,0)"></path>
<path d="M 2237.18 767.897 C 2241.8 775.318 2255.44 797.515 2258.19 805.087 C 2243.22 818.469 2228.48 831.995 2212.05 843.524 C 2145.97 889.879 2048.18 919.331 1967.58 919.905 C 1971.75 911.63 1975.98 903.39 1980.28 895.186 C 1980.81 895.365 1982.38 895.756 1982.87 895.669 C 2074.9 879.508 2171.13 832.706 2237.18 767.897 z" fill="rgb(231,89,42)" transform="translate(0,0)"></path>
<path d="M 1612.98 953.37 C 1636.13 952.612 1633 959.322 1651.62 965.096 L 1653.02 965.52 C 1629.75 972.715 1607.22 989.563 1593.28 1009.6 C 1572.23 1039.83 1571.25 1074.71 1570.55 1110.32 C 1568.68 1205.7 1578.08 1302.99 1595.58 1396.78 C 1567.19 1391.14 1538.91 1384.96 1510.76 1378.24 C 1481.98 1371.42 1453.31 1364.11 1424.77 1356.32 C 1447.51 1280.77 1469.82 1205.09 1491.69 1129.28 L 1510.56 1064.9 C 1514.08 1052.83 1517.3 1040.4 1521.57 1028.6 C 1536.22 988.022 1569.87 958.745 1612.98 953.37 z" fill="rgb(252,235,225)" transform="translate(0,0)"></path>
<path d="M 2028.44 1360.34 C 2047.75 1359.21 2065.38 1365.33 2079.98 1378.12 C 2088.33 1384.96 2104.62 1407.67 2104.67 1418.22 C 2105.06 1501.14 2105.01 1584.15 2104.69 1667.07 C 2104.59 1693.99 2089.34 1711.85 2064.86 1721.12 C 2058.8 1722.68 2054.78 1723.67 2048.49 1723.71 C 2032.84 1723.83 2017.8 1717.65 2006.76 1706.56 C 1986.77 1686.67 1989.93 1661.45 1989.95 1635.46 L 1990.02 1578.65 L 1990.04 1374.77 C 2003.92 1365.42 2012.1 1362.12 2028.44 1360.34 z" fill="rgb(231,89,42)" transform="translate(0,0)"></path>
<path d="M 1722.83 360.935 C 1724.51 363.108 1725.95 368.441 1727.6 371.454 C 1735.24 385.351 1751.61 383.568 1764.59 387.435 C 1778.52 391.199 1775.07 408.446 1781.37 417.396 C 1790.68 430.619 1803.74 433.082 1806.14 451.665 C 1806.31 452.917 1809.08 454.43 1810.94 454.676 C 1816.48 455.414 1819.27 444.902 1824.01 442.277 C 1830.02 437.736 1834.76 435.082 1842.84 435.487 C 1849.81 436.007 1854.14 440.141 1858.41 445.006 C 1869.03 457.102 1865.9 473.221 1852.89 482.179 C 1842.02 489.657 1832.87 486.699 1820.97 484.258 C 1834.77 493.078 1881.65 539.612 1895.81 553.387 C 1922 545.603 1951.13 546.123 1978.07 549.25 C 1948.79 620.334 1866.63 672.609 1791.27 639.251 L 1782.87 634.342 C 1791.98 625.014 1804.71 612.289 1814.44 604.125 C 1828.77 615.658 1839.66 613.699 1856.48 610.908 C 1871 608.499 1900.98 583.231 1896.3 567.77 C 1894.11 569.126 1889.53 580.372 1886.96 584.276 C 1884.01 588.718 1880.43 592.706 1876.33 596.114 C 1865.41 605.281 1850.51 610.914 1836.16 609.322 C 1830.62 608.732 1825.29 606.865 1820.59 603.867 C 1812.42 598.586 1788.6 571.916 1782.03 563.562 C 1785 554.262 1792.45 537.564 1796.37 527.965 C 1788.38 531.301 1771.57 541.405 1762.64 546.124 C 1756.96 543.96 1741.51 542.54 1734.77 540.906 C 1726.93 539.006 1719.99 541.39 1711.73 537.209 C 1668.67 515.427 1679.29 449.931 1690.43 412.245 C 1693.91 400.516 1709.31 409.328 1716.47 406.179 L 1716.37 405.156 L 1713.51 403.019 C 1704.42 401.478 1701.73 401.631 1693.13 403.844 C 1702.22 385.342 1709.52 376.035 1722.83 360.935 z" fill="rgb(252,235,225)" transform="translate(0,0)"></path>
<path d="M 1750.22 472.429 C 1762.21 472.601 1744.12 519.975 1716.82 501.945 C 1712.31 496.899 1710.18 493.658 1708.94 486.509 C 1708.46 483.793 1707.88 476.456 1709.65 474.129 C 1710.95 472.412 1714.12 474.108 1717.02 474.093 C 1727.96 474.039 1739.33 473.312 1750.22 472.429 z" fill="rgb(27,23,20)" transform="translate(0,0)"></path>
<path d="M 1744.51 476.457 C 1752.65 475.252 1750.39 480.214 1748.15 486.521 C 1743.74 498.908 1732.59 505.043 1720.66 500.212 C 1715.97 495.585 1712.77 491.246 1712.16 484.528 C 1712.34 481.344 1710.3 477.205 1714.95 477.348 C 1724.42 477.639 1735.16 477.183 1744.51 476.457 z" fill="rgb(255,255,255)" transform="translate(0,0)"></path>
<path d="M 1701.21 424.612 C 1705.25 422.873 1709.93 424.741 1711.66 428.782 C 1713.4 432.822 1711.52 437.502 1707.48 439.229 C 1703.44 440.952 1698.78 439.081 1697.05 435.049 C 1695.32 431.017 1697.18 426.347 1701.21 424.612 z" fill="rgb(27,23,20)" transform="translate(0,0)"></path>
<path d="M 1748.34 430.513 C 1752.53 429.848 1756.5 432.6 1757.34 436.755 C 1758.19 440.911 1755.61 444.995 1751.49 446.019 C 1748.67 446.721 1745.69 445.818 1743.73 443.666 C 1741.77 441.514 1741.15 438.46 1742.11 435.713 C 1743.07 432.966 1745.46 430.97 1748.34 430.513 z" fill="rgb(27,23,20)" transform="translate(0,0)"></path>
<path d="M 1721.63 428.772 C 1725.49 433.441 1709.82 447.66 1706.2 451.362 C 1711.19 454.624 1720.08 456.58 1716.58 461.621 C 1712.87 459.678 1698.67 453.4 1702.85 449.458 C 1708.73 443.913 1716.12 434.7 1721.63 428.772 z" fill="rgb(27,23,20)" transform="translate(0,0)"></path>
<path d="M 1748.56 407.352 C 1759.05 406.662 1767.92 406.05 1775.72 415.328 C 1776.98 416.832 1774.98 417.884 1773.89 418.341 C 1766.94 412.344 1762.85 409.615 1753.01 410.62 C 1749.82 410.945 1745.68 411.77 1748.56 407.352 z" fill="rgb(27,23,20)" transform="translate(0,0)"></path>
<path d="M 1838.65 455.911 C 1844.85 455.854 1847.57 458.186 1841.07 459.799 C 1834.73 461.373 1834.07 462.171 1828.99 466.185 C 1825.3 470.992 1819.63 465.336 1838.65 455.911 z" fill="rgb(27,23,20)" transform="translate(0,0)"></path>
<path d="M 2259 1176.36 C 2271.86 1185.31 2282.9 1204.62 2286.53 1219.86 C 2291.61 1240.97 2287.96 1263.23 2276.41 1281.61 C 2246.01 1330.77 2198.66 1326.26 2148.97 1326.19 L 2049.88 1326.08 L 1961.85 1326.21 C 1922.63 1326.26 1901.56 1330.61 1866.94 1308.88 C 1840.68 1289.59 1837.4 1275.46 1827.82 1245.15 C 1913.72 1259.19 2008.31 1251.79 2094.7 1244.78 C 2148.83 1240.39 2238.13 1238.06 2259 1176.36 z" fill="rgb(231,89,42)" transform="translate(0,0)"></path>
<path d="M 1605.86 660.885 C 1615.16 662.164 1626.34 678.74 1640.36 684.702 C 1656.55 692.197 1675.76 693.044 1692.52 686.082 C 1697.53 682.275 1721.61 670.468 1722.16 683.977 C 1722.76 698.735 1682.69 712.453 1669.84 711.085 C 1662.6 710.314 1656.18 709.654 1651.58 710.057 L 1651.04 711.407 C 1655.96 716.108 1675.29 714.66 1682.01 713.507 C 1697.41 710.867 1709.85 703.155 1722.18 694.041 C 1719.13 741.126 1716.56 798.056 1720.01 845.101 C 1701.25 847.001 1685.18 846.803 1666.25 850.533 C 1635.36 857.596 1599.36 880.455 1578.11 903.854 C 1568.59 894.556 1562.16 878.832 1562.58 865.665 C 1564.51 805.995 1578.8 738.039 1594.69 681.002 C 1603.29 690.309 1622.36 705.643 1635.07 707.723 L 1636.28 706.45 C 1634.18 703.389 1619.64 696.749 1615.4 693.648 C 1607.84 688.108 1602.06 684.128 1595.87 676.744 C 1598.2 668.566 1598.59 665.114 1605.86 660.885 z" fill="rgb(231,89,42)" transform="translate(0,0)"></path>
<path d="M 1859.22 1362.88 C 1871.89 1361.97 1873.52 1368.89 1876.22 1379.86 C 1881.15 1399.12 1898.71 1433.24 1871.78 1444.17 C 1842.92 1455.87 1723.64 1491.33 1698.8 1483.67 C 1684.99 1474.73 1683.27 1464.61 1679.09 1449.73 C 1674.97 1435.08 1670.8 1420.52 1666.17 1406.02 C 1741.05 1400.02 1789.71 1391.78 1859.22 1362.88 z" fill="rgb(252,235,225)" transform="translate(0,0)"></path>
<path d="M 1420.69 1359.03 C 1425.01 1359.67 1437.95 1363.51 1442.66 1364.78 C 1457.54 1368.88 1472.49 1372.75 1487.49 1376.4 C 1531.94 1387.21 1574.8 1396.02 1619.27 1405.74 C 1614.8 1419.09 1610.71 1432.63 1606.29 1446 C 1602.15 1458.52 1600.73 1465.88 1590.5 1474.68 C 1572.97 1483.69 1559.58 1476.59 1541.5 1471.93 L 1487.69 1458.13 L 1437.12 1445.15 C 1402.79 1436.32 1386.03 1433.66 1401.56 1391.27 C 1406.27 1378.43 1405.16 1363.59 1420.69 1359.03 z" fill="rgb(252,235,225)" transform="translate(0,0)"></path>
<path d="M 1617.21 662.867 C 1623.59 640.564 1629.61 613.72 1642.69 594.453 C 1652.18 580.014 1662.62 565.767 1673.3 552.376 C 1700.87 517.835 1737.05 546.438 1713.7 581.799 C 1710.91 586.013 1700.97 596.131 1695.88 596.677 C 1691.88 595.499 1693.57 596.51 1690.65 593.475 C 1687.08 583.041 1699.8 572.607 1700.06 566.397 C 1696.7 567.028 1696.19 568.561 1693.41 571.395 C 1689.23 567.245 1686.18 557.779 1683.57 556.623 L 1682.22 557.793 C 1681.73 564.459 1687.12 570.255 1691.76 574.453 C 1687.64 579.467 1685.06 584.171 1686.88 590.474 C 1690.93 604.496 1704.13 619.613 1717.66 625.046 C 1721.61 626.632 1728.67 619.908 1732.46 626.809 C 1731.1 630.886 1714.98 640.529 1710.42 643.518 L 1708.37 673.784 C 1673.9 695.33 1645.66 690.564 1617.21 662.867 z" fill="rgb(252,235,225)" transform="translate(0,0)"></path>
<path d="M 1435.34 1448.49 L 1554.67 1479.28 C 1549.71 1490.68 1544.9 1502.14 1540.25 1513.67 C 1503.38 1508.79 1458.53 1497.46 1420.33 1491.38 L 1435.34 1448.49 z" fill="rgb(231,89,42)" transform="translate(0,0)"></path>
<path d="M 1861.68 1452.12 C 1863.94 1455.08 1871.96 1487.27 1873.57 1493.38 C 1830.8 1501.81 1794.54 1507.39 1751.94 1514.11 C 1748.06 1503.95 1744 1493.87 1739.74 1483.86 C 1783.49 1474.92 1819.32 1466.9 1861.68 1452.12 z" fill="rgb(231,89,42)" transform="translate(0,0)"></path>
<path d="M 1645.27 869.174 L 1649.77 868.803 L 1650.6 869.737 C 1648.58 876 1642.2 881.369 1639.46 887.146 C 1628.27 910.749 1624.65 926.507 1631.98 951.009 C 1608.75 947.498 1594.16 951.908 1573.25 961.909 L 1564.3 967.144 C 1559.33 913.478 1595.76 880.766 1645.27 869.174 z" fill="rgb(252,235,225)" transform="translate(0,0)"></path>
<path d="M 1738.2 629.052 C 1756.84 643.793 1766.01 622.651 1769.98 607.491 C 1774.94 588.511 1775.66 579.169 1772.49 559.991 C 1784.89 573.45 1798.76 588.567 1811.72 601.421 C 1773.4 635.756 1749 667.891 1727.66 715.3 C 1727.15 717.591 1724.87 723.177 1723.95 725.65 L 1724.45 712 C 1724.68 706.394 1724.91 699.896 1725.88 694.464 C 1725.9 681.252 1726.26 677.112 1712.9 672.854 L 1712.22 672.648 L 1714.21 645.601 C 1722.25 640.152 1730.25 634.635 1738.2 629.052 z" fill="rgb(255,255,255)" transform="translate(0,0)"></path>
<path d="M 1723.95 725.65 L 1724.45 712 C 1724.68 706.394 1724.91 699.896 1725.88 694.464 C 1726.51 700.835 1724.63 711.481 1727.66 715.3 C 1727.15 717.591 1724.87 723.177 1723.95 725.65 z" fill="rgb(252,235,225)" transform="translate(0,0)"></path>
<path d="M 1679.98 858.464 L 1680.62 859.662 C 1653.35 893.182 1646.05 921.567 1657.21 963.093 L 1642.94 958.495 C 1632.64 951.279 1630.93 936.127 1631.93 924.474 C 1634 900.459 1648.32 875.226 1666.4 859.675 L 1679.98 858.464 z" fill="rgb(231,89,42)" transform="translate(0,0)"></path>
<path d="M 1751.98 547.728 C 1770.51 547.082 1771.01 572.371 1771.13 586.003 C 1771.25 599.379 1752.43 614.594 1742.6 622.923 C 1739.33 625.58 1734.84 626.749 1731.32 620.747 C 1730.44 619.254 1736.41 615.759 1737.99 614.471 C 1753.66 601.705 1756.3 579.28 1753.26 560.494 C 1752.45 555.349 1750.03 552.606 1751.98 547.728 z" fill="rgb(252,235,225)" transform="translate(0,0)"></path>
<path d="M 1737.07 543.939 C 1741.67 544.439 1745.03 545.125 1746.71 550.087 C 1757.03 580.659 1749.18 607.68 1719.86 621.604 C 1706.58 621.85 1709.51 613.01 1718.74 606.771 C 1742.29 590.846 1742.08 568.801 1737.07 543.939 z" fill="rgb(252,235,225)" transform="translate(0,0)"></path>
<path d="M 1720.07 542.975 C 1724.04 542.815 1732.52 544.014 1734.43 548.058 C 1737.43 554.452 1736.83 566.117 1735.99 573 C 1733.64 592.346 1720.93 600.529 1706.58 611.261 C 1700.46 610.326 1693.32 605.002 1700.36 599.816 C 1714.7 589.261 1730.81 570.617 1723.73 551.571 C 1722.55 548.386 1720.96 546.401 1720.07 542.975 z" fill="rgb(252,235,225)" transform="translate(0,0)"></path>
<path d="M 1760.81 611.165 C 1767.22 602.485 1765.8 609.982 1763.96 615.294 C 1760.68 621.781 1754.16 635.189 1743.56 628.866 C 1742.07 627.972 1743.28 626.549 1744.36 625.804 C 1750.43 621.619 1755.33 616.046 1760.81 611.165 z" fill="rgb(252,235,225)" transform="translate(0,0)"></path>
<metadata><recraft-signature>{"signed_by": "recraft", "signature_b64": "YHLtW6qUKQg0KKsIJDHBVDwImZ4D60JH+XyKhnYYerE2STyBFQ1KVuF7CPFRKt0qloButNhgc563RZ+sC2vjCA==", "signing_algo": "Ed25519", "generation_timestamp": 1783393823, "identifier": "8f1123a7-9a24-492d-a825-620a0a3e2bed"}</recraft-signature></metadata></svg>