<svg xmlns="http://www.w3.org/2000/svg" height="1792" preserveAspectRatio="none" style="display: block;" version="1.1" viewBox="0 0 2432 1792" width="2432">
<path d="M 0 0 L 2432 0 L 2432 1792 L 0 1792 L 0 0 z" fill="rgb(255,255,255)" transform="translate(0,0)"></path>
<path d="M 736.407 681.695 C 740.133 687.647 755.894 692.405 762.779 694.541 C 789.101 702.71 817.892 701.402 842.459 688.448 C 847.854 685.603 850.83 684.366 852.304 679.169 C 854.911 682.198 860.461 682.766 864.684 683.557 C 937.563 697.194 974.926 773.308 1017.29 826.374 C 1028.35 840.226 1044.26 860.791 1053.14 875.237 C 1058.52 876.982 1064.82 877.716 1070.44 878.918 C 1089.01 882.891 1101.88 891.603 1111 908.586 C 1111.12 909.615 1111.25 910.643 1111.4 911.667 C 1116.61 915.099 1121.24 924.233 1121.74 930.104 C 1124.48 961.887 1142.15 983.627 1126.26 1015.25 C 1135.71 1036.07 1117.36 1083.15 1109.53 1103.95 C 1108.01 1108.01 1106.31 1112.01 1104.45 1115.92 C 1115.21 1141.27 1125.91 1172.92 1135.55 1199.11 L 1185.05 1331.06 C 1193.66 1353.98 1202.55 1379.92 1211.65 1402.28 C 1207.39 1402.95 1199.62 1403.79 1196.14 1405.56 L 1195.16 1407.08 L 1193.46 1405.09 C 1184.84 1405.22 1066.76 1424.65 1064.42 1426.06 C 1058.11 1427.31 1051.42 1426.57 1045.77 1428.57 L 1044.48 1430.72 L 1057.27 1552.96 C 1064.39 1618.47 1077.94 1641.94 997.114 1650.31 C 947.055 1655.5 906.176 1641.52 858.455 1639.74 C 853.914 1642.85 851.673 1644.74 847.577 1648.33 C 814.043 1648.44 741.405 1658.71 739.561 1604.42 C 739.264 1595.68 745.484 1586.41 752.205 1580.91 C 757.487 1547.67 756.829 1519.89 784.634 1499.2 C 790.243 1485.47 795.663 1471.67 800.893 1457.8 C 805.249 1448.03 809.906 1434.6 813.77 1424.35 C 809.038 1424.03 802.248 1424.16 797.351 1424.11 C 802.718 1411.15 805.94 1396.88 811.461 1384.09 C 829.81 1341.56 847.412 1298.53 863.153 1254.96 C 864.318 1251.74 864.553 1244.68 864.901 1240.89 C 802.08 1242.06 736.497 1240.89 673.356 1241.1 C 671.636 1266.47 667.46 1297.52 664.606 1323.29 L 647.895 1473.09 L 637.449 1564.28 C 635.365 1583.19 633.556 1603.18 630.286 1621.86 C 628.986 1629.28 626.4 1635.32 620.54 1640.41 C 613.937 1646.07 605.321 1648.8 596.664 1647.99 C 558.08 1644.5 570.111 1598.43 573.176 1573.37 C 576.087 1549.77 578.811 1526.15 581.348 1502.51 C 590.777 1415.24 600.726 1328.03 611.194 1240.88 C 591.678 1241.53 571.413 1239.09 565.691 1216.09 C 563.644 1207.7 565.196 1198.83 569.97 1191.62 C 576.433 1181.75 584.487 1178.09 595.408 1175.55 C 570.735 1111.92 559.298 1046.26 542.964 980.272 C 528.257 920.863 514.13 886.95 534.717 825.851 C 536.859 820.888 539.212 816.019 541.771 811.257 C 565.092 767.492 597.981 744.584 644.226 730.338 C 646.884 729.298 649.485 725.726 651.596 723.454 C 663.403 710.748 673.944 702.257 688.97 693.739 C 699.515 688.727 725.284 678.895 736.407 681.695 z" fill="rgb(252,235,225)" transform="translate(0,0)"></path>
<path d="M 736.407 681.695 C 740.133 687.647 755.894 692.405 762.779 694.541 C 789.101 702.71 817.892 701.402 842.459 688.448 C 847.854 685.603 850.83 684.366 852.304 679.169 C 854.911 682.198 860.461 682.766 864.684 683.557 C 937.563 697.194 974.926 773.308 1017.29 826.374 C 1028.35 840.226 1044.26 860.791 1053.14 875.237 L 1050.07 875.127 C 1049.22 875.87 1048.37 876.614 1047.52 877.357 C 1034.12 879.09 1018.28 877.222 1004.99 879.013 C 985.609 881.623 974.307 886.324 956.688 890.624 C 951.173 891.97 930.005 891.248 923.722 891.131 L 929.049 953.36 C 929.775 961.736 930.948 979.893 932.544 987.233 L 930.006 990.641 C 922.877 990.678 905.938 993.771 898.277 994.969 L 841.179 1003.73 L 745.449 1018.19 C 738.699 1019.21 704.851 1024.11 699.902 1025.77 L 697.013 1027.26 C 683.085 1030.27 611.568 1028.28 606.996 1031.99 L 606.669 1032.66 C 600.495 1063.33 606.637 1095.19 623.766 1121.36 C 640.969 1147.41 672.891 1170.66 703.78 1175.68 C 721.174 1178.51 750.2 1177.15 768.396 1177.13 L 896.333 1177.03 C 892.606 1186.16 869.228 1245.3 866.052 1248.56 C 864.932 1247.08 865.061 1243.15 864.901 1240.89 C 802.08 1242.06 736.497 1240.89 673.356 1241.1 C 671.636 1266.47 667.46 1297.52 664.606 1323.29 L 647.895 1473.09 L 637.449 1564.28 C 635.365 1583.19 633.556 1603.18 630.286 1621.86 C 628.986 1629.28 626.4 1635.32 620.54 1640.41 C 613.937 1646.07 605.321 1648.8 596.664 1647.99 C 558.08 1644.5 570.111 1598.43 573.176 1573.37 C 576.087 1549.77 578.811 1526.15 581.348 1502.51 C 590.777 1415.24 600.726 1328.03 611.194 1240.88 C 591.678 1241.53 571.413 1239.09 565.691 1216.09 C 563.644 1207.7 565.196 1198.83 569.97 1191.62 C 576.433 1181.75 584.487 1178.09 595.408 1175.55 C 570.735 1111.92 559.298 1046.26 542.964 980.272 C 528.257 920.863 514.13 886.95 534.717 825.851 C 536.859 820.888 539.212 816.019 541.771 811.257 C 565.092 767.492 597.981 744.584 644.226 730.338 C 646.884 729.298 649.485 725.726 651.596 723.454 C 663.403 710.748 673.944 702.257 688.97 693.739 C 699.515 688.727 725.284 678.895 736.407 681.695 z" fill="rgb(231,89,42)" transform="translate(0,0)"></path>
<path d="M 644.226 730.338 C 644.344 731.622 627.88 763.769 626.338 771.676 C 619.04 809.082 610.731 843.408 610.39 881.882 C 609.988 927.301 599.028 969.621 639.173 1003.37 C 648.37 1011.03 659.098 1016.63 670.637 1019.8 C 677.71 1021.76 696.856 1023.2 699.902 1025.77 L 697.013 1027.26 C 683.085 1030.27 611.568 1028.28 606.996 1031.99 L 606.669 1032.66 C 600.495 1063.33 606.637 1095.19 623.766 1121.36 C 640.969 1147.41 672.891 1170.66 703.78 1175.68 C 721.174 1178.51 750.2 1177.15 768.396 1177.13 L 896.333 1177.03 C 892.606 1186.16 869.228 1245.3 866.052 1248.56 C 864.932 1247.08 865.061 1243.15 864.901 1240.89 C 802.08 1242.06 736.497 1240.89 673.356 1241.1 C 671.636 1266.47 667.46 1297.52 664.606 1323.29 L 647.895 1473.09 L 637.449 1564.28 C 635.365 1583.19 633.556 1603.18 630.286 1621.86 C 628.986 1629.28 626.4 1635.32 620.54 1640.41 C 613.937 1646.07 605.321 1648.8 596.664 1647.99 C 558.08 1644.5 570.111 1598.43 573.176 1573.37 C 576.087 1549.77 578.811 1526.15 581.348 1502.51 C 590.777 1415.24 600.726 1328.03 611.194 1240.88 C 591.678 1241.53 571.413 1239.09 565.691 1216.09 C 563.644 1207.7 565.196 1198.83 569.97 1191.62 C 576.433 1181.75 584.487 1178.09 595.408 1175.55 C 570.735 1111.92 559.298 1046.26 542.964 980.272 C 528.257 920.863 514.13 886.95 534.717 825.851 C 536.859 820.888 539.212 816.019 541.771 811.257 C 565.092 767.492 597.981 744.584 644.226 730.338 z" fill="rgb(27,23,20)" transform="translate(0,0)"></path>
<path d="M 605.688 956.711 L 606.494 956.835 C 620.909 1003.47 648.624 1023.78 697.013 1027.26 C 683.085 1030.27 611.568 1028.28 606.996 1031.99 L 606.669 1032.66 L 605.85 1031.07 C 603.027 1029.84 597.828 1030.53 594.51 1030.71 C 595.947 1015.75 602.516 970.538 605.688 956.711 z" fill="rgb(231,89,42)" transform="translate(0,0)"></path>
<path d="M 605.688 956.711 C 605.609 955.681 605.387 955.158 605.744 954.336 L 605.873 954.288 C 606.525 954.594 606.468 956.548 606.494 956.835 L 605.688 956.711 z" fill="rgb(112,50,28)" transform="translate(0,0)"></path>
<path d="M 919.882 887.796 C 880.234 888.493 840.591 889.484 800.958 890.77 C 784.248 891.239 751.589 893.075 736.589 891.682 C 747.24 881.732 739.487 877.702 739.581 867.885 C 739.694 855.938 724.443 773.729 727.583 766.286 C 732.461 773.265 734.311 799.579 735.59 809.261 C 739.031 835.799 742.618 862.318 746.353 888.816 C 766.133 887.862 917.447 882.522 921.25 885.05 C 927.937 889.496 939.809 887.919 947.803 887.937 C 938.59 859.508 922.713 811.72 914.932 781.226 C 914.512 779.579 915.286 779.416 916.612 778.291 L 915.592 778.28 L 915.406 778.605 L 916.658 778.329 C 919.857 784.62 926.375 808.006 928.821 815.87 L 951.835 888.824 C 960.863 886.458 970.676 882.735 979.913 880.268 C 997.408 875.596 1031.84 871.868 1050.07 875.127 C 1049.22 875.87 1048.37 876.614 1047.52 877.357 C 1034.12 879.09 1018.28 877.222 1004.99 879.013 C 985.609 881.623 974.307 886.324 956.688 890.624 C 951.173 891.97 930.005 891.248 923.722 891.131 L 929.049 953.36 C 929.775 961.736 930.948 979.893 932.544 987.233 L 930.006 990.641 C 926.566 983.834 920.996 901.231 919.882 887.796 z" fill="rgb(27,23,20)" transform="translate(0,0)"></path>
<path d="M 913.543 1119.32 C 887.717 1122.19 861.874 1124.9 836.015 1127.46 C 770.847 1133.8 708.253 1137.13 653.233 1093.15 C 648.246 1089.16 637.994 1080.59 635.174 1074.99 L 635.703 1073.45 C 636.253 1073.48 636.802 1073.5 637.352 1073.53 C 646.92 1083.11 656.118 1091.39 667.501 1098.95 C 680.527 1107.52 694.715 1114.17 709.631 1118.71 C 773.434 1138.05 850.082 1120 915.909 1115.75 C 930.105 1150.46 1028.75 1425.29 1036.09 1429.57 C 1038.64 1429.2 1040.39 1428.96 1043 1428.79 C 1043.87 1429.68 1044.17 1429.71 1044.48 1430.72 L 1057.27 1552.96 C 1064.39 1618.47 1077.94 1641.94 997.114 1650.31 C 947.055 1655.5 906.176 1641.52 858.455 1639.74 C 853.914 1642.85 851.673 1644.74 847.577 1648.33 C 814.043 1648.44 741.405 1658.71 739.561 1604.42 C 739.264 1595.68 745.484 1586.41 752.205 1580.91 C 757.487 1547.67 756.829 1519.89 784.634 1499.2 C 790.243 1485.47 795.663 1471.67 800.893 1457.8 C 811.312 1458.17 923.092 1464.79 926.594 1466.78 C 926.923 1463.43 939.494 1435.67 941.887 1430.08 C 946.318 1428.62 975.673 1430.28 981.058 1431.38 C 986.597 1412.11 998.334 1387.57 1005.12 1366.27 L 913.543 1119.32 z" fill="rgb(27,23,20)" transform="translate(0,0)"></path>
<path d="M 941.887 1430.08 C 946.318 1428.62 975.673 1430.28 981.058 1431.38 C 982.704 1438.64 983.29 1446.16 984.138 1453.55 C 987.833 1485.77 989.996 1518.42 994.371 1550.55 C 976.847 1539.31 942.468 1518.65 927.87 1506.91 C 926.319 1496.23 925.167 1491.73 920.811 1481.84 L 926.594 1466.78 C 926.923 1463.43 939.494 1435.67 941.887 1430.08 z" fill="rgb(255,255,255)" transform="translate(0,0)"></path>
<path d="M 782.937 1504.74 C 789.793 1511.29 785.71 1517.21 802.529 1520.98 C 824.18 1525.84 844.422 1522.32 863.546 1511.53 C 898.626 1529.79 934.829 1551.51 970.256 1570.59 C 976.843 1565.23 986.287 1558.68 993.324 1553.53 C 1002.56 1558.91 1046.98 1582.74 1047.21 1590.03 C 1044.83 1593.55 1041.95 1594.67 1038.2 1596.8 C 974.264 1623.94 900.097 1592.8 835.062 1593.02 C 804.903 1593.13 782.7 1597.27 755.644 1581.78 C 761.237 1550.63 759.859 1526.57 782.937 1504.74 z" fill="rgb(255,255,255)" transform="translate(0,0)"></path>
<path d="M 903.34 1475.26 C 919.497 1476.86 922.416 1496.01 924.14 1509.22 L 954.708 1530.44 C 946.794 1535.19 938.815 1539.83 930.773 1544.35 C 927.8 1542.75 924.329 1541.11 921.5 1539.38 C 903.266 1529.2 882.081 1517.71 864.237 1507.18 L 865.107 1503.9 L 865.493 1502.54 C 869.94 1486.31 888.34 1479.07 903.34 1475.26 z" fill="rgb(255,255,255)" transform="translate(0,0)"></path>
<path d="M 958.043 1532.82 C 961.641 1533.74 983.368 1548.08 989.43 1551.49 C 984.979 1554.69 973.057 1564.67 969.013 1565.11 C 957.542 1558.82 946.052 1553.27 934.726 1546.52 C 941.973 1542.01 950.522 1537.32 958.043 1532.82 z" fill="rgb(255,255,255)" transform="translate(0,0)"></path>
<path d="M 1050.07 875.127 L 1053.14 875.237 C 1058.52 876.982 1064.82 877.716 1070.44 878.918 C 1089.01 882.891 1101.88 891.603 1111 908.586 C 1111.12 909.615 1111.25 910.643 1111.4 911.667 C 1116.61 915.099 1121.24 924.233 1121.74 930.104 C 1124.48 961.887 1142.15 983.627 1126.26 1015.25 C 1119.86 1025.55 1118.09 1027.9 1108.38 1034.97 L 1105.09 1036.91 C 1095.11 1042.34 1093.49 1043.34 1082.2 1045.96 L 1079.13 1044.59 C 1072.85 1045.33 1068.55 1045.15 1062.28 1045.04 L 1057.97 1045.74 C 1057.26 1045.58 1056.55 1045.42 1055.84 1045.27 C 1036.49 1041.35 1042.64 1018.88 1048.23 1006.16 L 1046.96 1005.1 C 1031.64 1023.94 1017.45 996.886 1013 983.879 C 990.2 990.756 975.558 989.578 952.302 987.871 C 947.183 987.496 937.356 986.53 932.544 987.233 C 930.948 979.893 929.775 961.736 929.049 953.36 L 923.722 891.131 C 930.005 891.248 951.173 891.97 956.688 890.624 C 974.307 886.324 985.609 881.623 1004.99 879.013 C 1018.28 877.222 1034.12 879.09 1047.52 877.357 C 1048.37 876.614 1049.22 875.87 1050.07 875.127 z" fill="rgb(201,72,30)" transform="translate(0,0)"></path>
<path d="M 1050.7 975.864 C 1053.92 972.463 1056.27 973.254 1061.53 972.672 C 1077.72 970.883 1099.73 986.572 1114.23 978.449 C 1119.18 975.679 1114.11 963.041 1110.2 961.376 C 1093.11 949.285 1070.28 946.13 1049.95 948.519 C 1042.21 949.503 1034.48 950.542 1026.76 951.634 L 1026.45 950.063 C 1044.23 939.088 1105.89 942.349 1117.18 964.93 C 1125.92 982.407 1115.68 1017.58 1108.38 1034.97 L 1105.09 1036.91 C 1095.11 1042.34 1093.49 1043.34 1082.2 1045.96 L 1079.13 1044.59 C 1072.85 1045.33 1068.55 1045.15 1062.28 1045.04 L 1057.97 1045.74 C 1057.26 1045.58 1056.55 1045.42 1055.84 1045.27 C 1036.49 1041.35 1042.64 1018.88 1048.23 1006.16 C 1052.88 996.596 1053.84 987.621 1051.25 977.302 L 1050.7 975.864 z" fill="rgb(27,23,20)" transform="translate(0,0)"></path>
<path d="M 1051.25 977.302 C 1053.19 977.547 1053.47 977.407 1055.5 977.092 C 1063.12 975.903 1069.43 976.415 1076.94 977.93 L 1077.84 978.103 L 1078.39 981.997 C 1081.76 1006.89 1070.35 1025.97 1057.97 1045.74 C 1057.26 1045.58 1056.55 1045.42 1055.84 1045.27 C 1036.49 1041.35 1042.64 1018.88 1048.23 1006.16 C 1052.88 996.596 1053.84 987.621 1051.25 977.302 z" fill="rgb(201,72,30)" transform="translate(0,0)"></path>
<path d="M 1081.93 979.107 C 1087.68 981.351 1092.01 983.083 1097.96 984.718 C 1097.79 1009.58 1091.46 1023.33 1079.13 1044.59 C 1072.85 1045.33 1068.55 1045.15 1062.28 1045.04 C 1076.99 1025.16 1084.23 1003.85 1081.93 979.107 z" fill="rgb(201,72,30)" transform="translate(0,0)"></path>
<path d="M 1102.09 985.258 C 1110.15 984.254 1108.22 984.795 1116.23 982.055 C 1116.31 995.848 1116.19 998.688 1112.61 1012.66 C 1110.81 1019.68 1104.99 1031.52 1105.09 1036.91 C 1095.11 1042.34 1093.49 1043.34 1082.2 1045.96 C 1094.94 1027.18 1101.12 1007.77 1102.09 985.258 z" fill="rgb(201,72,30)" transform="translate(0,0)"></path>
<path d="M 1111.4 911.667 C 1109.14 911.68 1109.12 911.85 1107.11 910.754 C 1086.85 899.709 1063.87 894.535 1040.84 897.079 C 1038.29 896.9 1024.83 899.516 1023.46 898.92 C 1016.46 895.89 1031.61 894.504 1031.77 894.477 C 1060.69 889.305 1085.44 895.286 1111 908.586 C 1111.12 909.615 1111.25 910.643 1111.4 911.667 z" fill="rgb(27,23,20)" transform="translate(0,0)"></path>
<path d="M 1046.96 1005.1 C 1051.49 996.207 1050.85 988.315 1048.15 978.925 C 1047.3 975.953 1046.69 974.366 1050.7 975.864 L 1051.25 977.302 C 1053.84 987.621 1052.88 996.596 1048.23 1006.16 L 1046.96 1005.1 z" fill="rgb(234,196,170)" transform="translate(0,0)"></path>
<path d="M 1050.57 919.354 C 1070.83 917.678 1089.63 920.593 1107.53 930.704 C 1111.39 932.885 1117.74 936.046 1120.24 939.619 C 1120.36 943.028 1120.85 941.635 1119.42 944.16 C 1113.34 938.671 1111.25 936.822 1104.29 932.674 C 1092.68 926.73 1079.93 923.365 1066.9 922.81 C 1052.02 922.066 1042.54 924.662 1028.26 926.457 C 1026.81 926.639 1025.9 926.173 1024.72 925.501 L 1025.22 924.516 C 1032.35 921.463 1042.86 920.279 1050.57 919.354 z" fill="rgb(27,23,20)" transform="translate(0,0)"></path>
<path d="M 813.77 1424.35 C 843.154 1426.06 872.716 1426.45 902.099 1427.67 C 909.073 1427.96 937.062 1428.62 941.887 1430.08 C 939.494 1435.67 926.923 1463.43 926.594 1466.78 C 923.092 1464.79 811.312 1458.17 800.893 1457.8 C 805.249 1448.03 809.906 1434.6 813.77 1424.35 z" fill="rgb(201,72,30)" transform="translate(0,0)"></path>
<path d="M 966.464 1112.23 C 968.882 1112.77 969.929 1113.65 970.832 1116.03 C 975.319 1127.87 979.35 1139.89 983.497 1151.86 L 1006.61 1218.21 C 1024.94 1270.77 1046.85 1329.61 1063.2 1382.3 L 1137.24 1374.22 C 1145.35 1373.32 1172.44 1369.84 1179.04 1370.73 L 1180.6 1372.87 C 1174.84 1374.41 1150.92 1376.51 1143.51 1377.32 L 1060.81 1386.3 C 1040.51 1322.47 1015.16 1257.69 994.105 1193.95 C 986.279 1170.26 972.36 1135.49 966.464 1112.23 z" fill="rgb(27,23,20)" transform="translate(0,0)"></path>
<path d="M 847.379 1341.38 L 848.855 1342.33 C 849.882 1346.74 833.534 1378.22 830.373 1384.94 C 844.89 1386.3 974.119 1399.05 977.313 1401.33 L 976.792 1403.37 C 958.174 1402.44 933.521 1399.38 914.804 1397.42 C 884.685 1394.4 854.587 1391.17 824.513 1387.72 C 831.933 1372.18 839.556 1356.73 847.379 1341.38 z" fill="rgb(27,23,20)" transform="translate(0,0)"></path>
<path d="M 1511.96 583.431 C 1517.25 565.427 1520.39 549.094 1521.18 530.249 C 1523.09 484.675 1515.46 448.773 1549.52 411.56 C 1568.26 391.05 1594.43 378.893 1622.19 377.801 C 1650.08 376.662 1669.33 381.166 1690.11 400.568 C 1699.57 409.433 1707.24 420.029 1712.71 431.781 C 1724.2 456.366 1721.81 480.92 1732.44 504.883 C 1751.56 548.037 1797.59 582.784 1754.09 628.747 C 1797.08 649.224 1827.07 671.914 1845.58 718.487 C 1847.17 722.478 1850.69 734.91 1853.01 737.504 C 1893.73 756.428 1924.59 787.485 1940.05 830.115 C 1946.87 849.428 1949.81 869.897 1948.69 890.348 C 1947.47 912.068 1935.92 957.622 1930.58 980.886 C 1921.19 1021.75 1912.39 1066.82 1901.93 1107.24 C 1901.66 1109.05 1901.5 1109.4 1900.89 1111.2 L 1900.87 1115.03 C 1900.36 1121.52 1905.26 1167.52 1906.47 1175.36 C 1910.24 1199.92 1911.66 1235.68 1916.19 1259.27 C 1900.52 1259.39 1881.79 1258.71 1866.68 1259.21 C 1849.53 1260.21 1821.97 1259.29 1803.86 1259.4 C 1775.27 1260.38 1744.22 1259.36 1715.45 1259.45 C 1701.73 1259.5 1664.16 1260.56 1651.82 1258.56 C 1649.51 1254.53 1653.03 1248.13 1649.96 1241.76 L 1649.99 1241.34 C 1652.32 1235.88 1652.99 1139.21 1653.28 1126.22 C 1653.98 1122.27 1653.9 1090.25 1653.97 1084.84 L 1655.45 986.103 C 1648.16 985.314 1629.17 983.851 1623.99 980.702 C 1619.93 980.838 1607.45 979.306 1602.57 978.799 C 1585.57 976.967 1568.59 975.015 1551.62 972.945 C 1544.71 972.129 1517.92 969.606 1513.16 968.297 C 1510.63 967.995 1508 967.919 1505.44 967.781 C 1498.63 966.804 1494.41 966.257 1487.59 966.097 L 1484.34 965.007 L 1483.39 965.011 C 1447.59 964.859 1419.76 955.301 1382.36 973.913 C 1380.11 974.955 1381.24 974.551 1378.3 974.21 C 1376.37 977.858 1367.96 982.435 1363.85 985.122 C 1356.08 970.062 1347.64 964.902 1340.62 945.082 C 1333.92 925.804 1332.1 905.166 1335.32 885.012 C 1339.11 861.673 1350.31 838.835 1359.51 817.017 C 1370.31 791.936 1380.82 766.73 1391.04 741.404 C 1395.62 729.904 1407.96 706.423 1408.84 696.333 C 1408.42 694.693 1408.41 695.594 1409.29 693.668 C 1413.15 692.896 1418.09 694.712 1422.12 695.765 C 1428.4 689.938 1431.34 681.831 1436.26 674.625 C 1443.58 663.883 1450.95 655.803 1460.77 647.357 C 1470.42 615.027 1482.5 599.914 1511.96 583.431 z" fill="rgb(27,23,20)" transform="translate(0,0)"></path>
<path d="M 1853.01 737.504 C 1893.73 756.428 1924.59 787.485 1940.05 830.115 C 1946.87 849.428 1949.81 869.897 1948.69 890.348 C 1947.47 912.068 1935.92 957.622 1930.58 980.886 C 1921.19 1021.75 1912.39 1066.82 1901.93 1107.24 C 1901.66 1109.05 1901.5 1109.4 1900.89 1111.2 L 1900.87 1115.03 C 1900.36 1121.52 1905.26 1167.52 1906.47 1175.36 C 1910.24 1199.92 1911.66 1235.68 1916.19 1259.27 C 1900.52 1259.39 1881.79 1258.71 1866.68 1259.21 C 1849.53 1260.21 1821.97 1259.29 1803.86 1259.4 C 1775.27 1260.38 1744.22 1259.36 1715.45 1259.45 C 1701.73 1259.5 1664.16 1260.56 1651.82 1258.56 C 1649.51 1254.53 1653.03 1248.13 1649.96 1241.76 L 1649.99 1241.34 C 1652.32 1235.88 1652.99 1139.21 1653.28 1126.22 C 1653.98 1122.27 1653.9 1090.25 1653.97 1084.84 L 1655.45 986.103 C 1648.16 985.314 1629.17 983.851 1623.99 980.702 C 1624.82 980.191 1626.51 979.13 1627.51 979.224 C 1655.85 981.876 1684.18 986.039 1712.49 989.071 C 1723.69 990.271 1733.73 991.631 1744.97 990.367 C 1760.04 988.698 1774.43 983.228 1786.81 974.472 C 1818.14 952.369 1820.98 925.796 1828.98 891.125 L 1843.8 826.2 C 1848.27 806.452 1853.16 786.386 1856.67 766.489 C 1857.81 760.008 1851.18 744.636 1853.01 737.504 z" fill="rgb(252,235,225)" transform="translate(0,0)"></path>
<path d="M 1853.01 737.504 C 1893.73 756.428 1924.59 787.485 1940.05 830.115 C 1946.87 849.428 1949.81 869.897 1948.69 890.348 C 1947.47 912.068 1935.92 957.622 1930.58 980.886 C 1921.19 1021.75 1912.39 1066.82 1901.93 1107.24 L 1898.75 1106.41 L 1858.32 778.626 L 1836.32 875.559 C 1834.84 882.128 1832.15 891.865 1831.24 897.991 C 1823.89 947.427 1799.57 987.21 1746.17 994.052 C 1731.27 995.961 1716.23 993.192 1700.73 991.338 L 1655.45 986.103 C 1648.16 985.314 1629.17 983.851 1623.99 980.702 C 1624.82 980.191 1626.51 979.13 1627.51 979.224 C 1655.85 981.876 1684.18 986.039 1712.49 989.071 C 1723.69 990.271 1733.73 991.631 1744.97 990.367 C 1760.04 988.698 1774.43 983.228 1786.81 974.472 C 1818.14 952.369 1820.98 925.796 1828.98 891.125 L 1843.8 826.2 C 1848.27 806.452 1853.16 786.386 1856.67 766.489 C 1857.81 760.008 1851.18 744.636 1853.01 737.504 z" fill="rgb(27,23,20)" transform="translate(0,0)"></path>
<path d="M 1901.93 1107.24 C 1901.66 1109.05 1901.5 1109.4 1900.89 1111.2 L 1899.09 1110.89 C 1898.99 1109.4 1898.88 1107.9 1898.75 1106.41 L 1901.93 1107.24 z" fill="rgb(43,37,32)" transform="translate(0,0)"></path>
<path d="M 1899.09 1110.89 L 1900.89 1111.2 L 1900.87 1115.03 C 1899.42 1113.01 1899.29 1113.17 1899.09 1110.89 z" fill="rgb(108,97,93)" transform="translate(0,0)"></path>
<path d="M 1729.69 1004.46 C 1769.53 1005.74 1815.4 1004.65 1855.95 1004.82 C 1856.38 1013 1857.65 1031.84 1856.62 1039.2 L 1728.28 1039.04 C 1728.13 1032.6 1726.57 1008.47 1729.69 1004.46 z" fill="rgb(27,23,20)" transform="translate(0,0)"></path>
<path d="M 1731.5 1008.15 L 1852.76 1008.23 C 1852.83 1017.42 1853.47 1026.2 1853.02 1035.47 L 1731.67 1035.65 L 1731.5 1008.15 z" fill="rgb(252,235,225)" transform="translate(0,0)"></path>
<path d="M 1720.8 621.669 C 1721.07 621.695 1721.33 621.722 1721.59 621.749 L 1722.91 621.911 C 1735.15 623.322 1744.49 627.545 1754.09 628.747 C 1797.08 649.224 1827.07 671.914 1845.58 718.487 C 1847.17 722.478 1850.69 734.91 1853.01 737.504 C 1851.18 744.636 1857.81 760.008 1856.67 766.489 C 1853.16 786.386 1848.27 806.452 1843.8 826.2 L 1828.98 891.125 C 1820.98 925.796 1818.14 952.369 1786.81 974.472 C 1774.43 983.228 1760.04 988.698 1744.97 990.367 C 1733.73 991.631 1723.69 990.271 1712.49 989.071 C 1684.18 986.039 1655.85 981.876 1627.51 979.224 C 1626.51 979.13 1624.82 980.191 1623.99 980.702 C 1619.93 980.838 1607.45 979.306 1602.57 978.799 C 1585.57 976.967 1568.59 975.015 1551.62 972.945 C 1544.71 972.129 1517.92 969.606 1513.16 968.297 C 1510.63 967.995 1508 967.919 1505.44 967.781 C 1498.63 966.804 1494.41 966.257 1487.59 966.097 C 1492.47 932.453 1497.04 898.764 1501.29 865.033 L 1682.59 865.012 C 1696.39 875.064 1712 885.298 1726.27 894.847 L 1727.3 894.463 C 1724.15 885.476 1695.09 869.129 1685.99 862.974 L 1726.1 782.781 C 1729.91 775.171 1751.58 735.611 1749.81 730.738 C 1743.91 737.161 1728.88 768.88 1724.31 778.02 L 1682.5 861.698 L 1634.93 861.197 C 1662.36 822.212 1689.82 780.724 1717.66 742.424 C 1710.52 728.966 1704.9 714.91 1697.32 701.04 C 1713.62 697.675 1729.96 694.531 1746.34 691.609 C 1737.45 669.526 1727.61 644.174 1720.8 621.669 z" fill="rgb(252,235,225)" transform="translate(0,0)"></path>
<path d="M 1408.84 696.333 C 1451.28 707.019 1494.35 716.751 1536.93 727.05 C 1525.52 768.425 1516.5 810.508 1505.45 851.976 C 1501.61 866.354 1497.78 858.89 1496.06 876.813 C 1436.83 884.774 1394.18 914.39 1378.3 974.21 C 1376.37 977.858 1367.96 982.435 1363.85 985.122 C 1356.08 970.062 1347.64 964.902 1340.62 945.082 C 1333.92 925.804 1332.1 905.166 1335.32 885.012 C 1339.11 861.673 1350.31 838.835 1359.51 817.017 C 1370.31 791.936 1380.82 766.73 1391.04 741.404 C 1395.62 729.904 1407.96 706.423 1408.84 696.333 z" fill="rgb(252,235,225)" transform="translate(0,0)"></path>
<path d="M 1382.36 973.913 C 1392.3 929.678 1430.82 893.549 1474.78 884.145 C 1481.69 882.668 1488.62 881.65 1495.6 880.628 C 1492.12 908.701 1487.42 936.885 1484.34 965.007 L 1483.39 965.011 C 1447.59 964.859 1419.76 955.301 1382.36 973.913 z" fill="rgb(252,235,225)" transform="translate(0,0)"></path>
<path d="M 1422.12 695.765 C 1428.4 689.938 1431.34 681.831 1436.26 674.625 C 1443.58 663.883 1450.95 655.803 1460.77 647.357 C 1455.88 665.087 1449.92 683.304 1444.71 701.233 C 1437.41 699.445 1429.43 697.197 1422.12 695.765 z" fill="rgb(252,235,225)" transform="translate(0,0)"></path>
<path d="M 1565.56 424.083 C 1573.73 442.278 1582.44 451.983 1598.37 463.633 C 1601.91 465.574 1606.05 467.231 1609.3 469.196 L 1614.14 471.707 C 1631.42 478.106 1641.86 479.446 1660.46 480.701 C 1675.47 469.639 1693.65 468.019 1705.05 485.14 C 1709.58 492.008 1711.01 500.467 1708.99 508.443 C 1705.07 523.869 1693.23 529.581 1679.15 532.866 C 1681.16 547.443 1687.09 590.182 1690.82 602.937 C 1694.6 602.823 1695.48 602.609 1698.41 605.576 C 1701.29 608.507 1708.57 616.089 1709.1 620.018 C 1702.4 623.644 1700.11 642.713 1695.59 650.298 C 1693.43 649.003 1684.02 660.517 1681.93 662.775 C 1672.81 672.615 1663.45 682.021 1654.07 691.593 C 1651.22 684.487 1634.71 645.263 1630.61 643.679 L 1627.51 644.551 C 1622.78 648.08 1601.32 681.964 1596.64 689.363 C 1593.06 682.034 1583.62 662.406 1579.59 656.189 C 1586.06 636.476 1608.94 603.233 1574.8 598.648 C 1568.35 597.782 1548.92 596.826 1547.76 605.239 C 1552.77 606.584 1587.79 591.864 1588.88 614.934 C 1589.42 626.263 1571.91 672.734 1559.81 672.888 L 1558.32 670.629 C 1556.77 660.02 1566.53 645.667 1571.19 633.188 C 1561.22 634.221 1550.37 637.725 1541.69 638.174 C 1538.55 657.421 1534.83 671.798 1522.97 687.305 C 1516.67 695.542 1515.55 707.569 1514.05 717.712 L 1447.99 702.097 C 1468.8 635.728 1471.84 585.16 1555.33 576.457 C 1550.2 571.971 1545.26 566.684 1541.49 561 C 1537.11 554.466 1534.02 547.15 1532.4 539.45 C 1529.97 527.803 1530.1 480.239 1532.41 468.51 C 1545.78 451.593 1555.12 444.455 1565.56 424.083 z" fill="rgb(252,235,225)" transform="translate(0,0)"></path>
<path d="M 1690.82 602.937 C 1694.6 602.823 1695.48 602.609 1698.41 605.576 C 1701.29 608.507 1708.57 616.089 1709.1 620.018 C 1702.4 623.644 1700.11 642.713 1695.59 650.298 C 1693.43 649.003 1684.02 660.517 1681.93 662.775 C 1672.81 672.615 1663.45 682.021 1654.07 691.593 C 1651.22 684.487 1634.71 645.263 1630.61 643.679 C 1633.8 637.114 1688.1 610.482 1690.82 602.937 z" fill="rgb(112,50,28)" transform="translate(0,0)"></path>
<path d="M 1599.91 621.563 C 1602.54 623.514 1625.19 642.309 1627.51 644.551 C 1622.78 648.08 1601.32 681.964 1596.64 689.363 C 1593.06 682.034 1583.62 662.406 1579.59 656.189 L 1580.01 655.806 C 1587.79 648.753 1596.19 631.507 1599.91 621.563 z" fill="rgb(112,50,28)" transform="translate(0,0)"></path>
<path d="M 1598.37 463.633 C 1601.91 465.574 1606.05 467.231 1609.3 469.196 L 1608.04 470.837 C 1609.31 471.913 1610.57 473.009 1611.81 474.124 C 1607.72 480.128 1606.23 468.375 1594.99 469.141 C 1587.11 469.678 1583.85 465.695 1598.98 465.781 L 1598.37 463.633 z" fill="rgb(27,23,20)" transform="translate(0,0)"></path>
<path d="M 1598.37 463.633 C 1601.91 465.574 1606.05 467.231 1609.3 469.196 L 1608.04 470.837 C 1604.71 468.726 1602.53 467.466 1598.98 465.781 L 1598.37 463.633 z" fill="rgb(108,97,93)" transform="translate(0,0)"></path>
<path d="M 1660.71 556.79 C 1661.95 562.816 1658.09 576.23 1654.7 581.815 C 1641.79 603.066 1622.17 611.854 1599.37 617.929 C 1595.36 589.306 1587.87 585.52 1559.82 586.089 C 1553.08 586.828 1540.01 590.573 1534.54 589.164 L 1535.5 587.723 C 1584.86 570.784 1614.52 606.167 1660.71 556.79 z" fill="rgb(27,23,20)" transform="translate(0,0)"></path>
<path d="M 1540.95 487.268 C 1545.51 485.635 1550.54 487.912 1552.33 492.415 C 1554.11 496.918 1552.01 502.026 1547.57 503.962 C 1544.56 505.274 1541.07 504.841 1538.48 502.832 C 1535.88 500.824 1534.59 497.56 1535.1 494.319 C 1535.62 491.078 1537.86 488.375 1540.95 487.268 z" fill="rgb(27,23,20)" transform="translate(0,0)"></path>
<path d="M 1594.5 487.475 C 1597.67 486.394 1601.18 487.174 1603.59 489.496 C 1606 491.818 1606.91 495.293 1605.94 498.498 C 1604.98 501.703 1602.31 504.101 1599.01 504.71 C 1594.41 505.562 1589.93 502.718 1588.75 498.19 C 1587.56 493.663 1590.07 488.988 1594.5 487.475 z" fill="rgb(27,23,20)" transform="translate(0,0)"></path>
<path d="M 1689.56 488.175 C 1697.94 489.108 1696.05 492.084 1689.51 492.214 C 1685.72 492.289 1679.58 495.76 1676.04 497.637 C 1678.72 499.764 1698.96 515.705 1688.82 513.461 C 1688.71 513.438 1681.81 507.053 1680.28 505.734 C 1678.12 503.652 1675.55 502.051 1673.1 500.228 C 1670.32 503.507 1667.48 507.607 1664.81 510.682 C 1663.91 511.717 1660.57 510.258 1662.94 506.967 C 1670.45 496.512 1677.06 491.002 1689.56 488.175 z" fill="rgb(27,23,20)" transform="translate(0,0)"></path>
<path d="M 1569.34 485.426 C 1569.9 485.807 1571.78 486.975 1571.65 487.367 C 1570.07 492.216 1560.53 508.398 1558.45 512.251 C 1560.83 514.309 1568.66 519.176 1568.72 521.988 L 1568.78 523.211 C 1563.44 521.666 1558.05 516.85 1553.65 513.292 C 1557.75 505.767 1564.83 492.13 1569.34 485.426 z" fill="rgb(27,23,20)" transform="translate(0,0)"></path>
<path d="M 1598.18 517.431 C 1604.03 522.303 1595.02 531.99 1591.11 535.519 C 1584.31 541.659 1576.06 541.6 1567.45 540.756 C 1565.92 534.639 1576.03 539.231 1582.5 536.107 C 1593.81 530.646 1593.5 527.76 1598.18 517.431 z" fill="rgb(27,23,20)" transform="translate(0,0)"></path>
<path d="M 1556.09 462.138 C 1560.99 461.996 1570.86 463.207 1561.54 465.815 C 1555.6 467.478 1556.25 464.143 1549.32 469.577 C 1539.15 479.732 1540.03 468.218 1556.09 462.138 z" fill="rgb(27,23,20)" transform="translate(0,0)"></path>
<path d="M 1695.59 650.298 C 1700.11 642.713 1702.4 623.644 1709.1 620.018 C 1711.73 620.567 1716.53 620.965 1717.28 623.066 C 1720.13 631.065 1723.18 640.883 1725.95 648.786 C 1730.77 662.207 1735.99 675.479 1741.62 688.581 L 1692.35 698.418 C 1699.54 712.885 1706.16 727.479 1713.21 741.979 L 1629.88 861.644 C 1626.19 862.467 1615.96 861.541 1611.7 861.264 C 1618.57 790.654 1624.77 719.98 1630.3 649.252 C 1638.53 665.008 1645.24 681.5 1653.21 697.447 C 1660.94 690.156 1687.84 661.14 1692.79 658.017 L 1695.59 650.298 z" fill="rgb(252,235,225)" transform="translate(0,0)"></path>
<path d="M 1611.7 861.264 C 1618.57 790.654 1624.77 719.98 1630.3 649.252 C 1638.53 665.008 1645.24 681.5 1653.21 697.447 C 1660.94 690.156 1687.84 661.14 1692.79 658.017 L 1643.45 798.042 C 1639.34 809.553 1622.81 851.291 1621.95 860.181 C 1624.77 861.614 1626.73 861.457 1629.88 861.644 C 1626.19 862.467 1615.96 861.541 1611.7 861.264 z" fill="rgb(112,50,28)" transform="translate(0,0)"></path>
<path d="M 1595.66 696.934 C 1605.72 681.519 1615.97 666.23 1626.4 651.069 C 1620.7 720.767 1613.37 791.787 1608.42 861.341 C 1598.94 861.282 1585.29 860.773 1576.14 861.236 L 1563.49 861.344 L 1544.7 794.762 C 1529.91 742.323 1528.32 737.94 1566.45 697.462 C 1554.4 695.725 1539.99 690.804 1528.08 687.163 C 1535.78 677.8 1538.58 667.172 1541.98 655.774 L 1556.1 658.943 C 1549.05 675.673 1561.72 682.135 1572.9 668.118 C 1573.46 666.08 1575.34 663.074 1576.45 661.087 L 1577.84 660.891 C 1583.92 670.789 1590.8 686.295 1595.66 696.934 z" fill="rgb(112,50,28)" transform="translate(0,0)"></path>
<path d="M 1541.98 655.774 L 1556.1 658.943 C 1549.05 675.673 1561.72 682.135 1572.9 668.118 C 1573.46 666.08 1575.34 663.074 1576.45 661.087 C 1576.68 669.297 1576.72 677.511 1576.59 685.722 C 1576.59 744.019 1575.58 803.031 1576.14 861.236 L 1563.49 861.344 L 1544.7 794.762 C 1529.91 742.323 1528.32 737.94 1566.45 697.462 C 1554.4 695.725 1539.99 690.804 1528.08 687.163 C 1535.78 677.8 1538.58 667.172 1541.98 655.774 z" fill="rgb(252,235,225)" transform="translate(0,0)"></path>
<path d="M 1531.61 763.819 C 1533.42 765.859 1556.55 851.038 1559.94 861.364 L 1536.08 861.549 C 1526.23 861.625 1516.38 861.596 1506.53 861.464 C 1515.93 830.254 1522.62 795.709 1531.61 763.819 z" fill="rgb(252,235,225)" transform="translate(0,0)"></path>
<path d="M 1524.1 689.434 C 1536.62 693.394 1546 696.769 1559.08 699.948 C 1554.93 704.562 1549.94 709.855 1546.19 714.735 C 1543.54 717.919 1541.09 720.668 1538.3 723.737 C 1533.48 722.607 1523.08 720.645 1519.01 718.805 L 1517.64 718.217 C 1518.67 712.196 1520.8 697.289 1522.86 692.353 L 1524.1 689.434 z" fill="rgb(252,235,225)" transform="translate(0,0)"></path>
<path d="M 1559.74 638.242 C 1559.72 638.245 1566.23 637.223 1565.5 638.61 C 1563.91 641.66 1559.39 655.875 1555.56 655.443 C 1543.28 652.881 1544.83 654.739 1545.76 641.624 C 1551.05 640.076 1554.31 639.269 1559.74 638.242 z" fill="rgb(252,235,225)" transform="translate(0,0)"></path>
<path d="M 1382.36 973.913 C 1419.76 955.301 1447.59 964.859 1483.39 965.011 L 1484.34 965.007 L 1487.59 966.097 C 1494.41 966.257 1498.63 966.804 1505.44 967.781 C 1508 967.919 1510.63 967.995 1513.16 968.297 C 1517.92 969.606 1544.71 972.129 1551.62 972.945 C 1568.59 975.015 1585.57 976.967 1602.57 978.799 C 1607.45 979.306 1619.93 980.838 1623.99 980.702 C 1629.17 983.851 1648.16 985.314 1655.45 986.103 L 1653.97 1084.84 C 1653.9 1090.25 1653.98 1122.27 1653.28 1126.22 C 1652.99 1139.21 1652.32 1235.88 1649.99 1241.34 L 1649.96 1241.76 L 1647.07 1242.68 C 1646.69 1249.91 1653.11 1297.88 1654.31 1307.75 L 1661.66 1367.78 C 1662.79 1377 1663.99 1390.69 1665.66 1399.38 L 1666.06 1403.48 C 1666.15 1413.62 1668.97 1431.55 1670.43 1442.14 C 1666.71 1443.41 1660.5 1442.65 1656.32 1442.45 C 1656.88 1450.79 1660.55 1495.16 1662.63 1501.32 C 1688.98 1519.5 1687.46 1550.2 1690.43 1579.08 C 1710.57 1591.93 1709.76 1615.32 1694.67 1631.18 C 1672.69 1654.3 1628.31 1648.31 1599.56 1648.51 L 1589.47 1641.25 C 1573.1 1640.4 1544.83 1645.02 1527.49 1647.47 C 1489.37 1652.86 1422.32 1656.24 1389.73 1634.91 C 1349.32 1658.29 1282.67 1651.79 1238.07 1645.47 C 1224.72 1643.58 1201.12 1640.26 1188.14 1640.41 L 1186.66 1640.43 C 1182.96 1642.75 1180.22 1645.36 1176.94 1648.22 C 1161.5 1648.31 1146.28 1648.16 1130.49 1648.33 C 1107.6 1648.58 1082.03 1640.71 1073.35 1617.08 C 1070.11 1608.23 1069.91 1598.65 1075.17 1590.62 C 1079.28 1584.33 1079.61 1576.49 1080.77 1569.28 C 1085.05 1543.45 1082.61 1532.42 1098.35 1510.6 C 1091.09 1496.89 1079.43 1464.6 1073.3 1448.86 L 1064.42 1426.06 C 1066.76 1424.65 1184.84 1405.22 1193.46 1405.09 L 1195.16 1407.08 C 1200.05 1420.72 1205.22 1434.26 1210.67 1447.7 L 1216.94 1461.92 C 1240.97 1463.33 1245.1 1482.76 1253.92 1502.03 L 1278.51 1516.41 L 1299.57 1504.75 C 1305.02 1486.92 1309.27 1473.08 1329.75 1470.8 C 1330.37 1461.84 1330.8 1450.68 1332.5 1442.05 C 1318.49 1441.71 1303.96 1441.84 1289.91 1441.78 C 1290.67 1429.4 1292.35 1416.17 1293.24 1403.44 L 1293.12 1399.88 C 1294.76 1394.89 1297.89 1343.5 1298.66 1334.44 L 1313.56 1141.24 C 1315.54 1116.03 1317.03 1090.35 1319.41 1065.24 C 1322.54 1032.13 1337.9 1005.76 1363.85 985.122 C 1367.96 982.435 1376.37 977.858 1378.3 974.21 C 1381.24 974.551 1380.11 974.955 1382.36 973.913 z" fill="rgb(27,23,20)" transform="translate(0,0)"></path>
<path d="M 1513.16 968.297 C 1517.92 969.606 1544.71 972.129 1551.62 972.945 C 1568.59 975.015 1585.57 976.967 1602.57 978.799 C 1607.45 979.306 1619.93 980.838 1623.99 980.702 C 1629.17 983.851 1648.16 985.314 1655.45 986.103 L 1653.97 1084.84 C 1653.9 1090.25 1653.98 1122.27 1653.28 1126.22 C 1652.99 1139.21 1652.32 1235.88 1649.99 1241.34 L 1649.96 1241.76 L 1647.07 1242.68 C 1646.69 1249.91 1653.11 1297.88 1654.31 1307.75 L 1661.66 1367.78 C 1662.79 1377 1663.99 1390.69 1665.66 1399.38 C 1611.46 1401.25 1547.93 1399.8 1492.97 1399.86 C 1483.89 1335.83 1474.39 1271.87 1464.48 1207.96 L 1450.39 1116.05 C 1448.38 1103.04 1443.83 1077.9 1443.34 1065.66 C 1442.88 1056.01 1443.95 1046.35 1446.51 1037.03 C 1454.14 1008.6 1474.77 984.057 1502.26 973.436 C 1506.12 971.945 1509.61 970.425 1513.16 968.297 z" fill="rgb(231,89,42)" transform="translate(0,0)"></path>
<path d="M 1649.99 1241.34 C 1647.23 1241.09 1648.16 1241.52 1646.06 1239.99 C 1643.4 1229.76 1624.51 1084.2 1625.45 1076.07 L 1626.83 1075.24 C 1630.16 1078.65 1633.78 1118.59 1634.5 1125.2 L 1653.28 1126.22 C 1652.99 1139.21 1652.32 1235.88 1649.99 1241.34 z" fill="rgb(27,23,20)" transform="translate(0,0)"></path>
<path d="M 1382.36 973.913 C 1419.76 955.301 1447.59 964.859 1483.39 965.011 L 1484.34 965.007 L 1487.59 966.097 C 1494.41 966.257 1498.63 966.804 1505.44 967.781 C 1477.86 979.614 1458.13 996.228 1446.63 1024.82 C 1442.3 1035.49 1439.89 1046.84 1439.51 1058.35 C 1439.13 1072.7 1442.85 1089.54 1444.65 1103.94 C 1448.88 1137.72 1457.04 1174.6 1460.6 1208.11 C 1462.22 1218.44 1467.18 1243.89 1467.12 1252.73 C 1467.02 1265.31 1463.41 1302.04 1460.78 1313.34 C 1456.94 1329.8 1455.09 1388.82 1449.65 1399.81 C 1397.95 1399.85 1344.67 1398.99 1293.12 1399.88 C 1294.76 1394.89 1297.89 1343.5 1298.66 1334.44 L 1313.56 1141.24 C 1315.54 1116.03 1317.03 1090.35 1319.41 1065.24 C 1322.54 1032.13 1337.9 1005.76 1363.85 985.122 C 1367.96 982.435 1376.37 977.858 1378.3 974.21 C 1381.24 974.551 1380.11 974.955 1382.36 973.913 z" fill="rgb(231,89,42)" transform="translate(0,0)"></path>
<path d="M 1493.25 1403.78 C 1500.08 1402.53 1536.17 1403.24 1545.4 1403.26 L 1666.06 1403.48 C 1666.15 1413.62 1668.97 1431.55 1670.43 1442.14 C 1665.14 1441.45 1660.37 1441.59 1655.06 1441.56 C 1623.05 1441.38 1590.86 1442.31 1558.85 1441.5 L 1554.99 1441.49 C 1547.12 1442.66 1509.18 1441.68 1498.72 1441.51 C 1498.25 1436.68 1497.92 1428.86 1495.39 1425.1 C 1495.83 1417.91 1494.4 1410.88 1493.25 1403.78 z" fill="rgb(231,89,42)" transform="translate(0,0)"></path>
<path d="M 1293.24 1403.44 C 1326.21 1403.23 1359.18 1403.2 1392.15 1403.34 C 1409.02 1403.38 1432.74 1404.15 1449.25 1403 C 1449.45 1409.63 1446.21 1433.98 1444.57 1440.46 C 1440.7 1443.57 1437.21 1440.04 1436.48 1443.68 L 1435.65 1442.68 C 1429.93 1440.81 1348.07 1441.74 1337.01 1442.04 L 1335.53 1443.75 L 1334.58 1442.12 L 1332.5 1442.05 C 1318.49 1441.71 1303.96 1441.84 1289.91 1441.78 C 1290.67 1429.4 1292.35 1416.17 1293.24 1403.44 z" fill="rgb(231,89,42)" transform="translate(0,0)"></path>
<path d="M 1335.53 1443.75 L 1337.01 1442.04 C 1348.07 1441.74 1429.93 1440.81 1435.65 1442.68 L 1436.48 1443.68 C 1434.91 1462.43 1434.55 1481.23 1432.71 1500.2 C 1414.82 1516.05 1391.24 1515.06 1369.83 1507.78 C 1366.82 1485.45 1352.51 1479.02 1333.03 1471.88 C 1334.06 1462.91 1334.74 1452.83 1335.53 1443.75 z" fill="rgb(252,235,225)" transform="translate(0,0)"></path>
<path d="M 1670.43 1442.14 C 1666.71 1443.41 1660.5 1442.65 1656.32 1442.45 C 1656.88 1450.79 1660.55 1495.16 1662.63 1501.32 C 1644.53 1515.59 1621.42 1515.47 1600.4 1508.51 C 1597.31 1486.3 1581.79 1476.73 1561.39 1471.46 C 1560.44 1461.48 1559.59 1451.5 1558.85 1441.5 C 1590.86 1442.31 1623.05 1441.38 1655.06 1441.56 C 1660.37 1441.59 1665.14 1441.45 1670.43 1442.14 z" fill="rgb(252,235,225)" transform="translate(0,0)"></path>
<path d="M 1064.42 1426.06 C 1066.76 1424.65 1184.84 1405.22 1193.46 1405.09 L 1195.16 1407.08 C 1200.05 1420.72 1205.22 1434.26 1210.67 1447.7 C 1182.53 1448.07 1154.38 1448.18 1126.23 1448.03 C 1117.27 1448.01 1078.88 1447.24 1073.3 1448.86 L 1064.42 1426.06 z" fill="rgb(201,72,30)" transform="translate(0,0)"></path>
<path d="M 1495.39 1425.1 C 1497.92 1428.86 1498.25 1436.68 1498.72 1441.51 C 1509.18 1441.68 1547.12 1442.66 1554.99 1441.49 C 1555.84 1451.34 1556.63 1461.19 1557.35 1471.05 C 1538.24 1474.6 1535.4 1489.48 1529.61 1505.6 C 1514.76 1514.52 1498.98 1523.1 1483.83 1531.59 C 1488.16 1496.65 1491.7 1460.15 1495.39 1425.1 z" fill="rgb(255,255,255)" transform="translate(0,0)"></path>
<path d="M 1178.06 1510.12 C 1181.89 1509.37 1219.02 1527.97 1225.51 1531 L 1307.46 1568.87 C 1315.31 1563.05 1323.13 1557.19 1330.91 1551.28 C 1345.25 1559.36 1375.68 1575.5 1386.81 1586.36 L 1382.32 1593.4 C 1357.7 1604.42 1331.33 1607.52 1304.7 1608.02 C 1263.13 1608.48 1225.7 1598.19 1184.85 1593.37 C 1152.46 1589.55 1110.39 1602.33 1083.51 1579.2 C 1085.47 1555.09 1087.36 1530.97 1102.27 1512.22 C 1126.77 1523.71 1153.28 1517.77 1178.06 1510.12 z" fill="rgb(255,255,255)" transform="translate(0,0)"></path>
<path d="M 1662.88 1506.15 C 1685.13 1520.12 1684.59 1558.5 1687.17 1581.83 C 1659.76 1602.08 1622.1 1589 1591.64 1593.16 C 1527.13 1601.96 1474.91 1619.69 1410.31 1598.16 C 1403.39 1595.54 1397.38 1593.45 1398.62 1585.22 C 1404.65 1576.49 1450.65 1553.25 1462.26 1546.91 C 1468.68 1551.68 1478.46 1560.67 1484.8 1566.21 C 1522.7 1548.77 1560.2 1530.48 1597.27 1511.35 C 1619.24 1520.3 1642.8 1519.05 1662.88 1506.15 z" fill="rgb(255,255,255)" transform="translate(0,0)"></path>
<path d="M 1433.2 1504.73 L 1434.91 1505.27 C 1444.87 1515.36 1451.73 1532.78 1455.25 1546.3 C 1437.22 1556.73 1402.17 1571.64 1392.24 1586.9 C 1382.51 1575.65 1372.23 1570.66 1359.5 1563.16 C 1346.54 1556.4 1329.71 1546.02 1316.69 1538.63 C 1332 1532.14 1353.36 1519.68 1368.25 1511.39 C 1390.28 1518.59 1414.23 1520.29 1433.2 1504.73 z" fill="rgb(255,255,255)" transform="translate(0,0)"></path>
<path d="M 1208.59 1466.24 C 1233.25 1464.45 1236.15 1471.78 1245.78 1493.13 C 1247.46 1496.85 1249.22 1500.77 1250.83 1504.56 C 1264.67 1512.54 1277.35 1520.5 1291.55 1528.33 C 1283.04 1531.95 1273.8 1536.37 1265.33 1540.24 C 1262.72 1541.29 1261.34 1542.38 1258.52 1541.49 C 1249.25 1538.57 1240.27 1533.89 1231.53 1529.69 C 1216.12 1522.1 1200.6 1514.75 1184.97 1507.65 C 1184.87 1496.78 1185.52 1484.34 1185.85 1473.37 C 1194.36 1469.04 1199.31 1467.9 1208.59 1466.24 z" fill="rgb(255,255,255)" transform="translate(0,0)"></path>
<path d="M 1555.24 1475.08 C 1562.75 1475.26 1573.77 1478.96 1579.97 1483.19 C 1591.37 1490.98 1593.74 1494.96 1596.69 1507.53 C 1577.62 1517.59 1556.76 1527.57 1537.37 1537.29 L 1528.05 1541.98 C 1519.04 1536.66 1509.93 1531.51 1500.72 1526.52 C 1511.62 1520.43 1522.69 1514.4 1533.3 1507.85 C 1536.78 1495.4 1541.54 1479.01 1555.24 1475.08 z" fill="rgb(255,255,255)" transform="translate(0,0)"></path>
<path d="M 1323.56 1474.89 C 1336.05 1475.13 1353 1483.84 1361.42 1493.3 C 1364.48 1496.75 1365.75 1503.25 1366.84 1507.75 C 1352.15 1515.99 1337.32 1523.99 1322.35 1531.73 C 1319.33 1533.33 1316.28 1534.88 1313.22 1536.39 C 1302.71 1530.79 1292.92 1524.78 1282.69 1518.7 C 1289.47 1514.92 1296.41 1510.53 1303.16 1506.9 C 1307.34 1493.47 1310 1481.12 1323.56 1474.89 z" fill="rgb(255,255,255)" transform="translate(0,0)"></path>
<path d="M 1295.31 1531.11 C 1297.86 1531.97 1322.6 1546.51 1327.19 1548.99 C 1322.36 1552.89 1312.3 1560.73 1306.57 1563.84 C 1305.69 1564.32 1303.53 1562.84 1302.69 1562.34 C 1290.56 1556.63 1275.74 1550.68 1264.27 1544.68 L 1295.31 1531.11 z" fill="rgb(255,255,255)" transform="translate(0,0)"></path>
<path d="M 1496.53 1528.85 C 1506.05 1533.25 1514.54 1538.82 1523.98 1543.5 C 1513.56 1548.62 1503.13 1553.33 1492.75 1558.43 C 1485.01 1562.25 1486.98 1562.96 1480.39 1557.3 C 1475.72 1553.29 1471.15 1549.05 1466.45 1545.08 C 1476.41 1539.16 1487.2 1534.73 1496.53 1528.85 z" fill="rgb(255,255,255)" transform="translate(0,0)"></path>
<path d="M 336.114 350.845 L 688.069 350.851 C 688.236 378.771 688.242 406.691 688.085 434.61 C 687.977 449.778 687.529 465.971 688.226 481.171 C 688.384 484.619 688.917 485.145 690.951 486.694 C 695.009 485.054 699.213 483.256 703.349 481.876 C 697.47 444.301 722.863 425.651 757.784 432.166 C 774.932 403.9 805.84 405.6 828.674 426.31 C 851.713 419.17 876.056 424.449 883.364 450.477 C 883.82 452.125 884.236 453.783 884.61 455.452 C 910.819 461.579 919.381 477.497 910.446 502.916 C 919.773 519.69 920.381 545.398 896.149 546.539 C 897.921 572.241 897.951 589.036 880.58 610.625 C 873.358 619.6 863.022 623.538 859.224 627.914 C 858.423 639.44 855.487 658.094 853.945 670.298 L 852.304 679.169 C 850.83 684.366 847.854 685.603 842.459 688.448 C 817.892 701.402 789.101 702.71 762.779 694.541 C 755.894 692.405 740.133 687.647 736.407 681.695 C 725.284 678.895 699.515 688.727 688.97 693.739 C 673.944 702.257 663.403 710.748 651.596 723.454 C 649.485 725.726 646.884 729.298 644.226 730.338 C 597.981 744.584 565.092 767.492 541.771 811.257 C 539.212 816.019 536.859 820.888 534.717 825.851 C 534.113 824.664 533.911 824.635 532.987 823.628 C 522.252 822.067 485.25 822.582 472.648 822.516 L 336.134 822.675 L 336.114 350.845 z" fill="rgb(252,235,225)" transform="translate(0,0)"></path>
<path d="M 757.784 432.166 C 774.932 403.9 805.84 405.6 828.674 426.31 C 851.713 419.17 876.056 424.449 883.364 450.477 C 883.82 452.125 884.236 453.783 884.61 455.452 C 910.819 461.579 919.381 477.497 910.446 502.916 C 919.773 519.69 920.381 545.398 896.149 546.539 C 897.921 572.241 897.951 589.036 880.58 610.625 C 873.358 619.6 863.022 623.538 859.224 627.914 C 858.423 639.44 855.487 658.094 853.945 670.298 L 852.304 679.169 C 850.83 684.366 847.854 685.603 842.459 688.448 C 817.892 701.402 789.101 702.71 762.779 694.541 C 755.894 692.405 740.133 687.647 736.407 681.695 C 738.126 677.104 737.618 677.473 738.314 673.009 L 744.636 629.689 C 720.514 634.493 706.676 630.414 690.486 612.016 C 680.467 594.084 680.059 581.146 689.491 562.704 C 684.161 558.877 680.437 555.804 676.526 550.403 C 669.778 541.014 667.104 529.299 669.11 517.911 C 671.509 503.531 679.72 494.744 690.951 486.694 C 695.009 485.054 699.213 483.256 703.349 481.876 C 697.47 444.301 722.863 425.651 757.784 432.166 z" fill="rgb(27,23,20)" transform="translate(0,0)"></path>
<path d="M 846.328 486.259 C 864.439 490.67 877.501 493.389 885.01 512.637 C 889.308 523.656 892.638 535.272 896.149 546.539 C 897.921 572.241 897.951 589.036 880.58 610.625 C 873.358 619.6 863.022 623.538 859.224 627.914 C 858.423 639.44 855.487 658.094 853.945 670.298 L 852.304 679.169 C 850.83 684.366 847.854 685.603 842.459 688.448 C 817.892 701.402 789.101 702.71 762.779 694.541 C 755.894 692.405 740.133 687.647 736.407 681.695 C 738.126 677.104 737.618 677.473 738.314 673.009 L 744.636 629.689 C 746.371 618.75 747.87 607.54 749.449 596.559 C 747.003 596.043 744.579 595.429 742.182 594.72 C 724.673 589.498 711.776 572.556 720.053 554.763 C 740.03 511.817 778.69 568.551 798.237 513.242 C 823.322 517.934 837.378 510.511 846.328 486.259 z" fill="rgb(201,72,30)" transform="translate(0,0)"></path>
<path d="M 853.945 670.298 C 820.182 668.764 785.761 656.215 779.642 618.924 C 785.925 624.328 788.979 626.871 796.993 630.236 C 815.236 637.926 835.834 637.808 853.989 629.91 C 855.795 629.12 857.31 628.398 859.224 627.914 C 858.423 639.44 855.487 658.094 853.945 670.298 z" fill="rgb(27,23,20)" transform="translate(0,0)"></path>
<path d="M 873.861 525.466 C 876.951 524.231 880.47 524.802 883.011 526.949 C 885.553 529.097 886.702 532.472 885.999 535.724 C 885.296 538.977 882.857 541.576 879.655 542.483 C 875.048 543.788 870.226 541.257 868.682 536.724 C 867.139 532.191 869.415 527.244 873.861 525.466 z" fill="rgb(27,23,20)" transform="translate(0,0)"></path>
<path d="M 818.955 528.435 C 823.381 526.369 828.643 528.277 830.716 532.7 C 832.79 537.122 830.889 542.388 826.47 544.468 C 822.041 546.552 816.761 544.647 814.684 540.215 C 812.606 535.783 814.52 530.506 818.955 528.435 z" fill="rgb(27,23,20)" transform="translate(0,0)"></path>
<path d="M 731.999 553.48 C 734.217 552.99 735.269 552.663 737.502 552.617 C 745.218 552.46 752.482 556.786 757.823 562.082 C 759.061 563.31 765.837 571.168 765.727 573.357 C 765.695 573.735 765.502 574.144 765.124 574.308 C 762.086 575.737 761.036 571.02 759.654 569.262 C 757.612 566.664 757.897 565.223 754.501 564.938 C 748.809 569.115 744.478 572.439 739.481 577.301 C 737.359 579.365 737.123 573.004 740.243 571.18 C 741.009 569.831 750.932 563.144 750.367 562.039 C 746.178 553.845 736.462 559.218 731.999 553.48 z" fill="rgb(27,23,20)" transform="translate(0,0)"></path>
<path d="M 848.361 523.501 C 853.921 525.548 864.066 546.321 868.952 553.953 C 864.139 557.552 860.071 559.939 855.054 563.14 C 847.235 561.656 861.406 554.847 863.616 553.393 L 864.399 552.87 C 861.104 548.182 849.952 530.958 848.88 526.01 L 848.361 523.501 z" fill="rgb(27,23,20)" transform="translate(0,0)"></path>
<path d="M 820.185 559.405 C 823.424 561.517 826.5 569.895 832.022 574.866 C 842.239 584.066 852.049 575.448 855.553 581.822 C 840.117 587.252 818.953 576.159 820.185 559.405 z" fill="rgb(27,23,20)" transform="translate(0,0)"></path>
<path d="M 855.736 502.295 C 859.486 501.944 879.912 501.545 879.007 512.341 C 879.016 512.238 878.12 513.599 878.232 513.441 C 871.041 506.971 867.442 504.549 857.441 505.504 C 855.092 505.728 855.507 503.681 855.736 502.295 z" fill="rgb(27,23,20)" transform="translate(0,0)"></path>
<path d="M 688.97 693.739 C 687.198 689.015 687.701 614.621 689.664 612.804 L 690.486 612.016 C 706.676 630.414 720.514 634.493 744.636 629.689 L 738.314 673.009 C 737.618 677.473 738.126 677.104 736.407 681.695 C 725.284 678.895 699.515 688.727 688.97 693.739 z" fill="rgb(255,255,255)" transform="translate(0,0)"></path>
<path d="M 478.131 543.831 L 481.67 543.944 L 483.025 545.464 C 482.174 549.972 465.797 564.148 460.733 569.878 C 463.03 574.708 464.999 578.636 466.079 583.902 C 468.378 594.673 466.18 605.915 459.995 615.027 C 453.803 624.449 444.035 630.935 432.95 632.988 C 419.248 635.592 408.23 631.65 397.188 623.999 C 390.764 618.766 386.036 611.746 383.604 603.825 C 380.553 593.469 381.812 582.321 387.095 572.906 C 392.849 562.563 402.565 555.007 414.006 551.977 C 429.198 547.962 439.645 552.635 452.4 559.759 C 461.642 552.339 467.708 549.138 478.131 543.831 z" fill="rgb(231,89,42)" transform="translate(0,0)"></path>
<path d="M 417.505 558.206 C 430.674 556.953 435.476 558.485 446.467 564.943 C 436.531 576.207 433.214 577.9 423.939 591.556 C 417.977 584.572 416.264 582.227 409.449 575.999 C 401.956 579.889 399.364 581.013 392.951 586.511 C 405.051 597.713 412.522 608.478 423.763 619.478 C 430.214 610.817 436.132 601.797 442.758 593.013 C 447.337 587.382 451.455 581.429 455.867 575.634 C 462.407 595.902 459.31 616.03 437.014 624.195 C 427.861 627.469 417.781 626.964 409.001 622.791 C 379.429 608.893 384.713 568.657 417.505 558.206 z" fill="rgb(252,235,225)" transform="translate(0,0)"></path>
<path d="M 479.354 663.854 C 481.801 664.034 480.987 663.772 483.022 665.042 C 482.436 669.451 466.786 682.04 461.589 688.289 L 460.479 689.636 C 469.038 705.562 469.732 722.049 458.12 737.023 C 451.176 746.06 440.879 751.913 429.562 753.256 C 415.897 754.841 406.131 751.108 395.694 742.724 C 381.307 727.874 377.237 708.242 388.415 690.094 C 394.341 680.408 403.968 673.564 415.064 671.15 C 429.361 667.988 439.912 672.114 451.512 679.677 C 461.94 672.379 467.682 668.848 479.354 663.854 z" fill="rgb(231,89,42)" transform="translate(0,0)"></path>
<path d="M 417.347 678.161 C 429.542 677.153 435.481 677.737 445.974 684.569 C 436.193 694.449 431.817 699.783 423.276 710.465 C 409.364 695.212 411.784 690.94 393.363 705.444 C 400.752 714.682 411.953 728.31 420.961 735.967 L 423.604 738.178 C 431.069 728.195 437.451 718.943 445.206 708.961 C 448.571 704.29 452.392 699.02 455.848 694.489 C 462.149 715.221 459.684 736.367 436.011 744.196 C 390.532 759.236 369.122 692.189 417.347 678.161 z" fill="rgb(252,235,225)" transform="translate(0,0)"></path>
<path d="M 480.951 423.962 L 483.089 425.526 C 482.889 430.061 466.71 442.764 461.454 448.987 L 460.481 450.152 C 463.951 456.08 465.907 460.844 466.713 467.656 C 467.965 478.706 464.637 489.787 457.504 498.32 C 450.345 507.096 439.931 512.592 428.645 513.55 C 415.3 514.685 405.244 510.647 395.169 502.256 C 389.141 496.081 384.917 489.217 383.079 480.724 C 380.802 469.779 383.114 458.38 389.476 449.188 C 395.884 439.797 405.778 433.356 416.958 431.295 C 430.929 428.852 440.4 432.574 451.569 440.201 C 462.981 432.161 468.041 429.153 480.951 423.962 z" fill="rgb(231,89,42)" transform="translate(0,0)"></path>
<path d="M 419.62 438.196 C 433.395 437.418 434.97 439.012 447.109 444.511 C 436.62 455.04 432.39 459.391 423.597 471.283 C 420.061 467.064 416.054 461.649 412.048 458.084 L 409.425 455.779 C 401.647 459.427 400.023 460.379 392.971 465.217 C 403.118 476.412 412.501 487.663 423.29 498.33 C 430.721 490.276 438.932 478.059 445.5 468.977 C 448.792 464.363 452.231 459.856 455.813 455.462 C 456.538 457.466 457.229 459.481 457.884 461.508 C 463.751 480.283 452.471 501.066 433.546 505.305 C 386.781 515.782 371.536 449.027 419.62 438.196 z" fill="rgb(252,235,225)" transform="translate(0,0)"></path>
<path d="M 1220.75 112.497 L 1313.27 112.755 C 1339.69 112.744 1377.25 111.003 1402.09 117.076 C 1430.55 124.202 1456.56 138.878 1477.38 159.555 C 1562.82 244.732 1524.3 400.517 1405.91 429.975 C 1373.09 438.141 1319.69 435.17 1284.61 435.164 L 1131.03 435.075 L 1084.76 435.055 C 1089.92 442.194 1093.4 448.355 1094.3 457.363 C 1095.29 466.655 1092.37 475.939 1086.25 482.999 C 1079.7 490.423 1070.47 494.942 1060.59 495.562 C 1039.68 496.965 1023.44 481.649 1023.21 460.851 C 1023.06 448.026 1027.8 441.455 1036.1 432.75 C 1004.7 428.413 974.535 411.619 951.827 390.12 C 890.806 331.26 893.191 217.875 952.196 158.547 C 1004.16 106.296 1055.52 112.66 1122.38 112.651 L 1220.75 112.497 z" fill="rgb(231,89,42)" transform="translate(0,0)"></path>
<path d="M 1145.6 120.489 L 1289.13 120.406 C 1322.35 120.453 1372.26 117.726 1402.99 125.64 C 1515.92 154.727 1552.15 300.692 1471.59 382.702 C 1419.37 435.862 1356.61 427.107 1289.25 427.002 L 1144.64 427.037 C 1107.98 427.034 1057.09 429.765 1022.6 421.291 C 909.603 393.533 881.746 242.209 959.157 163.761 C 998.824 123.563 1034.22 120.933 1086.39 120.73 L 1145.6 120.489 z" fill="rgb(255,255,255)" transform="translate(0,0)"></path>
<path d="M 1011.1 227.167 C 1040.28 225.305 1061.87 240.521 1066.65 269.941 C 1082.63 257.944 1099.79 259.206 1115.55 270.358 C 1120.11 245.254 1137.04 226.828 1163.69 227.044 C 1176.94 227.208 1189.57 232.687 1198.75 242.251 C 1241.83 286.875 1173.66 354.351 1125.19 302.765 C 1118.18 293.242 1117.22 287.023 1115.3 275.604 C 1100.31 261.821 1082.63 262.219 1067.28 274.78 C 1065.06 286.851 1063.54 294.258 1055.13 303.997 C 1046.59 313.91 1034.46 320.013 1021.41 320.959 C 1008.15 321.825 995.099 317.326 985.192 308.472 C 973.84 298.257 970.033 286.646 969.374 271.884 C 956.688 269.624 944.126 268.674 934.729 279.817 C 933.015 281.849 931.764 283.128 929.774 284.856 L 928.158 284.688 C 924.15 275.022 942.805 269.439 949.593 267.529 C 957.185 265.393 962.216 266.548 969.407 268.613 C 974.979 244.907 987.215 232.396 1011.1 227.167 z" fill="rgb(27,23,20)" transform="translate(0,0)"></path>
<path d="M 1009.45 230.969 C 1033.2 226.208 1056.3 241.607 1061.04 265.354 C 1065.79 289.1 1050.37 312.192 1026.62 316.917 C 1002.89 321.636 979.833 306.24 975.095 282.519 C 970.358 258.798 985.736 235.725 1009.45 230.969 z" fill="rgb(255,255,255)" transform="translate(0,0)"></path>
<path d="M 1019.17 271.22 C 1026.68 270.731 1038.41 272.116 1042.8 278.201 C 1046.93 283.924 1027.73 274.716 1027.92 274.78 C 1022.65 274.721 1019.47 274.786 1014.48 276.904 C 1011.44 278.192 1009.05 281.008 1005.98 281.517 C 1004.95 281.686 1004.38 279.671 1004.87 279.044 C 1007.86 275.215 1014.71 272.582 1019.17 271.22 z" fill="rgb(27,23,20)" transform="translate(0,0)"></path>
<path d="M 1157.5 231.05 C 1181.25 227.56 1203.36 243.926 1206.96 267.664 C 1210.55 291.402 1194.29 313.583 1170.57 317.288 C 1146.69 321.016 1124.34 304.623 1120.72 280.733 C 1117.1 256.842 1133.59 234.562 1157.5 231.05 z" fill="rgb(255,255,255)" transform="translate(0,0)"></path>
<path d="M 1158.22 244.586 C 1174.14 241.372 1189.68 251.573 1193.05 267.456 C 1196.43 283.339 1186.39 298.979 1170.54 302.52 C 1160.15 304.842 1149.3 301.402 1142.15 293.51 C 1134.99 285.619 1132.62 274.492 1135.95 264.371 C 1139.28 254.25 1147.78 246.695 1158.22 244.586 z" fill="rgb(231,89,42)" transform="translate(0,0)"></path>
<path d="M 1151.88 254.655 C 1162 251.612 1172.68 257.313 1175.78 267.414 C 1178.88 277.515 1173.24 288.224 1163.15 291.382 C 1152.99 294.565 1142.17 288.87 1139.05 278.687 C 1135.92 268.504 1141.68 257.723 1151.88 254.655 z" fill="rgb(255,255,255)" transform="translate(0,0)"></path>
<path d="M 1362.32 219.403 C 1400.06 214.537 1449.85 240.932 1471.79 271.14 C 1471.37 271.688 1470.94 272.231 1470.5 272.767 C 1446.71 301.842 1414.3 318.109 1377.24 321.81 C 1367.27 322.357 1357.27 321.721 1347.45 319.917 C 1318.51 314.646 1284.29 295.293 1267.45 270.978 C 1286.2 241.391 1328.35 222.545 1362.32 219.403 z" fill="rgb(27,23,20)" transform="translate(0,0)"></path>
<path d="M 1337.83 227.586 C 1356.72 221.331 1381.97 221.345 1400.86 227.638 C 1402.87 228.283 1404.24 228.721 1406.31 229.203 C 1432.23 239.329 1448.46 249.361 1466.9 270.819 C 1448.71 292.012 1421.92 310.305 1394.18 315.402 C 1376.54 319.241 1362.99 319.311 1345.27 315.602 C 1318.38 309.606 1289.3 292.807 1272.27 270.979 C 1287.93 250.868 1313.4 234.566 1337.83 227.586 z" fill="rgb(231,89,42)" transform="translate(0,0)"></path>
<path d="M 1337.83 227.586 C 1338.26 228.277 1338.17 228.036 1338.25 228.391 C 1338.2 228.531 1329.98 237.444 1329.09 238.553 C 1311.3 260.519 1317.8 295.879 1341.52 311.015 C 1341.97 311.305 1346.61 314.498 1346.61 314.532 C 1346.17 314.889 1345.72 315.245 1345.27 315.602 C 1318.38 309.606 1289.3 292.807 1272.27 270.979 C 1287.93 250.868 1313.4 234.566 1337.83 227.586 z" fill="rgb(255,255,255)" transform="translate(0,0)"></path>
<path d="M 1406.31 229.203 C 1432.23 239.329 1448.46 249.361 1466.9 270.819 C 1448.71 292.012 1421.92 310.305 1394.18 315.402 C 1395.99 313.721 1397.65 312.49 1399.67 311.054 C 1422.31 294.94 1429.23 260.054 1410.7 237.624 L 1409.63 236.355 L 1408.67 235.175 L 1406.31 229.203 z" fill="rgb(255,255,255)" transform="translate(0,0)"></path>
<path d="M 1400.86 227.638 C 1402.87 228.283 1404.24 228.721 1406.31 229.203 L 1408.67 235.175 C 1405.78 232.463 1403.48 230.627 1400.86 227.638 z" fill="rgb(252,235,225)" transform="translate(0,0)"></path>
<path d="M 1365.12 249.634 C 1371.91 247.865 1379.14 249.886 1384.03 254.926 C 1388.92 259.966 1390.73 267.248 1388.76 273.99 C 1386.79 280.733 1381.35 285.896 1374.51 287.509 C 1364.11 289.963 1353.67 283.59 1351.09 273.216 C 1348.52 262.841 1354.77 252.327 1365.12 249.634 z" fill="rgb(27,23,20)" transform="translate(0,0)"></path>
<path d="M 1051.05 434.535 C 1057.42 432.65 1064.25 433.161 1070.27 435.972 C 1080.49 440.748 1086.69 451.34 1085.87 462.589 C 1085.04 473.838 1077.34 483.406 1066.54 486.631 C 1052.14 490.927 1037 482.732 1032.72 468.335 C 1028.44 453.937 1036.65 438.799 1051.05 434.535 z" fill="rgb(255,255,255)" transform="translate(0,0)"></path>
<path d="M 1803.86 1259.4 C 1821.97 1259.29 1849.53 1260.21 1866.68 1259.21 C 1868.9 1283.86 1872.25 1309 1874.97 1333.69 L 1895.89 1523.19 C 1897.71 1541.25 1899.64 1559.29 1901.69 1577.32 C 1904.52 1601.2 1914.65 1641.7 1879.94 1647.68 C 1871.53 1649.15 1862.9 1647.02 1856.15 1641.81 C 1841.09 1630.4 1842.34 1608.6 1840.56 1591.18 L 1833.79 1526.82 L 1815.05 1358.56 C 1811.51 1326.54 1808.38 1291.02 1803.86 1259.4 z" fill="rgb(27,23,20)" transform="translate(0,0)"></path>
<path d="M 993.041 495.471 C 1005.86 494.043 1017.48 503.095 1019.24 515.875 C 1020.99 528.655 1012.24 540.505 999.513 542.587 C 990.982 543.981 982.367 540.64 977.009 533.857 C 971.651 527.075 970.393 517.92 973.724 509.945 C 977.055 501.969 984.451 496.428 993.041 495.471 z" fill="rgb(231,89,42)" transform="translate(0,0)"></path>
<path d="M 990.836 504.414 C 999.027 501.677 1007.88 506.117 1010.59 514.318 C 1013.3 522.519 1008.83 531.359 1000.61 534.036 C 992.446 536.699 983.662 532.255 980.969 524.096 C 978.276 515.938 982.687 507.138 990.836 504.414 z" fill="rgb(255,255,255)" transform="translate(0,0)"></path>
<metadata><recraft-signature>{"signed_by": "recraft", "signature_b64": "lk4dIxqUmSG/ImUueYbOmxLi86OycrmZ8G7Xf8JUrygXMvHzNtWCxsFJT/efvZkapz093cCKTPCSIWG2NFGqAA==", "signing_algo": "Ed25519", "generation_timestamp": 1783393844, "identifier": "911a2499-006e-4d68-b9fd-6a5f7094e663"}</recraft-signature></metadata></svg>