<svg xmlns="http://www.w3.org/2000/svg" height="1792" preserveAspectRatio="none" style="display: block;" version="1.1" viewBox="0 0 2432 1792" width="2432">
<path d="M 0 0 L 2432 0 L 2432 1792 L 0 1792 L 0 0 z" fill="rgb(255,255,255)" transform="translate(0,0)"></path>
<path d="M 1562.28 359.665 C 1557.13 348.127 1557.99 329.006 1560.16 316.825 C 1566.09 284.908 1584.58 256.707 1611.49 238.547 C 1639.1 219.8 1673.04 212.814 1705.81 219.132 C 1770.75 232.042 1807.66 292.099 1794.52 356.131 L 1797.46 356.81 C 1806.33 338.421 1818.29 323.834 1838.25 316.879 C 1880.03 302.337 1924.4 330.68 1938.51 370.381 C 1944.75 387.95 1942.83 408.932 1962.04 418.551 C 1980.92 428.002 2001.2 422.555 2019.08 414.187 C 2001.64 441.406 1989.36 456.79 1960.9 473.804 C 1977.96 495.887 1996.29 514.847 2012.75 538.199 C 2080.53 634.379 2129.31 755.922 2140.28 873.555 C 2135.4 876.179 2113.96 886.294 2112.61 889.732 C 2114.94 938.293 2107 988.683 2072.9 1025.93 C 2070.03 1029 2067.07 1031.98 2064.01 1034.85 C 2065.56 1044.13 2065.22 1055.54 2065.77 1065.12 C 2067.07 1087.68 2066.42 1112.07 2067.87 1134.46 C 2056.64 1140.74 2041.23 1146.13 2032.55 1151.23 C 2033.79 1163.29 2034.89 1176.01 2036.39 1187.98 L 2058.45 1400.16 L 2063.95 1453.33 C 2066.91 1482.06 2070.84 1501.39 2051.35 1525.9 C 2025.86 1557.94 1975.79 1560.6 1938.1 1566.29 C 1908.18 1569.79 1860.66 1569.9 1828.54 1568.9 C 1823.49 1569.3 1817.63 1569.21 1812.52 1569.2 C 1741.14 1569.13 1669.13 1564.89 1599.08 1550.58 C 1595.44 1550.01 1593.29 1549.35 1589.8 1548.44 C 1564.12 1545.44 1531.25 1530.18 1554.06 1498.05 C 1561.23 1487.95 1577.16 1475.82 1586.97 1467.32 L 1639.91 1421.52 C 1643.16 1370.48 1649.34 1316.31 1653.77 1265.02 L 1660.03 1192.82 C 1661.06 1181.03 1662.06 1164.04 1663.86 1152.71 C 1664.08 1147.48 1664.75 1141.19 1665.17 1135.88 C 1703.11 1150.99 1727.78 1159.66 1767.83 1169.63 C 1780.81 1017.8 1783.37 865.261 1775.49 713.082 C 1771.76 651.279 1764.53 594.514 1758.53 533.368 C 1749.2 544.546 1740 555.839 1730.95 567.245 C 1712.4 537.732 1699.73 507.254 1701.28 471.747 C 1699.01 471.088 1680.8 474.96 1674.48 475.046 C 1653.25 475.335 1634.76 469.389 1619.22 454.814 L 1616.95 453.006 C 1610.59 446.248 1605.6 440.458 1600.56 432.668 C 1598.37 429.218 1598.98 428.733 1595.1 427.793 L 1594.39 426.954 L 1593.66 426.148 C 1593.99 422.286 1594.52 412.55 1594.62 408.374 C 1593.65 404.754 1592.98 395.935 1593.08 392.278 L 1592.61 388.228 C 1593.2 387.059 1593.25 387.003 1594.03 385.894 C 1591.51 380.628 1588.55 377.46 1586.68 373.674 C 1585.52 372.576 1584.18 371.237 1582.95 370.245 C 1580.12 369.543 1575.81 367.695 1572.18 366.663 C 1569.87 366.672 1568.3 366.653 1565.99 366.436 C 1564.76 363.361 1564.51 362.187 1562.28 359.665 z" fill="rgb(252,235,225)" transform="translate(0,0)"></path>
<path d="M 1857.95 1180.88 C 1859.86 1180.1 1894.36 1179.38 1899.93 1179.17 C 1947.34 1177.42 1987.67 1166.28 2032.55 1151.23 C 2033.79 1163.29 2034.89 1176.01 2036.39 1187.98 L 2058.45 1400.16 L 2063.95 1453.33 C 2066.91 1482.06 2070.84 1501.39 2051.35 1525.9 C 2025.86 1557.94 1975.79 1560.6 1938.1 1566.29 C 1908.18 1569.79 1860.66 1569.9 1828.54 1568.9 C 1823.49 1569.3 1817.63 1569.21 1812.52 1569.2 C 1741.14 1569.13 1669.13 1564.89 1599.08 1550.58 C 1595.44 1550.01 1593.29 1549.35 1589.8 1548.44 C 1564.12 1545.44 1531.25 1530.18 1554.06 1498.05 C 1561.23 1487.95 1577.16 1475.82 1586.97 1467.32 L 1639.91 1421.52 C 1643.16 1370.48 1649.34 1316.31 1653.77 1265.02 L 1660.03 1192.82 C 1661.06 1181.03 1662.06 1164.04 1663.86 1152.71 C 1663.65 1156.86 1663.12 1159.57 1665.92 1162.72 C 1711.09 1213.5 1772.9 1267.58 1830.96 1301.39 C 1835.18 1262.57 1836.22 1219.19 1841.41 1181.05 C 1845.38 1179.48 1853.31 1180.61 1857.95 1180.88 z" fill="rgb(129,47,16)" transform="translate(0,0)"></path>
<path d="M 1841.41 1181.05 C 1845.38 1179.48 1853.31 1180.61 1857.95 1180.88 C 1858.52 1185.99 1859.09 1190.77 1859.32 1195.92 C 1864.52 1279.33 1870.71 1364.16 1875.07 1447.51 C 1855.73 1466.17 1834.4 1483.25 1814.84 1501.45 C 1820.37 1445.27 1823.69 1388.65 1828.66 1332.41 C 1829.57 1322.17 1830.36 1311.64 1830.96 1301.39 C 1835.18 1262.57 1836.22 1219.19 1841.41 1181.05 z" fill="rgb(255,255,255)" transform="translate(0,0)"></path>
<path d="M 1857.95 1180.88 C 1859.86 1180.1 1894.36 1179.38 1899.93 1179.17 C 1947.34 1177.42 1987.67 1166.28 2032.55 1151.23 C 2033.79 1163.29 2034.89 1176.01 2036.39 1187.98 C 2036.24 1191.12 2036.82 1193.62 2034.35 1195.26 C 2026.67 1200.35 2015.49 1202.04 2006.84 1203.53 C 1962.58 1211.15 1918.66 1210.68 1874.94 1200.05 C 1870.91 1199.08 1862.84 1197.36 1859.32 1195.92 C 1859.09 1190.77 1858.52 1185.99 1857.95 1180.88 z" fill="rgb(27,23,20)" transform="translate(0,0)"></path>
<path d="M 1804.02 1512.34 C 1802.04 1515.77 1799.74 1519.63 1798.46 1523.38 C 1790.83 1545.79 1815.3 1564.6 1835.65 1566.56 L 1836.78 1567.75 C 1833.57 1568.47 1831.83 1568.61 1828.54 1568.9 C 1823.49 1569.3 1817.63 1569.21 1812.52 1569.2 C 1741.14 1569.13 1669.13 1564.89 1599.08 1550.58 C 1601.39 1549.2 1601.25 1549.17 1603.95 1548.68 C 1641.67 1552.43 1774.37 1535.45 1804.02 1512.34 z" fill="rgb(27,23,20)" transform="translate(0,0)"></path>
<path d="M 1589.8 1548.44 C 1593.65 1547.58 1600.37 1547 1603.95 1548.68 C 1601.25 1549.17 1601.39 1549.2 1599.08 1550.58 C 1595.44 1550.01 1593.29 1549.35 1589.8 1548.44 z" fill="rgb(43,37,32)" transform="translate(0,0)"></path>
<path d="M 1562.28 359.665 C 1557.13 348.127 1557.99 329.006 1560.16 316.825 C 1566.09 284.908 1584.58 256.707 1611.49 238.547 C 1639.1 219.8 1673.04 212.814 1705.81 219.132 C 1770.75 232.042 1807.66 292.099 1794.52 356.131 C 1793.67 358.153 1793.26 359.784 1792.65 361.872 L 1794.36 362.203 C 1793.79 365.029 1793.05 365.741 1794.68 367.846 C 1798.65 372.964 1809.57 382.19 1811.76 388.091 C 1800.86 421.011 1789.36 453.728 1777.27 486.226 C 1774.53 493.732 1765.39 519.875 1761.8 525.155 L 1757.07 526.468 C 1746.93 512.55 1735.29 493.7 1725.66 478.937 C 1722.01 474.035 1718.62 468.952 1715.48 463.705 L 1705.83 468.096 L 1705.6 482.781 C 1704.13 479.578 1705.9 474.235 1704.17 469.122 L 1702.79 469.331 L 1701.28 471.747 C 1699.01 471.088 1680.8 474.96 1674.48 475.046 C 1653.25 475.335 1634.76 469.389 1619.22 454.814 L 1616.95 453.006 C 1610.59 446.248 1605.6 440.458 1600.56 432.668 C 1598.37 429.218 1598.98 428.733 1595.1 427.793 L 1594.39 426.954 L 1593.66 426.148 C 1593.99 422.286 1594.52 412.55 1594.62 408.374 C 1593.65 404.754 1592.98 395.935 1593.08 392.278 L 1592.61 388.228 C 1593.2 387.059 1593.25 387.003 1594.03 385.894 C 1591.51 380.628 1588.55 377.46 1586.68 373.674 C 1585.52 372.576 1584.18 371.237 1582.95 370.245 C 1580.12 369.543 1575.81 367.695 1572.18 366.663 C 1569.87 366.672 1568.3 366.653 1565.99 366.436 C 1564.76 363.361 1564.51 362.187 1562.28 359.665 z" fill="rgb(27,23,20)" transform="translate(0,0)"></path>
<path d="M 1735.03 329.381 C 1738.02 326.8 1755.76 318.1 1760.19 315.719 C 1778.91 322.987 1775.3 343.609 1769.67 358.744 C 1766.59 367.009 1758.76 371.844 1757.07 377.598 L 1757.57 378.897 C 1768.4 375.163 1774.94 358.8 1776.96 348.454 C 1779.29 351.088 1788.6 362.367 1790.96 363.162 L 1792.65 361.872 L 1794.36 362.203 C 1793.79 365.029 1793.05 365.741 1794.68 367.846 C 1798.65 372.964 1809.57 382.19 1811.76 388.091 C 1800.86 421.011 1789.36 453.728 1777.27 486.226 C 1774.53 493.732 1765.39 519.875 1761.8 525.155 L 1757.07 526.468 C 1746.93 512.55 1735.29 493.7 1725.66 478.937 C 1722.01 474.035 1718.62 468.952 1715.48 463.705 L 1705.83 468.096 L 1705.6 482.781 C 1704.13 479.578 1705.9 474.235 1704.17 469.122 L 1702.79 469.331 L 1701.28 471.747 C 1699.01 471.088 1680.8 474.96 1674.48 475.046 C 1653.25 475.335 1634.76 469.389 1619.22 454.814 L 1616.95 453.006 C 1610.59 446.248 1605.6 440.458 1600.56 432.668 C 1598.37 429.218 1598.98 428.733 1595.1 427.793 L 1594.39 426.954 L 1593.66 426.148 C 1593.99 422.286 1594.52 412.55 1594.62 408.374 C 1593.65 404.754 1592.98 395.935 1593.08 392.278 C 1594.2 391.744 1595.25 391.3 1596.39 390.813 C 1597.93 389.941 1599.24 389.201 1600.71 388.213 C 1603.88 386.455 1606.76 386.176 1610.32 385.489 C 1615.15 391.27 1619.78 400.186 1626.36 404.047 C 1661.95 424.914 1682.82 396.212 1674.42 362.207 C 1686.11 357.314 1704.44 346.987 1716.22 340.671 C 1722.55 337.005 1728.82 333.241 1735.03 329.381 z" fill="rgb(129,47,16)" transform="translate(0,0)"></path>
<path d="M 1752.53 426.024 C 1755.69 419.267 1755.55 426.13 1755.65 428.802 L 1755.43 429.689 C 1749.58 453.788 1748.12 464.345 1725.66 478.937 C 1722.01 474.035 1718.62 468.952 1715.48 463.705 C 1736.23 447.13 1736.58 450.301 1752.53 426.024 z" fill="rgb(27,23,20)" transform="translate(0,0)"></path>
<path d="M 1600.71 388.213 C 1601.03 396.773 1598.62 414.192 1598.42 424.2 C 1601.37 423.453 1615.49 419.191 1615.46 419.18 C 1629.55 423.993 1601.53 427.179 1594.39 426.954 L 1593.66 426.148 C 1593.99 422.286 1594.52 412.55 1594.62 408.374 C 1593.65 404.754 1592.98 395.935 1593.08 392.278 C 1594.2 391.744 1595.25 391.3 1596.39 390.813 C 1597.93 389.941 1599.24 389.201 1600.71 388.213 z" fill="rgb(27,23,20)" transform="translate(0,0)"></path>
<path d="M 1593.08 392.278 C 1594.2 391.744 1595.25 391.3 1596.39 390.813 C 1595.75 397.701 1595.57 401.418 1594.62 408.374 C 1593.65 404.754 1592.98 395.935 1593.08 392.278 z" fill="rgb(201,72,30)" transform="translate(0,0)"></path>
<path d="M 1616.95 453.006 C 1622.83 446.531 1634.28 444.598 1642.01 437.042 C 1646.7 432.452 1649.08 424.585 1653 422.102 C 1653.89 421.534 1655.45 423.802 1654.51 426.211 C 1648.8 440.876 1633.78 450.41 1619.22 454.814 L 1616.95 453.006 z" fill="rgb(27,23,20)" transform="translate(0,0)"></path>
<path d="M 1735.03 329.381 C 1736.24 332.586 1732.6 338.244 1731.11 341.785 C 1726.54 341.72 1719.86 342.366 1716.22 340.671 C 1722.55 337.005 1728.82 333.241 1735.03 329.381 z" fill="rgb(27,23,20)" transform="translate(0,0)"></path>
<path d="M 1755.29 329.602 C 1763.08 330.639 1751.27 338.102 1747.46 342.519 C 1749.74 344.559 1759.8 352.803 1757.9 356.438 C 1756.29 359.533 1749.86 350.668 1747.52 348.613 C 1739.96 347.269 1743.59 355.67 1740.95 359.4 C 1738.34 361.471 1736.73 358.91 1737.17 356.499 C 1739.44 343.966 1745.01 336.708 1755.29 329.602 z" fill="rgb(27,23,20)" transform="translate(0,0)"></path>
<path d="M 1700.89 341.452 C 1719.11 331.252 1736.87 320.166 1755.07 309.93 C 1758.31 308.109 1762.91 305.204 1766.14 307.287 C 1766.19 313.012 1764.61 313.327 1760.19 315.719 C 1755.76 318.1 1738.02 326.8 1735.03 329.381 C 1728.82 333.241 1722.55 337.005 1716.22 340.671 C 1704.44 346.987 1686.11 357.314 1674.42 362.207 C 1682.82 396.212 1661.95 424.914 1626.36 404.047 C 1619.78 400.186 1615.15 391.27 1610.32 385.489 C 1606.76 386.176 1603.88 386.455 1600.71 388.213 C 1599.24 389.201 1597.93 389.941 1596.39 390.813 C 1595.25 391.3 1594.2 391.744 1593.08 392.278 L 1592.61 388.228 C 1593.2 387.059 1593.25 387.003 1594.03 385.894 C 1599 381.427 1601.65 380.645 1607.76 378.624 C 1605.64 355.154 1612.42 328.788 1644.47 333.747 C 1655.97 335.526 1665.48 346.63 1671.51 356.313 C 1681.62 351.791 1691.16 346.716 1700.89 341.452 z" fill="rgb(231,89,42)" transform="translate(0,0)"></path>
<path d="M 1632.06 340.086 C 1667.97 336.406 1686.31 390.191 1652.16 404.728 C 1616.65 406.367 1598.18 355.294 1632.06 340.086 z" fill="rgb(129,47,16)" transform="translate(0,0)"></path>
<path d="M 1623.17 370.57 C 1634.09 371.029 1635.8 380.309 1630.14 388.419 C 1629.39 388.309 1628.63 388.209 1627.88 388.117 C 1618.47 386.972 1618.77 377.238 1623.17 370.57 z" fill="rgb(27,23,20)" transform="translate(0,0)"></path>
<path d="M 1600.88 269.14 C 1603.54 273.45 1606.49 278.944 1608.86 283.467 C 1629.4 322.685 1655.64 341.367 1700.89 341.452 C 1691.16 346.716 1681.62 351.791 1671.51 356.313 C 1665.48 346.63 1655.97 335.526 1644.47 333.747 C 1612.42 328.788 1605.64 355.154 1607.76 378.624 C 1601.65 380.645 1599 381.427 1594.03 385.894 C 1591.51 380.628 1588.55 377.46 1586.68 373.674 C 1585.52 372.576 1584.18 371.237 1582.95 370.245 C 1580.12 369.543 1575.81 367.695 1572.18 366.663 C 1569.87 366.672 1568.3 366.653 1565.99 366.436 C 1564.76 363.361 1564.51 362.187 1562.28 359.665 C 1604.12 344.179 1601.06 307.344 1600.88 269.14 z" fill="rgb(129,47,16)" transform="translate(0,0)"></path>
<path d="M 1582.95 370.245 C 1583.31 357.846 1604.74 364.299 1588.93 372.519 L 1586.68 373.674 C 1585.52 372.576 1584.18 371.237 1582.95 370.245 z" fill="rgb(27,23,20)" transform="translate(0,0)"></path>
<path d="M 1797.46 356.81 C 1806.33 338.421 1818.29 323.834 1838.25 316.879 C 1880.03 302.337 1924.4 330.68 1938.51 370.381 C 1944.75 387.95 1942.83 408.932 1962.04 418.551 C 1980.92 428.002 2001.2 422.555 2019.08 414.187 C 2001.64 441.406 1989.36 456.79 1960.9 473.804 C 1957.16 473.22 1942.79 458.522 1938.77 455.132 C 1903.45 425.348 1863.71 405.434 1819.97 390.688 C 1842.08 431.617 1830.64 489.502 1817.76 532.472 C 1814.46 543.624 1810.49 554.566 1805.87 565.239 C 1791.81 554.41 1776.33 542.922 1762.6 531.861 C 1783.27 693.874 1789.71 857.387 1781.82 1020.52 C 1779.81 1067.37 1777.21 1123.41 1772.19 1170.34 C 1794.24 1175.76 1816.39 1176.9 1838.85 1179.54 C 1839.71 1179.65 1840.76 1180.55 1841.41 1181.05 C 1836.22 1219.19 1835.18 1262.57 1830.96 1301.39 C 1772.9 1267.58 1711.09 1213.5 1665.92 1162.72 C 1663.12 1159.57 1663.65 1156.86 1663.86 1152.71 C 1664.08 1147.48 1664.75 1141.19 1665.17 1135.88 C 1703.11 1150.99 1727.78 1159.66 1767.83 1169.63 C 1780.81 1017.8 1783.37 865.261 1775.49 713.082 C 1771.76 651.279 1764.53 594.514 1758.53 533.368 C 1749.2 544.546 1740 555.839 1730.95 567.245 C 1712.4 537.732 1699.73 507.254 1701.28 471.747 L 1702.79 469.331 L 1704.17 469.122 C 1705.9 474.235 1704.13 479.578 1705.6 482.781 L 1705.83 468.096 L 1715.48 463.705 C 1718.62 468.952 1722.01 474.035 1725.66 478.937 C 1735.29 493.7 1746.93 512.55 1757.07 526.468 L 1761.8 525.155 C 1765.39 519.875 1774.53 493.732 1777.27 486.226 C 1789.36 453.728 1800.86 421.011 1811.76 388.091 C 1809.57 382.19 1798.65 372.964 1794.68 367.846 C 1793.05 365.741 1793.79 365.029 1794.36 362.203 L 1792.65 361.872 C 1793.26 359.784 1793.67 358.153 1794.52 356.131 L 1797.46 356.81 z" fill="rgb(27,23,20)" transform="translate(0,0)"></path>
<path d="M 1811.76 388.091 C 1831.53 413.817 1829.42 442.541 1825.7 473.547 C 1822.66 498.945 1814.05 534.235 1803.96 557.88 C 1798.27 553.534 1765.35 528.94 1761.8 525.155 C 1765.39 519.875 1774.53 493.732 1777.27 486.226 C 1789.36 453.728 1800.86 421.011 1811.76 388.091 z" fill="rgb(252,235,225)" transform="translate(0,0)"></path>
<path d="M 1715.48 463.705 C 1718.62 468.952 1722.01 474.035 1725.66 478.937 C 1735.29 493.7 1746.93 512.55 1757.07 526.468 C 1755.1 530.302 1735.68 554.106 1731.6 559.218 C 1716.58 536.364 1707.63 510.056 1705.6 482.781 L 1705.83 468.096 L 1715.48 463.705 z" fill="rgb(252,235,225)" transform="translate(0,0)"></path>
<path d="M 1794.52 356.131 L 1797.46 356.81 C 1796.28 359.322 1795.9 359.935 1794.36 362.203 L 1792.65 361.872 C 1793.26 359.784 1793.67 358.153 1794.52 356.131 z" fill="rgb(247,241,234)" transform="translate(0,0)"></path>
<path d="M 2001.86 1027.77 C 1954.5 1019.29 1946.98 976.47 1944.87 935.47 C 1941.25 865.009 1942.66 793.377 1929.99 723.753 C 1923.51 686.374 1912.77 649.859 1897.99 614.919 C 1892.23 601.379 1884.64 588.023 1879.45 575.109 L 1881.02 573.412 C 1881.57 573.707 1882.55 574.177 1882.85 574.672 C 1938.75 667.325 1974.92 799.059 1980.19 904.089 L 1998.67 906.844 C 2024.56 908.39 2049.84 907.332 2075.12 900.994 C 2081.2 899.47 2110.09 888.71 2112.61 889.732 C 2114.94 938.293 2107 988.683 2072.9 1025.93 C 2070.03 1029 2067.07 1031.98 2064.01 1034.85 C 2053.21 1043.59 2041.67 1051.7 2027.73 1054.51 C 2023.52 1055.88 2017.58 1056.29 2013.24 1055.5 C 2009.22 1054.8 2005.69 1052.45 2003.48 1049.02 C 1998.85 1041.87 2000.33 1035.41 2001.86 1027.77 z" fill="rgb(27,23,20)" transform="translate(0,0)"></path>
<path d="M 1998.67 906.844 C 2024.56 908.39 2049.84 907.332 2075.12 900.994 C 2081.2 899.47 2110.09 888.71 2112.61 889.732 C 2114.94 938.293 2107 988.683 2072.9 1025.93 C 2070.03 1029 2067.07 1031.98 2064.01 1034.85 C 2053.21 1043.59 2041.67 1051.7 2027.73 1054.51 C 2049.77 1042.23 2065.01 1023.6 2076.25 1001.13 C 2078.8 996.036 2083.86 986.531 2082.16 981.782 L 2080.6 981.197 C 2080.66 981.157 2068.27 1005.16 2066.89 1008.65 C 2062.05 1020.87 2028.29 1059.67 2013.19 1049.91 C 2014.2 1047.93 2024.35 1038.54 2027.57 1034.87 C 2036.92 1024.24 2055.87 994.798 2054.88 980.876 C 2050.61 981.238 2040.4 1009.5 2036.47 1014.66 C 2031.2 1021.58 2016.19 1046.27 2006.41 1044.3 C 1998.42 1032.76 2034.99 960.568 2021.39 951.835 C 2010.48 959.287 2006.18 995.33 1988.09 993.045 C 1971.96 991.008 1985.29 955.484 1987.66 947.382 C 1991.61 933.946 1995.28 920.43 1998.67 906.844 z" fill="rgb(129,47,16)" transform="translate(0,0)"></path>
<path d="M 1924.09 829.32 C 1926.49 830.38 1927.52 853.92 1927.98 858.432 L 1933.51 910.977 C 1934.47 919.837 1936.45 931.958 1936 940.669 C 1933.83 982.927 1874.58 990.242 1845.61 971.868 C 1828.36 957.698 1830.48 935.414 1828.44 914.536 C 1826.33 892.152 1824.04 869.785 1821.56 847.438 C 1855.57 841.075 1889.98 835.264 1924.09 829.32 z" fill="rgb(27,23,20)" transform="translate(0,0)"></path>
<path d="M 1919.71 863.297 C 1921.38 862.95 1921.21 863.149 1923.02 863.422 C 1924.54 866.753 1931.77 935.241 1931.38 942.086 C 1931.16 946.497 1930 950.808 1927.96 954.726 C 1915.37 979.421 1873 982.205 1850.54 969.855 C 1829.79 955.188 1832.74 903.794 1829.09 877.95 L 1919.71 863.297 z" fill="rgb(252,235,225)" transform="translate(0,0)"></path>
<path d="M 1914.7 835.307 C 1918.62 834.884 1918.21 834.256 1920.75 835.922 C 1923.27 842.209 1923.01 851.464 1923.33 858.448 C 1896.15 861.934 1864.21 867.927 1836.76 872.376 C 1835.04 872.722 1831.15 873.929 1830.2 872.653 C 1826.79 868.108 1826.84 856.518 1826.09 850.748 C 1855.41 846.09 1885.43 840.515 1914.7 835.307 z" fill="rgb(252,235,225)" transform="translate(0,0)"></path>
<path d="M 1052.15 219.212 C 1056.72 212.532 1058.69 209.094 1067.37 208.573 C 1078.55 207.904 1089.73 208.209 1100.93 208.245 L 1153.42 208.179 L 1197.94 208.109 C 1208.92 208.099 1221.99 205.898 1230.62 212.961 C 1232.81 217.344 1234.45 225.046 1234.43 230.056 C 1234.17 275.038 1235.16 320.499 1233.64 365.398 C 1233.1 381.232 1201.04 378.037 1190.65 377.941 L 1148.17 377.797 C 1148.14 391.908 1149.79 459.928 1147.35 467.136 C 1146.02 471.075 1143.45 474.059 1140.15 476.53 C 1133.38 481.609 1124.29 485.241 1116.68 489.081 L 1077.06 509.338 C 1102.24 527.712 1105.96 526.675 1136.13 532.11 C 1141.54 533.084 1158.07 539.578 1164.63 541.415 C 1172.22 543.541 1181.64 546.227 1189.34 548.501 C 1199.53 551.511 1205.78 564.051 1215.68 568.755 C 1224.54 572.966 1232.84 573.832 1242.46 575.686 C 1258.86 578.847 1273.21 589.041 1286.38 598.819 C 1297.89 607.362 1304.23 622.313 1315.76 630.656 C 1321.25 634.629 1332.01 634.238 1339.17 635.653 C 1360.25 639.813 1366.64 650.089 1379.6 665.673 C 1384.32 671.355 1390.45 677.525 1395.75 682.863 C 1422.57 662.148 1475.34 659.707 1502.14 681.919 C 1535.47 709.556 1535.8 749.805 1518.44 786.6 C 1510.45 782.846 1502.14 778.755 1493.94 775.573 C 1496.55 781.641 1499.33 787.577 1500.39 794.143 C 1502.06 804.482 1500.61 815.158 1494.12 823.702 C 1457.59 871.813 1308.42 813.635 1263.92 795.201 C 1251.05 789.87 1239.13 782.552 1225.99 777.788 C 1202.12 769.134 1177.25 763.713 1152.23 759.597 C 1131.08 756.119 1109.23 753.672 1087.77 754.04 C 1070.8 754.331 1053.86 756.293 1036.88 756.348 C 1011.94 756.429 987.31 752.055 962.228 752.823 C 915.169 754.264 866.883 763.309 822.119 777.741 C 807.948 782.309 794.437 788.737 780.266 793.266 C 765.247 798.065 749.681 801.116 734.622 805.868 C 695.373 818.252 658.738 837.824 617.642 844.116 C 594.716 847.626 560.564 849.392 540.892 834.395 C 533.861 829.035 528.716 822.179 527.826 813.18 C 524.649 781.055 566.214 753.769 585.614 733.096 C 595.541 722.516 603.918 710.077 613.335 698.954 L 613.342 695.67 C 600.552 710.882 591.978 719.79 572.433 725.369 C 567.231 726.854 558.495 729.801 554.17 732.9 C 541.575 741.922 539.004 765.549 529.406 778.605 C 508.292 807.413 473.61 829.528 464.925 866.068 C 460.096 886.386 484.163 891.619 499.2 891.019 C 520.858 890.154 544.335 885.649 565.102 879.427 C 590.079 871.943 614.232 860.335 638.472 850.763 C 645.985 847.778 652.529 843.862 659.945 841.002 C 663.315 839.702 666.386 839.352 669.919 839.829 L 670.985 841.239 C 668.438 845.804 658.929 848.907 654.079 850.968 C 604.422 872.113 555.572 894.47 500.718 897.163 C 476.359 898.359 450.298 887.737 459.805 858.032 C 470.574 824.385 504.708 802.412 524.541 774.794 C 533.747 761.975 535.231 742.051 546.348 730.399 C 555.12 721.538 577.625 719.74 586.124 713.178 C 607.753 696.476 608.908 681.902 637.317 672.376 C 654.558 666.595 666.666 637.956 671.768 620.606 C 658.868 615.36 605.659 600.852 599.056 594.594 C 596.353 592.033 595 588.599 594.481 584.964 C 593.386 577.286 594.57 568.422 594.593 560.615 L 594.452 502.723 L 530.684 502.712 C 518.962 502.689 496.256 504.456 486.894 498.108 C 479.351 487.589 485.472 426.404 483.311 410.678 C 482.814 407.064 485.387 399.206 488.657 396.47 C 493.031 395.143 498.386 393.988 502.972 393.976 C 564.284 393.809 625.628 393.825 686.937 394.066 C 691.281 394.083 697.995 395.292 701.852 397.119 C 709.709 410.729 702.348 470.605 704.961 489.331 C 707.507 507.578 674.813 502.682 663.305 502.734 C 642.128 502.894 620.951 502.864 599.775 502.643 C 599.877 517.125 598.475 580.329 601.6 589.853 C 608.411 595.415 663.144 610.551 675.775 615.368 C 679.988 616.974 682.534 612.969 696.075 619.124 C 709.387 614.692 729.235 608.694 739.298 599.074 C 747.426 591.303 752.001 582.459 762.797 576.617 C 778.557 568.09 799.271 567.251 814.817 560.706 C 830.875 553.945 842.305 543.422 860.47 538.46 C 872.447 535.188 890.45 534.963 900.296 531.38 C 922.322 523.363 917.79 512.909 944.14 507.32 C 919.351 493.728 891.042 476.064 867.718 460.152 C 859.672 454.663 862.808 392.155 862.793 379.814 C 842.71 379.84 757.77 382.116 745.255 377.691 C 742.506 376.719 739.433 375.264 738.249 372.44 C 734.501 363.5 735.464 300.495 736.53 287.762 C 736.849 283.952 737.445 278.223 739.561 275.057 C 741.383 272.33 744.121 272.374 747.104 271.905 C 758.229 270.157 770.107 270.881 781.358 270.836 L 837.4 270.727 L 908.554 270.77 C 921.276 270.789 934.167 270.625 946.879 271.143 C 956.115 271.519 959.549 278.526 959.861 287.008 C 960.482 303.889 959.846 321.02 959.936 337.928 C 959.59 366.035 967.044 381.935 929.969 379.977 C 926.966 379.818 921.07 379.961 917.761 379.952 L 868.618 379.734 C 868.767 390.361 866.716 451.941 870.496 454.87 C 881.661 463.522 951.969 509.503 964.173 506.867 C 1006.86 497.649 1025.82 495.568 1070.34 506.968 C 1091.96 494.092 1116.24 484.909 1137.12 471.302 C 1145.08 466.113 1142.42 440.858 1142.33 431.865 C 1142.23 413.832 1142.23 395.8 1142.33 377.767 C 1117.89 377.936 1089.4 378.89 1064.81 377.217 C 1058.76 375.884 1052.64 369.994 1052.56 363.882 C 1051.91 315.93 1051.62 267.14 1052.15 219.212 z" fill="rgb(252,235,225)" transform="translate(0,0)"></path>
<path d="M 1052.15 219.212 C 1056.72 212.532 1058.69 209.094 1067.37 208.573 C 1078.55 207.904 1089.73 208.209 1100.93 208.245 L 1153.42 208.179 L 1197.94 208.109 C 1208.92 208.099 1221.99 205.898 1230.62 212.961 C 1232.81 217.344 1234.45 225.046 1234.43 230.056 C 1234.17 275.038 1235.16 320.499 1233.64 365.398 C 1233.1 381.232 1201.04 378.037 1190.65 377.941 L 1148.17 377.797 C 1148.14 391.908 1149.79 459.928 1147.35 467.136 C 1146.02 471.075 1143.45 474.059 1140.15 476.53 C 1133.38 481.609 1124.29 485.241 1116.68 489.081 L 1077.06 509.338 C 1102.24 527.712 1105.96 526.675 1136.13 532.11 C 1141.54 533.084 1158.07 539.578 1164.63 541.415 C 1172.22 543.541 1181.64 546.227 1189.34 548.501 C 1199.53 551.511 1205.78 564.051 1215.68 568.755 C 1224.54 572.966 1232.84 573.832 1242.46 575.686 C 1258.86 578.847 1273.21 589.041 1286.38 598.819 C 1297.89 607.362 1304.23 622.313 1315.76 630.656 C 1321.25 634.629 1332.01 634.238 1339.17 635.653 C 1360.25 639.813 1366.64 650.089 1379.6 665.673 C 1384.32 671.355 1390.45 677.525 1395.75 682.863 L 1391.17 687.333 C 1385.87 693.52 1381.9 698.16 1377.79 705.235 L 1377.88 706.087 C 1376.69 708.376 1375.72 710.263 1374.67 712.652 C 1373.13 708.611 1366.51 697.436 1364.45 693.143 C 1354.97 670.061 1337.84 661.647 1314.69 656.179 C 1289.59 650.25 1287.16 628.647 1268.27 616.948 C 1258.59 610.959 1235.68 617.552 1225.48 608.202 C 1220.11 603.284 1216.56 597.735 1211.53 592.583 C 1204.23 587.186 1194.87 586.979 1185.6 580.544 C 1170.51 570.075 1158.4 555.447 1140.98 549.183 C 1129.33 544.993 1112.88 546.63 1101.54 542.108 C 1091.23 537.995 1082.15 527.436 1070.57 525.843 C 1057.82 524.091 1045.47 529.338 1033.08 529.963 C 1031.12 527.358 1028.99 524.797 1025.5 524.195 C 1011.26 521.735 997.339 533.441 982.952 535.926 C 974.46 537.393 961.26 536.256 954.45 538.806 C 941.744 543.564 932.113 558.34 918.668 563.874 C 908.219 568.174 898.325 569.032 887.19 570.877 C 866.709 575.1 855.492 582.887 837.116 595.045 C 817.931 607.739 743.188 655.3 764.297 683.878 C 790.51 705.344 835.569 681.132 864.243 677.818 C 877.466 676.289 928.698 672.908 934.909 681.293 L 934.23 682.966 C 928.061 686.125 914.077 681.933 906.787 681.764 C 888.913 681.351 870.088 682.05 852.597 686.019 C 829.912 691.692 810.214 699.292 786.369 698.265 C 770.201 697.569 751.27 688.749 755.19 669.262 C 761.724 636.783 799.128 614.43 824.075 596.492 C 838.053 586.442 852.797 576.042 868.772 569.614 C 884.201 563.456 901.842 565.021 916.77 558.388 C 926.544 554.045 934.787 544.299 943.48 537.919 C 953.772 528.137 976.234 533.143 986.804 528.78 C 1013.25 517.864 1013.58 516.608 1041.52 521.273 C 1047.8 517.68 1054.14 514.171 1060.52 510.745 C 1055.05 509.537 1049.56 508.484 1044.03 507.587 C 1014.06 503.003 994.531 507.235 965.566 512.499 C 958.113 513.854 949.331 512.442 941.368 514.323 C 926.005 517.95 918.179 532.452 903.398 537.212 C 890.529 541.416 878.204 539.78 864.944 543.433 C 846.315 548.566 831.092 561.37 813.57 567.818 C 798.609 573.324 781.391 573.718 766.785 581.892 C 754.03 589.03 748.482 600.478 736.706 608.947 C 719.784 621.331 698.572 626.343 677.896 622.844 C 670.986 645.532 661.286 667.439 638.821 677.779 C 627.645 682.922 620.878 685.769 613.342 695.67 C 600.552 710.882 591.978 719.79 572.433 725.369 C 567.231 726.854 558.495 729.801 554.17 732.9 C 541.575 741.922 539.004 765.549 529.406 778.605 C 508.292 807.413 473.61 829.528 464.925 866.068 C 460.096 886.386 484.163 891.619 499.2 891.019 C 520.858 890.154 544.335 885.649 565.102 879.427 C 590.079 871.943 614.232 860.335 638.472 850.763 C 645.985 847.778 652.529 843.862 659.945 841.002 C 663.315 839.702 666.386 839.352 669.919 839.829 L 670.985 841.239 C 668.438 845.804 658.929 848.907 654.079 850.968 C 604.422 872.113 555.572 894.47 500.718 897.163 C 476.359 898.359 450.298 887.737 459.805 858.032 C 470.574 824.385 504.708 802.412 524.541 774.794 C 533.747 761.975 535.231 742.051 546.348 730.399 C 555.12 721.538 577.625 719.74 586.124 713.178 C 607.753 696.476 608.908 681.902 637.317 672.376 C 654.558 666.595 666.666 637.956 671.768 620.606 C 658.868 615.36 605.659 600.852 599.056 594.594 C 596.353 592.033 595 588.599 594.481 584.964 C 593.386 577.286 594.57 568.422 594.593 560.615 L 594.452 502.723 L 530.684 502.712 C 518.962 502.689 496.256 504.456 486.894 498.108 C 479.351 487.589 485.472 426.404 483.311 410.678 C 482.814 407.064 485.387 399.206 488.657 396.47 C 493.031 395.143 498.386 393.988 502.972 393.976 C 564.284 393.809 625.628 393.825 686.937 394.066 C 691.281 394.083 697.995 395.292 701.852 397.119 C 709.709 410.729 702.348 470.605 704.961 489.331 C 707.507 507.578 674.813 502.682 663.305 502.734 C 642.128 502.894 620.951 502.864 599.775 502.643 C 599.877 517.125 598.475 580.329 601.6 589.853 C 608.411 595.415 663.144 610.551 675.775 615.368 C 679.988 616.974 682.534 612.969 696.075 619.124 C 709.387 614.692 729.235 608.694 739.298 599.074 C 747.426 591.303 752.001 582.459 762.797 576.617 C 778.557 568.09 799.271 567.251 814.817 560.706 C 830.875 553.945 842.305 543.422 860.47 538.46 C 872.447 535.188 890.45 534.963 900.296 531.38 C 922.322 523.363 917.79 512.909 944.14 507.32 C 919.351 493.728 891.042 476.064 867.718 460.152 C 859.672 454.663 862.808 392.155 862.793 379.814 C 842.71 379.84 757.77 382.116 745.255 377.691 C 742.506 376.719 739.433 375.264 738.249 372.44 C 734.501 363.5 735.464 300.495 736.53 287.762 C 736.849 283.952 737.445 278.223 739.561 275.057 C 741.383 272.33 744.121 272.374 747.104 271.905 C 758.229 270.157 770.107 270.881 781.358 270.836 L 837.4 270.727 L 908.554 270.77 C 921.276 270.789 934.167 270.625 946.879 271.143 C 956.115 271.519 959.549 278.526 959.861 287.008 C 960.482 303.889 959.846 321.02 959.936 337.928 C 959.59 366.035 967.044 381.935 929.969 379.977 C 926.966 379.818 921.07 379.961 917.761 379.952 L 868.618 379.734 C 868.767 390.361 866.716 451.941 870.496 454.87 C 881.661 463.522 951.969 509.503 964.173 506.867 C 1006.86 497.649 1025.82 495.568 1070.34 506.968 C 1091.96 494.092 1116.24 484.909 1137.12 471.302 C 1145.08 466.113 1142.42 440.858 1142.33 431.865 C 1142.23 413.832 1142.23 395.8 1142.33 377.767 C 1117.89 377.936 1089.4 378.89 1064.81 377.217 C 1058.76 375.884 1052.64 369.994 1052.56 363.882 C 1051.91 315.93 1051.62 267.14 1052.15 219.212 z" fill="rgb(231,89,42)" transform="translate(0,0)"></path>
<path d="M 1056.31 520.076 C 1080.55 504.774 1082.68 528.024 1103.87 532.036 C 1124.47 535.936 1142.77 539.03 1162.62 546.82 C 1169.62 549.569 1180.01 551.085 1187.04 554.415 C 1205.51 567.277 1211.94 578.92 1237 580.153 C 1270.01 584.522 1290.74 613.466 1311.41 635.436 C 1322.75 642.376 1339.67 638.386 1350.97 646.205 C 1366.81 657.17 1376.83 673.511 1391.17 687.333 C 1385.87 693.52 1381.9 698.16 1377.79 705.235 C 1373 700.297 1365.55 678.206 1356.06 668.957 C 1339.06 652.393 1320.45 655.307 1302.47 644.029 C 1292.36 637.685 1285.64 619.833 1273.56 612.853 C 1258.86 604.363 1242.89 612.66 1229.94 603.895 C 1226.28 601.413 1220.24 592.606 1216.3 588.562 C 1209.62 581.716 1196.93 580.751 1190.57 576.33 C 1176.68 566.682 1167.73 556.288 1152.43 547.775 C 1139.93 538.55 1119.26 541.932 1107.17 537.184 C 1082.78 527.607 1085.09 519.238 1056.31 520.076 z" fill="rgb(252,235,225)" transform="translate(0,0)"></path>
<path d="M 1135.74 237.35 C 1168.41 232.13 1199.11 254.4 1204.3 287.073 C 1209.49 319.746 1187.18 350.43 1154.51 355.582 C 1121.88 360.727 1091.25 338.464 1086.07 305.84 C 1080.89 273.215 1103.12 242.562 1135.74 237.35 z" fill="rgb(252,235,225)" transform="translate(0,0)"></path>
<path d="M 1135.7 244.321 C 1154.51 240.872 1173.72 247.808 1185.98 262.477 C 1198.25 277.146 1201.68 297.279 1194.95 315.179 C 1188.23 333.078 1172.39 345.976 1153.5 348.941 C 1124.81 353.444 1097.83 334.048 1092.96 305.417 C 1088.09 276.787 1107.14 249.559 1135.7 244.321 z" fill="rgb(231,89,42)" transform="translate(0,0)"></path>
<path d="M 1139.16 263.265 C 1157.43 260.091 1174.84 272.243 1178.16 290.485 C 1181.48 308.727 1169.47 326.234 1151.25 329.702 C 1132.83 333.21 1115.08 321.031 1111.72 302.58 C 1108.36 284.129 1120.68 266.475 1139.16 263.265 z" fill="rgb(252,235,225)" transform="translate(0,0)"></path>
<path d="M 1139.88 270.241 C 1154.32 267.432 1168.32 276.801 1171.24 291.221 C 1174.15 305.642 1164.88 319.712 1150.49 322.732 C 1135.94 325.784 1121.69 316.4 1118.74 301.83 C 1115.8 287.259 1125.29 273.078 1139.88 270.241 z" fill="rgb(231,89,42)" transform="translate(0,0)"></path>
<path d="M 779.636 329.309 L 867.182 329.443 C 881.254 329.442 898.41 328.332 911.991 329.812 C 925.464 331.28 928.324 346.656 914.517 354.591 C 896.761 355.685 785.494 356.73 777.27 353.857 C 774.65 352.941 772.599 350.88 771.394 348.41 C 769.851 345.248 769.225 340.525 770.545 337.187 C 772.135 333.166 776.004 331.142 779.636 329.309 z" fill="rgb(252,235,225)" transform="translate(0,0)"></path>
<path d="M 566.603 420.311 C 588.12 419.703 618.073 418.973 639.496 421.337 C 653.174 422.845 657.152 440.087 639.34 446.886 C 617.744 446.699 586.034 448.787 564.706 445.027 C 552.205 442.823 550.839 426.112 566.603 420.311 z" fill="rgb(252,235,225)" transform="translate(0,0)"></path>
<path d="M 588.18 452.506 C 599.798 452.423 643.913 450.006 648.268 457.227 C 662.678 481.119 627.571 478.39 620.25 478.184 C 606.549 478.027 563.011 481.383 558.076 472.945 C 543.926 448.75 582.978 452.436 588.18 452.506 z" fill="rgb(252,235,225)" transform="translate(0,0)"></path>
<path d="M 818.694 296.209 C 825.243 295.997 846.541 295.059 851.511 296.924 C 863.657 301.481 861.797 316.061 850.47 321.853 C 841.337 321.96 815.378 324.877 810.962 316.022 C 806.203 306.476 810.093 300.853 818.694 296.209 z" fill="rgb(252,235,225)" transform="translate(0,0)"></path>
<path d="M 778.587 296.241 C 783.078 294.578 788.117 295.458 791.778 298.544 C 795.44 301.631 797.16 306.447 796.281 311.155 C 795.402 315.863 792.06 319.735 787.531 321.292 C 780.642 323.661 773.13 320.047 770.68 313.186 C 768.231 306.326 771.756 298.771 778.587 296.241 z" fill="rgb(252,235,225)" transform="translate(0,0)"></path>
<path d="M 528.205 422.426 C 532.152 421.242 536.43 422.271 539.407 425.119 C 542.384 427.968 543.601 432.197 542.592 436.192 C 541.584 440.186 538.506 443.331 534.534 444.426 C 528.488 446.091 522.227 442.582 520.493 436.555 C 518.759 430.527 522.198 424.227 528.205 422.426 z" fill="rgb(252,235,225)" transform="translate(0,0)"></path>
<path d="M 529.319 454.492 C 535.301 453.179 541.232 456.901 542.652 462.859 C 544.072 468.816 540.457 474.813 534.526 476.34 C 530.593 477.352 526.42 476.163 523.612 473.229 C 520.804 470.296 519.798 466.075 520.981 462.19 C 522.165 458.305 525.353 455.362 529.319 454.492 z" fill="rgb(252,235,225)" transform="translate(0,0)"></path>
<path d="M 1395.75 682.863 C 1422.57 662.148 1475.34 659.707 1502.14 681.919 C 1535.47 709.556 1535.8 749.805 1518.44 786.6 C 1510.45 782.846 1502.14 778.755 1493.94 775.573 C 1491.35 774.191 1486.07 772.467 1483.12 771.394 C 1474.51 768.394 1468.22 766.267 1459.26 764.096 C 1454.97 764.027 1449.52 763.438 1445.15 763.091 C 1440.42 762.585 1436.09 762.059 1431.32 761.663 C 1428.73 761.204 1427.53 761.155 1424.93 761.202 C 1407.02 759.366 1400.95 757.233 1384.79 751.115 C 1370.82 742.582 1370.09 726.717 1374.67 712.652 C 1375.72 710.263 1376.69 708.376 1377.88 706.087 L 1377.79 705.235 C 1381.9 698.16 1385.87 693.52 1391.17 687.333 L 1395.75 682.863 z" fill="rgb(129,47,16)" transform="translate(0,0)"></path>
<path d="M 1377.88 706.087 C 1393.07 696.375 1421.11 679.583 1439.89 681.01 L 1440.88 681.66 C 1439.54 687.918 1422.53 687.885 1416.87 689.88 C 1403.1 694.741 1387.15 703.64 1376.82 713.874 C 1374.89 721.773 1374.62 724.781 1374.11 732.974 C 1393.82 718.369 1412.4 709.731 1436.42 704.476 C 1440.23 703.641 1448.64 701.182 1452.05 703.102 C 1451.62 703.782 1451.19 704.461 1450.76 705.141 C 1436.72 709.874 1422.46 711.145 1408.88 717.47 C 1394.19 724.318 1389.45 727.198 1377.43 736.662 C 1380.53 740.702 1381.67 742.154 1385.48 745.702 C 1410.37 735.277 1433.38 726.74 1460.94 730.041 C 1467.35 730.809 1473.48 730.613 1478.57 734.865 L 1478.82 736.269 C 1468.83 739.468 1444.08 724.858 1435.37 743.257 C 1429.94 754.738 1453.45 759.573 1459.26 764.096 C 1454.97 764.027 1449.52 763.438 1445.15 763.091 C 1440.42 762.585 1436.09 762.059 1431.32 761.663 C 1428.73 761.204 1427.53 761.155 1424.93 761.202 C 1407.02 759.366 1400.95 757.233 1384.79 751.115 C 1370.82 742.582 1370.09 726.717 1374.67 712.652 C 1375.72 710.263 1376.69 708.376 1377.88 706.087 z" fill="rgb(27,23,20)" transform="translate(0,0)"></path>
<path d="M 1435.94 734.044 C 1424.97 750.255 1429.44 753.714 1445.15 763.091 C 1440.42 762.585 1436.09 762.059 1431.32 761.663 C 1428.73 761.204 1427.53 761.155 1424.93 761.202 C 1407.02 759.366 1400.95 757.233 1384.79 751.115 C 1405.35 741.93 1413.77 738.445 1435.94 734.044 z" fill="rgb(129,47,16)" transform="translate(0,0)"></path>
<path d="M 613.335 698.954 C 626.725 689.974 642.216 680.424 655.424 671.413 C 662.72 666.436 684.193 629.599 696.254 629.515 L 698.691 631.128 L 698.691 632.735 C 692.724 638.295 686.239 643.456 680.82 649.441 C 675.821 654.963 667.002 670.387 661.676 674.352 C 648.747 683.975 631.184 693.246 618.386 703.572 C 608.717 712.454 601.501 724.693 592.676 734.445 C 573.761 755.345 536.796 778.499 534.312 809.143 C 532.021 837.395 574.374 840.588 593.346 840.172 C 640.025 839.147 679.672 819.169 722.439 803.292 C 738.666 797.379 758.536 793.82 775.394 788.609 C 790.123 784.057 805.658 776.304 820.279 771.901 C 864.181 758.677 910.727 749.484 956.536 746.937 C 983.822 745.42 1009.29 749.807 1036.13 750.474 C 1050.22 750.825 1067.66 748.494 1082.24 748.173 C 1100.45 747.772 1116.94 748.859 1135.12 751.241 C 1165.44 755.215 1195.76 761.521 1225.02 770.777 C 1240.35 775.624 1253.38 784.782 1267.63 790.49 C 1279.82 795.376 1295.23 800.671 1308.79 805.41 C 1350.67 820.038 1448.85 856.808 1486.88 822.242 C 1492.34 817.273 1494.97 805.643 1494.05 798.025 C 1492.77 787.421 1489.46 780.021 1483.12 771.394 C 1486.07 772.467 1491.35 774.191 1493.94 775.573 C 1496.55 781.641 1499.33 787.577 1500.39 794.143 C 1502.06 804.482 1500.61 815.158 1494.12 823.702 C 1457.59 871.813 1308.42 813.635 1263.92 795.201 C 1251.05 789.87 1239.13 782.552 1225.99 777.788 C 1202.12 769.134 1177.25 763.713 1152.23 759.597 C 1131.08 756.119 1109.23 753.672 1087.77 754.04 C 1070.8 754.331 1053.86 756.293 1036.88 756.348 C 1011.94 756.429 987.31 752.055 962.228 752.823 C 915.169 754.264 866.883 763.309 822.119 777.741 C 807.948 782.309 794.437 788.737 780.266 793.266 C 765.247 798.065 749.681 801.116 734.622 805.868 C 695.373 818.252 658.738 837.824 617.642 844.116 C 594.716 847.626 560.564 849.392 540.892 834.395 C 533.861 829.035 528.716 822.179 527.826 813.18 C 524.649 781.055 566.214 753.769 585.614 733.096 C 595.541 722.516 603.918 710.077 613.335 698.954 z" fill="rgb(231,89,42)" transform="translate(0,0)"></path>
<path d="M 1431.32 761.663 C 1431.26 763.681 1430.93 765.683 1430.36 767.62 C 1422.74 793.802 1372.25 794.337 1351.14 789.932 C 1305.17 780.338 1258.9 760.66 1213.62 747.487 C 1189.5 740.469 1165.63 729.495 1141.26 724.479 C 1112.95 718.655 1080.98 737.783 1051.96 734.282 C 1050.38 734.071 1050.54 733.567 1049.79 732.091 L 1050.99 730.484 C 1055.88 728.548 1072.38 727.52 1079.65 726.174 C 1094.39 723.446 1117.8 716.667 1132.07 717.931 C 1160.06 720.866 1187.81 731.865 1214.3 741.293 C 1234.68 749.408 1254.68 753.06 1275.44 760.336 C 1318.69 775.492 1370.39 799.9 1415.28 777.041 C 1421.13 774.06 1424 767.46 1424.93 761.202 C 1427.53 761.155 1428.73 761.204 1431.32 761.663 z" fill="rgb(231,89,42)" transform="translate(0,0)"></path>
<path d="M 1025.64 549.374 C 1056.82 546.656 1062.4 556.404 1082.55 576.44 C 1097.15 589.53 1122.54 600.445 1127.33 621.138 C 1132.29 642.552 1101.58 641.66 1091.67 648.273 C 1064.14 666.635 1049.97 682.525 1018.5 657.154 C 986.64 629.617 963.123 643.541 925.006 639.074 C 908.768 637.17 892.971 627.899 907.146 610.543 C 919.83 595.791 940.172 589.801 956.634 580.46 C 981.611 566.287 996.168 552.544 1025.64 549.374 z" fill="rgb(231,89,42)" transform="translate(0,0)"></path>
<path d="M 1021.35 555.306 C 1029.51 554.405 1046.45 553.991 1053.7 558.545 C 1065.47 567.075 1068.38 570.555 1079.94 581.379 C 1088.93 589.794 1128.6 613.437 1120.5 629.842 C 1114.31 636.723 1099.22 637.78 1091.67 641.904 C 1063.02 657.536 1052.83 678.269 1021.58 651.133 C 994.868 627.814 971.239 635.171 938.983 633.901 C 929.498 633.528 912.725 633.076 908.269 623.208 C 907.366 609.989 930.018 600.58 939.904 595.97 C 962.721 585.329 983.569 570.482 1005.92 558.996 C 1009.33 557.242 1017.4 555.991 1021.35 555.306 z" fill="rgb(252,235,225)" transform="translate(0,0)"></path>
<path d="M 1008.22 575.257 C 1026.85 574.461 1045.1 580.727 1059.32 592.802 C 1081.89 611.783 1071.8 627.438 1043.64 626.223 C 1030.07 624.154 1004.21 620.518 992.838 614.336 C 967.181 600.388 988.593 579.889 1008.22 575.257 z" fill="rgb(231,89,42)" transform="translate(0,0)"></path>
<path d="M 1009.69 581.152 L 1012.51 580.992 C 1026.79 580.315 1064.8 595.741 1065.15 610.957 C 1065.22 613.051 1064.36 615.067 1062.8 616.462 C 1057.98 620.819 1050.58 620.121 1044.53 619.958 C 1033.08 618.26 1003.6 614.508 994.484 609.068 C 975.386 597.672 998.25 584.073 1009.69 581.152 z" fill="rgb(252,235,225)" transform="translate(0,0)"></path>
<path d="M 1049.51 530.157 C 1069.31 527.439 1076.49 535.388 1089.94 547.04 C 1093.96 550.52 1111.28 554.864 1117.26 556.765 C 1136.26 562.8 1156.3 569.117 1174.03 578.351 C 1188.4 588.142 1194.41 606.792 1210.35 615.057 C 1217.03 617.882 1228.04 622.546 1234.78 624.198 C 1254.79 629.106 1283.47 664.41 1271.24 685.011 C 1250.31 720.294 1180.62 680.424 1151.28 681.35 C 1129.18 682.047 1117.46 692.636 1098.36 700.384 C 1091.63 703.451 1078.85 703.454 1072.68 705.851 C 1035.96 720.12 1014.99 708.065 978.892 700.646 C 917.859 688.103 855.376 707.499 798.964 729.989 C 770.425 741.366 724.622 748.827 695.287 736.219 C 668.187 723.959 685.413 686.982 700.275 672.268 C 706.819 665.788 744.312 626.618 752.419 631.266 C 752.488 631.995 752.558 632.723 752.627 633.451 C 730.693 654.431 693.318 675.929 687.437 707.981 C 682.715 733.714 710.906 736.387 728.507 736.87 C 769.146 737.986 801.646 721.719 838.563 709.26 C 854.869 703.726 871.492 699.178 888.344 695.64 C 916.551 689.879 957.193 689.608 985.433 695.792 C 1002.59 699.549 1021.04 706.764 1039.19 706.668 C 1049.63 706.613 1061.95 701.709 1072.19 699.491 C 1077.95 698.241 1092.72 696.733 1097.47 694.508 C 1114.25 686.644 1132.85 674.319 1152.63 675.151 C 1179.85 676.846 1205.22 690.708 1232.49 693.088 C 1247.5 694.398 1267.21 693.201 1267.46 673.519 C 1267.62 660.728 1260.46 651.85 1252.17 643.086 C 1232.78 625.677 1218.77 628.284 1198.67 614.712 C 1188.71 607.983 1179.85 588.055 1169.98 583.037 C 1154.85 575.345 1135.88 569.762 1119.78 563.908 C 1114.61 561.977 1097.2 558.835 1093.46 555.857 C 1064.94 533.128 1063.11 533.967 1027.56 540.164 C 1004.47 544.188 974.946 546.639 952.224 557.48 C 941.562 562.566 932.152 574.109 920.892 578.897 C 902.054 586.502 851.794 607.622 849.272 630.424 C 852.277 637.552 859.091 637.363 865.967 638.479 C 888.33 641.573 902.851 646.078 924.953 652.942 C 963.575 664.937 1009.69 697.285 1051.47 690.376 C 1060.62 688.864 1067.96 672.48 1077.69 669.759 C 1085.62 667.541 1092.01 668.871 1099.69 666.724 C 1113.15 661.994 1123.4 652.095 1137.51 648.889 C 1165.08 642.63 1207.85 649.774 1167.93 611.202 C 1157.63 601.246 1146.17 590.458 1133.61 583.112 C 1123.03 576.394 1083.78 565.535 1080.08 556.759 L 1081.45 555.722 C 1089.11 555.613 1136.04 576.201 1143.14 581.742 C 1157.39 593.438 1186.99 615.567 1190.76 633.992 C 1195.43 656.785 1137.47 647.88 1124.18 660.696 C 1114.64 669.894 1091.6 673.674 1078.98 675.103 C 1071.55 680.323 1062.38 693.308 1053.74 695.79 C 1016.06 706.601 951.914 667.035 914.365 655.696 C 904.525 652.756 894.556 650.267 884.489 648.236 C 872.979 646.011 831.452 643.914 845.009 621.538 C 861.694 594.001 897.629 583.747 924.518 569.859 C 938.299 559.545 943.613 554.011 960.032 547.706 C 988.049 536.945 1022.32 537.916 1049.51 530.157 z" fill="rgb(231,89,42)" transform="translate(0,0)"></path>
<path d="M 998.515 511.242 C 1003.7 510.704 1007.39 509.421 1011.37 513.317 C 1010.63 514.67 1010.2 515.785 1007.82 516.096 C 996.903 517.522 982.234 521.829 971.915 522.952 C 962.901 523.934 955.375 521.241 945.529 523.678 C 927.19 528.216 925.086 546.469 910.592 553.32 C 899.993 558.329 881.27 554.841 869.976 558.442 C 858.37 562.141 845.625 573.19 834.122 577.143 C 818.995 582.341 805.478 583.734 790.157 589.448 C 764.91 598.865 767.167 612.271 749.54 626.181 C 743.795 630.714 724.678 629.734 714.922 634.759 C 696.256 644.059 691.12 669.752 677.413 683.234 C 654.109 706.152 620.938 718.423 609.417 752.194 C 602.575 772.253 611.83 780.897 630.851 784.485 C 647.898 787.204 668.652 787.287 685.643 783.502 C 729.943 773.632 772.122 755.034 816.375 743.548 C 857.329 732.918 896.887 717.06 939.474 713.479 C 967.485 711.124 991.763 718.744 1017.71 726.566 C 1019.01 727.229 1019.65 728.113 1020.76 729.207 L 1019.79 730.957 C 1014.4 732.713 1003.57 728.675 998.28 726.963 C 966.789 716.744 936.952 717.003 905.033 725.193 C 858.401 737.158 811.798 750.291 765.915 764.951 C 740.212 773.849 713.262 784.995 686.389 789.469 C 655.28 794.648 583.89 799.749 605.156 746.542 C 621.174 704.984 668.438 696.536 687.003 657.468 C 700.76 628.516 717.011 626.019 745.462 622.557 C 756.123 613.341 760.636 601.506 771.834 592.742 C 789.482 578.93 810.702 580.126 830.433 572.047 C 842.744 567.007 855.02 556.534 867.989 553.049 C 879.619 549.925 895.35 552.713 906.753 548.572 C 917.275 544.751 922.832 528.298 932.927 522.527 C 944.836 515.719 961.001 518.181 973.968 516.158 C 982.172 514.879 990.527 512.903 998.515 511.242 z" fill="rgb(231,89,42)" transform="translate(0,0)"></path>
<path d="M 1298.37 654.546 C 1302.34 654.764 1303.62 656.248 1306.65 658.821 C 1330.61 678.772 1373.1 730.016 1319.28 744.683 C 1275.66 756.569 1234.38 726.985 1194.99 715.262 C 1172.53 708.626 1149.16 705.583 1125.75 706.247 C 1123.99 706.383 1124.59 706.322 1122.76 705.538 L 1122.27 703.858 L 1123.55 701.861 C 1134.42 696.402 1182.77 704.852 1195.07 708.718 C 1229.83 719.641 1265.42 742.972 1303.05 741.145 C 1357.68 738.492 1340.48 698.667 1312.86 673.594 C 1307.73 668.747 1298.93 661.752 1298.37 654.546 z" fill="rgb(231,89,42)" transform="translate(0,0)"></path>
<path d="M 876.355 825.76 C 902.026 822.543 930.815 821.116 956.665 819.973 C 1026.69 816.471 1096.88 818.277 1166.64 825.377 C 1173.02 826.002 1203.82 829.009 1207.75 830.434 L 1206.74 831.653 C 1217.57 841.259 1226.73 849.156 1236.34 860.034 C 1274.79 904.144 1297.83 959.579 1301.96 1017.95 C 1302.46 1025.89 1300.03 1058.94 1301.07 1062.63 C 1297.96 1065.83 1295.35 1067.92 1293.75 1072.03 L 1294.46 1073.97 C 1296.9 1074.79 1296.17 1074.79 1298.63 1074.81 C 1289.55 1141.1 1247.18 1205.14 1194.23 1245.26 C 1139.41 1286.21 1070.64 1303.86 1002.87 1294.36 C 933.623 1284.66 871.125 1247.67 829.294 1191.64 C 807.53 1162.83 783.437 1112.19 779.531 1076.19 C 782.426 1075.68 782.81 1075.19 783.778 1072.98 C 782.695 1069.57 779.346 1066.48 776.844 1063.73 C 777.867 1060.95 776.051 1032.43 776.178 1027.16 C 778.12 946.663 816.173 876.716 876.355 825.76 z" fill="rgb(231,89,42)" transform="translate(0,0)"></path>
<path d="M 1030.97 902.295 C 1105.93 896.621 1171.29 952.796 1176.96 1027.76 C 1182.62 1102.72 1126.43 1168.08 1051.47 1173.73 C 976.521 1179.38 911.183 1123.2 905.523 1048.26 C 899.863 973.314 956.023 907.967 1030.97 902.295 z" fill="rgb(27,23,20)" transform="translate(0,0)"></path>
<path d="M 782.239 842.62 L 781.245 843.123 C 763.087 852.114 732.45 862.457 711.741 871.673 C 655.913 896.339 601.758 924.631 549.622 956.366 C 484.844 996.221 427.107 1048.42 360.63 1086.03 C 338.308 1098.66 309.411 1112.83 294.981 1081.11 C 284.982 1059.14 293.686 1031.12 317.649 1022.93 C 350.461 1011.72 385.762 1024.91 417.822 1007.66 C 449.382 991.933 474.273 973.875 502.867 954.374 C 527.249 937.833 552.296 922.295 577.945 907.799 C 833.36 763.995 1046.3 717.941 1322.57 840.295 C 1366.71 859.845 1413.26 882.366 1455.2 906.785 C 1481.15 921.866 1506.69 937.645 1531.79 954.105 C 1572.03 980.463 1607.24 1010.33 1655.19 1019.63 L 1650.85 1068.43 C 1624.33 1047.94 1596.92 1026.35 1569.65 1007.06 C 1509.47 964.569 1446.19 926.636 1380.35 893.577 C 1349.19 877.796 1317.25 863.354 1284.96 850.087 C 1280.04 848.065 1274.4 845.951 1269.74 843.577 C 1248.49 837.727 1229.41 834.349 1207.75 830.434 C 1203.82 829.009 1173.02 826.002 1166.64 825.377 C 1096.88 818.277 1026.69 816.471 956.665 819.973 C 930.815 821.116 902.026 822.543 876.355 825.76 C 849.584 828.576 807.413 835.279 782.239 842.62 z" fill="rgb(231,89,42)" transform="translate(0,0)"></path>
<path d="M 782.239 842.62 C 773.009 844.688 739.295 855.46 733.388 854.954 C 742.581 848.652 780.6 838.597 793.028 834.478 C 907.788 796.44 1026.93 782.485 1146.92 804.824 C 1167.15 808.712 1187.23 813.338 1207.13 818.693 C 1222.31 822.787 1313.07 850.796 1321.14 857.316 L 1319.54 857.484 L 1319.88 856.299 C 1315.8 858.508 1279.14 844.513 1269.74 843.577 C 1248.49 837.727 1229.41 834.349 1207.75 830.434 C 1203.82 829.009 1173.02 826.002 1166.64 825.377 C 1096.88 818.277 1026.69 816.471 956.665 819.973 C 930.815 821.116 902.026 822.543 876.355 825.76 C 849.584 828.576 807.413 835.279 782.239 842.62 z" fill="rgb(27,23,20)" transform="translate(0,0)"></path>
<path d="M 703.945 1564.65 C 736.684 1559.64 799.628 1545.99 791.788 1500.56 C 787.756 1477.19 771.486 1455.9 752.392 1442.48 C 727.099 1424.9 695.78 1418.26 665.529 1424.08 C 651.7 1426.59 638.428 1431.54 626.34 1438.71 C 617.714 1443.75 604.014 1457.22 600.159 1457.16 C 599.77 1455.37 599.419 1454.23 600.974 1452.58 C 620.961 1431.36 649.668 1419.62 678.472 1417.52 C 732.178 1413.6 787.418 1447.01 796.853 1502.34 C 951.257 1540.71 1083.2 1539.17 1238.5 1503.36 C 1252.87 1415.74 1373.7 1390.07 1433.86 1450.32 C 1435.27 1451.74 1435.91 1454.96 1436.14 1456.91 L 1435.68 1457.56 C 1432.46 1456.57 1419.5 1443.88 1414.43 1440.62 C 1356.55 1403.35 1268.42 1423.86 1245.7 1492.49 C 1242.34 1502.63 1241.82 1515.54 1247.02 1525.06 C 1261.63 1551.77 1315.6 1565.99 1343.28 1565.99 L 1345.69 1567.99 C 1250.02 1572.12 1109.58 1571.05 1021.11 1534.81 C 952.275 1564.11 851.639 1568.99 777.026 1570.1 C 754.84 1570.43 730.802 1568.98 708.487 1568.91 L 688.894 1567.93 L 688.13 1566.1 C 693.116 1565.82 698.906 1565.13 703.945 1564.65 z" fill="rgb(27,23,20)" transform="translate(0,0)"></path>
<path d="M 1681.94 825.528 C 1705.12 832.519 1729.18 842.067 1752.64 849.624 C 1746.78 874.723 1744.82 902.081 1739.97 927.527 C 1736.99 943.11 1737.88 957.36 1727.77 970.409 C 1718.95 977.738 1713.52 979.868 1701.54 979.159 C 1686.43 978.823 1666.87 967.881 1666.41 951.043 C 1666.03 937.021 1669.51 919.971 1671.43 905.736 L 1681.94 825.528 z" fill="rgb(27,23,20)" transform="translate(0,0)"></path>
<path d="M 1682.71 857.109 C 1702.8 863.109 1723.28 870.086 1743.25 876.622 C 1740.21 893.709 1738.26 911.161 1735.24 928.254 C 1732.62 943.055 1733.2 956.018 1723.41 968.197 C 1709.44 979.38 1686.59 975.678 1675.46 961.999 C 1666.9 951.484 1672.58 930.446 1674.36 917.43 L 1682.71 857.109 z" fill="rgb(252,235,225)" transform="translate(0,0)"></path>
<path d="M 1685.55 831.372 C 1704.82 837.483 1728.07 845.975 1746.97 853.099 C 1745.8 859.541 1745.06 865.731 1743.97 872.109 C 1725.18 865.309 1702.27 858.545 1683.04 852.368 C 1684.06 845.393 1684.9 838.392 1685.55 831.372 z" fill="rgb(252,235,225)" transform="translate(0,0)"></path>
<path d="M 1575.2 786.579 C 1686.93 744.012 1686.18 586.982 1697.4 580.015 C 1700.03 590.38 1682.32 742.276 1679.82 767.037 C 1655.32 775.087 1611.37 787.67 1585.39 788.113 C 1583.66 788.422 1571.2 790.072 1570.61 788.469 C 1571.65 787.224 1573.61 786.946 1575.2 786.579 z" fill="rgb(27,23,20)" transform="translate(0,0)"></path>
<path d="M 1585.39 788.113 C 1583.66 788.422 1571.2 790.072 1570.61 788.469 C 1571.65 787.224 1573.61 786.946 1575.2 786.579 C 1578.67 788.427 1581.35 787.752 1585.39 788.113 z" fill="rgb(43,37,32)" transform="translate(0,0)"></path>
<path d="M 1565.99 366.436 C 1568.3 366.653 1569.87 366.672 1572.18 366.663 C 1575.81 367.695 1580.12 369.543 1582.95 370.245 C 1584.18 371.237 1585.52 372.576 1586.68 373.674 C 1588.55 377.46 1591.51 380.628 1594.03 385.894 C 1593.25 387.003 1593.2 387.059 1592.61 388.228 L 1593.08 392.278 C 1592.98 395.935 1593.65 404.754 1594.62 408.374 C 1594.52 412.55 1593.99 422.286 1593.66 426.148 L 1594.39 426.954 L 1595.1 427.793 C 1598.98 428.733 1598.37 429.218 1600.56 432.668 C 1559.65 479.062 1503.9 379.85 1565.99 366.436 z" fill="rgb(255,255,255)" transform="translate(0,0)"></path>
<path d="M 1565.99 366.436 C 1568.3 366.653 1569.87 366.672 1572.18 366.663 C 1573.09 368.244 1574.8 369.428 1574.28 370.859 C 1574.4 370.779 1567.32 372.267 1565.76 372.84 C 1560.54 373.343 1555.85 376.454 1552.38 380.622 C 1535.57 400.819 1555.31 442.1 1582.51 437.166 C 1588.01 436.168 1592.25 432.725 1595.1 427.793 C 1598.98 428.733 1598.37 429.218 1600.56 432.668 C 1559.65 479.062 1503.9 379.85 1565.99 366.436 z" fill="rgb(231,89,42)" transform="translate(0,0)"></path>
<path d="M 1572.18 366.663 C 1575.81 367.695 1580.12 369.543 1582.95 370.245 C 1584.18 371.237 1585.52 372.576 1586.68 373.674 C 1588.55 377.46 1591.51 380.628 1594.03 385.894 C 1593.25 387.003 1593.2 387.059 1592.61 388.228 L 1593.08 392.278 C 1592.98 395.935 1593.65 404.754 1594.62 408.374 C 1594.52 412.55 1593.99 422.286 1593.66 426.148 C 1593.13 423.652 1593.18 416.155 1592.82 415.493 C 1584.96 401.174 1579.94 384.844 1569.3 372.504 L 1565.76 372.84 C 1567.32 372.267 1574.4 370.779 1574.28 370.859 C 1574.8 369.428 1573.09 368.244 1572.18 366.663 z" fill="rgb(129,47,16)" transform="translate(0,0)"></path>
<path d="M 1572.18 366.663 C 1575.81 367.695 1580.12 369.543 1582.95 370.245 C 1584.18 371.237 1585.52 372.576 1586.68 373.674 C 1588.55 377.46 1591.51 380.628 1594.03 385.894 C 1593.25 387.003 1593.2 387.059 1592.61 388.228 C 1590.7 382.365 1589.35 380.367 1586.13 375.093 C 1579.38 373.388 1576.37 371.719 1569.3 372.504 L 1565.76 372.84 C 1567.32 372.267 1574.4 370.779 1574.28 370.859 C 1574.8 369.428 1573.09 368.244 1572.18 366.663 z" fill="rgb(201,72,30)" transform="translate(0,0)"></path>
<path d="M 1525.58 789.415 C 1526.64 789.52 1530.75 789.912 1531.31 790.588 C 1543.14 804.995 1563.42 828.677 1570.18 845.127 C 1573.42 852.613 1575.47 869.082 1570.62 875.945 C 1530.05 933.401 1387.47 855.118 1350.52 837.977 C 1347.7 836.81 1347.35 835.98 1347 833.46 L 1348.53 831.78 C 1351.52 831.212 1353.21 832.006 1355.94 833.27 C 1390.22 849.129 1422.05 866.745 1458.41 878.019 C 1485.1 886.665 1526.95 898.13 1553.19 884.282 C 1588.13 865.843 1550.56 824.657 1535.94 806.233 C 1531.74 800.942 1528.54 794.973 1525.58 789.415 z" fill="rgb(231,89,42)" transform="translate(0,0)"></path>
<path d="M 1097.47 1370.75 C 1098.78 1371.43 1099.82 1372.22 1101.04 1373.06 C 1103.7 1382.84 1077.23 1390.58 1070.01 1392.31 C 1042.21 1398.96 1015.1 1396.18 990.474 1381.22 L 986.501 1377.89 C 985.531 1374.44 985.306 1375.99 986.845 1373.07 C 992.856 1371.31 1009.77 1383.22 1021.46 1385.19 C 1050.21 1390.02 1073.25 1386.94 1097.47 1370.75 z" fill="rgb(231,89,42)" transform="translate(0,0)"></path>
<path d="M 1301.07 1062.63 C 1314.9 1050.67 1328.25 1042.86 1346.34 1039.23 C 1378.46 1032.77 1411.15 1043.14 1433.47 1067.1 C 1434.42 1068.11 1434.82 1069.25 1435.19 1070.55 L 1434.26 1073.31 C 1429.99 1074.16 1421.63 1064.06 1417.68 1060.61 C 1386.07 1032.95 1321.34 1039.11 1298.63 1074.81 C 1296.17 1074.79 1296.9 1074.79 1294.46 1073.97 L 1293.75 1072.03 C 1295.35 1067.92 1297.96 1065.83 1301.07 1062.63 z" fill="rgb(27,23,20)" transform="translate(0,0)"></path>
<path d="M 779.531 1076.19 C 778.303 1074.6 777.031 1073.05 775.716 1071.54 C 742.205 1032.46 681.595 1035.14 649.928 1070.03 C 647.995 1072.16 646.614 1072.65 643.959 1072.4 L 642.83 1070.76 L 643.32 1068.25 C 681.276 1028.16 736.009 1027.46 776.844 1063.73 C 779.346 1066.48 782.695 1069.57 783.778 1072.98 C 782.81 1075.19 782.426 1075.68 779.531 1076.19 z" fill="rgb(27,23,20)" transform="translate(0,0)"></path>
<path d="M 1467.8 1301.89 C 1475.65 1305.01 1505.34 1336.85 1502.48 1344.92 L 1501.99 1346.35 C 1494.46 1341.47 1482.57 1318.09 1472.77 1311.6 C 1467.85 1308.33 1464.69 1306.48 1467.8 1301.89 z" fill="rgb(27,23,20)" transform="translate(0,0)"></path>
<path d="M 556.151 1301.58 C 560.882 1303.58 559.392 1305.9 555.969 1308.59 C 542.509 1319.14 535.639 1332.11 526.053 1345.54 C 525.251 1345.24 521.778 1344.07 522.526 1342.51 C 530.059 1326.8 543.449 1313.08 556.151 1301.58 z" fill="rgb(27,23,20)" transform="translate(0,0)"></path>
<path d="M 1343.28 1565.99 C 1343.83 1565.98 1358.11 1565.49 1355.28 1567.51 C 1354.17 1568.3 1347.61 1568.05 1345.69 1567.99 L 1343.28 1565.99 z" fill="rgb(133,124,118)" transform="translate(0,0)"></path>
<path d="M 681.997 1568.15 C 671.774 1567.22 674.793 1565.9 682.842 1566.02 L 681.997 1568.15 z" fill="rgb(166,160,161)" transform="translate(0,0)"></path>
<path d="M 682.842 1566.02 C 684.76 1565.96 686.215 1565.98 688.13 1566.1 L 688.894 1567.93 C 686.594 1567.97 684.295 1568.04 681.997 1568.15 L 682.842 1566.02 z" fill="rgb(95,87,85)" transform="translate(0,0)"></path>
<metadata><recraft-signature>{"signed_by": "recraft", "signature_b64": "2smvBBcR2tUZaoGTxyYN1QyG4WQYqDSCdzlyTgTpGJeV9txghfi4FORxa0/JmrkuB598TKPd1PPU/SSqrkjeBQ==", "signing_algo": "Ed25519", "generation_timestamp": 1783393848, "identifier": "2b1a9761-c347-4fbf-b0d5-38dfb3afd3ae"}</recraft-signature></metadata></svg>