<svg xmlns="http://www.w3.org/2000/svg" height="1792" preserveAspectRatio="none" style="display: block;" version="1.1" viewBox="0 0 2432 1792" width="2432">
<path d="M 0 0 L 2432 0 L 2432 1792 L 0 1792 L 0 0 z" fill="rgb(255,255,255)" transform="translate(0,0)"></path>
<path d="M 1233.99 696.367 C 1266.91 688.819 1263.18 689.095 1283.65 664.902 C 1336.29 602.679 1442.92 601.106 1472.43 687.471 C 1478.19 716.026 1477.63 741.039 1461.14 766.134 C 1459.69 768.32 1458.17 770.459 1456.59 772.546 C 1486.17 787.111 1503.29 811.872 1498.67 845.639 C 1496.04 857.936 1493.86 863.75 1486.59 874.2 C 1554.23 839.42 1588.79 862.755 1567.52 937.848 C 1566.7 940.036 1560.97 958.659 1560.55 961.143 C 1523.36 1065.12 1434.68 1196.49 1336.81 1252.05 C 1350.56 1289.5 1374.02 1300.99 1399.25 1327.47 C 1419.88 1349.13 1425.59 1384.01 1412.52 1411.09 C 1406.55 1424.54 1395.63 1434.05 1386.61 1445.28 C 1369.5 1466.56 1361.64 1497.4 1371.27 1523.6 C 1386.46 1564.92 1433.56 1582.86 1473.66 1588.84 C 1476.73 1574.92 1478.66 1571.03 1489.55 1561.21 C 1487.17 1537.12 1544.65 1509.48 1564.18 1500.63 C 1584.1 1491.4 1608.02 1483.94 1629.01 1477.74 C 1639.15 1475.08 1645.56 1473.14 1656.07 1471.58 C 1657.42 1459.85 1658.04 1445.93 1658.72 1434.09 C 1702.98 1445.54 1761.32 1446.9 1806.2 1438.55 C 1806.04 1449.05 1805.73 1459.57 1806.22 1470.06 C 1811 1470.41 1814.75 1472.72 1814.81 1478.03 C 1815.15 1506 1814.89 1534.1 1814.51 1562.08 C 1814.48 1564.28 1813.93 1567.89 1813.33 1569.91 C 1818.24 1575.42 1821.09 1580.26 1822.52 1587.66 C 1824.32 1597.06 1822.17 1606.79 1816.56 1614.55 C 1801.04 1636.21 1771.06 1631.08 1747.18 1631.09 L 1663.59 1631.06 L 1563.98 1631.07 C 1546.02 1631.06 1527.08 1631.81 1509.3 1630.24 C 1488.05 1628.38 1476.6 1612.7 1473.38 1593.09 C 1431.95 1586.73 1384.49 1568.7 1368.07 1526.65 C 1357.4 1499.31 1364.76 1467.49 1381.93 1444.49 C 1391.48 1432.58 1403.01 1423.07 1409.1 1408.86 C 1431.77 1355.92 1393.85 1327.11 1358.97 1295.05 C 1348.31 1285.25 1338.8 1268.47 1333.24 1254.11 C 1321.35 1260.93 1310.16 1265.73 1297.58 1270.98 C 1299.69 1273.01 1301.25 1274.42 1302.45 1277.03 C 1303.45 1279.05 1304.45 1281.06 1305.45 1283.08 C 1310.43 1285.86 1316.93 1286.5 1322.48 1287.98 C 1349 1295.05 1360.86 1319.39 1361.04 1344.88 L 1360.95 1386.13 C 1361.01 1410.86 1364.03 1437.54 1344.85 1456.06 C 1326.86 1473.41 1307.58 1472.25 1284.8 1472 L 1284.77 1496.19 L 1284.8 1601.85 L 1286.54 1602.3 C 1293.72 1604.19 1302.66 1605.9 1306.5 1612.48 C 1304.32 1634 1171.07 1634.58 1155.34 1615.43 C 1153.36 1605.46 1170.95 1603.12 1178.06 1601.4 L 1178.08 1559.21 C 1177.27 1531.18 1177.84 1500.19 1177.75 1471.99 L 791.388 1472.24 C 792.109 1486.88 791.524 1502.63 791.432 1517.4 C 791.209 1545.6 791.148 1573.8 791.25 1601.99 C 798.191 1603.32 810.676 1606.18 813.47 1613.13 L 812.32 1615.81 C 792.54 1634.06 658.602 1633.87 659.873 1611.99 C 664.863 1605.07 676.882 1603.13 684.89 1601.36 C 685.348 1588.02 684.876 1571.95 684.843 1558.4 C 684.595 1529.63 684.634 1500.85 684.962 1472.08 C 650.6 1472.38 618.095 1464.92 613.089 1425.77 C 610.065 1402.11 611.484 1355.16 613.222 1330.97 C 615.062 1305.35 642.063 1287.79 666.479 1284.06 C 674.005 1256.27 769.655 1251.6 795.04 1250.68 C 760.677 1230.57 729.785 1209.93 696.423 1189.05 C 660.941 1227.65 625.69 1266.47 590.672 1305.49 C 577.508 1320.08 564.547 1334.98 551.321 1349.5 C 542.822 1358.82 539.627 1358.63 527.75 1358.81 C 515.911 1372.37 502.055 1386.29 489.539 1399.43 C 491.458 1402.73 493.877 1407.41 492.22 1411.05 C 486.166 1424.34 457.009 1464.16 446.216 1470.65 C 447.088 1476.46 447.804 1481.27 446.958 1487.22 C 445.624 1496.93 440.441 1505.7 432.575 1511.54 C 424.757 1517.18 414.971 1519.37 405.498 1517.6 C 398.883 1516.39 393.869 1514.06 388.704 1509.81 C 372.435 1496.41 356.468 1481.7 340.772 1467.64 L 257.373 1393.04 L 198.609 1340.46 C 191.072 1333.71 183.183 1325.94 175.522 1319.52 C 144.815 1293.79 167.739 1247.94 208.314 1257.46 L 214.424 1253.96 C 200.426 1238.15 137.09 1168.91 130.522 1153.99 C 127.081 1146.18 127.153 1136.14 130.234 1128.24 C 134.921 1116.23 144.414 1109.79 155.823 1105.07 C 159.318 1102.03 163.566 1102.65 168.084 1102.95 C 202.628 1105.26 254.425 1127.45 282.561 1148.59 C 296.661 1158.28 315.087 1172.4 326.995 1184.74 C 330.994 1189.05 336.073 1194.15 339.23 1198.94 C 347.8 1190.09 380.275 1167.67 391.635 1159.47 C 389.356 1155.75 386.537 1153.31 383.437 1150.22 C 392.874 1144.34 411.56 1129.46 421.035 1122.27 L 492.04 1068.47 L 575.638 1005.91 C 585.778 998.323 613.911 978.188 621.337 969.469 C 620.137 959.277 620.435 947.674 620.329 937.39 C 619.958 901.735 641.394 898.448 669.632 899.145 C 668.774 886.942 669.254 869.19 669.258 856.614 L 669.448 849.684 L 670.541 848.091 C 678.305 849.615 687.345 852.803 695.471 854.724 C 708.932 857.906 720.689 859.371 734.412 860.876 C 758.144 845.659 785.766 845.726 808.088 863.949 C 842.494 866.734 875.467 863.967 909.025 864.921 L 908.881 889.761 L 908.33 899.637 C 938.556 898.796 962.542 896.779 963.744 936.124 C 964.055 946.304 962.552 961.586 964.064 971.057 L 965.815 972.523 C 977.489 973.338 1006.11 987.988 1017.49 993.37 C 1024.05 990.185 1027.97 990.388 1035.01 989.018 C 1056.38 984.86 1077.59 980.512 1098.65 974.936 C 1101.41 970.585 1104.45 966.469 1107.5 962.321 C 1147.41 908.514 1206.89 872.575 1273.09 862.274 C 1275.89 849.012 1277.24 824.419 1279.97 808.449 C 1238.44 787.456 1232.69 757.243 1246.86 714.891 C 1242.47 707.861 1239 702.987 1233.99 696.367 z" fill="rgb(27,23,20)" transform="translate(0,0)"></path>
<path d="M 155.823 1105.07 C 159.318 1102.03 163.566 1102.65 168.084 1102.95 C 202.628 1105.26 254.425 1127.45 282.561 1148.59 C 296.661 1158.28 315.087 1172.4 326.995 1184.74 C 330.994 1189.05 336.073 1194.15 339.23 1198.94 L 341.161 1201.76 C 344.604 1210.72 341.309 1216.41 339.953 1225.38 C 335.509 1254.79 358.041 1274.79 385.972 1275.01 C 396.705 1275.09 404.059 1273.1 410.255 1283.44 L 410.331 1287.75 C 409.228 1297.25 384.479 1315.04 387.45 1318.51 C 387.996 1319.14 388.659 1319.67 389.268 1320.25 C 389.612 1320.57 389.945 1320.91 390.284 1321.24 L 393.488 1323.1 C 404.323 1335.59 400.581 1344.58 402.993 1359.48 C 406.45 1380.84 421.647 1396.45 443.606 1398.13 C 456.723 1399.29 473.227 1387.9 486.434 1397.34 L 489.539 1399.43 C 491.458 1402.73 493.877 1407.41 492.22 1411.05 C 486.166 1424.34 457.009 1464.16 446.216 1470.65 C 447.088 1476.46 447.804 1481.27 446.958 1487.22 C 445.624 1496.93 440.441 1505.7 432.575 1511.54 C 424.757 1517.18 414.971 1519.37 405.498 1517.6 C 398.883 1516.39 393.869 1514.06 388.704 1509.81 C 372.435 1496.41 356.468 1481.7 340.772 1467.64 L 257.373 1393.04 L 198.609 1340.46 C 191.072 1333.71 183.183 1325.94 175.522 1319.52 C 144.815 1293.79 167.739 1247.94 208.314 1257.46 L 214.424 1253.96 C 200.426 1238.15 137.09 1168.91 130.522 1153.99 C 127.081 1146.18 127.153 1136.14 130.234 1128.24 C 134.921 1116.23 144.414 1109.79 155.823 1105.07 z" fill="rgb(231,89,42)" transform="translate(0,0)"></path>
<path d="M 446.216 1470.65 C 447.088 1476.46 447.804 1481.27 446.958 1487.22 C 445.624 1496.93 440.441 1505.7 432.575 1511.54 C 424.757 1517.18 414.971 1519.37 405.498 1517.6 C 398.883 1516.39 393.869 1514.06 388.704 1509.81 C 372.435 1496.41 356.468 1481.7 340.772 1467.64 L 257.373 1393.04 L 198.609 1340.46 C 191.072 1333.71 183.183 1325.94 175.522 1319.52 C 144.815 1293.79 167.739 1247.94 208.314 1257.46 C 203.25 1280.75 222.149 1290.27 237.674 1304.22 C 255.258 1320.02 273.463 1335.91 291.576 1351.08 C 313.147 1331.1 320.865 1314.34 326.254 1285.87 C 341.268 1293.03 362.046 1302.59 375.907 1311.77 C 371.333 1345.75 358.393 1365.87 333.916 1389.38 C 354.066 1405.79 372.8 1423.86 392.433 1440.76 C 404.342 1451.02 423.349 1473.3 439.956 1471.56 C 442.052 1471.32 444.139 1471.02 446.216 1470.65 z" fill="rgb(27,23,20)" transform="translate(0,0)"></path>
<path d="M 155.823 1105.07 C 159.318 1102.03 163.566 1102.65 168.084 1102.95 C 202.628 1105.26 254.425 1127.45 282.561 1148.59 C 296.661 1158.28 315.087 1172.4 326.995 1184.74 C 319.119 1216.2 305.634 1230.02 282.411 1250.43 L 307.257 1278.11 C 282.599 1269.99 240.544 1254.47 214.424 1253.96 C 200.426 1238.15 137.09 1168.91 130.522 1153.99 C 127.081 1146.18 127.153 1136.14 130.234 1128.24 C 134.921 1116.23 144.414 1109.79 155.823 1105.07 z" fill="rgb(27,23,20)" transform="translate(0,0)"></path>
<path d="M 155.823 1105.07 C 159.318 1102.03 163.566 1102.65 168.084 1102.95 C 202.628 1105.26 254.425 1127.45 282.561 1148.59 C 274.095 1174.83 265.631 1188.69 244.281 1206.3 C 224.213 1185.2 205.186 1161.52 186.096 1139.53 C 179.549 1131.99 162.404 1110.66 155.823 1105.07 z" fill="rgb(231,89,42)" transform="translate(0,0)"></path>
<path d="M 669.448 849.684 L 670.541 848.091 C 678.305 849.615 687.345 852.803 695.471 854.724 C 708.932 857.906 720.689 859.371 734.412 860.876 C 758.144 845.659 785.766 845.726 808.088 863.949 C 842.494 866.734 875.467 863.967 909.025 864.921 L 908.881 889.761 L 908.33 899.637 C 938.556 898.796 962.542 896.779 963.744 936.124 C 964.055 946.304 962.552 961.586 964.064 971.057 L 965.815 972.523 C 954.182 973.855 948.015 976.024 940.241 985.847 C 939.285 987.062 938.357 988.298 937.46 989.556 C 901.13 977.029 867.895 971.41 829.437 978.931 C 823.486 979.306 810.531 987.292 805.393 987.313 C 783.106 987.403 755.264 989.523 733.537 987.804 C 708.305 985.808 657.697 991.594 634.874 985.017 C 627.05 979.472 625.472 978.067 621.337 969.469 C 620.137 959.277 620.435 947.674 620.329 937.39 C 619.958 901.735 641.394 898.448 669.632 899.145 C 668.774 886.942 669.254 869.19 669.258 856.614 L 669.448 849.684 z" fill="rgb(231,89,42)" transform="translate(0,0)"></path>
<path d="M 669.448 849.684 L 670.541 848.091 C 678.305 849.615 687.345 852.803 695.471 854.724 C 708.932 857.906 720.689 859.371 734.412 860.876 C 758.144 845.659 785.766 845.726 808.088 863.949 C 842.494 866.734 875.467 863.967 909.025 864.921 L 908.881 889.761 C 880.456 886.764 845.794 879.824 817.807 873.9 C 823.209 882.311 827.111 890.615 828.721 900.554 C 831.176 916.051 827.312 931.885 817.993 944.508 C 772.046 1007.4 668.144 940.747 725.083 867.918 C 706.357 864.756 687.739 860.985 669.258 856.614 L 669.448 849.684 z" fill="rgb(27,23,20)" transform="translate(0,0)"></path>
<path d="M 760.725 854.205 C 791.305 849.62 819.821 870.664 824.454 901.237 C 829.087 931.809 808.087 960.358 777.522 965.039 C 746.89 969.73 718.264 948.673 713.62 918.033 C 708.977 887.394 730.078 858.8 760.725 854.205 z" fill="rgb(231,89,42)" transform="translate(0,0)"></path>
<path d="M 763.471 885.416 C 776.999 882.324 790.468 890.802 793.53 904.338 C 796.592 917.873 788.083 931.323 774.541 934.355 C 761.041 937.377 747.643 928.901 744.591 915.408 C 741.539 901.915 749.985 888.498 763.471 885.416 z" fill="rgb(27,23,20)" transform="translate(0,0)"></path>
<path d="M 1241.06 698.811 C 1271.18 691.464 1270.98 686.048 1291.21 663.067 C 1300.81 652.159 1318.5 640.271 1331.8 634.146 C 1334.31 667.475 1340.22 702.387 1353.12 733.36 C 1365.51 721.786 1382.04 716.943 1395.09 730.691 C 1400.45 736.248 1403.26 743.783 1402.85 751.494 C 1401.22 780.566 1373.79 780.546 1353.28 770.852 C 1359.42 778.899 1367.58 788.306 1376.09 793.956 C 1359.38 821.376 1356.86 842.182 1372.71 870.899 L 1371.73 887.157 C 1370.19 887.639 1368.65 888.08 1367.09 888.479 C 1341.89 894.933 1314.75 897.602 1291.41 883.577 C 1286.2 880.447 1277.91 872.172 1276.48 866.181 C 1277.67 858.029 1279.03 849.596 1279.95 841.432 C 1295.13 831.464 1315.9 818.592 1330.02 807.692 C 1264.63 815.244 1228.79 779.968 1251.02 715.22 C 1248.18 708.643 1245.16 704.712 1241.06 698.811 z" fill="rgb(247,241,234)" transform="translate(0,0)"></path>
<path d="M 1379.37 739.162 C 1382.03 739.034 1384.41 738.882 1387.04 739.17 C 1388.23 739.3 1390.32 740.942 1389.46 741.597 C 1386.51 743.846 1380.88 743.322 1375.98 745.083 L 1372.3 746.433 C 1375.7 749.917 1381.21 754.437 1382.75 758.99 C 1383.65 761.676 1381.28 762.361 1379.1 760.358 C 1375.27 754.675 1374.4 753.89 1369.62 748.893 L 1369.32 749.26 C 1367.42 751.524 1364.34 757.449 1361.59 756.959 C 1357.12 750.123 1374.75 741.043 1379.37 739.162 z" fill="rgb(27,23,20)" transform="translate(0,0)"></path>
<path d="M 1294.67 677.49 C 1296.57 678.513 1297.77 679.263 1296.54 681.643 C 1291.47 691.459 1297.31 702.411 1308.99 698.517 C 1313.12 697.14 1316.71 686.672 1319.14 693.869 C 1311.33 705.106 1299.48 708.572 1291.39 693.799 C 1288.91 689.275 1292.4 681.81 1294.67 677.49 z" fill="rgb(27,23,20)" transform="translate(0,0)"></path>
<path d="M 1263.33 731.897 C 1270.88 732.747 1276.88 741.624 1287.27 735.773 C 1290.59 733.907 1291.73 733.549 1293.64 736.7 C 1284.88 742.433 1264.92 743.735 1263.33 731.897 z" fill="rgb(27,23,20)" transform="translate(0,0)"></path>
<path d="M 1658.72 1434.09 C 1702.98 1445.54 1761.32 1446.9 1806.2 1438.55 C 1806.04 1449.05 1805.73 1459.57 1806.22 1470.06 C 1811 1470.41 1814.75 1472.72 1814.81 1478.03 C 1815.15 1506 1814.89 1534.1 1814.51 1562.08 C 1814.48 1564.28 1813.93 1567.89 1813.33 1569.91 C 1801.62 1580.38 1773.47 1577.16 1757.77 1577.15 L 1681.05 1577.1 C 1677.89 1536.56 1665.19 1500.17 1629.01 1477.74 C 1639.15 1475.08 1645.56 1473.14 1656.07 1471.58 C 1657.42 1459.85 1658.04 1445.93 1658.72 1434.09 z" fill="rgb(231,89,42)" transform="translate(0,0)"></path>
<path d="M 1658.72 1434.09 C 1702.98 1445.54 1761.32 1446.9 1806.2 1438.55 C 1806.04 1449.05 1805.73 1459.57 1806.22 1470.06 C 1796.76 1474.11 1787.13 1472.79 1781.23 1484.1 C 1775.41 1495.25 1753.54 1529.75 1737.35 1519.16 C 1722.19 1518.47 1707.07 1510.29 1697.39 1498.64 C 1693.08 1493.45 1688.98 1486.73 1684.17 1482.11 C 1677.61 1475.7 1668.7 1472.27 1659.54 1472.59 L 1656.07 1471.58 C 1657.42 1459.85 1658.04 1445.93 1658.72 1434.09 z" fill="rgb(247,241,234)" transform="translate(0,0)"></path>
<path d="M 1658.72 1434.09 C 1702.98 1445.54 1761.32 1446.9 1806.2 1438.55 C 1806.04 1449.05 1805.73 1459.57 1806.22 1470.06 C 1796.76 1474.11 1787.13 1472.79 1781.23 1484.1 C 1775.41 1495.25 1753.54 1529.75 1737.35 1519.16 C 1780.56 1505.56 1764.62 1480.01 1796.04 1468.78 C 1795.8 1467.34 1795.9 1467.42 1795.15 1466.28 C 1752.13 1460.69 1704.8 1452.26 1662.11 1444.6 C 1661.43 1453.15 1660.87 1464.3 1659.54 1472.59 L 1656.07 1471.58 C 1657.42 1459.85 1658.04 1445.93 1658.72 1434.09 z" fill="rgb(27,23,20)" transform="translate(0,0)"></path>
<path d="M 1795.15 1466.28 C 1801.27 1466.92 1803.31 1468.87 1796.04 1468.78 C 1795.8 1467.34 1795.9 1467.42 1795.15 1466.28 z" fill="rgb(168,163,156)" transform="translate(0,0)"></path>
<path d="M 1098.65 974.936 C 1101.41 970.585 1104.45 966.469 1107.5 962.321 C 1147.41 908.514 1206.89 872.575 1273.09 862.274 L 1276.48 866.181 C 1277.91 872.172 1286.2 880.447 1291.41 883.577 C 1314.75 897.602 1341.89 894.933 1367.09 888.479 C 1368.65 888.08 1370.19 887.639 1371.73 887.157 L 1376.19 891.328 C 1380.55 912.737 1386.76 953.041 1382.95 974.236 C 1381.74 968.323 1380.7 962.537 1378.46 956.919 C 1364.31 921.559 1322.79 910.228 1288.27 917.483 C 1280.63 919.033 1273.24 921.605 1266.29 925.127 C 1250.21 933.199 1231.34 947.365 1215.72 957.124 C 1177.46 981.023 1137.53 1010.32 1099.11 1033.21 C 1089.68 1028.06 1080.16 1023.08 1070.55 1018.28 C 1078.05 1004.17 1089.54 988.068 1098.65 974.936 z" fill="rgb(231,89,42)" transform="translate(0,0)"></path>
<path d="M 621.337 969.469 C 625.472 978.067 627.05 979.472 634.874 985.017 C 636.098 1000.63 639.777 1007.22 656.411 1009.18 C 615.628 1026.51 594.603 1048.17 561.524 1076.53 L 472.07 1154.2 C 457.993 1166.49 437.447 1185.45 423.04 1196.34 C 419.342 1191.81 394.435 1160.42 391.635 1159.47 C 389.356 1155.75 386.537 1153.31 383.437 1150.22 C 392.874 1144.34 411.56 1129.46 421.035 1122.27 L 492.04 1068.47 L 575.638 1005.91 C 585.778 998.323 613.911 978.188 621.337 969.469 z" fill="rgb(247,241,234)" transform="translate(0,0)"></path>
<path d="M 791.388 1472.24 C 792.109 1486.88 791.524 1502.63 791.432 1517.4 C 791.209 1545.6 791.148 1573.8 791.25 1601.99 C 798.191 1603.32 810.676 1606.18 813.47 1613.13 L 812.32 1615.81 C 792.54 1634.06 658.602 1633.87 659.873 1611.99 C 664.863 1605.07 676.882 1603.13 684.89 1601.36 C 685.348 1588.02 684.876 1571.95 684.843 1558.4 C 715.349 1520.87 741.73 1502.48 791.295 1496.82 C 791.159 1488.63 791.19 1480.43 791.388 1472.24 z" fill="rgb(231,89,42)" transform="translate(0,0)"></path>
<path d="M 684.89 1601.36 C 693.312 1624.29 708.796 1624.33 730.588 1623.34 C 753.136 1622.31 784.12 1630.54 791.25 1601.99 C 798.191 1603.32 810.676 1606.18 813.47 1613.13 L 812.32 1615.81 C 792.54 1634.06 658.602 1633.87 659.873 1611.99 C 664.863 1605.07 676.882 1603.13 684.89 1601.36 z" fill="rgb(27,23,20)" transform="translate(0,0)"></path>
<path d="M 1284.77 1496.19 L 1284.8 1601.85 L 1286.54 1602.3 C 1293.72 1604.19 1302.66 1605.9 1306.5 1612.48 C 1304.32 1634 1171.07 1634.58 1155.34 1615.43 C 1153.36 1605.46 1170.95 1603.12 1178.06 1601.4 L 1178.08 1559.21 C 1197.62 1531.77 1222.63 1512.81 1254.89 1502.69 C 1263.93 1499.85 1276.48 1499.47 1284.77 1496.19 z" fill="rgb(231,89,42)" transform="translate(0,0)"></path>
<path d="M 1178.06 1601.4 C 1188.83 1629.11 1208.25 1622.38 1232.97 1623.24 C 1252.66 1623.92 1278.84 1626.1 1284.8 1601.85 L 1286.54 1602.3 C 1293.72 1604.19 1302.66 1605.9 1306.5 1612.48 C 1304.32 1634 1171.07 1634.58 1155.34 1615.43 C 1153.36 1605.46 1170.95 1603.12 1178.06 1601.4 z" fill="rgb(27,23,20)" transform="translate(0,0)"></path>
<path d="M 434.006 1280.4 L 514.743 1367.32 C 505.103 1377.13 495.665 1387.14 486.434 1397.34 C 473.227 1387.9 456.723 1399.29 443.606 1398.13 C 421.647 1396.45 406.45 1380.84 402.993 1359.48 C 400.581 1344.58 404.323 1335.59 393.488 1323.1 C 405.276 1311.8 423.211 1292.84 434.006 1280.4 z" fill="rgb(247,241,234)" transform="translate(0,0)"></path>
<path d="M 1564.18 1500.63 C 1597.63 1514.97 1617.52 1541.09 1622.44 1577.08 C 1597.22 1577.39 1572 1577.44 1546.78 1577.24 C 1525.88 1577.18 1500.33 1582.67 1489.55 1561.21 C 1487.17 1537.12 1544.65 1509.48 1564.18 1500.63 z" fill="rgb(231,89,42)" transform="translate(0,0)"></path>
<path d="M 341.161 1201.76 C 354.039 1191.54 369.371 1180.31 382.853 1170.73 C 391.719 1185.17 403.118 1198.32 411.634 1211.96 C 407.037 1241.89 421.031 1243.77 436.869 1264.32 C 428.052 1270.67 419.14 1277.22 410.255 1283.44 C 404.059 1273.1 396.705 1275.09 385.972 1275.01 C 358.041 1274.79 335.509 1254.79 339.953 1225.38 C 341.309 1216.41 344.604 1210.72 341.161 1201.76 z" fill="rgb(247,241,234)" transform="translate(0,0)"></path>
<path d="M 1376.36 875.971 C 1398.42 900.613 1421.01 905.825 1452.55 899.071 C 1420.71 928.041 1405.74 951.072 1382.89 986.759 L 1382.95 974.236 C 1386.76 953.041 1380.55 912.737 1376.19 891.328 C 1376.22 886.387 1376.14 880.847 1376.36 875.971 z" fill="rgb(247,241,234)" transform="translate(0,0)"></path>
<path d="M 1017.49 993.37 C 1024.05 990.185 1027.97 990.388 1035.01 989.018 C 1056.38 984.86 1077.59 980.512 1098.65 974.936 C 1089.54 988.068 1078.05 1004.17 1070.55 1018.28 C 1056.89 1012.35 1030.46 1000.09 1017.49 993.37 z" fill="rgb(247,241,234)" transform="translate(0,0)"></path>
<path d="M 410.331 1287.75 C 420.95 1280.61 430.845 1273.15 441.793 1266.08 C 426.29 1283.92 406.86 1304.05 390.284 1321.24 C 389.945 1320.91 389.612 1320.57 389.268 1320.25 C 388.659 1319.67 387.996 1319.14 387.45 1318.51 C 384.479 1315.04 409.228 1297.25 410.331 1287.75 z" fill="rgb(247,241,234)" transform="translate(0,0)"></path>
<path d="M 726.328 1152.29 C 712.497 1161.75 690.317 1189.45 677.899 1203.16 L 576.497 1315.25 C 566.221 1326.65 553.627 1342.48 542.422 1352.02 C 526.752 1365.37 503.499 1332.15 494.492 1322.15 C 479.592 1305.74 464.824 1289.2 450.19 1272.55 C 439.389 1260.4 427.182 1248.75 417.87 1235.61 C 410.846 1225.7 414.976 1210.59 423.189 1202.79 C 444.562 1182.5 467.522 1163.43 489.778 1144.08 C 517.477 1119.84 545.344 1095.81 573.378 1071.96 C 608.108 1042.38 637.001 1012.96 684.492 1006.8 C 716.963 1002.59 743.327 1008.09 773.834 1017.62 C 769.164 1022.38 763.33 1028.76 765.253 1035.78 C 776.228 1048.97 832.704 1045.73 848.544 1049 C 859.09 1051.18 883.523 1065.26 894.115 1070.12 C 904.827 1074.6 898.853 1083.69 901.631 1091.67 C 905.783 1103.61 924.909 1110.19 935.585 1115.31 C 950.916 1122.68 966.287 1129.96 981.697 1137.16 C 983.033 1151.9 994.049 1211.2 1005.33 1219.29 L 1006.93 1218.52 C 1007.08 1215.48 1003.74 1209 1002.43 1205.83 C 993.518 1184.22 988.689 1161.96 985.645 1138.85 C 998.746 1146.23 1019.69 1155.44 1033.84 1162.17 C 1035.35 1166.52 1038.37 1172.69 1040.35 1177.02 C 1053.8 1216.38 1072.43 1258.43 1087.11 1297.82 C 1082.87 1299.42 1072.43 1301.72 1067.59 1302.71 C 923.688 1332 813.297 1260.54 699.049 1185.75 C 706.833 1176.82 721.445 1162.29 726.328 1152.29 z" fill="rgb(247,241,234)" transform="translate(0,0)"></path>
<path d="M 1304.09 1288.83 C 1308.39 1288.69 1312.69 1289.08 1316.89 1290.01 C 1371.53 1302.56 1365.82 1378.16 1320.59 1391.06 C 1301.18 1396.6 1231.88 1393.89 1209.58 1393.88 L 929.83 1393.86 C 918.506 1393.85 842.148 1392.9 838.131 1395.32 L 839.187 1396.66 C 844.367 1398.87 931.275 1397.83 942.651 1397.84 L 1167.95 1397.88 L 1244.15 1397.92 C 1260.14 1397.94 1277.19 1397.53 1293.09 1397.96 C 1323.07 1398.77 1344.22 1389.66 1356.88 1360.86 C 1356.64 1389.44 1363.24 1431.61 1341.88 1453.01 C 1320.59 1474.34 1278.04 1468.09 1249.11 1468.08 L 1125.43 1468.37 L 680.509 1468.25 C 660.306 1468.35 646.404 1467.93 630.679 1452.62 C 614.78 1437.14 615.846 1416.61 616.016 1396.17 C 616.097 1385.46 616.113 1374.75 616.064 1364.04 C 640.338 1409.62 681.778 1396.01 725.855 1397.9 C 733.695 1398.24 789.806 1398.58 794.252 1397.08 L 794.659 1395.58 C 788.759 1391.46 677.946 1395.77 660.7 1393.2 C 654.416 1392.26 648.346 1390.23 642.768 1387.19 C 600.991 1364.15 609.497 1302.68 659.907 1289.23 C 672.252 1288 675.517 1295.62 685.436 1298.53 C 723.265 1309.62 765.969 1311.42 804.925 1313.68 C 868.892 1317.03 932.948 1318.38 996.999 1317.75 C 1088.12 1317.59 1186.46 1316.96 1276.69 1300.93 C 1286.61 1299.17 1295.91 1294.67 1304.09 1288.83 z" fill="rgb(247,241,234)" transform="translate(0,0)"></path>
<path d="M 1099.33 1038.16 C 1110.54 1031.55 1125.45 1021.19 1136.67 1013.87 L 1223.08 957.061 C 1238.69 946.888 1257.28 933.412 1273.91 926.041 C 1301.73 913.704 1341.86 918.018 1363.4 940.28 C 1374.58 951.958 1380.34 967.786 1379.29 983.915 C 1378.86 991.331 1377.3 998.625 1377.27 1006.07 L 1376.87 1007.01 C 1369.85 1024.15 1366.25 1040.59 1357.91 1059.53 C 1327.26 1127.72 1280.16 1187.24 1220.84 1232.74 L 1217.14 1236.01 C 1217.21 1240.99 1217.34 1244.52 1217.67 1249.47 C 1212.12 1249.12 1206.55 1248.86 1200.98 1248.71 C 1195.33 1249.39 1168.19 1266.23 1160.54 1269.93 C 1136.03 1281.81 1112.91 1289.82 1087.11 1297.82 C 1072.43 1258.43 1053.8 1216.38 1040.35 1177.02 C 1117.54 1253.9 1264.4 1117.92 1320.42 1064.37 C 1326.39 1058.65 1334.85 1050.88 1339.29 1044.03 C 1329.59 1048.58 1308.54 1064.85 1298.21 1071.66 C 1252.21 1102 1201.88 1142.12 1151.25 1162.78 C 1111.48 1178.39 1067.79 1174.55 1029.85 1155.82 C 991.458 1136.86 951.902 1119.85 914.108 1099.83 C 905.603 1095.33 902.08 1085.11 904.874 1075.95 C 912.517 1050.9 923.095 1025.6 934.73 1002.09 C 942.45 986.28 955.37 970.291 975.176 978.855 C 1016.34 996.657 1060.3 1016.32 1099.33 1038.16 z" fill="rgb(231,89,42)" transform="translate(0,0)"></path>
<path d="M 1217.14 1236.01 C 1217.21 1240.99 1217.34 1244.52 1217.67 1249.47 C 1212.12 1249.12 1206.55 1248.86 1200.98 1248.71 C 1201.87 1245.69 1213.35 1238.95 1217.14 1236.01 z" fill="rgb(247,241,234)" transform="translate(0,0)"></path>
<path d="M 1377.27 1006.07 C 1406.26 952.021 1452.78 886.797 1513.83 866.577 C 1524.68 862.982 1544.23 860.155 1554.65 865.644 C 1561.02 869.002 1566.61 877.212 1567.87 884.02 C 1577.11 934.139 1532.61 1020.78 1508.29 1061.71 C 1455.72 1147.85 1383.23 1239.56 1283.21 1271.14 C 1269.58 1275.45 1249.33 1276.51 1236.52 1269.22 C 1222.71 1261.36 1221.09 1247.06 1220.84 1232.74 C 1280.16 1187.24 1327.26 1127.72 1357.91 1059.53 C 1366.25 1040.59 1369.85 1024.15 1376.87 1007.01 L 1377.27 1006.07 z" fill="rgb(247,241,234)" transform="translate(0,0)"></path>
<path d="M 787.011 1006.56 C 830.009 968.072 884.553 976.239 935.305 992.683 C 922.614 1013.84 910.421 1047.06 902.394 1070.12 C 894.061 1065.21 859.088 1046.66 851.146 1045.45 C 824.716 1041.44 801.092 1044.4 773.415 1036.84 C 791.47 1026.85 811.425 1020.82 831.765 1017.54 C 838.026 1016.53 859.242 1017.52 862.319 1013.78 L 861.152 1012.39 C 856.796 1011.65 849.176 1012.23 844.436 1012.51 C 814.888 1014.27 792.602 1022.03 767.181 1036.25 C 781.268 1003.08 837.4 995.93 869.018 995.13 C 872.093 995.494 876.482 996.639 878.145 993.563 C 874.407 991.248 874.613 992.018 869.558 991.744 C 836.521 991.233 817.792 994.795 788.009 1009.66 L 787.011 1006.56 z" fill="rgb(247,241,234)" transform="translate(0,0)"></path>
<path d="M 787.011 1006.56 L 788.009 1009.66 C 781.612 1015.07 782.256 1011.37 787.011 1006.56 z" fill="rgb(252,235,225)" transform="translate(0,0)"></path>
<path d="M 1722.62 362.032 C 1784.05 351.375 1853.83 366.64 1907 397.969 C 1924.06 408.024 1940.74 417.989 1956.76 429.667 C 2007.84 464.885 2085.62 534.527 2098.51 597.245 C 2116.75 686.033 1985.79 740.899 1915.67 750.461 C 1887.81 754.927 1856.63 756.134 1828.93 755.134 L 1810.02 753.723 C 1795.63 781.752 1781.41 809.878 1767.39 838.098 C 1761.86 849.088 1756.32 860.084 1750.59 870.961 C 1746.17 879.35 1741.67 887.509 1731.82 890.115 C 1723.02 892.51 1714.73 890.491 1706.21 888.277 C 1682.72 932.05 1659.43 973.055 1623.85 1008.88 C 1615.72 1017.07 1590.51 1045.61 1581.98 1016.95 C 1579.52 1008.68 1587.56 987.504 1590.5 978.596 C 1577.99 986.481 1567.94 987.424 1562.59 971.154 C 1561.19 965.768 1562.96 965.284 1560.55 961.143 C 1560.97 958.659 1566.7 940.036 1567.52 937.848 C 1588.79 862.755 1554.23 839.42 1486.59 874.2 C 1493.86 863.75 1496.04 857.936 1498.67 845.639 C 1503.29 811.872 1486.17 787.111 1456.59 772.546 C 1458.17 770.459 1459.69 768.32 1461.14 766.134 C 1477.63 741.039 1478.19 716.026 1472.43 687.471 C 1498.29 668.403 1530.9 649.779 1558.08 631.155 C 1564.3 617.383 1570.26 594.317 1575.8 579.416 C 1594.28 529.706 1609.68 472.143 1632.39 424.461 C 1636.3 430.1 1650.7 449.484 1655.95 452.015 L 1658.67 451.797 C 1662.13 451.388 1666.06 452.078 1669.48 451.781 C 1693.7 449.677 1719.71 440.296 1729.05 415.805 C 1734.31 402.012 1734.34 392.078 1733.66 377.803 L 1733.9 374.55 C 1731.52 370.72 1725.96 365.44 1722.62 362.032 z" fill="rgb(231,89,42)" transform="translate(0,0)"></path>
<path d="M 1624.88 843.992 L 1627.31 846.62 C 1630.71 849.822 1633.41 852.345 1637.12 855.267 C 1643.16 856.096 1694.11 883.321 1706.21 888.277 C 1682.72 932.05 1659.43 973.055 1623.85 1008.88 C 1615.72 1017.07 1590.51 1045.61 1581.98 1016.95 C 1579.52 1008.68 1587.56 987.504 1590.5 978.596 C 1577.99 986.481 1567.94 987.424 1562.59 971.154 C 1561.19 965.768 1562.96 965.284 1560.55 961.143 C 1560.97 958.659 1566.7 940.036 1567.52 937.848 L 1569.3 939.071 C 1575.08 923.616 1614.8 859.042 1624.88 843.992 z" fill="rgb(247,241,234)" transform="translate(0,0)"></path>
<path d="M 1624.88 843.992 L 1627.31 846.62 C 1607.33 881.723 1579.89 918.176 1567.37 956.934 C 1564.99 964.304 1567.51 986.337 1580.59 979.494 C 1598.89 970.07 1599.13 942.381 1608.08 926.689 L 1609.81 925.872 C 1611.09 927.499 1610.97 927.717 1610.65 929.715 C 1607.52 949.174 1577.88 1006.19 1588.37 1021.8 C 1589.54 1023.55 1591.54 1024.79 1593.61 1025.14 C 1596.79 1025.67 1600.04 1024.88 1602.53 1022.84 C 1616.98 1011.03 1623.14 940.076 1632.21 933.642 L 1633.53 934.101 C 1633.96 940.663 1615.98 1004.02 1612.99 1013.24 C 1642.79 988.646 1674.96 938.215 1692.93 904.252 C 1673.71 888.64 1655.09 872.3 1637.12 855.267 C 1643.16 856.096 1694.11 883.321 1706.21 888.277 C 1682.72 932.05 1659.43 973.055 1623.85 1008.88 C 1615.72 1017.07 1590.51 1045.61 1581.98 1016.95 C 1579.52 1008.68 1587.56 987.504 1590.5 978.596 C 1577.99 986.481 1567.94 987.424 1562.59 971.154 C 1561.19 965.768 1562.96 965.284 1560.55 961.143 C 1560.97 958.659 1566.7 940.036 1567.52 937.848 L 1569.3 939.071 C 1575.08 923.616 1614.8 859.042 1624.88 843.992 z" fill="rgb(27,23,20)" transform="translate(0,0)"></path>
<path d="M 1567.52 937.848 L 1569.3 939.071 C 1562.98 956.859 1564.25 953.655 1562.59 971.154 C 1561.19 965.768 1562.96 965.284 1560.55 961.143 C 1560.97 958.659 1566.7 940.036 1567.52 937.848 z" fill="rgb(168,163,156)" transform="translate(0,0)"></path>
<path d="M 1498.67 845.639 C 1511.52 838.416 1531.52 824.396 1543.99 816.078 L 1610.59 772.152 C 1615.67 768.788 1637.49 753.342 1641.71 752.354 C 1633.86 771.114 1624.78 789.387 1616.92 808.131 C 1614.44 814.054 1611.89 820.637 1614.33 826.83 C 1614.64 827.6 1614.96 828.364 1615.31 829.119 C 1617.01 836.058 1619.06 839.503 1624.88 843.992 C 1614.8 859.042 1575.08 923.616 1569.3 939.071 L 1567.52 937.848 C 1588.79 862.755 1554.23 839.42 1486.59 874.2 C 1493.86 863.75 1496.04 857.936 1498.67 845.639 z" fill="rgb(255,255,255)" transform="translate(0,0)"></path>
<path d="M 1810.02 753.723 C 1815.36 739.93 1825.81 721.648 1832.54 707.607 C 1850.29 671.504 1866.93 634.865 1882.43 597.742 C 1885.99 588.988 1903.01 542.119 1906.45 539.648 C 1910.64 549.448 1878.6 643.585 1872.5 658.814 C 1863.23 681.629 1853.41 704.219 1843.06 726.566 C 1840.25 732.671 1832.36 750.279 1828.93 755.134 L 1810.02 753.723 z" fill="rgb(27,23,20)" transform="translate(0,0)"></path>
<path d="M 1700.15 618.558 C 1669.39 595.698 1652.27 565.923 1646.19 527.836 C 1645.43 523.075 1643.73 503.954 1646.08 500.192 L 1647.97 500.32 C 1649.65 505.723 1649.28 521.429 1650.35 528.732 C 1655.36 563.112 1673.98 594.035 1702.02 614.552 C 1707.72 602.831 1732.63 540.935 1738.98 536.958 C 1741.9 548.552 1623.34 787.42 1615.31 829.119 C 1614.96 828.364 1614.64 827.6 1614.33 826.83 C 1611.89 820.637 1614.44 814.054 1616.92 808.131 C 1624.78 789.387 1633.86 771.114 1641.71 752.354 C 1660.73 708.697 1682.58 662.438 1700.15 618.558 z" fill="rgb(27,23,20)" transform="translate(0,0)"></path>
<path d="M 1562.76 630.794 C 1566.29 632.272 1572.68 638.516 1577.07 641.58 C 1585.93 647.742 1595.31 653.133 1605.1 657.692 C 1610.68 660.359 1618.96 661.018 1617.33 666.771 C 1607.87 664.111 1561.22 641.281 1562.59 632.1 L 1562.76 630.794 z" fill="rgb(27,23,20)" transform="translate(0,0)"></path>
<path d="M 901.261 506.604 C 904.032 505.959 905.225 505.851 906.612 502.937 C 941.529 429.611 1021.81 392.485 1092.32 445.075 C 1135.57 477.335 1159.28 525.746 1173.71 576.995 C 1196.35 666.074 1188.73 765.955 1142.97 846.721 C 1123 881.984 1090.44 916.367 1050.28 926.94 C 1031.02 932.008 999.395 934.049 982.959 920.32 C 988.273 920.588 1002.14 925.487 1009.88 926.6 C 1042.42 931.282 1076.59 917.175 1100.35 895.152 C 1154.62 844.84 1179.03 764.474 1182.07 692.16 C 1185.45 613.934 1167.06 528.118 1113.49 468.542 C 1091.65 444.257 1058.49 424.598 1025.27 423.829 C 968.968 422.525 932.95 461.159 907.905 506.75 C 930.705 507.883 981.841 510.368 1004.16 514.848 C 1015.3 516.964 1018.74 518.481 1027.94 525.471 C 1094.08 575.733 1088.95 842.255 1003.68 859.504 L 995.915 860.182 C 995.046 861.452 994.569 862.4 993.852 863.747 C 994.113 863.909 994.373 864.071 994.634 864.232 C 1006.84 871.594 1021.51 873.702 1035.29 870.075 C 1061.63 863.278 1083.23 837.969 1096.12 814.928 C 1132.06 750.708 1137.55 662.193 1119.3 591.951 C 1109.28 553.4 1088.11 508.547 1052.64 488.245 C 1038.54 480.173 1021.07 476.31 1005.42 482.151 C 998.461 484.746 993.73 488.037 986.109 490.125 L 985.347 489.581 C 997.828 477.937 1016.92 473.937 1033.35 477.28 C 1059.88 482.681 1082.12 504.83 1095.83 527.267 C 1134.67 590.818 1140.3 674.436 1125.38 746.136 C 1114.58 797.99 1073.87 887.894 1007.89 873.227 C 1001.87 871.889 990.444 867.556 987.13 862.118 C 979.039 861.398 964.263 862.578 955.69 863.004 C 940.141 863.783 924.585 864.422 909.025 864.921 C 875.467 863.967 842.494 866.734 808.088 863.949 C 785.766 845.726 758.144 845.659 734.412 860.876 C 720.689 859.371 708.932 857.906 695.471 854.724 C 687.345 852.803 678.305 849.615 670.541 848.091 L 669.448 849.684 C 669.071 848.91 668.694 848.136 668.317 847.362 C 656.819 841.625 640.578 834.582 630.185 827.877 C 616.543 818.899 604.117 808.198 593.215 796.039 C 557.195 756.38 550.469 702.161 567.354 652.43 C 577.448 622.699 595.28 598.511 618.563 577.77 C 636.243 562.23 656.276 549.593 677.916 540.329 C 736.281 515.211 838.15 503.02 901.261 506.604 z" fill="rgb(231,89,42)" transform="translate(0,0)"></path>
<path d="M 1004.16 514.848 C 1015.3 516.964 1018.74 518.481 1027.94 525.471 C 1094.08 575.733 1088.95 842.255 1003.68 859.504 C 998.515 859.211 995.627 858.478 990.662 857.361 C 954.62 838.25 945.708 790.979 938.343 754.22 C 926.871 696.968 930.542 526.627 1004.16 514.848 z" fill="rgb(27,23,20)" transform="translate(0,0)"></path>
<path d="M 999.516 519.176 C 1088.02 514.418 1093.97 826.601 1006.15 855.12 C 977.451 859.648 958.387 817.038 952.076 795.046 C 930.138 718.597 930.396 624.934 964.645 552.003 C 971.703 536.972 983.564 524.002 999.516 519.176 z" fill="rgb(231,89,42)" transform="translate(0,0)"></path>
<path d="M 1007.5 562.001 C 1059.65 554.764 1064.64 772.367 1017.19 811.208 C 968.695 829.882 959.894 595.056 1007.5 562.001 z" fill="rgb(27,23,20)" transform="translate(0,0)"></path>
<path d="M 993.852 863.747 C 988.467 860.313 991.989 860.246 995.915 860.182 C 995.046 861.452 994.569 862.4 993.852 863.747 z" fill="rgb(247,241,234)" transform="translate(0,0)"></path>
<path d="M 643.502 676.316 C 652.513 675.262 751.587 675.385 754.285 676.716 L 754.923 679.596 C 740.749 679.926 652.786 681.338 644.689 678.702 L 643.502 676.316 z" fill="rgb(27,23,20)" transform="translate(0,0)"></path>
<path d="M 644.274 702.446 C 657.18 701.863 746.882 700.707 754.28 702.684 L 755.681 705.91 C 747.579 706.743 647.202 706.315 644.793 705.137 L 644.274 702.446 z" fill="rgb(27,23,20)" transform="translate(0,0)"></path>
<path d="M 1616.74 188.99 C 1616.53 173.45 1617.42 160.573 1624.5 146.394 C 1633.61 128.333 1649.59 114.688 1668.86 108.525 C 1688.74 101.956 1710.43 103.713 1729 113.396 C 1746.78 122.767 1759.58 137.849 1765.27 157.188 C 1770.69 176.065 1768.42 196.318 1758.96 213.528 C 1747.98 233.398 1730.91 243.719 1709.67 249.765 C 1722.69 280.795 1720.88 313.33 1703.56 342.234 C 1709.96 349.329 1715.88 355.324 1722.62 362.032 C 1725.96 365.44 1731.52 370.72 1733.9 374.55 L 1733.66 377.803 C 1734.34 392.078 1734.31 402.012 1729.05 415.805 C 1719.71 440.296 1693.7 449.677 1669.48 451.781 C 1666.06 452.078 1662.13 451.388 1658.67 451.797 L 1655.95 452.015 C 1650.7 449.484 1636.3 430.1 1632.39 424.461 C 1628.59 419.128 1624.84 413.758 1621.15 408.352 C 1595.35 417.56 1568.87 414.551 1547.63 396.542 C 1539.94 389.971 1533.59 381.985 1528.91 373.018 C 1520.7 357.205 1510.81 314.941 1509.12 296.942 C 1506.77 272.016 1514.82 245.166 1531.78 226.444 C 1555.98 199.738 1582.44 191.753 1616.74 188.99 z" fill="rgb(27,23,20)" transform="translate(0,0)"></path>
<path d="M 1541 242.766 C 1567.25 288.533 1588.55 305.364 1643.14 292.658 C 1641.36 296.917 1639.95 299.385 1639.77 304.008 L 1640.79 305.536 L 1642.24 305.373 C 1648.47 295.691 1649.68 285.837 1661.35 283.653 C 1670.03 282.028 1679.41 283.108 1686.87 287.942 C 1692.8 291.719 1696.86 297.804 1698.09 304.72 C 1699.46 312.332 1697.62 320.174 1692.99 326.373 C 1686.51 335.058 1679.44 337.323 1669.66 339.849 C 1681.02 342.61 1686.98 343.355 1698.7 343.428 C 1704.53 349.433 1728.49 374.804 1733.66 377.803 C 1734.34 392.078 1734.31 402.012 1729.05 415.805 C 1719.71 440.296 1693.7 449.677 1669.48 451.781 C 1666.06 452.078 1662.13 451.388 1658.67 451.797 C 1656.08 447.429 1645.4 434.804 1641.71 430.227 C 1647.32 417.003 1653.72 392.187 1658.46 377.282 C 1646.66 388.427 1629.54 402.123 1613.83 406.52 C 1573.19 417.902 1537.03 394.11 1526.15 354.08 C 1527.38 350.674 1527.44 348.871 1531.44 348.763 L 1533.1 348.69 C 1530.15 349.097 1527.22 347.788 1525.56 345.316 C 1523.9 342.844 1523.8 339.642 1525.29 337.066 C 1523.72 337.466 1523.02 337.694 1521.52 338.212 L 1517.47 320.585 L 1518.39 319.741 C 1525.69 313.184 1528.37 313.21 1537.16 316.3 L 1538.82 315.45 C 1536.19 304.668 1520.62 314.243 1516.59 313.316 C 1514.66 310.405 1514.89 307.063 1514.66 303.501 C 1530.87 281.097 1536.3 271.116 1541 242.766 z" fill="rgb(247,241,234)" transform="translate(0,0)"></path>
<path d="M 1525.29 337.066 C 1527.12 333.912 1530.89 332.446 1534.37 333.539 C 1537.84 334.631 1540.1 337.99 1539.8 341.622 C 1539.49 345.255 1536.71 348.192 1533.1 348.69 C 1530.15 349.097 1527.22 347.788 1525.56 345.316 C 1523.9 342.844 1523.8 339.642 1525.29 337.066 z" fill="rgb(27,23,20)" transform="translate(0,0)"></path>
<path d="M 1549.21 313.756 C 1555.55 317.193 1550.5 335.866 1552.49 343.077 C 1553.04 345.085 1551.62 351.917 1553.22 353.684 C 1554.46 355.053 1564.1 350.009 1561.55 356.223 C 1557.18 357.429 1553.38 358.461 1548.95 359.538 C 1548.74 351.232 1547 319.239 1549.21 313.756 z" fill="rgb(27,23,20)" transform="translate(0,0)"></path>
<path d="M 1576.21 318.606 C 1588.34 318.478 1589.65 327.77 1583.02 336.419 C 1570.95 335.704 1568.94 327.343 1576.21 318.606 z" fill="rgb(27,23,20)" transform="translate(0,0)"></path>
<path d="M 1673.38 295.687 C 1676.54 295.886 1678.37 297.324 1674.98 299.72 C 1670.51 302.892 1668.89 305.757 1665.74 310.061 C 1668.79 310.242 1681.28 310.022 1681.88 314.393 C 1681.31 315.772 1679.15 315.473 1678 315.174 C 1675.74 314.568 1673.46 314.013 1671.17 313.509 C 1669.71 313.723 1666.69 313.437 1665.33 315.165 C 1663.85 317.043 1668.57 323.891 1663.63 323.574 C 1661.36 323.429 1661.22 316.587 1661.46 314.627 C 1662.56 305.708 1666.51 301.011 1673.38 295.687 z" fill="rgb(27,23,20)" transform="translate(0,0)"></path>
<path d="M 1589.56 359.472 C 1593.64 361.669 1591.78 363.238 1589.55 366.329 C 1583.38 374.868 1574.8 376.542 1565.02 377.585 C 1559.63 373.307 1569 373.516 1571.5 372.941 C 1580.71 370.823 1584.61 366.943 1589.56 359.472 z" fill="rgb(27,23,20)" transform="translate(0,0)"></path>
<path d="M 1574.19 298.126 C 1576.71 297.91 1593.68 297.561 1590.5 303.254 C 1589.67 304.736 1582.2 300.91 1575.79 301.687 L 1574.96 301.795 C 1570.92 303.855 1561.78 314.111 1562.63 307.517 C 1563.08 303.994 1571.29 299.582 1574.19 298.126 z" fill="rgb(27,23,20)" transform="translate(0,0)"></path>
<path d="M 1521.52 338.212 C 1523.02 337.694 1523.72 337.466 1525.29 337.066 C 1523.8 339.642 1523.9 342.844 1525.56 345.316 C 1527.22 347.788 1530.15 349.097 1533.1 348.69 L 1531.44 348.763 C 1527.44 348.871 1527.38 350.674 1526.15 354.08 C 1525.24 349.527 1522.7 343.147 1521.52 338.212 z" fill="rgb(252,235,225)" transform="translate(0,0)"></path>
<path d="M 2039.12 1420.56 C 2084.57 1418.04 2142.85 1396.33 2180.58 1371.39 C 2183.78 1382.27 2188.43 1399.07 2192.74 1409.1 C 2199.23 1407.53 2203.9 1411.26 2205.78 1417.29 C 2209.03 1427.75 2213.12 1439.46 2215.61 1450.04 C 2219.42 1466.2 2228.5 1486.74 2230.5 1502.83 C 2249.99 1513.13 2256.55 1532.82 2246.18 1552.63 C 2237.4 1569.4 2211.53 1573.07 2194.23 1577.66 L 2134.38 1593.22 C 2075.89 1608.62 2017.45 1624.45 1958.91 1639.68 C 1944.84 1643.34 1933.14 1645.4 1919.74 1637.38 C 1911.26 1632.25 1905.2 1623.93 1902.91 1614.29 C 1899.57 1600.34 1904.65 1589.07 1913.1 1578.5 C 1905.84 1557.09 1956.5 1512.65 1972.91 1500.57 C 1991.59 1485.46 2009.37 1474.4 2029.92 1462.2 C 2035.55 1459.4 2042.77 1455.51 2048.62 1453.8 C 2045.5 1445.86 2041.45 1429.18 2039.12 1420.56 z" fill="rgb(27,23,20)" transform="translate(0,0)"></path>
<path d="M 2039.12 1420.56 C 2084.57 1418.04 2142.85 1396.33 2180.58 1371.39 C 2183.78 1382.27 2188.43 1399.07 2192.74 1409.1 C 2199.23 1407.53 2203.9 1411.26 2205.78 1417.29 C 2209.03 1427.75 2213.12 1439.46 2215.61 1450.04 C 2219.42 1466.2 2228.5 1486.74 2230.5 1502.83 C 2229.01 1516.54 2189.41 1522.86 2177.22 1526.06 L 2103.73 1545.81 C 2089.06 1507.44 2069.69 1477.76 2029.92 1462.2 C 2035.55 1459.4 2042.77 1455.51 2048.62 1453.8 C 2045.5 1445.86 2041.45 1429.18 2039.12 1420.56 z" fill="rgb(231,89,42)" transform="translate(0,0)"></path>
<path d="M 2039.12 1420.56 C 2084.57 1418.04 2142.85 1396.33 2180.58 1371.39 C 2183.78 1382.27 2188.43 1399.07 2192.74 1409.1 C 2187.76 1417.4 2171.24 1419.45 2171.32 1440.05 C 2171.37 1452.69 2157.11 1480.96 2140.77 1475.23 C 2126.29 1476.08 2110.66 1475.58 2098.91 1466.3 C 2081.29 1452.38 2075.57 1446.88 2051.87 1451.55 L 2048.62 1453.8 C 2045.5 1445.86 2041.45 1429.18 2039.12 1420.56 z" fill="rgb(247,241,234)" transform="translate(0,0)"></path>
<path d="M 2039.12 1420.56 C 2084.57 1418.04 2142.85 1396.33 2180.58 1371.39 C 2183.78 1382.27 2188.43 1399.07 2192.74 1409.1 C 2187.76 1417.4 2171.24 1419.45 2171.32 1440.05 C 2171.37 1452.69 2157.11 1480.96 2140.77 1475.23 C 2142.82 1473.65 2148.56 1470.62 2151.01 1469.15 C 2169.22 1458.27 2164.44 1440.99 2171.49 1424.14 C 2174.13 1417.82 2185.33 1413.59 2186.83 1405.11 L 2185.5 1403.45 C 2179.54 1402.16 2061.25 1424.56 2044.75 1427.3 C 2047.26 1435.04 2049.58 1443.68 2051.87 1451.55 L 2048.62 1453.8 C 2045.5 1445.86 2041.45 1429.18 2039.12 1420.56 z" fill="rgb(27,23,20)" transform="translate(0,0)"></path>
<path d="M 1913.1 1578.5 C 1905.84 1557.09 1956.5 1512.65 1972.91 1500.57 C 2006.1 1506.76 2034.79 1528.21 2046.18 1560.51 C 2023.13 1566.98 2000.04 1573.31 1976.92 1579.53 C 1963.82 1583.04 1949.7 1587.51 1936.17 1588.91 C 1925.94 1589.97 1919.65 1585.97 1913.1 1578.5 z" fill="rgb(231,89,42)" transform="translate(0,0)"></path>
<path d="M 1883.94 788.395 C 1895.72 798.154 1844.65 968.627 1838.35 992.547 C 1820.76 1059.35 1844.31 1106.78 1867.41 1167.95 C 1876.03 1190.76 1885.24 1214.32 1895.27 1236.69 C 1893.37 1247.09 1891.74 1257.53 1890.39 1268.02 L 1889.89 1269.86 L 1888.83 1270.03 C 1888.7 1269.79 1888.56 1269.57 1888.43 1269.33 C 1885.76 1264.54 1884.65 1259.19 1882.66 1254.11 C 1873.1 1229.71 1864.83 1204.76 1856.63 1179.88 C 1807.09 1029.69 1829.9 1017.43 1866.6 874.331 C 1871.3 856.59 1875.32 838.673 1878.64 820.621 C 1880.22 811.704 1881.7 796.106 1883.94 788.395 z" fill="rgb(27,23,20)" transform="translate(0,0)"></path>
<path d="M 2062.48 1018 C 2077.52 1020.6 2102.56 1033.99 2118.06 1038.8 C 2119.08 1039.12 2119.26 1040.9 2119.33 1041.78 L 2119.46 1043.12 C 2116.09 1042.31 2103.77 1038.03 2100.9 1036.26 C 2095.26 1032.78 2062.18 1024.31 2062.45 1019.13 L 2062.48 1018 z" fill="rgb(27,23,20)" transform="translate(0,0)"></path>
<metadata><recraft-signature>{"signed_by": "recraft", "signature_b64": "1/sifFUNZGVzbLlQieTI7vEkMDgyGrt+8wK0N8zxkKr+EzF+juTcDuKzajKuBzKo7Is3maDC2CrNPs9Vc9ioDw==", "signing_algo": "Ed25519", "generation_timestamp": 1783393853, "identifier": "2027df44-92a7-4bd1-8112-b714f3fafcdc"}</recraft-signature></metadata></svg>