<svg xmlns="http://www.w3.org/2000/svg" height="1792" preserveAspectRatio="none" style="display: block;" version="1.1" viewBox="0 0 2432 1792" width="2432">
<path d="M 0 0 L 2432 0 L 2432 1792 L 0 1792 L 0 0 z" fill="rgb(255,255,255)" transform="translate(0,0)"></path>
<path d="M 1687.67 385.765 C 1693.68 385.797 1711.46 395.172 1717.8 398.29 C 1769.7 407.994 1804.27 424.071 1835.45 469.5 C 1841.85 478.926 1847.38 488.917 1851.96 499.349 C 1856.08 508.618 1882.87 584.259 1882.15 588.534 L 1880.14 590.964 C 1881.74 596.203 1884.27 604.302 1886.49 609.194 C 1896.27 640.165 1914.75 672.303 1899.52 702.117 C 1892 716.671 1878.89 727.539 1863.19 732.218 C 1847.19 737.142 1830.96 735.586 1815.7 728.295 C 1806.39 723.848 1786.69 704.238 1779.42 703.149 C 1791.89 749.306 1803.38 797.459 1809.4 844.866 C 1814.53 885.219 1815.54 928.437 1817.07 969.218 C 1819.94 1047.89 1821.4 1126.62 1821.45 1205.35 C 1822.07 1251 1822.27 1296.65 1822.06 1342.31 C 1822.04 1361.64 1822.82 1392.06 1821.65 1410.61 C 1817.95 1415.87 1817.07 1416.78 1812.28 1421 C 1785.28 1438.12 1752.24 1437.41 1723.53 1425.29 C 1717.65 1421.45 1715.78 1420.05 1711.47 1414.68 C 1704.52 1350.75 1692.9 1280.26 1683.65 1216.52 C 1667.62 1100.69 1650.57 985.008 1632.51 869.481 C 1626.68 866.123 1604.71 851.068 1600.37 851.222 L 1600.57 852.74 C 1603.54 857.22 1622.73 868.298 1628.63 872.074 C 1637.16 925.155 1645.28 978.301 1652.99 1031.51 C 1655.39 1048.09 1662.32 1082.7 1663 1097.95 C 1664.5 1132.07 1664.71 1170.05 1665.2 1204.5 L 1667.98 1409.34 L 1660.78 1416.93 C 1662.09 1430.29 1662.93 1445.35 1664.49 1458.44 L 1663.78 1463.02 C 1657.08 1467.78 1580.25 1477.08 1569.49 1476.8 C 1566.86 1459.88 1564.63 1442.9 1562.82 1425.87 C 1558.14 1423.78 1554.24 1420.82 1550 1417.93 C 1546.12 1390.29 1543.27 1360.36 1540.1 1332.46 C 1533.69 1277.18 1527.76 1221.84 1522.32 1166.45 C 1517.61 1118.49 1511.47 1065.35 1508.07 1017.56 C 1504.52 964.752 1503.45 911.803 1504.88 858.891 C 1505.69 831.895 1507.62 804.943 1510.66 778.106 C 1512.61 762.257 1516.46 741.694 1517.69 726.932 C 1515.71 725.611 1511.71 725.906 1509.09 725.853 C 1508.11 719.435 1510.51 701.918 1506.68 699.06 C 1507.46 696.504 1508.26 695.246 1509.68 692.999 C 1505.47 685.385 1497.84 659.415 1494.89 650.168 C 1491.52 639.612 1486.46 625.695 1483.49 615.364 C 1481.87 613.501 1472.37 605.324 1470 603.205 C 1464.65 598.573 1459.44 593.837 1454.2 589.097 C 1452.55 585.705 1446.32 556.13 1444.99 550.22 C 1451.91 548.664 1480.74 494.414 1486.73 484.36 C 1501.66 459.265 1541.08 412.717 1573.28 414.989 C 1577.62 412.557 1590.53 405.483 1595.55 404.91 C 1597.32 404.708 1600.59 408.905 1601.89 410.34 C 1608.18 417.266 1627.82 436.302 1634.95 441.881 C 1646.36 428.54 1680.06 397.349 1687.67 385.765 z" fill="rgb(27,23,20)" transform="translate(0,0)"></path>
<path d="M 1687.67 385.765 C 1693.68 385.797 1711.46 395.172 1717.8 398.29 C 1769.7 407.994 1804.27 424.071 1835.45 469.5 C 1841.85 478.926 1847.38 488.917 1851.96 499.349 C 1856.08 508.618 1882.87 584.259 1882.15 588.534 L 1880.14 590.964 C 1881.74 596.203 1884.27 604.302 1886.49 609.194 C 1896.27 640.165 1914.75 672.303 1899.52 702.117 C 1892 716.671 1878.89 727.539 1863.19 732.218 C 1847.19 737.142 1830.96 735.586 1815.7 728.295 C 1806.39 723.848 1786.69 704.238 1779.42 703.149 C 1778.44 700.703 1778.92 701.79 1776.47 699.818 C 1760.77 700.319 1739.25 702.845 1723.2 704.289 C 1694.27 706.799 1665.35 709.482 1636.45 712.338 L 1634.57 695.848 C 1645.6 695.415 1717.07 695.225 1721.18 692.781 C 1709.6 688.901 1599.2 692.819 1580.99 693.218 C 1579.45 671.051 1575.76 523.226 1571.26 513.713 L 1571.07 513.76 L 1571.67 515.978 L 1570.45 516.836 C 1569.3 531.239 1571.54 563.161 1572.22 579.202 L 1577.24 696.933 C 1595.1 696.337 1612.98 695.977 1630.85 695.853 C 1631.22 701.249 1631.91 707.136 1632.43 712.565 C 1593.13 714.857 1552.61 719.916 1512.98 722.42 L 1514.31 606.603 C 1514.52 594.363 1517.29 541.305 1514.09 533.879 L 1513.17 534.504 C 1511.21 544.606 1512.28 562.137 1511.24 573.321 C 1509.37 593.461 1506.68 613.362 1503.87 633.371 C 1496.84 627.298 1490.88 621.478 1483.49 615.364 C 1481.87 613.501 1472.37 605.324 1470 603.205 C 1464.65 598.573 1459.44 593.837 1454.2 589.097 C 1452.55 585.705 1446.32 556.13 1444.99 550.22 C 1451.91 548.664 1480.74 494.414 1486.73 484.36 C 1501.66 459.265 1541.08 412.717 1573.28 414.989 C 1577.62 412.557 1590.53 405.483 1595.55 404.91 C 1597.32 404.708 1600.59 408.905 1601.89 410.34 C 1608.18 417.266 1627.82 436.302 1634.95 441.881 C 1646.36 428.54 1680.06 397.349 1687.67 385.765 z" fill="rgb(252,235,225)" transform="translate(0,0)"></path>
<path d="M 1742.9 642.791 C 1724.57 643.346 1705.14 645.759 1686.69 646.575 C 1680.1 646.866 1670.96 647.671 1665.73 642.747 C 1662.14 639.368 1663.99 632.962 1664.07 627.474 C 1661.44 620.485 1653.41 622.1 1653.23 612.392 C 1653.09 604.632 1657.93 605.218 1660.12 600.103 C 1658.89 598.969 1657.7 597.808 1656.53 596.621 C 1647.79 587.781 1651.16 583.611 1658.83 576.625 C 1659.86 572.55 1654.66 570.035 1654.01 566.057 C 1653.46 562.712 1655.93 558.82 1658.22 556.626 C 1666.28 548.872 1735.26 546.085 1749.79 546.256 C 1757.66 550.683 1764.48 559.626 1769.38 561.777 C 1770.91 564.784 1771.52 564.986 1774.24 567.077 C 1781.87 576.304 1817.61 608.518 1819.98 613.147 C 1832.65 608.535 1864.1 594.32 1878.74 589.393 C 1879.21 589.236 1879.9 590.538 1880.14 590.964 C 1881.74 596.203 1884.27 604.302 1886.49 609.194 C 1896.27 640.165 1914.75 672.303 1899.52 702.117 C 1892 716.671 1878.89 727.539 1863.19 732.218 C 1847.19 737.142 1830.96 735.586 1815.7 728.295 C 1806.39 723.848 1786.69 704.238 1779.42 703.149 C 1778.44 700.703 1778.92 701.79 1776.47 699.818 C 1765.02 691.491 1753.99 681.623 1745.04 670.686 C 1744.06 661.79 1743.55 651.793 1742.9 642.791 z" fill="rgb(201,72,30)" transform="translate(0,0)"></path>
<path d="M 1819.98 613.147 C 1832.65 608.535 1864.1 594.32 1878.74 589.393 C 1879.21 589.236 1879.9 590.538 1880.14 590.964 C 1881.74 596.203 1884.27 604.302 1886.49 609.194 C 1872.94 613.429 1854.02 620.025 1840.15 624.709 L 1840.8 625.216 C 1844.52 628.075 1869.38 645.526 1870.03 647.434 C 1869.32 650.256 1866.37 648.914 1864.91 647.533 C 1855.35 638.473 1826.62 622.571 1819.98 613.147 z" fill="rgb(27,23,20)" transform="translate(0,0)"></path>
<path d="M 1756.98 615.433 C 1760.07 614.883 1760.55 615.043 1762.69 616.765 C 1759.48 620.014 1743.45 619.668 1738.03 620.202 C 1716.73 622.32 1695.42 624.271 1674.09 626.054 C 1671.98 626.021 1670.38 625.886 1668.29 625.718 L 1667.98 624.46 C 1675.28 621.353 1744.29 616.472 1756.98 615.433 z" fill="rgb(27,23,20)" transform="translate(0,0)"></path>
<path d="M 1747.84 591.44 C 1749.14 591.289 1752.25 591.126 1751.17 593.446 C 1748.88 595.066 1673.88 600.484 1664.76 601.252 C 1663.65 600.983 1662.59 600.894 1662.05 599.807 C 1662.13 599.508 1662.11 599.423 1662.31 599.19 C 1664.74 596.373 1738.54 592.181 1747.84 591.44 z" fill="rgb(27,23,20)" transform="translate(0,0)"></path>
<path d="M 1733.54 567.5 C 1734.94 567.353 1744.97 565.498 1743.96 568.937 C 1741.69 570.876 1681.1 574.881 1671.94 575.855 C 1669.51 575.975 1661.95 577.508 1661.56 574.132 C 1663.52 572.361 1725.34 568.351 1733.54 567.5 z" fill="rgb(27,23,20)" transform="translate(0,0)"></path>
<path d="M 1687.67 385.765 C 1693.68 385.797 1711.46 395.172 1717.8 398.29 C 1704.82 422.986 1689 455.885 1675.22 479.383 C 1661.96 466.705 1648.54 454.203 1634.95 441.881 C 1646.36 428.54 1680.06 397.349 1687.67 385.765 z" fill="rgb(231,89,42)" transform="translate(0,0)"></path>
<path d="M 1573.28 414.989 C 1577.62 412.557 1590.53 405.483 1595.55 404.91 C 1597.32 404.708 1600.59 408.905 1601.89 410.34 C 1608.18 417.266 1627.82 436.302 1634.95 441.881 C 1626.67 452.85 1609.22 471.858 1599.76 482.703 C 1590.79 460.728 1582.67 436.946 1573.28 414.989 z" fill="rgb(231,89,42)" transform="translate(0,0)"></path>
<path d="M 1769.38 561.777 C 1765.14 545.11 1758.91 527.245 1757.05 510.609 C 1756.96 509.843 1759.3 509.944 1759.56 510.736 C 1765.26 528.435 1769.25 549.404 1774.24 567.077 C 1771.52 564.986 1770.91 564.784 1769.38 561.777 z" fill="rgb(27,23,20)" transform="translate(0,0)"></path>
<path d="M 1650.32 621.981 C 1658.9 623.816 1657.14 627.886 1651.72 633.202 C 1631.61 652.933 1629.88 679.277 1603.32 654.537 C 1596.58 644.536 1602.34 635.6 1614.51 633.026 C 1618.89 632.102 1626.04 643.017 1629.36 646.779 C 1636.36 638.337 1642.77 630.01 1650.32 621.981 z" fill="rgb(231,89,42)" transform="translate(0,0)"></path>
<path d="M 1611.2 640.416 C 1615.39 641.335 1622.88 650.07 1624.98 653.97 C 1625.45 654.839 1621.81 658.516 1621.16 659.268 C 1618.82 658.459 1616.41 657.637 1614.6 655.791 C 1605.52 646.509 1603.11 650.244 1611.2 640.416 z" fill="rgb(252,235,225)" transform="translate(0,0)"></path>
<path d="M 1650.2 517.377 C 1653.53 518.75 1658.12 521.418 1654.22 525.158 C 1644.02 534.929 1632.68 556.848 1619.48 561.704 C 1614.66 563.477 1606.16 555.127 1602.6 552.048 C 1594.45 542.108 1603.19 531.608 1614.52 530.721 C 1618.6 530.402 1625.17 539.556 1628.01 542.823 C 1634.78 534.677 1642.9 524.992 1650.2 517.377 z" fill="rgb(231,89,42)" transform="translate(0,0)"></path>
<path d="M 1611.56 536.753 C 1614.32 538.774 1622.76 546.764 1623.66 550.357 C 1623.9 551.288 1619.7 554.993 1618.84 555.809 C 1613.1 553.142 1609.5 549.102 1604.9 544.767 C 1607.17 541.971 1609.17 539.481 1611.56 536.753 z" fill="rgb(252,235,225)" transform="translate(0,0)"></path>
<path d="M 1647.77 570.377 C 1654.08 571.958 1653.99 575.445 1649.87 580.299 C 1642.91 588.504 1630.33 607.563 1621.15 612.041 C 1616.09 614.503 1604.77 604.459 1601.01 601.196 C 1594.68 591.378 1602.46 582.273 1613.02 580.62 C 1616.67 580.049 1624.4 591.084 1627.22 594.377 C 1633.73 586.873 1641.04 577.115 1647.77 570.377 z" fill="rgb(231,89,42)" transform="translate(0,0)"></path>
<path d="M 1611.53 587.669 C 1615.05 590.539 1619.92 597.589 1622.68 601.409 C 1623.38 602.372 1618.81 605.593 1618.28 606.005 C 1617.16 605.186 1616.06 604.343 1614.97 603.479 C 1604.97 595.393 1602.06 595.499 1611.53 587.669 z" fill="rgb(252,235,225)" transform="translate(0,0)"></path>
<path d="M 1562.82 1425.87 C 1593.83 1437.03 1632.89 1435.53 1660.78 1416.93 C 1662.09 1430.29 1662.93 1445.35 1664.49 1458.44 L 1663.78 1463.02 C 1657.08 1467.78 1580.25 1477.08 1569.49 1476.8 C 1566.86 1459.88 1564.63 1442.9 1562.82 1425.87 z" fill="rgb(201,72,30)" transform="translate(0,0)"></path>
<path d="M 1509.68 692.999 C 1510.24 700.817 1510.32 718.073 1509.09 725.853 C 1508.11 719.435 1510.51 701.918 1506.68 699.06 C 1507.46 696.504 1508.26 695.246 1509.68 692.999 z" fill="rgb(252,235,225)" transform="translate(0,0)"></path>
<path d="M 987.987 572.582 C 993.217 576.172 1001.09 579.669 1007.03 582.571 C 1037.58 597.507 1062.74 623.233 1076.03 654.638 C 1080.72 665.71 1083.97 679.871 1087.14 691.664 L 1102.4 749.622 L 1121.73 822.59 C 1131.07 857.431 1146.1 891.149 1116.2 920.258 C 1113.42 922.966 1108.82 926.107 1108.23 929.869 C 1120.61 966.874 1115.95 960.553 1143.81 988.784 L 1191.19 1036.71 C 1195.25 1040.81 1207.53 1051.75 1207.8 1056.87 C 1210.24 1066.22 1217.62 1083.22 1221.23 1093.3 C 1230.07 1118.42 1238.54 1143.67 1246.63 1169.03 C 1269.92 1244.05 1294.14 1319.3 1307.44 1396.86 C 1309.29 1407.64 1310.07 1419.29 1312.24 1429.91 C 1301.08 1436.78 1290.89 1442.63 1278.76 1447.82 C 1270.73 1451.21 1262.55 1454.25 1254.25 1456.93 C 1249.16 1458.56 1236.89 1461.07 1234.36 1464.83 C 1233.92 1464.13 1232.96 1462.77 1232.01 1462.94 C 1204.31 1467.8 1179.61 1467.93 1151.63 1467.09 L 1145.81 1466.02 L 1144.66 1466.7 C 1121.47 1463.63 1106.88 1460.53 1084.1 1454.39 C 1077.28 1416.73 1073.08 1378.64 1071.53 1340.4 C 1068.99 1286.18 1071.56 1230.72 1071.63 1176.45 C 1071.63 1172.74 1070.36 1166.97 1068.98 1163.47 C 1059.47 1146.23 1028.84 1122.36 1013.59 1108.67 C 1009.03 1167.62 992.411 1211.78 976.194 1268.12 C 957.296 1333.78 936.401 1399.45 918.557 1465.36 C 933.495 1468.11 948.564 1470.1 963.705 1471.31 C 962.614 1475.65 961.349 1481.3 960.011 1485.44 C 931.399 1482.37 919.221 1475.79 895.88 1461.03 C 893.876 1459.76 880.051 1455.39 877.219 1454.37 C 864.724 1449.59 848.886 1440.65 837.518 1433.69 C 854.844 1385.37 874.22 1337.8 895.593 1291.13 C 903.653 1273.69 912.002 1256.4 920.637 1239.24 C 928.874 1223 945.834 1193.87 948.804 1177.87 C 956.292 1137.52 951.174 1090.94 947.814 1050.33 C 916.215 1022.31 892.382 1001.42 876.332 960.094 C 872.14 949.299 868.094 936.308 867.335 924.704 L 865.135 924.247 C 862.85 942.849 855.315 966.312 849.007 984.334 C 814.487 999.34 795.211 1003.03 757.791 999.791 L 761.683 986.561 C 745.381 975.394 735.261 964.199 729.163 945.069 C 721.432 920.817 731.523 894.806 737.742 870.86 L 758.917 790.924 L 779.673 712.292 C 784.552 693.671 791.341 663.366 799.91 647.063 C 814.336 619.616 839.945 595.481 870.405 586.764 C 876.698 588.823 893.414 591.547 900.644 592.866 L 957.441 603.174 C 959.718 607.633 962.204 613.793 964.25 618.522 C 967.726 606.461 970.949 592.23 973.996 579.883 C 978.541 577.882 984.411 575.768 987.987 572.582 z" fill="rgb(252,235,225)" transform="translate(0,0)"></path>
<path d="M 987.987 572.582 C 993.217 576.172 1001.09 579.669 1007.03 582.571 C 1037.58 597.507 1062.74 623.233 1076.03 654.638 C 1080.72 665.71 1083.97 679.871 1087.14 691.664 L 1102.4 749.622 L 1121.73 822.59 C 1131.07 857.431 1146.1 891.149 1116.2 920.258 C 1113.42 922.966 1108.82 926.107 1108.23 929.869 L 1082.17 850.822 C 1076.91 835.019 1069.87 815.523 1065.71 799.814 C 1067.23 797.387 1068.07 797.947 1071.83 796.943 C 1068.74 788.711 1067.86 780.314 1064.47 771.947 C 1046.37 809.43 984.067 807.097 947.64 813.305 C 926.329 816.937 898.459 820.958 877.023 822.682 C 881.524 788.533 884.008 753.679 887.782 719.411 C 888.495 712.937 888.829 706.191 888.724 699.686 L 887.838 698.806 L 888.684 699.009 L 888.375 697.382 L 887.802 698.704 L 888.562 698.11 L 887.944 697.459 C 884.172 707.893 881.567 745.006 880.375 758.009 C 876.743 794.29 872.799 830.539 868.544 866.752 C 865.655 891.648 863 931.984 855.1 952.929 C 843.464 983.779 801.581 1002.12 771.625 989.783 C 770.406 989.281 762.55 986.497 761.683 986.561 C 745.381 975.394 735.261 964.199 729.163 945.069 C 721.432 920.817 731.523 894.806 737.742 870.86 L 758.917 790.924 L 779.673 712.292 C 784.552 693.671 791.341 663.366 799.91 647.063 C 814.336 619.616 839.945 595.481 870.405 586.764 C 876.698 588.823 893.414 591.547 900.644 592.866 L 957.441 603.174 C 959.718 607.633 962.204 613.793 964.25 618.522 C 967.726 606.461 970.949 592.23 973.996 579.883 C 978.541 577.882 984.411 575.768 987.987 572.582 z" fill="rgb(252,235,225)" transform="translate(0,0)"></path>
<path d="M 1046.68 684.763 C 1067.08 707.373 1082.14 745.765 1081.38 776.553 C 1081.2 783.572 1078.01 793.006 1071.83 796.943 C 1068.74 788.711 1067.86 780.314 1064.47 771.947 C 1067.94 761.606 1049.02 700.871 1046.68 684.763 z" fill="rgb(231,89,42)" transform="translate(0,0)"></path>
<path d="M 761.683 986.561 C 762.55 986.497 770.406 989.281 771.625 989.783 C 801.581 1002.12 843.464 983.779 855.1 952.929 C 863 931.984 865.655 891.648 868.544 866.752 C 872.799 830.539 876.743 794.29 880.375 758.009 C 881.567 745.006 884.172 707.893 887.944 697.459 L 888.562 698.11 L 887.802 698.704 L 888.375 697.382 L 888.684 699.009 L 887.838 698.806 L 888.724 699.686 C 888.829 706.191 888.495 712.937 887.782 719.411 C 884.008 753.679 881.524 788.533 877.023 822.682 C 898.459 820.958 926.329 816.937 947.64 813.305 C 984.067 807.097 1046.37 809.43 1064.47 771.947 C 1067.86 780.314 1068.74 788.711 1071.83 796.943 C 1068.07 797.947 1067.23 797.387 1065.71 799.814 C 1069.87 815.523 1076.91 835.019 1082.17 850.822 L 1108.23 929.869 C 1120.61 966.874 1115.95 960.553 1143.81 988.784 L 1191.19 1036.71 C 1195.25 1040.81 1207.53 1051.75 1207.8 1056.87 C 1204.81 1056.44 1203.64 1055.06 1201.53 1052.92 C 1164.89 1015.55 1128.2 978.037 1091.48 940.759 L 1054.3 903.033 C 1049.46 898.127 1038.17 889.073 1037.39 882.571 C 1042.14 883.589 1105.23 949.581 1114.21 958.692 C 1100.79 921.417 1089.22 882.353 1076.4 844.825 C 1071.53 830.59 1066.56 812.593 1061.25 798.861 C 1051.62 799.886 1041.41 800.859 1032.05 803.226 C 998.588 811.687 964.262 813.895 930.147 819.35 C 903.757 925.894 969.045 969.181 1035.65 1033.13 L 1083.65 1079.38 C 1142.65 1136.05 1141.45 1126.54 1142.55 1209.29 L 1143.76 1313.75 L 1145.4 1414.79 C 1145.62 1428.24 1146.84 1453.9 1145.81 1466.02 L 1144.66 1466.7 C 1121.47 1463.63 1106.88 1460.53 1084.1 1454.39 C 1077.28 1416.73 1073.08 1378.64 1071.53 1340.4 C 1068.99 1286.18 1071.56 1230.72 1071.63 1176.45 C 1071.63 1172.74 1070.36 1166.97 1068.98 1163.47 C 1059.47 1146.23 1028.84 1122.36 1013.59 1108.67 C 1009.03 1167.62 992.411 1211.78 976.194 1268.12 C 957.296 1333.78 936.401 1399.45 918.557 1465.36 C 933.495 1468.11 948.564 1470.1 963.705 1471.31 C 962.614 1475.65 961.349 1481.3 960.011 1485.44 C 931.399 1482.37 919.221 1475.79 895.88 1461.03 C 893.876 1459.76 880.051 1455.39 877.219 1454.37 C 864.724 1449.59 848.886 1440.65 837.518 1433.69 C 854.844 1385.37 874.22 1337.8 895.593 1291.13 C 903.653 1273.69 912.002 1256.4 920.637 1239.24 C 928.874 1223 945.834 1193.87 948.804 1177.87 C 956.292 1137.52 951.174 1090.94 947.814 1050.33 C 916.215 1022.31 892.382 1001.42 876.332 960.094 C 872.14 949.299 868.094 936.308 867.335 924.704 L 865.135 924.247 C 862.85 942.849 855.315 966.312 849.007 984.334 C 814.487 999.34 795.211 1003.03 757.791 999.791 L 761.683 986.561 z" fill="rgb(27,23,20)" transform="translate(0,0)"></path>
<path d="M 865.135 924.247 C 865.165 923.156 864.856 921.156 866.01 920.527 C 867.225 920.877 867.202 923.746 867.335 924.704 L 865.135 924.247 z" fill="rgb(156,154,149)" transform="translate(0,0)"></path>
<path d="M 508.6 1387.76 C 561.315 1389.03 615.391 1387.53 668.182 1388.12 C 689.217 1388.36 714.576 1387.28 735.248 1388.47 C 744.466 1396.45 754.967 1404.27 764.51 1412.09 C 763.386 1416.92 737.465 1440.76 731.853 1446.67 L 731.742 1459.71 C 731.909 1486.09 731.908 1512.48 731.74 1538.86 C 758.879 1540.45 800.181 1538.8 828.689 1539.04 C 806.617 1558.34 784.688 1577.81 762.905 1597.44 C 754.504 1604.98 742.972 1614.51 735.164 1622.23 C 648.946 1623.32 561.716 1621.21 475.427 1622.15 C 440.916 1622.53 401.943 1621.07 367.936 1622.51 L 422.098 1572.8 C 430.365 1565.27 444.752 1551.44 453.391 1544.89 C 453.435 1529.16 452.892 1509.65 453.658 1494.26 L 454.043 1475.1 C 448.487 1476.38 422.906 1475.8 416.289 1475.72 C 426.661 1464.15 445.774 1443.85 456.667 1433.19 C 461.934 1430.52 501.239 1394.21 508.6 1387.76 z" fill="rgb(231,89,42)" transform="translate(0,0)"></path>
<path d="M 508.6 1387.76 C 561.315 1389.03 615.391 1387.53 668.182 1388.12 C 689.217 1388.36 714.576 1387.28 735.248 1388.47 C 744.466 1396.45 754.967 1404.27 764.51 1412.09 C 759.287 1413.93 732.678 1440.72 728.701 1445.91 C 720.62 1453.48 712.714 1460.82 704.997 1468.78 C 702.248 1463.82 689.917 1439.81 686.052 1438.19 C 681.001 1447.44 675.442 1462.71 671.42 1472.95 L 656.037 1473.03 C 649.552 1475.58 637.3 1476.15 629.949 1476.62 C 591.15 1481.45 552.319 1486.02 513.459 1490.33 C 500.916 1491.77 466.224 1496.56 454.609 1496.66 L 453.658 1494.26 L 454.043 1475.1 C 448.487 1476.38 422.906 1475.8 416.289 1475.72 C 426.661 1464.15 445.774 1443.85 456.667 1433.19 C 461.934 1430.52 501.239 1394.21 508.6 1387.76 z" fill="rgb(252,235,225)" transform="translate(0,0)"></path>
<path d="M 508.6 1387.76 C 561.315 1389.03 615.391 1387.53 668.182 1388.12 C 689.217 1388.36 714.576 1387.28 735.248 1388.47 C 731.314 1392.18 716.604 1406.79 713.315 1409.32 C 705.706 1416.91 695.24 1427.95 687.41 1434.78 L 517.258 1434.73 C 508.81 1434.82 462.201 1433.12 458.346 1435.45 L 456.667 1433.19 C 461.934 1430.52 501.239 1394.21 508.6 1387.76 z" fill="rgb(231,89,42)" transform="translate(0,0)"></path>
<path d="M 517.64 1409 C 582.659 1409.54 648.478 1408.29 713.315 1409.32 C 705.706 1416.91 695.24 1427.95 687.41 1434.78 L 517.258 1434.73 C 506.533 1433.77 493.797 1434.24 482.934 1434.41 C 490.688 1426.47 503.397 1416.83 509.687 1409.35 L 517.64 1409 z" fill="rgb(27,23,20)" transform="translate(0,0)"></path>
<path d="M 510.29 1406.21 C 509.782 1402.89 506.667 1391.59 508.999 1389.4 C 512.164 1390.69 512.782 1400.4 513.701 1404.16 C 512.169 1405.59 512.273 1405.53 510.29 1406.21 z" fill="rgb(27,23,20)" transform="translate(0,0)"></path>
<path d="M 456.667 1433.19 L 458.346 1435.45 C 446.599 1448.19 434.635 1460.74 422.459 1473.08 L 656.037 1473.03 C 649.552 1475.58 637.3 1476.15 629.949 1476.62 C 591.15 1481.45 552.319 1486.02 513.459 1490.33 C 500.916 1491.77 466.224 1496.56 454.609 1496.66 L 453.658 1494.26 L 454.043 1475.1 C 448.487 1476.38 422.906 1475.8 416.289 1475.72 C 426.661 1464.15 445.774 1443.85 456.667 1433.19 z" fill="rgb(27,23,20)" transform="translate(0,0)"></path>
<path d="M 731.74 1538.86 C 758.879 1540.45 800.181 1538.8 828.689 1539.04 C 806.617 1558.34 784.688 1577.81 762.905 1597.44 C 754.504 1604.98 742.972 1614.51 735.164 1622.23 C 648.946 1623.32 561.716 1621.21 475.427 1622.15 C 440.916 1622.53 401.943 1621.07 367.936 1622.51 L 422.098 1572.8 C 430.365 1565.27 444.752 1551.44 453.391 1544.89 L 453.226 1593.21 L 686.318 1593.2 C 700.512 1580.92 717.75 1563.53 731.567 1550.24 L 731.74 1538.86 z" fill="rgb(252,235,225)" transform="translate(0,0)"></path>
<path d="M 764.51 1412.09 C 763.386 1416.92 737.465 1440.76 731.853 1446.67 L 731.742 1459.71 C 731.909 1486.09 731.908 1512.48 731.74 1538.86 L 731.567 1550.24 C 717.75 1563.53 700.512 1580.92 686.318 1593.2 C 685.819 1541.53 685.73 1489.86 686.052 1438.19 C 689.917 1439.81 702.248 1463.82 704.997 1468.78 C 712.714 1460.82 720.62 1453.48 728.701 1445.91 C 732.678 1440.72 759.287 1413.93 764.51 1412.09 z" fill="rgb(27,23,20)" transform="translate(0,0)"></path>
<path d="M 797.256 461.441 C 784.542 435.073 778.922 404.457 814.622 393.423 C 816.416 392.311 833.573 392.433 833.545 390.908 C 833.186 371.376 844.108 347.299 873.921 346.93 C 886.48 346.78 898.551 351.788 907.315 360.784 C 918.435 372.289 919.219 383.196 918.824 397.961 C 927.922 400.79 952.488 413.61 957.891 413.954 C 965.041 413.858 973.708 414.165 980.873 414.522 C 977.836 418.712 972.723 424.661 970.89 429.04 C 977.72 432.508 984.71 442.908 987.118 450.072 C 991.122 461.965 990.055 474.981 984.169 486.062 C 978.19 497.311 970.105 504.008 958.37 508.644 C 957.338 523.871 956.522 540.489 954.665 555.528 C 959.122 555.325 963.945 555.02 968.374 554.936 C 974.095 560.121 982.185 567.889 987.987 572.582 C 984.411 575.768 978.541 577.882 973.996 579.883 C 970.949 592.23 967.726 606.461 964.25 618.522 C 962.204 613.793 959.718 607.633 957.441 603.174 L 900.644 592.866 C 893.414 591.547 876.698 588.823 870.405 586.764 C 877.736 578.918 885.757 569.233 892.894 561.03 C 896.627 560.68 898.786 560.695 902.267 559.409 C 905.129 557.06 905.284 553.799 906.172 549.968 C 860.008 557.371 780.49 573.976 777.816 499.91 C 777.263 484.584 786.374 471.603 797.256 461.441 z" fill="rgb(27,23,20)" transform="translate(0,0)"></path>
<path d="M 892.782 438.319 C 887.144 435.87 879.633 433.618 879.302 426.682 C 886.486 413.857 901.575 421.526 904.168 392.436 C 909.353 394.574 913.496 396.197 918.824 397.961 C 927.922 400.79 952.488 413.61 957.891 413.954 C 965.041 413.858 973.708 414.165 980.873 414.522 C 977.836 418.712 972.723 424.661 970.89 429.04 C 977.72 432.508 984.71 442.908 987.118 450.072 C 991.122 461.965 990.055 474.981 984.169 486.062 C 978.19 497.311 970.105 504.008 958.37 508.644 C 957.338 523.871 956.522 540.489 954.665 555.528 C 959.122 555.325 963.945 555.02 968.374 554.936 C 974.095 560.121 982.185 567.889 987.987 572.582 C 984.411 575.768 978.541 577.882 973.996 579.883 C 970.949 592.23 967.726 606.461 964.25 618.522 C 962.204 613.793 959.718 607.633 957.441 603.174 L 900.644 592.866 C 893.414 591.547 876.698 588.823 870.405 586.764 C 877.736 578.918 885.757 569.233 892.894 561.03 C 896.627 560.68 898.786 560.695 902.267 559.409 C 905.129 557.06 905.284 553.799 906.172 549.968 C 908.537 544.284 914.157 523.666 916.241 516.713 C 927.962 516.692 939.048 515.678 949.549 510.029 C 932.463 508.718 927.397 506.128 913.901 495.696 C 908.663 499.302 903.812 502.35 897.376 503.459 C 882.925 505.948 866.615 495.969 864.421 480.925 C 863.621 475.471 865.037 469.924 868.352 465.52 C 874.937 456.72 884.187 455.362 894.067 453.739 C 893.966 448.494 893.347 443.527 892.782 438.319 z" fill="rgb(231,89,42)" transform="translate(0,0)"></path>
<path d="M 957.891 413.954 C 965.041 413.858 973.708 414.165 980.873 414.522 C 977.836 418.712 972.723 424.661 970.89 429.04 C 965.566 433.819 964.515 430.955 969.259 425.535 C 969.096 422.727 968.975 419.917 968.897 417.105 C 964.658 417.628 959.159 418.616 957.891 413.954 z" fill="rgb(27,23,20)" transform="translate(0,0)"></path>
<path d="M 968.897 417.105 C 976.287 418.466 973.203 419.764 969.259 425.535 C 969.096 422.727 968.975 419.917 968.897 417.105 z" fill="rgb(247,135,95)" transform="translate(0,0)"></path>
<path d="M 885.144 469.141 C 895.078 468.106 895.913 469.337 905.439 473.175 C 903.169 474.67 890.261 484.322 891.621 483.574 C 890.074 483.532 889.948 482.14 889.648 480.886 C 891.269 479.348 898.831 474.185 893.435 472.757 C 885.576 470.677 881.489 477.493 877.988 478.001 C 872.975 478.729 880.798 471.7 881.982 470.992 L 885.144 469.141 z" fill="rgb(27,23,20)" transform="translate(0,0)"></path>
<path d="M 927.592 415.438 C 932.676 417.365 928.201 418.469 926.891 422.49 C 925.459 426.889 925.894 431.153 925.318 435.775 C 917.842 431.592 923.527 420.414 927.592 415.438 z" fill="rgb(27,23,20)" transform="translate(0,0)"></path>
<path d="M 938.436 422.631 C 940.224 421.521 942.562 421.938 943.856 423.599 C 945.149 425.259 944.982 427.628 943.468 429.09 C 942.335 430.185 940.676 430.537 939.196 429.996 C 937.716 429.456 936.674 428.118 936.512 426.551 C 936.35 424.984 937.097 423.462 938.436 422.631 z" fill="rgb(27,23,20)" transform="translate(0,0)"></path>
<path d="M 951.046 442.848 C 954.511 443.627 964.149 447.928 964.722 451.929 C 958.62 451.52 952.606 449.39 951.046 442.848 z" fill="rgb(27,23,20)" transform="translate(0,0)"></path>
<path d="M 1301.03 455.145 C 1284.3 430.923 1308.14 431.352 1316.19 427.254 C 1319.1 425.774 1320.29 408.297 1336.32 413.688 C 1347.65 417.069 1367.91 449.251 1376.64 460.379 C 1377.62 451.595 1378.48 445.658 1385.82 440.078 C 1409.13 422.343 1421.41 473.395 1427.17 486.082 C 1436.47 506.555 1440.38 529.097 1444.99 550.22 C 1446.32 556.13 1452.55 585.705 1454.2 589.097 C 1459.44 593.837 1464.65 598.573 1470 603.205 C 1472.37 605.324 1481.87 613.501 1483.49 615.364 C 1486.46 625.695 1491.52 639.612 1494.89 650.168 C 1497.84 659.415 1505.47 685.385 1509.68 692.999 C 1508.26 695.246 1507.46 696.504 1506.68 699.06 C 1486.09 733.078 1444.09 745.517 1407.99 726.564 C 1379.09 711.388 1375.18 684.488 1368.99 655.224 L 1356.89 598.704 C 1355.71 593.164 1352.98 575.128 1350.71 570.794 C 1339.04 548.842 1320.92 529.782 1306.65 509.347 C 1295.42 493.249 1262.96 462.926 1301.03 455.145 z" fill="rgb(201,72,30)" transform="translate(0,0)"></path>
<path d="M 1454.2 589.097 C 1459.44 593.837 1464.65 598.573 1470 603.205 C 1469.82 617.608 1469.79 632.554 1469.49 646.851 C 1469.44 648.839 1465.48 649.025 1464.59 639.573 C 1463.19 624.501 1454.56 603.813 1454.2 589.097 z" fill="rgb(27,23,20)" transform="translate(0,0)"></path>
<path d="M 1301.03 455.145 L 1302.31 455.263 C 1304.98 455.419 1343.34 502.92 1343.72 507.785 C 1342.25 507.639 1340.25 507.602 1339.51 506.118 C 1334.73 496.611 1302.05 461.598 1301.03 455.145 z" fill="rgb(27,23,20)" transform="translate(0,0)"></path>
<path d="M 1376.04 459.55 C 1379.55 462.603 1377.07 465.679 1379.55 473.302 C 1384.78 489.379 1390.11 505.721 1396.22 521.459 C 1394.73 525.338 1392.57 528.201 1393.1 532.503 C 1393.47 535.49 1393.56 535.359 1392.73 538.049 C 1386.05 533.345 1389.42 527.176 1392.03 520.293 C 1387.6 506.481 1370.68 471.249 1376.04 459.55 z" fill="rgb(27,23,20)" transform="translate(0,0)"></path>
<path d="M 1316.37 428.6 C 1322.01 430.037 1362.78 484 1363.02 487.436 L 1363.18 489.146 C 1358.25 487.597 1318.23 434.604 1316.37 428.6 z" fill="rgb(27,23,20)" transform="translate(0,0)"></path>
<path d="M 1593.96 211.994 C 1597.41 201.304 1602.56 193.741 1613.14 188.629 C 1622.65 184.073 1633.61 183.551 1643.52 187.181 C 1653.08 190.737 1660.17 197.839 1664.22 207.128 C 1664.74 208.343 1665.25 209.567 1665.73 210.8 C 1675.33 205.713 1684.26 203.475 1695.11 207.078 C 1704.07 210.142 1711.34 216.806 1715.18 225.465 C 1719.99 236.087 1719.11 244.629 1716.47 255.287 C 1730.46 260.839 1740 268.956 1746.06 283.114 C 1751.54 296.2 1751.61 310.923 1746.25 324.059 C 1735.2 351.093 1713.07 354.47 1687.79 360.21 C 1687.72 366.352 1687.18 380.403 1687.67 385.765 C 1680.06 397.349 1646.36 428.54 1634.95 441.881 C 1627.82 436.302 1608.18 417.266 1601.89 410.34 C 1602.01 401.94 1602.05 393.493 1602.51 385.109 C 1602.85 379.452 1602.71 373.506 1602.73 367.819 C 1585.72 363.276 1573.15 353.182 1567.25 336.289 C 1560.39 316.664 1567.38 296.795 1569.12 276.943 L 1569.21 275.855 C 1559.22 271.247 1551.73 265.428 1547.93 254.509 C 1545.05 246.073 1545.7 236.827 1549.74 228.88 C 1553.88 220.876 1561.04 214.851 1569.63 212.139 C 1578.55 209.274 1585.15 210.355 1593.96 211.994 z" fill="rgb(201,72,30)" transform="translate(0,0)"></path>
<path d="M 1593.96 211.994 C 1597.41 201.304 1602.56 193.741 1613.14 188.629 C 1622.65 184.073 1633.61 183.551 1643.52 187.181 C 1653.08 190.737 1660.17 197.839 1664.22 207.128 C 1664.74 208.343 1665.25 209.567 1665.73 210.8 C 1675.33 205.713 1684.26 203.475 1695.11 207.078 C 1704.07 210.142 1711.34 216.806 1715.18 225.465 C 1719.99 236.087 1719.11 244.629 1716.47 255.287 C 1730.46 260.839 1740 268.956 1746.06 283.114 C 1751.54 296.2 1751.61 310.923 1746.25 324.059 C 1735.2 351.093 1713.07 354.47 1687.79 360.21 C 1686.51 356.619 1686.85 335.214 1686.84 330.216 C 1725.83 320.643 1712.03 274.729 1678.31 285.559 C 1649.17 294.92 1655.93 278.314 1650.63 259.94 C 1646.91 247.021 1625.1 257.864 1616.43 258.132 C 1609.72 258.339 1605.91 257.378 1598.64 255.281 C 1589.84 266.11 1586.52 264.183 1574.29 268.691 C 1570.85 269.958 1570.79 272.234 1569.21 275.855 C 1559.22 271.247 1551.73 265.428 1547.93 254.509 C 1545.05 246.073 1545.7 236.827 1549.74 228.88 C 1553.88 220.876 1561.04 214.851 1569.63 212.139 C 1578.55 209.274 1585.15 210.355 1593.96 211.994 z" fill="rgb(27,23,20)" transform="translate(0,0)"></path>
<path d="M 1602.73 367.819 C 1625.81 369.709 1635.41 365.197 1652.07 349.393 C 1644.42 372.494 1634.94 388.133 1607.99 391.068 C 1601.86 391.734 1603.37 392.117 1602.51 385.109 C 1602.85 379.452 1602.71 373.506 1602.73 367.819 z" fill="rgb(27,23,20)" transform="translate(0,0)"></path>
<path d="M 1603.01 282.537 C 1606.44 286.252 1600.22 303.806 1598.93 309.86 C 1603.65 310.575 1608.88 309.368 1610.41 313.663 C 1589.04 315.304 1596.07 305.864 1599.89 291.795 C 1600.93 287.953 1601.13 286.058 1603.01 282.537 z" fill="rgb(27,23,20)" transform="translate(0,0)"></path>
<path d="M 1584.17 272.524 C 1591.08 272.615 1598.65 277.56 1590.21 280.771 C 1580.25 281.315 1574.01 282.54 1584.17 272.524 z" fill="rgb(27,23,20)" transform="translate(0,0)"></path>
<path d="M 1623.78 270.578 C 1628.88 272 1638.33 278.584 1629.06 279.751 C 1619.53 280.287 1614.13 279.862 1623.78 270.578 z" fill="rgb(27,23,20)" transform="translate(0,0)"></path>
<path d="M 1628.54 311.794 C 1638.84 315.046 1612.37 325.489 1609.32 326.329 C 1606.9 324.443 1606.56 323.331 1610.23 322.437 C 1618.26 320.481 1622.64 317.233 1628.54 311.794 z" fill="rgb(27,23,20)" transform="translate(0,0)"></path>
<path d="M 1691.3 293.027 C 1692.62 293.29 1694.53 293.474 1694.91 295.025 C 1694.48 296.522 1692.27 296.48 1690.49 296.76 C 1683.41 297.869 1680.94 301.437 1676.73 306.931 C 1671.63 311.128 1673.4 296.911 1691.3 293.027 z" fill="rgb(27,23,20)" transform="translate(0,0)"></path>
<path d="M 1585.15 287.41 C 1591.7 289.62 1590.13 294.204 1587.27 299.589 C 1581.23 296.662 1582.01 292.588 1585.15 287.41 z" fill="rgb(27,23,20)" transform="translate(0,0)"></path>
<path d="M 1623.99 287.612 C 1629.22 291.301 1628.17 294.586 1625.26 299.573 C 1620.72 297.335 1618.62 293.379 1622.44 289.263 L 1623.99 287.612 z" fill="rgb(27,23,20)" transform="translate(0,0)"></path>
<path d="M 1151.63 1467.09 C 1179.61 1467.93 1204.31 1467.8 1232.01 1462.94 C 1232.96 1462.77 1233.92 1464.13 1234.36 1464.83 C 1233.57 1472.38 1234.2 1481.19 1234.25 1488.92 C 1234.79 1491.53 1234.6 1491.64 1235.73 1493.97 C 1238.39 1495.16 1238.39 1494.83 1238.98 1497.66 C 1242.39 1499.59 1244.21 1499.11 1248.33 1499 C 1249.58 1499.32 1250.6 1499.67 1251.82 1500.08 C 1285.01 1500.92 1297.82 1502.76 1329 1511.88 C 1359.58 1523.65 1397.23 1541.37 1390.8 1580.54 C 1328.8 1613.25 1211.54 1593.63 1145.45 1578.43 C 1144.46 1569.07 1145.26 1549.02 1145.26 1538.86 C 1145.25 1514.81 1145.05 1490.75 1144.66 1466.7 L 1145.81 1466.02 L 1151.63 1467.09 z" fill="rgb(231,89,42)" transform="translate(0,0)"></path>
<path d="M 1329 1511.88 C 1359.58 1523.65 1397.23 1541.37 1390.8 1580.54 C 1328.8 1613.25 1211.54 1593.63 1145.45 1578.43 C 1146.13 1571.72 1145.68 1558.65 1145.65 1551.47 C 1201.89 1559.44 1237.23 1564.39 1294.5 1563.31 C 1299.19 1539.6 1309.33 1525.76 1329 1511.88 z" fill="rgb(27,23,20)" transform="translate(0,0)"></path>
<path d="M 1151.63 1467.09 C 1179.61 1467.93 1204.31 1467.8 1232.01 1462.94 C 1232.96 1462.77 1233.92 1464.13 1234.36 1464.83 C 1233.57 1472.38 1234.2 1481.19 1234.25 1488.92 C 1214.1 1488.85 1165.65 1481.97 1151.63 1467.09 z" fill="rgb(27,23,20)" transform="translate(0,0)"></path>
<path d="M 1248.33 1499 C 1249.58 1499.32 1250.6 1499.67 1251.82 1500.08 C 1246.71 1503.86 1236.64 1508.05 1232.28 1512.37 C 1226.88 1517.72 1225.68 1512.87 1226.36 1512.34 C 1232.72 1507.26 1240.63 1501.84 1248.33 1499 z" fill="rgb(27,23,20)" transform="translate(0,0)"></path>
<path d="M 1235.73 1493.97 C 1238.39 1495.16 1238.39 1494.83 1238.98 1497.66 C 1233.66 1499.06 1219.18 1507.7 1217.97 1507.74 C 1207.05 1508.13 1236.34 1493.6 1235.73 1493.97 z" fill="rgb(27,23,20)" transform="translate(0,0)"></path>
<path d="M 877.219 1454.37 C 880.051 1455.39 893.876 1459.76 895.88 1461.03 C 919.221 1475.79 931.399 1482.37 960.011 1485.44 L 962.173 1488.2 C 964.18 1489.04 963.691 1489.85 964.012 1491.94 C 967.085 1494.82 967.948 1494.25 972.481 1495.22 C 974.794 1495.36 975.062 1495.77 976.939 1497.13 C 980.928 1498.69 993.052 1499.72 998.077 1500.48 C 1018.23 1503.65 1037.37 1511.44 1054 1523.24 C 1069.67 1533.66 1107.36 1561.47 1093.93 1585.69 C 1089.93 1592.91 1076.52 1596.44 1068.78 1597.36 C 999.566 1604.36 914.68 1587.12 852.287 1559.16 C 853.647 1552.66 855.093 1546.19 856.624 1539.73 C 863.211 1511.21 870.076 1482.76 877.219 1454.37 z" fill="rgb(231,89,42)" transform="translate(0,0)"></path>
<path d="M 1007.4 1569.73 C 1017.11 1547.15 1032.12 1533.75 1054 1523.24 C 1069.67 1533.66 1107.36 1561.47 1093.93 1585.69 C 1089.93 1592.91 1076.52 1596.44 1068.78 1597.36 C 999.566 1604.36 914.68 1587.12 852.287 1559.16 C 853.647 1552.66 855.093 1546.19 856.624 1539.73 C 901.32 1553.15 961.02 1563.47 1007.4 1569.73 z" fill="rgb(27,23,20)" transform="translate(0,0)"></path>
<path d="M 972.481 1495.22 C 974.794 1495.36 975.062 1495.77 976.939 1497.13 C 974.539 1498.52 946.669 1508.69 943.612 1509.61 C 953.52 1501.44 959.621 1497.56 972.481 1495.22 z" fill="rgb(27,23,20)" transform="translate(0,0)"></path>
<path d="M 962.173 1488.2 C 964.18 1489.04 963.691 1489.85 964.012 1491.94 L 963.009 1492.09 C 957.441 1492.86 941.533 1498.83 941.319 1498.61 C 936.669 1493.81 959.833 1488.62 962.173 1488.2 z" fill="rgb(27,23,20)" transform="translate(0,0)"></path>
<path d="M 1812.28 1421 C 1811.98 1429.75 1812.28 1438.73 1812.23 1447.54 C 1812.85 1455.23 1811.54 1480.14 1814.03 1483.39 C 1815.3 1484.69 1815.2 1485.05 1815.82 1487 C 1816.59 1489.59 1816.49 1490.06 1818.4 1492 C 1823.05 1492.3 1824.39 1492.24 1828.01 1494.87 C 1843.76 1500.94 1860.76 1511.81 1872.42 1524.01 C 1880.76 1533.42 1911.99 1575.1 1894.05 1586.17 C 1855.86 1609.73 1748.33 1595.07 1719.73 1563.56 C 1719.97 1557.71 1720.07 1549.57 1720.69 1543.93 L 1723 1458.19 C 1723.08 1446.98 1722.99 1436.54 1723.53 1425.29 C 1752.24 1437.41 1785.28 1438.12 1812.28 1421 z" fill="rgb(231,89,42)" transform="translate(0,0)"></path>
<path d="M 1789.78 1560.33 C 1803.56 1529.74 1841.88 1520.89 1872.42 1524.01 C 1880.76 1533.42 1911.99 1575.1 1894.05 1586.17 C 1855.86 1609.73 1748.33 1595.07 1719.73 1563.56 C 1719.97 1557.71 1720.07 1549.57 1720.69 1543.93 C 1743.39 1555.38 1764.67 1559.04 1789.78 1560.33 z" fill="rgb(27,23,20)" transform="translate(0,0)"></path>
<path d="M 1812.28 1421 C 1811.98 1429.75 1812.28 1438.73 1812.23 1447.54 C 1811.7 1454.21 1811.91 1458.86 1812.07 1465.45 C 1786.42 1471.59 1745.5 1474.6 1723 1458.19 C 1723.08 1446.98 1722.99 1436.54 1723.53 1425.29 C 1752.24 1437.41 1785.28 1438.12 1812.28 1421 z" fill="rgb(201,72,30)" transform="translate(0,0)"></path>
<path d="M 1818.4 1492 C 1823.05 1492.3 1824.39 1492.24 1828.01 1494.87 C 1820.51 1497.1 1811.39 1495.25 1803.55 1498.28 C 1801.85 1498.94 1798.33 1499.85 1797.15 1497.77 C 1797.26 1494.02 1815.34 1492.91 1818.4 1492 z" fill="rgb(27,23,20)" transform="translate(0,0)"></path>
<path d="M 1815.82 1487 C 1815.09 1487.19 1813.66 1487.66 1812.47 1487.38 C 1806.84 1485.45 1796.67 1490.31 1791.91 1488.75 C 1787.81 1487.4 1796.93 1485.05 1796.5 1485.15 C 1802.22 1483.84 1808.16 1483.34 1814.03 1483.39 C 1815.3 1484.69 1815.2 1485.05 1815.82 1487 z" fill="rgb(27,23,20)" transform="translate(0,0)"></path>
<path d="M 1664.49 1458.44 C 1668.5 1483.54 1668.84 1513.08 1671.95 1538.68 C 1672.9 1546.44 1673.46 1554.87 1674.13 1562.7 C 1620.28 1593.42 1541.01 1602.22 1479.31 1595.85 C 1473.92 1595.16 1452.3 1591.09 1450.22 1585.07 C 1439.61 1554.46 1487.14 1525.27 1502.93 1516.18 C 1523.34 1504.36 1533.73 1505.47 1552.27 1499.48 L 1553.59 1499.04 C 1556.01 1498.32 1556.65 1498 1559.13 1497.82 C 1563.9 1496.3 1563.14 1497.3 1565.91 1494.02 C 1565.27 1490.27 1565.83 1490.61 1569.62 1489.27 C 1570.7 1484.85 1569.96 1481.36 1569.49 1476.8 C 1580.25 1477.08 1657.08 1467.78 1663.78 1463.02 L 1664.49 1458.44 z" fill="rgb(231,89,42)" transform="translate(0,0)"></path>
<path d="M 1502.93 1516.18 C 1527.04 1527.31 1537.45 1539.48 1547.04 1563.79 C 1586.51 1563.1 1635.28 1552.9 1671.95 1538.68 C 1672.9 1546.44 1673.46 1554.87 1674.13 1562.7 C 1620.28 1593.42 1541.01 1602.22 1479.31 1595.85 C 1473.92 1595.16 1452.3 1591.09 1450.22 1585.07 C 1439.61 1554.46 1487.14 1525.27 1502.93 1516.18 z" fill="rgb(27,23,20)" transform="translate(0,0)"></path>
<path d="M 1559.13 1497.82 C 1567.05 1499.3 1576.11 1500.42 1582.84 1505.24 C 1583.78 1505.92 1582.81 1507.8 1582.32 1507.73 C 1576.85 1506.95 1571.28 1503.47 1565.51 1502.76 C 1559.86 1501.76 1557.56 1501.9 1553.59 1499.04 C 1556.01 1498.32 1556.65 1498 1559.13 1497.82 z" fill="rgb(27,23,20)" transform="translate(0,0)"></path>
<path d="M 1569.62 1489.27 C 1572.91 1490.84 1578.38 1491.54 1581.25 1492.87 C 1602.51 1502.77 1571.6 1493.87 1565.91 1494.02 C 1565.27 1490.27 1565.83 1490.61 1569.62 1489.27 z" fill="rgb(27,23,20)" transform="translate(0,0)"></path>
<path d="M 510.048 1207.47 C 537.335 1194.42 564.045 1178.99 591.444 1165.94 C 606.047 1160.38 621.322 1146.01 637.299 1148.82 C 650.567 1151.15 654.489 1182.52 646.688 1185.9 C 643.088 1180.69 646.058 1166.82 642.598 1159.37 C 641.298 1156.57 639.495 1154.61 636.439 1153.74 C 625.811 1150.73 561.183 1187.3 547.568 1194.35 L 549.072 1196.37 C 582.288 1189.35 610.643 1209.46 613.331 1244.11 C 613.527 1246.63 624.072 1246.07 627.104 1247.05 C 635.491 1249.75 643.323 1254.25 650.138 1259.79 C 657.947 1250.85 665.144 1244.35 676.938 1241.01 C 690.032 1237.39 704.033 1239.18 715.789 1246 C 731.309 1254.96 737.143 1267.45 741.404 1283.95 L 753.84 1288.36 C 779.655 1272.56 807.323 1253.4 833.623 1238.43 C 849.403 1229.44 858.043 1263.39 851.759 1275.41 L 850.449 1275.53 C 846.679 1267.69 849.427 1248.45 842.008 1243.38 C 832.945 1242.54 813.212 1256.84 804.886 1262.14 L 756.722 1292.79 C 755.979 1297.68 756.393 1298.84 752.923 1301.52 C 748.874 1301.9 744.52 1299.48 740.558 1297.82 C 735.752 1315.34 726.887 1328.48 709.142 1334.91 C 696.275 1339.57 682.068 1338.82 669.761 1332.84 C 657.846 1327.14 648.716 1316.9 644.421 1304.41 C 639.752 1290.44 641.122 1277.77 647.568 1264.74 C 639.968 1258.71 632.571 1253.64 622.953 1251.25 C 622.088 1250.55 614.556 1250.65 614.187 1251.67 C 604.33 1278.84 582.626 1299.77 550.604 1291.38 C 537.667 1287.89 526.676 1279.35 520.109 1267.67 C 511.74 1252.73 512.92 1239.21 517.193 1223.45 L 506.577 1218.91 C 507.826 1215.61 509.033 1210.95 510.048 1207.47 z" fill="rgb(27,23,20)" transform="translate(0,0)"></path>
<path d="M 549.072 1196.37 C 542.595 1198.05 538.142 1200.53 532.271 1204.71 C 527.405 1207.6 525.361 1214.7 519.303 1209.54 C 518.114 1208.52 526.458 1204.72 527.24 1204.3 C 533.811 1200.79 540.735 1197.26 547.568 1194.35 L 549.072 1196.37 z" fill="rgb(252,235,225)" transform="translate(0,0)"></path>
<path d="M 684.409 1244.57 C 708.615 1240.78 731.334 1257.27 735.224 1281.46 C 739.114 1305.65 722.71 1328.43 698.534 1332.42 C 674.226 1336.42 651.292 1319.91 647.381 1295.59 C 643.47 1271.26 660.071 1248.39 684.409 1244.57 z" fill="rgb(252,235,225)" transform="translate(0,0)"></path>
<path d="M 553.987 1200.35 C 577.88 1195.33 601.327 1210.59 606.426 1234.46 C 611.525 1258.34 596.354 1281.84 572.498 1287.02 C 548.521 1292.23 524.876 1276.97 519.752 1252.97 C 514.627 1228.98 529.975 1205.39 553.987 1200.35 z" fill="rgb(252,235,225)" transform="translate(0,0)"></path>
<path d="M 849.007 984.334 C 847.461 989.056 841.997 1005.93 842.275 1009.96 C 843.289 1024.66 847.832 1039.8 849.174 1054.9 C 850.795 1073.16 860.095 1104.88 828.334 1097.47 C 822.863 1096.19 819.989 1089.16 817.963 1084.45 L 817.614 1083.63 L 817.075 1084.95 C 813.572 1093.65 812.11 1102.93 810.744 1111.32 C 809.619 1118.23 806.683 1134.2 799.238 1135.87 C 788.925 1137.25 786.758 1135.94 777.156 1141.38 C 774.216 1143.04 761.211 1137.32 756.377 1138.32 C 749.77 1139.69 741.016 1135.47 739.311 1128.36 L 737.661 1126.74 C 731.116 1122.23 730.386 1120.35 727.092 1113.42 C 728.473 1101.52 735.144 1079.84 738.48 1068.1 L 757.791 999.791 C 795.211 1003.03 814.487 999.34 849.007 984.334 z" fill="rgb(231,89,42)" transform="translate(0,0)"></path>
<path d="M 737.661 1126.74 C 739.487 1119.53 751.23 1064.51 753.914 1062.86 L 754.908 1062.94 C 756.348 1065.14 744.486 1113.66 742.832 1120.5 L 741.86 1124.52 C 741.408 1126.44 740.62 1127.07 739.311 1128.36 L 737.661 1126.74 z" fill="rgb(27,23,20)" transform="translate(0,0)"></path>
<path d="M 772.216 1062.67 C 776.289 1067.29 764.421 1107.22 764.158 1116.01 C 764.061 1119.27 761.503 1130.3 760.044 1133.56 C 759.371 1133.03 757.531 1131.8 757.711 1130.94 C 759.836 1120.85 768.119 1068.54 772.216 1062.67 z" fill="rgb(27,23,20)" transform="translate(0,0)"></path>
<path d="M 792.353 1063.62 C 796.185 1065.96 794.712 1066.21 794.084 1070.99 L 793.128 1078 L 789.129 1107.01 C 788.097 1114.29 786.411 1127.82 784.548 1134.53 C 784.098 1134.31 782.05 1133.39 782.081 1133 C 783.471 1115.47 787.616 1094.55 789.838 1076.97 C 790.737 1069.86 791.216 1067.04 792.353 1063.62 z" fill="rgb(27,23,20)" transform="translate(0,0)"></path>
<path d="M 810.118 1051.37 C 812.797 1052.29 813.629 1052.51 814.022 1055.43 C 815.215 1064.29 817.489 1073.01 818.446 1081.9 C 812.443 1080.7 813.136 1079.47 812.169 1072.99 L 811.082 1065.99 C 810.162 1059.66 809.862 1057.9 810.118 1051.37 z" fill="rgb(27,23,20)" transform="translate(0,0)"></path>
<metadata><recraft-signature>{"signed_by": "recraft", "signature_b64": "yO+uOq6n60Hs1jcQ9XRaIXKVtrk/pKW8URewdRMSL1FU++v6XP/CR/iDAtI139eFN9vZQJwNiaN2vWSO7F56Cw==", "signing_algo": "Ed25519", "generation_timestamp": 1783393623, "identifier": "262d75ab-c09d-4468-83be-e61df234ad12"}</recraft-signature></metadata></svg>