<svg xmlns="http://www.w3.org/2000/svg" height="1792" preserveAspectRatio="none" style="display: block;" version="1.1" viewBox="0 0 2432 1792" width="2432">
<path d="M 0 0 L 2432 0 L 2432 1792 L 2359.95 1792 L 2353.44 1792 L 1927.39 1792 L 1870.47 1792 L 950.272 1792 L 858.952 1792 L 380.099 1792 L 373.601 1792 L 0 1792 L 0 0 z" fill="rgb(255,255,255)" transform="translate(0,0)"></path>
<path d="M 1200.65 597.756 L 1200.48 596.809 C 1197.96 583.497 1194.64 574.939 1192.81 560.429 C 1186.76 512.556 1199.59 465.484 1226.39 425.68 C 1262.86 371.504 1319.58 334.262 1383.79 322.333 C 1451.62 309.075 1521.95 323.099 1579.51 361.363 C 1611.76 383.162 1634.65 408.164 1656.04 440.52 C 1720.61 451.137 1772.98 483.895 1811.07 537.022 C 1846.15 586.861 1860.19 648.518 1850.13 708.632 C 1839.63 769.057 1805.68 822.887 1755.68 858.396 C 1753.53 859.943 1751.31 861.403 1749.04 862.773 C 1732.45 901.112 1699.64 922.659 1657.45 920.232 C 1650.22 965.512 1642.52 1020.39 1633.55 1064.83 C 1676.83 1072.91 1718.87 1080.75 1761.47 1092.15 C 1895.68 1128.08 2044.02 1199.66 2144.86 1296.29 C 2175.99 1326.2 2203.82 1359.36 2227.89 1395.19 C 2308.7 1513.24 2341 1652.65 2359.95 1792 L 2353.44 1792 L 1927.39 1792 L 1870.47 1792 L 950.272 1792 L 858.952 1792 L 380.099 1792 L 373.601 1792 C 386.284 1747.66 401.845 1701.14 416.134 1657.14 L 459.101 1522.64 L 525.796 1313.48 C 533.282 1290.37 546.84 1244.48 557.033 1221.74 C 562.252 1210.1 600.722 1205.67 615.228 1204.37 C 616.046 1198.96 620.278 1173.08 619.897 1169.16 C 617.468 1147.91 610.076 1127.08 606.214 1105.96 C 592.97 1033.53 586.757 892.225 673.47 863.027 C 689.3 832.21 708.257 816.794 742.448 811.922 C 748.592 805.549 761.121 796.422 764.657 791.004 C 772.678 778.712 780.513 762.009 787.396 748.674 C 799.397 725.913 811.254 703.077 822.966 680.167 C 832.494 661.548 837.728 647.936 852.839 633.131 C 834.34 631.253 824.851 627.877 808.455 618.896 C 800.238 614.396 772.663 587.058 778.634 578.705 C 788.249 575.85 936.644 562.678 940.127 563.885 C 941.236 564.27 941.255 564.081 941.591 565.219 C 943.304 571.031 937.797 581.947 935.218 587.101 C 923.889 609.748 903.208 622.631 879.978 630.538 C 909.678 647.164 905.445 673.763 895.759 701.474 C 884.379 734.031 872.765 769.85 857.779 801.023 C 884.324 826.035 883.289 863.723 889.919 899.309 C 906.38 877.362 942.946 843.129 972.981 859.252 C 979.943 862.954 985.056 869.379 987.1 876.995 C 989.962 887.285 977.65 927.333 975.308 943.829 C 972.367 965.287 970.443 986.872 969.541 1008.51 C 968.604 1027.05 968.369 1047.77 964.577 1065.73 C 959.739 1089.69 951.382 1112.79 939.779 1134.3 C 1010.49 1107.87 1079.56 1090.65 1153.77 1077.72 C 1179.3 1073.27 1208.17 1070.51 1232.52 1065.82 C 1240.31 1024.05 1247.23 982.206 1256.14 940.655 C 1189.69 886.929 1166.35 807.758 1187.39 725.452 C 1168.54 717.009 1154.2 699.355 1149.43 679.311 C 1145.42 661.796 1148.43 643.406 1157.81 628.081 C 1167.5 612.683 1182.91 601.772 1200.65 597.756 z" fill="rgb(27,23,20)" transform="translate(0,0)"></path>
<path d="M 935.844 1142.17 C 988.828 1121.93 1043.34 1105.94 1098.86 1094.34 C 1117.68 1090.22 1145.46 1084.42 1164.72 1081.93 C 1177.11 1153.03 1213.3 1208.27 1272.5 1249.74 C 1335.03 1292.86 1411.96 1309.77 1486.8 1296.83 C 1561.89 1282.98 1628.47 1240.07 1672.11 1177.42 C 1689.94 1151.64 1705.91 1117.05 1711.93 1086.28 C 1829.41 1111.29 1941.3 1157.69 2042.01 1223.16 C 2060.95 1235.61 2087.87 1254.36 2104.87 1269.52 C 2066.15 1297.29 2031.65 1330.52 2002.45 1368.17 C 1999.04 1372.53 1987.79 1385.24 1990.31 1390.02 C 1992.05 1390.1 1993.32 1390.58 1994.52 1388.95 C 2025.42 1347.12 2065.73 1302.63 2109.49 1273.27 C 2243.6 1383.81 2309.08 1537.9 2340.33 1705.2 C 2344.98 1730.12 2350.87 1764.55 2353.25 1789.47 C 2353.32 1790.31 2353.39 1791.15 2353.44 1792 L 1927.39 1792 L 1870.47 1792 L 950.272 1792 C 945.476 1718.7 935.606 1647.48 924.901 1574.91 C 922.06 1556.02 918.956 1537.18 915.592 1518.38 C 909.009 1480.2 909.683 1479.16 915.785 1440.8 C 919.199 1419.51 922.446 1398.2 925.524 1376.86 C 928.539 1356.35 931.561 1335.86 934.546 1315.29 C 936.363 1302.77 937.328 1293.74 926.49 1284.54 C 915.168 1274.95 900.126 1269.52 886.381 1264.08 C 901.516 1226.49 919.389 1178.37 935.844 1142.17 z" fill="rgb(231,89,42)" transform="translate(0,0)"></path>
<path d="M 1870.47 1792 C 1892.22 1734.27 1910.42 1679.2 1923.87 1618.68 C 1925.51 1611.27 1929.87 1582.85 1933.77 1580.07 L 1935.82 1580.22 C 1937.73 1587.52 1935.27 1622.7 1934.98 1632.41 C 1933.39 1685.4 1929.16 1739.08 1927.39 1792 L 1870.47 1792 z" fill="rgb(27,23,20)" transform="translate(0,0)"></path>
<path d="M 555.717 1239.78 C 568.637 1254.16 583.665 1262.37 601.343 1269.95 C 675.025 1301.53 755.187 1321.41 835.225 1326.5 C 862.865 1328.26 904.527 1328.12 928.419 1313.94 C 925.115 1347.13 917.937 1384.27 913.015 1417.66 L 880.167 1642.85 C 873.265 1689.3 863.573 1745.88 858.952 1792 L 380.099 1792 C 396.961 1736.26 414.507 1680.72 432.732 1625.41 L 521.387 1347.35 C 532.574 1312.08 545.316 1275.04 555.717 1239.78 z" fill="rgb(231,89,42)" transform="translate(0,0)"></path>
<path d="M 1360.03 450.508 C 1363.74 448.725 1367.71 446.908 1371.35 445.017 C 1375.96 550.116 1448.79 626.853 1553.07 639.683 C 1554.04 683.797 1569.76 724.77 1602.01 755.538 C 1607.98 761.311 1614.49 766.502 1621.44 771.04 C 1622.34 771.486 1625.09 772.525 1625.91 772.059 C 1656.06 754.822 1690.73 753.125 1719.63 776.651 C 1735.5 789.365 1745.54 807.97 1747.46 828.216 C 1754.96 905.494 1653.59 943.107 1603.8 887.482 C 1602.24 885.733 1600.16 886.191 1598.23 886.553 C 1597.55 887.996 1597.23 889.326 1597.69 890.884 C 1605.92 918.667 1622.98 940.109 1645.36 956.462 C 1638.46 993.6 1633.19 1032.09 1626.41 1069.69 C 1652.98 1074.31 1679.47 1079.41 1705.86 1085.01 C 1700.44 1115.21 1681.76 1153.73 1663.86 1178.49 C 1620.04 1238.97 1554.15 1279.75 1480.46 1291.98 C 1407.39 1303.44 1332.75 1285.59 1272.75 1242.33 C 1217.38 1202.01 1181.65 1149.21 1170.95 1080.88 C 1191.81 1076.88 1216.38 1074.11 1237.56 1071.37 C 1243.18 1039.63 1249.13 1007.95 1255.4 976.338 C 1316.59 1027.28 1396.56 1034.92 1462.96 988.762 C 1467.37 985.7 1480.02 978.047 1479.65 972.327 C 1477.39 970.991 1477.11 970.825 1474.29 971.439 C 1452.05 975.967 1428.24 984.774 1405.52 985.691 C 1322.48 989.044 1238.76 939.24 1203.88 864.55 C 1184.46 823.554 1180.19 777.007 1191.81 733.16 C 1196.68 714.922 1205.73 693.546 1212.24 675.54 C 1224.09 642.728 1237.69 610.087 1249.61 577.348 C 1252.52 573.053 1261.25 551.984 1265.84 544.257 C 1291.75 500.583 1317.49 476.72 1360.03 450.508 z" fill="rgb(247,241,234)" transform="translate(0,0)"></path>
<path d="M 1291.55 651.063 C 1317.58 651.124 1319.41 681.573 1295.89 690.939 C 1269.74 692.332 1265.91 659.957 1291.55 651.063 z" fill="rgb(27,23,20)" transform="translate(0,0)"></path>
<path d="M 1449.07 712.188 C 1475.58 711.237 1477.98 742.371 1453.99 751.775 C 1428.05 752.352 1425.3 721.933 1449.07 712.188 z" fill="rgb(27,23,20)" transform="translate(0,0)"></path>
<path d="M 1377.84 678.494 C 1379.65 679.313 1379.36 679.306 1380.92 680.644 C 1381.12 687.077 1365.89 719.946 1362.44 727.896 C 1316.3 729.598 1333.15 747.198 1352.06 771.094 C 1354.4 774.063 1353.77 774.856 1353.09 778.147 C 1342.28 774.84 1330.04 753.436 1327.63 742.325 C 1323.75 724.447 1345.08 724.113 1358.25 722.364 C 1365.11 708.591 1370.32 691.792 1377.84 678.494 z" fill="rgb(27,23,20)" transform="translate(0,0)"></path>
<path d="M 1293.42 606.228 C 1307.69 604.982 1321.04 607.809 1329.48 620.886 C 1330.61 622.635 1330.7 624.816 1329.37 626.512 C 1324.87 627.442 1322.34 621.498 1319.14 618.146 C 1305.95 608.651 1297.71 609.505 1284.09 617.25 C 1279.6 619.805 1272.19 612.562 1293.42 606.228 z" fill="rgb(27,23,20)" transform="translate(0,0)"></path>
<path d="M 1376.81 811.331 C 1392.33 817.544 1366.42 854.645 1342.74 828.486 C 1341.99 826.848 1340.78 824.906 1340.87 822.988 C 1340.93 821.942 1342.22 819.094 1343.69 820.039 C 1349.5 823.785 1349.12 830.791 1358.48 831.803 C 1362.84 832.274 1365.83 831.387 1369.37 828.823 C 1376.82 823.421 1372.89 817.893 1376.81 811.331 z" fill="rgb(27,23,20)" transform="translate(0,0)"></path>
<path d="M 1653.6 803.354 C 1657.16 803.319 1662.34 803.448 1665.68 804.435 C 1667.52 804.98 1667.62 808.046 1666.44 808.864 C 1663.9 810.616 1656.8 808.947 1653.34 809.224 C 1641.61 810.163 1635.87 811.042 1627.63 819.664 C 1626.49 821.384 1624.11 826.37 1622.1 826.503 C 1615.17 826.959 1621.89 817.862 1622.89 816.576 C 1631.03 806.09 1641.35 804.49 1653.6 803.354 z" fill="rgb(27,23,20)" transform="translate(0,0)"></path>
<path d="M 1454.44 662.398 C 1465.26 662.07 1471.84 662.559 1481.61 668.722 C 1487.28 672.299 1497.73 685.494 1492.51 692.189 L 1491.67 693.341 L 1490.89 692.681 C 1489.71 691.7 1488.33 690.646 1488.1 689.029 C 1486.35 676.821 1474.59 669.141 1463 668.117 C 1460.59 667.7 1456.79 668.768 1454.56 667.704 C 1451.82 666.396 1453.42 663.922 1454.44 662.398 z" fill="rgb(27,23,20)" transform="translate(0,0)"></path>
<path d="M 950.906 861.255 C 968.065 859.977 982.481 866.362 981.48 886.584 C 981.076 894.741 977.453 905.201 975.382 913.36 C 973.007 922.986 971.036 932.708 969.475 942.5 C 966.196 964.43 963.969 990.073 963.327 1012.2 C 962.283 1048.15 958.073 1079.82 943.366 1113 C 937.864 1125.41 930.629 1137.97 925.629 1150.7 C 903.205 1207.8 878.611 1264.34 856.942 1321.73 C 777.021 1321.27 684.945 1297.55 611.256 1267.89 C 614.796 1246.42 618.158 1224.93 621.343 1203.41 C 622.563 1195.37 626.708 1171.66 625.865 1165.1 C 623.515 1148.16 617.267 1131.45 614.063 1114.62 C 600.652 1044.17 592.773 939.604 647.389 884.049 C 665.823 868.768 686.123 861.15 709.467 872.118 C 745.392 888.998 740.499 935.774 747.532 968.7 C 750.986 984.875 753.228 1002.89 755.342 1018.89 C 754.325 1042.35 737.289 1048.13 717.814 1044.03 C 690.175 1038.21 688.974 975.513 675.931 968.26 L 674.006 968.89 C 675.094 979.488 679.734 989.606 682.747 999.648 C 690.639 1025.95 701.539 1058.17 736.569 1050.57 C 748.125 1048.07 754.725 1040.81 760.298 1031.16 C 804.056 1059.54 823.651 1113.39 805.268 1163.25 C 801.877 1172.45 794.341 1177.71 793.034 1188 L 795.395 1188.43 C 814.584 1171.51 820.443 1136.37 817.357 1112.43 C 814.782 1092.44 809.756 1093.48 815.542 1070.96 C 822.874 1042.4 843.33 1021.68 868.59 1007.24 C 869.835 1001.77 871.648 995.575 873.12 990.086 C 899.575 968.993 895.238 938.535 891.348 908.619 C 905.519 885.229 924.468 868.688 950.906 861.255 z" fill="rgb(247,241,234)" transform="translate(0,0)"></path>
<path d="M 739.655 818.303 C 747.035 817.693 754.465 818.355 761.621 820.259 C 784.655 826.424 800.01 844.03 804.415 867.428 C 811.114 906.46 818.317 946.022 823.324 985.316 C 827.258 1016.19 800.071 1032.05 772.014 1023.34 C 768.785 1021.94 764.694 1019.47 761.542 1017.69 L 750.918 950.624 C 743.961 904.457 740.487 860.516 681.041 861.263 C 695.023 836.277 711.432 823.014 739.655 818.303 z" fill="rgb(247,241,234)" transform="translate(0,0)"></path>
<path d="M 798.693 788.287 C 820.886 786.962 840.644 791.666 856.469 808.141 C 863.103 815.06 868.17 823.326 871.325 832.378 C 880.746 858.636 886.012 914.121 888.453 942.759 C 890.658 968.629 873.159 991.726 844.215 989.771 C 839.072 988.267 834.237 985.639 829.415 983.261 C 823.759 956.215 819.788 923.973 815.57 896.413 C 808.696 851.491 802.582 820.149 750.097 812.186 C 765.49 797.182 777.663 791.52 798.693 788.287 z" fill="rgb(247,241,234)" transform="translate(0,0)"></path>
<path d="M 863.281 635.218 C 877.029 633.838 888.138 638.701 893.522 651.971 C 900.936 670.245 893.127 690.33 887.561 708.005 C 878.014 738.322 864.791 767.374 853.732 797.127 C 840.821 788.138 830.972 784.779 815.66 782.487 C 798.154 781.033 789.646 783.117 773.259 788.297 C 779.29 778.44 786.502 763.804 791.936 753.376 L 827.405 684.716 C 834.204 671.652 841.589 655.905 850.4 644.231 C 854.217 639.174 857.712 637.762 863.281 635.218 z" fill="rgb(247,241,234)" transform="translate(0,0)"></path>
<path d="M 932.886 569.448 L 934.827 569.525 L 935.414 571.257 C 927.981 600.311 898.166 622.6 869.203 626.22 C 844.558 629.3 825.863 624.402 805.964 609.869 C 795.872 601.37 790.534 594.439 784.388 582.978 C 833.918 578.806 883.418 574.296 932.886 569.448 z" fill="rgb(247,241,234)" transform="translate(0,0)"></path>
<path d="M 1220.69 600.686 L 1227.24 601.565 C 1229.75 602.163 1231 602.172 1232.73 604.068 C 1228.85 617.157 1221.6 634.391 1216.62 647.453 C 1207.45 671.626 1198.5 695.887 1189.79 720.233 C 1169.7 709.59 1155.67 692.205 1153.63 669.041 C 1152.3 652.924 1157.45 636.944 1167.94 624.634 C 1182.38 607.62 1199.35 602.268 1220.69 600.686 z" fill="rgb(247,241,234)" transform="translate(0,0)"></path>
<path d="M 831.169 991.084 C 836.863 993.159 837.96 994.111 844.227 995.614 C 854.159 996.756 856.282 995.894 865.742 994.12 C 864.635 997.952 864.534 999.476 863.766 1003.28 C 857.28 1007.48 851.338 1011.41 845.088 1015.92 C 842.809 1010.72 840.501 1005.41 838.139 1000.26 C 835.782 998.093 833.114 993.809 831.169 991.084 z" fill="rgb(255,255,255)" transform="translate(0,0)"></path>
<path d="M 831.169 991.084 C 836.863 993.159 837.96 994.111 844.227 995.614 C 840.702 997.445 840.138 997.001 838.139 1000.26 C 835.782 998.093 833.114 993.809 831.169 991.084 z" fill="rgb(247,241,234)" transform="translate(0,0)"></path>
<path d="M 608.701 138.111 C 625.128 137.375 629.074 147.117 633.212 160.635 C 636.918 172.742 640.649 184.922 644.383 197.022 L 675.741 297.674 C 680.601 301.421 685.743 304.958 690.695 308.64 C 728.604 336.829 767.273 364.132 804.656 392.993 C 807.099 394.879 811.323 399.197 811.962 402.125 C 813.797 410.529 808.109 418.724 800.488 421.913 C 771.633 434.554 742.606 446.838 713.729 459.449 L 622.958 498.906 C 609.593 504.704 575.976 520.382 564.406 522.164 C 558.674 521.177 555.449 520.086 550.663 516.737 C 529.949 502.242 509.537 486.609 489.273 471.544 L 442.138 436.488 C 430.015 427.457 410.828 416.195 406.193 401.837 C 391.151 355.242 377.088 308.282 362.379 261.576 C 359.973 253.936 357.412 247.096 361.735 239.64 C 364.215 235.082 369.201 232.857 373.724 230.814 C 385.181 225.64 397.722 220.938 409.366 216.34 L 474.816 190.622 C 517.738 173.828 565.78 153.574 608.701 138.111 z" fill="rgb(27,23,20)" transform="translate(0,0)"></path>
<path d="M 608.388 143.927 C 615.339 143.373 621.723 145.524 624.264 152.649 C 630.062 168.909 634.839 185.731 639.885 202.268 L 669.565 297.76 C 591.064 328.757 512.736 360.19 434.584 392.058 L 421.106 397.335 L 389.76 297.629 C 384.89 281.93 380.123 266.383 375.734 250.539 C 370.686 232.319 396.133 227.692 409.96 222.385 L 450.533 206.384 C 502.476 186.115 557.103 165.384 608.388 143.927 z" fill="rgb(247,241,234)" transform="translate(0,0)"></path>
<path d="M 392.081 245.058 C 415.395 236.639 439.278 226.701 462.432 217.609 L 608.257 160.762 C 621.053 203.445 636.994 248.252 648.974 290.735 C 585.607 318.456 514.363 345.236 449.774 371.182 C 444.833 373.604 438.751 375.796 433.546 377.815 C 430.479 369.213 427.443 358.947 424.605 350.148 L 404.208 284.491 C 400.461 272.563 395.064 256.941 392.081 245.058 z" fill="rgb(27,23,20)" transform="translate(0,0)"></path>
<path d="M 399.161 248.384 C 423.592 239.669 448.448 229.804 472.508 219.965 C 515.879 202.23 561.077 186.66 603.987 168.141 C 616.91 207.913 629.514 247.788 641.799 287.761 L 451.961 364.063 L 437.047 370.326 C 434.499 360.825 431.643 351.409 428.483 342.093 C 418.909 310.794 409.135 279.557 399.161 248.384 z" fill="rgb(231,89,42)" transform="translate(0,0)"></path>
<path d="M 671.651 303.14 C 674.925 303.598 794.466 392.334 806.2 400.949 C 756.796 423.955 703.371 446.194 653.175 467.776 L 596.729 492.118 C 589.689 495.153 568.369 506.084 562.366 504.054 C 518.719 469.997 469.797 435.275 425.07 402.101 C 431.629 399.295 438.541 396.423 445.193 393.862 C 520.855 364.728 595.889 331.876 671.651 303.14 z" fill="rgb(247,241,234)" transform="translate(0,0)"></path>
<path d="M 608.847 347.326 C 628.214 339.156 647.776 331.796 667.145 323.811 L 668.146 324.724 C 681.506 336.805 699.83 348.905 714.011 360.535 C 719.733 365.229 727.429 369.969 732.231 375.402 L 732.028 377.659 C 720.377 384.067 687.549 397.325 674.143 402.638 C 649.584 412.37 622.262 425.437 597.989 434.676 C 578.621 442.84 559.186 450.847 539.688 458.697 C 517.84 444.044 487.734 420.789 466.856 404.453 C 513.344 385.257 562.053 365.491 608.847 347.326 z" fill="rgb(27,23,20)" transform="translate(0,0)"></path>
<path d="M 665.349 330.896 C 683.921 344.852 706.142 361.007 723.829 375.614 C 683.396 390.682 636.597 411.895 596.137 428.867 C 577.493 436.843 558.713 444.497 539.804 451.824 C 524.571 439.273 494.556 417.456 478.227 406.22 L 620.571 348.643 C 635.265 342.864 650.866 337.019 665.349 330.896 z" fill="rgb(231,89,42)" transform="translate(0,0)"></path>
<path d="M 162.03 821.371 C 197.165 821.678 189.35 846.19 190.523 868.03 C 191.757 891.007 226.554 882.557 241.579 879.467 L 244.623 866.801 C 250.465 861.137 273.849 846.982 281.306 853.327 C 290.744 861.36 299.973 882.07 308.065 892.744 C 314.18 900.811 310.587 903.947 321.148 910.374 C 323.247 914.577 322.462 914.937 322.209 919.988 C 332.573 930.866 336.326 926.608 336.586 942.518 C 340.249 944.256 344.486 945.676 346.673 948.825 C 348.319 958.044 348.388 960.572 357.264 962.468 C 359.955 965.43 359.13 964.307 359.192 969.476 C 371.064 992.87 409.789 1011.02 432.436 1021.76 C 446.873 1028.61 456.449 1053.65 446.762 1067.36 C 434.4 1084.86 408.955 1094.24 388.716 1098.47 C 385.2 1099.11 381.665 1099.65 378.117 1100.09 C 303.357 1108.65 256.496 1058.22 200.56 1019.99 C 188.976 1012.07 161.93 1018.36 141.976 1004.55 C 123.972 992.089 64.6464 970.201 62.7424 944.141 C 62.3135 937.941 64.4272 931.833 68.5968 927.224 C 73.8084 921.575 80.2794 920.345 87.4565 919.859 C 92.7549 909.116 98.3873 898.542 104.345 888.151 C 115.682 868.706 135.397 838.506 153.452 824.436 C 155.022 823.212 160.008 821.904 162.03 821.371 z" fill="rgb(27,23,20)" transform="translate(0,0)"></path>
<path d="M 106.862 896.357 C 122.306 868.895 132.563 854.456 154.018 831.611 C 157.222 835.317 165.199 844.258 167.063 847.972 C 173.071 859.94 169.04 885.08 181.451 894.509 C 207.991 914.672 231.976 890.766 260.79 890.769 L 259.953 891.341 C 252.027 896.699 249.848 900.318 256.046 909.215 C 265.36 912.71 272.09 905.917 274.329 910.468 C 272.805 912.065 272.942 912.003 270.905 912.833 C 260.196 928.764 281.432 928.285 284.409 931.647 C 283.7 944.914 286.898 951.787 300.992 944.517 C 303.915 945.152 302.486 944.581 305.029 947.238 C 305.947 950.498 310.476 952.695 309.599 954.775 C 304.095 967.826 318.036 962.789 321.275 962.031 L 322.109 961.763 C 324.321 961.036 334.568 956.105 329.909 963.45 C 324.139 967.378 314.034 974.365 327.618 978.533 C 331.046 979.585 335.958 972.53 339.391 974.225 C 340.373 974.918 338.811 982.694 338.71 982.989 C 336.868 988.419 338.169 999.603 345.524 992.125 C 348.431 989.171 353.697 973.575 357.297 978.101 C 371.824 996.759 397.502 1012.42 419.304 1022.07 C 448.625 1035.06 450.154 1051.91 420.701 1065.15 C 379.034 1085.65 328.031 1067.47 293.107 1040.35 C 258.447 1013.43 235.365 997.551 193.326 981.664 C 191.244 953.527 173.907 922.102 146.737 912.047 C 131.419 906.379 121.809 904.258 106.862 896.357 z" fill="rgb(247,241,234)" transform="translate(0,0)"></path>
<path d="M 305.029 947.238 C 305.947 950.498 310.476 952.695 309.599 954.775 C 304.095 967.826 318.036 962.789 321.275 962.031 L 322.109 961.763 C 324.321 961.036 334.568 956.105 329.909 963.45 C 324.139 967.378 314.034 974.365 327.618 978.533 C 331.046 979.585 335.958 972.53 339.391 974.225 C 340.373 974.918 338.811 982.694 338.71 982.989 C 336.868 988.419 338.169 999.603 345.524 992.125 C 348.431 989.171 353.697 973.575 357.297 978.101 C 356.009 982.853 354.5 985.078 352.773 989.389 C 348.68 1000.14 340.322 1005.66 332.186 995.024 C 327.888 989.406 333.382 982.456 332.338 981.07 C 331.67 980.975 331.286 981.23 330.768 981.699 C 324.37 987.49 315.278 979.299 316.325 971.995 C 316.433 971.241 316.954 970.156 316.668 969.372 C 315.858 968.871 311.842 969.636 309.563 968.716 C 301.207 965.345 300.751 957.329 303.834 950.022 L 305.029 947.238 z" fill="rgb(231,89,42)" transform="translate(0,0)"></path>
<path d="M 321.275 962.031 L 322.109 961.763 C 324.321 961.036 334.568 956.105 329.909 963.45 C 324.006 964.431 320.167 968.043 321.275 962.031 z" fill="rgb(252,235,225)" transform="translate(0,0)"></path>
<path d="M 84.2412 925.124 C 92.8799 925.89 121.318 951.304 131.986 957.668 C 147.114 966.608 162.771 974.621 178.871 981.662 C 194.114 988.255 217.963 997.324 232.046 1005.21 C 278.412 1031.18 314.449 1074.67 371.475 1079.79 C 399.547 1082.32 424.555 1073.55 446.053 1055.46 C 441.003 1065.27 439.845 1067.45 431.46 1074.47 C 424.463 1079.22 416.997 1083.24 409.178 1086.46 C 349.438 1110.67 292.524 1081.83 245.283 1045.88 C 232.16 1035.89 219.261 1023.1 204.688 1015.45 C 188.475 1006.93 170.174 1011.07 153.602 1003.9 C 136.633 996.57 74.4355 963.147 69.3255 948.567 C 67.7752 944.143 68.3053 939.815 70.366 935.663 C 73.435 929.479 77.9524 927.23 84.2412 925.124 z" fill="rgb(231,89,42)" transform="translate(0,0)"></path>
<path d="M 103.806 901.36 C 108.498 903.139 114.959 907.875 119.909 909.566 C 134.097 914.414 145.947 915.669 158.278 925.248 C 171.907 935.836 182.811 955.881 186.141 972.746 C 186.658 975.365 186.288 975.745 185.067 977.309 L 181.753 976.335 C 149.419 963.04 119.541 944.42 93.3606 921.25 C 96.4852 914.804 100.423 907.753 103.806 901.36 z" fill="rgb(231,89,42)" transform="translate(0,0)"></path>
<path d="M 218.003 894.867 C 206.475 897.691 196.926 897.758 186.66 890.577 C 171.544 880.004 179.959 859.29 172.536 844.809 C 170.119 838.536 162.101 834.303 159.606 828.667 C 158.445 826.045 168.195 827.703 168.518 827.788 C 200.267 836.137 174.948 859.713 188.3 878.392 C 194.594 887.198 200.984 888.889 211.123 890.78 C 220.639 888.894 230.786 888.602 240.189 885.525 C 241.609 885.06 242.429 886.805 240.828 887.453 C 233.319 889.853 225.401 892.171 218.003 894.867 z" fill="rgb(231,89,42)" transform="translate(0,0)"></path>
<path d="M 274.943 856.963 C 283.495 858.853 289.84 876.39 294.432 884.578 C 290.244 885.572 273.647 890.43 270.709 888.671 C 266.1 885.937 257.927 882.061 252.99 883.999 C 245.702 886.86 249.02 872.501 250.142 870.547 C 253.331 864.997 268.432 859.435 274.943 856.963 z" fill="rgb(231,89,42)" transform="translate(0,0)"></path>
<path d="M 260.79 890.769 C 261.57 890.726 265.104 890.637 265.15 891.627 C 265.589 901.077 272.474 893.719 282.767 893.293 C 285.004 892.797 293.18 889.736 294.181 892.296 C 293.914 893.724 293.281 894.055 292.147 895.003 C 283.025 895.67 277.032 894.695 269.063 899.976 C 267.26 899.811 267.367 899.734 265.81 898.601 C 257.878 903.912 264.829 901.329 256.762 901.527 C 256.387 901.858 256.114 908.513 256.046 909.215 C 249.848 900.318 252.027 896.699 259.953 891.341 L 260.79 890.769 z" fill="rgb(43,37,32)" transform="translate(0,0)"></path>
<path d="M 282.767 893.293 C 285.004 892.797 293.18 889.736 294.181 892.296 C 293.914 893.724 293.281 894.055 292.147 895.003 C 288.922 894.329 286.008 894.01 282.767 893.293 z" fill="rgb(201,72,30)" transform="translate(0,0)"></path>
<path d="M 265.81 898.601 C 268.006 897.576 267.723 898.08 269.063 899.976 C 267.26 899.811 267.367 899.734 265.81 898.601 z" fill="rgb(201,72,30)" transform="translate(0,0)"></path>
<path d="M 313.529 916.733 C 315.873 919.038 318.512 925.021 321.402 927.744 C 322.861 929.119 318.781 930.138 317.946 930.304 C 316.341 930.535 310.756 932.155 309.694 930.545 C 309.858 927.726 312.57 919.606 313.529 916.733 z" fill="rgb(231,89,42)" transform="translate(0,0)"></path>
<path d="M 300.833 892.553 C 305.606 895.12 290.657 914.947 287.515 916.739 L 286.011 917.661 C 285.093 917.346 284.331 917.24 283.699 916.594 C 283.729 915.926 287.751 912.698 288.97 911.318 C 295.569 903.849 296.916 901.317 300.833 892.553 z" fill="rgb(201,72,30)" transform="translate(0,0)"></path>
<path d="M 278.265 900.287 C 288.888 899.562 290.725 898.666 284.616 907.489 C 280.873 913.91 278.876 903.487 278.265 900.287 z" fill="rgb(231,89,42)" transform="translate(0,0)"></path>
<path d="M 298.412 918.955 C 306.948 919.796 306.093 921.8 299.348 928.042 C 293.186 924.785 292.315 921.758 298.412 918.955 z" fill="rgb(252,235,225)" transform="translate(0,0)"></path>
<path d="M 305.021 904.701 C 310.938 908.323 310.458 909.67 305.54 913.666 C 297.169 912.105 299.481 912.436 305.021 904.701 z" fill="rgb(231,89,42)" transform="translate(0,0)"></path>
<path d="M 350.544 966.803 C 353.629 970.206 347.633 978.595 345.622 982.215 C 342.074 979.197 348.561 969.537 350.544 966.803 z" fill="rgb(201,72,30)" transform="translate(0,0)"></path>
<path d="M 326.956 943.263 C 327.093 943.49 327.229 943.717 327.366 943.944 C 327.091 944.151 326.563 951.535 318.684 957.657 C 316.018 954.967 324.256 947.038 326.541 943.852 L 326.956 943.263 z" fill="rgb(231,89,42)" transform="translate(0,0)"></path>
<path d="M 336.73 966.735 C 338.03 963.152 337.643 954.352 343.165 961.622 C 345.243 964.358 339.794 967.777 337.261 968.462 L 336.73 966.735 z" fill="rgb(201,72,30)" transform="translate(0,0)"></path>
<path d="M 301.004 932.162 C 302.965 935.289 300.387 936.029 297.771 937.779 C 293.728 934.548 297.469 934.322 301.004 932.162 z" fill="rgb(201,72,30)" transform="translate(0,0)"></path>
<path d="M 332.524 948.923 C 333.414 948.802 334.292 949.214 334.768 949.976 C 335.244 950.738 335.228 951.708 334.728 952.454 C 334.228 953.2 333.337 953.584 332.452 953.434 C 331.34 953.247 330.532 952.275 330.55 951.147 C 330.568 950.02 331.407 949.075 332.524 948.923 z" fill="rgb(231,89,42)" transform="translate(0,0)"></path>
<path d="M 337.261 968.462 C 335.228 969.31 332.181 972.133 330.521 970.501 C 330.019 970.008 328.778 968.199 329.354 967.468 L 330.278 967.7 C 333.348 970.817 333.761 968.212 336.73 966.735 L 337.261 968.462 z" fill="rgb(43,37,32)" transform="translate(0,0)"></path>
<path d="M 337.93 951.412 C 341.659 951.286 342.856 950.227 343.798 953.764 C 341.919 953.362 338.051 953.449 337.93 951.412 z" fill="rgb(43,37,32)" transform="translate(0,0)"></path>
<path d="M 2117.64 353.246 C 2120.36 352.823 2120.24 352.703 2122.86 353.4 C 2124.83 356.413 2120.69 360.513 2118.04 364.684 C 2104.82 385.54 2098.8 400.826 2099.92 425.802 C 2100.95 450.679 2112 474.08 2130.55 490.686 C 2161.16 518.349 2208.39 522.783 2244.48 503.57 C 2249.35 500.974 2262.29 490.207 2265.88 490.037 L 2267.21 491.37 C 2268.45 498.342 2264.48 510.201 2262.35 516.974 C 2251.6 551.203 2227.5 575.477 2195.85 591.582 C 2185.95 596.29 2175.52 599.804 2164.79 602.051 C 2130.09 609.085 2094.01 601.915 2064.63 582.144 C 2036.39 563.005 2016.95 533.388 2010.62 499.861 C 2004.74 467.75 2012.04 434.624 2030.88 407.965 C 2051.52 378.351 2082.29 359.617 2117.64 353.246 z" fill="rgb(27,23,20)" transform="translate(0,0)"></path>
<path d="M 2109.16 361.099 C 2110.95 360.902 2110.46 361.001 2112.33 361.483 C 2106.1 371.951 2098.65 385.437 2096.12 397.29 C 2075.71 492.886 2182.41 556.958 2260.72 500.059 C 2250.85 541.024 2231.15 566.239 2193.91 585.91 C 2187.86 588.777 2181.62 591.216 2175.23 593.209 C 2143.34 603.187 2108.78 599.898 2079.35 584.083 C 2051.15 568.624 2028.55 541.645 2019.5 510.648 C 2010.69 481.157 2014.09 449.362 2028.93 422.398 C 2047.02 390.045 2074.09 371.141 2109.16 361.099 z" fill="rgb(231,89,42)" transform="translate(0,0)"></path>
<metadata><recraft-signature>{"signed_by": "recraft", "signature_b64": "vPz1dlfMRe7u+MrUerSZjfXat0LgGQL4JiZMtjPab/vuur0YCq0KHFv0s4Txe1A3tFyy0JMrhLPTgWihA4sfAg==", "signing_algo": "Ed25519", "generation_timestamp": 1783393618, "identifier": "9c5b81da-2aa6-4349-ad0e-5edc9eed0c87"}</recraft-signature></metadata></svg>