<svg xmlns="http://www.w3.org/2000/svg" height="1792" preserveAspectRatio="none" style="display: block;" version="1.1" viewBox="0 0 2432 1792" width="2432">
<path d="M 0 0 L 2432 0 L 2432 1792 L 0 1792 L 0 0 z" fill="rgb(255,255,255)" transform="translate(0,0)"></path>
<path d="M 1680.62 152.4 C 1690.87 150.551 1714.36 152.063 1724.7 153.472 C 1796.89 163.222 1859.69 207.786 1892.74 272.705 C 1902.32 291.615 1905.95 306.831 1913.69 325.488 C 1932.15 370.226 1964.01 408.153 2004.89 434.061 C 2033.75 451.963 2065.47 464.789 2098.66 471.983 C 2113.96 475.387 2130.15 477.666 2145.27 481.4 C 2206.52 496.532 2262.96 529.121 2301.52 579.667 C 2336.33 625.281 2353.55 685.364 2345.2 742.302 C 2342.26 762.323 2336.43 776.062 2333.49 796.965 C 2326.65 845.652 2299.9 894.644 2265.26 929.227 C 2255.15 939.317 2245.12 946.84 2233.81 955.345 C 2240.05 968.117 2248.28 989.07 2253.45 1002.75 C 2270.77 1048.61 2292.92 1105.92 2294.86 1155.06 C 2295.71 1175.82 2292.54 1196.55 2285.53 1216.11 C 2269.22 1261.1 2211.09 1333.97 2177.57 1370.31 C 2179.03 1371.55 2180.47 1372.8 2181.9 1374.06 C 2221 1408.62 2258.38 1446.66 2297.26 1481.66 C 2306.99 1490.43 2317.8 1500.9 2324.63 1512.13 C 2371.44 1588.99 2288.51 1676.23 2208.62 1639.46 C 2190.22 1630.91 2167.2 1606.83 2151.78 1592.56 L 2097.98 1542.72 C 2099.09 1571.66 2099.03 1602.67 2100.99 1631.33 C 2039.74 1633.22 1971.18 1631.44 1909.42 1631.58 L 1367.39 1631.76 C 1371.09 1618.75 1375.28 1595.32 1378.2 1581.43 L 1400.59 1475.21 L 1492.85 1037.7 C 1476.49 1021.85 1448.91 995.536 1431.62 981.383 C 1397.53 980.08 1387.23 992.861 1367.43 1017.41 C 1360.28 1026.37 1352.99 1035.2 1345.55 1043.91 C 1354.8 1044.47 1363.99 1045.84 1373.01 1048.03 C 1400.55 1054.8 1427.71 1070.99 1442.22 1095.88 C 1445.01 1100.67 1448.9 1106.64 1447.55 1112.01 L 1445.69 1112.46 C 1442.28 1106.61 1432.1 1088.71 1427.99 1084.6 C 1401.84 1058.45 1376.17 1051.33 1341.5 1048.7 C 1338.46 1051.92 1335.48 1055.47 1332.54 1058.8 C 1311.97 1082.04 1289.53 1103.13 1266.87 1124.3 C 1300.44 1132.82 1327.76 1146.74 1348.7 1176.03 C 1351.73 1180.26 1359.02 1192.09 1357.97 1197.17 L 1356.12 1197.8 C 1352.57 1195.89 1350.37 1188.03 1347.43 1183.45 C 1326.14 1150.27 1298.45 1137.54 1262.38 1128.24 C 1237.3 1149.22 1216.74 1165.39 1190.28 1184.68 C 1192.71 1185.42 1195.11 1186.22 1197.5 1187.08 C 1225.44 1197.27 1254.05 1220.23 1265.93 1247.75 C 1267.74 1251.94 1270.38 1256.58 1268.82 1260.79 L 1266.37 1260.65 C 1264.49 1257.09 1262.67 1253.49 1260.92 1249.87 C 1244.61 1216.76 1220.53 1199.81 1185.81 1188.01 C 1157.13 1206.99 1130.1 1224.48 1099.15 1239.84 C 1130.54 1253.44 1154.25 1265.88 1174.62 1295.74 C 1177.95 1300.62 1184.81 1312.87 1183.52 1318.62 C 1182.79 1318.67 1182.05 1318.73 1181.31 1318.78 C 1176.06 1309.68 1168.4 1294.52 1161.74 1287.06 C 1143.36 1266.47 1119.18 1251.84 1093.19 1243.62 C 892.694 1338.51 745.762 1336.77 546.22 1241.72 C 545.095 1242.03 543.976 1242.36 542.865 1242.71 C 515.184 1251.45 489.397 1267.97 471.376 1291.22 C 467.309 1296.46 459.671 1311.76 456.364 1318.15 L 454.396 1318.59 L 453.3 1317.21 C 453.413 1313.87 454.145 1311.9 455.538 1308.82 C 470.675 1275.38 499.627 1253.73 532.925 1240.8 C 534.884 1240.12 536.671 1239.31 538.576 1238.49 C 538.88 1238.87 461.271 1192.03 453.849 1187.29 C 414.305 1196.68 381.166 1222.88 367.979 1259.7 C 367.628 1260.68 365.968 1260.4 365.005 1260.44 L 364.145 1258.44 C 364.823 1253.59 366.387 1250.21 368.527 1245.92 C 385.608 1211.66 413.529 1195.08 448.56 1183.48 C 423.049 1165.76 398.277 1147 374.307 1127.24 C 342.266 1135.66 314.637 1147.21 293.653 1175.39 C 290.542 1179.57 282.751 1195.05 280.123 1197.09 L 278.494 1196.43 C 277.308 1191.96 281.785 1184.45 284.113 1180.51 C 302.505 1149.38 335.474 1132.25 369.505 1123.52 C 353.65 1110.08 338.011 1096.39 322.594 1082.44 C 285.587 1048.83 285.502 1046.45 233.935 1056.05 C 207.783 1060.91 166.658 1070.97 145.071 1052.19 C 135.905 1044.21 127.977 1031.65 127.472 1018.99 C 125.85 975.734 161.776 970.558 193.579 958.931 C 240.973 941.605 273.425 908.866 305.241 872.055 C 251.773 874.18 209.939 867.401 163.366 836.906 C 138.831 820.841 110.16 790.821 101.719 761.105 C 101.445 760.139 101.624 760.355 102.326 759.376 C 108.838 762.843 113.517 776.876 118.497 784.719 C 126.821 797.585 136.941 809.195 148.552 819.196 C 195.74 859.944 249.281 870.611 309.405 866.437 C 318.156 857.454 328.423 844.903 337.22 835.283 C 350.414 821.04 364.004 807.168 377.972 793.684 C 355.939 791.735 334.288 786.709 313.65 778.752 C 264.577 760.198 218.409 724.794 196.339 676.188 C 193.975 670.98 185.52 648.869 187.295 644.205 L 189.16 643.717 C 193.455 649.173 196.812 665.785 200.306 673.043 C 234.271 743.604 307.183 781.96 382.438 789.148 C 411.733 762.953 434.803 743.289 467.655 720.777 C 394.919 703.352 326.279 661.302 300.228 586.8 C 298.468 581.767 293.61 570.617 297.497 566.642 L 299.399 567.003 C 300.742 568.515 303.877 583.19 305.476 587.61 C 310.24 600.436 316.526 612.643 324.199 623.97 C 357.811 673.988 415.18 704.937 473.417 716.324 C 478.108 713.619 483.045 710.465 487.56 707.475 C 514.937 689.345 543.386 674.685 572.567 659.74 C 503.53 637.675 442.797 594.465 423.103 520.206 C 421.936 515.809 418.547 506.871 422.014 503.989 L 423.978 504.519 C 426.871 510.932 427.115 518.76 429.28 525.416 C 447.034 579.99 490.605 620.645 542.184 643.419 C 554.319 648.777 566.511 652.251 578.975 656.727 C 593.892 650.195 608.934 643.95 624.092 637.996 C 764.767 583.93 902.6 591.625 1039.74 652.451 C 1062.79 621.216 1077.92 595.218 1108.14 569.417 C 1121.96 557.613 1136.17 539.987 1149.76 527.131 C 1169.68 508.282 1187.67 486.286 1209.46 469.337 C 1254.53 433.966 1330.51 426.364 1386.1 423.229 C 1360.08 448.904 1334.25 474.776 1308.62 500.841 C 1317.08 508.128 1324.89 515.129 1331.99 523.756 C 1339.73 515.987 1373.55 479.17 1380.7 478.126 C 1379.64 482.491 1341.22 520.769 1334.21 528.029 C 1338.79 552.864 1329.09 561.607 1313.47 578.225 L 1401.81 657.547 C 1412.41 646.132 1420.14 635.068 1437.48 634.839 C 1460.52 634.534 1475.41 654.678 1491.21 668.641 C 1499.26 675.757 1507.21 683.692 1515.01 691.05 C 1535.26 657.134 1577.96 635.976 1612.22 619.41 C 1605.19 575.205 1587.57 535.196 1566.02 496.3 C 1559.29 484.151 1550.46 473.934 1545.02 460.888 C 1537.92 443.832 1534.66 424.887 1530.7 406.867 C 1526.01 385.465 1520.45 364.681 1518.2 342.899 C 1513.46 297.026 1525.32 251.526 1555.09 215.824 C 1587.5 176.938 1630.62 157.024 1680.62 152.4 z" fill="rgb(27,23,20)" transform="translate(0,0)"></path>
<path d="M 344.171 879.787 C 406.224 811.539 467.025 765.58 551.234 726.639 C 669.988 672.031 802.733 655.512 931.249 679.351 C 955.935 683.982 983.652 690.227 1007.26 698.876 C 997.456 713.782 987.473 728.57 977.315 743.238 C 955.082 775.928 928.37 813.777 907.401 846.972 C 873.662 824.757 832.476 816.862 792.914 825.026 C 754.823 833.242 721.559 856.258 700.443 889.007 C 686.313 910.943 679.27 933.297 677.22 959.106 C 660.167 957.169 617.44 954.961 607.547 942.662 C 606.505 941.376 605.54 940.03 604.656 938.631 C 617.197 900.623 629.415 917.725 642.772 904.157 L 642.366 902.507 C 638.173 900.462 635.818 900.526 631.441 899.577 C 623.876 897.938 616.421 891.912 611.083 886.411 C 605.971 881.144 605.752 867.21 600.607 860.217 L 599.381 860.216 C 594.706 874.737 600.266 884.539 580.784 895.298 C 575.553 898.187 562.126 901.263 560.739 904.014 C 565.076 908.475 576.333 910.366 583.632 914.304 C 570.718 924.782 559.469 929.807 541.753 928.85 C 541.566 928.771 541.38 928.692 541.193 928.613 C 524.93 925.788 509.418 920.605 493.693 915.633 L 487.974 929.826 C 504.406 935.356 525.945 941.913 540.938 949.633 L 541.937 950.308 C 578.076 975.182 552.087 1008.36 559.633 1024.55 L 561.416 1025.47 C 577.35 1017.61 563.138 965.806 639.868 971.418 C 652.231 972.267 664.571 973.423 676.877 974.885 C 688.912 1110.17 856.911 1157.65 941.623 1055.27 C 962.385 1030.18 971.617 1003.58 974.038 971.373 C 985.897 969.559 997.713 967.478 1009.48 965.129 C 1046.21 957.724 1074.49 947.769 1088.27 994.529 C 1070.2 1014.09 1050.38 1034.4 1033.16 1054.68 C 1020.27 1069.85 1007.52 1095.91 999.666 1114.09 C 994.627 1125.75 996.107 1142.23 1006.58 1150.18 C 1014.76 1157.03 1024.13 1154.48 1033.24 1151.6 C 1059.94 1137.03 1098.31 1105.8 1123.95 1086.31 L 1275.25 971.389 L 1312.08 943.438 C 1355.71 910.283 1363.88 915.676 1401.46 952.617 C 1409.21 960.235 1418.73 968.686 1426.82 976.035 L 1425.76 976.078 C 1386.49 977.928 1376.33 999.209 1353.58 1026.64 C 1229.69 1177.09 1036.17 1301.98 837 1308.59 C 638.292 1315.19 449.01 1196.33 309.861 1064.01 C 292.797 1047.78 279.456 1044.15 255.828 1047.62 C 241.585 1049.72 222.293 1055.17 210.686 1043.31 C 206.936 1039.48 204.871 1034.31 204.95 1028.95 C 205.312 1013.95 225.704 1001.24 236.449 992.504 C 246.53 984.45 256.321 976.039 265.801 967.286 C 294.729 937.294 316.628 911.342 344.171 879.787 z" fill="rgb(247,241,234)" transform="translate(0,0)"></path>
<path d="M 540.938 949.633 L 541.937 950.308 C 578.076 975.182 552.087 1008.36 559.633 1024.55 L 561.416 1025.47 C 577.35 1017.61 563.138 965.806 639.868 971.418 C 652.231 972.267 664.571 973.423 676.877 974.885 C 688.912 1110.17 856.911 1157.65 941.623 1055.27 C 962.385 1030.18 971.617 1003.58 974.038 971.373 C 985.897 969.559 997.713 967.478 1009.48 965.129 C 1046.21 957.724 1074.49 947.769 1088.27 994.529 C 1070.2 1014.09 1050.38 1034.4 1033.16 1054.68 C 1020.27 1069.85 1007.52 1095.91 999.666 1114.09 C 994.627 1125.75 996.107 1142.23 1006.58 1150.18 C 1014.76 1157.03 1024.13 1154.48 1033.24 1151.6 C 1022.5 1162.16 1011.11 1173.39 999.349 1182.73 C 948.271 1223.96 884.618 1246.45 818.978 1246.48 C 745.145 1246.03 676.281 1216.7 625.075 1163.81 C 566.295 1103.1 540.38 1033.13 540.938 949.633 z" fill="rgb(116,47,27)" transform="translate(0,0)"></path>
<path d="M 968.402 1100.68 C 975.647 1107.17 965.464 1112.62 986.7 1118.54 C 976.176 1123.88 973.92 1123.96 969.929 1135.56 C 968.424 1135.55 968.238 1135.78 967.72 1133.64 C 965.365 1123.93 959.564 1122.57 951.349 1118.8 C 964.904 1114.41 964.625 1114.25 968.402 1100.68 z" fill="rgb(247,241,234)" transform="translate(0,0)"></path>
<path d="M 541.193 928.613 C 545.313 926.65 545.484 915.763 546.847 909.972 C 553.893 880.05 564.264 852.525 580.284 826.387 C 619.242 762.486 682.337 717.007 755.278 700.252 C 838.337 680.559 906.394 699.462 977.315 743.238 C 955.082 775.928 928.37 813.777 907.401 846.972 C 873.662 824.757 832.476 816.862 792.914 825.026 C 754.823 833.242 721.559 856.258 700.443 889.007 C 686.313 910.943 679.27 933.297 677.22 959.106 C 660.167 957.169 617.44 954.961 607.547 942.662 C 606.505 941.376 605.54 940.03 604.656 938.631 C 617.197 900.623 629.415 917.725 642.772 904.157 L 642.366 902.507 C 638.173 900.462 635.818 900.526 631.441 899.577 C 623.876 897.938 616.421 891.912 611.083 886.411 C 605.971 881.144 605.752 867.21 600.607 860.217 L 599.381 860.216 C 594.706 874.737 600.266 884.539 580.784 895.298 C 575.553 898.187 562.126 901.263 560.739 904.014 C 565.076 908.475 576.333 910.366 583.632 914.304 C 570.718 924.782 559.469 929.807 541.753 928.85 C 541.566 928.771 541.38 928.692 541.193 928.613 z" fill="rgb(116,47,27)" transform="translate(0,0)"></path>
<path d="M 668.085 802.104 C 690.111 798.719 710.721 813.801 714.157 835.82 C 717.593 857.838 702.559 878.483 680.549 881.971 C 658.466 885.47 637.738 870.375 634.29 848.284 C 630.843 826.193 645.986 805.5 668.085 802.104 z" fill="rgb(27,23,20)" transform="translate(0,0)"></path>
<path d="M 344.171 879.787 L 345.113 880.762 C 349.468 885.2 354.513 888.496 359.234 893.501 C 385.905 921.774 387.484 974.318 359.387 1001.97 C 348.705 1012.65 334.194 1018.62 319.086 1018.54 C 304.579 1018.45 290.72 1012.52 280.641 1002.09 C 270.778 991.82 267.18 981.046 265.801 967.286 C 294.729 937.294 316.628 911.342 344.171 879.787 z" fill="rgb(231,89,42)" transform="translate(0,0)"></path>
<path d="M 1914.81 595.05 C 1930.12 604.804 1949.81 610.235 1966.8 616.662 C 2008.01 632.244 2050.97 651.583 2084.03 681.379 C 2102.83 698.326 2118.71 719.705 2131.44 741.535 C 2148.52 770.806 2160.47 803.837 2174.47 834.724 C 2211.15 915.618 2286.25 1068.7 2289.97 1153.34 C 2290.86 1173.55 2288.34 1193.4 2281.6 1212.52 C 2264.25 1261.7 2209.88 1327.7 2174.18 1366.63 L 2060.43 1260.5 C 2041.8 1243.1 2020.14 1223.83 2002.52 1205.9 L 2039.34 1155.69 C 2060.21 1146.95 2084.49 1138.92 2107.01 1137.73 C 2110.92 1137.53 2112.13 1137.21 2114.25 1134.69 L 2113.27 1133.56 C 2098.31 1129.8 2058.97 1143.07 2043.54 1148.99 C 2061.99 1126.51 2075.62 1102.5 2100.43 1085.42 C 2102.99 1083.66 2109.62 1078.88 2110.25 1076.01 L 2109.14 1074.32 C 2105.27 1074.67 2100.8 1078.89 2097.65 1081.23 C 2077.41 1096.31 2062.67 1115.01 2048.02 1135.24 L 2044.15 1124.62 C 2019.36 1054 1994.92 984.606 1986.03 910.026 C 1985.68 907.095 1985.22 901.245 1983.37 899.343 L 1981.65 899.67 C 1979.21 906.031 1982.88 924.267 1984.08 931.626 C 1995.84 1003.87 2020.46 1071.31 2044.6 1140.01 C 2031.43 1159.71 2013.35 1183.48 1998.85 1202.42 C 1994.74 1199.28 1991.54 1196.19 1987.77 1192.72 C 1950.09 1158.06 1913.44 1121.87 1875.4 1087.64 C 1893.61 1088.25 1909.57 1084.75 1924.11 1073.14 C 1933.29 1065.8 1940.28 1056.08 1944.32 1045.04 C 1949.38 1031.46 1951.15 1006.62 1952.79 991.579 L 1960.28 922.29 C 1912.96 923.279 1862.77 922.474 1815.29 922.405 L 1804.42 1021 C 1790.8 1009 1775.84 994.374 1762.45 981.821 C 1765.58 978.786 1768.36 975.416 1770.74 971.771 C 1778.04 960.382 1777.78 949.307 1774.84 936.896 L 1831.12 874.286 C 1840.31 864.07 1853.17 850.908 1860.79 839.777 C 1877.37 815.57 1844.6 796.749 1830.61 781.633 L 1830.05 781.012 C 1849.59 773.212 1888.71 764.424 1902.1 751.294 C 1907.89 745.606 1911.88 738.343 1913.58 730.407 C 1915.47 721.453 1914.79 695.21 1914.78 685.296 C 1914.63 655.214 1914.63 625.132 1914.81 595.05 z" fill="rgb(247,241,234)" transform="translate(0,0)"></path>
<path d="M 2071.46 693.674 L 2073.17 694.934 C 2074.04 699.245 2070.78 700.103 2067.73 702.794 C 2045.34 722.519 2028.3 749.079 2018.39 777.139 C 2015.45 785.461 2015.02 795.043 2011.41 802.802 C 2008.85 800.635 2007.62 799.48 2008.42 795.708 C 2017.2 754.703 2038.93 719.96 2071.46 693.674 z" fill="rgb(27,23,20)" transform="translate(0,0)"></path>
<path d="M 1712.56 943.585 C 1743.42 968.449 1779.43 1004.97 1809.24 1032.38 L 2047.93 1255.41 L 2225.15 1421.08 L 2276.82 1469.19 C 2290.71 1482.19 2311.12 1499.32 2320.58 1514.78 C 2332.43 1533.84 2336.04 1556.89 2330.59 1578.65 C 2318.04 1628.09 2269.53 1651.58 2221.52 1639.46 C 2209.98 1635.4 2201.27 1630.71 2191.99 1622.56 C 2170.4 1603.63 2149.47 1583.87 2128.42 1564.35 L 2005.62 1450.15 L 1596.11 1069.08 C 1635.15 1027.45 1673.96 985.618 1712.56 943.585 z" fill="rgb(231,89,42)" transform="translate(0,0)"></path>
<path d="M 2241.76 1512.44 C 2269.31 1508.59 2294.73 1527.9 2298.4 1555.47 C 2302.08 1583.04 2282.61 1608.33 2255.02 1611.84 C 2227.68 1615.31 2202.66 1596.05 2199.01 1568.73 C 2195.37 1541.4 2214.46 1516.26 2241.76 1512.44 z" fill="rgb(27,23,20)" transform="translate(0,0)"></path>
<path d="M 1431.33 640.23 C 1443.29 639.223 1451.75 640.214 1461.21 648.164 C 1479.35 663.415 1496.95 680.393 1514.21 696.643 L 1597.26 774.222 L 1670.63 842.14 C 1699.67 868.925 1744.79 898.279 1710.17 940.394 C 1679.08 911.584 1617.76 853.852 1583.62 823.888 C 1582.85 823.219 1581.79 824.324 1580.73 825.051 C 1581.36 829.179 1617.96 861.443 1624.2 867.19 L 1706.66 943.4 C 1670.94 981.264 1635.54 1019.42 1600.45 1057.87 C 1572.7 1030.75 1542.23 1004.35 1513.85 977.77 C 1505.39 969.845 1463.82 929.814 1456.98 926.993 L 1456.02 927.851 C 1458.5 933.643 1465.63 939.922 1470.42 944.062 C 1513.5 981.243 1554.25 1024.85 1597.75 1061.21 C 1592.13 1067.03 1586.57 1073.11 1579.6 1077.32 C 1551.34 1094.38 1523.23 1059.11 1503.58 1040.89 L 1415.58 959.177 C 1390.32 935.908 1366.37 900.986 1328.93 924.79 C 1271.22 967.349 1214.25 1012.3 1156.8 1055.29 C 1132.81 1073.05 1110.07 1092.15 1085.62 1109.31 C 1071.02 1119.57 1051.45 1117.76 1038.12 1106.34 C 1025.91 1095.87 1023.96 1073.24 1034.25 1060.87 C 1047.2 1045.29 1061.65 1030.4 1075.41 1015.42 L 1166.52 917.07 L 1334.21 736.747 C 1356.96 712.596 1380.87 686.456 1404.14 663.046 L 1453.2 708.282 C 1432.76 708.26 1414.01 712.172 1396.22 722.685 C 1373.83 736.048 1357.63 757.733 1351.18 782.999 C 1345.04 807.922 1349.18 834.265 1362.66 856.106 C 1376.37 878.918 1398.81 895.133 1424.77 900.985 C 1450.96 907.171 1478.54 902.615 1501.35 888.332 C 1523.69 874.302 1539.39 851.815 1544.86 826.008 C 1550.27 801.097 1545.5 775.057 1531.63 753.671 C 1514.5 727.061 1490.81 715.601 1461.11 709.038 C 1443.93 693.264 1424.13 673.983 1406.45 659.393 C 1414.96 650.623 1419.73 644.264 1431.33 640.23 z" fill="rgb(231,89,42)" transform="translate(0,0)"></path>
<path d="M 1716.01 1187.42 C 1721.4 1191.39 1742.82 1211.94 1748.73 1217.45 L 1818.26 1282.43 C 1795.19 1294.58 1774.19 1312.6 1763 1336.65 C 1761.37 1340.16 1758.65 1346.41 1759.98 1350 L 1761.54 1350.69 C 1764.26 1348.61 1767.82 1338.43 1769.98 1334.32 C 1781.86 1311.67 1799.68 1297.42 1821.95 1285.98 C 1852.91 1313.11 1885.08 1344.78 1915.42 1373.06 L 2088.91 1534.29 C 2090.15 1535.41 2092.2 1537.15 2092.45 1538.89 C 2094.07 1550.5 2093.94 1562.82 2094.21 1574.54 C 2094.63 1591.98 2095.16 1609.42 2095.79 1626.85 L 1691.81 1626.84 C 1692.39 1600.09 1694.52 1570.37 1696.02 1543.59 L 1702.48 1421.17 L 1710.33 1274.27 C 1711.93 1246.34 1713.25 1215.04 1716.01 1187.42 z" fill="rgb(247,241,234)" transform="translate(0,0)"></path>
<path d="M 1496.91 1041.58 C 1525.55 1064.89 1553.09 1110.13 1593.18 1072.6 C 1606.86 1086.76 1629.93 1106.92 1644.86 1121.02 C 1622.38 1242.01 1603.94 1363.71 1589.57 1485.93 C 1584.09 1531.56 1577.29 1581.23 1573.61 1626.87 L 1537.25 1626.82 L 1373.43 1626.9 C 1388.53 1560.48 1402.13 1491.94 1416.22 1425.1 L 1496.91 1041.58 z" fill="rgb(247,241,234)" transform="translate(0,0)"></path>
<path d="M 1591.09 232.814 C 1592.4 233.29 1601.53 250.214 1603.72 253.466 C 1634.73 299.597 1683.34 322.814 1736.15 333.647 C 1736.97 331.805 1737.83 329.978 1738.72 328.167 C 1745.59 314.302 1756.3 303.711 1771.17 298.881 C 1784.29 294.677 1798.55 295.931 1810.74 302.361 C 1823.38 308.828 1832.93 320.055 1837.29 333.57 C 1841.42 346.389 1840.16 360.339 1833.8 372.212 C 1823.9 390.586 1807.7 398.031 1788.74 403.604 C 1795.32 420.519 1801.54 439.26 1807.85 456.47 C 1819.58 488.135 1831.11 519.874 1842.44 551.684 C 1830.32 578.331 1833.37 599.937 1807.65 621.625 C 1781.77 643.446 1746.29 655.076 1712.75 653.008 C 1698.52 651.45 1688.23 648.432 1674.99 643.417 C 1680.48 614.065 1691.43 585.05 1689.91 556.213 C 1727.99 536.339 1751.65 497.494 1758.45 455.7 C 1755.06 459.486 1750.97 465.921 1748.17 470.269 C 1709.01 531.071 1613.76 547.015 1566.26 486.969 C 1558.44 476.984 1552.14 465.901 1547.57 454.077 C 1539.65 433.21 1519.83 345.205 1522.13 322.714 C 1524.8 296.495 1568.47 250.154 1591.09 232.814 z" fill="rgb(116,47,27)" transform="translate(0,0)"></path>
<path d="M 1587.07 335.6 C 1587.55 335.915 1588.07 336.181 1588.51 336.547 C 1591.39 338.915 1593.72 415.896 1593.95 424.288 C 1599.71 423.715 1612.47 420.389 1616.75 423.588 L 1616.76 426.055 C 1609.05 427.418 1597.67 428.323 1589.65 429.21 C 1588.96 416.328 1584.32 342.707 1587.07 335.6 z" fill="rgb(27,23,20)" transform="translate(0,0)"></path>
<path d="M 1800.75 315.726 C 1806.56 315.644 1805.85 319.056 1801.17 321.166 C 1792.77 324.954 1785.7 333.284 1779.81 340.237 C 1787.29 338.435 1794.92 336.538 1802.47 339.146 C 1804.94 339.997 1811.17 342.764 1809.86 346.326 C 1807.23 348.335 1805.18 345.589 1802.9 344.543 C 1794.52 340.706 1786.75 342.989 1778.63 345.763 C 1775.85 351.792 1774.35 358.329 1774.23 364.965 C 1774.15 368.521 1776.52 374.409 1772.22 375.086 C 1764.19 371.279 1773.55 342.235 1778.52 335.965 C 1786.62 325.751 1789.93 322.522 1800.75 315.726 z" fill="rgb(27,23,20)" transform="translate(0,0)"></path>
<path d="M 1645.95 355.102 C 1653.6 354.445 1656.89 354.236 1663.39 359.325 C 1665.74 361.17 1671.88 371.211 1665.96 372.314 C 1664.72 372.058 1663.65 369.383 1663.62 368.652 C 1663.35 361.855 1655.73 359.93 1652.07 358.595 C 1645.44 360.198 1638.98 363.673 1639.75 371.493 C 1641.75 373.656 1637.87 380.685 1635.92 376.043 C 1631.72 366.048 1640.15 358.831 1645.95 355.102 z" fill="rgb(27,23,20)" transform="translate(0,0)"></path>
<path d="M 1564.26 373.138 C 1570.73 373.026 1573.4 373.421 1578.68 378.318 C 1580.39 379.9 1587.03 391.077 1581.08 390.616 C 1579.45 390.49 1577.85 383.464 1575.36 381.324 C 1571.26 377.793 1569.59 377.78 1564.34 377.703 C 1553.33 383.39 1555.58 383.704 1554.69 393.987 C 1553.94 402.723 1539.99 382.251 1564.26 373.138 z" fill="rgb(27,23,20)" transform="translate(0,0)"></path>
<path d="M 1655.67 427.183 C 1665.74 432.076 1656.32 459.858 1624.17 452.263 L 1623.34 451.279 C 1618.94 446.349 1628.09 448.772 1629.49 449.182 C 1635.02 450.798 1640.97 450.09 1645.97 447.223 C 1655.45 441.781 1653.66 435.141 1655.67 427.183 z" fill="rgb(27,23,20)" transform="translate(0,0)"></path>
<path d="M 1638.87 318.186 C 1646.45 317.542 1663.04 318.637 1666.32 327.189 C 1666.66 328.124 1666.56 329.167 1666.03 330.013 C 1664.61 332.247 1654.97 324.209 1651.73 322.562 C 1642.64 321.526 1634.94 322.723 1628.43 329.963 C 1628.12 330.303 1627.08 330.985 1626.57 330.741 C 1618.84 327.021 1636.84 319.084 1638.87 318.186 z" fill="rgb(27,23,20)" transform="translate(0,0)"></path>
<path d="M 1553.55 329.163 C 1557.92 328.967 1568.46 328.577 1571.1 333.203 C 1571.06 336.761 1565.15 334.453 1563.48 334.088 C 1556.3 332.516 1550.95 334.005 1544.84 337.74 C 1542.14 340.182 1537.43 347.66 1535.14 347.047 C 1529.17 340.294 1548.31 330.591 1553.55 329.163 z" fill="rgb(27,23,20)" transform="translate(0,0)"></path>
<path d="M 1648.97 1125.31 C 1652.56 1127.28 1666.96 1141.12 1670.41 1144.36 C 1683.93 1157.07 1696.86 1169.79 1710.96 1181.93 C 1709.17 1196.97 1708.61 1218.79 1707.7 1234.69 L 1702.12 1334.25 L 1686.84 1626.66 L 1639.78 1626.77 L 1578.27 1626.89 C 1595.25 1458.83 1618.83 1291.51 1648.97 1125.31 z" fill="rgb(231,89,42)" transform="translate(0,0)"></path>
<path d="M 1103.39 580.615 C 1106.39 581.535 1218.82 683.593 1231.24 694.581 C 1199.1 693.387 1172.61 697.446 1145.82 716.697 C 1140.27 720.708 1135.05 725.157 1130.21 730.001 C 1126.15 734.073 1122.14 738.604 1118.38 742.982 C 1093.3 772.198 1065.64 799.57 1041.12 829.144 C 1038.1 832.78 1034.55 847.008 1032.99 852.227 C 1027.87 869.362 1022.97 883.349 1012.41 898.21 C 995.024 920.447 966.143 925.509 943.098 907.588 C 931.469 898.545 921.331 888.086 910.478 877.727 C 899.39 867.145 903.522 862.608 910.277 850.955 C 963.793 771.005 1017.71 691.166 1073.44 612.749 C 1081.17 601.877 1093.82 590.078 1103.39 580.615 z" fill="rgb(231,89,42)" transform="translate(0,0)"></path>
<path d="M 978.727 851.421 C 985.778 850.159 992.961 852.81 997.502 858.351 C 1002.04 863.892 1003.23 871.456 1000.61 878.122 C 997.985 884.789 991.961 889.514 984.861 890.475 C 974.203 891.918 964.347 884.576 962.678 873.951 C 961.009 863.326 968.14 853.316 978.727 851.421 z" fill="rgb(27,23,20)" transform="translate(0,0)"></path>
<path d="M 1849.16 545.246 C 1856.44 548.593 1899.65 584.208 1909.75 591.567 L 1909.73 681.673 C 1909.74 688.169 1909.51 696.237 1909.78 702.518 C 1910.95 729.824 1909.23 748.856 1879.81 758.95 C 1860.13 765.702 1839.79 772.35 1819.81 778.876 C 1828 785.258 1835.42 793.393 1843.06 799.865 C 1873.99 826.069 1857.34 837.696 1835.92 861.524 L 1803.32 897.96 C 1793.03 909.167 1782.87 920.493 1772.84 931.938 C 1763.97 916.758 1747.3 904.06 1733.78 892.326 C 1770.48 776.398 1812.02 660.987 1849.16 545.246 z" fill="rgb(247,241,234)" transform="translate(0,0)"></path>
<path d="M 1818.85 616.99 L 1819.49 617.87 C 1818.35 623.907 1812.34 640.838 1810.07 647.576 L 1790.86 704.498 L 1729.81 888.927 C 1712.38 873.799 1695.18 858.419 1678.2 842.793 C 1664.96 830.837 1651.89 818.69 1639 806.356 L 1673.91 648.195 C 1726.2 668.051 1779.16 655.934 1818.85 616.99 z" fill="rgb(231,89,42)" transform="translate(0,0)"></path>
<path d="M 1123.28 744.446 C 1163.5 765.628 1211.42 794.953 1246.16 824.228 C 1226.59 845.596 1206.88 866.828 1187.02 887.923 C 1178.56 897.006 1164.33 913.486 1155.6 921.156 C 1153.03 920.907 1153.04 920.667 1150.77 919.318 C 1130.31 923.868 1122.55 927.189 1103.36 917.303 C 1084.3 907.489 1081.87 877.537 1074.8 874.55 C 1071.39 877.328 1071.77 880.069 1071.81 884.262 C 1070.46 881.864 1064.91 867.279 1063.11 863.183 C 1057.69 850.814 1052.6 841.335 1045.94 829.579 C 1069.5 804.958 1101.32 770.497 1123.28 744.446 z" fill="rgb(247,241,234)" transform="translate(0,0)"></path>
<path d="M 1815.66 963.103 L 1951.15 963.004 C 1949.19 976.938 1947.88 991.083 1946.29 1005.02 C 1943.34 1030.88 1944.54 1044.71 1926.43 1064.5 C 1908.31 1080.98 1893.26 1084.4 1869.44 1081.55 C 1849 1063.36 1829.09 1043.98 1808.71 1025.53 C 1811.19 1004.74 1813.51 983.928 1815.66 963.103 z" fill="rgb(247,241,234)" transform="translate(0,0)"></path>
<path d="M 1682.71 581.902 C 1683.78 586.238 1639.83 781.516 1635.35 803.191 C 1625.44 794.085 1615.65 784.868 1605.96 775.542 C 1574.31 747.588 1569.55 720.162 1591.75 683.114 C 1605.17 660.714 1619.97 633.548 1635.84 613.239 C 1640.69 607.028 1674.15 587.334 1682.71 581.902 z" fill="rgb(247,241,234)" transform="translate(0,0)"></path>
<path d="M 1924.08 356.975 C 1960.09 418.069 2017.37 456.053 2085.18 473.739 C 2108.27 479.762 2131.24 482.491 2154.6 488.943 C 2218.23 506.518 2278.48 546.437 2312.02 604.292 C 2340.23 652.946 2348.14 701.225 2337.8 756.433 L 2337.56 755.109 C 2335.64 744.598 2335.28 733.735 2334 723.281 C 2325.3 652.308 2282.62 588.924 2223.88 548.616 C 2108.73 469.604 1989.87 513.535 1922.74 359.412 L 1924.08 356.975 z" fill="rgb(255,255,255)" transform="translate(0,0)"></path>
<path d="M 1361.07 429.401 C 1364.09 428.957 1370.5 428.773 1373.8 428.573 L 1327.26 475.105 C 1320.13 482.25 1308.19 493.623 1302.09 501.007 C 1335.92 530.634 1343.05 539.372 1309.95 575.099 C 1299.05 565.041 1287.46 555.046 1276.32 545.202 C 1251.97 523.801 1227.77 502.242 1203.7 480.524 C 1244.39 443.455 1308.01 434.301 1361.07 429.401 z" fill="rgb(231,89,42)" transform="translate(0,0)"></path>
<path d="M 1206.61 699.354 C 1217.42 698.356 1226.1 698.868 1236.85 699.915 C 1259.25 720.123 1281.97 741.794 1304.65 761.366 C 1296.79 769.974 1282.55 786.456 1274.35 793.586 C 1271.14 793.824 1271.81 793.409 1268.4 790.911 C 1231.82 758.316 1204.27 738.278 1163.22 711.85 C 1178.48 703.984 1189.65 701.684 1206.61 699.354 z" fill="rgb(255,255,255)" transform="translate(0,0)"></path>
<path d="M 965.872 922.663 C 968.057 922.796 970.245 922.883 972.434 922.923 C 1012.51 923.525 1028.95 885.158 1037.73 852.377 C 1039.13 847.166 1042.55 832.892 1045.94 829.579 C 1052.6 841.335 1057.69 850.814 1063.11 863.183 C 1064.91 867.279 1070.46 881.864 1071.81 884.262 C 1073.83 942.529 1034.84 944.147 987.344 953.354 C 983.053 954.186 978.596 954.718 974.26 955.312 C 972.145 942.143 970.12 934.98 965.872 922.663 z" fill="rgb(116,47,27)" transform="translate(0,0)"></path>
<path d="M 1624 619.124 L 1624.57 620.354 C 1609.35 644.994 1591.34 670.557 1579.32 696.885 C 1570.45 716.309 1571.84 731.694 1579.53 750.985 C 1570.92 744 1559.31 732.502 1550.94 724.695 L 1518.48 694.218 C 1545.05 655.373 1583.02 638.607 1624 619.124 z" fill="rgb(247,241,234)" transform="translate(0,0)"></path>
<path d="M 1819.23 927.066 L 1955.11 927.045 C 1954.11 933.048 1953.31 955.963 1949.79 958.562 C 1905.8 959.139 1860.47 958.487 1816.31 958.558 C 1817.5 948.082 1818.47 937.582 1819.23 927.066 z" fill="rgb(247,241,234)" transform="translate(0,0)"></path>
<path d="M 1076.46 898.165 L 1079.75 895.981 C 1095.39 930.7 1119.76 931.833 1152.76 923.799 C 1144.74 935.949 1120.28 938.036 1107.95 955.113 C 1100.99 964.747 1098.64 985.744 1093.11 989.104 C 1085.69 976.942 1086.53 969.831 1073.2 961.293 C 1049.53 946.14 1025.4 958.968 1000.12 962.377 C 982.185 964.796 962.05 969.501 943.435 970.135 C 930.884 972.504 913.744 972.716 900.803 974.385 C 899.914 974.504 891.536 975.676 892.108 973.569 C 893.033 972.954 893.437 973.109 894.674 973.082 C 898.336 972.015 899.666 971.876 902.899 969.892 C 903.91 968.319 904.244 967.486 906.419 967.262 C 953.143 962.454 1005.05 960.335 1048.97 942.597 C 1065.32 935.993 1074.69 915.689 1076.46 898.165 z" fill="rgb(255,255,255)" transform="translate(0,0)"></path>
<path d="M 902.899 969.892 C 905.369 972.418 908.346 971.968 912 971.5 C 921.864 970.234 933.801 968.588 943.435 970.135 C 930.884 972.504 913.744 972.716 900.803 974.385 C 899.914 974.504 891.536 975.676 892.108 973.569 C 893.033 972.954 893.437 973.109 894.674 973.082 C 898.336 972.015 899.666 971.876 902.899 969.892 z" fill="rgb(247,241,234)" transform="translate(0,0)"></path>
<path d="M 900.803 974.385 C 899.914 974.504 891.536 975.676 892.108 973.569 C 893.033 972.954 893.437 973.109 894.674 973.082 L 900.803 974.385 z" fill="rgb(124,115,109)" transform="translate(0,0)"></path>
<path d="M 566.558 996.109 C 569.224 947.581 535.885 940.776 498.267 928.333 C 495.845 927.532 496.158 926.295 495.769 924.167 L 496.955 922.384 C 501.401 921.875 506.717 925.162 511.607 926.544 C 540.697 934.765 563.298 939.563 586.863 917.238 C 595.73 927.912 598.046 939.861 601.526 946.447 C 602.878 949.006 627.59 962.802 632.117 965.096 L 633.259 965.668 C 601.968 966.501 588.053 968.679 570.402 996.719 L 566.558 996.109 z" fill="rgb(255,255,255)" transform="translate(0,0)"></path>
<path d="M 845.208 920.662 C 851.576 949.196 862.188 960.727 890.486 969.54 C 865.066 978.261 853.474 988.625 846.486 1014.69 L 845.38 1015.37 C 837.697 988.316 825.995 978.747 799.685 969.775 C 828.99 957.8 838.01 953.209 845.208 920.662 z" fill="rgb(255,255,255)" transform="translate(0,0)"></path>
<path d="M 1444.75 788.271 C 1451.37 787.157 1458.07 789.747 1462.22 795.023 C 1466.36 800.3 1467.29 807.42 1464.65 813.586 C 1462 819.753 1456.19 823.98 1449.51 824.608 C 1439.69 825.531 1430.9 818.516 1429.62 808.733 C 1428.34 798.951 1435.02 789.908 1444.75 788.271 z" fill="rgb(231,89,42)" transform="translate(0,0)"></path>
<path d="M 601.023 878.514 C 601.97 879.814 602.281 880.147 602.948 881.516 C 609.417 894.786 617.128 899.414 630.204 904.213 C 614.609 910.613 609.528 914.64 602.368 930.381 C 599.728 927.915 598.884 924.598 596.679 921.237 C 590.887 912.411 583.252 908.573 574.229 904.068 C 588.219 898.72 595.332 892.79 601.023 878.514 z" fill="rgb(255,255,255)" transform="translate(0,0)"></path>
<path d="M 636.703 958.451 C 664.171 962.646 691.818 965.568 719.556 967.207 C 740.454 968.546 762.01 969.01 782.832 970.758 C 786.969 971.105 798.632 974.715 803.213 975.788 C 759.925 978.617 698.059 972.771 654.549 967.067 C 646.755 966.045 639.658 962.51 632.741 960.592 C 634.093 959.878 635.381 959.215 636.703 958.451 z" fill="rgb(247,241,234)" transform="translate(0,0)"></path>
<path d="M 1136.3 939.854 C 1136.71 939.988 1137.47 940.1 1137.71 940.523 C 1137.15 941.973 1109.33 971.483 1106.2 975.169 C 1105.98 975.262 1105.75 975.354 1105.53 975.447 C 1104.76 974.662 1105.16 973.439 1105.45 972.432 C 1110.34 955.643 1121.8 947.834 1136.3 939.854 z" fill="rgb(247,241,234)" transform="translate(0,0)"></path>
<path d="M 566.558 996.109 L 570.402 996.719 C 568.534 1000.44 567.198 1003.48 564.904 1006.99 C 565.435 1003.76 565.865 999.016 566.558 996.109 z" fill="rgb(247,241,234)" transform="translate(0,0)"></path>
<path d="M 1922.74 359.412 C 1922.21 358.253 1919.11 352.225 1920.44 351.455 C 1921.64 351.81 1922.89 354.73 1923.39 355.697 L 1924.08 356.975 L 1922.74 359.412 z" fill="rgb(188,182,176)" transform="translate(0,0)"></path>
<path d="M 1076.46 898.165 C 1076.55 897.205 1076.7 892.327 1077.53 891.822 C 1078.51 892.242 1079.37 895.054 1079.75 895.981 L 1076.46 898.165 z" fill="rgb(247,241,234)" transform="translate(0,0)"></path>
<path d="M 632.741 960.592 C 627.336 956.328 633.185 957.902 636.703 958.451 C 635.381 959.215 634.093 959.878 632.741 960.592 z" fill="rgb(252,235,225)" transform="translate(0,0)"></path>
<path d="M 845.38 1015.37 L 846.486 1014.69 C 846.498 1015.62 846.657 1017.19 845.787 1017.88 C 845.099 1017.36 845.412 1016.19 845.38 1015.37 z" fill="rgb(188,182,176)" transform="translate(0,0)"></path>
<metadata><recraft-signature>{"signed_by": "recraft", "signature_b64": "vbAYcYc1C9LvhPILlOQG2fKSY6ATehmcvu+4L5ic3S3oUR/6c/Ece6pYTtORY6u4OsZtP3+WHyRIodkv1fR5Cg==", "signing_algo": "Ed25519", "generation_timestamp": 1783393826, "identifier": "ae5f9405-a2ab-4a12-8ea1-04757a66ea7b"}</recraft-signature></metadata></svg>