<svg xmlns="http://www.w3.org/2000/svg" height="1792" preserveAspectRatio="none" style="display: block;" version="1.1" viewBox="0 0 2432 1792" width="2432">
<defs>
	<linearGradient gradientUnits="userSpaceOnUse" id="Gradient1" x1="844.462" x2="735.606" y1="1166" y2="1180.11">
		<stop class="stop0" offset="0" stop-color="rgb(246,202,178)" stop-opacity="1"></stop>
		<stop class="stop1" offset="1" stop-color="rgb(252,250,245)" stop-opacity="1"></stop>
	</linearGradient>
	<linearGradient gradientUnits="userSpaceOnUse" id="Gradient2" x1="911.622" x2="922.664" y1="1338.04" y2="1225.03">
		<stop class="stop0" offset="0" stop-color="rgb(247,139,88)" stop-opacity="1"></stop>
		<stop class="stop1" offset="1" stop-color="rgb(248,184,151)" stop-opacity="1"></stop>
	</linearGradient>
</defs>
<path d="M 0 0 L 2432 0 L 2432 1792 L 0 1792 L 0 0 z" fill="rgb(255,255,255)" transform="translate(0,0)"></path>
<path d="M 1699.95 462.434 C 1710.46 437.488 1727.06 419.974 1752.43 409.542 C 1776.97 399.551 1804.49 399.803 1828.85 410.242 C 1885.96 434.25 1896.97 496.642 1888.2 551.333 C 1887.55 555.407 1887.03 560.657 1886.69 564.821 C 1869.01 572.298 1855.73 574.285 1836.53 575.074 C 1834.91 583.562 1832.44 594.743 1831.4 603.114 C 1877.28 612.484 1904.69 624.969 1937.16 659.065 C 1955.45 678.264 1978.42 695.973 1996.81 715.613 C 2002.85 721.989 2008.35 728.855 2013.25 736.139 C 2028.25 758.71 2037.01 790.956 2007.58 807.224 C 1973.99 825.795 1935.33 839.697 1902.06 858.348 L 1912.59 995.536 C 1914.11 1014.99 1915.49 1040.07 1917.95 1059.26 C 1932.81 1036.34 1947.87 1036.27 1972.67 1035.96 C 1972.73 1027.63 1972.57 1018.02 1972.92 1009.8 C 1993.03 986.344 2057.59 980.939 2087.35 978.678 C 2128.98 975.514 2261.71 977.236 2292.67 1004.47 C 2296.88 1008.17 2298.01 1011.72 2298.31 1017.2 C 2298.64 1023.26 2297.96 1029.65 2297.64 1035.72 C 2313.24 1035.81 2324.4 1037.5 2335.87 1048.98 C 2352.09 1065.22 2351.64 1092.09 2334.54 1107.33 C 2320.04 1120.25 2303.2 1118.2 2285.43 1117.95 C 2265.39 1157.32 2241.45 1181.63 2201.3 1200.79 L 2201.37 1256.44 C 2214.49 1258.42 2249.23 1265.68 2246.67 1286.05 C 2243.6 1310.56 2153.19 1301.76 2149.81 1286.38 C 2146.46 1271.1 2147.94 1231.3 2147.97 1213.3 C 2140.5 1213.42 2133.07 1213.63 2125.61 1213.3 C 2125.67 1236.8 2125.99 1261.06 2125.44 1284.49 C 2120.38 1292.39 2111.28 1296.65 2101.82 1298.18 C 2081.29 1301.49 2052.72 1305.1 2033.63 1295.24 C 2025.34 1290.96 2025.52 1280.62 2030.81 1273.97 C 2040.16 1262.2 2058.33 1259.52 2072.23 1256.73 L 2072.05 1201.21 C 2032.29 1183.55 2004.26 1157.69 1985.51 1118 C 1955.77 1118.45 1941.71 1123.14 1920.69 1098.71 L 1930.43 1224.76 C 1931.7 1240.98 1932.68 1265.6 1934.91 1281.06 C 1918.17 1280.89 1901.42 1280.87 1884.68 1281.01 C 1886.02 1302.88 1889.03 1325.62 1890.15 1346.95 C 1899.13 1353.38 1931.53 1376.97 1937.51 1384.06 L 1842.06 1361.35 C 1839.32 1334.63 1837.13 1307.86 1835.46 1281.06 L 1778.25 1280.9 L 1778.03 1149.26 C 1778.03 1131.92 1779 1100.64 1777.81 1084.58 C 1774.93 1073 1778.69 1036.14 1775.34 1030.17 C 1763.3 1075.6 1752.26 1130.03 1741.5 1176.49 L 1726.02 1243.5 C 1723.53 1254.15 1719.14 1270.41 1717.47 1280.81 L 1689.32 1280.95 C 1690.82 1300.54 1674.34 1302.04 1658.97 1303.01 C 1654.96 1322.46 1650.94 1341.55 1647.4 1361.1 C 1635.38 1364 1562.55 1381.45 1555.57 1380.48 L 1554.6 1379.19 C 1556.65 1375.13 1593.13 1349.9 1599.26 1345.5 C 1602.41 1329.56 1605.67 1313.65 1609.05 1297.76 C 1596.96 1295.16 1590.33 1293.27 1585.25 1280.94 L 1568.35 1281.03 C 1575.62 1263.8 1581.73 1235.97 1581.17 1217.04 C 1573.16 1217.06 1564.72 1217.23 1556.75 1217 C 1556.89 1232.06 1557.74 1268.42 1556.59 1281.62 C 1554.91 1301.04 1499.69 1302.25 1485.29 1301.61 C 1473.14 1301.85 1450.89 1297.11 1452.16 1283.02 C 1454 1264.04 1485.61 1258 1500.05 1255.72 L 1500 1203.38 C 1456.25 1183.79 1426.87 1155.15 1405.69 1112.32 C 1384.77 1137.06 1364.15 1152.57 1333.74 1165.04 C 1333.97 1178.53 1336.27 1186.35 1323.96 1194.83 L 1322.97 1256.35 C 1337.79 1258.46 1357.54 1262.17 1366.91 1275.26 C 1368.88 1278.01 1370.43 1281.37 1369.91 1284.83 C 1369.31 1288.84 1366.23 1291.96 1362.98 1294.1 C 1345.98 1305.27 1312.07 1301.25 1293.49 1296.77 C 1286.49 1295.08 1276.64 1292.06 1272.93 1285.38 C 1269.36 1278.95 1271.93 1219.84 1271.98 1207.67 C 1262.78 1207.89 1254.25 1208.07 1245.04 1207.82 L 1245.16 1258.54 C 1245.2 1266.88 1247.08 1283.38 1241.49 1288.58 C 1226.99 1302.09 1162.73 1306.83 1150.79 1290.89 C 1135.09 1269.95 1180.56 1257.57 1194.43 1255.69 C 1194.29 1237.35 1193.74 1216 1194.44 1197.9 C 1177.18 1189.99 1179.89 1183.72 1179.89 1166.58 L 1179.13 1161.38 C 1135.31 1142.36 1108.98 1120.05 1089.27 1075.98 C 1089.55 1072.19 1090.62 1066.46 1091.29 1062.62 C 1093.23 1051.56 1093.03 1039.81 1094.72 1028.88 C 1095.88 1026.86 1095.76 1026.99 1095.56 1024.64 C 1090.69 1018.54 1097.95 1014.03 1089.35 1005.22 C 1098.38 998.887 1114.34 995.047 1125.12 992.37 L 1122.56 989.074 C 1187.28 970.08 1343.12 973.304 1406.81 996.762 C 1474.49 974.782 1575.21 970.719 1645.43 979.975 L 1674.24 863.75 C 1678.99 844.683 1684.28 820.116 1690.19 801.877 L 1671.75 796.613 C 1674.11 786.189 1676.04 774.444 1677.99 763.832 C 1658.27 788.482 1635.8 806.154 1602.11 800.616 C 1562.62 794.121 1541.74 758.556 1521.02 728.362 C 1505.14 705.234 1489.81 681.433 1473.52 658.516 C 1480.58 654.025 1487.68 648.61 1494.47 643.642 C 1484.42 637.872 1473.99 632.772 1463.27 628.378 C 1449.92 622.939 1414.91 615.557 1432.56 594.543 C 1409.28 577.489 1427.72 575.288 1430.99 565.845 C 1428.16 551.357 1434.7 553.829 1434.92 546.253 C 1416.43 542.487 1382.02 534.099 1408.18 510.551 C 1415.42 504.034 1476.12 520.993 1488.04 524.924 C 1529.1 538.472 1545.51 557.155 1547.31 599.306 C 1550.89 598.62 1554.91 594.697 1557.93 592.243 C 1576.08 622.631 1601.26 655.709 1620.88 686.204 C 1670 641.178 1699.13 604.041 1771.44 601.877 L 1778.75 569.946 C 1752.13 571.172 1724.16 572.239 1699.27 561.282 C 1707.27 529.732 1714.97 498.107 1722.36 466.409 C 1715.35 465.203 1706.77 463.963 1699.95 462.434 z" fill="rgb(27,23,20)" transform="translate(0,0)"></path>
<path d="M 1094.72 1028.88 C 1163.92 1057.6 1316.98 1057.92 1388.51 1035.75 C 1390.37 1065.03 1393.79 1080.46 1403.63 1107.85 C 1375.98 1144.56 1332.47 1167.03 1287.35 1173.13 C 1253.76 1177.67 1210.31 1174.16 1179.13 1161.38 C 1135.31 1142.36 1108.98 1120.05 1089.27 1075.98 C 1089.55 1072.19 1090.62 1066.46 1091.29 1062.62 C 1093.23 1051.56 1093.03 1039.81 1094.72 1028.88 z" fill="rgb(252,235,225)" transform="translate(0,0)"></path>
<path d="M 1254.1 1070.38 C 1264.7 1069.87 1273.75 1077.97 1274.4 1088.56 C 1275.06 1099.16 1267.08 1108.31 1256.5 1109.11 C 1249.52 1109.64 1242.8 1106.37 1238.91 1100.56 C 1235.02 1094.75 1234.56 1087.29 1237.7 1081.04 C 1240.85 1074.79 1247.11 1070.72 1254.1 1070.38 z" fill="rgb(201,72,30)" transform="translate(0,0)"></path>
<path d="M 1252.03 1075.43 C 1257.27 1074.32 1262.69 1076.13 1266.21 1080.17 C 1269.73 1084.2 1270.8 1089.82 1268.99 1094.86 C 1267.18 1099.89 1262.79 1103.56 1257.51 1104.44 C 1249.6 1105.75 1242.08 1100.5 1240.59 1092.62 C 1239.1 1084.73 1244.18 1077.1 1252.03 1075.43 z" fill="rgb(231,89,42)" transform="translate(0,0)"></path>
<path d="M 1212.5 1115.62 L 1215.39 1116.14 C 1220.45 1122.87 1229.29 1132.61 1237.17 1135.83 C 1255.03 1143.12 1277.91 1140.56 1292.02 1126.79 C 1295.49 1123.41 1297.92 1117.35 1301.88 1115.7 C 1303.76 1117.74 1303 1116.54 1303.25 1119.99 C 1284.33 1149.4 1245.72 1152.66 1219.56 1129.63 C 1216.28 1126.75 1212.36 1120.17 1212.5 1115.62 z" fill="rgb(201,72,30)" transform="translate(0,0)"></path>
<path d="M 1125.12 992.37 C 1198.83 975.4 1329.98 976.65 1402.46 998.881 C 1393.83 1004.35 1389.28 1006.17 1387.91 1016.92 C 1319.32 999.428 1231.36 998.926 1161.47 1007.72 C 1141.73 1010.21 1112.59 1015.18 1095.56 1024.64 C 1090.69 1018.54 1097.95 1014.03 1089.35 1005.22 C 1098.38 998.887 1114.34 995.047 1125.12 992.37 z" fill="rgb(252,235,225)" transform="translate(0,0)"></path>
<path d="M 1775.34 1030.17 C 1775.57 1028.62 1775.9 1024.49 1777.39 1023.54 C 1777.62 1023.67 1777.8 1023.94 1777.8 1024.17 C 1777.77 1041.78 1778.48 1067.81 1777.81 1084.58 C 1774.93 1073 1778.69 1036.14 1775.34 1030.17 z" fill="rgb(252,235,225)" transform="translate(0,0)"></path>
<path d="M 1693.75 803.025 C 1736.95 813.908 1776.78 817.41 1820.94 811.029 C 1815.11 819.241 1810.07 826.989 1806.03 835.656 C 1800.69 847.108 1794.6 868.476 1800.14 880.15 C 1807.11 894.843 1812.67 892.609 1825.13 893.711 C 1826.99 893.875 1829.9 900.954 1835.23 902.937 C 1844.77 906.488 1846.03 901.181 1854.99 900.996 C 1857.67 901.73 1863.04 905.265 1865.31 905.713 C 1877.36 908.087 1888.04 898.709 1891.04 887.689 C 1893.87 877.286 1893.02 873.758 1888.67 865.145 L 1898.23 860.178 L 1920.53 1151.11 C 1924.07 1193.11 1927.29 1235.13 1930.19 1277.17 L 1782.24 1277.08 L 1782.08 1053.25 C 1782.04 1040.05 1782.75 947.128 1780.71 943.203 C 1778.92 945.025 1777.9 947.165 1777.8 949.782 C 1777.13 967.049 1779.33 986.6 1776.97 1003.59 C 1775.89 1011.36 1772.64 1023.3 1770.79 1031.32 L 1758.77 1083.61 C 1744.09 1147.39 1727.81 1213.15 1714.28 1276.89 C 1669.51 1278.04 1619.93 1276.94 1574.69 1277.14 C 1578.52 1260.04 1584.04 1240.51 1588.38 1223.19 L 1620.63 1095.23 L 1693.75 803.025 z" fill="rgb(252,235,225)" transform="translate(0,0)"></path>
<path d="M 1479.7 659.648 C 1503.13 643.492 1534.01 616.731 1556.65 598.336 L 1599.83 662.275 C 1603.6 667.872 1622.64 698.357 1627.73 699.899 C 1629.11 695.872 1625.77 692.868 1623.33 689.694 C 1676.84 640.264 1693.98 613.414 1770.47 605.563 C 1773.04 642.062 1816.63 635.526 1830.96 606.926 C 1873.58 616.362 1899.25 626.079 1930.06 658.035 C 1948.89 677.57 1972.04 695.932 1991.14 715.482 C 2012.66 736.134 2043.08 783.698 2004.35 804.228 C 1973.05 820.099 1940.25 835.669 1908.07 850.466 C 1898.78 825.954 1888.73 798.855 1878.5 774.865 C 1888.79 769.86 1944.86 743.429 1949.7 738.384 C 1943.97 736.609 1902.1 758.659 1892.63 762.968 C 1889.65 754.32 1881.51 729.14 1877.62 722.8 L 1876.23 722.236 C 1875.22 723.805 1874.61 723.974 1875.3 726.016 C 1879.58 738.709 1884.69 752.455 1889.34 764.905 C 1861.92 778.544 1847.03 785.24 1824.62 806.492 C 1768.93 814.858 1729.79 808.679 1676.51 793.962 C 1677.82 786.968 1681.58 769.396 1682.1 763.131 C 1684.31 754.803 1698.34 682.656 1696.43 678.4 L 1695.02 678.058 C 1692.06 683.175 1692.2 689.334 1690.86 694.8 C 1686.79 711.453 1684.43 744.98 1676.14 758.864 L 1675.38 760.122 C 1634.89 816.129 1579.75 806.17 1542.82 752.837 C 1534.06 740.188 1525.43 727.231 1516.81 714.485 L 1479.7 659.648 z" fill="rgb(252,235,225)" transform="translate(0,0)"></path>
<path d="M 1976.87 1022.38 C 2040.88 1062.23 2228.69 1059.71 2294.3 1022.28 C 2293.74 1033.51 2292.93 1042.64 2291.62 1053.81 C 2282.67 1053.92 2264.94 1051.82 2259.39 1058.37 C 2254.03 1064.72 2259.13 1067.46 2259.08 1075.53 C 2252.2 1087.6 2254.4 1085.97 2259.46 1096.29 C 2259.51 1099 2256.49 1104.18 2256.75 1106.7 C 2258.05 1119.45 2272.56 1118.02 2281.12 1118.03 C 2274.92 1128.97 2270.05 1136.84 2262.83 1147.07 C 2248.28 1165.97 2229.77 1181.46 2208.6 1192.44 C 2170.64 1211.62 2126.68 1215.16 2086.14 1202.3 C 2043.13 1188.26 2010.43 1158.16 1990.3 1118.08 C 2010.48 1117.21 2010.14 1111.7 2006.19 1096.69 C 2006.06 1096.21 2011.23 1090.07 2011.45 1087.45 C 2011.97 1081.26 2007.88 1079.69 2006 1074.7 C 2013.29 1052.27 2000.59 1053.61 1976.98 1053.99 L 1976.87 1022.38 z" fill="rgb(201,72,30)" transform="translate(0,0)"></path>
<path d="M 2032.71 1103.37 C 2039.5 1101.89 2046.57 1104.18 2051.21 1109.35 C 2055.84 1114.53 2057.35 1121.8 2055.14 1128.39 C 2052.93 1134.98 2047.35 1139.88 2040.53 1141.21 C 2030.13 1143.24 2020.04 1136.53 2017.89 1126.16 C 2015.75 1115.78 2022.36 1105.62 2032.71 1103.37 z" fill="rgb(27,23,20)" transform="translate(0,0)"></path>
<path d="M 2033.17 1107.44 C 2041.07 1105.57 2049.03 1110.27 2051.21 1118.09 C 2053.38 1125.91 2048.98 1134.05 2041.25 1136.52 C 2035.98 1138.2 2030.21 1136.87 2026.22 1133.04 C 2022.22 1129.22 2020.64 1123.52 2022.09 1118.18 C 2023.54 1112.84 2027.79 1108.72 2033.17 1107.44 z" fill="rgb(255,255,255)" transform="translate(0,0)"></path>
<path d="M 1392.11 1021.73 C 1449.17 1053.29 1564.24 1053.9 1627.92 1048.8 C 1619.05 1089.76 1605.88 1136.69 1595.5 1177.91 C 1592.75 1189.48 1589.78 1201 1586.57 1212.45 C 1580.58 1212.97 1573.53 1213.18 1567.49 1213.13 C 1520.53 1212.69 1475.73 1193.37 1443.18 1159.53 C 1406.91 1122.41 1391.69 1072.76 1392.11 1021.73 z" fill="rgb(231,89,42)" transform="translate(0,0)"></path>
<path d="M 1450.31 1100.53 C 1462.7 1097.14 1475.48 1104.44 1478.86 1116.83 C 1482.24 1129.21 1474.94 1141.99 1462.55 1145.37 C 1450.17 1148.75 1437.4 1141.45 1434.02 1129.07 C 1430.64 1116.69 1437.93 1103.91 1450.31 1100.53 z" fill="rgb(27,23,20)" transform="translate(0,0)"></path>
<path d="M 1450.47 1104.69 C 1460.52 1101.44 1471.3 1106.9 1474.61 1116.92 C 1477.93 1126.94 1472.54 1137.76 1462.54 1141.15 C 1452.45 1144.57 1441.5 1139.11 1438.15 1128.99 C 1434.8 1118.88 1440.33 1107.96 1450.47 1104.69 z" fill="rgb(255,255,255)" transform="translate(0,0)"></path>
<path d="M 1227.01 1006.45 C 1276.72 1003.62 1332.76 1009.44 1381.49 1019.47 C 1389.19 1021.06 1390.69 1026.25 1385.67 1031.95 C 1359.03 1042.55 1293.71 1046.39 1264.81 1047.09 C 1208.8 1048.28 1152.6 1044.25 1099.11 1026.83 C 1138.92 1011.23 1184.63 1008.42 1227.01 1006.45 z" fill="rgb(252,235,225)" transform="translate(0,0)"></path>
<path d="M 2103.58 1007.42 C 2153.51 1004.6 2229.17 1008.16 2275.73 1027.61 C 2242.07 1039.43 2202.51 1044.97 2167 1046.2 C 2113.23 1049.3 2044.43 1045.92 1993.42 1027.6 C 2024.57 1012.6 2069.37 1009.51 2103.58 1007.42 z" fill="rgb(201,72,30)" transform="translate(0,0)"></path>
<path d="M 1769.24 473.662 C 1772.58 467.472 1776.18 459.426 1779.28 452.973 L 1780.74 475.132 C 1789.22 476.152 1804.15 477.554 1811.88 479.586 L 1815.11 467.924 C 1815.15 466.69 1814.97 465.664 1815.84 464.82 C 1818.08 464.994 1816.76 474.086 1816.56 475.497 L 1815.48 480.728 C 1815.14 487.609 1811.37 503.523 1809.86 510.783 C 1806.21 527.988 1802.74 545.227 1799.44 562.5 C 1787.63 565.514 1778.01 565.072 1766.16 562.784 C 1698.21 549.667 1714.58 517.979 1725.94 467.1 C 1740.41 469.064 1754.84 471.252 1769.24 473.662 z" fill="rgb(252,235,225)" transform="translate(0,0)"></path>
<path d="M 1815.11 467.924 C 1815.15 466.69 1814.97 465.664 1815.84 464.82 C 1818.08 464.994 1816.76 474.086 1816.56 475.497 C 1816.14 472.96 1815.66 470.435 1815.11 467.924 z" fill="rgb(127,117,110)" transform="translate(0,0)"></path>
<path d="M 1738.64 515.534 C 1740.95 518.656 1741.45 521.648 1743.74 524.601 C 1752.4 535.739 1766.71 537.946 1777.66 528.673 C 1782.64 524.451 1781.31 521.453 1784.63 517.37 C 1786.06 515.615 1787.43 519.856 1787.59 520.335 L 1786.84 521.909 C 1771.34 555.271 1730.29 529.711 1738.64 515.534 z" fill="rgb(27,23,20)" transform="translate(0,0)"></path>
<path d="M 1768.99 491.257 C 1775.37 494.53 1769.87 495.865 1772.53 501.49 C 1774.03 504.665 1780.11 504.858 1782.77 502.848 C 1785.95 500.449 1784.86 496.938 1787.53 495.06 C 1789.22 493.862 1790.04 497.599 1790.23 498.442 C 1783.74 513.222 1763.55 512.402 1768.99 491.257 z" fill="rgb(27,23,20)" transform="translate(0,0)"></path>
<path d="M 1737.65 482.049 C 1744.37 481.908 1757.1 483.134 1756.19 494.481 C 1755.83 499.056 1750.19 488.907 1748.32 487.076 C 1731.72 483.255 1734.56 493.81 1730.47 493.96 C 1725.71 490.222 1734.97 483.685 1737.65 482.049 z" fill="rgb(27,23,20)" transform="translate(0,0)"></path>
<path d="M 1739.31 502.68 C 1740.87 501.717 1742.9 502.1 1744.01 503.563 C 1745.11 505.027 1744.92 507.089 1743.56 508.322 C 1742.57 509.227 1741.14 509.491 1739.89 509.003 C 1738.64 508.516 1737.77 507.361 1737.64 506.021 C 1737.52 504.681 1738.17 503.388 1739.31 502.68 z" fill="rgb(27,23,20)" transform="translate(0,0)"></path>
<path d="M 1874.67 776.925 C 1877.53 781.002 1884.39 800.167 1886.53 805.752 C 1892.51 821.408 1898.66 836.997 1904.98 852.517 C 1901.99 854.001 1889.49 860.837 1887.47 860.296 L 1887.71 854.287 L 1886.57 853.511 C 1882.58 855.673 1875.01 876.681 1876.06 881.638 C 1879.3 880.041 1882.56 871.004 1884.33 867.139 C 1891.97 879.452 1889.44 894.261 1875.31 899.907 C 1870.99 901.675 1866.14 901.608 1861.87 899.724 C 1838.52 889.587 1854 860.668 1852.14 855.582 L 1850.18 855.978 C 1846.3 860.206 1844.67 871.481 1844.13 877.28 C 1845.49 888.285 1849.06 889.945 1850.18 896.41 C 1844.79 904.576 1832.36 897.786 1829.34 890.612 C 1826.09 882.876 1823.75 872.882 1824.14 864.417 C 1824.37 859.73 1828.74 853.565 1827.3 849.249 L 1825.37 849.335 C 1814.31 858.381 1824.83 883.472 1823.66 889.409 C 1820.85 890.182 1818.47 890.273 1815.61 889.412 C 1798.91 884.246 1801.15 862.41 1805.3 849.345 C 1817.47 810.938 1841.25 794.886 1874.67 776.925 z" fill="rgb(252,235,225)" transform="translate(0,0)"></path>
<path d="M 1548.51 1005.5 C 1575.5 1004.21 1611.1 1006.13 1638.14 1009.06 C 1634.88 1020.37 1631.89 1033.31 1628.95 1044.83 C 1588.91 1048.77 1543.43 1047.85 1503.3 1044.72 C 1468.55 1040.46 1445.51 1038.28 1412.09 1026.94 C 1444.03 1011.2 1513.07 1006.76 1548.51 1005.5 z" fill="rgb(231,89,42)" transform="translate(0,0)"></path>
<path d="M 1498.86 555.353 C 1485.5 553.221 1413.4 540.65 1406.58 531.94 C 1404.29 529.027 1403.13 524.719 1403.59 521.051 C 1403.88 518.77 1404.95 516.822 1406.81 515.45 C 1412.15 511.506 1421.25 512.88 1427.36 514.123 C 1461.74 521.122 1512.64 528.213 1533.53 559.53 C 1542.22 572.553 1542.12 587.231 1544.46 602.111 C 1540.55 607.673 1505.59 634.185 1497.62 640.92 C 1489.7 636.099 1482.71 632.693 1474.44 628.616 L 1469.13 625.895 L 1469.65 625.05 L 1474.63 624.649 C 1488.63 622.028 1493.25 611.897 1483.42 600.923 C 1493.94 590.17 1486.71 585.071 1494.42 580.235 L 1495.71 580.616 C 1496.56 586.554 1497.03 593.855 1501.37 598.429 L 1503 598.231 C 1503.71 595.169 1502.29 592.32 1500.94 589.856 C 1497.86 584.211 1503.55 576.97 1500.66 575.033 C 1490.74 577.039 1474.1 586.525 1468.69 575.196 C 1468.72 563.102 1488.89 559.612 1498.86 555.353 z" fill="rgb(252,235,225)" transform="translate(0,0)"></path>
<path d="M 2112.74 981.448 C 2137.93 980.196 2290.59 984.105 2293.86 1015.41 C 2291.35 1021.08 2285.17 1022.75 2279.32 1025.33 C 2247.27 1009.15 2197.51 1005.5 2162.08 1003.25 C 2115.62 1001.89 2030.37 1003.15 1988.82 1025.14 L 1987.55 1024.4 C 1982.54 1021.49 1979.57 1020.36 1978.08 1014.8 C 1981.02 988.28 2091.94 982.386 2112.74 981.448 z" fill="rgb(201,72,30)" transform="translate(0,0)"></path>
<path d="M 1504.61 1205.2 C 1521.89 1211.5 1534.46 1214.55 1552.73 1216.44 C 1552.63 1227.73 1552.66 1239.02 1552.82 1250.31 C 1553.45 1277.29 1558.41 1290.64 1525.48 1295.15 C 1517.61 1296.22 1510.2 1296.89 1502.24 1297.44 C 1439.03 1303.26 1443.07 1266.33 1504.14 1259.67 C 1504.05 1248.29 1503.22 1214.17 1504.61 1205.2 z" fill="rgb(231,89,42)" transform="translate(0,0)"></path>
<path d="M 1531.75 980.442 C 1569.39 978.644 1607.11 979.659 1644.6 983.478 C 1642.2 991.009 1640.85 997.518 1639.19 1005.21 C 1589.95 999.039 1541.92 1000.99 1492.76 1005.2 C 1465.48 1008.25 1431.62 1012.49 1407.24 1024.95 C 1401.13 1021.87 1396.73 1020.69 1394.21 1014.55 C 1395.88 989.044 1511.46 981.514 1531.75 980.442 z" fill="rgb(231,89,42)" transform="translate(0,0)"></path>
<path d="M 1317.14 1198.08 L 1318.92 1198.28 C 1320.49 1203.15 1318.99 1251.17 1318.8 1259.98 C 1332.64 1261.59 1362.49 1266.41 1364.71 1283.18 C 1366.57 1297.32 1333.9 1296.76 1325.95 1296.76 C 1311.58 1295.74 1290.63 1294.7 1278.65 1286.07 C 1273.75 1282.54 1275.92 1266.05 1275.95 1259.76 L 1275.92 1207.18 C 1291.64 1205.41 1302.24 1203.03 1317.14 1198.08 z" fill="rgb(252,235,225)" transform="translate(0,0)"></path>
<path d="M 2196.88 1202.13 C 2197.82 1206.14 2197.27 1252.14 2197.22 1259.72 C 2205.32 1260.92 2254.01 1269.16 2239.01 1290.19 C 2233.02 1298.59 2208.61 1297.34 2197.75 1296.88 C 2186.18 1296.28 2164.45 1295.19 2155.97 1286.58 C 2149.22 1279.73 2151.76 1260.7 2152 1251.06 C 2152.22 1238.4 2152.28 1225.74 2152.18 1213.08 C 2169.69 1210.9 2180.44 1208.33 2196.88 1202.13 z" fill="rgb(201,72,30)" transform="translate(0,0)"></path>
<path d="M 2076.28 1203.01 C 2093.41 1209.3 2104.1 1210.95 2121.81 1213.18 C 2120.91 1234.31 2122.25 1256.28 2121.63 1277.21 C 2121.07 1296.2 2088.32 1296.64 2073.75 1297.31 C 2062.28 1297.66 2048.58 1298.4 2038.05 1292.92 C 2031.58 1289.56 2029.72 1282.23 2034.47 1276.53 C 2043.97 1265.14 2062.59 1262.38 2076.37 1260.6 L 2076.28 1203.01 z" fill="rgb(201,72,30)" transform="translate(0,0)"></path>
<path d="M 1198.47 1199.56 C 1213.19 1204.48 1225.55 1206.3 1240.85 1207.44 C 1240.97 1232.22 1241.76 1260.8 1240.8 1285.28 C 1227.92 1293.98 1210.23 1295.43 1195.14 1296.7 C 1186.54 1296.82 1141.71 1298.38 1155.59 1276.11 C 1162.17 1265.55 1186.11 1261.05 1198.36 1259.44 L 1198.47 1199.56 z" fill="rgb(252,235,225)" transform="translate(0,0)"></path>
<path d="M 1951.59 1040.28 C 1959.01 1039.66 1965.4 1039.87 1972.83 1039.94 L 1972.79 1053.96 C 1968.44 1053.95 1963.79 1053.63 1959.51 1054.18 C 1958.29 1054.34 1957.96 1056.63 1958.65 1056.8 C 1970.42 1059.61 1984.41 1056.97 1996.93 1058.42 C 2004.46 1059.29 2008 1069.64 1999.49 1073.13 C 1996.44 1074.25 1973.51 1072.87 1972.94 1073.97 C 1967.74 1083.99 2008.38 1070.13 2006.81 1084.99 C 2004.98 1102.41 1979.79 1088.25 1972.09 1096.59 C 1979.46 1099.81 1992.71 1096.23 2000.82 1098.4 C 2007.82 1100.27 2004 1112.68 1999 1113 C 1985.7 1113.83 1963.84 1115.85 1951 1113.77 C 1946.81 1113.12 1942.77 1111.76 1939.04 1109.74 C 1908.03 1093.31 1912.57 1048.93 1951.59 1040.28 z" fill="rgb(201,72,30)" transform="translate(0,0)"></path>
<path d="M 2296.96 1039.88 C 2355.05 1038.36 2359.8 1106.47 2308.17 1114.01 C 2299.01 1115.35 2282.24 1112.96 2273.49 1113.74 C 2258.35 1115.1 2256.82 1097.13 2269.23 1097.71 L 2270.75 1097.8 C 2271.46 1097.81 2297.81 1100.18 2291.25 1094.46 C 2289.69 1093.1 2271.45 1094.21 2266.99 1093.74 C 2256.95 1092.68 2256.44 1080.06 2265.5 1077.76 C 2269.2 1076.84 2292.49 1080.1 2292 1075.68 C 2291.47 1070.86 2267.05 1076.84 2263.29 1071.68 C 2249.92 1048.31 2301.62 1062.65 2307.57 1056.65 C 2307.97 1052.6 2298.13 1053.98 2295.62 1053.95 C 2296.02 1049.11 2296.41 1044.72 2296.96 1039.88 z" fill="rgb(201,72,30)" transform="translate(0,0)"></path>
<path d="M 1617.01 1280.79 C 1631.31 1280.71 1645.61 1280.72 1659.91 1280.82 C 1653.84 1306.53 1649.27 1332.41 1643.52 1358.15 L 1602.91 1367.1 C 1590.51 1369.72 1578.47 1372.45 1565.99 1374.86 C 1576.41 1366.17 1591.08 1356.43 1602.46 1348.5 C 1607.74 1327.63 1612.58 1302.14 1617.01 1280.79 z" fill="rgb(252,235,225)" transform="translate(0,0)"></path>
<path d="M 1839.44 1280.95 L 1880.49 1280.99 C 1882.09 1303.64 1884.49 1326.24 1886.35 1348.88 C 1897.28 1356.82 1910.33 1366.61 1920.78 1375.09 C 1905.53 1373.37 1862.05 1362.04 1845.68 1357.95 C 1843.12 1333.11 1841.14 1305.92 1839.44 1280.95 z" fill="rgb(252,235,225)" transform="translate(0,0)"></path>
<path d="M 1328.73 1167.19 L 1329.53 1168.59 C 1330.07 1184.91 1328.6 1190.9 1311.1 1196.21 C 1275.55 1206.99 1222.01 1207.83 1188.6 1190.58 C 1182.04 1184.24 1183.72 1176.54 1183.88 1167.94 C 1231.01 1183.11 1281.76 1182.85 1328.73 1167.19 z" fill="rgb(231,89,42)" transform="translate(0,0)"></path>
<path d="M 1796.81 567.455 C 1798.27 568.484 1797.79 569.667 1798.21 569.949 C 1804.13 573.93 1827.28 574.724 1832.57 574.956 C 1830.68 583.682 1828.18 594.26 1827 603.015 C 1825.5 614.149 1818.1 618.49 1809.32 623.422 C 1803.22 625.531 1796.26 627.606 1790.01 625.873 C 1771.11 620.638 1774.33 606.583 1777.98 591.719 C 1779.73 584.583 1781.47 576.04 1782.79 569.151 C 1787.8 568.741 1791.84 568.142 1796.81 567.455 z" fill="rgb(252,235,225)" transform="translate(0,0)"></path>
<path d="M 1431.92 570.838 C 1440.05 570.897 1455.21 575.274 1463.85 577.148 C 1469.16 582.514 1472.27 585.998 1480.51 584.743 C 1492.43 582.928 1484.29 594.246 1480.16 598.574 C 1470.43 600.362 1406.05 592.011 1431.92 570.838 z" fill="rgb(252,235,225)" transform="translate(0,0)"></path>
<path d="M 1435.82 596.669 C 1441.38 596.78 1447.88 598.594 1453.51 599.781 C 1463.25 601.835 1470.67 602.565 1480.4 603.55 C 1487.97 608.89 1485.08 617.499 1477.01 620.252 C 1471.04 622.288 1462.22 620.447 1456.01 619.634 C 1450.48 618.415 1443.44 617.922 1438.56 614.891 C 1429.37 609.172 1431.62 603.67 1435.82 596.669 z" fill="rgb(252,235,225)" transform="translate(0,0)"></path>
<path d="M 1441.04 548.918 C 1449.88 549.13 1472.8 555 1483.26 556.852 C 1475.64 560.134 1473.82 560.421 1467.36 565.553 C 1465.25 568.625 1465.08 569.775 1463.6 573.157 C 1451.24 570.381 1419.55 567.804 1441.04 548.918 z" fill="rgb(252,235,225)" transform="translate(0,0)"></path>
<path d="M 1663.52 1280.84 C 1666.39 1280.85 1684 1280.62 1684.77 1281.57 C 1689.17 1287.05 1681.68 1293.31 1679.53 1294.89 C 1670.51 1298.44 1668.9 1297.88 1659.43 1299.07 C 1660.92 1292.87 1662.15 1287.07 1663.52 1280.84 z" fill="rgb(231,89,42)" transform="translate(0,0)"></path>
<path d="M 1589.63 1280.97 L 1612.45 1280.96 C 1611.83 1285.2 1611.07 1289.14 1610.38 1293.34 C 1601.14 1295.2 1594.01 1287.89 1589.63 1280.97 z" fill="rgb(231,89,42)" transform="translate(0,0)"></path>
<path d="M 581.005 736.39 C 633.335 731.719 679.061 765.344 700.045 811.686 C 709.259 814.697 712.423 815.388 719.323 822.266 C 720.283 831.938 722.254 861.211 718.107 869.792 C 714.345 877.578 706.526 879.31 698.972 881.805 L 699.094 1054.9 C 699.097 1075.03 698.628 1096.84 699.091 1116.81 C 700.008 1156.33 686.025 1176.51 653.61 1198.63 C 653.16 1217.97 653.109 1237.31 653.457 1256.65 C 668.142 1259.52 693.737 1264.21 698.606 1280.91 C 701.843 1292.01 688.834 1299.32 679.288 1300.46 C 656.951 1303.07 626.754 1303.05 606.577 1292.22 C 597.746 1287.48 600.649 1266.58 600.255 1257.91 C 599.647 1244.53 601.751 1228.44 599.644 1215.32 C 595.118 1215.54 590.168 1215.58 585.604 1215.7 C 585.448 1234.4 585.829 1253.15 585.755 1271.97 C 586.42 1285.86 584.984 1291.31 569.702 1296.67 C 554.705 1301.93 493.538 1309.22 487.774 1287.35 C 482.813 1268.54 517.249 1260.36 532.418 1257.64 L 532.092 1203.21 C 508.37 1190.57 486.408 1171.25 480.009 1143.87 C 476.463 1128.7 477.344 1109.84 477.345 1094.09 L 477.506 1034.86 L 477.542 881.329 C 458.387 874.142 457.224 872.317 457.649 851.488 C 457.842 842.033 456.591 831.379 458.981 822.054 C 463.884 815.489 468.89 814.514 476.576 811.645 C 497.325 766.14 530.795 741.311 581.005 736.39 z" fill="rgb(27,23,20)" transform="translate(0,0)"></path>
<path d="M 481.744 882.532 C 544.498 902.008 631.703 899.275 694.98 883.223 L 694.852 1053.07 C 694.864 1062.96 695.157 1072.99 694.985 1082.89 C 694.286 1123.27 702.096 1146.25 672.803 1178.23 C 650.723 1199.64 621.176 1211.62 590.417 1211.64 C 541.95 1212.03 484.333 1182.92 481.898 1128.31 C 480.702 1101.5 481.657 1073.53 481.739 1046.58 L 481.744 882.532 z" fill="rgb(231,89,42)" transform="translate(0,0)"></path>
<path d="M 622.368 979.652 C 631.771 987.811 591.721 1024.01 560.825 985.903 C 560.208 984.174 559.517 982.162 561.26 980.877 C 562.813 980.756 577.192 1004.11 596.444 998.61 C 614.199 993.538 611.378 995.094 622.368 979.652 z" fill="rgb(27,23,20)" transform="translate(0,0)"></path>
<path d="M 576.223 935.553 C 589.422 943.712 556.105 976.173 538.577 942.816 C 538.336 940.764 537.52 938.084 539.367 936.591 C 540.916 936.473 541.888 937.433 542.216 938.916 C 544.772 950.458 555.584 956.614 566.594 951.589 C 573.545 948.416 573.991 942.114 576.223 935.553 z" fill="rgb(27,23,20)" transform="translate(0,0)"></path>
<path d="M 606.722 935.467 C 609.593 937.291 609.666 937.076 610.095 940.485 C 611.191 949.197 621.221 955.049 629.514 953.309 C 637.938 951.423 641.531 944.853 643.527 937.188 C 644.12 934.913 647.423 939.106 647.553 939.265 L 647.019 940.576 C 634.194 972.621 601.677 953.072 606.722 935.467 z" fill="rgb(27,23,20)" transform="translate(0,0)"></path>
<path d="M 580.214 740.393 C 604.362 737.932 632.505 746.561 652.5 759.94 C 678.175 776.82 696.081 803.221 702.265 833.32 C 674.868 845.824 629.302 849.587 599.298 850.982 C 558.388 851.853 513.355 848.384 474.897 833.4 C 484.819 780.874 527.723 745.337 580.214 740.393 z" fill="rgb(231,89,42)" transform="translate(0,0)"></path>
<path d="M 461.911 830.423 C 514.067 863.565 663.846 862.712 716.019 830.443 C 716.103 842.67 716.031 854.898 715.805 867.123 C 695.842 898.698 497.864 900.068 464.345 869.951 C 460.289 866.306 461.819 837.263 461.911 830.423 z" fill="rgb(231,89,42)" transform="translate(0,0)"></path>
<path d="M 648.216 1201.23 C 650.067 1203.13 649.427 1253.53 649.433 1260.54 C 660.176 1261.68 694.988 1267.67 694.281 1284.34 C 693.643 1299.36 664.304 1297.93 653.022 1297.77 C 631.836 1296.72 599.912 1297.02 604.095 1269.63 C 604.756 1265.3 604.34 1256.93 604.382 1252.31 C 604.385 1239.81 604.25 1227.31 603.976 1214.81 C 623.302 1211.91 630.582 1209.86 648.216 1201.23 z" fill="rgb(231,89,42)" transform="translate(0,0)"></path>
<path d="M 536.301 1205 C 551.78 1211.62 565.502 1214.09 582.113 1215.34 C 582.061 1227.56 582.098 1239.79 582.225 1252.01 C 582.382 1260.25 582.939 1269.39 582.353 1277.55 C 581.014 1296.19 551.836 1296.97 537.969 1297.97 C 527.404 1298.21 501.983 1298.67 495.809 1291.43 C 477.766 1270.28 527.823 1262.41 536.897 1262.12 C 536.017 1244.7 536.287 1222.52 536.301 1205 z" fill="rgb(231,89,42)" transform="translate(0,0)"></path>
<path d="M 702.626 817.052 C 705.881 817.87 718.397 821.486 713.762 827.016 L 713.045 827.906 C 711.515 828.803 708.105 831.271 706.505 831.118 C 704.942 830 702.528 819.329 702.626 817.052 z" fill="rgb(231,89,42)" transform="translate(0,0)"></path>
<path d="M 473.179 816.771 C 476.147 818.017 472.007 831.471 469.541 830.135 L 468.465 829.624 C 459.635 822.795 461.436 822.622 473.179 816.771 z" fill="rgb(231,89,42)" transform="translate(0,0)"></path>
<path d="M 745.502 1005.71 C 748.934 1002.64 753.467 999.376 757.707 997.669 C 834.751 966.659 1004.39 970.386 1078.72 997.673 C 1079.8 998.298 1083.56 1000.49 1084.41 1000.33 C 1098.24 997.654 1107.79 991.539 1122.56 989.074 L 1125.12 992.37 C 1114.34 995.047 1098.38 998.887 1089.35 1005.22 C 1097.95 1014.03 1090.69 1018.54 1095.56 1024.64 C 1095.76 1026.99 1095.88 1026.86 1094.72 1028.88 C 1093.03 1039.81 1093.23 1051.56 1091.29 1062.62 C 1090.62 1066.46 1089.55 1072.19 1089.27 1075.98 C 1108.98 1120.05 1135.31 1142.36 1179.13 1161.38 L 1179.89 1166.58 C 1172.78 1162.69 1163.03 1159.1 1154.83 1154.46 C 1125.71 1137.98 1104.24 1117.13 1089.49 1087.11 C 1085.3 1092.33 1080.26 1108.38 1076.12 1116.29 C 1062.9 1141.83 1044.09 1164.05 1021.09 1181.32 C 1015.2 1185.78 1009.54 1188.86 1004.27 1192.76 C 1008.02 1198.62 1001.49 1206.8 1002.3 1213.91 C 1002.72 1217.55 997.928 1224.81 997.055 1229.09 C 1014.06 1232.91 1043.25 1238.33 1056.13 1248.84 C 1128.11 1286.7 1066.45 1317.24 1019.93 1327.56 C 981.589 1336.06 940.455 1340.06 901.22 1338.25 C 860.176 1336.36 761.247 1329.41 745.198 1284.91 C 743.648 1279.53 746.036 1195.94 745.629 1182.47 C 744.855 1156.94 744.338 1122.76 743.48 1096.57 C 743.34 1092.3 747.403 1085.57 747.101 1083.02 C 745.717 1071.34 740.996 1066.39 744.234 1053.94 C 743.66 1043.47 740.767 1014.13 745.502 1005.71 z" fill="rgb(43,37,32)" transform="translate(0,0)"></path>
<path d="M 909.918 1213.38 C 911.113 1213.4 912.308 1213.44 913.503 1213.48 C 926.869 1213.88 927.22 1209.94 926.767 1223.65 C 926.679 1241.78 926.477 1259.93 926.798 1278.15 C 926.921 1285.13 929.701 1290.58 937.851 1293.93 C 954.813 1300.88 1026.48 1312.3 1030.11 1284.9 C 1032.26 1268.69 1002.01 1259.62 986.849 1256.98 L 986.687 1229.59 C 1018.7 1234.51 1028.2 1240.39 1056.13 1248.84 C 1128.11 1286.7 1066.45 1317.24 1019.93 1327.56 C 981.589 1336.06 940.455 1340.06 901.22 1338.25 C 860.176 1336.36 761.247 1329.41 745.198 1284.91 C 751.424 1247.6 819.738 1235.41 851.106 1229.46 L 851.282 1256.8 C 838.254 1259.57 812.599 1264.42 808.22 1279.35 C 804.613 1292.21 817.581 1300.28 828.934 1301.19 C 852.441 1303.06 883.767 1303.53 904.123 1290.4 C 912.976 1284.42 909.531 1269.5 910.004 1260.55 C 910.773 1245.99 907.931 1227.36 909.918 1213.38 z" fill="url(#Gradient2)" transform="translate(0,0)"></path>
<path d="M 909.918 1213.38 C 911.113 1213.4 912.308 1213.44 913.503 1213.48 C 926.869 1213.88 927.22 1209.94 926.767 1223.65 C 919.82 1224.5 917.431 1224.65 910.495 1224.81 C 910.476 1220.01 910.608 1218.17 909.918 1213.38 z" fill="rgb(250,196,166)" transform="translate(0,0)"></path>
<path d="M 744.234 1053.94 C 753.506 1123.22 788.283 1169.23 851.11 1199.66 L 851.106 1229.46 C 819.738 1235.41 751.424 1247.6 745.198 1284.91 C 743.648 1279.53 746.036 1195.94 745.629 1182.47 C 744.855 1156.94 744.338 1122.76 743.48 1096.57 C 743.34 1092.3 747.403 1085.57 747.101 1083.02 C 745.717 1071.34 740.996 1066.39 744.234 1053.94 z" fill="url(#Gradient1)" transform="translate(0,0)"></path>
<path d="M 1086.92 1082.33 C 1087.37 1083.15 1089.26 1086.46 1089.49 1087.11 C 1085.3 1092.33 1080.26 1108.38 1076.12 1116.29 C 1062.9 1141.83 1044.09 1164.05 1021.09 1181.32 C 1015.2 1185.78 1009.54 1188.86 1004.27 1192.76 C 1008.02 1198.62 1001.49 1206.8 1002.3 1213.91 C 1002.72 1217.55 997.928 1224.81 997.055 1229.09 C 1014.06 1232.91 1043.25 1238.33 1056.13 1248.84 C 1028.2 1240.39 1018.7 1234.51 986.687 1229.59 L 986.888 1198.64 C 1026.73 1179.54 1057.24 1150.33 1076.68 1110.18 C 1078.94 1105.51 1081.54 1099.45 1082.7 1094.41 C 1084.22 1090.92 1085.69 1086.04 1086.92 1082.33 z" fill="rgb(252,235,225)" transform="translate(0,0)"></path>
<path d="M 761.818 1023.35 C 755.957 1020.69 752.387 1019.57 749.064 1014 C 748.834 1011.71 748.375 1009.47 750.394 1007.49 C 760.356 997.738 789.013 992.293 801.513 989.328 C 859.208 975.643 1039.01 975.579 1085.85 1006.95 C 1092.36 1017.02 1083.93 1020.07 1075.69 1024.68 C 1074.63 1028.04 1074.39 1028.03 1072.22 1030.65 C 1078.99 1027.68 1083.07 1025.11 1089.43 1021.2 C 1091.02 1044.17 1088.08 1059 1083.16 1081.17 C 1072.3 1112.39 1062.68 1132.03 1039.58 1156.19 C 972.672 1226.16 867.602 1227.22 799.021 1158.82 C 756.332 1116.24 747.966 1078.89 747.32 1020.71 C 752.337 1024.19 755.32 1025.89 760.704 1028.77 L 761.818 1023.35 z" fill="rgb(201,72,30)" transform="translate(0,0)"></path>
<path d="M 761.818 1023.35 C 755.957 1020.69 752.387 1019.57 749.064 1014 C 748.834 1011.71 748.375 1009.47 750.394 1007.49 C 760.356 997.738 789.013 992.293 801.513 989.328 C 859.208 975.643 1039.01 975.579 1085.85 1006.95 C 1092.36 1017.02 1083.93 1020.07 1075.69 1024.68 C 1074.63 1028.04 1074.39 1028.03 1072.22 1030.65 C 1070.63 1030.88 1056.4 1035.28 1053.5 1036.09 C 1041.42 1039.47 1029.15 1042.16 1016.76 1044.14 C 946.681 1055.02 827.324 1054.14 760.704 1028.77 L 761.818 1023.35 z" fill="rgb(27,23,20)" transform="translate(0,0)"></path>
<path d="M 761.818 1023.35 C 755.957 1020.69 752.387 1019.57 749.064 1014 C 748.834 1011.71 748.375 1009.47 750.394 1007.49 C 760.356 997.738 789.013 992.293 801.513 989.328 C 859.208 975.643 1039.01 975.579 1085.85 1006.95 C 1092.36 1017.02 1083.93 1020.07 1075.69 1024.68 C 1009.81 995.177 828.814 993.816 761.818 1023.35 z" fill="rgb(201,72,30)" transform="translate(0,0)"></path>
<path d="M 884.609 1006.42 C 934.108 1004.26 1024.6 1007.74 1070.56 1026.96 C 1038.92 1038.71 987.819 1044.85 954.128 1046.25 C 899.674 1049.34 817.049 1044.85 765.654 1025.82 C 800.65 1011.53 847.397 1008.76 884.609 1006.42 z" fill="rgb(201,72,30)" transform="translate(0,0)"></path>
<path d="M 937.346 1073.37 C 963.583 1068.28 988.967 1085.46 993.991 1111.71 C 999.015 1137.96 981.768 1163.31 955.506 1168.26 C 929.337 1173.2 904.108 1156.03 899.102 1129.87 C 894.097 1103.72 911.203 1078.45 937.346 1073.37 z" fill="rgb(43,37,32)" transform="translate(0,0)"></path>
<path d="M 941.321 1077.36 C 965.158 1074.53 986.829 1091.42 989.901 1115.23 C 992.973 1139.03 976.299 1160.87 952.524 1164.18 C 936.93 1166.36 921.371 1159.99 911.776 1147.5 C 902.182 1135.02 900.03 1118.35 906.142 1103.84 C 912.253 1089.33 925.686 1079.21 941.321 1077.36 z" fill="rgb(255,255,255)" transform="translate(0,0)"></path>
<path d="M 981.57 1201.05 C 983.277 1205.3 982.227 1252.77 982.307 1261.07 C 992.051 1262.63 1026.35 1268.86 1025.52 1283.68 C 1024.56 1300.9 987.122 1297.62 974.752 1296.83 C 962.745 1295.62 944.604 1294.5 935.021 1286.83 C 929.64 1282.52 931.174 1263.23 931.157 1256.16 L 931.028 1213.24 C 948.75 1212.64 965.231 1207.41 981.57 1201.05 z" fill="rgb(201,72,30)" transform="translate(0,0)"></path>
<path d="M 856.001 1201.53 C 874.044 1208.91 886.335 1210.8 905.238 1213.29 C 905.286 1224.5 906.749 1273.55 903.794 1284.6 C 901.822 1291.97 872.089 1296.45 862.251 1297.11 C 852.3 1297.72 844.201 1297.58 833.951 1297.02 C 825.188 1296.54 806.27 1290.77 813.867 1278.49 C 821.152 1266.72 842.602 1263.08 855.675 1260.41 L 856.001 1201.53 z" fill="rgb(201,72,30)" transform="translate(0,0)"></path>
<path d="M 257.484 977.412 C 314.551 974.281 380.412 978.496 435.799 992.061 C 458.507 1000.16 470.18 1001.58 467.126 1027.9 C 459.915 1090.08 428.433 1133.94 371.808 1162.03 C 371.906 1178.72 374.993 1188 358.353 1196.29 C 358.14 1216.38 358.241 1236.47 358.657 1256.55 C 372.138 1259.11 406.586 1267.77 405.158 1283.77 C 402.733 1310.94 321.704 1303.03 310.108 1288.97 C 303.773 1281.29 306.48 1240.9 306.624 1230.75 L 306.591 1207.61 C 298.888 1207.88 290.941 1207.83 283.214 1207.88 C 283.069 1229.9 283.43 1251.86 283.239 1273.97 C 284.265 1288.52 278.483 1293.01 264.569 1296.92 C 249.239 1301.23 192.152 1308.43 186.283 1286.77 C 181.021 1267.34 219.868 1259.18 232.505 1256.61 C 232.216 1236.97 232.097 1217.33 232.145 1197.69 C 214.285 1189.66 217.036 1181.5 217.784 1164.36 C 201.222 1156.61 187.728 1148.72 173.974 1137.08 C 139.073 1107.55 121.137 1068.42 118.99 1023.03 C 118.395 1018.07 118.784 1009.82 122.728 1006.15 C 132.86 996.712 147.392 992.693 160.744 989.469 C 192.432 981.818 224.988 979.073 257.484 977.412 z" fill="rgb(27,23,20)" transform="translate(0,0)"></path>
<path d="M 123.02 1021.38 C 143.961 1032.34 143.829 1033.56 168.834 1039.46 C 239.051 1056.02 402.441 1059.94 463.337 1021.01 C 462.032 1054.74 450.41 1083.62 430.649 1110.55 C 429.431 1112.04 428.201 1113.52 426.958 1115 C 346.201 1210.69 175.578 1190.27 131.626 1068.87 C 125.833 1052.86 124.267 1038.11 123.02 1021.38 z" fill="rgb(252,235,225)" transform="translate(0,0)"></path>
<path d="M 292.834 1070.43 C 303.318 1069.04 312.976 1076.32 314.518 1086.79 C 316.061 1097.25 308.915 1107.01 298.476 1108.7 C 291.588 1109.82 284.632 1107.14 280.273 1101.69 C 275.914 1096.24 274.827 1088.87 277.429 1082.4 C 280.03 1075.92 285.917 1071.35 292.834 1070.43 z" fill="rgb(201,72,30)" transform="translate(0,0)"></path>
<path d="M 290.834 1075.59 C 298.459 1073.09 306.677 1077.21 309.225 1084.82 C 311.773 1092.43 307.694 1100.67 300.096 1103.26 C 292.441 1105.87 284.124 1101.75 281.557 1094.08 C 278.989 1086.42 283.151 1078.12 290.834 1075.59 z" fill="rgb(231,89,42)" transform="translate(0,0)"></path>
<path d="M 339.335 1114.58 L 341.288 1116.4 C 342.38 1123.3 333.079 1131.13 327.777 1134.68 C 315.081 1143.2 299.503 1146.29 284.517 1143.26 C 269.352 1140.22 260.293 1133.07 252 1120.52 C 251.561 1119.22 251.628 1118.5 251.507 1117.1 L 252.79 1115.71 C 254.095 1116.22 263.67 1128.44 269.069 1131.61 C 295.687 1147.23 322.652 1139.72 339.335 1114.58 z" fill="rgb(201,72,30)" transform="translate(0,0)"></path>
<path d="M 262.718 1006.44 C 311.924 1004.3 399.168 1007.45 444.813 1026.87 C 413.832 1039.33 361.317 1044.53 328.25 1046.77 C 271.332 1048.97 195.988 1046.02 141.778 1027.28 C 174.071 1011.69 227.084 1008.39 262.718 1006.44 z" fill="rgb(252,235,225)" transform="translate(0,0)"></path>
<path d="M 256.688 981.438 C 265.232 980.661 281.129 980.884 289.841 980.893 C 324.55 980.73 359.228 983.001 393.619 987.69 C 413.781 990.522 431.349 994 450.516 1001.62 C 470.654 1009.62 464.847 1017.51 448.522 1025.08 C 423.525 1009.36 358.656 1004.37 328.752 1002.76 C 287.401 999.604 172.269 1002.38 137.818 1025.77 C 78.2037 992.699 245.951 982.019 256.688 981.438 z" fill="rgb(252,235,225)" transform="translate(0,0)"></path>
<path d="M 353.792 1198.15 C 354.835 1203.51 354.249 1251.76 354.203 1260.21 C 404.462 1266.51 424.221 1298.84 358.751 1297.63 C 346.096 1296.83 323.524 1295.49 314.01 1286.86 C 308.783 1282.11 310.42 1259.4 310.453 1252.18 L 310.456 1207.31 C 325.195 1205.86 339.729 1202.79 353.792 1198.15 z" fill="rgb(252,235,225)" transform="translate(0,0)"></path>
<path d="M 236.199 1198.86 C 252.279 1204.4 262.242 1206.09 279.222 1207.31 C 279.128 1223.9 280.698 1270.02 277.075 1286.05 C 275.348 1293.69 240.397 1296.92 231.243 1297.28 C 166.584 1298.54 186.361 1267.05 236.547 1260.5 C 236.669 1240.11 236.331 1219.28 236.199 1198.86 z" fill="rgb(252,235,225)" transform="translate(0,0)"></path>
<path d="M 366.994 1164.16 C 368.577 1166.92 367.601 1171.56 367.893 1174.68 C 369.526 1192.11 348.108 1196.63 334.793 1199.64 C 304.723 1206.44 251.221 1206.2 224.641 1189.17 C 219.832 1181.85 221.113 1174.77 221.32 1165.98 C 268.276 1184.28 320.508 1183.63 366.994 1164.16 z" fill="rgb(231,89,42)" transform="translate(0,0)"></path>
<path d="M 745.502 1005.71 C 749.438 988.42 752.523 966.744 755.417 949.101 L 770.332 859.72 C 774.846 833.158 779.424 806.59 783.818 780.012 C 785.167 771.853 788.161 763.834 787.286 755.957 L 787.107 754.445 L 788.909 752.553 L 789.244 752.938 C 789.306 760.353 787.593 763.864 786.325 771.141 L 780.074 808.505 C 775.123 840.32 769.894 872.091 764.389 903.815 C 763.622 908.348 757.986 939.984 758.314 942.402 C 760.584 941.481 762.163 940.31 764.196 938.972 L 765.886 939.456 L 766.94 944.189 L 768.607 944.971 L 770.3 943.166 C 776.022 943.47 776.837 946.807 783.036 949.151 L 784.363 948.374 C 784.659 945.805 785.029 943.246 785.474 940.699 C 790.22 937.908 792.899 938.799 798.899 936.918 C 800.786 933.801 802.784 929.812 805.754 928.333 C 810.702 930.511 810.245 930.331 814.743 928.59 C 815.759 926.889 816.245 926.056 816.971 924.248 L 817.528 922.841 C 830.078 930.321 827.911 916.279 837.604 921.249 C 837.525 923.504 837.378 923.445 838.359 925.436 L 841.325 926.185 C 842.04 924.383 841.435 924.941 842.857 924.248 L 845.439 926.615 L 853.164 924.815 C 856.242 925.545 857.011 926.866 859.212 929.196 L 860.047 930.095 C 863.013 929.834 862.541 929.492 865.379 927.397 L 866.678 928.543 L 867.817 928.317 C 868.179 926.096 868.482 924.688 869.038 922.506 L 870.582 921.618 L 872.235 923.628 L 873.363 923.081 L 874.165 920.331 L 876.41 919.408 L 875.012 917.084 C 875.242 914.402 874.699 915.528 876.861 913.686 C 880.759 913.02 879.832 912.604 883 913.878 C 883.781 916.207 883.642 916.235 885.223 918.061 C 889.578 918.131 891.245 914.58 892.944 915.24 C 902.969 919.132 907.817 931.156 915.426 916.285 L 916.516 916.507 L 917.374 919.638 C 920.458 920.9 918.835 920.674 922.446 919.83 C 922.424 917.204 922.613 918.24 921.141 915.802 C 925.156 914.212 926.201 916.627 927.015 916.107 C 930.765 913.706 935.222 909.709 939.526 907.996 L 941.804 909.834 C 945.391 906.147 942.508 903.993 946.23 904.483 C 949.701 904.941 955.591 906.156 958.706 907.558 L 960.134 910.765 C 963.648 907.401 958.66 908.599 963.469 906.483 C 964.902 907.282 965.926 907.832 967.416 908.561 C 968.482 906.449 968.759 905.749 969.51 903.501 L 971.247 902.564 C 975.671 904.461 974.935 905.051 978.222 903.825 L 979.903 900.945 C 981.901 900.589 981.047 900.463 982.491 900.948 C 981.761 902.421 981.372 903.08 980.472 904.458 C 983.717 904.448 988.712 901.136 988.501 900.857 C 992.919 905.73 993.047 902.802 997.005 899.725 C 997.436 899.391 999.585 901.999 1001.19 901.116 C 1009.84 896.367 1022.18 904.356 1028.04 910.337 C 1033.47 909.23 1036.12 906.57 1038.93 908.057 L 1041.46 912.612 L 1045.99 912.143 L 1047.6 915.81 C 1054.28 918.325 1061.16 922.883 1065.28 923.95 C 1065.72 924.969 1066.18 925.985 1066.65 926.997 C 1067.26 918.132 1060.14 880.541 1058.63 868.377 C 1055.23 841.066 1050.69 812.727 1047.45 785.346 C 1046.59 778.128 1042.59 765.762 1044.42 759.034 L 1044.5 760.206 C 1045.26 769.858 1047.71 780.658 1049.12 790.457 L 1058.97 859.55 L 1071.52 946.656 C 1073.71 962.285 1075.96 982.377 1078.72 997.673 C 1004.39 970.386 834.751 966.659 757.707 997.669 C 753.467 999.376 748.934 1002.64 745.502 1005.71 z" fill="rgb(252,235,225)" transform="translate(0,0)"></path>
<path d="M 883 913.878 C 883.352 913.414 883.622 913.039 884.074 912.714 C 884.532 912.78 884.603 912.935 885.045 913.282 C 885.022 913.45 885.004 914.414 884.737 914.717 C 884.687 914.774 884.572 914.801 884.505 914.784 C 884.062 914.671 883.729 914.357 883.357 914.108 C 883.24 914.029 883.119 913.954 883 913.878 z" fill="rgb(252,235,225)" transform="translate(0,0)"></path>
<path d="M 806.141 923.57 C 806.928 923.827 806.677 924.033 807.013 924.817 C 806.235 924.637 806.461 924.763 806.169 924.522 C 806.046 924.136 806.09 924.41 806.141 923.57 z" fill="rgb(252,235,225)" transform="translate(0,0)"></path>
<metadata><recraft-signature>{"signed_by": "recraft", "signature_b64": "vFhZoYkMfzRxZy1FBvkF9KwMK8bzr+TIqe5wxX5EXfD8rV1tlhtTX7uz2qiJroFUp5XjkxRVFM9lxUKvT7RJBg==", "signing_algo": "Ed25519", "generation_timestamp": 1783393830, "identifier": "3e585ae7-7aa4-46cc-a4f8-c6d3218fc568"}</recraft-signature></metadata></svg>