<svg xmlns="http://www.w3.org/2000/svg" height="1792" preserveAspectRatio="none" style="display: block;" version="1.1" viewBox="0 0 2432 1792" width="2432">
<path d="M 0 0 L 2432 0 L 2432 1792 L 0 1792 L 0 0 z" fill="rgb(255,255,255)" transform="translate(0,0)"></path>
<path d="M 1067.73 606.199 C 1068.22 605.893 1073.38 602.863 1073.37 602.914 C 1076.6 582.866 1080.71 564.493 1087.45 545.252 C 1146.23 377.304 1307.95 269.332 1478 237.995 C 1565.94 221.79 1654.92 225.721 1740.93 250.249 C 1744.52 251.267 1772.06 258.849 1773.3 259.668 C 1777.21 260.227 1784.43 261.912 1788.04 263.404 C 1934.27 304.602 2058.13 402.241 2132.33 534.813 C 2176.52 612.296 2211.2 721.144 2200.35 811.177 C 2198 830.615 2192.21 854.557 2187.68 873.962 L 2166.08 964.544 L 2132.17 1106.8 C 2126.63 1129.7 2120.35 1158.86 2113.99 1181.15 C 2079.84 1300.95 1973.42 1413.16 1867.58 1473.36 C 1754.82 1536.78 1625.22 1563.83 1496.5 1550.8 C 1494 1550.95 1484.85 1550.02 1481.87 1549.78 C 1478.13 1549.93 1470.31 1548.8 1466.73 1547.88 C 1463.4 1548.73 1450.92 1546.72 1446.6 1546.15 C 1401.84 1540.58 1357.9 1529.66 1315.74 1513.63 C 1210.27 1474.54 1106.3 1386.36 1058.71 1283.25 C 1021.71 1203.1 1029.24 1136.78 1059.07 1056.84 C 1054.25 1040.8 1048.7 1025.07 1045.81 1008.53 C 1044.92 1003.41 1043.99 997.123 1041.99 992.414 C 982.824 982.948 926.759 959.555 878.413 924.165 C 843.507 898.811 811.251 867.328 789.028 830.156 C 777.616 811.068 772.38 804.057 784.845 784.125 C 791.873 772.886 797.585 762.726 805.659 751.895 C 856.472 683.73 932.363 636.086 1014.29 614.874 C 1031.86 610.327 1049.87 608.77 1067.73 606.199 z" fill="rgb(247,241,234)" transform="translate(0,0)"></path>
<path d="M 1067.73 606.199 C 1085.28 605.709 1103.01 605.175 1120.54 606.625 C 1206 613.858 1286.57 649.523 1349.39 707.923 C 1362.15 720.002 1415.66 780.447 1412.34 796.413 C 1406.18 826.04 1370.58 869.998 1348.58 891.537 C 1279.71 960.222 1185.9 997.997 1088.65 996.205 C 1072.2 996.006 1058.25 994.553 1041.99 992.414 C 982.824 982.948 926.759 959.555 878.413 924.165 C 843.507 898.811 811.251 867.328 789.028 830.156 C 777.616 811.068 772.38 804.057 784.845 784.125 C 791.873 772.886 797.585 762.726 805.659 751.895 C 856.472 683.73 932.363 636.086 1014.29 614.874 C 1031.86 610.327 1049.87 608.77 1067.73 606.199 z" fill="rgb(27,23,20)" transform="translate(0,0)"></path>
<path d="M 1085.72 635.474 C 1201.77 630.72 1323.78 694.084 1381.91 795.438 C 1372.25 816.926 1356.45 839.81 1340.78 857.28 C 1278.85 926.335 1201.27 961.757 1109.68 967.683 C 1057.89 968.386 1016.05 960.792 967.374 941.554 C 908.139 918.144 835.323 863.664 809.612 803.738 C 816.624 785.135 836.382 758.05 850.482 743.297 C 915.539 675.226 992.667 639.751 1085.72 635.474 z" fill="rgb(247,241,234)" transform="translate(0,0)"></path>
<path d="M 1200.38 721.571 C 1269.81 807.404 1212.19 925.441 1105.6 931.955 C 1069.13 933.971 1033.32 921.575 1005.9 897.437 C 980.648 875.34 965.203 844.119 962.961 810.638 C 960.989 777.064 972.604 744.108 995.192 719.19 C 1019.56 692.206 1053.65 676.018 1089.96 674.193 C 1120.19 672.582 1158.29 683.028 1180.92 703.5 C 1184.94 703.841 1186.12 705.115 1186.63 709.01 C 1188.52 710.974 1192.69 715.186 1194.93 716.244 C 1197.81 718.104 1198.15 718.77 1200.38 721.571 z" fill="rgb(27,23,20)" transform="translate(0,0)"></path>
<path d="M 1198.46 722.48 C 1206.44 741.645 1201.2 764.052 1183.07 774.527 C 1132.37 803.822 1088.28 731.947 1141 703.087 C 1153.68 696.144 1167.85 698.726 1180.92 703.5 C 1184.94 703.841 1186.12 705.115 1186.63 709.01 C 1188.52 710.974 1192.69 715.186 1194.93 716.244 C 1197.81 718.104 1198.15 718.77 1200.38 721.571 L 1198.46 722.48 z" fill="rgb(255,255,255)" transform="translate(0,0)"></path>
<path d="M 1180.92 703.5 C 1184.94 703.841 1186.12 705.115 1186.63 709.01 L 1184.27 707.107 C 1182.38 705.626 1181.57 705.63 1180.92 703.5 z" fill="rgb(252,235,225)" transform="translate(0,0)"></path>
<path d="M 1194.93 716.244 C 1197.81 718.104 1198.15 718.77 1200.38 721.571 L 1198.46 722.48 C 1196.89 720.25 1196.1 718.671 1194.93 716.244 z" fill="rgb(43,37,32)" transform="translate(0,0)"></path>
<path d="M 915.895 722.948 C 920.964 722.866 925.626 724.59 926.878 729.722 C 924.692 739.235 909.58 745.322 901.688 750.548 C 859.744 778.27 855.717 826.556 901.312 853.018 C 907.396 856.549 913.444 859.354 913.084 867.064 C 911.32 871.097 910.785 871.249 907.223 874.116 C 905.615 874.167 902.474 874.2 901.079 873.501 C 868.404 856.98 840.551 821.154 854.028 783.078 C 864.486 753.531 888.77 736.294 915.895 722.948 z" fill="rgb(231,89,42)" transform="translate(0,0)"></path>
<path d="M 1788.04 263.404 C 1934.27 304.602 2058.13 402.241 2132.33 534.813 C 2176.52 612.296 2211.2 721.144 2200.35 811.177 C 2198 830.615 2192.21 854.557 2187.68 873.962 L 2166.08 964.544 L 2132.17 1106.8 C 2126.63 1129.7 2120.35 1158.86 2113.99 1181.15 C 2079.84 1300.95 1973.42 1413.16 1867.58 1473.36 C 1754.82 1536.78 1625.22 1563.83 1496.5 1550.8 C 1494 1550.95 1484.85 1550.02 1481.87 1549.78 C 1481.37 1548.93 1481.47 1549.21 1481.39 1548.81 C 1482.22 1547.74 1497.54 1548.1 1500.06 1548.08 C 1505.51 1548.04 1508.7 1548.09 1514.13 1547.08 C 1579.11 1544.68 1643.2 1531.07 1703.55 1506.84 C 1844.73 1449.9 1966.26 1337.8 2028.34 1197.96 C 2040.63 1170.29 2047.55 1140.75 2055.49 1111.64 L 2081.9 1014.61 L 2113.39 896.31 C 2119.98 871.17 2130.23 835.497 2133.97 810.925 C 2145 738.468 2128.75 651.865 2101.47 584.649 C 2043.34 440.843 1930.32 326.119 1787.4 265.847 L 1788.04 263.404 z" fill="rgb(43,37,32)" transform="translate(0,0)"></path>
<path d="M 1466.73 1547.88 C 1470.46 1547.19 1508.79 1546.81 1514.13 1547.08 C 1508.7 1548.09 1505.51 1548.04 1500.06 1548.08 C 1497.54 1548.1 1482.22 1547.74 1481.39 1548.81 C 1481.47 1549.21 1481.37 1548.93 1481.87 1549.78 C 1478.13 1549.93 1470.31 1548.8 1466.73 1547.88 z" fill="rgb(171,154,145)" transform="translate(0,0)"></path>
<path d="M 1773.3 259.668 C 1777.21 260.227 1784.43 261.912 1788.04 263.404 L 1787.4 265.847 C 1782.89 264.396 1777.25 262.256 1773.3 259.668 z" fill="rgb(108,84,78)" transform="translate(0,0)"></path>
<path d="M 1802.62 647.414 C 1854.78 644.828 1906.07 661.548 1946.68 694.381 C 1970.21 713.032 2007.32 754.402 2014.8 785.441 C 2018.33 800.099 1998.02 831.515 1988.29 843.245 C 1950.09 890.165 1894.52 919.622 1834.25 924.905 C 1775.93 929.991 1724.49 910.637 1679.63 874.035 C 1658.66 856.932 1622.26 817.357 1619.44 789.739 C 1617.57 771.386 1640.06 737.972 1651.86 724.684 C 1690 681.731 1745.32 651.938 1802.62 647.414 z" fill="rgb(27,23,20)" transform="translate(0,0)"></path>
<path d="M 1813.28 676.451 C 1833.73 676.551 1854.02 680.084 1873.3 686.902 C 1919.72 703.412 1962.91 743.359 1983.96 787.901 C 1968.15 830.207 1930.07 859.739 1891.3 879.73 C 1854.12 896.655 1812.15 899.926 1772.8 888.965 C 1829.18 828.082 1833.76 744.186 1778.5 680.801 C 1791.63 677.697 1800.06 676.945 1813.28 676.451 z" fill="rgb(247,241,234)" transform="translate(0,0)"></path>
<path d="M 1828.81 516.452 C 1865.92 517.634 1914.04 521.657 1948.38 536.774 C 1955.64 541.293 1956.51 550.514 1951.42 556.379 C 1942.84 567.231 1913.59 556.1 1900.95 553.447 C 1750.4 521.837 1604.12 592.671 1531.03 727.062 C 1481.72 817.721 1437.44 911.897 1396.04 1006.72 C 1385.54 1030.79 1370.83 1054.84 1373.19 1081.91 C 1375.57 1106.69 1387.74 1129.5 1406.99 1145.28 C 1430.55 1164.83 1456.7 1170.34 1486.52 1167.47 C 1504 1164.59 1518.87 1158.86 1535.71 1153.81 C 1549.06 1149.81 1561.11 1165.84 1550.87 1176.11 C 1543.6 1183.4 1531.43 1186.33 1521.91 1189.73 C 1474.36 1205.77 1419.38 1197.93 1381.88 1163.35 C 1350.12 1134.07 1332.91 1085.85 1347.05 1043.89 C 1352.13 1028.84 1359.25 1014.09 1365.81 999.614 L 1394.74 935.963 C 1419.29 881.527 1445.08 827.661 1472.1 774.407 C 1483.66 751.771 1495.03 729.642 1507.46 707.435 C 1575.35 586.176 1689.45 520.661 1828.81 516.452 z" fill="rgb(27,23,20)" transform="translate(0,0)"></path>
<path d="M 1851.93 1151.1 C 1884.02 1152.1 1861.46 1185.2 1852.6 1198.37 C 1823.86 1240.86 1785.08 1275.61 1739.7 1299.53 C 1664.11 1340.02 1571.62 1350.96 1489.31 1326.08 C 1487.91 1325.63 1486.52 1325.14 1485.15 1324.62 C 1477.41 1321.61 1472.33 1313.61 1475.79 1305.38 C 1482.04 1290.52 1503.29 1299.62 1515.58 1302.6 C 1560.96 1313.64 1608.66 1312.03 1654.17 1300.72 C 1719.53 1284.96 1777.59 1247.44 1818.81 1194.33 C 1827.7 1183.09 1839.53 1156.11 1851.93 1151.1 z" fill="rgb(27,23,20)" transform="translate(0,0)"></path>
<path d="M 1322.84 537.91 C 1354.52 536.7 1317.67 577.747 1312.05 590.523 C 1308.77 597.973 1290.77 626.62 1286.35 630.155 C 1255.57 629.616 1289.63 592.864 1295.31 580.707 C 1298.41 574.049 1318.9 540.887 1322.84 537.91 z" fill="rgb(27,23,20)" transform="translate(0,0)"></path>
<path d="M 1177.72 487.919 C 1196.77 489.372 1186.87 510.015 1183.94 522.952 L 1171.88 576.372 C 1169.85 585.119 1170.5 585.713 1163.15 590.305 C 1147.36 589.8 1151.17 578.409 1153.66 567.55 C 1158.43 546.759 1163.27 525.971 1168.23 505.227 C 1170.41 496.128 1169.39 493.013 1177.72 487.919 z" fill="rgb(27,23,20)" transform="translate(0,0)"></path>
<path d="M 378.739 659.108 C 374.483 605.077 383.401 550.821 404.726 500.995 C 445.699 406.249 522.216 331.366 617.824 292.447 C 697 260.856 780.702 251.692 863.959 274.319 C 881.978 279.216 896.854 285.612 913.987 292.995 L 952.154 308.953 C 966.598 314.859 998.919 324.239 1002.87 341.413 C 1013.18 386.187 994.019 456.044 975.674 496.633 C 897.944 668.612 726.04 773.532 541.011 783.805 C 521.446 798.722 503.5 808.561 478.995 812.587 C 414.48 823.185 357.516 794.41 340.623 729.338 C 354.961 725.316 372.994 720.931 386.697 716.24 C 383.3 700.182 380.547 675.412 378.739 659.108 z" fill="rgb(231,89,42)" transform="translate(0,0)"></path>
<path d="M 913.987 292.995 L 952.154 308.953 C 966.598 314.859 998.919 324.239 1002.87 341.413 C 1013.18 386.187 994.019 456.044 975.674 496.633 C 897.944 668.612 726.04 773.532 541.011 783.805 C 521.446 798.722 503.5 808.561 478.995 812.587 C 414.48 823.185 357.516 794.41 340.623 729.338 C 354.961 725.316 372.994 720.931 386.697 716.24 C 383.3 700.182 380.547 675.412 378.739 659.108 C 403.316 664.655 428.294 668.251 453.438 669.863 C 573.097 675.765 690.354 634.858 780.375 555.807 C 858.46 485.872 908.152 398.572 913.987 292.995 z" fill="rgb(27,23,20)" transform="translate(0,0)"></path>
<path d="M 386.697 716.24 C 388.922 732.487 390.486 753.987 405.361 763.47 C 434.985 782.356 507.898 784.709 541.011 783.805 C 521.446 798.722 503.5 808.561 478.995 812.587 C 414.48 823.185 357.516 794.41 340.623 729.338 C 354.961 725.316 372.994 720.931 386.697 716.24 z" fill="rgb(231,89,42)" transform="translate(0,0)"></path>
<path d="M 964.544 330.981 C 972.63 333.442 981.654 337.03 986.028 344.628 C 995.022 364.68 987.109 406.052 982.176 426.477 C 925.839 659.73 659.228 810.363 430.774 758.091 C 413.07 753.221 408.53 747.453 404.678 729.75 C 442.79 738.182 481.768 742.066 520.794 741.32 C 645.721 739.311 764.762 687.88 851.849 598.287 C 923.447 523.675 966.61 435.514 964.544 330.981 z" fill="rgb(252,235,225)" transform="translate(0,0)"></path>
<path d="M 535.862 379.906 C 541.38 379.51 547.766 381.431 547.76 387.595 C 547.75 396.384 529.447 408.67 523.153 415.105 C 501.371 437.447 483.235 463.072 469.406 491.043 C 452.797 523.217 442.087 558.107 437.783 594.059 C 436.247 605.99 435.809 618.501 433.642 630.251 C 433.472 631.172 430.606 634.17 429.8 634.989 C 426.435 635.313 419.542 635.727 418.332 631.791 C 415.061 621.155 418.256 602.143 419.613 591.209 C 429.393 512.373 472.123 428.406 535.862 379.906 z" fill="rgb(27,23,20)" transform="translate(0,0)"></path>
<path d="M 582.839 398.13 C 583.34 398.169 583.841 398.212 584.341 398.26 C 605.555 400.426 587.599 415.74 580.372 421.465 C 513.826 474.18 486.137 557.413 485.381 639.968 C 485.351 643.278 481.082 645.436 478.628 646.929 C 477.752 646.787 476.872 646.659 476.007 646.46 C 473.03 645.775 470.373 644.403 468.886 641.622 C 462.616 629.896 475.678 559.71 480.378 543.537 C 495.766 490.578 533.158 425.421 582.839 398.13 z" fill="rgb(27,23,20)" transform="translate(0,0)"></path>
<path d="M 596.514 943.838 C 748.614 940.886 874.334 1061.74 877.382 1213.84 C 880.43 1365.94 759.652 1491.73 607.556 1494.88 C 455.325 1498.02 329.392 1377.12 326.342 1224.88 C 323.291 1072.65 444.279 946.793 596.514 943.838 z" fill="rgb(231,89,42)" transform="translate(0,0)"></path>
<path d="M 582.193 1001.05 C 702.536 989.394 809.448 1077.74 820.679 1198.12 C 831.91 1318.51 743.185 1425.1 622.762 1435.91 C 502.942 1446.65 396.997 1358.47 385.823 1238.69 C 374.648 1118.91 462.453 1012.65 582.193 1001.05 z" fill="rgb(255,255,255)" transform="translate(0,0)"></path>
<path d="M 600.006 1078.09 C 608.945 1077.44 615.253 1080.06 615.713 1089.76 C 616.346 1103.13 615.99 1116.9 615.986 1130.28 L 615.96 1215.08 C 618.62 1216 636.203 1222.41 637.481 1223.44 C 649.143 1232.81 719.291 1243.17 690.506 1266.52 C 688.902 1266.83 687.241 1267.1 685.6 1267.05 C 676.266 1266.81 602.135 1235.87 596.133 1229.38 C 593.998 1227.07 593.781 1223.81 593.546 1220.77 C 591.843 1198.71 593.317 1175.78 593.234 1153.6 C 593.155 1132.34 591.425 1109.84 593.238 1088.77 C 593.685 1083.58 596.091 1081.24 600.006 1078.09 z" fill="rgb(27,23,20)" transform="translate(0,0)"></path>
<path d="M 599.52 1386.51 C 602.6 1385.22 606.136 1385.73 608.721 1387.84 C 611.306 1389.95 612.519 1393.32 611.877 1396.59 C 611.234 1399.86 608.841 1402.52 605.65 1403.5 C 601.041 1404.91 596.135 1402.45 594.499 1397.92 C 592.863 1393.38 595.072 1388.36 599.52 1386.51 z" fill="rgb(27,23,20)" transform="translate(0,0)"></path>
<path d="M 601.162 1037.57 C 604.366 1036.88 607.691 1037.98 609.848 1040.45 C 612.005 1042.92 612.655 1046.36 611.544 1049.44 C 610.434 1052.52 607.738 1054.76 604.504 1055.29 C 599.676 1056.07 595.103 1052.86 594.197 1048.06 C 593.291 1043.25 596.381 1038.6 601.162 1037.57 z" fill="rgb(27,23,20)" transform="translate(0,0)"></path>
<path d="M 418.415 1206.48 C 421.288 1204.98 424.743 1205.15 427.459 1206.91 C 430.176 1208.67 431.735 1211.76 431.541 1214.99 C 431.346 1218.23 429.428 1221.1 426.519 1222.53 C 422.098 1224.69 416.759 1222.9 414.541 1218.51 C 412.322 1214.11 414.049 1208.75 418.415 1206.48 z" fill="rgb(27,23,20)" transform="translate(0,0)"></path>
<path d="M 782.041 1206.31 C 786.784 1205.2 791.545 1208.08 792.763 1212.79 C 793.98 1217.51 791.209 1222.33 786.522 1223.66 C 783.394 1224.54 780.032 1223.66 777.737 1221.36 C 775.442 1219.06 774.573 1215.69 775.467 1212.57 C 776.36 1209.44 778.876 1207.05 782.041 1206.31 z" fill="rgb(27,23,20)" transform="translate(0,0)"></path>
<path d="M 303.826 733.862 C 306.399 733.844 312.062 733.766 313.509 735.962 C 318.441 743.444 319.9 755.318 323.442 764.072 C 326.305 771.069 329.996 777.698 334.435 783.818 C 346.687 801.021 364.039 813.935 384.036 820.732 C 395.43 824.709 411.706 827.24 397.997 842.026 C 376.893 842.899 346.02 823.085 331.975 808.096 C 316.552 791.635 299.873 765.725 299.005 742.372 C 298.854 738.311 301.045 736.379 303.826 733.862 z" fill="rgb(27,23,20)" transform="translate(0,0)"></path>
<path d="M 992.08 501.753 C 999.292 501.85 1003.58 502.622 1004.79 510.984 C 1007.43 529.169 1011.32 547.313 1013.83 565.511 C 1015.41 577.013 1020.2 583.595 1010.44 591.117 C 994.475 590.713 997.48 581.936 994.794 567.515 C 991.245 548.46 987.669 528.742 985.74 509.525 C 985.426 506.401 990.072 503.306 992.08 501.753 z" fill="rgb(27,23,20)" transform="translate(0,0)"></path>
<path d="M 474.777 825.259 C 485.151 823.032 489.673 832.394 485.638 838.415 C 480.231 846.485 445.515 847.844 437.249 848.499 C 434.955 848.689 432.999 848.368 430.996 847.205 C 428.85 845.966 427.298 843.909 426.696 841.505 C 425.692 837.335 428.051 831.318 431.984 830.899 C 444.802 829.531 457.77 829.244 470.509 826.249 L 474.777 825.259 z" fill="rgb(27,23,20)" transform="translate(0,0)"></path>
<metadata><recraft-signature>{"signed_by": "recraft", "signature_b64": "9ziqVOQz4AW19EtpNqhjA+WprULCnPn/K1knFbebzp0xJlFrDPgzRBINmCu0zrcVCZAWCRMWGs1bGiSweXzkDQ==", "signing_algo": "Ed25519", "generation_timestamp": 1783393833, "identifier": "ea8744b7-74a4-4c46-9913-48d0f523ba4a"}</recraft-signature></metadata></svg>