<svg xmlns="http://www.w3.org/2000/svg" height="1792" preserveAspectRatio="none" style="display: block;" version="1.1" viewBox="0 0 2432 1792" width="2432">
<path d="M 0 0 L 677.401 0 L 696.799 0 L 2432 0 L 2432 1391.18 L 2432 1431.56 L 2432 1792 L 2082.73 1792 L 2046.33 1792 L 0 1792 L 0 1361.63 L 0 1323.55 L 0 0 z" fill="rgb(43,37,32)" transform="translate(0,0)"></path>
<path d="M 696.799 0 L 2432 0 L 2432 1391.18 C 2430.56 1383.67 2430.26 1374.34 2428.71 1365.8 C 2429.28 1346.2 2411.58 1291.92 2403.4 1273.43 C 2368.73 1195.07 2311.14 1138.61 2237.19 1096.98 C 2205.63 1079.21 2195.48 1071.58 2160.28 1057.69 C 2153.79 1026.74 2148.22 989.3 2138.17 959.663 C 2116.12 896.729 2069.97 845.136 2009.87 816.244 C 1948.25 786.606 1877.42 782.526 1812.81 804.892 C 1795.59 750.527 1774.85 694.095 1756.83 639.376 C 1759.75 641.27 1762.73 643.075 1765.77 644.787 C 1836.81 684.339 1926.17 646.93 1963.56 578.366 C 1984.7 540.353 1989.47 495.376 1976.77 453.776 C 1965.6 416.941 1937.72 381.696 1903.5 363.975 C 1880.54 352.08 1864.14 346.57 1843.43 328.555 C 1828.68 316.725 1818.97 300.976 1806.71 287.013 C 1759.79 233.573 1688.97 203.974 1617.96 208.326 C 1592.67 209.875 1572.57 214.777 1548.74 222.017 C 1544.45 216.891 1539.83 212.052 1534.91 207.53 C 1514.9 189.261 1488.32 179.912 1461.28 181.63 C 1434.05 183.24 1408.58 195.657 1390.54 216.124 C 1373.32 235.47 1364.48 260.863 1365.97 286.723 C 1367.67 314.56 1380.35 337.227 1400.95 355.486 C 1385.92 386.264 1376.93 410.745 1371.2 445.03 C 1359.21 516.841 1378.64 595.771 1421.02 654.82 C 1409.35 654.848 1397.69 654.815 1386.03 654.722 C 1368.37 654.668 1348.66 652.38 1335.08 665.775 C 1328.83 672.04 1325.35 680.547 1325.42 689.397 C 1325.42 698.355 1329.05 706.931 1335.49 713.164 C 1349.78 727.093 1380.29 723.208 1399.4 723.171 L 1476.12 723.204 L 1492.83 745.892 L 1492.79 847.213 C 1485.72 847.557 1480.68 848.637 1476.1 854.636 C 1473.42 858.093 1472.39 862.552 1473.28 866.835 C 1474.8 874.232 1479.1 877.15 1484.88 880.798 C 1485.02 894.87 1486.47 993.965 1483.24 1000.15 C 1444.32 1074.54 1408.6 1153.38 1368.41 1226.83 C 1338.62 1225.68 1301.74 1226.76 1271.44 1226.88 C 1271.49 1215.26 1270.48 1211.6 1260.82 1205.14 C 1256.51 1204.77 1251.42 1204.83 1247.04 1204.77 L 1246.99 851.436 C 1254.79 851.084 1257.77 851.296 1263.98 845.744 C 1270.45 839.968 1271.29 831.804 1265.03 825.511 C 1256.96 817.409 1246.07 818.767 1235.67 818.958 L 1235.78 776.599 C 1272.5 752.695 1265.25 717.368 1265.26 678.964 L 1265.23 568.883 C 1284.89 568.817 1318.97 573.322 1331.29 559.722 C 1338.34 552.964 1341.22 546.468 1341.15 536.503 C 1340.83 491.986 1342.13 447.138 1340.44 402.69 C 1340.27 398.08 1334.72 389.961 1331.47 386.746 C 1326.5 381.78 1320.15 378.433 1313.24 377.145 C 1303.18 375.218 1267.66 376.279 1255.76 376.211 C 1221.52 376.018 1186.43 376.342 1152.14 376.318 C 1125.22 376.3 1111.85 382.791 1093.32 401.9 C 1077.45 402.174 1061.05 401.937 1045.14 401.907 C 1045.17 400.104 1045.16 398.301 1045.11 396.499 C 1043.57 336.662 1018.43 279.863 975.172 238.49 C 922.346 188.753 853.358 173.373 782.98 175.248 C 790.582 160.837 796.624 146.732 799.19 130.513 C 803.81 101.147 796.662 71.1443 779.297 47.0168 C 757.768 17.4199 731.683 5.70906 696.799 0 z" fill="rgb(255,255,255)" transform="translate(0,0)"></path>
<path d="M 446.34 1536.96 C 441.734 1541.03 283.491 1572.22 265.424 1575.12 C 254.532 1576.89 243.523 1577.86 232.489 1578.02 C 172.535 1578.79 114.791 1555.41 72.2722 1513.14 C 8.39408 1450.55 -10.6777 1353.9 14.3845 1269.53 C 22.5168 1242.15 30.511 1214.73 38.5033 1187.31 L 92.6723 1001.22 L 130.978 868.635 C 138.079 844.254 145.843 813.546 155.611 790.893 C 169.397 759.55 188.897 731.048 213.114 706.843 C 257.739 662.209 316.256 634.136 378.996 627.261 C 399.063 625.201 426.117 625.883 446.891 625.875 L 536.772 625.981 C 526.138 646.834 523.455 663.358 526.317 687.003 C 530.72 721.048 548.631 751.892 576.018 772.59 C 601.733 792.41 636.589 803.628 668.848 798.84 C 710.089 792.718 722.354 776.095 745.85 745.523 C 752.523 737.155 761.711 725.729 767.392 716.823 C 816.486 729.48 865.184 775.8 889.976 819.03 C 905.581 846.243 913.529 870.89 918.975 901.507 C 920.832 918.923 944.282 1060.84 941.676 1064.94 C 889.991 1061.85 839.193 1079.4 800.443 1113.74 C 783.595 1128.46 772.531 1142.87 760.144 1161.02 C 768.083 1137.79 778.177 1113.3 787.033 1090.19 L 836.401 961.609 C 839.552 953.437 859.013 905.689 858.451 900.665 L 857.199 900.215 C 852.751 904.495 845.39 927.459 842.705 934.478 L 814.876 1007.11 L 769.407 1125.29 C 762.687 1142.65 743.062 1192.23 740.413 1208.48 C 691.932 1218.89 643.374 1228.92 594.742 1238.6 L 596.744 1242.26 C 597.683 1249.11 609.811 1283.94 612.642 1292.44 C 628.973 1341.46 638.519 1385.42 634.617 1437.54 C 633.756 1449.06 632.412 1465.92 629.397 1477.09 C 629.896 1477.27 630.395 1477.45 630.893 1477.63 C 722.608 1460.95 813.962 1440.72 905.788 1424.38 C 911.724 1423.32 929.893 1423.72 934.518 1423.73 L 979.683 1423.76 L 1043.44 1423.81 C 1050.97 1423.82 1070.25 1424.3 1076.93 1423.23 C 1081.84 1422.48 1086.42 1420.31 1090.12 1416.99 C 1095.42 1412.22 1099.33 1403.7 1099 1396.47 C 1097.7 1368.21 1064.17 1372.84 1047.13 1369.03 C 1032.49 1365.75 939.957 1355.73 935.796 1351.5 L 936.636 1350.17 C 941.671 1349.24 957.715 1352.17 963.841 1353.03 L 1049 1365.39 C 1062.98 1367.46 1078.78 1370.43 1092.95 1370.92 C 1098.55 1370.47 1104.84 1366.56 1107.96 1362.17 C 1118.64 1347.15 1114.54 1333.42 1100.89 1323.31 C 1103 1322.02 1103.82 1322.18 1106.3 1321.96 C 1117.16 1333.8 1120.54 1341.29 1115.49 1357.41 L 1387.71 1357.36 C 1397.32 1358.84 1415.84 1356.82 1422.33 1359.05 C 1415.22 1360.33 1408.89 1360.68 1401.72 1361.18 C 1394.07 1376.44 1386.14 1392.96 1377.93 1407.82 L 1376.96 1410.37 C 1367.47 1412.7 1337.61 1409.16 1333.33 1411.92 C 1256.06 1413.76 1176.62 1411.11 1099.15 1412.22 C 1093.24 1420.02 1087.06 1426.38 1076.81 1427.22 C 1062.74 1428.37 1046.36 1427.84 1032.22 1427.83 L 939.701 1427.71 C 902.97 1427.67 906.176 1426.1 872.76 1442.05 C 855.478 1450.38 838.149 1458.61 820.773 1466.74 C 781.559 1485.01 757.459 1492.25 738.279 1534.17 L 737.512 1536.2 C 734.456 1537.13 733.834 1537.52 730.61 1537.03 L 730.22 1535.52 L 733.048 1534.92 C 733.535 1534.43 734.021 1533.94 734.508 1533.45 C 734.154 1524.59 734.503 1512.09 735.645 1503.79 C 738.04 1486.37 742.313 1473.71 750.555 1458.67 C 711.412 1465.3 668.107 1476.39 629.586 1481.7 C 626.783 1487.48 626.215 1505.95 620.984 1506.82 C 620.137 1506.38 619.289 1505.94 618.442 1505.51 C 574.635 1512.55 531.284 1523.58 487.656 1531.84 C 481.392 1533.03 449.516 1541.4 446.34 1536.96 z" fill="rgb(231,89,42)" transform="translate(0,0)"></path>
<path d="M 319.173 1266.88 C 343.113 1183.05 368.189 1099.55 394.396 1016.4 L 419.09 935.13 C 421.08 928.573 432.913 885.813 437.124 884.053 C 437.311 893.033 429.112 914.699 425.985 924.847 L 399.707 1011.4 C 394.162 1029.45 385.384 1053.79 382.656 1072.11 C 373.667 1132.48 400.278 1202.7 447.135 1242.01 L 586.104 1212.85 C 588.396 1221.01 591.935 1230.48 594.742 1238.6 L 596.744 1242.26 C 597.683 1249.11 609.811 1283.94 612.642 1292.44 C 628.973 1341.46 638.519 1385.42 634.617 1437.54 C 633.756 1449.06 632.412 1465.92 629.397 1477.09 C 629.896 1477.27 630.395 1477.45 630.893 1477.63 C 722.608 1460.95 813.962 1440.72 905.788 1424.38 C 911.724 1423.32 929.893 1423.72 934.518 1423.73 L 979.683 1423.76 L 1043.44 1423.81 C 1050.97 1423.82 1070.25 1424.3 1076.93 1423.23 C 1081.84 1422.48 1086.42 1420.31 1090.12 1416.99 C 1095.42 1412.22 1099.33 1403.7 1099 1396.47 C 1097.7 1368.21 1064.17 1372.84 1047.13 1369.03 C 1032.49 1365.75 939.957 1355.73 935.796 1351.5 L 936.636 1350.17 C 941.671 1349.24 957.715 1352.17 963.841 1353.03 L 1049 1365.39 C 1062.98 1367.46 1078.78 1370.43 1092.95 1370.92 C 1098.55 1370.47 1104.84 1366.56 1107.96 1362.17 C 1118.64 1347.15 1114.54 1333.42 1100.89 1323.31 C 1103 1322.02 1103.82 1322.18 1106.3 1321.96 C 1117.16 1333.8 1120.54 1341.29 1115.49 1357.41 L 1387.71 1357.36 C 1397.32 1358.84 1415.84 1356.82 1422.33 1359.05 C 1415.22 1360.33 1408.89 1360.68 1401.72 1361.18 C 1394.07 1376.44 1386.14 1392.96 1377.93 1407.82 L 1376.96 1410.37 C 1367.47 1412.7 1337.61 1409.16 1333.33 1411.92 C 1256.06 1413.76 1176.62 1411.11 1099.15 1412.22 C 1093.24 1420.02 1087.06 1426.38 1076.81 1427.22 C 1062.74 1428.37 1046.36 1427.84 1032.22 1427.83 L 939.701 1427.71 C 902.97 1427.67 906.176 1426.1 872.76 1442.05 C 855.478 1450.38 838.149 1458.61 820.773 1466.74 C 781.559 1485.01 757.459 1492.25 738.279 1534.17 L 737.512 1536.2 C 734.456 1537.13 733.834 1537.52 730.61 1537.03 L 730.22 1535.52 L 733.048 1534.92 C 733.535 1534.43 734.021 1533.94 734.508 1533.45 C 734.154 1524.59 734.503 1512.09 735.645 1503.79 C 738.04 1486.37 742.313 1473.71 750.555 1458.67 C 711.412 1465.3 668.107 1476.39 629.586 1481.7 C 626.783 1487.48 626.215 1505.95 620.984 1506.82 C 620.137 1506.38 619.289 1505.94 618.442 1505.51 C 574.635 1512.55 531.284 1523.58 487.656 1531.84 C 481.392 1533.03 449.516 1541.4 446.34 1536.96 C 498.034 1449.54 465.029 1336.03 434.968 1247.33 C 400.634 1252.38 357.377 1263.78 321.749 1270.63 C 320.36 1269.93 319.454 1269.65 319.31 1268.02 L 319.173 1266.88 z" fill="rgb(27,23,20)" transform="translate(0,0)"></path>
<path d="M 1159.19 1361.5 L 1243.2 1361.44 L 1243.19 1408.1 L 1177.02 1408.11 L 1100.86 1408.28 C 1104.95 1393.37 1103.02 1387.1 1093.26 1375.53 C 1103.7 1372.47 1107.13 1370.03 1113.47 1361.7 L 1159.19 1361.5 z" fill="rgb(247,241,234)" transform="translate(0,0)"></path>
<path d="M 1302.35 1361.5 L 1397.49 1361.26 C 1389.34 1376.8 1381.37 1392.44 1373.57 1408.16 L 1338.75 1408.09 L 1247.14 1408.28 L 1247.24 1361.5 L 1302.35 1361.5 z" fill="rgb(255,255,255)" transform="translate(0,0)"></path>
<path d="M 321.749 1270.63 C 321.391 1270.73 321.033 1270.82 320.676 1270.92 L 254.505 1284.21 C 251.344 1284.89 242.254 1287.03 239.447 1287.12 C 234.487 1285.98 238.211 1283.69 240.997 1283.15 C 265.553 1278.39 289.924 1272.79 314.509 1268.2 C 316.849 1267.77 317.036 1268.16 319.173 1266.88 L 319.31 1268.02 C 319.454 1269.65 320.36 1269.93 321.749 1270.63 z" fill="rgb(43,37,32)" transform="translate(0,0)"></path>
<path d="M 292.337 732.444 C 312.513 728.873 331.776 742.294 335.416 762.457 C 339.056 782.62 325.701 801.929 305.55 805.637 C 285.302 809.363 265.88 795.93 262.222 775.669 C 258.565 755.409 272.065 736.033 292.337 732.444 z" fill="rgb(27,23,20)" transform="translate(0,0)"></path>
<path d="M 0 0 L 677.401 0 C 640.298 6.05573 611.603 19.1946 588.89 50.4325 C 542.037 114.868 571.804 201.853 643.634 232.04 C 620.576 257.56 610.256 271.64 579.415 290.53 C 550.409 308.295 524.437 317.569 491.641 327.113 C 443.559 340.903 389.335 340.077 356.678 384.633 C 350.641 392.87 342.383 406.831 340.656 416.856 C 338.053 431.971 334.962 436.171 326.572 448.821 C 318.834 460.487 315.354 479.949 316.011 493.986 C 317.04 516.856 327.266 538.34 344.368 553.56 C 373.131 579.623 399.232 578.024 434.841 576.527 C 438.609 594.97 443.47 605.751 453.549 621.864 C 430.853 621.868 399.453 621.114 377.707 623.25 C 315.859 629.324 253.735 660.692 209.906 704.523 C 186.11 728.314 166.856 756.249 153.089 786.953 C 142.613 810.649 136.861 834.774 129.599 859.601 L 95.2164 978.202 L 37.3533 1177.05 C 26.7042 1213.65 15.2809 1250.53 5.95329 1287.47 C 2.67749 1300.45 2.34012 1311.69 0 1323.55 L 0 0 z" fill="rgb(255,255,255)" transform="translate(0,0)"></path>
<path d="M 0 1361.63 C 2.39044 1378.49 4.14043 1392.75 8.38093 1409.33 C 21.2322 1460.24 51.2268 1505.17 93.318 1536.56 C 140.919 1572.33 200.714 1587.87 259.708 1579.8 C 284.148 1576.29 313.715 1569.36 338.224 1564.38 L 473.895 1537.04 C 508.235 1530.28 542.534 1523.31 576.79 1516.14 C 587.559 1513.92 611.901 1509.85 620.984 1506.82 C 626.215 1505.95 626.783 1487.48 629.586 1481.7 C 668.107 1476.39 711.412 1465.3 750.555 1458.67 C 742.313 1473.71 738.04 1486.37 735.645 1503.79 C 734.503 1512.09 734.154 1524.59 734.508 1533.45 C 734.021 1533.94 733.535 1534.43 733.048 1534.92 L 730.22 1535.52 C 700.152 1533.27 675.057 1539.84 671.017 1576.3 C 669.851 1586.83 670.808 1599.29 670.842 1610.05 L 671.04 1671.22 L 1636.85 1671.3 L 1637.01 1609.98 C 1637.05 1587.68 1640.2 1567.48 1626.01 1548.73 C 1652.93 1548.53 1679.86 1548.56 1706.78 1548.84 C 1730.51 1596.62 1748.13 1615.34 1783.15 1653.31 C 1833.34 1707.72 1891.92 1751.37 1963.02 1775.17 C 1981.13 1781.16 1999.72 1785.61 2018.58 1788.48 C 2026.31 1789.64 2039.62 1790.65 2046.33 1792 L 0 1792 L 0 1361.63 z" fill="rgb(255,255,255)" transform="translate(0,0)"></path>
<path d="M 1422.33 1359.05 C 1442.35 1358.15 1467.57 1348.82 1485.36 1340.12 C 1532.35 1317.12 1568.17 1275.62 1584.98 1226.36 C 1598.81 1185.79 1590.81 1146.92 1594.38 1105.78 C 1594.77 1101.23 1606.3 1078.33 1609.09 1072.46 C 1618.3 1053.4 1627.33 1034.26 1636.2 1015.04 C 1645.3 995.347 1654.52 975.706 1663.85 956.123 C 1671.61 939.768 1679.52 922.133 1689.2 906.912 C 1732.26 839.921 1805.24 798.093 1884.81 794.803 C 1952.68 791.519 2019.06 815.467 2069.2 861.33 C 2115.11 903.216 2137.5 953.967 2147.53 1014.08 C 2149.81 1027.72 2153.83 1042.31 2155.84 1056.16 C 2058.6 1023.86 1958.06 1027.96 1865.71 1074.21 C 1782.13 1116.46 1718.64 1190.03 1689.07 1278.89 C 1660.51 1366.31 1666.14 1461.3 1704.84 1544.73 L 1621.89 1544.91 C 1601.4 1532.06 1592.7 1534.63 1568.42 1535.05 C 1572.49 1502.26 1569.7 1475.17 1548.37 1448.01 C 1530.96 1426.12 1505.54 1412.08 1477.75 1408.98 C 1448.27 1405.69 1407.51 1410.22 1377.93 1407.82 C 1386.14 1392.96 1394.07 1376.44 1401.72 1361.18 C 1408.89 1360.68 1415.22 1360.33 1422.33 1359.05 z" fill="rgb(231,89,42)" transform="translate(0,0)"></path>
<path d="M 1912.81 882.412 C 1914.58 882.337 1916.35 882.284 1918.11 882.252 C 1969.57 881.369 2024.17 903.525 2060.56 939.62 C 2064.34 943.363 2079.5 958.96 2079.56 964.107 C 2071.91 961.424 2066.78 951.49 2061.14 945.71 C 2056.25 940.697 2052.03 936.736 2046.58 932.235 C 2030.12 918.661 2011.62 907.759 1991.77 899.927 C 1940.64 879.809 1890.29 882.511 1840.41 904.287 C 1792.04 926.769 1754.68 969.78 1741.35 1021.73 C 1740.07 1026.68 1737.91 1044.66 1736.23 1046.53 L 1734.84 1045.47 C 1734.58 1044.57 1734.02 1042.68 1734.11 1041.73 C 1741.38 966.382 1804.42 903.537 1877.05 887.645 C 1889.47 884.928 1900.28 883.427 1912.81 882.412 z" fill="rgb(43,37,32)" transform="translate(0,0)"></path>
<path d="M 596.744 1242.26 L 680.764 1224.88 C 714.051 1218.14 742.363 1212.11 774.765 1202.5 C 822.233 1188.42 870.008 1167.65 919.894 1168.53 C 972.033 1168.91 1020.12 1191.75 1068.88 1207.47 C 1077.9 1210.38 1093.62 1213.41 1100.93 1218.67 C 1119.67 1232.14 1113.62 1250.98 1098.83 1263.23 C 1066.13 1254.76 1033.52 1245.96 1000.99 1236.84 C 992.127 1234.39 953.786 1222.11 948.477 1224.04 L 948.572 1225.52 C 953.31 1228.2 980.485 1235.12 987.432 1237.04 L 1080.19 1262.33 C 1086.69 1264.08 1108.3 1268.68 1112.6 1271.96 C 1132.93 1287.5 1125.51 1310.61 1104.15 1318.48 C 1057.39 1312.16 1009.68 1300.16 962.981 1292.52 C 958.97 1291.87 951.309 1289.46 948.061 1291.2 C 949.972 1295.39 980.271 1299.86 985.907 1300.92 L 1058.57 1314.52 C 1069.93 1316.63 1090.54 1319.9 1100.89 1323.31 C 1114.54 1333.42 1118.64 1347.15 1107.96 1362.17 C 1104.84 1366.56 1098.55 1370.47 1092.95 1370.92 C 1078.78 1370.43 1062.98 1367.46 1049 1365.39 L 963.841 1353.03 C 957.715 1352.17 941.671 1349.24 936.636 1350.17 L 935.796 1351.5 C 939.957 1355.73 1032.49 1365.75 1047.13 1369.03 C 1064.17 1372.84 1097.7 1368.21 1099 1396.47 C 1099.33 1403.7 1095.42 1412.22 1090.12 1416.99 C 1086.42 1420.31 1081.84 1422.48 1076.93 1423.23 C 1070.25 1424.3 1050.97 1423.82 1043.44 1423.81 L 979.683 1423.76 L 934.518 1423.73 C 929.893 1423.72 911.724 1423.32 905.788 1424.38 C 813.962 1440.72 722.608 1460.95 630.893 1477.63 C 630.395 1477.45 629.896 1477.27 629.397 1477.09 C 632.412 1465.92 633.756 1449.06 634.617 1437.54 C 638.519 1385.42 628.973 1341.46 612.642 1292.44 C 609.811 1283.94 597.683 1249.11 596.744 1242.26 z" fill="rgb(247,241,234)" transform="translate(0,0)"></path>
<path d="M 639.994 493.337 C 633.617 492.097 627.372 490.256 621.343 487.837 C 604.074 480.734 590.685 468.162 583.567 450.77 C 577.063 434.847 577.235 416.977 584.044 401.182 C 598.844 367.375 637.518 353.597 670.596 369.009 C 682.592 374.598 695.256 385.434 699.912 398.07 C 719.628 408.809 739.793 418.365 759.616 429.421 C 757.069 435.129 755.259 441.139 754.228 447.304 C 748.392 484.338 773.906 518.85 810.887 524.119 C 829.546 526.608 848.439 521.713 863.543 510.477 C 889.462 490.979 888.789 473.096 892.625 445.824 C 896.596 441.752 907.509 443.556 911.289 447.772 C 905.959 470.734 903.52 493.541 920.819 513.568 C 936.912 532.201 961.432 526.872 983.889 527.167 C 976.878 563.652 953.285 608.595 925.563 632.511 C 889.484 663.637 852.809 672.599 806.536 670.05 C 803.343 671.112 802.015 670.88 800.446 673.067 C 791.193 685.389 780.073 701.384 770.314 712.731 C 769.533 715.342 769.57 715.146 767.392 716.823 C 761.711 725.729 752.523 737.155 745.85 745.523 L 741.83 745.487 C 738.508 748.647 729.899 759.086 726.901 762.96 C 712.749 781.483 694.62 791.165 671.41 794.814 C 588.156 808.491 508.692 723.518 533.767 641.681 C 539.268 623.73 570.972 585.256 583.404 568.711 L 639.994 493.337 z" fill="rgb(247,241,234)" transform="translate(0,0)"></path>
<path d="M 741.83 745.487 C 739.861 739 732.549 723.297 729.39 715.934 L 694.813 636.146 C 689.972 624.855 669.543 581.181 675.579 570.737 L 677.659 570.292 C 680.285 572.167 686.049 587.574 688.446 592.035 C 691.492 597.652 694.911 603.058 698.682 608.216 C 725.007 644.228 763.286 663.393 806.536 670.05 C 803.343 671.112 802.015 670.88 800.446 673.067 C 791.193 685.389 780.073 701.384 770.314 712.731 C 769.533 715.342 769.57 715.146 767.392 716.823 C 761.711 725.729 752.523 737.155 745.85 745.523 L 741.83 745.487 z" fill="rgb(27,23,20)" transform="translate(0,0)"></path>
<path d="M 891.017 482.717 C 894.772 485.809 894.409 497.736 895.587 505.235 C 929.458 528.464 894.762 531.358 874.233 536.038 C 874.222 536.034 872.997 535.736 872.764 535.526 C 869.28 532.373 876.68 531.75 876.833 531.706 C 882.548 530.048 900.093 527.378 903.73 524.217 C 910.052 518.724 896.625 510.951 892.342 507.047 C 890.851 499.455 888.043 489.899 891.017 482.717 z" fill="rgb(43,37,32)" transform="translate(0,0)"></path>
<path d="M 804.614 548.303 C 810.691 550.042 808.273 554.349 813.866 561.565 C 820.847 571.38 832.044 576.332 843.999 575.269 C 847.39 574.967 852.408 572.162 854.056 575.652 L 854.478 576.502 C 833.208 585.061 806.847 571.44 804.614 548.303 z" fill="rgb(27,23,20)" transform="translate(0,0)"></path>
<path d="M 630.323 399.242 C 632.392 399.419 634.453 399.68 636.501 400.026 C 652.65 402.88 665.576 420.033 662.655 436.506 C 657.242 431.704 660.674 423.381 653.99 416.005 C 648.115 409.522 643.498 404.549 633.978 403.192 C 631.42 402.827 630.261 403.039 630.318 400.328 L 630.323 399.242 z" fill="rgb(43,37,32)" transform="translate(0,0)"></path>
<path d="M 1333.33 1411.92 C 1364.78 1413.07 1398.02 1411.49 1429.6 1412.04 C 1450.12 1412.39 1471.54 1410.38 1491.49 1415.59 C 1510.02 1420.37 1526.82 1430.31 1539.94 1444.24 C 1558.54 1464.11 1567.45 1489.87 1566.33 1516.96 C 1566.06 1523 1565.49 1529.02 1564.63 1534.99 L 916.875 1534.89 L 790.989 1534.95 C 783.224 1534.96 742.307 1535.44 738.279 1534.17 C 757.459 1492.25 781.559 1485.01 820.773 1466.74 C 838.149 1458.61 855.478 1450.38 872.76 1442.05 C 906.176 1426.1 902.97 1427.67 939.701 1427.71 L 1032.22 1427.83 C 1046.36 1427.84 1062.74 1428.37 1076.81 1427.22 C 1087.06 1426.38 1093.24 1420.02 1099.15 1412.22 C 1176.62 1411.11 1256.06 1413.76 1333.33 1411.92 z" fill="rgb(247,241,234)" transform="translate(0,0)"></path>
<path d="M 1489.17 973.854 C 1522.5 973.949 1555.84 973.848 1589.17 973.553 L 1589.29 1093.88 C 1589.46 1128.44 1592.25 1183.79 1584.05 1215.4 C 1575.4 1247.5 1558.37 1276.72 1534.7 1300.07 C 1493.04 1341.55 1445.09 1356.78 1387.71 1357.36 L 1115.49 1357.41 C 1120.54 1341.29 1117.16 1333.8 1106.3 1321.96 C 1114.88 1318.48 1121.83 1313.79 1125.81 1304.94 C 1129.06 1297.85 1129.21 1289.73 1126.25 1282.52 C 1122.99 1274.52 1116.6 1268.61 1108.61 1265.48 C 1107.26 1264.94 1105.89 1264.42 1104.52 1263.93 C 1115.72 1253.26 1117.55 1245.96 1115.05 1230.79 L 1296.68 1230.93 C 1321.15 1230.93 1376.71 1232.58 1397.24 1228.23 C 1419.2 1223.73 1439.41 1213.04 1455.49 1197.44 C 1480.95 1172.45 1489.32 1143.69 1489.43 1109.04 L 1489.17 973.854 z" fill="rgb(247,241,234)" transform="translate(0,0)"></path>
<path d="M 1046.86 1068.53 L 1109.54 1068.31 C 1111.4 1088.41 1118.39 1104.75 1134.19 1117.93 C 1148.3 1129.84 1166.65 1135.51 1185.02 1133.65 C 1203.47 1131.92 1220.43 1122.8 1232.03 1108.35 C 1234.76 1104.98 1238.58 1099.21 1240.6 1095.32 C 1244.6 1106.11 1238.95 1173.51 1242.92 1185.61 C 1243.37 1189.93 1243.11 1200.14 1243.14 1204.89 L 1120.56 1204.72 C 1111.87 1204.67 1084.11 1206.36 1077.2 1204.7 C 1047.73 1197.62 1013.61 1183.48 984.815 1174.71 C 945.752 1162.89 904.265 1161.56 864.529 1170.87 C 850.518 1174.28 833.629 1180.21 819.511 1184.57 L 744.14 1207.92 C 751.449 1178.33 771.639 1146.69 793.544 1125.69 C 837.673 1083.37 881.866 1068.04 941.48 1068.51 L 1046.86 1068.53 z" fill="rgb(247,241,234)" transform="translate(0,0)"></path>
<path d="M 1062.05 676.087 L 1084.19 675.877 C 1083.74 717.847 1076.28 747.809 1112.41 776.36 C 1112.38 790.579 1112.45 804.798 1112.62 819.016 C 1103.17 818.793 1092.07 817.088 1084.56 823.923 C 1076.94 830.856 1079.74 841.097 1086.85 847.192 C 1091.67 851.322 1096.09 851.227 1102.09 851.471 L 1102.16 1064.53 L 1076.41 1064.43 L 1081.19 1065.56 L 1080.89 1066.4 C 1071.37 1068.07 1053.42 1065.49 1046.86 1068.53 L 941.48 1068.51 L 941.676 1064.94 C 944.282 1060.84 920.832 918.923 918.975 901.507 L 919.726 894.236 C 920.657 900.124 920.46 904.289 924.026 908.551 C 926.328 923.227 928.434 937.934 930.344 952.666 C 959.767 947.627 990.472 941.593 1019.82 937.368 L 1001.71 820.101 C 1002.29 815.824 1002.25 815.267 1004 811.42 C 1002.45 790.64 996.01 759.366 993.092 737.642 C 1008.12 720.244 1012.96 710.346 1019.49 688.19 C 1038.06 690.747 1047.64 688.724 1062.05 676.087 z" fill="rgb(255,255,255)" transform="translate(0,0)"></path>
<path d="M 1001.71 820.101 C 1002.29 815.824 1002.25 815.267 1004 811.42 C 1011.56 852.223 1017.82 897.108 1024.03 938.36 C 1030.57 980.368 1036.86 1022.42 1042.89 1064.5 L 1076.41 1064.43 L 1081.19 1065.56 L 1080.89 1066.4 C 1071.37 1068.07 1053.42 1065.49 1046.86 1068.53 L 941.48 1068.51 L 941.676 1064.94 C 944.282 1060.84 920.832 918.923 918.975 901.507 L 919.726 894.236 C 920.657 900.124 920.46 904.289 924.026 908.551 C 926.328 923.227 928.434 937.934 930.344 952.666 C 959.767 947.627 990.472 941.593 1019.82 937.368 L 1001.71 820.101 z" fill="rgb(27,23,20)" transform="translate(0,0)"></path>
<path d="M 2428.49 1463.04 C 2429.92 1452.71 2430.47 1442.1 2432 1431.56 L 2432 1792 L 2082.73 1792 C 2096.65 1789.28 2111.34 1788.67 2125.73 1785.56 C 2244.96 1759.8 2348.06 1674.05 2398.94 1563.65 C 2413.59 1531.84 2422.66 1497.75 2428.49 1463.04 z" fill="rgb(255,255,255)" transform="translate(0,0)"></path>
<path d="M 843.117 755.712 C 857.45 760.61 872.245 764.036 887.271 765.939 C 927.873 771.039 957.544 765.84 989.628 741.011 C 992.348 765.255 997.912 795.516 1001.71 820.101 L 1019.82 937.368 C 990.472 941.593 959.767 947.627 930.344 952.666 C 928.434 937.934 926.328 923.227 924.026 908.551 C 915.564 845.55 889.01 798.666 843.117 755.712 z" fill="rgb(247,241,234)" transform="translate(0,0)"></path>
<path d="M 800.446 673.067 C 827.97 677.466 861.115 673 886.539 661.611 C 877.622 692.907 862.489 729.586 834.302 748.573 C 820.895 737.623 806.162 728.407 790.451 721.142 C 787.227 719.676 772.096 713.767 770.314 712.731 C 780.073 701.384 791.193 685.389 800.446 673.067 z" fill="rgb(231,89,42)" transform="translate(0,0)"></path>
<path d="M 1240.6 1095.32 L 1242.11 1092.31 L 1242.97 1092.89 C 1243.76 1121.84 1243.46 1156.54 1242.92 1185.61 C 1238.95 1173.51 1244.6 1106.11 1240.6 1095.32 z" fill="rgb(252,235,225)" transform="translate(0,0)"></path>
<path d="M 1470.09 273.706 C 1471.6 274.641 1478.23 300.125 1479.77 304.409 C 1487.95 326.43 1499.57 347.008 1514.22 365.373 C 1551.62 412.024 1601.3 436.949 1660.37 443.288 C 1672.66 427.58 1687.74 418.341 1707.77 416.04 C 1726.47 413.863 1745.25 419.207 1760 430.894 C 1816.13 476.057 1763.43 560.537 1698.39 542.334 C 1694.64 541.282 1684.15 536.226 1681.35 536.467 C 1680.57 538.647 1680.68 539.614 1681.82 542.117 C 1688.52 556.822 1695.45 562.198 1709.29 568.182 C 1714.65 596.465 1729.81 616.672 1751.03 635.227 C 1769.64 692.211 1789.87 749.213 1809.03 806.043 L 1808.07 806.38 C 1757.89 824.443 1711.64 862.476 1683.79 907.928 C 1675.12 922.08 1665.94 942.851 1658.67 958.28 C 1636.47 1002.73 1614.28 1051.96 1593.33 1097.11 C 1592.34 1025.7 1593.33 952.465 1593 880.833 C 1610.14 869.465 1608.96 852.06 1588.21 847.427 C 1588.08 806.059 1588.17 764.69 1588.49 723.323 C 1600.64 723.327 1614.89 724.028 1623.94 715.191 C 1637.56 701.519 1639.34 676.097 1624.68 662.378 C 1616.63 654.384 1606.32 654.529 1595.68 654.679 C 1582.24 654.868 1568.64 654.766 1555.13 654.75 L 1425.33 654.833 C 1337.4 529.452 1360.23 376.902 1470.09 273.706 z" fill="rgb(247,241,234)" transform="translate(0,0)"></path>
<path d="M 1467.11 435.245 C 1502.32 429.72 1564.93 460.2 1513.54 493.061 C 1499.52 502.026 1479.74 502.628 1463.39 500.517 C 1446.53 494.921 1412.4 481.245 1428.13 456.097 C 1435.81 443.824 1453.27 437.995 1467.11 435.245 z" fill="rgb(27,23,20)" transform="translate(0,0)"></path>
<path d="M 1467.11 435.245 C 1502.32 429.72 1564.93 460.2 1513.54 493.061 C 1499.52 502.026 1479.74 502.628 1463.39 500.517 C 1464.18 500.338 1464.98 500.173 1465.78 500.022 C 1468.58 499.514 1468.58 498.976 1470.82 497.481 C 1476.29 498.167 1479.98 498.046 1485.47 497.613 C 1479.43 495.499 1481.06 495.719 1482.29 489.038 L 1482.49 487.882 C 1486.06 476.103 1490.21 470.242 1485.91 456.506 C 1483.06 447.384 1479.43 443.014 1471.12 438.517 C 1469.76 436.306 1469.5 436.42 1467.11 435.245 z" fill="rgb(255,255,255)" transform="translate(0,0)"></path>
<path d="M 1467.11 435.245 C 1502.32 429.72 1564.93 460.2 1513.54 493.061 C 1499.52 502.026 1479.74 502.628 1463.39 500.517 C 1464.18 500.338 1464.98 500.173 1465.78 500.022 C 1468.58 499.514 1468.58 498.976 1470.82 497.481 C 1476.29 498.167 1479.98 498.046 1485.47 497.613 C 1498.48 495.862 1531.92 485.548 1529.17 466.992 C 1526.09 446.16 1489.89 436.777 1471.12 438.517 C 1469.76 436.306 1469.5 436.42 1467.11 435.245 z" fill="rgb(43,37,32)" transform="translate(0,0)"></path>
<path d="M 1470.82 497.481 L 1471.85 496.915 C 1477.35 493.954 1478.38 492.417 1482.49 487.882 L 1482.29 489.038 C 1481.06 495.719 1479.43 495.499 1485.47 497.613 C 1479.98 498.046 1476.29 498.167 1470.82 497.481 z" fill="rgb(247,241,234)" transform="translate(0,0)"></path>
<path d="M 1440.68 449.058 C 1440.63 451.431 1438.8 454.74 1438.11 457.51 C 1435.76 466.891 1436.22 475.239 1439.57 484.265 C 1439.66 484.51 1439.5 484.95 1439.33 485.153 C 1438.58 485.119 1438.06 484.577 1437.54 484.096 L 1436.23 482.963 C 1423.7 469.546 1425.7 459.695 1440.68 449.058 z" fill="rgb(247,241,234)" transform="translate(0,0)"></path>
<path d="M 1441.8 390.017 C 1444.92 390.238 1447.03 390.612 1450 390.949 L 1482.51 394.867 C 1493.27 396.171 1504.25 397.654 1515.04 398.952 C 1517.39 399.353 1519.98 400.925 1521.2 402.994 C 1524.38 408.358 1522.52 413.44 1517.44 416.488 L 1515.99 417.384 C 1491.96 416.437 1466.04 411.317 1442 408.708 C 1432.82 407.712 1430.22 395.974 1441.8 390.017 z" fill="rgb(27,23,20)" transform="translate(0,0)"></path>
<path d="M 1729.74 469.356 C 1732.45 469.432 1751.5 470.944 1745.61 475.393 C 1744.61 476.146 1735.27 472.745 1731 473.154 C 1719.72 474.234 1714.78 476.443 1707.02 484.37 C 1704.74 488.039 1702.53 496.495 1699.56 496.934 C 1696.78 493.967 1701.24 486.334 1703.13 483.698 C 1710.13 473.963 1718.46 470.979 1729.74 469.356 z" fill="rgb(43,37,32)" transform="translate(0,0)"></path>
<path d="M 1467.04 571.298 C 1474.6 576.305 1462.96 589.14 1458.22 592.3 C 1449.6 598.039 1441.85 597.599 1432.27 595.695 C 1429.42 592.574 1430.93 591.305 1434.47 592.196 C 1454.28 597.185 1461.04 586.337 1467.04 571.298 z" fill="rgb(43,37,32)" transform="translate(0,0)"></path>
<path d="M 708.39 1539.18 C 716.172 1538.78 725.752 1538.88 733.681 1538.85 L 1308.87 1538.92 L 1500.45 1538.84 L 1564.51 1538.68 C 1584.21 1538.65 1607.51 1535.34 1622.27 1550.88 C 1636.28 1565.62 1633.21 1588.95 1633.14 1607.81 L 1633 1667.23 L 1601.78 1667.1 L 675.098 1667.23 L 674.861 1606.95 C 674.7 1576.41 670.214 1547.91 708.39 1539.18 z" fill="rgb(231,89,42)" transform="translate(0,0)"></path>
<path d="M 1614.41 212.395 C 1684.39 208.46 1747.1 231.836 1796.75 281.869 C 1814.92 300.17 1819.83 313.493 1842.08 332.519 C 1870.01 356.395 1894.41 359.716 1920.12 379.292 C 1952.26 403.91 1973.24 440.332 1978.42 480.48 C 1984.1 522.97 1972.41 563.505 1946.34 597.36 C 1921.84 629.627 1885.4 650.704 1845.22 655.861 C 1812.52 659.846 1778.82 651.534 1752.7 631.257 C 1730.73 612.471 1721.13 597.06 1713.61 569.473 C 1721.11 571.33 1728.83 572.129 1736.55 571.846 C 1754.47 571.025 1769.82 563.061 1781.84 549.874 C 1795.41 534.874 1802.52 515.123 1801.61 494.916 C 1800.47 471.034 1783.21 446.359 1765.87 430.812 C 1750.82 417.231 1730.89 410.363 1710.66 411.789 C 1688.56 413.289 1672.8 422.782 1658.65 439.204 C 1625.39 436.33 1593.39 425.113 1565.62 406.593 C 1516.59 374.429 1486.41 326.861 1474.44 269.947 C 1517.2 235.47 1559.45 217.197 1614.41 212.395 z" fill="rgb(231,89,42)" transform="translate(0,0)"></path>
<path d="M 2384.88 1396.66 L 2386.23 1398.48 C 2387.3 1429.97 2375.56 1479.72 2364.76 1509.28 C 2331.64 1599.1 2264.51 1672.28 2177.88 1713 C 2092.03 1752.88 1993.84 1756.97 1904.97 1724.39 C 1817.25 1691.17 1746.11 1624.81 1706.88 1539.62 C 1685.93 1491.34 1677.44 1453.38 1675.06 1401.12 C 1680.72 1407.3 1686.48 1413.38 1692.33 1419.37 C 1784.13 1511.53 1891.36 1580.35 2025.22 1581.07 C 2142.85 1581.71 2238.14 1531.3 2325.04 1454.98 C 2346.78 1435.89 2364.52 1416.94 2384.88 1396.66 z" fill="rgb(247,241,234)" transform="translate(0,0)"></path>
<path d="M 2015.62 1039.46 C 2019.62 1039.23 2023.63 1039.11 2027.63 1039.09 C 2122.02 1037.14 2213.26 1073.01 2281.05 1138.72 C 2354.21 1210.17 2385.38 1292.2 2386.57 1393.05 C 2326.53 1332.72 2281.58 1290.09 2208.02 1244.59 C 2212.26 1239.56 2217.22 1234.31 2221.67 1229.41 C 2214.67 1229.42 2181.6 1230.19 2177.64 1228.38 C 2139.7 1210.99 2104.65 1200.52 2062.76 1195.81 C 2046.6 1193.29 2021.03 1193.54 2004.57 1194.5 C 1874.22 1202.1 1757.68 1293.47 1674.96 1389.16 C 1674.27 1306.45 1707.08 1221.26 1761.88 1159.74 C 1830.19 1083.06 1914.49 1046.02 2015.62 1039.46 z" fill="rgb(247,241,234)" transform="translate(0,0)"></path>
<path d="M 777.367 179.46 C 824.977 175.654 877.874 184.485 920.686 205.708 C 912.045 234.635 897.845 261.599 878.881 285.09 C 844.272 328.254 795.768 358.083 741.632 369.494 C 725.094 372.924 705.524 374.213 688.408 376.08 C 680.586 369.774 672.705 365.101 663.087 362.008 C 646.065 356.558 627.575 358.083 611.675 366.247 C 595.659 374.527 582.896 390.329 577.69 407.539 C 572.545 424.863 574.574 443.527 583.321 459.34 C 594.292 479.469 611.431 489.511 632.694 495.898 C 610.822 509.96 591.042 521.909 571.666 539.445 C 545.825 564.206 530.658 586.625 522.638 622.07 L 459.07 622.049 C 420.199 573.546 437.071 503.611 490.894 475.68 C 500.476 470.707 509.981 467.279 519.74 462.896 C 541.615 452.834 559.663 435.987 571.206 414.855 C 586.255 387.548 584.206 375.077 588.583 347.181 C 594.322 311.683 609.4 278.351 632.27 250.602 C 670.867 204.018 718.952 184.83 777.367 179.46 z" fill="rgb(231,89,42)" transform="translate(0,0)"></path>
<path d="M 2024.21 1209.43 C 2063.75 1207.95 2101.49 1223.68 2132.14 1247.89 C 2119.18 1263.57 2104.02 1280.14 2090.55 1295.64 C 2081.86 1288.82 2073.32 1283.71 2062.91 1279.92 C 2038.2 1270.8 2010.84 1272.19 1987.19 1283.78 C 1957.4 1298.05 1940.01 1321.79 1929.12 1352.14 C 1924.65 1354.02 1919.95 1355.11 1918.26 1359.25 C 1919.69 1362.77 1922.8 1364.38 1926.01 1366.72 C 1922.54 1416.46 1940.46 1462.84 1987.19 1485.92 C 2009.97 1497.17 2036.34 1498.7 2060.27 1490.15 C 2120.71 1468.93 2145.58 1397.65 2124.25 1339.58 C 2139.12 1322.97 2153.77 1306.17 2168.19 1289.16 C 2172.89 1296.77 2176.77 1303.77 2181.03 1311.58 C 2191.05 1331.5 2197.69 1356.23 2199.43 1378.39 C 2203.04 1427.13 2187.16 1475.31 2155.28 1512.36 C 2091.7 1586.57 1989.2 1594.1 1915.61 1529.77 C 1879.21 1497.63 1856.95 1452.45 1853.64 1404.01 C 1850.79 1354.7 1867.63 1306.28 1900.47 1269.39 C 1934.38 1231.13 1973.72 1212.37 2024.21 1209.43 z" fill="rgb(231,89,42)" transform="translate(0,0)"></path>
<path d="M 1674.76 1395.1 C 1801.7 1249.18 1969.3 1143.88 2163.8 1226.64 C 2164 1226.7 2167.14 1227.33 2166.69 1228.43 C 2166.41 1229.11 2165.09 1228.96 2164.55 1229.11 C 2160.82 1229.31 2157.14 1229.2 2153.4 1229.08 C 2144.48 1230.3 2141.35 1237.25 2134.49 1245.23 C 2056.62 1182.5 1952.74 1196.18 1891.24 1274.2 C 1859.33 1313.96 1844.77 1364.89 1850.85 1415.51 C 1857.25 1465.07 1882.97 1510.09 1922.4 1540.78 C 1941.28 1555.36 1963.89 1566.83 1987.18 1572.34 C 1986.17 1573.13 1985.24 1573.88 1984.19 1574.61 C 1858.01 1560.25 1759.31 1485.35 1674.76 1395.1 z" fill="rgb(247,241,234)" transform="translate(0,0)"></path>
<path d="M 2163.8 1226.64 C 2164 1226.7 2167.14 1227.33 2166.69 1228.43 C 2166.41 1229.11 2165.09 1228.96 2164.55 1229.11 C 2160.82 1229.31 2157.14 1229.2 2153.4 1229.08 C 2157.28 1227.97 2160.42 1228.21 2163.8 1226.64 z" fill="rgb(252,235,225)" transform="translate(0,0)"></path>
<path d="M 2267.67 1120.1 C 2273.62 1123.69 2279.5 1128.12 2285.02 1132.37 C 2369.21 1197.17 2412.94 1273.85 2426.97 1378.19 C 2427.97 1408.24 2429.45 1431.59 2424.7 1461.37 C 2420.93 1483.42 2417.37 1501.36 2410.46 1522.69 C 2383.95 1602.06 2332.84 1670.91 2264.54 1719.25 C 2133.14 1812.18 1989.84 1809.98 1860.35 1717.43 C 1848.87 1709.23 1832.87 1693.8 1822.47 1687.59 L 1824.3 1685.59 C 1829.06 1690.55 1846.74 1700.72 1853.19 1704.48 C 1905.7 1735.08 1964.53 1749.41 2025.13 1749.78 C 2120.38 1750.78 2212.09 1713.77 2279.96 1646.93 C 2350.19 1578.8 2390.02 1485.25 2390.43 1387.41 C 2391.1 1306.12 2362.93 1227.23 2310.93 1164.76 C 2297.49 1148.56 2282.42 1135.02 2267.67 1120.1 z" fill="rgb(231,89,42)" transform="translate(0,0)"></path>
<path d="M 1088.13 545.978 C 1100.98 546.329 1111.18 564.052 1129.59 566.865 C 1148.98 569.826 1165.37 568.864 1184.88 568.843 L 1261.22 568.706 L 1261.28 675.914 C 1261.29 683.196 1261.32 690.676 1261.3 697.938 C 1261.21 727.375 1264.58 741.568 1244.5 764.957 C 1220.89 786.134 1197.12 779.732 1167.81 780.472 C 1144.51 781.061 1122.61 782.435 1104.75 764.613 C 1096.84 756.608 1091.47 746.442 1089.33 735.394 C 1086.98 723.489 1088.14 686.181 1088.15 672.339 L 1088.13 545.978 z" fill="rgb(247,241,234)" transform="translate(0,0)"></path>
<path d="M 2170.91 1286.71 C 2182.08 1274.05 2194.08 1259.85 2205.54 1247.63 C 2277.18 1292.01 2323.15 1334.7 2381.62 1393.89 C 2301.92 1479.43 2196.59 1560.94 2076.56 1574.17 C 2070.69 1574 2070.51 1575.38 2066.76 1572.34 C 2113.71 1560.18 2153.76 1529.56 2177.8 1487.43 C 2203.31 1444.52 2210.49 1393.15 2197.72 1344.89 C 2191.67 1322.02 2183.6 1306.15 2170.91 1286.71 z" fill="rgb(247,241,234)" transform="translate(0,0)"></path>
<path d="M 1143.62 380.409 C 1192.47 379.245 1245.04 380.417 1294.31 380.361 C 1287.67 385.115 1277.05 394.901 1276.8 403.434 C 1275.52 448.468 1275.37 494.199 1276.87 539.226 C 1277.2 549.196 1286.99 559.288 1294.55 564.959 L 1252.25 564.861 L 1181.83 564.937 C 1167.98 564.943 1143.83 565.718 1131.05 562.856 C 1121.46 560.705 1112.52 556.316 1104.95 550.048 C 1076.98 526.827 1084.47 502.731 1082.15 471.799 C 1078.9 428.398 1091.04 383.978 1143.62 380.409 z" fill="rgb(247,241,234)" transform="translate(0,0)"></path>
<path d="M 593.572 308.83 C 594.406 312.007 584.624 341.97 584.122 348.62 C 583.45 357.529 581.632 372.139 579.881 380.807 C 572.373 417.98 546.022 449.804 510.179 462.721 C 491.266 469.761 475.456 478.403 461.571 493.329 C 439.333 517.235 433.159 540.953 434.131 572.597 C 397.71 574.76 374.513 575.031 345.602 549.386 C 330.258 534.35 319.424 513.68 319.861 491.824 C 321.585 405.49 413.41 398.99 475.018 376.488 C 522.004 359.327 559.057 344.09 593.572 308.83 z" fill="rgb(231,89,42)" transform="translate(0,0)"></path>
<path d="M 675.23 4.33933 C 697.935 1.67395 720.897 6.34589 740.755 17.6714 C 766.46 32.1232 785.28 56.2977 792.985 84.7621 C 802.178 118.69 794.649 146.051 777.901 175.651 C 760.093 176.535 745.622 179.623 728.46 183.81 C 716.974 187.353 708.811 190.463 697.899 195.207 C 688.821 133.569 660.41 72.2506 616.483 27.7269 C 635.201 14.2811 652.341 7.37016 675.23 4.33933 z" fill="rgb(231,89,42)" transform="translate(0,0)"></path>
<path d="M 988.654 525.542 C 999.158 535.327 1005.96 538.499 1019.15 543.765 L 1019.14 596.849 C 1005.98 601.925 995.539 608.997 988.984 621.89 C 983.556 632.435 982.648 644.732 986.466 655.96 C 991.598 671.476 1001.74 680.148 1015.84 687.168 C 999.276 744.494 960.676 764.855 902.749 763.634 C 881.402 762.086 858.995 757.916 839.151 749.7 C 868.327 725.058 881.998 696.416 890.508 660.201 C 894.115 658.51 897.642 656.653 901.078 654.637 C 951.985 625.332 974.206 579.759 988.654 525.542 z" fill="rgb(231,89,42)" transform="translate(0,0)"></path>
<path d="M 899.424 262.915 C 911.97 322.361 943.699 374.026 995.322 407.617 L 995.939 408.013 L 993.829 419.073 C 989.936 419.069 986.156 418.774 982.46 419.838 C 982.618 408.967 979.507 407.084 968.925 402.76 C 957.91 398.26 942.559 388.634 930.656 392.196 C 928.798 392.752 926.634 395.18 926.264 396.999 C 922.522 411.438 947.726 412.084 950.398 417.825 L 945.812 419.085 C 932.727 421.789 923.91 427.493 916.433 438.774 C 915.556 440.098 914.725 441.452 913.941 442.833 C 905.928 439.003 899.856 437.19 890.692 439.525 C 887.546 437.563 881.292 422.181 877.677 417.866 C 845.403 379.346 790.179 384.875 762.316 424.831 C 743.306 415.802 721.566 404.606 703.006 394.539 C 699.651 388.178 697.096 384.602 692.384 379.074 C 765.022 374.443 824.66 353.131 874.032 296.828 C 883.346 286.186 891.835 274.848 899.424 262.915 z" fill="rgb(247,241,234)" transform="translate(0,0)"></path>
<path d="M 845.506 360.323 C 858.14 357.6 864.569 365.824 858.578 375.351 C 855.539 380.183 823.836 383.996 817.21 385.222 C 804.023 386.862 795.628 382.564 802.918 369.461 C 805.232 365.302 839.574 361.178 845.506 360.323 z" fill="rgb(27,23,20)" transform="translate(0,0)"></path>
<path d="M 1106 851.081 C 1151.7 851.401 1197.41 851.479 1243.12 851.315 C 1242.93 892.456 1243.64 934.253 1242.89 975.287 C 1243.92 986.26 1243.22 1029.13 1243.14 1041.92 L 1242.33 1040.44 C 1240.98 1038.11 1239.52 1035.41 1238.59 1032.9 C 1226.74 1016.27 1219.23 1010.49 1200.84 1001.96 C 1200.76 987.144 1203.28 896.516 1198.19 890.371 C 1195.63 887.284 1191.36 886.586 1187.56 886.431 C 1179.86 886.116 1157.02 884.637 1151.82 889.901 C 1146.62 895.173 1149.1 990.884 1149.14 1005.02 C 1146.73 1006.28 1144.36 1007.64 1142.06 1009.09 C 1118.71 1023.59 1114.27 1039.78 1108.53 1064.19 L 1107.09 1063.96 C 1105.26 1059.55 1106.01 865.798 1106 851.081 z" fill="rgb(247,241,234)" transform="translate(0,0)"></path>
<path d="M 1238.59 1032.9 C 1239.01 1032.69 1241.37 1031.65 1241.45 1031.31 C 1243.13 1023.9 1239.81 978.513 1242.89 975.287 C 1243.92 986.26 1243.22 1029.13 1243.14 1041.92 L 1242.33 1040.44 C 1240.98 1038.11 1239.52 1035.41 1238.59 1032.9 z" fill="rgb(252,235,225)" transform="translate(0,0)"></path>
<path d="M 2150.34 1233.14 L 2212.76 1233.43 C 2150.27 1305.86 2082.24 1377.85 2021.17 1450.92 C 2008.82 1438.3 1990.87 1422.54 1977.61 1410.25 L 1923.48 1359.71 C 1937.33 1351.75 1951.98 1343.98 1966.03 1336.24 C 1982.43 1350.48 2002.15 1369.62 2017.61 1384.94 L 2150.34 1233.14 z" fill="rgb(26,160,84)" transform="translate(0,0)"></path>
<path d="M 924.095 207.57 C 998.656 246.212 1039.35 318.949 1041.35 401.891 C 1032.06 402.414 1025.95 403.847 1017.17 406.56 L 1007.95 410.664 C 1002.17 407.222 996.5 403.588 990.958 399.767 C 943.728 366.832 912.408 313.883 902.377 257.583 C 912.211 241.056 918.26 225.742 924.095 207.57 z" fill="rgb(231,89,42)" transform="translate(0,0)"></path>
<path d="M 612.535 30.6316 C 618.163 31.3234 632.626 51.8103 636.448 56.9468 C 668.328 99.7888 685.835 144.065 694.336 196.572 C 675.668 205.95 664.647 214.331 648.849 227.164 C 647.861 227.784 647.007 228.702 645.903 228.261 C 586.304 204.446 553.556 137.395 578.598 76.811 C 587.024 56.4266 597.704 44.1972 612.535 30.6316 z" fill="rgb(231,89,42)" transform="translate(0,0)"></path>
<path d="M 1355.76 659.173 C 1380.46 658.336 1409.8 658.968 1434.81 658.962 L 1588.66 658.858 C 1587.88 659.623 1587.13 660.412 1586.4 661.224 C 1569.84 679.769 1571.09 702.51 1589.78 718.877 L 1576.5 718.96 L 1433.09 719.071 C 1418.67 719.073 1356.13 720.802 1346.58 716.032 C 1338.82 712.246 1332.98 705.412 1330.44 697.158 C 1324.8 678.606 1338.37 663.591 1355.76 659.173 z" fill="rgb(247,241,234)" transform="translate(0,0)"></path>
<path d="M 1462.32 185.367 C 1496.21 183.691 1523.69 198.398 1545.02 223.908 C 1489.12 247.148 1458.55 273.219 1422.09 321.425 C 1414.81 331.803 1409.21 341.138 1402.7 352.054 C 1337.78 291.881 1374.6 193.265 1462.32 185.367 z" fill="rgb(231,89,42)" transform="translate(0,0)"></path>
<path d="M 1241.05 1051.47 C 1249.17 1085.71 1228.27 1120.13 1194.13 1128.7 C 1160 1137.28 1125.31 1116.84 1116.28 1082.82 C 1107.25 1048.8 1127.23 1013.85 1161.12 1004.36 C 1195.01 994.873 1230.23 1014.38 1240.17 1048.14 C 1240.49 1049.24 1240.79 1050.35 1241.05 1051.47 z" fill="rgb(231,89,42)" transform="translate(0,0)"></path>
<path d="M 1134.51 1053.32 C 1150.8 1052.85 1208.63 1050.51 1220.87 1054.48 C 1224.85 1055.77 1229.86 1058.44 1231.36 1062.67 C 1232.27 1065.2 1232.02 1067.6 1230.99 1070.03 C 1228.61 1075.68 1226.09 1077.83 1220.47 1079.92 C 1197.29 1080.54 1174.01 1080.03 1150.77 1080.28 C 1140.18 1080.4 1124.63 1081.44 1124.47 1066.36 C 1124.39 1059.02 1128.42 1056.24 1134.51 1053.32 z" fill="rgb(43,37,32)" transform="translate(0,0)"></path>
<path d="M 1133.6 1057.19 C 1151.47 1056.96 1169.35 1056.84 1187.23 1056.82 C 1196.77 1056.78 1208.44 1056.05 1217.61 1057.33 C 1230.64 1059.16 1228.75 1068.85 1221.2 1076.11 C 1195.9 1077.75 1163.95 1075.66 1137.98 1075.97 C 1128.71 1076.08 1124.73 1065.35 1133.6 1057.19 z" fill="rgb(231,89,42)" transform="translate(0,0)"></path>
<path d="M 1150.9 1088.16 C 1164.58 1086.88 1188.58 1087.4 1202.52 1087.89 C 1213.49 1088.28 1217.79 1102.95 1205.34 1111.86 C 1189.35 1112.36 1170.38 1112.52 1154.49 1112.07 C 1141.22 1111.7 1139.51 1096.88 1150.9 1088.16 z" fill="rgb(43,37,32)" transform="translate(0,0)"></path>
<path d="M 1155.77 1091.4 C 1168.78 1091.84 1191.07 1091.06 1203.96 1092.07 C 1208.79 1092.45 1212.89 1105.25 1202.25 1108.54 C 1193.16 1108.42 1159.56 1109.39 1150.99 1107.09 C 1146.51 1105.88 1143.36 1093.78 1155.77 1091.4 z" fill="rgb(231,89,42)" transform="translate(0,0)"></path>
<path d="M 1153.25 1019.35 C 1168.54 1018.83 1188.54 1018.57 1203.5 1020 C 1212.32 1020.85 1217.01 1037.99 1204.08 1043.22 L 1202.68 1043.86 C 1188.09 1043.99 1166.34 1044.74 1152.36 1043.47 C 1143.84 1042.7 1137.25 1026.07 1153.25 1019.35 z" fill="rgb(43,37,32)" transform="translate(0,0)"></path>
<path d="M 1152.25 1023.21 C 1154.33 1023.13 1156.41 1023.05 1158.49 1022.99 C 1165.76 1022.81 1229.46 1018.09 1203.36 1039.99 C 1187.41 1040.33 1171.45 1040.19 1155.48 1040.11 C 1150.82 1040.08 1146.82 1035.07 1147.24 1030.49 C 1147.54 1027.26 1149.91 1025.2 1152.25 1023.21 z" fill="rgb(231,89,42)" transform="translate(0,0)"></path>
<path d="M 1033.06 406.259 C 1045.89 405.006 1076.2 405.891 1090.52 405.932 C 1076.46 426.495 1078.16 447.723 1078.15 471.492 C 1078.14 497.694 1075.69 519.539 1091.67 542.119 L 1041.75 542.391 C 1027.65 542.664 1013.81 539.165 1001.97 531.394 C 986.917 521.316 976.488 505.674 972.97 487.907 C 964.77 446.474 993.429 413.896 1033.06 406.259 z" fill="rgb(247,241,234)" transform="translate(0,0)"></path>
<path d="M 811.142 396.195 C 845.258 390.151 877.847 412.808 884.064 446.892 C 890.281 480.977 867.79 513.68 833.737 520.07 C 799.439 526.506 766.449 503.818 760.187 469.488 C 753.925 435.157 776.781 402.283 811.142 396.195 z" fill="rgb(247,241,234)" transform="translate(0,0)"></path>
<path d="M 831.41 417.137 C 834.747 416.874 837.067 416.55 840.31 417.558 C 846.86 419.563 852.253 424.25 855.152 430.456 C 863.335 447.73 858.038 467.522 839.951 475.645 C 829.309 476.169 821.433 473.388 816.176 463.429 C 811.783 455.111 810.864 445.392 813.619 436.398 C 815.896 429.214 821.22 422.313 827.987 418.866 L 831.41 417.137 z" fill="rgb(27,23,20)" transform="translate(0,0)"></path>
<path d="M 813.735 409.317 C 817.063 409.013 831.278 409.258 833.414 412.243 C 836.416 416.44 822.138 413.188 820.985 413.108 C 811.158 412.425 802.22 415.21 793.232 418.81 C 788.858 421.232 785.011 423.428 780.99 426.465 C 779.624 427.496 777.424 425.205 778.555 424.142 C 788.645 414.665 800.375 411.122 813.735 409.317 z" fill="rgb(43,37,32)" transform="translate(0,0)"></path>
<path d="M 2120.56 1343.77 C 2122.24 1345.52 2122.83 1347.43 2123.51 1349.71 C 2132.09 1379.08 2128.77 1410.64 2114.29 1437.59 C 2101.28 1461.54 2080.17 1480.3 2053.79 1487.99 C 2030.69 1494.8 2005.81 1491.99 1984.82 1480.19 C 1957.18 1464.96 1941.75 1442.26 1933.02 1412.56 C 1929.24 1398.97 1929.01 1384.88 1929.23 1370.92 C 1960.18 1399.07 1990.9 1427.49 2021.39 1456.15 L 2034.5 1440.89 C 2069.21 1436.61 2092.01 1413.16 2091.16 1377.41 C 2100.25 1366.38 2111.05 1354.6 2120.56 1343.77 z" fill="rgb(231,89,42)" transform="translate(0,0)"></path>
<path d="M 1496.78 723.033 L 1584.39 723.081 L 1584.45 847.359 L 1496.83 847.399 L 1496.78 723.033 z" fill="rgb(247,241,234)" transform="translate(0,0)"></path>
<path d="M 1304.91 381.022 C 1326.28 379.829 1337.44 394.078 1337.31 414.332 C 1337.04 455.699 1338.14 497.188 1337.09 538.536 C 1336.7 553.537 1326.65 560.997 1313.41 564.974 C 1308.32 565.422 1303.71 564.84 1298.99 562.739 C 1290.92 559.15 1285.38 551.828 1282.35 543.725 C 1278.41 533.165 1279.03 424.75 1280.27 407.718 C 1280.51 404.354 1281.04 401.059 1282.53 397.991 C 1287.21 388.323 1295.24 384.182 1304.91 381.022 z" fill="rgb(231,89,42)" transform="translate(0,0)"></path>
<path d="M 1304.85 407.651 C 1309.02 407.591 1309.99 407.327 1313.42 409.454 C 1314.77 411.099 1315.8 412.368 1315.82 414.628 C 1316.24 453.11 1316.55 491.698 1316.06 530.17 C 1316.04 531.793 1313.29 535.041 1312.24 536.324 C 1306.82 536.102 1301.84 535.066 1301.61 528.483 C 1300.48 495.258 1301.28 461.871 1301.12 428.613 C 1301.09 421.112 1300.07 413.656 1304.85 407.651 z" fill="rgb(43,37,32)" transform="translate(0,0)"></path>
<path d="M 1307.68 410.397 C 1311.19 412.306 1309.92 411.007 1311.9 414.161 C 1312.08 417.185 1312.65 428.328 1312.3 430.797 C 1310.03 446.952 1316.02 522.709 1310.6 533.505 C 1307.14 531.787 1305.18 530.743 1305.13 526.333 C 1304.7 489.172 1304.75 451.888 1305.37 414.736 C 1305.39 413.243 1306.81 411.499 1307.68 410.397 z" fill="rgb(231,89,42)" transform="translate(0,0)"></path>
<path d="M 1484.61 1007.9 L 1485.41 1009.05 C 1486.53 1038.59 1483.81 1070.96 1485.55 1100.07 C 1489.72 1169.79 1447.45 1222.11 1375.86 1227.12 L 1374.88 1226.86 L 1374.24 1225.56 C 1376.05 1220.34 1381.37 1211.15 1384.16 1205.56 C 1392.17 1189.48 1400.26 1173.44 1408.43 1157.45 C 1433.34 1107.36 1458.74 1057.51 1484.61 1007.9 z" fill="rgb(231,89,42)" transform="translate(0,0)"></path>
<path d="M 1488.99 881.385 C 1521.63 881.547 1556.41 881.998 1588.9 881.052 C 1589.34 910.394 1589.17 940.222 1589.22 969.584 C 1555.98 969.988 1522.36 969.762 1489.1 969.788 L 1488.99 881.385 z" fill="rgb(231,89,42)" transform="translate(0,0)"></path>
<path d="M 604.454 277.789 C 606.624 276.035 608.8 273.65 611.17 273.356 C 609.955 276.388 609.875 276.522 608.004 279.206 C 603.073 288.648 597.147 299.347 589.727 307.241 C 553.505 345.777 493.866 367.02 444.597 382.336 C 404.769 394.717 373.948 399.161 341.346 428.42 C 363.548 344.741 425.655 349.187 494.695 330.293 C 534.669 319.353 571.639 303.204 604.454 277.789 z" fill="rgb(231,89,42)" transform="translate(0,0)"></path>
<path d="M 1022.76 600.095 C 1038.35 598.455 1045.36 601.21 1058.5 608.521 C 1066.31 607.894 1076.25 608.062 1084.23 607.982 C 1084.1 629.387 1084.11 650.793 1084.25 672.198 L 1059.97 672.692 C 1054.49 677.789 1052.79 678.964 1046.34 682.335 C 1034.26 686.694 1024.34 687.389 1012.42 681.223 C 1001.86 675.638 993.923 666.116 990.332 654.721 C 981.912 628.514 998.473 607.499 1022.76 600.095 z" fill="rgb(247,241,234)" transform="translate(0,0)"></path>
<path d="M 2020.57 1278.29 C 2045.85 1275.4 2068.05 1283.94 2088.21 1298.43 L 2061.26 1329.18 C 2035.97 1312.15 2010.44 1317.73 1990.3 1339.31 L 1984.36 1347.6 L 1966.94 1331.55 C 1957.07 1336.18 1944.85 1343.53 1934.43 1348.78 C 1950.77 1309.15 1977.33 1284.62 2020.57 1278.29 z" fill="rgb(231,89,42)" transform="translate(0,0)"></path>
<path d="M 1156.39 890.405 C 1165.85 890.57 1185.32 889.309 1193.26 891.68 C 1195.08 893.091 1196.06 896.135 1196.16 898.146 C 1196.72 908.822 1197.94 997.414 1195.89 1000.25 L 1193.08 1000.26 C 1177 997.737 1168.51 998.915 1153.11 1003.32 L 1152.96 929.692 C 1152.95 920.867 1151.08 896.313 1156.39 890.405 z" fill="rgb(247,241,234)" transform="translate(0,0)"></path>
<path d="M 1091.47 823.042 C 1103.72 822.241 1118.05 822.741 1130.42 822.819 C 1171.32 823.076 1212.33 822.353 1253.2 823.096 C 1265.91 823.327 1268.03 839.594 1256.55 847.188 C 1246.55 847.781 1235.85 847.398 1225.77 847.409 C 1184.2 847.454 1142.63 847.482 1101.06 847.367 C 1083.82 847.32 1078.84 834.339 1091.47 823.042 z" fill="rgb(231,89,42)" transform="translate(0,0)"></path>
<path d="M 971.751 422.674 C 978.943 422.212 982.59 422.1 989.735 422.611 C 961.106 454.322 960.6 489.419 986.189 523.204 C 980.208 523.322 973.162 523.71 967.257 523.166 C 941.447 520.789 923.029 500.238 922.68 474.522 C 922.406 460.125 927.905 446.218 937.951 435.902 C 942.173 431.637 947.208 428.263 952.757 425.979 C 960.692 423.874 963.617 423.153 971.751 422.674 z" fill="rgb(231,89,42)" transform="translate(0,0)"></path>
<path d="M 1116.46 778.252 C 1136.67 787.912 1210.67 787.31 1231.64 778.754 L 1231.63 815.25 C 1231.63 816.622 1231.38 817.056 1231.03 818.42 C 1227.31 819.842 1128.05 819.016 1116.57 819.007 C 1116.4 805.423 1116.36 791.837 1116.46 778.252 z" fill="rgb(247,241,234)" transform="translate(0,0)"></path>
<path d="M 1023.11 544.649 C 1042.09 547.407 1064.68 546.431 1084.12 546.28 L 1084.1 604.288 C 1075.61 604.336 1068.17 604.553 1059.71 604.92 C 1044.89 596.047 1040.04 595.751 1023.09 595.976 L 1023.11 544.649 z" fill="rgb(255,255,255)" transform="translate(0,0)"></path>
<path d="M 1484.21 852.127 C 1495.08 850.591 1529.81 851.891 1543.3 851.566 C 1556.86 853.373 1587.91 847.145 1597.95 856.191 C 1604.25 861.873 1598.89 871.468 1592.48 876.314 C 1587.79 877.533 1580.32 877.408 1575.39 877.421 L 1518.04 877.463 C 1509.04 877.461 1486.04 879.667 1479.86 872.467 C 1473.93 865.557 1477.88 857.592 1484.21 852.127 z" fill="rgb(247,241,234)" transform="translate(0,0)"></path>
<path d="M 1095.15 1211.37 C 1093.48 1211.06 1092.46 1210.55 1090.83 1209.92 L 1091.28 1209.24 C 1106.42 1207.98 1134.86 1208.83 1150.88 1208.85 C 1180.88 1208.89 1213.3 1208.18 1243.12 1209.09 C 1254.46 1208.8 1266.63 1205.97 1267.32 1222.55 C 1267.43 1225 1267.13 1224.86 1265.67 1226.44 C 1254.27 1227.75 1224.39 1227.04 1211.62 1227.03 L 1113.67 1226.83 C 1107.97 1218.42 1105.02 1215.14 1095.15 1211.37 z" fill="rgb(231,89,42)" transform="translate(0,0)"></path>
<path d="M 1095.15 1211.37 C 1093.48 1211.06 1092.46 1210.55 1090.83 1209.92 L 1091.28 1209.24 C 1106.42 1207.98 1134.86 1208.83 1150.88 1208.85 C 1180.88 1208.89 1213.3 1208.18 1243.12 1209.09 C 1223.82 1210.94 1101.72 1207.81 1095.15 1211.37 z" fill="rgb(201,72,30)" transform="translate(0,0)"></path>
<path d="M 1601.84 658.094 C 1607.19 658.014 1609.57 658.108 1614.76 660.377 C 1621.63 663.449 1626.94 669.204 1629.45 676.299 C 1635.94 694.243 1627.42 712.888 1609.05 718.905 C 1573.41 721.468 1566.85 668.049 1601.84 658.094 z" fill="rgb(231,89,42)" transform="translate(0,0)"></path>
<path d="M 1600.86 669.998 C 1611.69 670.026 1617.07 673.783 1617.5 685.624 C 1617.89 696.323 1617.97 701.445 1608.14 707.113 C 1585.35 706.769 1587.32 678.638 1599.52 670.873 L 1600.86 669.998 z" fill="rgb(43,37,32)" transform="translate(0,0)"></path>
<path d="M 1600.91 673.533 C 1618.72 673.69 1616.7 695.067 1608.11 703.476 C 1601.95 703.219 1595.74 701.948 1595.16 694.028 C 1594.6 686.209 1594.12 680.821 1599.72 674.849 L 1600.91 673.533 z" fill="rgb(231,89,42)" transform="translate(0,0)"></path>
<path d="M 624.005 506.067 L 624.379 506.472 C 624.239 507.765 547.184 611.27 539.523 621.04 C 536.606 622.716 531.845 622.122 528.262 622.047 C 526.952 619.587 526.935 619.732 527.684 616.811 C 541.486 563.036 580.402 534.569 624.005 506.067 z" fill="rgb(231,89,42)" transform="translate(0,0)"></path>
<path d="M 2029.23 1323.33 C 2041.68 1323.14 2048.19 1326.09 2058.8 1331.94 C 2045.58 1347.73 2030.94 1363.14 2017.77 1378.81 C 2013.01 1375.46 1993.11 1355.72 1987.46 1350.47 C 1999.07 1333.36 2008.17 1325.96 2029.23 1323.33 z" fill="rgb(231,89,42)" transform="translate(0,0)"></path>
<path d="M 952.252 524.11 C 910.529 518.097 900.683 472.192 920.402 439.618 C 926.527 429.5 937.914 424.109 949.333 422.007 L 946.142 424.854 C 907.164 449.365 910.155 502.865 952.252 524.11 z" fill="rgb(247,241,234)" transform="translate(0,0)"></path>
<path d="M 2086.1 1382.86 C 2086.47 1383.24 2087.18 1383.89 2087.15 1384.5 C 2086.3 1404.21 2073.11 1423.19 2055.4 1431.72 C 2050.63 1434.02 2045.79 1435.22 2040.5 1436.42 C 2040.21 1436.15 2039.92 1435.87 2039.63 1435.59 C 2039.61 1435.05 2082.1 1387.37 2086.1 1382.86 z" fill="rgb(231,89,42)" transform="translate(0,0)"></path>
<path d="M 1481.11 723.022 C 1495.98 722.762 1492.7 721.965 1492.81 737.517 C 1489.19 735.028 1483.73 726.793 1481.11 723.022 z" fill="rgb(247,241,234)" transform="translate(0,0)"></path>
<path d="M 2076.56 1574.17 C 2073.3 1574.82 2050.1 1577.61 2048.01 1576.38 C 2048.01 1576.28 2048.02 1576.17 2048.03 1576.06 C 2048.84 1575.42 2064.85 1572.61 2066.76 1572.34 C 2070.51 1575.38 2070.69 1574 2076.56 1574.17 z" fill="rgb(189,161,145)" transform="translate(0,0)"></path>
<path d="M 1987.18 1572.34 C 1989.49 1572.65 2007.67 1575.58 2008.54 1576.18 L 2008.61 1576.4 C 2007.44 1577.57 1986.61 1575.52 1984.19 1574.61 C 1985.24 1573.88 1986.17 1573.13 1987.18 1572.34 z" fill="rgb(189,161,145)" transform="translate(0,0)"></path>
<path d="M 1240.17 1048.14 C 1240.53 1047.39 1240.89 1046.65 1241.25 1045.9 C 1241.47 1045.58 1241.69 1045.26 1241.91 1044.94 C 1241.96 1044.87 1242.01 1044.8 1242.07 1044.73 C 1242.78 1044.06 1243.66 1043.78 1244.62 1043.75 C 1244.78 1043.73 1245.24 1043.93 1245.28 1044.11 C 1245.75 1046.23 1245.81 1049.56 1245.32 1051.63 C 1245.03 1052.83 1242.84 1051.83 1242.24 1051.7 C 1241.84 1051.62 1241.45 1051.54 1241.05 1051.47 C 1240.79 1050.35 1240.49 1049.24 1240.17 1048.14 z" fill="rgb(27,23,20)" transform="translate(0,0)"></path>
<path d="M 999.054 410.306 C 1003.4 411.833 1004.61 411.276 1002.68 415.433 C 998.794 415.706 998.666 415.92 998.999 411.894 L 999.054 410.306 z" fill="rgb(231,89,42)" transform="translate(0,0)"></path>
<path d="M 1822.47 1687.59 C 1821.18 1686.05 1818.11 1682.02 1822.84 1684.79 L 1824.3 1685.59 L 1822.47 1687.59 z" fill="rgb(201,72,30)" transform="translate(0,0)"></path>
<metadata><recraft-signature>{"signed_by": "recraft", "signature_b64": "5aQeNte3j6YiGv0Vl4fiSEqsrDJyeQsvYZs8AH2T+4K/Mufvkywj0C5M03R6/n+qFjwc+bf5UDCvE8/fF/q0AQ==", "signing_algo": "Ed25519", "generation_timestamp": 1783393836, "identifier": "efdbdc04-2aa8-4a5f-ab37-17819a028920"}</recraft-signature></metadata></svg>