<svg xmlns="http://www.w3.org/2000/svg" height="1792" preserveAspectRatio="none" style="display: block;" version="1.1" viewBox="0 0 2432 1792" width="2432">
<path d="M 0 0 L 2432 0 L 2432 1792 L 0 1792 L 0 0 z" fill="rgb(255,255,255)" transform="translate(0,0)"></path>
<path d="M 1433.68 222.417 C 1492.27 215.501 1576.63 262.772 1614.18 306.411 C 1646.4 343.859 1664.19 394.138 1685.74 438.573 C 1708.11 484.696 1732.03 526.343 1764.82 566.069 C 1781.39 585.947 1799.64 604.369 1819.36 621.134 C 1830.36 630.385 1840.9 638.079 1851.94 646.712 C 1869.9 660.754 1909.24 680.78 1918.39 700.424 C 1928.72 722.613 1917.8 760.671 1909.27 782.585 C 1881.06 855.101 1817.28 911.457 1747.84 943.703 C 1740.95 946.903 1717.63 956.964 1710.49 956.762 C 1693.96 956.295 1669.31 939.316 1653.18 933.04 C 1642.48 928.878 1634.4 925.027 1623.26 922.886 C 1597.06 917.851 1569.72 919.288 1543.31 918.944 C 1522.44 918.6 1501.63 916.763 1481.02 913.446 C 1448.29 908.049 1417.58 899.287 1389.01 882.048 C 1357.82 863.231 1326.35 844.115 1292.33 830.84 C 1281.84 847.617 1261.8 870.428 1247.33 883.901 C 1170.02 955.871 1076.64 989.563 971.722 986.117 C 967.814 991.908 962.405 1003.02 959.007 1009.52 C 952.03 1022.97 944.944 1036.35 937.749 1049.68 C 986.602 1078.26 1017.28 1156.35 967.218 1198.35 C 989.263 1242.73 974.096 1288.54 929.205 1310.07 C 945.47 1355.31 926.863 1391.15 886.761 1413.84 C 897.515 1457.02 881.017 1495.26 838.249 1511.51 C 816.159 1519.76 791.702 1518.93 770.223 1509.2 C 764.739 1512.04 744.828 1519.03 742.552 1521.27 C 704.8 1558.53 667.681 1579.18 618.234 1599.21 C 588.091 1610.51 532.194 1619.51 514.892 1642.56 C 483.752 1684.03 477.066 1685.33 420.643 1673.6 C 363.387 1661.76 310.462 1634.48 267.602 1594.71 C 234.126 1563.85 195.818 1513.93 190.659 1468.2 C 189.512 1458.04 243.621 1393.07 252.693 1380.51 C 266.674 1361.1 279.857 1341.14 292.209 1320.65 C 314.545 1283.07 330.248 1246.62 348.905 1208.02 C 403.885 1094.3 465.714 1016.1 583.306 964.373 C 635.834 941.267 693.643 922.671 744.65 897.817 C 681.041 843.437 638.101 783.387 619.26 700.374 C 598.736 610.349 614.679 515.86 663.605 437.552 C 717.06 352.911 802.03 293.05 899.726 271.206 C 999.343 248.718 1103.81 266.294 1190.58 320.142 C 1205.06 311.659 1216.89 307.52 1232.81 303.505 C 1257.87 262.301 1310.86 250.581 1355.75 250.006 C 1379.21 231.274 1404.31 224.725 1433.68 222.417 z" fill="rgb(43,37,32)" transform="translate(0,0)"></path>
<path d="M 1429.64 228.393 C 1450.6 224.917 1484.22 232.595 1504.09 239.895 C 1552.52 257.688 1597.75 288.417 1626.87 331.642 C 1641.54 355.494 1655.69 385.932 1666.69 411.456 C 1712.4 517.543 1776.87 609.533 1876.71 670.61 C 1889.24 678.275 1902.83 688.139 1912.71 700.056 C 1798.26 720.477 1706.97 834.245 1698.77 948.375 C 1674.03 937.903 1651.56 922.966 1624.64 917.446 C 1600.24 912.444 1575.69 914.192 1551.05 913.605 C 1499.89 912.276 1435.83 905.654 1391.76 877.032 C 1321.12 831.147 1255.34 807.527 1172.99 789.499 C 1172.58 776.791 1173.18 733.395 1165.15 726.393 C 1143.21 707.272 1100.05 717.873 1080.92 734.106 C 1081.09 733.065 1081.26 732.026 1081.45 730.989 C 1087.96 695.226 1116.56 690.269 1145.59 680.155 C 1155.46 676.717 1165.55 668.193 1176.47 665.223 C 1231.17 650.335 1283.43 677.276 1335.17 690.454 C 1359.34 696.589 1406.33 670.089 1426.96 655.78 C 1422.36 650.899 1417.86 645.551 1413.42 640.504 C 1372.92 594.445 1330.55 548.75 1277.1 517.536 C 1243.11 497.681 1223.67 492.341 1185.25 502.308 C 1157.54 510.316 1132.45 525.495 1106.26 536.602 C 1089.47 543.142 1069.68 545.876 1052.74 538.307 C 1040.68 532.922 1036.07 524.919 1031.72 513.237 C 1075.17 501.465 1094.4 470.467 1094.11 426.531 C 1133.17 386.976 1159.4 371.687 1215.68 367.913 C 1289.84 363.267 1362.92 387.569 1419.53 435.705 C 1429.67 444.467 1439.2 453.922 1448.03 464 C 1452.24 468.833 1459.04 479.378 1464.51 481.993 L 1466.13 481.352 L 1466.76 479.087 C 1464.32 474.29 1457.27 466.019 1453.43 461.635 C 1430.73 435.571 1403.54 413.778 1373.16 397.284 C 1308.31 362.401 1230.88 351.295 1159.86 372.661 C 1163.89 355.219 1168.81 343.645 1183.24 332.006 C 1217.32 304.526 1274.77 300.269 1316.66 304.569 C 1393.53 312.457 1458.49 356.077 1504.6 416.43 C 1506.58 419.018 1509.34 422.483 1512.71 422.847 L 1513.92 421.104 C 1508.5 404.73 1461.14 361.591 1445.44 350.146 C 1379.82 302.328 1318.12 290.876 1240.13 301.646 C 1253.38 284.634 1273.21 271.835 1291.61 265.829 C 1389.87 233.75 1498.44 283.861 1561.15 360.482 C 1561.68 361.125 1563.16 359.97 1563.78 359.624 C 1564.14 355.601 1558.27 349.313 1555.64 346.314 C 1506.77 290.181 1437.66 255.692 1363.43 250.393 C 1386.9 236.383 1402.14 231.102 1429.64 228.393 z" fill="rgb(247,241,234)" transform="translate(0,0)"></path>
<path d="M 749.278 901.492 C 770.214 916.981 780.667 923.811 803.112 937.121 C 795.141 959.574 787.339 985.444 780.247 1008.35 C 754.035 1021.13 732.466 1040.17 717.068 1064.66 C 701.373 1089.63 686.678 1094.92 661.674 1108.48 C 637.658 1121.52 613.169 1133.78 589.012 1146.54 C 582.681 1149.88 545.797 1165.72 545.526 1171.42 C 547.367 1172.26 550.219 1172.66 552.081 1171.67 C 618.513 1136.46 690.538 1105.09 750.699 1059.74 C 765.532 1048.43 779.828 1036.43 793.538 1023.78 C 803.33 1014.86 824.371 993.898 834.38 988.713 C 846.51 982.335 860.715 981.174 873.72 985.497 C 917.179 1000.26 913.775 1056.16 901.326 1091.02 C 878.18 1155.84 820.042 1171.14 778.532 1219.2 C 759.875 1240.81 753.236 1270.37 738.944 1294.9 C 692.602 1385.58 639.755 1435.57 548.177 1477.5 L 543.134 1479.42 C 546.349 1480.9 553.632 1479.78 557.382 1479.19 C 576.352 1477.5 595.137 1474.14 613.521 1469.16 C 638.242 1513.69 684.718 1528.72 733.026 1522.46 C 727.583 1527.29 712.716 1540.76 706.898 1544.27 C 680.286 1564.43 650.904 1580.63 619.661 1592.39 C 571.079 1611.11 523.657 1610.61 493.791 1658.42 C 474.008 1608.6 440.229 1568.03 398.701 1534.64 C 344.808 1491.32 267.804 1454.23 197.221 1461.97 C 211.94 1441.81 229.019 1421.66 244.355 1401.57 C 265.517 1373.87 284.95 1344.89 302.542 1314.8 C 321.86 1281.72 337.781 1243.79 355.003 1209.02 C 401.18 1115.77 447.521 1046.89 538.237 993.88 C 608.508 952.816 680.038 937.278 749.278 901.492 z" fill="rgb(247,241,234)" transform="translate(0,0)"></path>
<path d="M 557.382 1479.19 C 576.352 1477.5 595.137 1474.14 613.521 1469.16 C 638.242 1513.69 684.718 1528.72 733.026 1522.46 C 727.583 1527.29 712.716 1540.76 706.898 1544.27 C 703.227 1541.75 670.982 1535.69 663.453 1533.5 C 625.981 1522.58 590.325 1508.54 555.547 1490.78 C 551.201 1488.56 543.649 1485.65 540.545 1482.64 L 541.092 1480.49 L 543.134 1479.42 C 546.349 1480.9 553.632 1479.78 557.382 1479.19 z" fill="rgb(252,235,225)" transform="translate(0,0)"></path>
<path d="M 1210.46 831.947 C 1169.72 871.491 1119.15 899.439 1063.99 912.902 C 980.865 932.615 893.31 918.447 820.64 873.524 C 752.228 832.122 702.844 765.475 683.149 687.974 C 664.74 613.139 677.349 534.04 718.114 468.638 C 761.102 399.654 829.671 350.511 908.81 331.968 C 997.91 310.781 1078.56 326.392 1155.68 373.78 C 1129.17 385.781 1109.32 403.244 1089.22 423.881 L 1076.16 436.299 C 1051.35 460.288 1007.58 498.788 1036.79 534.902 C 1031.03 538.58 1017.75 550.348 1014.53 551.246 C 982.725 536.794 990.429 508.501 980.041 498.615 L 979.106 498.307 C 970.67 508.607 991.271 540.429 999.143 548.863 C 983.981 547.505 968.724 547.621 953.584 549.211 C 936.126 540.469 922.27 525.904 914.41 508.032 C 912.343 503.351 912.495 500.436 908.29 501.387 C 901.003 512.669 933.135 543.692 943.108 550.43 C 926.676 552.921 915.377 555.349 899.391 559.956 C 881.567 552.987 871.272 544.801 859.118 529.866 C 855.522 525.448 854.205 521.357 850.255 521.455 C 842.013 531.999 881.333 558.684 890.747 562.994 C 877.499 568.289 864.34 573.262 851.852 580.218 C 834.721 576.872 822.866 572.677 808.943 561.598 C 804.567 558.116 798.943 552.201 793.662 553.347 C 794.56 566.431 831.9 582.017 843.233 585.074 C 829.846 593.83 819.719 600.613 807.541 611.109 C 795.215 609.294 791.848 608.636 780.007 604.715 C 770.427 601.543 756.885 590.63 751.024 590.836 L 750.031 591.919 C 754.647 601.542 772.118 608.562 781.915 611.998 C 788.315 614.243 794.95 615.753 801.691 616.5 C 788.702 629.261 774.67 644.208 763.563 658.681 C 762.033 670.856 761.078 680.08 770.109 689.949 C 816.778 740.952 887.631 778.369 956.486 784.933 C 998.708 788.957 1052.49 787.375 1090.83 771.975 C 1113.83 787.367 1129.67 787.888 1156.31 792.261 C 1160.08 792.88 1173.6 795.268 1176.71 796.514 C 1193.86 798.52 1214.34 805.165 1231.61 809.314 C 1224.79 816.948 1217.79 824.828 1210.46 831.947 z" fill="rgb(247,241,234)" transform="translate(0,0)"></path>
<path d="M 806.9 474.402 C 873.265 434.841 962.69 415.673 1039.75 418.527 C 1056.33 419.141 1072.82 421.469 1089.22 423.881 L 1076.16 436.299 C 1063.77 433.078 1041.13 432.184 1028.05 431.798 C 948.431 429.443 882.738 445.169 810.981 477.815 C 796.526 485.778 779.416 494.657 766.278 504.169 L 764.425 503.011 C 776.922 492.796 792.615 481.727 806.9 474.402 z" fill="rgb(231,89,42)" transform="translate(0,0)"></path>
<path d="M 1176.71 796.514 C 1193.86 798.52 1214.34 805.165 1231.61 809.314 C 1224.79 816.948 1217.79 824.828 1210.46 831.947 C 1201.51 817.024 1188.61 808.138 1176.71 796.514 z" fill="rgb(252,235,225)" transform="translate(0,0)"></path>
<path d="M 766.278 504.169 C 760.046 509.696 757.101 508.433 764.425 503.011 L 766.278 504.169 z" fill="rgb(226,173,142)" transform="translate(0,0)"></path>
<path d="M 974.536 267.433 C 1053.22 265.208 1117.62 284.501 1185.09 323.255 C 1167.17 337.412 1161.39 345.404 1155.19 367.123 C 1113.23 336.695 1049.45 319.72 998.219 317.729 C 912.024 313.642 827.778 344.218 764.27 402.639 C 706.457 456.333 672.209 530.701 668.99 609.536 C 666.96 689.319 696.638 766.653 751.522 824.594 C 811.402 888.091 894.204 924.982 981.458 927.039 C 1073.37 929.711 1150.6 896.008 1216.71 833.674 C 1226.02 848.447 1235.24 863.273 1244.38 878.152 C 1231.35 891.031 1212.92 905.498 1198.06 916.174 C 1125.36 964.864 1042.08 987.629 955.319 978.818 C 943.508 977.619 931.306 975.344 919.566 975.336 C 918.657 975.336 918.449 976.909 918.176 977.677 C 922.944 982.635 955.799 984.462 964.871 985.314 C 954.334 1006.76 942.105 1028.84 931.014 1050.12 C 922.907 1065.67 913.749 1084.45 904.854 1099.06 C 910.123 1084.38 913.729 1071.94 915.258 1057.52 C 922.974 984.717 854.58 947.753 804.473 1005.87 C 799.738 1011.36 785.226 1023.56 779.393 1028.43 C 789.713 1000.46 799.103 968.292 808.062 939.683 C 814.173 942.542 820.675 947.356 827.045 946.352 L 827.454 945.416 C 824.295 940.609 792.362 924.113 783.987 918.77 C 764.001 906.06 745.187 891.593 727.77 875.542 C 660.056 813.176 620.036 726.362 616.592 634.369 C 611.314 508.081 680.729 387.722 787.866 322.81 C 847.211 286.854 905.439 270.232 974.536 267.433 z" fill="rgb(231,89,42)" transform="translate(0,0)"></path>
<path d="M 207.879 1466.4 C 213.698 1465.83 222.824 1466.14 228.862 1466.66 C 308.61 1473.59 389.526 1523.44 440.886 1582.84 C 436.577 1604.2 426.379 1636.6 420.021 1657.78 L 417.303 1667.12 C 317.146 1643 220.762 1571.46 195.416 1467.69 L 207.879 1466.4 z" fill="rgb(121,49,26)" transform="translate(0,0)"></path>
<path d="M 1018.59 551.438 C 1025.31 545.47 1032.61 540.183 1040.37 535.657 L 1042.47 539.436 C 1020.17 552.944 1011.73 558.601 1000.64 582.283 C 999.422 585.457 997.599 589.814 996.733 592.988 C 990.551 617.823 992.309 640.204 1005.88 662.52 C 1018.52 683.234 1038.99 697.967 1062.65 703.38 C 1069.51 704.998 1076.52 705.868 1083.57 705.975 L 1085.02 706.939 L 1083.54 708.829 C 1072.85 730.051 1071.6 748.395 1087.1 767.537 C 1078.11 770.512 1068.97 773.063 1059.74 775.181 C 1021.89 783.537 984.487 781.438 951.23 760.151 C 892.946 722.843 873.081 650.11 911.211 590.674 C 937.642 583.882 971.016 576.729 998.103 580.493 C 1003.41 568.085 1009.05 560.731 1018.59 551.438 z" fill="rgb(231,89,42)" transform="translate(0,0)"></path>
<path d="M 992.796 593.428 C 980.561 653.68 1015.45 702.066 1076.81 708.311 C 1068.86 714.807 1063.63 718.701 1054.03 722.653 C 1034.99 730.349 1013.68 730.175 994.769 722.169 C 976.846 714.563 962.694 700.127 955.446 682.057 C 948.907 665.043 949.328 646.139 956.617 629.432 C 963.16 614.418 977.693 599.47 992.796 593.428 z" fill="rgb(43,37,32)" transform="translate(0,0)"></path>
<path d="M 1110.34 541.142 C 1122.05 545.458 1132.61 552.412 1141.2 561.465 C 1156 577.458 1164.03 598.564 1163.59 620.35 C 1163.06 638.241 1151.22 670.687 1135.28 677.583 C 1114.69 686.49 1107.69 684.257 1089.09 701.616 C 1074.6 701.885 1066.97 700.792 1053.23 696.459 C 1033.14 688.584 1016.67 674.491 1006.61 655.301 C 996.464 635.788 994.612 613.012 1001.47 592.118 C 1009.54 567.035 1024.59 553.329 1047.29 541.658 C 1070.59 551.128 1086.69 549.75 1110.34 541.142 z" fill="rgb(247,241,234)" transform="translate(0,0)"></path>
<path d="M 1074.73 573.5 C 1099.65 570.066 1122.65 587.436 1126.17 612.344 C 1129.69 637.252 1112.4 660.314 1087.5 663.917 C 1062.49 667.538 1039.29 650.145 1035.75 625.116 C 1032.22 600.088 1049.69 576.95 1074.73 573.5 z" fill="rgb(43,37,32)" transform="translate(0,0)"></path>
<path d="M 1077.22 577.601 C 1099.75 575.521 1119.74 591.996 1122.01 614.511 C 1124.28 637.026 1107.97 657.159 1085.48 659.616 C 1062.72 662.101 1042.29 645.557 1040 622.775 C 1037.7 599.992 1054.41 579.706 1077.22 577.601 z" fill="rgb(231,89,42)" transform="translate(0,0)"></path>
<path d="M 1073.79 592.33 C 1083.36 589.781 1093.57 592.623 1100.44 599.756 C 1107.32 606.888 1109.79 617.188 1106.89 626.662 C 1103.99 636.136 1096.18 643.294 1086.5 645.36 C 1072.02 648.446 1057.73 639.43 1054.28 625.041 C 1050.84 610.651 1059.49 596.137 1073.79 592.33 z" fill="rgb(43,37,32)" transform="translate(0,0)"></path>
<path d="M 1193.91 505.737 C 1220.69 501.237 1239.41 501.442 1263.33 516.918 C 1289.71 533.992 1297.22 575.045 1298.24 604.703 C 1300.08 629.442 1298.43 648.03 1295.68 672.487 C 1251.52 658.701 1219.74 649.989 1172.91 660.032 C 1179.46 654.239 1182.63 651.452 1187.35 643.92 C 1194.63 645.064 1205.1 648.041 1210.63 644.382 C 1211.58 638.357 1207.96 635.133 1204.18 629.911 C 1216.89 627.91 1233.72 622.359 1239.19 609.482 L 1238.97 608.523 C 1231.97 607.791 1223.25 618.101 1217.03 620.734 C 1211.55 623.054 1204.65 623.87 1198.77 624.151 C 1193.48 619.691 1188.1 614.993 1182.54 610.918 C 1189.12 607.257 1210.48 592.8 1206.18 584.452 L 1204.14 584.017 C 1195.07 590.363 1188.48 607.018 1173.08 605.815 L 1171.96 602.236 C 1171.83 602.906 1171.7 603.576 1171.57 604.247 C 1170.82 601.161 1165.26 581.106 1165.67 580.296 C 1161.81 568.599 1147.61 551.604 1137.27 544.89 C 1135.82 542.031 1140.3 530.907 1141.63 526.316 C 1160.07 516.907 1174.17 511.245 1193.91 505.737 z" fill="rgb(247,241,234)" transform="translate(0,0)"></path>
<path d="M 1193.91 505.737 C 1220.69 501.237 1239.41 501.442 1263.33 516.918 C 1289.71 533.992 1297.22 575.045 1298.24 604.703 C 1282.49 581.765 1270.77 561.262 1248.64 543.027 C 1237.53 533.869 1207.21 505.302 1193.91 505.737 z" fill="rgb(252,235,225)" transform="translate(0,0)"></path>
<path d="M 1165.67 580.296 C 1168.64 576.62 1180.43 555.171 1180.92 555.14 C 1192.7 554.415 1171.4 583.797 1169.14 586.781 C 1170.36 591.745 1171.93 597.205 1171.96 602.236 C 1171.83 602.906 1171.7 603.576 1171.57 604.247 C 1170.82 601.161 1165.26 581.106 1165.67 580.296 z" fill="rgb(43,37,32)" transform="translate(0,0)"></path>
<path d="M 1910.94 705.229 L 1913.03 705.115 L 1914.44 706.589 C 1921.05 732.01 1909.7 770.115 1898.74 793.388 C 1862.64 870.072 1793.17 922.376 1714.92 950.637 C 1712.55 950.979 1712.94 950.899 1710.53 950.743 C 1709.77 946.372 1720.58 931.582 1723.44 926.513 C 1761.74 858.766 1805.84 794.184 1859.44 737.546 C 1880.56 715.23 1880.27 711.653 1910.94 705.229 z" fill="rgb(121,49,26)" transform="translate(0,0)"></path>
<path d="M 874.599 1183.2 C 875.769 1182.99 878.342 1182.51 879.287 1183.35 C 904.865 1206.16 928.903 1214.98 962.491 1201.44 C 964.139 1204.85 965.595 1208.36 966.85 1211.94 C 982.62 1256.15 957.624 1294.46 915.281 1309.23 C 913.63 1309.66 911.973 1310.06 910.311 1310.44 C 872.018 1319.17 824.104 1300.82 815.167 1259.37 C 811.87 1243.37 815.181 1226.72 824.347 1213.2 C 836.682 1194.76 853.654 1187.27 874.599 1183.2 z" fill="rgb(247,241,234)" transform="translate(0,0)"></path>
<path d="M 824.399 1292.32 C 826.124 1292.51 840.209 1304.08 845.085 1306.66 C 873.114 1321.51 895.085 1320.45 924.133 1312.56 C 939.075 1356.19 918.661 1395.2 876.327 1411.42 C 871.693 1412.78 867.441 1413.87 862.705 1414.82 C 824.801 1422.47 776.865 1401.86 770.423 1360.09 C 768.146 1344.36 772.244 1328.37 781.807 1315.68 C 792.662 1301.29 807.018 1294.89 824.399 1292.32 z" fill="rgb(247,241,234)" transform="translate(0,0)"></path>
<path d="M 902.959 592.887 C 900.206 597.498 897.76 602.286 895.639 607.22 C 882.653 637.603 882.437 671.934 895.039 702.478 C 909.983 739.334 936.275 762.124 972.232 777.335 L 969.097 780.378 C 933.793 777.625 900.627 769.75 868.506 754.507 C 837.517 739.773 809.142 720.078 784.501 696.199 C 760.282 672.936 763.659 669.145 789.41 651.105 C 825.005 626.169 861.05 605.156 902.959 592.887 z" fill="rgb(255,255,255)" transform="translate(0,0)"></path>
<path d="M 784.387 1400.02 C 787.783 1400.91 795.082 1407.78 799.134 1409.79 C 829.864 1425.07 850.169 1424.79 881.245 1416.14 C 891.817 1456 875.531 1487.88 838.606 1505.12 C 834.886 1506.49 831.11 1507.69 827.287 1508.73 C 807.009 1514.05 785.455 1511.28 767.187 1500.99 C 719.542 1473.58 730.111 1413.7 784.387 1400.02 z" fill="rgb(247,241,234)" transform="translate(0,0)"></path>
<path d="M 796.786 1240.83 C 796.874 1243.33 795.456 1249.2 795.14 1252.07 C 793.185 1269.77 792.437 1277.47 802.149 1292.51 C 773.99 1305.62 751.722 1337.98 752.789 1369.51 C 753.234 1382.67 756.834 1390.71 763.582 1401.64 C 755.589 1405.84 749.748 1410.75 743.749 1417.39 C 717.048 1446.92 713.022 1485.46 744.079 1513.11 C 716.146 1522.17 694.839 1520.52 667.769 1510.02 C 645.122 1499.46 632.572 1488.58 618.727 1467.9 C 648.921 1457.18 673.859 1444.87 696.694 1421.7 C 726.133 1391.83 746.024 1354.32 758.286 1314.48 C 766.663 1287.26 778.928 1263.08 796.786 1240.83 z" fill="rgb(231,89,42)" transform="translate(0,0)"></path>
<path d="M 935.249 1054.46 C 976.604 1080.95 1008.13 1145.68 969.615 1188.17 C 959.284 1199.56 943.832 1202.14 929.17 1201.99 C 925.838 1201.53 922.523 1200.95 919.233 1200.24 C 898.508 1195.74 886.843 1183.66 875.972 1166.55 C 883.666 1153.93 891.541 1137.9 898.527 1124.59 L 935.249 1054.46 z" fill="rgb(247,241,234)" transform="translate(0,0)"></path>
<path d="M 1120.78 722.322 C 1136.32 720.599 1148.62 722.51 1162.23 730.15 C 1167.09 745.728 1166.75 771.411 1167.31 788.66 C 1155.67 786.293 1146.21 785.293 1134.62 783.461 C 1120.58 780.392 1072.01 766.929 1084.25 739.607 C 1088.6 729.911 1109.98 724.166 1120.78 722.322 z" fill="rgb(247,241,234)" transform="translate(0,0)"></path>
<path d="M 1346.7 578.637 C 1351.89 582.442 1361.57 592.759 1366.23 597.401 C 1384.69 615.784 1401.44 635.278 1418.4 655.021 C 1410.22 659.999 1402.29 664.341 1393.9 668.932 C 1377.76 677.414 1356.98 686.181 1338.7 685.813 C 1348.68 651.185 1348.55 614.214 1346.7 578.637 z" fill="rgb(255,255,255)" transform="translate(0,0)"></path>
<path d="M 1295.77 554.728 C 1306.41 564.343 1333.6 623.506 1340.6 638.427 C 1339.19 654.272 1337.99 666.207 1333.98 681.792 L 1333.04 683.1 C 1328.16 684.365 1306.7 676.145 1300.91 674.134 C 1308.45 634.374 1304.71 593.811 1295.77 554.728 z" fill="rgb(231,89,42)" transform="translate(0,0)"></path>
<path d="M 1087.5 433.778 C 1087.87 434.126 1088.74 434.82 1088.74 435.497 C 1088.65 461.765 1072.04 488.833 1049.06 501.494 C 1043.8 504.388 1039.12 505.653 1033.35 507.235 C 1032.79 506.602 1032.1 505.909 1032.29 505.016 C 1037.92 478.994 1070.3 449.587 1087.5 433.778 z" fill="rgb(247,241,234)" transform="translate(0,0)"></path>
<path d="M 1122.95 535.716 C 1128.49 532.572 1137.2 526.898 1132.6 536.749 C 1131.71 538.635 1131.71 538.794 1130.5 540.356 C 1131.46 542.663 1134.29 543.871 1136.6 545.287 L 1137.27 544.89 C 1147.61 551.604 1161.81 568.599 1165.67 580.296 C 1165.26 581.106 1170.82 601.161 1171.57 604.247 C 1171.7 603.576 1171.83 602.906 1171.96 602.236 L 1173.08 605.815 C 1172.08 607.758 1171.36 627.561 1170.7 632.456 C 1169.72 639.851 1167.86 647.101 1165.16 654.052 C 1161.12 664.198 1156.69 669.173 1147.07 673.386 C 1159.92 659.059 1167.32 640.667 1167.97 621.433 C 1169.05 593.718 1157.39 569.923 1136.55 551.368 C 1132.49 547.749 1121.13 542.648 1117.4 538.602 L 1118.05 537.534 L 1121.99 536.81 L 1122.95 535.716 z" fill="rgb(231,89,42)" transform="translate(0,0)"></path>
<path d="M 1122.95 535.716 C 1128.49 532.572 1137.2 526.898 1132.6 536.749 C 1131.71 538.635 1131.71 538.794 1130.5 540.356 C 1127.48 537.847 1126.53 537.464 1122.95 535.716 z" fill="rgb(247,241,234)" transform="translate(0,0)"></path>
<path d="M 883.807 1134.19 L 885.149 1137.24 C 877.421 1151.44 869.941 1165.76 862.713 1180.22 C 857.64 1181.54 854.146 1182.49 849.376 1184.7 C 845.636 1186.85 842.916 1188.88 839.332 1191.09 C 842.347 1187.71 845.264 1184.27 848.22 1180.84 C 862.187 1161.81 867.811 1152.64 883.807 1134.19 z" fill="rgb(231,89,42)" transform="translate(0,0)"></path>
<path d="M 1171.45 640.867 C 1182.9 643.611 1181.36 645.155 1170.31 653.807 C 1169.42 654.54 1166.05 657.639 1165.22 657.657 L 1165.04 657.428 C 1165.05 657.573 1170.9 642.252 1171.45 640.867 z" fill="rgb(247,241,234)" transform="translate(0,0)"></path>
<path d="M 883.807 1134.19 C 884.221 1133.44 891.996 1122.47 892.494 1122.18 L 892.691 1122.26 C 892.941 1123.59 886.313 1135.43 885.149 1137.24 L 883.807 1134.19 z" fill="rgb(201,72,30)" transform="translate(0,0)"></path>
<path d="M 972.232 777.335 C 975.498 778.209 979.724 779.896 982.973 781.103 C 978.386 780.922 973.656 780.807 969.097 780.378 L 972.232 777.335 z" fill="rgb(252,235,225)" transform="translate(0,0)"></path>
<path d="M 872.411 1173.55 C 873.465 1173.35 874.528 1173.86 875.024 1174.81 C 875.52 1175.77 875.333 1176.93 874.563 1177.68 C 873.818 1178.41 872.694 1178.58 871.766 1178.11 C 870.839 1177.64 870.313 1176.63 870.459 1175.6 C 870.604 1174.57 871.389 1173.74 872.411 1173.55 z" fill="rgb(247,241,234)" transform="translate(0,0)"></path>
<path d="M 1770.73 1203.61 C 1777.47 1135.42 1801.67 1107.94 1842.06 1057.29 C 1867.61 1025.24 1889.73 987.418 1901.6 947.958 C 1905.5 935.016 1908.27 921.762 1909.89 908.343 C 1912.83 883.068 1909.35 858.625 1930.63 841.236 C 1941.33 832.49 1955.14 828.505 1968.85 830.209 C 2028.86 837.32 2039.78 927.639 2033.16 974.42 C 2030.78 991.72 2026.45 1008.7 2020.26 1025.03 C 2013.74 1042.27 2007.63 1053.7 2003.47 1071.85 C 2056.71 1060.29 2111.76 1050.24 2166.52 1050.61 C 2183.42 1050.73 2200.02 1053.84 2214.5 1063.03 C 2229.11 1072.28 2239.35 1087.05 2242.88 1103.98 C 2247.46 1125.79 2239.01 1146.19 2223.68 1161.7 C 2242.51 1168.54 2257.84 1179.13 2266.41 1197.88 C 2272.97 1212.45 2273.46 1229.04 2267.77 1243.97 C 2262.99 1256.66 2256.6 1263.74 2246.75 1272.56 C 2262.52 1286.53 2272 1299.86 2273.15 1321.77 C 2274.11 1338.55 2268.24 1355.01 2256.88 1367.41 C 2251.04 1373.84 2245.36 1377.75 2238.19 1382.53 C 2251.6 1397.28 2257.77 1409.91 2257.13 1430.56 C 2256.56 1448.91 2248.18 1465.57 2234.41 1477.77 C 2211.93 1497.68 2172.4 1502.5 2144.07 1510.24 C 2128.64 1514.45 2113.48 1520.83 2098.12 1525.08 C 2052.01 1537.83 2001.67 1547.23 1953.67 1544.34 C 1917.36 1542.16 1889.51 1534.12 1856.95 1518.24 C 1848.82 1520.6 1816.05 1525.9 1808.26 1526.35 C 1791 1527.34 1732.84 1540.49 1721.36 1537.19 L 1720.63 1535.67 C 1721.2 1534.95 1721.77 1534.24 1722.34 1533.53 C 1758.7 1527.28 1815.11 1519.92 1849.97 1513.95 C 1838.98 1506.3 1815.58 1488.99 1810.54 1477.2 L 1810.64 1474.91 L 1811.99 1474.01 C 1818.96 1477.58 1826.25 1488.4 1832.36 1493.67 C 1908.36 1559.26 2026.28 1542.18 2113.22 1514.31 C 2082.03 1511.97 2037.93 1507.3 2016.19 1481.66 C 2007.05 1470.72 2002.65 1456.59 2003.96 1442.39 C 2005 1429.95 2010.39 1420.65 2018.07 1411.18 C 2003.11 1401.25 1991.52 1389.34 1987.9 1371.04 C 1984.96 1355.93 1988.31 1340.28 1997.19 1327.7 C 1999 1325.1 2000.83 1322.98 2002.97 1320.62 C 1988.06 1312.48 1983.83 1308.63 1973.4 1295.14 L 1971.59 1295.09 C 1968.44 1290.4 1967.9 1286.32 1964.72 1284.42 C 1961.41 1286.02 1944.78 1297.82 1939.01 1301.4 C 1934.07 1303.76 1928.2 1307.1 1923.32 1309.78 C 1885.1 1330.77 1841.21 1327.32 1806.28 1300 C 1806.18 1299.46 1794.39 1280.55 1793.02 1278.91 C 1784.29 1268.42 1777.64 1233.14 1770.84 1225.16 L 1770.68 1209.23 C 1760.24 1211.08 1692.97 1223.03 1688.11 1221.16 L 1686.62 1219.68 C 1691.19 1214.17 1719.81 1211.78 1728.64 1210.42 C 1742.42 1208.29 1756.96 1205.57 1770.73 1203.61 z" fill="rgb(247,241,234)" transform="translate(0,0)"></path>
<path d="M 1770.73 1203.61 C 1777.47 1135.42 1801.67 1107.94 1842.06 1057.29 C 1867.61 1025.24 1889.73 987.418 1901.6 947.958 C 1905.5 935.016 1908.27 921.762 1909.89 908.343 C 1912.83 883.068 1909.35 858.625 1930.63 841.236 C 1941.33 832.49 1955.14 828.505 1968.85 830.209 C 2028.86 837.32 2039.78 927.639 2033.16 974.42 C 2030.78 991.72 2026.45 1008.7 2020.26 1025.03 C 2013.74 1042.27 2007.63 1053.7 2003.47 1071.85 C 2056.71 1060.29 2111.76 1050.24 2166.52 1050.61 C 2183.42 1050.73 2200.02 1053.84 2214.5 1063.03 C 2229.11 1072.28 2239.35 1087.05 2242.88 1103.98 C 2247.46 1125.79 2239.01 1146.19 2223.68 1161.7 C 2242.51 1168.54 2257.84 1179.13 2266.41 1197.88 C 2272.97 1212.45 2273.46 1229.04 2267.77 1243.97 C 2262.99 1256.66 2256.6 1263.74 2246.75 1272.56 C 2262.52 1286.53 2272 1299.86 2273.15 1321.77 C 2274.11 1338.55 2268.24 1355.01 2256.88 1367.41 C 2251.04 1373.84 2245.36 1377.75 2238.19 1382.53 C 2251.6 1397.28 2257.77 1409.91 2257.13 1430.56 C 2256.56 1448.91 2248.18 1465.57 2234.41 1477.77 C 2211.93 1497.68 2172.4 1502.5 2144.07 1510.24 C 2128.64 1514.45 2113.48 1520.83 2098.12 1525.08 C 2052.01 1537.83 2001.67 1547.23 1953.67 1544.34 C 1917.36 1542.16 1889.51 1534.12 1856.95 1518.24 C 1848.82 1520.6 1816.05 1525.9 1808.26 1526.35 C 1791 1527.34 1732.84 1540.49 1721.36 1537.19 L 1720.63 1535.67 C 1721.2 1534.95 1721.77 1534.24 1722.34 1533.53 C 1758.7 1527.28 1815.11 1519.92 1849.97 1513.95 C 1838.98 1506.3 1815.58 1488.99 1810.54 1477.2 L 1810.64 1474.91 L 1811.99 1474.01 C 1818.96 1477.58 1826.25 1488.4 1832.36 1493.67 C 1908.36 1559.26 2026.28 1542.18 2113.22 1514.31 C 2082.03 1511.97 2037.93 1507.3 2016.19 1481.66 C 2007.05 1470.72 2002.65 1456.59 2003.96 1442.39 C 2005 1429.95 2010.39 1420.65 2018.07 1411.18 C 2003.11 1401.25 1991.52 1389.34 1987.9 1371.04 C 1984.96 1355.93 1988.31 1340.28 1997.19 1327.7 C 1999 1325.1 2000.83 1322.98 2002.97 1320.62 C 1988.06 1312.48 1983.83 1308.63 1973.4 1295.14 C 1956.69 1260.48 1966.54 1230.5 2000.27 1212.24 C 1994.68 1208.99 1990.59 1206.26 1985.73 1202.14 C 1959.15 1179.65 1964.93 1134.23 1993.24 1115.78 C 2005.71 1107.65 2017.99 1106.16 2032.23 1103.06 C 2043.94 1100.57 2055.56 1097.67 2067.06 1094.35 C 2088.22 1088.16 2104.08 1081.17 2124.35 1073.5 L 2126.16 1074.47 L 2126.71 1076.45 C 2124.82 1080.77 2114.34 1083.65 2109.99 1085.39 C 2084.36 1095.66 2058.14 1103.63 2031.07 1109.15 C 2022.56 1110.88 2011.19 1112.93 2003.43 1116.66 C 1995.36 1120.63 1988.46 1126.64 1983.42 1134.09 C 1962.37 1164.73 1980.45 1206.1 2016.9 1211.38 C 2039.98 1214.72 2081.97 1210.39 2105.47 1205.04 C 2144.83 1196.09 2204.3 1178.9 2229.29 1145.55 C 2247.83 1119.12 2236.55 1083.69 2209.98 1067.08 C 2202.77 1062.57 2194.75 1059.5 2186.38 1058.02 C 2143.17 1050.21 2046.76 1067.81 2003.79 1077.78 C 2004.96 1082.79 2007.12 1088.04 2003.19 1092.12 C 1987.85 1078.07 2011.54 1032.98 2017.21 1016.5 C 2021.32 1004.52 2024.42 992.209 2026.46 979.706 C 2033.54 935.493 2026.66 843.595 1968.72 836.079 C 1956.83 834.547 1944.82 837.792 1935.32 845.103 C 1911.95 863.199 1919.23 895.631 1913.56 921.948 C 1909.38 947.008 1900.67 969.328 1890.3 992.397 C 1861.02 1057.5 1799.68 1099.23 1781.81 1169.78 C 1778.63 1182.48 1776.81 1195.47 1776.39 1208.55 C 1776.2 1213.51 1776.82 1218.61 1776.27 1223.19 C 1773.81 1225.52 1774.89 1224.83 1770.84 1225.16 L 1770.68 1209.23 C 1760.24 1211.08 1692.97 1223.03 1688.11 1221.16 L 1686.62 1219.68 C 1691.19 1214.17 1719.81 1211.78 1728.64 1210.42 C 1742.42 1208.29 1756.96 1205.57 1770.73 1203.61 z" fill="rgb(43,37,32)" transform="translate(0,0)"></path>
<path d="M 2219.22 1166.15 C 2271.93 1179.85 2282 1245.02 2238.52 1271.11 C 2188.64 1301.03 2075.91 1330.01 2018.15 1319.67 C 2000.91 1315.68 1985.14 1304.85 1976.97 1288.92 C 1970.59 1276.65 1969.41 1262.33 1973.69 1249.19 C 1979.37 1232.06 1991.7 1222.58 2007.2 1214.98 C 2009.7 1215.69 2012.22 1216.33 2014.76 1216.9 C 2027.24 1219.62 2045.82 1218.02 2058.83 1217.15 C 2112.29 1213.59 2173.99 1195.54 2219.22 1166.15 z" fill="rgb(247,241,234)" transform="translate(0,0)"></path>
<path d="M 2241.13 1276.9 L 2243.01 1277.03 C 2265.21 1291.97 2273.44 1324 2262.53 1348.08 C 2251.29 1372.9 2227.35 1381.97 2203.53 1391.13 C 2160.62 1407.63 2067.19 1427.16 2025.42 1408.47 C 1989.97 1390.03 1981.79 1353.75 2008.11 1323.13 C 2052.18 1334.56 2134.52 1317.88 2177.52 1303.78 C 2199.43 1296.58 2220.7 1287.59 2241.13 1276.9 z" fill="rgb(247,241,234)" transform="translate(0,0)"></path>
<path d="M 2233.14 1385.12 C 2267.69 1420.73 2251.46 1469.95 2207.03 1487.13 C 2193.36 1492.41 2180.6 1495.27 2166.64 1499.11 C 2121.25 1511.61 2082.41 1511.34 2039.24 1492.17 C 2006.21 1475.19 2001.09 1442.73 2022.85 1413.76 C 2024 1414.26 2025.16 1414.73 2026.33 1415.18 C 2046.34 1422.89 2062.17 1421.75 2083.03 1420.99 C 2137.97 1418.98 2183.08 1406.93 2233.14 1385.12 z" fill="rgb(247,241,234)" transform="translate(0,0)"></path>
<path d="M 1806.28 1300 C 1807.47 1298.83 1808.28 1297.31 1809.79 1297.56 C 1812.86 1298.07 1819.05 1301.25 1821.51 1302.83 C 1857.24 1325.8 1897.47 1319.73 1932.26 1298.45 C 1935.81 1296.28 1938.46 1297.01 1939.01 1301.4 C 1934.07 1303.76 1928.2 1307.1 1923.32 1309.78 C 1885.1 1330.77 1841.21 1327.32 1806.28 1300 z" fill="rgb(43,37,32)" transform="translate(0,0)"></path>
<path d="M 485.1 137.407 C 571.569 127.188 675.861 179.16 727.052 248.23 C 687.647 225.642 654.213 209.392 608.215 204.642 C 561.622 199.44 514.91 213.337 478.737 243.162 C 430.024 283.116 408.007 338.206 401.744 399.185 C 424.887 400.935 448.353 402.52 471.467 404.805 C 476.549 405.307 480.005 406.648 482.337 411.27 C 482.264 418.192 477.5 422.99 472.794 427.612 C 460.264 439.916 447.976 452.447 435.64 464.944 L 371.545 530.018 C 359.52 542.341 347.142 555.994 334.008 567.182 C 328.591 571.43 324.224 567.186 320.788 563.32 C 291.236 530.078 261.703 496.841 231.976 463.758 L 194.763 422.081 C 189.473 416.095 183.217 409.322 178.527 402.837 C 177.187 400.984 178.214 398.638 178.745 396.761 C 185.825 389.655 243.434 392.311 255.912 392.286 C 260.164 355.125 267.019 324.668 282.702 290.214 C 320.177 207.881 392.294 144.569 485.1 137.407 z" fill="rgb(231,89,42)" transform="translate(0,0)"></path>
<path d="M 265.306 401.714 C 267.571 349.257 288.392 288.506 319.304 246.245 C 410.545 121.507 552.558 120.421 669.958 205.276 L 668.535 208.422 C 643.633 199.079 614.911 193.471 588.402 193.617 C 538.407 193.994 490.658 214.44 455.883 250.362 C 417.309 289.49 391.121 352.93 391.471 407.939 C 413.7 410.998 446.833 412.782 470.238 415.062 C 464.514 421.213 457.919 427.68 451.872 433.536 C 410.202 473.894 370.753 517.201 329.565 557.922 L 190.309 401.948 L 265.306 401.714 z" fill="rgb(255,255,255)" transform="translate(0,0)"></path>
<path d="M 669.958 205.276 C 673.743 207.967 676.915 210.863 680.386 213.906 C 675.923 211.743 673.28 210.432 668.535 208.422 L 669.958 205.276 z" fill="rgb(252,235,225)" transform="translate(0,0)"></path>
<path d="M 1545.32 1186.62 C 1547.6 1186.6 1548.11 1186.87 1550.33 1187.47 C 1553.04 1190.33 1552.35 1188.71 1552.79 1192.33 C 1550.77 1197.62 1534.6 1211.07 1529.37 1215.4 C 1469.68 1265.44 1394.48 1293.22 1316.59 1294.02 C 1307.45 1294.13 1283.16 1296.73 1277.66 1289.83 C 1276.21 1282.94 1300.03 1232.63 1304.42 1222.51 C 1245.17 1249.05 1178.38 1282.01 1119.18 1306.2 C 1123.91 1312.71 1129.96 1319.83 1135.19 1326.01 C 1174.87 1372.9 1213.49 1421.28 1253.59 1467.75 C 1256.96 1454.05 1262.91 1403.39 1268.95 1395.56 C 1275.74 1392.3 1286.97 1395.36 1294.97 1395.84 C 1391.95 1401.68 1490.46 1370.61 1565.59 1309.6 C 1577.85 1299.75 1589.47 1289.13 1600.4 1277.82 C 1606.1 1271.84 1616.79 1255.58 1624.12 1256.55 C 1628.99 1262.72 1624.47 1266.33 1620.31 1270.91 C 1530.04 1371.14 1409.32 1416.3 1275.43 1403.78 C 1273.27 1415.87 1264.04 1473.56 1260.27 1480.78 C 1254.84 1483.43 1251.08 1480.68 1247.51 1476.57 C 1238.74 1466.45 1230.25 1455.98 1221.67 1445.69 L 1170.83 1384.67 L 1132.5 1338.57 C 1125.4 1330.03 1117.68 1321.13 1111.19 1312.19 C 1108.24 1308.13 1107.7 1307.14 1108.49 1303.1 C 1113.63 1296.15 1125.18 1292.85 1133.12 1289.31 L 1172.88 1271.25 C 1215.6 1251.79 1258.28 1232.21 1301.12 1213.02 C 1307.03 1210.38 1313.63 1207.12 1317.1 1214.33 C 1316.89 1223.75 1294.2 1271.91 1288.81 1283.97 C 1300.34 1284.3 1311.86 1284.3 1323.39 1283.99 C 1404.35 1281.15 1489.77 1246.29 1545.32 1186.62 z" fill="rgb(231,89,42)" transform="translate(0,0)"></path>
<metadata><recraft-signature>{"signed_by": "recraft", "signature_b64": "7e/93dL+ziUu3wLh1WwnOy+x9Gz8iMGT76u+69VYBhPJVaJwegKjgPk2wYVLTDtp+HT8NrBFSZ3b//2ALWCmCw==", "signing_algo": "Ed25519", "generation_timestamp": 1783393838, "identifier": "cdcd63fd-ca81-496a-8408-c489231a8e27"}</recraft-signature></metadata></svg>