<svg xmlns="http://www.w3.org/2000/svg" height="1792" preserveAspectRatio="none" style="display: block;" version="1.1" viewBox="0 0 2432 1792" width="2432">
<path d="M 0 0 L 2432 0 L 2432 1792 L 0 1792 L 0 0 z" fill="rgb(255,255,255)" transform="translate(0,0)"></path>
<path d="M 559.676 640.352 C 570.496 638.892 599.823 639.697 612.032 639.723 L 713.606 639.685 L 931.29 639.76 C 975.772 639.738 1020.25 639.495 1064.75 639.771 C 1082.44 639.881 1102.2 646.787 1114.33 659.89 C 1119.51 665.473 1131.07 686.917 1135.66 694.932 L 1173.64 760.974 L 1219.28 839.696 C 1232.54 862.489 1248.94 882.147 1247.57 909.093 C 1267.84 927.546 1291.1 943.847 1312.65 960.906 C 1322.48 968.683 1334.28 976.519 1341.92 986.54 C 1346.98 993.172 1348.84 1002.8 1347.46 1010.95 C 1345.74 1021.14 1296.37 1117.09 1288.93 1128.98 C 1287.06 1131.94 1284.61 1134.48 1281.72 1136.45 C 1277.24 1139.55 1271.73 1140.09 1266.49 1138.93 C 1261.74 1137.83 1257.42 1135.37 1254.05 1131.84 C 1248.46 1125.92 1239.05 1108.14 1234.46 1100.57 C 1221.18 1078.64 1208.78 1054.97 1194.93 1033.43 L 967.051 1481.25 C 960.093 1494.93 937.948 1541.05 930.446 1550.65 C 926.572 1555.65 921.755 1559.85 916.266 1562.99 C 911.43 1565.79 898.942 1566.77 893.297 1566.77 C 848.677 1566.78 803.965 1566.73 759.352 1566.74 L 489.373 1566.69 L 391.411 1566.81 C 323.303 1566.91 325.767 1574.82 291.274 1515.37 L 260.582 1462.68 C 225.931 1403.23 189.215 1342.27 155.722 1282.4 C 169.582 1254.83 186.472 1226 201.079 1198.55 C 244.294 1117.34 290.482 1036.99 333.498 955.769 L 427.412 780.028 C 438.168 759.575 449.082 739.206 460.153 718.922 C 473.03 695.395 481.541 677.018 504.467 661.462 C 522.855 648.985 537.694 643.068 559.676 640.352 z" fill="rgb(27,23,20)" transform="translate(0,0)"></path>
<path d="M 560.105 644.352 C 565.471 643.578 573.196 643.66 578.714 643.655 C 598.685 643.638 618.659 643.738 638.631 643.763 L 796.632 643.724 L 984.008 643.802 L 1038.17 643.639 C 1070.03 643.529 1083.87 640.891 1110.05 661.201 C 1094.58 688.569 1078.96 721.747 1064.48 750.109 L 994.434 885.228 C 926.441 1016.64 855.747 1150.67 789.645 1282.84 L 710.124 1283.04 L 160.466 1282.95 C 173.848 1254.71 194.429 1219.93 209.683 1191.72 L 334.495 962.975 L 431.535 781.35 C 441.993 761.566 452.556 741.839 463.225 722.169 C 475.809 699.027 484.256 680.259 506.672 664.907 C 524.305 652.83 538.978 647.153 560.105 644.352 z" fill="rgb(252,235,225)" transform="translate(0,0)"></path>
<path d="M 789.881 908.266 C 819.619 905.147 841.387 919.368 846.753 949.427 C 854.921 995.183 832.055 1047.9 807.051 1085.32 C 780.128 1125.62 741.059 1163.39 692.436 1173.27 C 680.418 1174.46 664.016 1173.43 654.593 1165.92 C 605.479 1126.79 647.417 1034.76 675.225 995.077 C 702.941 955.526 743.934 916.857 789.881 908.266 z" fill="rgb(27,23,20)" transform="translate(0,0)"></path>
<path d="M 538.713 907.45 C 652.323 908.689 554.685 1161.59 424.572 1173.82 C 305.865 1171.19 412.541 917.519 538.713 907.45 z" fill="rgb(27,23,20)" transform="translate(0,0)"></path>
<path d="M 964.173 715.011 C 983.387 714.64 987.696 730.905 975.994 744.221 C 971.02 749.881 964.838 755.138 959.384 760.461 L 924.968 794.138 C 909.452 809.331 893.102 825.668 877.121 840.19 C 862.359 853.604 833.552 815.991 823.682 805.985 C 819.669 802.095 806.074 790.08 806.408 783.475 C 807.219 767.654 822.752 762.842 834.342 773.248 C 845.99 783.706 856.787 794.999 868.018 805.892 C 880.675 792.507 951.92 720.161 964.173 715.011 z" fill="rgb(27,23,20)" transform="translate(0,0)"></path>
<path d="M 963.271 718.981 C 970.854 718.589 978.563 722.082 978.546 729.902 C 978.523 739.703 958.994 754.872 952.647 761.007 L 917.539 795.49 C 905.884 806.878 894.22 818.292 882.531 829.648 C 877.628 834.412 872.313 838.929 865.173 839.121 C 857.018 835.7 832.806 809.578 825.541 802.301 C 822.238 799.025 811.069 788.924 811.084 784.809 C 811.216 747.333 857.945 801.909 868.118 811.042 C 895.019 785.85 920.663 759.147 947.185 733.554 C 952.512 728.413 957.205 723.274 963.271 718.981 z" fill="rgb(231,89,42)" transform="translate(0,0)"></path>
<path d="M 285.754 1128.42 C 285.944 1128.49 288.148 1129.16 288.184 1129.27 C 295.899 1153.74 308.796 1187.61 313.885 1212.47 C 309.823 1212.73 309.963 1212.73 308.763 1208.54 C 303.746 1191.02 297.826 1173.63 292.991 1156.06 C 290.72 1147.81 286.483 1136.68 285.754 1128.42 z" fill="rgb(27,23,20)" transform="translate(0,0)"></path>
<path d="M 268.176 1184.86 C 271.133 1187.71 276.914 1207.3 274.849 1212.46 C 271.503 1208.41 264.11 1189.67 268.176 1184.86 z" fill="rgb(27,23,20)" transform="translate(0,0)"></path>
<path d="M 1112.3 665.441 C 1116.53 668.052 1135.94 703.766 1139.71 710.37 L 1182.51 784.78 L 1221.38 851.835 C 1230.72 867.97 1250.06 894.585 1242.36 914.029 C 1210.53 994.382 1171.32 1070.83 1132.16 1147.76 L 936.16 1532.95 L 895.9 1463.18 C 903.11 1447.69 913.091 1429.41 921.033 1414.01 L 971.839 1315.91 L 1119.64 1029.44 L 1170.55 930.421 C 1175.07 921.727 1193.33 888.121 1195.98 880.394 L 1195.01 879.295 C 1192.9 880.273 1192.56 880.031 1191.34 882.234 C 1180.9 901.08 1170.99 921.093 1161.02 940.173 L 1087.39 1082.71 L 893.72 1458.2 C 883.906 1439.86 871.707 1420.17 860.958 1402.21 C 871.08 1384.72 880.389 1365.83 889.735 1347.85 L 937.68 1255.28 L 981.826 1170.51 C 986.933 1160.63 1001.44 1135.67 1002.65 1126.04 L 1001.74 1125.8 C 996.474 1131.99 988.616 1148.14 984.58 1155.92 L 961.541 1200.37 L 858.975 1398.31 C 837.283 1360.39 815.274 1322.64 792.95 1285.09 C 808.289 1252.59 830.066 1213.42 846.799 1180.64 L 977.761 926.406 L 1066.34 755.493 C 1080.73 727.455 1096.92 692.195 1112.3 665.441 z" fill="rgb(231,89,42)" transform="translate(0,0)"></path>
<path d="M 163.84 1287.3 C 218.489 1286.32 274.546 1287.18 329.308 1287.09 L 788.79 1286.97 C 813.058 1326.54 835.845 1367.58 859.477 1407.58 C 869.974 1425.35 880.034 1444.07 891.086 1461.42 C 887.765 1464.4 884.673 1466.37 881.01 1468.87 C 874.237 1471.95 864.943 1475.56 857.453 1475.93 C 833.774 1477.08 809.213 1476.67 785.501 1476.67 L 657.299 1476.64 L 273.873 1476.51 C 248.254 1433.52 223 1390.3 198.115 1346.87 C 189.775 1332.48 169.795 1300.93 163.84 1287.3 z" fill="rgb(231,89,42)" transform="translate(0,0)"></path>
<path d="M 1265.01 929.338 C 1282.93 938.921 1304.9 962.919 1322.95 974.183 C 1359.99 997.303 1338.33 1023.39 1323.61 1052.32 L 1290.18 1118.42 C 1266.6 1166.91 1237.85 1098.38 1225.82 1077.44 C 1236.46 1030.21 1253.2 977.464 1265.01 929.338 z" fill="rgb(231,89,42)" transform="translate(0,0)"></path>
<path d="M 1589.89 269.182 C 1591.76 258.543 1594.01 250.173 1600.67 241.353 C 1609.48 229.822 1622.57 222.326 1636.97 220.558 C 1651 218.896 1665.1 222.949 1676.1 231.803 C 1688.82 241.93 1693.74 253.551 1695.47 269.207 C 1723.73 268.886 1758.37 263.272 1772.49 294.258 C 1778.29 306.962 1776.64 326.668 1776.65 340.794 L 1776.61 407.484 L 1776.61 577.985 C 1776.63 609.816 1776.21 643.022 1777.11 674.747 C 1791.12 652.336 1798.41 632.201 1817.68 611.546 C 1844.22 583.098 1871.42 575.498 1908.77 573.597 C 1910.41 564.301 1911.73 551.349 1912.48 542.041 C 1905.96 538.423 1903.29 536.706 1897.37 532.19 C 1877.68 538.313 1856.34 536.303 1853.02 510.936 C 1852.16 504.362 1852.36 501.695 1848.51 496.156 C 1845.2 491.384 1848.78 484.929 1850.63 480.43 C 1852 477.112 1843.44 470.935 1842.16 467.652 C 1831.8 450.573 1839.2 436.288 1854.99 426.52 C 1852.34 398.202 1869.18 383.38 1896.92 390.146 C 1898.83 386.237 1900.73 382.519 1903.72 379.067 C 1914.31 366.857 1934.49 364.368 1946.03 376.531 C 1947.79 378.382 1949.71 380.29 1951.54 382.155 C 1974.92 377.877 1985.34 387.03 1987.98 410.399 C 2010.68 420.513 2010.83 432.994 2004.88 450.254 C 2001.05 461.344 2021.54 463.072 2002.19 483.277 C 2001.46 507.752 1997.19 520.521 1977.57 535.592 L 1982.91 567.283 C 2032.51 571.428 2057.94 568.361 2089.61 611.914 L 2090.43 610.99 C 2093.12 607.987 2091.55 604.311 2093.21 600.058 L 2093.76 598.55 C 2097.79 576.338 2105.21 566.203 2126.55 557.922 C 2121.42 537.042 2116.57 516.095 2111.99 495.086 C 2110.24 487.421 2104.61 468.688 2105.16 461.729 C 2107.01 438.191 2129.32 438.2 2143.29 451.266 C 2148.2 435.186 2152.59 407.914 2162.42 394.35 C 2169.07 385.164 2177.15 388.115 2185.93 391.484 C 2191.74 386.775 2194.25 383.52 2201.89 384.107 C 2207.28 384.025 2212.71 391.801 2217.89 389.599 C 2223.09 387.387 2227.11 386.782 2232.31 389.32 C 2243.4 394.73 2247.01 406.137 2245.5 417.372 C 2251 417.416 2263.63 409.032 2274.2 419.451 C 2277.8 422.993 2280.94 432.217 2280.3 436.557 C 2278.21 450.706 2273.13 467.792 2269.54 481.707 L 2243.49 582.391 C 2283.26 617.09 2251.49 647.053 2238.97 684.308 C 2231.3 707.103 2235.43 733.021 2227.32 756.922 C 2223.41 768.591 2217.15 779.333 2208.92 788.481 C 2193.14 806.53 2170.71 817.391 2146.77 818.574 C 2118.63 820.053 2098.55 809.233 2076.8 793.179 C 2080.9 817.622 2076.66 832.861 2055.03 846.68 C 2068.62 895.951 2079.67 932.096 2080.96 984.756 C 2081.46 1005.51 2077.91 1039.9 2080.4 1057.48 C 2085.15 1091.11 2099.04 1115.06 2100.17 1152.19 C 2101.19 1185.37 2090.74 1210.24 2092.77 1241.93 C 2095.24 1280.36 2119.91 1334.57 2098.96 1371.82 C 2092.65 1383.12 2082 1391.36 2069.47 1394.64 C 2060.1 1397.15 2053.44 1396.76 2044.02 1395.74 C 2044.08 1405.9 2044.32 1416.67 2044.17 1426.78 C 2061.05 1425.53 2064.06 1430.06 2074.5 1442.32 C 2127.04 1447.13 2181.45 1472.72 2188.7 1530.67 C 2203.52 1545.61 2199.06 1567.2 2176.89 1569.62 C 2166.37 1570.77 2154.25 1569.97 2143.52 1569.94 L 2083.37 1569.88 C 2026.83 1569.85 1970.17 1570.07 1913.62 1569.94 C 1905.8 1569.82 1898.6 1569.27 1893.06 1563.01 C 1888.57 1557.94 1886.79 1553.21 1887.21 1546.51 C 1887.84 1536.33 1894.09 1531.44 1902.53 1527.23 C 1895.23 1498.17 1899.35 1464.81 1923.72 1444.73 C 1924.25 1429.64 1924.64 1414.55 1924.91 1399.46 C 1917.77 1398.8 1906.93 1396.92 1900.64 1393.04 C 1853.72 1364.12 1894.16 1312.74 1899.54 1275.83 C 1904.09 1249.88 1899.9 1219.94 1904.81 1194.27 C 1915.88 1136.39 1935.02 1115.62 1915.41 1054.44 C 1911.11 1073.57 1907.44 1091.28 1904.79 1110.76 C 1902.06 1130.87 1900 1150.86 1895.25 1170.62 C 1889.51 1195.53 1875.97 1218.39 1870.26 1243.26 C 1865.13 1265.63 1865.61 1288.96 1860.79 1311.56 C 1852.53 1350.31 1840.82 1399.68 1791.29 1395.83 C 1788.16 1412.38 1783.41 1429.92 1779.28 1446.36 C 1796.55 1480.1 1794.33 1492.92 1783.98 1527.83 C 1791.58 1533 1796.56 1538.79 1796.98 1548.47 C 1797.6 1562.41 1786.51 1569.68 1773.62 1569.84 C 1754.81 1570.07 1735.97 1569.97 1717.14 1569.95 L 1608.63 1569.91 L 1542.21 1570 C 1532.14 1570.01 1517.88 1570.93 1508.25 1569.53 C 1486.18 1566.32 1483.05 1543.57 1498.31 1529.52 C 1513.23 1469.23 1561.6 1446.16 1620.14 1442.75 C 1630.28 1428.1 1638.7 1422.54 1655.93 1430.26 L 1665.8 1396.44 C 1648.1 1395.27 1630.16 1387.68 1624.52 1369.31 C 1613.83 1334.5 1647.28 1298.02 1658.97 1267 C 1671.22 1234.48 1680.26 1202.7 1693.45 1170.75 C 1696.4 1164.42 1699.08 1156.99 1702.74 1151.09 C 1716.21 1129.34 1726.13 1107.16 1736.72 1083.94 C 1726.72 1071.2 1727.46 1059.77 1727.06 1044.4 C 1715.01 1062.38 1694 1097.58 1676.7 1111.39 C 1669.69 1116.99 1657.26 1110.24 1652.68 1104.75 C 1649.78 1104.67 1640.38 1105.04 1638.48 1102.97 C 1632.38 1096.36 1633.93 1093.67 1624.52 1091.54 C 1619.07 1089.71 1611.9 1074.98 1609.93 1070.08 C 1605.68 1059.52 1621.72 1032.67 1626.33 1022.39 C 1638.7 994.805 1652.72 968.54 1664.02 940.696 C 1657.89 936.013 1652.24 929.791 1649.49 922.305 C 1637.36 889.29 1672.15 865.921 1686.85 840.895 C 1698.27 821.456 1708.48 802.029 1717.21 781.77 L 1402.99 781.819 L 1329.1 782.006 C 1316.26 782.046 1297.87 782.854 1285.52 780.729 C 1273.21 778.611 1249.57 761.447 1239.62 753.445 C 1227.26 743.501 1229.41 719.019 1229.35 704.621 C 1229.31 692.723 1229.43 679.683 1229.47 667.43 L 1229.35 543.177 L 1000.49 543.132 L 943.46 543.002 C 937.754 543.023 913.171 544.767 910.52 541.014 C 914.587 537.807 938.248 539.129 944.382 539.132 L 1012.04 539.149 L 1229.32 539.261 L 1229.22 376.923 C 1229.19 362.847 1228.06 311.661 1229.85 301.723 C 1231.24 293.634 1235.16 286.197 1241.05 280.487 C 1255.39 266.508 1276.21 269.042 1294.98 269.123 C 1296.57 258.472 1298.91 250.188 1305.54 241.432 C 1314.39 229.887 1327.51 222.394 1341.95 220.645 C 1356.07 218.984 1370.27 223.062 1381.37 231.966 C 1394.2 242.247 1398.46 253.249 1400.35 269.025 L 1443.68 269.069 C 1444.73 259.248 1447.53 250.844 1453.26 242.751 C 1461.73 230.91 1474.65 223.029 1489.05 220.928 C 1503.25 218.815 1517.7 222.594 1529.05 231.39 C 1542.62 241.751 1546.84 252.822 1549.08 269.069 L 1589.89 269.182 z" fill="rgb(27,23,20)" transform="translate(0,0)"></path>
<path d="M 2089.61 611.914 L 2090.43 610.99 C 2093.12 607.987 2091.55 604.311 2093.21 600.058 L 2093.76 598.55 L 2094.35 619.541 C 2092.65 617.074 2091.07 614.529 2089.61 611.914 z" fill="rgb(247,241,234)" transform="translate(0,0)"></path>
<path d="M 1233.22 376.801 L 1751.48 376.709 L 1751.51 576.102 C 1751.55 606.77 1751.8 637.474 1751.47 668.145 C 1751.11 701.633 1743.43 728.016 1717.75 750.376 C 1705.45 759.494 1695.53 761.845 1680.54 761.966 L 1391.12 761.911 L 1308.18 761.941 C 1297.21 762.001 1286.19 762.012 1275.24 762.098 C 1263.08 762.257 1252.46 761.565 1243.52 752.078 C 1234.73 742.752 1233.15 732.377 1233.24 720.076 C 1233.35 704.683 1233.59 689.292 1233.59 673.9 L 1233.41 543.059 C 1240.75 543.208 1248.07 543.923 1254.98 541.568 L 1254.35 540.555 C 1247.72 538.687 1240.19 539.238 1233.23 539.362 L 1233.22 376.801 z" fill="rgb(252,235,225)" transform="translate(0,0)"></path>
<path d="M 1517.86 448.918 C 1533.64 447.839 1553.42 464.989 1543.23 476.737 C 1537.42 483.427 1535.02 477.587 1527.11 492.275 C 1547.89 516.81 1536.34 535.04 1513.08 534.785 C 1514.36 534.799 1500.7 542.569 1494.95 544.018 C 1483.92 543.177 1479.46 552.66 1472.11 543.115 C 1471.24 533.345 1465.82 526.1 1467.28 515.978 C 1478.38 500.729 1457.86 487.826 1480.3 476.27 C 1488.46 472.067 1496.39 472.946 1504.88 476.086 L 1513.17 465.736 C 1510.49 456.576 1510.78 454.956 1517.86 448.918 z" fill="rgb(27,23,20)" transform="translate(0,0)"></path>
<path d="M 1488.97 477.323 C 1508.56 477.202 1500.51 480.414 1493.86 489.988 C 1492.74 491.643 1492.64 493.58 1493.11 495.494 C 1495.26 504.098 1505.99 511.465 1514.74 509.481 C 1519.65 508.074 1520.59 500.975 1523.58 497.509 C 1525.6 495.177 1528.97 500.588 1529.93 502.008 C 1534.81 509.233 1534.24 514.42 1532.56 522.164 C 1523.43 534.284 1512.67 530.712 1500.48 525.137 C 1481.43 516.429 1455.46 487.422 1488.97 477.323 z" fill="rgb(231,89,42)" transform="translate(0,0)"></path>
<path d="M 1515.57 469.061 C 1520.03 472.572 1520.28 474.75 1526.45 478.123 L 1529.75 479.913 C 1526.07 485.617 1516.27 503.468 1512.47 506.328 C 1506.66 504.586 1497.76 501.141 1497.11 494.49 C 1496.74 490.725 1512.57 472.696 1515.57 469.061 z" fill="rgb(231,89,42)" transform="translate(0,0)"></path>
<path d="M 1519.43 452.899 C 1531.94 453.955 1549.3 465.815 1537.36 477.36 C 1527.45 475.468 1508.21 463.737 1519.43 452.899 z" fill="rgb(231,89,42)" transform="translate(0,0)"></path>
<path d="M 1488.42 523.422 C 1495.6 528.01 1492.13 526.554 1487.21 534.549 C 1485.15 537.9 1482.9 541.251 1480.79 544.586 C 1474.48 540.579 1474.96 541.649 1480.42 534.402 C 1483.28 530.596 1485.72 527.337 1488.42 523.422 z" fill="rgb(252,235,225)" transform="translate(0,0)"></path>
<path d="M 1658.07 434.113 C 1666.28 432.105 1674.94 434.671 1680.73 440.828 C 1686.52 446.985 1688.55 455.782 1686.05 463.855 C 1683.54 471.928 1676.89 478.029 1668.63 479.825 C 1656.08 482.553 1643.67 474.689 1640.78 462.18 C 1637.89 449.67 1645.6 437.162 1658.07 434.113 z" fill="rgb(27,23,20)" transform="translate(0,0)"></path>
<path d="M 1659.4 629.036 C 1672.02 626.648 1684.21 634.874 1686.72 647.472 C 1689.23 660.07 1681.12 672.337 1668.54 674.964 C 1655.8 677.627 1643.33 669.383 1640.79 656.615 C 1638.25 643.846 1646.61 631.456 1659.4 629.036 z" fill="rgb(27,23,20)" transform="translate(0,0)"></path>
<path d="M 1663.03 499.089 C 1675.92 498.724 1686.68 508.854 1687.09 521.744 C 1687.5 534.635 1677.41 545.429 1664.52 545.885 C 1651.57 546.344 1640.7 536.19 1640.29 523.235 C 1639.88 510.28 1650.07 499.456 1663.03 499.089 z" fill="rgb(27,23,20)" transform="translate(0,0)"></path>
<path d="M 1398.52 500.175 C 1406.53 497.494 1415.36 499.339 1421.63 505.002 C 1427.89 510.666 1430.62 519.268 1428.76 527.505 C 1426.89 535.743 1420.73 542.336 1412.64 544.754 C 1400.41 548.409 1387.51 541.58 1383.66 529.41 C 1379.8 517.241 1386.42 504.229 1398.52 500.175 z" fill="rgb(27,23,20)" transform="translate(0,0)"></path>
<path d="M 1570.2 500.196 C 1582.55 496.304 1595.71 503.201 1599.55 515.573 C 1603.38 527.945 1596.42 541.075 1584.03 544.849 C 1571.72 548.598 1558.7 541.696 1554.89 529.406 C 1551.09 517.117 1557.93 504.061 1570.2 500.196 z" fill="rgb(27,23,20)" transform="translate(0,0)"></path>
<path d="M 1661.44 563.982 C 1674.13 562.79 1685.43 571.998 1686.83 584.669 C 1688.22 597.34 1679.2 608.788 1666.55 610.389 C 1658.19 611.448 1649.9 607.915 1644.88 601.146 C 1639.85 594.378 1638.86 585.425 1642.3 577.724 C 1645.73 570.023 1653.04 564.771 1661.44 563.982 z" fill="rgb(27,23,20)" transform="translate(0,0)"></path>
<path d="M 1317.38 628.839 C 1330.08 627.572 1341.44 636.76 1342.86 649.45 C 1344.28 662.14 1335.23 673.612 1322.56 675.184 C 1314.23 676.219 1305.98 672.692 1300.97 665.951 C 1295.96 659.21 1294.97 650.296 1298.36 642.615 C 1301.76 634.934 1309.02 629.672 1317.38 628.839 z" fill="rgb(27,23,20)" transform="translate(0,0)"></path>
<path d="M 1486.67 564.258 C 1494.9 562.506 1503.44 565.331 1509.01 571.65 C 1514.57 577.968 1516.3 586.797 1513.52 594.745 C 1510.74 602.693 1503.89 608.524 1495.6 609.999 C 1483.08 612.227 1471.08 604.003 1468.64 591.52 C 1466.2 579.037 1474.23 566.905 1486.67 564.258 z" fill="rgb(27,23,20)" transform="translate(0,0)"></path>
<path d="M 1570.69 434.224 C 1582.95 430.703 1595.76 437.691 1599.43 449.902 C 1603.11 462.114 1596.28 475.011 1584.12 478.84 C 1576.11 481.361 1567.37 479.38 1561.23 473.654 C 1555.09 467.929 1552.51 459.344 1554.47 451.182 C 1556.43 443.019 1562.62 436.541 1570.69 434.224 z" fill="rgb(27,23,20)" transform="translate(0,0)"></path>
<path d="M 1488.97 628.833 C 1501.69 627.373 1513.21 636.461 1514.74 649.176 C 1516.28 661.89 1507.26 673.458 1494.55 675.066 C 1481.74 676.688 1470.06 667.575 1468.51 654.756 C 1466.96 641.936 1476.14 630.305 1488.97 628.833 z" fill="rgb(27,23,20)" transform="translate(0,0)"></path>
<path d="M 1316.68 499.012 C 1329.41 497.448 1341 506.469 1342.61 519.189 C 1344.23 531.908 1335.25 543.536 1322.53 545.195 C 1309.75 546.863 1298.05 537.828 1296.43 525.041 C 1294.81 512.254 1303.89 500.585 1316.68 499.012 z" fill="rgb(27,23,20)" transform="translate(0,0)"></path>
<path d="M 1401.92 629.138 C 1414.58 626.88 1426.67 635.311 1428.93 647.969 C 1431.19 660.626 1422.75 672.715 1410.09 674.97 C 1397.44 677.224 1385.35 668.793 1383.1 656.138 C 1380.84 643.483 1389.27 631.396 1401.92 629.138 z" fill="rgb(27,23,20)" transform="translate(0,0)"></path>
<path d="M 1312.12 565.219 C 1320.04 562.528 1328.79 564.298 1335.04 569.856 C 1341.29 575.413 1344.07 583.899 1342.32 592.076 C 1340.57 600.252 1334.56 606.858 1326.58 609.372 C 1314.44 613.198 1301.48 606.542 1297.52 594.446 C 1293.56 582.349 1300.07 569.317 1312.12 565.219 z" fill="rgb(27,23,20)" transform="translate(0,0)"></path>
<path d="M 1575.44 564.168 C 1587.95 563.137 1599.02 572.25 1600.4 584.728 C 1601.78 597.206 1592.98 608.519 1580.55 610.252 C 1572.19 611.418 1563.85 607.948 1558.79 601.194 C 1553.73 594.44 1552.73 585.468 1556.2 577.769 C 1559.66 570.07 1567.03 564.861 1575.44 564.168 z" fill="rgb(27,23,20)" transform="translate(0,0)"></path>
<path d="M 1569.54 630.276 C 1577.4 627.479 1586.16 629.122 1592.47 634.579 C 1598.79 640.036 1601.68 648.464 1600.05 656.647 C 1598.42 664.829 1592.51 671.504 1584.59 674.124 C 1572.53 678.111 1559.51 671.652 1555.39 659.639 C 1551.27 647.626 1557.58 634.533 1569.54 630.276 z" fill="rgb(27,23,20)" transform="translate(0,0)"></path>
<path d="M 1400.62 564.862 C 1413.03 561.836 1425.55 569.437 1428.6 581.847 C 1431.64 594.257 1424.06 606.787 1411.65 609.848 C 1399.22 612.916 1386.66 605.314 1383.61 592.879 C 1380.56 580.443 1388.18 567.893 1400.62 564.862 z" fill="rgb(231,89,42)" transform="translate(0,0)"></path>
<path d="M 1937.17 855.387 C 1947.86 853.943 2043.55 874.502 2059.75 877.693 C 2070.89 917.445 2077.52 957.74 2076.93 999.069 C 2076.54 1026.14 2072.12 1050.65 2080.07 1077.35 C 2087.65 1102.76 2095.24 1127.25 2096.27 1153.99 C 2097.45 1184.73 2086.15 1213.25 2088.94 1244.01 C 2091.98 1286.79 2122.82 1347.34 2084.63 1382.42 C 2061.16 1401.87 2032.14 1386.19 2004.5 1387.7 C 1977.36 1389.2 1947.97 1395.62 1921.02 1395 C 1898.55 1394.48 1879.82 1373.1 1882.03 1350.43 C 1884.45 1325.64 1899.34 1302.7 1903.35 1277.94 C 1906.07 1261.12 1905.52 1244.92 1905.94 1228 C 1906.37 1214.76 1907.67 1201.56 1909.84 1188.48 C 1913.1 1168.93 1921.37 1151.35 1924.48 1133.56 C 1933.07 1084.33 1943.05 1033.71 1948.51 984.093 C 1951.94 979.936 1977.03 954.869 1977.44 953.424 L 1976.34 952.362 C 1967.33 954.278 1943.93 983.827 1937.76 992.473 C 1912.68 1030.86 1905.98 1074.18 1899.55 1118.62 C 1896.61 1133.55 1895.88 1157.61 1890.87 1171.75 C 1876.39 1212.61 1863.46 1240.72 1860.6 1284.91 C 1858.11 1323.46 1840.94 1404.07 1787.55 1390.81 C 1773.46 1387.6 1760.47 1384.66 1746.1 1383.53 C 1720.74 1381.54 1670.53 1398.06 1648.27 1388.84 C 1639.16 1385.15 1632.01 1377.82 1628.52 1368.64 C 1617.36 1339.07 1651.9 1296.87 1662.72 1268.74 C 1674.67 1237.63 1682.95 1206.94 1695.51 1176.12 C 1702.88 1158.05 1711.32 1145.09 1720.29 1128.16 C 1726.9 1115.69 1733.8 1099.47 1739.73 1086.41 C 1782.24 1103.64 1780.91 1027.26 1778.63 1003.74 C 1806.04 962.206 1810.71 941.859 1823.86 895.368 C 1864.49 871.776 1889.67 860.471 1937.17 855.387 z" fill="rgb(231,89,42)" transform="translate(0,0)"></path>
<path d="M 2128.87 561.395 C 2146.76 560.268 2172.12 569.578 2190.45 572.885 C 2222.89 579.084 2266.6 583.237 2257.43 629.083 C 2252.82 649.5 2239.27 665.406 2234.26 686.017 C 2230.49 700.573 2229.77 716.008 2228.73 730.991 C 2225.97 772.519 2195.12 808.823 2153.13 814.15 C 2119.94 818.361 2099.75 805.274 2074.85 786.371 C 2061.02 747.09 2049.22 707.122 2039.51 666.625 L 2038.69 666.663 C 2035.71 677.701 2045.9 704.182 2048.34 716.313 C 2053.98 746.055 2074.68 781.01 2073.84 811.011 C 2069.87 859.316 2013.51 845.54 1980.73 848.459 C 1966.23 849.75 1951.42 849.787 1936.68 851.343 C 1916.48 853.475 1894.13 852.543 1873.79 850.557 C 1857.68 848.983 1833.21 848.504 1822.73 834.519 C 1802.26 805.562 1830.47 769.115 1840.43 741.394 C 1848.06 720.452 1852.55 697.924 1856.61 676.028 C 1856.96 674.142 1856.74 674.551 1855.44 673.037 C 1852 674.469 1851.44 683.278 1850.67 687.351 C 1845.39 715.293 1839.41 735.517 1827.02 761.193 C 1816.8 782.067 1808.87 800.444 1813.45 823.714 C 1816.3 838.154 1817.68 852.757 1820.74 867.415 C 1792.16 930.4 1806.72 997.907 1711.71 956.1 C 1706.02 954.438 1699.69 951.069 1694.09 949.543 C 1668.82 942.656 1641.08 925.076 1653.94 894.112 C 1662.52 873.439 1685.86 854.201 1696.34 833.149 C 1705.68 814.414 1717.16 794.483 1724.64 774.567 C 1729.1 763.236 1731.77 751.066 1736.54 739.618 C 1745.2 718.874 1763.33 702.73 1775.1 684.733 C 1800.61 645.723 1813.29 604.222 1861.43 586.001 C 1869.8 582.833 1900.43 575.253 1907.59 578.497 C 1907.86 579.427 1909.83 586.267 1910.23 586.678 C 1923.47 600.404 1949.61 601.377 1966.14 593.261 C 1976.39 588.227 1980.28 581.78 1983.71 571.582 C 2034.73 573.9 2075.97 578.312 2095.33 634.248 C 2101.24 651.335 2089.13 679.078 2092.02 689.584 L 2093.22 689.859 C 2099.22 678.276 2100.71 651.328 2099.87 638.491 C 2097.79 606.59 2090.08 574.402 2128.87 561.395 z" fill="rgb(252,235,225)" transform="translate(0,0)"></path>
<path d="M 1298.46 273.084 L 1443.38 273.012 C 1444.04 293.456 1452.99 311.595 1472.8 319.818 C 1476.75 321.459 1484.49 324.392 1488.41 322.719 L 1488.71 321.106 C 1484.37 317.774 1472.46 318.016 1463.17 309.328 C 1451.03 297.967 1448.53 288.994 1447.08 273.063 L 1589.52 273.09 C 1590.2 292.189 1598.6 309.949 1616.59 318.733 C 1620.64 320.709 1630.49 324.142 1634.67 322.628 L 1634.95 321.122 C 1630.36 317.847 1619.18 318.105 1609.82 309.353 C 1597.61 297.93 1594.85 289.515 1593.35 273.273 C 1597.78 272.969 1604.86 273.12 1609.5 273.067 L 1681.83 272.921 C 1699.79 272.908 1727.99 269.563 1741.15 282.774 C 1745.53 287.185 1748.68 292.661 1750.29 298.661 C 1752.96 308.598 1751.81 359.144 1751.74 372.613 L 1233.3 372.727 C 1233.43 336.457 1220.8 283.625 1264.84 273.239 C 1272.81 272.669 1286.37 273.009 1294.75 272.97 C 1295.4 290.891 1302.23 308.952 1319.38 317.406 C 1324.19 319.779 1334.19 324.393 1339.32 322.749 L 1339.88 320.945 C 1334.14 317.308 1323.96 317.591 1315.26 309.747 C 1303.15 298.841 1299.99 288.721 1298.46 273.084 z" fill="rgb(231,89,42)" transform="translate(0,0)"></path>
<path d="M 1638.06 1431.21 C 1656.35 1429.58 1658.94 1439.5 1667.74 1453.56 C 1672.45 1461.09 1676.76 1468.6 1681.68 1476.01 C 1709.26 1469.92 1748.18 1457.62 1776.26 1449.61 L 1777.4 1451.79 C 1792.83 1481.54 1789.6 1496.38 1779.87 1527 C 1738.32 1527.47 1696.11 1527.14 1654.5 1527.13 L 1554.99 1527.15 C 1542.44 1527.14 1514.16 1526.29 1502.99 1527.81 C 1516.52 1470.41 1566.78 1450.77 1620.4 1446.23 C 1625.15 1452.72 1627.18 1456.12 1633.9 1460.72 C 1633.63 1455.33 1625.02 1449.02 1625.97 1441 C 1628.52 1435.73 1632.86 1433.71 1638.06 1431.21 z" fill="rgb(252,235,225)" transform="translate(0,0)"></path>
<path d="M 2048.99 1430.19 C 2060.47 1430.51 2064.87 1436.46 2071.03 1444.97 C 2067.88 1449.21 2064.2 1453.8 2063.2 1458.94 L 2064.53 1459.14 C 2068.81 1456.09 2071.61 1450.83 2074.48 1446.32 C 2125.68 1449.92 2173.75 1474.77 2184.75 1528.34 C 2175.23 1526.38 2143.91 1527.08 2132.91 1527.09 L 2036.5 1527.15 L 1906.7 1526.96 C 1897.74 1498.26 1904.26 1469.2 1925.71 1448.06 C 1954.44 1457.61 1983.25 1466.95 2012.12 1476.07 C 2022.84 1460.79 2032.67 1434.69 2048.99 1430.19 z" fill="rgb(252,235,225)" transform="translate(0,0)"></path>
<path d="M 2171.96 392.091 C 2198.72 390.378 2184.15 422.663 2180.81 435.048 C 2179.21 441.009 2169.08 470.335 2169.58 473.238 C 2175.28 475.793 2218.18 485.733 2226.79 487.845 C 2231.63 469.518 2237.85 414.02 2261.67 417.905 C 2266.29 418.65 2270.4 421.272 2273.03 425.15 C 2275.44 428.654 2276.56 432.891 2276.19 437.133 C 2275.47 446.295 2269.01 466.986 2266.75 476.92 C 2259.19 510.132 2246.42 547.568 2240.13 580.598 C 2231.33 577.218 2217.68 574.621 2208.08 572.515 L 2159.77 561.975 C 2149.86 559.727 2140.65 557.312 2130.49 557.699 L 2117.76 501.648 C 2114.77 488.983 2110.46 474.498 2109.13 461.847 C 2107.72 448.374 2125.44 441.407 2135.9 450.211 C 2150.72 462.681 2154.03 481.978 2157.07 500.087 C 2175.53 508.877 2187.96 519.395 2192.21 540.594 C 2193.14 545.257 2192.2 558.194 2194.26 560.73 L 2195.52 560.438 C 2198.53 554.779 2197.29 541.14 2195.4 534.924 C 2189.62 515.843 2178 506.607 2161.45 497.502 C 2157.72 480.503 2154.97 470.061 2146.57 454.972 C 2149.7 444.265 2152.01 433.102 2155.1 422.384 C 2158.84 409.392 2159.57 399.381 2171.96 392.091 z" fill="rgb(231,89,42)" transform="translate(0,0)"></path>
<path d="M 1661.68 956.923 C 1689.48 963.339 1720.19 965.58 1748.26 971.874 C 1755.87 973.581 1762.05 974.025 1769.81 973.32 C 1769.18 998.646 1768.13 1022.21 1765.51 1047.38 C 1764.68 1055.38 1765.71 1066.4 1764.73 1074.14 C 1764.4 1076.73 1763.3 1079.17 1761.57 1081.12 C 1755.63 1087.81 1743.92 1086.31 1738.65 1079.97 C 1728.72 1068.03 1731.01 1045.54 1731.02 1030.94 C 1717.72 1047.5 1706.85 1069.98 1693.35 1087.25 C 1688.5 1095.73 1672.19 1116.3 1660.87 1106.7 C 1647.7 1095.54 1690.98 1050.19 1689.35 1038.55 C 1684.06 1040.22 1669.83 1067.68 1666.12 1074.01 C 1661.9 1081.11 1655.8 1093.78 1650.8 1099.52 C 1645.95 1101.77 1640.6 1100.96 1637.34 1096.52 C 1633.87 1084.36 1666.6 1042.48 1670.91 1028.03 L 1669.5 1026.88 C 1662.42 1029.39 1640.05 1082.44 1629.16 1089.78 C 1604.09 1087.5 1652.25 1029.81 1651.66 1018.84 L 1650.07 1018.37 C 1642.07 1026.89 1621.57 1071.11 1616.83 1073.92 C 1605.08 1067.54 1627 1030.69 1631.53 1021.18 L 1661.68 956.923 z" fill="rgb(231,89,42)" transform="translate(0,0)"></path>
<path d="M 1903.16 1531.2 C 1914.94 1530.39 1930.82 1530.83 1942.88 1530.85 L 2012.38 1530.99 C 2067.77 1531.04 2126.83 1529.88 2181.91 1531.27 C 2197.49 1541.88 2197.62 1556.3 2180.77 1565.73 C 2163.66 1566.84 2139.73 1566.07 2121.82 1566.05 L 2013.57 1566.02 L 1940.45 1566.06 C 1928.24 1566.06 1899.69 1569.71 1893.37 1557.12 C 1888.01 1546.43 1892.93 1536.7 1903.16 1531.2 z" fill="rgb(252,235,225)" transform="translate(0,0)"></path>
<path d="M 1504.65 1531.2 C 1520.78 1530 1549.28 1531.01 1566.66 1530.99 L 1692.05 1530.97 L 1750.35 1530.95 C 1756.73 1530.93 1774.31 1530.06 1779.81 1531.66 C 1798.59 1537.15 1796.09 1557.09 1780.94 1565.7 C 1767.66 1566.88 1736.66 1566.11 1722.09 1566.11 L 1606.75 1566.05 L 1540.02 1566.1 C 1532 1566.11 1514.67 1567.23 1507.73 1565.62 C 1488.45 1561.15 1488.52 1540.9 1504.65 1531.2 z" fill="rgb(252,235,225)" transform="translate(0,0)"></path>
<path d="M 1949.38 432.476 C 1949.71 433.114 1950.05 433.748 1950.39 434.38 C 1956.97 446.435 1963.75 449.811 1976.12 453.446 L 1984.27 452.755 C 1989.8 455.812 1996.45 476.972 1997.41 483.572 C 1999.42 496.719 1995.96 510.114 1987.84 520.648 C 1970.58 542.928 1935.17 550.314 1910.57 536.621 C 1905.96 534.055 1901.83 530.833 1897.65 527.634 C 1885.31 531.808 1869.75 534.59 1860.92 522.008 C 1857.78 517.599 1856.58 512.094 1857.6 506.775 C 1860.95 488.723 1880.31 484.916 1895.72 488.332 C 1908.66 476.448 1914.06 463.881 1906.76 446.851 C 1912.15 442.984 1928.95 458.739 1949.38 432.476 z" fill="rgb(231,89,42)" transform="translate(0,0)"></path>
<path d="M 1949.04 478.348 C 1941.69 469.579 1964.67 477.198 1964.94 477.337 C 1974.12 482.059 1963.06 497.402 1955.22 497.59 C 1954.26 490.969 1952.59 484.057 1949.04 478.348 z" fill="rgb(27,23,20)" transform="translate(0,0)"></path>
<path d="M 1949.04 478.348 C 1975.33 480.95 1961.77 482.999 1955.22 497.59 C 1954.26 490.969 1952.59 484.057 1949.04 478.348 z" fill="rgb(201,72,30)" transform="translate(0,0)"></path>
<path d="M 1937.51 470.384 C 1948.4 475.494 1936.39 499.364 1917.89 480.595 C 1917.4 478.467 1916.37 475.919 1918.29 474.505 C 1921.26 474.143 1923.74 484.738 1930.41 483.721 C 1938.79 482.444 1936.47 475.894 1937.51 470.384 z" fill="rgb(27,23,20)" transform="translate(0,0)"></path>
<path d="M 1976.95 457.262 L 1979.72 455.521 C 1982.16 459.663 1983.53 462.466 1981.65 467.405 C 1980.53 470.272 1978.28 472.551 1975.42 473.702 C 1972.62 474.859 1969.45 474.743 1966.74 473.382 C 1964.08 472.063 1958.02 466.352 1962.18 464.504 C 1962.22 464.485 1977.91 478.66 1977.66 461.57 C 1977.63 459.526 1976.92 459.807 1976.95 457.262 z" fill="rgb(27,23,20)" transform="translate(0,0)"></path>
<path d="M 1871.45 501.315 C 1875.11 501.106 1894.1 500.904 1888.54 507.966 C 1885.68 511.602 1883.29 515.287 1880.84 519.461 C 1871.45 522.017 1884.84 508.278 1883.72 506.683 C 1881.78 503.939 1875.7 506.05 1873.06 504.761 C 1871.88 504.189 1871.7 502.372 1871.45 501.315 z" fill="rgb(27,23,20)" transform="translate(0,0)"></path>
<path d="M 1938.59 502.648 C 1944.12 505.338 1944.15 509.888 1951.49 510.793 C 1958.43 511.649 1960.34 500.652 1963.45 508.942 C 1955.81 515.516 1949.49 517.864 1940.77 509.562 C 1938.6 507.502 1938.37 505.506 1938.59 502.648 z" fill="rgb(27,23,20)" transform="translate(0,0)"></path>
<path d="M 1674.21 1395.11 C 1682.04 1395.19 1708.28 1401.08 1716.54 1402.93 C 1738.6 1407.99 1760.69 1412.93 1782.8 1417.76 C 1780.06 1427.26 1777.38 1436.77 1774.75 1446.31 C 1766.52 1448.21 1756.51 1451.34 1748.25 1453.67 C 1727.39 1459.98 1704.62 1465.83 1683.49 1471.65 C 1675.64 1460.47 1667.2 1445.16 1659.44 1433.21 C 1662.36 1422.39 1665.27 1410.88 1669.23 1400.4 C 1670.88 1396.03 1670.91 1396.52 1674.21 1395.11 z" fill="rgb(231,89,42)" transform="translate(0,0)"></path>
<path d="M 1929.05 1399.28 C 1950.64 1401.32 1978.47 1408.18 2000.2 1411.84 C 2008.82 1413.29 2032.41 1417.22 2039.42 1419.42 C 2041.11 1421.74 2040.75 1425.26 2040.81 1428.31 C 2030.42 1436.24 2017.99 1459.67 2010.93 1471.6 C 1983.68 1463.08 1954.6 1454.01 1927.75 1444.47 L 1929.05 1399.28 z" fill="rgb(231,89,42)" transform="translate(0,0)"></path>
<path d="M 1639.22 224.246 C 1668.07 222.899 1687.6 241.05 1691.44 269.148 L 1648.84 269.163 L 1593.79 269.167 C 1598.55 242.619 1612.81 228.744 1639.22 224.246 z" fill="rgb(255,255,255)" transform="translate(0,0)"></path>
<path d="M 1344.77 224.36 C 1355.66 223.563 1366.5 226.471 1375.53 232.611 C 1389.14 241.944 1394.05 253.44 1396.82 268.976 C 1384.81 269.754 1365.61 269.139 1353.06 269.139 L 1299.02 269.157 C 1303.35 243.265 1318.53 227.688 1344.77 224.36 z" fill="rgb(255,255,255)" transform="translate(0,0)"></path>
<path d="M 1493.25 224.274 C 1504.53 223.463 1515.73 226.622 1524.92 233.205 C 1538.1 242.632 1542.72 253.671 1545.28 269.076 L 1499.75 269.028 L 1447.39 269.031 C 1451.88 243.1 1467.29 228.198 1493.25 224.274 z" fill="rgb(255,255,255)" transform="translate(0,0)"></path>
<path d="M 2199.11 388.17 L 2199.94 388.247 C 2207.98 388.918 2211.26 391.351 2215.7 398.161 C 2216.74 399.835 2217.53 403.593 2217.01 405.49 C 2210.62 428.505 2203.84 451.461 2197.43 474.477 C 2196.78 476.822 2194.29 475.961 2192.76 475.364 C 2186.28 473.491 2180.76 472.362 2174.26 470.837 C 2178.65 455.663 2183.47 440.604 2187.66 425.347 C 2189.25 418.237 2195.19 406.079 2190.83 398.995 C 2186.5 391.955 2192.03 390.054 2199.11 388.17 z" fill="rgb(231,89,42)" transform="translate(0,0)"></path>
<path d="M 2219.73 392.122 C 2259.31 387.039 2231.35 448.64 2228.25 466.367 C 2227.55 470.365 2225.04 478.498 2223.45 482.138 L 2221.53 482.67 C 2215.09 481.224 2207.57 479 2201.1 477.265 C 2207.13 453.146 2214.86 427.831 2221.39 403.54 C 2219.71 399.158 2217.65 396.324 2219.73 392.122 z" fill="rgb(231,89,42)" transform="translate(0,0)"></path>
<path d="M 1974.67 548.777 C 1977.49 551.417 1976.29 555.765 1977.28 559.013 C 1982.21 575.139 1976.97 584.157 1961 590.852 C 1947.31 596.588 1934.3 595.489 1920.23 589.312 C 1918.02 588.037 1915.79 586.661 1914.05 584.956 C 1911.49 582.458 1914.31 562.779 1914.74 558.857 C 1937.16 565.495 1957.16 566.396 1974.67 548.777 z" fill="rgb(231,89,42)" transform="translate(0,0)"></path>
<path d="M 248.768 753.602 C 249.724 753.826 251.909 754.001 252.624 754.688 C 261.322 763.044 269.912 771.516 278.511 779.974 C 290.138 791.41 301.838 802.784 313.339 814.344 C 314.085 815.093 313.642 817.251 313.557 818.271 C 312.294 817.821 310.956 817.433 309.961 816.469 C 289.696 796.831 269.674 776.91 249.543 757.144 C 249.04 756.65 248.846 754.171 248.768 753.602 z" fill="rgb(27,23,20)" transform="translate(0,0)"></path>
<path d="M 207.644 844.005 C 211.923 844.426 215.793 845.351 220.015 845.948 C 243.068 849.211 265.989 853.288 289.012 856.724 C 293.417 857.381 293.422 856.788 294.419 860.907 C 286.411 860.754 275.226 858.429 266.994 857.168 L 215.994 849.147 C 209.966 848.158 208.639 849.562 207.644 844.005 z" fill="rgb(27,23,20)" transform="translate(0,0)"></path>
<metadata><recraft-signature>{"signed_by": "recraft", "signature_b64": "H5tUlwGGQ9xi+BuSH8lN9GkUrQMkK56mb3QDOVkQWEyFW8HviEDY5kz29l5E9m+sYP2WOsSID0VrKafteQEYAA==", "signing_algo": "Ed25519", "generation_timestamp": 1783393842, "identifier": "b64fd28f-e9d2-4d3a-b7c0-99dc7dfd7d45"}</recraft-signature></metadata></svg>